solid OpenSCAD_Model
  facet normal 1 -0 0
    outer loop
      vertex 15 -15 5.05
      vertex 15 15 -5.05
      vertex 15 15 5.05
    endloop
  endfacet
  facet normal 1 0 0
    outer loop
      vertex 15 15 -5.05
      vertex 15 -15 5.05
      vertex 15 -15 -5.05
    endloop
  endfacet
  facet normal -0 0 1
    outer loop
      vertex -15 15 5.05
      vertex 15 -15 5.05
      vertex 15 15 5.05
    endloop
  endfacet
  facet normal 0 0 1
    outer loop
      vertex 15 -15 5.05
      vertex -15 15 5.05
      vertex -15 -15 5.05
    endloop
  endfacet
  facet normal 0 0 -1
    outer loop
      vertex 10.3934 6.94463 -5.05
      vertex 10.6 10 -5.05
      vertex 11.024 5.89246 -5.05
    endloop
  endfacet
  facet normal 0 0 -1
    outer loop
      vertex 9.66263 7.92992 -5.05
      vertex 10.6 10 -5.05
      vertex 10.3934 6.94463 -5.05
    endloop
  endfacet
  facet normal 0 0 -1
    outer loop
      vertex 8.83883 8.83883 -5.05
      vertex 10.6 10 -5.05
      vertex 9.66263 7.92992 -5.05
    endloop
  endfacet
  facet normal 0 0 -1
    outer loop
      vertex 7.92992 9.66263 -5.05
      vertex 10.6 10 -5.05
      vertex 8.83883 8.83883 -5.05
    endloop
  endfacet
  facet normal -0 0 -1
    outer loop
      vertex 10.6 10 -5.05
      vertex 7.92992 9.66263 -5.05
      vertex 7.47503 10 -5.05
    endloop
  endfacet
  facet normal 0 0 -1
    outer loop
      vertex 15 -15 -5.05
      vertex 12.5 0 -5.05
      vertex 15 15 -5.05
    endloop
  endfacet
  facet normal 0 0 -1
    outer loop
      vertex 15 -15 -5.05
      vertex 12.4398 -1.22521 -5.05
      vertex 12.5 0 -5.05
    endloop
  endfacet
  facet normal 0 0 -1
    outer loop
      vertex 15 -15 -5.05
      vertex 12.2598 -2.43863 -5.05
      vertex 12.4398 -1.22521 -5.05
    endloop
  endfacet
  facet normal 0 0 -1
    outer loop
      vertex 15 -15 -5.05
      vertex 11.9618 -3.62856 -5.05
      vertex 12.2598 -2.43863 -5.05
    endloop
  endfacet
  facet normal 0 0 -1
    outer loop
      vertex 15 -15 -5.05
      vertex 11.5485 -4.78354 -5.05
      vertex 11.9618 -3.62856 -5.05
    endloop
  endfacet
  facet normal 0 0 -1
    outer loop
      vertex 15 -15 -5.05
      vertex 11.024 -5.89246 -5.05
      vertex 11.5485 -4.78354 -5.05
    endloop
  endfacet
  facet normal 0 0 -1
    outer loop
      vertex 15 -15 -5.05
      vertex 10.3934 -6.94463 -5.05
      vertex 11.024 -5.89246 -5.05
    endloop
  endfacet
  facet normal 0 0 -1
    outer loop
      vertex 15 -15 -5.05
      vertex 9.66263 -7.92992 -5.05
      vertex 10.3934 -6.94463 -5.05
    endloop
  endfacet
  facet normal 0 0 -1
    outer loop
      vertex 15 -15 -5.05
      vertex 8.83883 -8.83883 -5.05
      vertex 9.66263 -7.92992 -5.05
    endloop
  endfacet
  facet normal 0 0 -1
    outer loop
      vertex 15 -15 -5.05
      vertex 7.92992 -9.66263 -5.05
      vertex 8.83883 -8.83883 -5.05
    endloop
  endfacet
  facet normal 0 0 -1
    outer loop
      vertex 15 -15 -5.05
      vertex 6.94463 -10.3934 -5.05
      vertex 7.92992 -9.66263 -5.05
    endloop
  endfacet
  facet normal 0 0 -1
    outer loop
      vertex 15 -15 -5.05
      vertex 5.89246 -11.024 -5.05
      vertex 6.94463 -10.3934 -5.05
    endloop
  endfacet
  facet normal 0 0 -1
    outer loop
      vertex 15 -15 -5.05
      vertex 4.78354 -11.5485 -5.05
      vertex 5.89246 -11.024 -5.05
    endloop
  endfacet
  facet normal 0 0 -1
    outer loop
      vertex 15 -15 -5.05
      vertex 3.62856 -11.9618 -5.05
      vertex 4.78354 -11.5485 -5.05
    endloop
  endfacet
  facet normal 0 0 -1
    outer loop
      vertex 15 -15 -5.05
      vertex 2.43863 -12.2598 -5.05
      vertex 3.62856 -11.9618 -5.05
    endloop
  endfacet
  facet normal 0 0 -1
    outer loop
      vertex 15 -15 -5.05
      vertex 1.22521 -12.4398 -5.05
      vertex 2.43863 -12.2598 -5.05
    endloop
  endfacet
  facet normal 0 0 -1
    outer loop
      vertex 15 -15 -5.05
      vertex 0 -12.5 -5.05
      vertex 1.22521 -12.4398 -5.05
    endloop
  endfacet
  facet normal 0 0 -1
    outer loop
      vertex -15 -15 -5.05
      vertex 0 -12.5 -5.05
      vertex 15 -15 -5.05
    endloop
  endfacet
  facet normal -0 0 -1
    outer loop
      vertex 0 -12.5 -5.05
      vertex -15 -15 -5.05
      vertex -1.22521 -12.4398 -5.05
    endloop
  endfacet
  facet normal -0 0 -1
    outer loop
      vertex -12.4398 -1.22521 -5.05
      vertex -15 -15 -5.05
      vertex -12.5 0 -5.05
    endloop
  endfacet
  facet normal -0 0 -1
    outer loop
      vertex -12.2598 -2.43863 -5.05
      vertex -15 -15 -5.05
      vertex -12.4398 -1.22521 -5.05
    endloop
  endfacet
  facet normal -0 0 -1
    outer loop
      vertex -11.9618 -3.62856 -5.05
      vertex -15 -15 -5.05
      vertex -12.2598 -2.43863 -5.05
    endloop
  endfacet
  facet normal -0 0 -1
    outer loop
      vertex -11.5485 -4.78354 -5.05
      vertex -15 -15 -5.05
      vertex -11.9618 -3.62856 -5.05
    endloop
  endfacet
  facet normal -0 0 -1
    outer loop
      vertex -11.024 -5.89246 -5.05
      vertex -15 -15 -5.05
      vertex -11.5485 -4.78354 -5.05
    endloop
  endfacet
  facet normal -0 0 -1
    outer loop
      vertex -10.3934 -6.94463 -5.05
      vertex -15 -15 -5.05
      vertex -11.024 -5.89246 -5.05
    endloop
  endfacet
  facet normal -0 0 -1
    outer loop
      vertex -9.66263 -7.92992 -5.05
      vertex -15 -15 -5.05
      vertex -10.3934 -6.94463 -5.05
    endloop
  endfacet
  facet normal -0 0 -1
    outer loop
      vertex -8.83883 -8.83883 -5.05
      vertex -15 -15 -5.05
      vertex -9.66263 -7.92992 -5.05
    endloop
  endfacet
  facet normal -0 0 -1
    outer loop
      vertex -7.92992 -9.66263 -5.05
      vertex -15 -15 -5.05
      vertex -8.83883 -8.83883 -5.05
    endloop
  endfacet
  facet normal -0 0 -1
    outer loop
      vertex -6.94463 -10.3934 -5.05
      vertex -15 -15 -5.05
      vertex -7.92992 -9.66263 -5.05
    endloop
  endfacet
  facet normal -0 0 -1
    outer loop
      vertex -5.89246 -11.024 -5.05
      vertex -15 -15 -5.05
      vertex -6.94463 -10.3934 -5.05
    endloop
  endfacet
  facet normal -0 0 -1
    outer loop
      vertex -4.78354 -11.5485 -5.05
      vertex -15 -15 -5.05
      vertex -5.89246 -11.024 -5.05
    endloop
  endfacet
  facet normal -0 0 -1
    outer loop
      vertex -3.62856 -11.9618 -5.05
      vertex -15 -15 -5.05
      vertex -4.78354 -11.5485 -5.05
    endloop
  endfacet
  facet normal -0 0 -1
    outer loop
      vertex -2.43863 -12.2598 -5.05
      vertex -15 -15 -5.05
      vertex -3.62856 -11.9618 -5.05
    endloop
  endfacet
  facet normal -0 0 -1
    outer loop
      vertex -1.22521 -12.4398 -5.05
      vertex -15 -15 -5.05
      vertex -2.43863 -12.2598 -5.05
    endloop
  endfacet
  facet normal 0 0 -1
    outer loop
      vertex 12.4398 1.22521 -5.05
      vertex 15 15 -5.05
      vertex 12.5 0 -5.05
    endloop
  endfacet
  facet normal 0 0 -1
    outer loop
      vertex 12.2598 2.43863 -5.05
      vertex 15 15 -5.05
      vertex 12.4398 1.22521 -5.05
    endloop
  endfacet
  facet normal 0 0 -1
    outer loop
      vertex 11.9618 3.62856 -5.05
      vertex 15 15 -5.05
      vertex 12.2598 2.43863 -5.05
    endloop
  endfacet
  facet normal 0 0 -1
    outer loop
      vertex 11.5485 4.78354 -5.05
      vertex 15 15 -5.05
      vertex 11.9618 3.62856 -5.05
    endloop
  endfacet
  facet normal 0 0 -1
    outer loop
      vertex 11.024 5.89246 -5.05
      vertex 15 15 -5.05
      vertex 11.5485 4.78354 -5.05
    endloop
  endfacet
  facet normal 0 0 -1
    outer loop
      vertex 10.6 10 -5.05
      vertex 15 15 -5.05
      vertex 11.024 5.89246 -5.05
    endloop
  endfacet
  facet normal -0 0 -1
    outer loop
      vertex 15 15 -5.05
      vertex 10.6 10 -5.05
      vertex 10.6 15 -5.05
    endloop
  endfacet
  facet normal 0 0 -1
    outer loop
      vertex -7.92992 9.66263 -5.05
      vertex -10.6 10 -5.05
      vertex -7.47503 10 -5.05
    endloop
  endfacet
  facet normal 0 0 -1
    outer loop
      vertex -8.83883 8.83883 -5.05
      vertex -10.6 10 -5.05
      vertex -7.92992 9.66263 -5.05
    endloop
  endfacet
  facet normal 0 0 -1
    outer loop
      vertex -9.66263 7.92992 -5.05
      vertex -10.6 10 -5.05
      vertex -8.83883 8.83883 -5.05
    endloop
  endfacet
  facet normal 0 0 -1
    outer loop
      vertex -10.3934 6.94463 -5.05
      vertex -10.6 10 -5.05
      vertex -9.66263 7.92992 -5.05
    endloop
  endfacet
  facet normal 0 0 -1
    outer loop
      vertex -11.024 5.89246 -5.05
      vertex -10.6 10 -5.05
      vertex -10.3934 6.94463 -5.05
    endloop
  endfacet
  facet normal 0 0 -1
    outer loop
      vertex -15 15 -5.05
      vertex -10.6 10 -5.05
      vertex -11.024 5.89246 -5.05
    endloop
  endfacet
  facet normal 0 0 -1
    outer loop
      vertex -15 15 -5.05
      vertex -11.024 5.89246 -5.05
      vertex -11.5485 4.78354 -5.05
    endloop
  endfacet
  facet normal 0 0 -1
    outer loop
      vertex -15 15 -5.05
      vertex -11.5485 4.78354 -5.05
      vertex -11.9618 3.62856 -5.05
    endloop
  endfacet
  facet normal 0 0 -1
    outer loop
      vertex -15 15 -5.05
      vertex -11.9618 3.62856 -5.05
      vertex -12.2598 2.43863 -5.05
    endloop
  endfacet
  facet normal 0 0 -1
    outer loop
      vertex -15 15 -5.05
      vertex -12.2598 2.43863 -5.05
      vertex -12.4398 1.22521 -5.05
    endloop
  endfacet
  facet normal 0 0 -1
    outer loop
      vertex -15 15 -5.05
      vertex -12.5 0 -5.05
      vertex -15 -15 -5.05
    endloop
  endfacet
  facet normal 0 0 -1
    outer loop
      vertex -12.5 0 -5.05
      vertex -15 15 -5.05
      vertex -12.4398 1.22521 -5.05
    endloop
  endfacet
  facet normal 0 0 -1
    outer loop
      vertex -10.6 10 -5.05
      vertex -15 15 -5.05
      vertex -10.6 15 -5.05
    endloop
  endfacet
  facet normal -1 0 0
    outer loop
      vertex -15 -15 -5.05
      vertex -15 15 5.05
      vertex -15 15 -5.05
    endloop
  endfacet
  facet normal -1 -0 0
    outer loop
      vertex -15 15 5.05
      vertex -15 -15 -5.05
      vertex -15 -15 5.05
    endloop
  endfacet
  facet normal 0 1 0
    outer loop
      vertex 15 15 5.05
      vertex 10.6 15 0
      vertex -15 15 5.05
    endloop
  endfacet
  facet normal 0 1 -0
    outer loop
      vertex 15 15 -5.05
      vertex 10.6 15 0
      vertex 15 15 5.05
    endloop
  endfacet
  facet normal 0 1 0
    outer loop
      vertex 10.6 15 0
      vertex 15 15 -5.05
      vertex 10.6 15 -5.05
    endloop
  endfacet
  facet normal 0 1 -0
    outer loop
      vertex -10.6 15 0
      vertex -15 15 5.05
      vertex 10.6 15 0
    endloop
  endfacet
  facet normal 0 1 0
    outer loop
      vertex -15 15 -5.05
      vertex -10.6 15 0
      vertex -10.6 15 -5.05
    endloop
  endfacet
  facet normal 0 1 0
    outer loop
      vertex -10.6 15 0
      vertex -15 15 -5.05
      vertex -15 15 5.05
    endloop
  endfacet
  facet normal 0 -1 0
    outer loop
      vertex -15 -15 -5.05
      vertex 15 -15 5.05
      vertex -15 -15 5.05
    endloop
  endfacet
  facet normal 0 -1 -0
    outer loop
      vertex 15 -15 5.05
      vertex -15 -15 -5.05
      vertex 15 -15 -5.05
    endloop
  endfacet
  facet normal -0.989176 -0.146735 0
    outer loop
      vertex 12.4398 1.22521 -5.05
      vertex 12.2598 2.43863 0
      vertex 12.2598 2.43863 -5.05
    endloop
  endfacet
  facet normal -0.989176 -0.146735 0
    outer loop
      vertex 12.2598 2.43863 0
      vertex 12.4398 1.22521 -5.05
      vertex 12.4398 1.22521 0
    endloop
  endfacet
  facet normal -0.998795 -0.0490752 0
    outer loop
      vertex 12.5 0 -5.05
      vertex 12.4398 1.22521 0
      vertex 12.4398 1.22521 -5.05
    endloop
  endfacet
  facet normal -0.998795 -0.0490752 0
    outer loop
      vertex 12.4398 1.22521 0
      vertex 12.5 0 -5.05
      vertex 12.5 0 0
    endloop
  endfacet
  facet normal -0.970043 -0.242933 0
    outer loop
      vertex 12.2598 2.43863 -5.05
      vertex 11.9618 3.62856 0
      vertex 11.9618 3.62856 -5.05
    endloop
  endfacet
  facet normal -0.970043 -0.242933 0
    outer loop
      vertex 11.9618 3.62856 0
      vertex 12.2598 2.43863 -5.05
      vertex 12.2598 2.43863 0
    endloop
  endfacet
  facet normal -0.857745 -0.514075 0
    outer loop
      vertex 11.024 5.89246 -5.05
      vertex 10.3934 6.94463 0
      vertex 10.3934 6.94463 -5.05
    endloop
  endfacet
  facet normal -0.857745 -0.514075 0
    outer loop
      vertex 10.3934 6.94463 0
      vertex 11.024 5.89246 -5.05
      vertex 11.024 5.89246 0
    endloop
  endfacet
  facet normal -0.740946 -0.671564 0
    outer loop
      vertex 9.66263 7.92992 -5.05
      vertex 8.83883 8.83883 0
      vertex 8.83883 8.83883 -5.05
    endloop
  endfacet
  facet normal -0.740946 -0.671564 0
    outer loop
      vertex 8.83883 8.83883 0
      vertex 9.66263 7.92992 -5.05
      vertex 9.66263 7.92992 0
    endloop
  endfacet
  facet normal 0.803196 -0.595715 0
    outer loop
      vertex -10.3934 6.94463 0
      vertex -9.66263 7.92992 -5.05
      vertex -9.66263 7.92992 0
    endloop
  endfacet
  facet normal 0.803196 -0.595715 0
    outer loop
      vertex -9.66263 7.92992 -5.05
      vertex -10.3934 6.94463 0
      vertex -10.3934 6.94463 -5.05
    endloop
  endfacet
  facet normal -0.970043 0.242933 0
    outer loop
      vertex 11.9618 -3.62856 -5.05
      vertex 12.2598 -2.43863 0
      vertex 12.2598 -2.43863 -5.05
    endloop
  endfacet
  facet normal -0.970043 0.242933 0
    outer loop
      vertex 12.2598 -2.43863 0
      vertex 11.9618 -3.62856 -5.05
      vertex 11.9618 -3.62856 0
    endloop
  endfacet
  facet normal 0.514075 0.857745 -0
    outer loop
      vertex -5.89246 -11.024 -5.05
      vertex -6.94463 -10.3934 0
      vertex -5.89246 -11.024 0
    endloop
  endfacet
  facet normal 0.514075 0.857745 0
    outer loop
      vertex -6.94463 -10.3934 0
      vertex -5.89246 -11.024 -5.05
      vertex -6.94463 -10.3934 -5.05
    endloop
  endfacet
  facet normal -0.671564 -0.740946 0
    outer loop
      vertex 7.92992 9.66263 -5.05
      vertex 8.83883 8.83883 0
      vertex 7.92992 9.66263 0
    endloop
  endfacet
  facet normal -0.671564 -0.740946 -0
    outer loop
      vertex 8.83883 8.83883 0
      vertex 7.92992 9.66263 -5.05
      vertex 8.83883 8.83883 -5.05
    endloop
  endfacet
  facet normal -0.0490752 0.998795 0
    outer loop
      vertex 1.22521 -12.4398 -5.05
      vertex 0 -12.5 0
      vertex 1.22521 -12.4398 0
    endloop
  endfacet
  facet normal -0.0490752 0.998795 0
    outer loop
      vertex 0 -12.5 0
      vertex 1.22521 -12.4398 -5.05
      vertex 0 -12.5 -5.05
    endloop
  endfacet
  facet normal 0.5957 -0.803207 0
    outer loop
      vertex -7.92992 9.66263 -5.05
      vertex -7.47503 10 0
      vertex -7.92992 9.66263 0
    endloop
  endfacet
  facet normal 0.5957 -0.803207 0
    outer loop
      vertex -7.47503 10 0
      vertex -7.92992 9.66263 -5.05
      vertex -7.47503 10 -5.05
    endloop
  endfacet
  facet normal -0.803196 -0.595715 0
    outer loop
      vertex 10.3934 6.94463 -5.05
      vertex 9.66263 7.92992 0
      vertex 9.66263 7.92992 -5.05
    endloop
  endfacet
  facet normal -0.803196 -0.595715 0
    outer loop
      vertex 9.66263 7.92992 0
      vertex 10.3934 6.94463 -5.05
      vertex 10.3934 6.94463 0
    endloop
  endfacet
  facet normal -0.989176 0.146735 0
    outer loop
      vertex 12.2598 -2.43863 -5.05
      vertex 12.4398 -1.22521 0
      vertex 12.4398 -1.22521 -5.05
    endloop
  endfacet
  facet normal -0.989176 0.146735 0
    outer loop
      vertex 12.4398 -1.22521 0
      vertex 12.2598 -2.43863 -5.05
      vertex 12.2598 -2.43863 0
    endloop
  endfacet
  facet normal 0.146735 0.989176 -0
    outer loop
      vertex -1.22521 -12.4398 -5.05
      vertex -2.43863 -12.2598 0
      vertex -1.22521 -12.4398 0
    endloop
  endfacet
  facet normal 0.146735 0.989176 0
    outer loop
      vertex -2.43863 -12.2598 0
      vertex -1.22521 -12.4398 -5.05
      vertex -2.43863 -12.2598 -5.05
    endloop
  endfacet
  facet normal 0.998795 0.0490752 0
    outer loop
      vertex -12.4398 -1.22521 0
      vertex -12.5 0 -5.05
      vertex -12.5 0 0
    endloop
  endfacet
  facet normal 0.998795 0.0490752 0
    outer loop
      vertex -12.5 0 -5.05
      vertex -12.4398 -1.22521 0
      vertex -12.4398 -1.22521 -5.05
    endloop
  endfacet
  facet normal -0.5957 -0.803207 0
    outer loop
      vertex 7.47503 10 -5.05
      vertex 7.92992 9.66263 0
      vertex 7.47503 10 0
    endloop
  endfacet
  facet normal -0.5957 -0.803207 -0
    outer loop
      vertex 7.92992 9.66263 0
      vertex 7.47503 10 -5.05
      vertex 7.92992 9.66263 -5.05
    endloop
  endfacet
  facet normal 0.941533 -0.33692 0
    outer loop
      vertex -11.9618 3.62856 0
      vertex -11.5485 4.78354 -5.05
      vertex -11.5485 4.78354 0
    endloop
  endfacet
  facet normal 0.941533 -0.33692 0
    outer loop
      vertex -11.5485 4.78354 -5.05
      vertex -11.9618 3.62856 0
      vertex -11.9618 3.62856 -5.05
    endloop
  endfacet
  facet normal -0.514075 0.857745 0
    outer loop
      vertex 6.94463 -10.3934 -5.05
      vertex 5.89246 -11.024 0
      vertex 6.94463 -10.3934 0
    endloop
  endfacet
  facet normal -0.514075 0.857745 0
    outer loop
      vertex 5.89246 -11.024 0
      vertex 6.94463 -10.3934 -5.05
      vertex 5.89246 -11.024 -5.05
    endloop
  endfacet
  facet normal 0.970043 -0.242933 0
    outer loop
      vertex -12.2598 2.43863 0
      vertex -11.9618 3.62856 -5.05
      vertex -11.9618 3.62856 0
    endloop
  endfacet
  facet normal 0.970043 -0.242933 0
    outer loop
      vertex -11.9618 3.62856 -5.05
      vertex -12.2598 2.43863 0
      vertex -12.2598 2.43863 -5.05
    endloop
  endfacet
  facet normal 0.671564 -0.740946 0
    outer loop
      vertex -8.83883 8.83883 -5.05
      vertex -7.92992 9.66263 0
      vertex -8.83883 8.83883 0
    endloop
  endfacet
  facet normal 0.671564 -0.740946 0
    outer loop
      vertex -7.92992 9.66263 0
      vertex -8.83883 8.83883 -5.05
      vertex -7.92992 9.66263 -5.05
    endloop
  endfacet
  facet normal 0.941533 0.33692 0
    outer loop
      vertex -11.5485 -4.78354 0
      vertex -11.9618 -3.62856 -5.05
      vertex -11.9618 -3.62856 0
    endloop
  endfacet
  facet normal 0.941533 0.33692 0
    outer loop
      vertex -11.9618 -3.62856 -5.05
      vertex -11.5485 -4.78354 0
      vertex -11.5485 -4.78354 -5.05
    endloop
  endfacet
  facet normal 0.857745 -0.514075 0
    outer loop
      vertex -11.024 5.89246 0
      vertex -10.3934 6.94463 -5.05
      vertex -10.3934 6.94463 0
    endloop
  endfacet
  facet normal 0.857745 -0.514075 0
    outer loop
      vertex -10.3934 6.94463 -5.05
      vertex -11.024 5.89246 0
      vertex -11.024 5.89246 -5.05
    endloop
  endfacet
  facet normal -0.903983 0.427568 0
    outer loop
      vertex 11.024 -5.89246 -5.05
      vertex 11.5485 -4.78354 0
      vertex 11.5485 -4.78354 -5.05
    endloop
  endfacet
  facet normal -0.903983 0.427568 0
    outer loop
      vertex 11.5485 -4.78354 0
      vertex 11.024 -5.89246 -5.05
      vertex 11.024 -5.89246 0
    endloop
  endfacet
  facet normal 0.33692 0.941533 -0
    outer loop
      vertex -3.62856 -11.9618 -5.05
      vertex -4.78354 -11.5485 0
      vertex -3.62856 -11.9618 0
    endloop
  endfacet
  facet normal 0.33692 0.941533 0
    outer loop
      vertex -4.78354 -11.5485 0
      vertex -3.62856 -11.9618 -5.05
      vertex -4.78354 -11.5485 -5.05
    endloop
  endfacet
  facet normal -0.427568 0.903983 0
    outer loop
      vertex 5.89246 -11.024 -5.05
      vertex 4.78354 -11.5485 0
      vertex 5.89246 -11.024 0
    endloop
  endfacet
  facet normal -0.427568 0.903983 0
    outer loop
      vertex 4.78354 -11.5485 0
      vertex 5.89246 -11.024 -5.05
      vertex 4.78354 -11.5485 -5.05
    endloop
  endfacet
  facet normal -0.998795 0.0490752 0
    outer loop
      vertex 12.4398 -1.22521 -5.05
      vertex 12.5 0 0
      vertex 12.5 0 -5.05
    endloop
  endfacet
  facet normal -0.998795 0.0490752 0
    outer loop
      vertex 12.5 0 0
      vertex 12.4398 -1.22521 -5.05
      vertex 12.4398 -1.22521 0
    endloop
  endfacet
  facet normal -0.146735 0.989176 0
    outer loop
      vertex 2.43863 -12.2598 -5.05
      vertex 1.22521 -12.4398 0
      vertex 2.43863 -12.2598 0
    endloop
  endfacet
  facet normal -0.146735 0.989176 0
    outer loop
      vertex 1.22521 -12.4398 0
      vertex 2.43863 -12.2598 -5.05
      vertex 1.22521 -12.4398 -5.05
    endloop
  endfacet
  facet normal 0.242933 0.970043 -0
    outer loop
      vertex -2.43863 -12.2598 -5.05
      vertex -3.62856 -11.9618 0
      vertex -2.43863 -12.2598 0
    endloop
  endfacet
  facet normal 0.242933 0.970043 0
    outer loop
      vertex -3.62856 -11.9618 0
      vertex -2.43863 -12.2598 -5.05
      vertex -3.62856 -11.9618 -5.05
    endloop
  endfacet
  facet normal -0.857745 0.514075 0
    outer loop
      vertex 10.3934 -6.94463 -5.05
      vertex 11.024 -5.89246 0
      vertex 11.024 -5.89246 -5.05
    endloop
  endfacet
  facet normal -0.857745 0.514075 0
    outer loop
      vertex 11.024 -5.89246 0
      vertex 10.3934 -6.94463 -5.05
      vertex 10.3934 -6.94463 0
    endloop
  endfacet
  facet normal 0.740946 -0.671564 0
    outer loop
      vertex -9.66263 7.92992 0
      vertex -8.83883 8.83883 -5.05
      vertex -8.83883 8.83883 0
    endloop
  endfacet
  facet normal 0.740946 -0.671564 0
    outer loop
      vertex -8.83883 8.83883 -5.05
      vertex -9.66263 7.92992 0
      vertex -9.66263 7.92992 -5.05
    endloop
  endfacet
  facet normal -0.941533 0.33692 0
    outer loop
      vertex 11.5485 -4.78354 -5.05
      vertex 11.9618 -3.62856 0
      vertex 11.9618 -3.62856 -5.05
    endloop
  endfacet
  facet normal -0.941533 0.33692 0
    outer loop
      vertex 11.9618 -3.62856 0
      vertex 11.5485 -4.78354 -5.05
      vertex 11.5485 -4.78354 0
    endloop
  endfacet
  facet normal -0.941533 -0.33692 0
    outer loop
      vertex 11.9618 3.62856 -5.05
      vertex 11.5485 4.78354 0
      vertex 11.5485 4.78354 -5.05
    endloop
  endfacet
  facet normal -0.941533 -0.33692 0
    outer loop
      vertex 11.5485 4.78354 0
      vertex 11.9618 3.62856 -5.05
      vertex 11.9618 3.62856 0
    endloop
  endfacet
  facet normal 0.970043 0.242933 0
    outer loop
      vertex -11.9618 -3.62856 0
      vertex -12.2598 -2.43863 -5.05
      vertex -12.2598 -2.43863 0
    endloop
  endfacet
  facet normal 0.970043 0.242933 0
    outer loop
      vertex -12.2598 -2.43863 -5.05
      vertex -11.9618 -3.62856 0
      vertex -11.9618 -3.62856 -5.05
    endloop
  endfacet
  facet normal -0.740946 0.671564 0
    outer loop
      vertex 8.83883 -8.83883 -5.05
      vertex 9.66263 -7.92992 0
      vertex 9.66263 -7.92992 -5.05
    endloop
  endfacet
  facet normal -0.740946 0.671564 0
    outer loop
      vertex 9.66263 -7.92992 0
      vertex 8.83883 -8.83883 -5.05
      vertex 8.83883 -8.83883 0
    endloop
  endfacet
  facet normal 0.671564 0.740946 -0
    outer loop
      vertex -7.92992 -9.66263 -5.05
      vertex -8.83883 -8.83883 0
      vertex -7.92992 -9.66263 0
    endloop
  endfacet
  facet normal 0.671564 0.740946 0
    outer loop
      vertex -8.83883 -8.83883 0
      vertex -7.92992 -9.66263 -5.05
      vertex -8.83883 -8.83883 -5.05
    endloop
  endfacet
  facet normal 0.989176 -0.146735 0
    outer loop
      vertex -12.4398 1.22521 0
      vertex -12.2598 2.43863 -5.05
      vertex -12.2598 2.43863 0
    endloop
  endfacet
  facet normal 0.989176 -0.146735 0
    outer loop
      vertex -12.2598 2.43863 -5.05
      vertex -12.4398 1.22521 0
      vertex -12.4398 1.22521 -5.05
    endloop
  endfacet
  facet normal -0.903983 -0.427568 0
    outer loop
      vertex 11.5485 4.78354 -5.05
      vertex 11.024 5.89246 0
      vertex 11.024 5.89246 -5.05
    endloop
  endfacet
  facet normal -0.903983 -0.427568 0
    outer loop
      vertex 11.024 5.89246 0
      vertex 11.5485 4.78354 -5.05
      vertex 11.5485 4.78354 0
    endloop
  endfacet
  facet normal -0.803196 0.595715 0
    outer loop
      vertex 9.66263 -7.92992 -5.05
      vertex 10.3934 -6.94463 0
      vertex 10.3934 -6.94463 -5.05
    endloop
  endfacet
  facet normal -0.803196 0.595715 0
    outer loop
      vertex 10.3934 -6.94463 0
      vertex 9.66263 -7.92992 -5.05
      vertex 9.66263 -7.92992 0
    endloop
  endfacet
  facet normal 0.857745 0.514075 0
    outer loop
      vertex -10.3934 -6.94463 0
      vertex -11.024 -5.89246 -5.05
      vertex -11.024 -5.89246 0
    endloop
  endfacet
  facet normal 0.857745 0.514075 0
    outer loop
      vertex -11.024 -5.89246 -5.05
      vertex -10.3934 -6.94463 0
      vertex -10.3934 -6.94463 -5.05
    endloop
  endfacet
  facet normal 0.803196 0.595715 0
    outer loop
      vertex -9.66263 -7.92992 0
      vertex -10.3934 -6.94463 -5.05
      vertex -10.3934 -6.94463 0
    endloop
  endfacet
  facet normal 0.803196 0.595715 0
    outer loop
      vertex -10.3934 -6.94463 -5.05
      vertex -9.66263 -7.92992 0
      vertex -9.66263 -7.92992 -5.05
    endloop
  endfacet
  facet normal 0.903983 -0.427568 0
    outer loop
      vertex -11.5485 4.78354 0
      vertex -11.024 5.89246 -5.05
      vertex -11.024 5.89246 0
    endloop
  endfacet
  facet normal 0.903983 -0.427568 0
    outer loop
      vertex -11.024 5.89246 -5.05
      vertex -11.5485 4.78354 0
      vertex -11.5485 4.78354 -5.05
    endloop
  endfacet
  facet normal 0.427568 0.903983 -0
    outer loop
      vertex -4.78354 -11.5485 -5.05
      vertex -5.89246 -11.024 0
      vertex -4.78354 -11.5485 0
    endloop
  endfacet
  facet normal 0.427568 0.903983 0
    outer loop
      vertex -5.89246 -11.024 0
      vertex -4.78354 -11.5485 -5.05
      vertex -5.89246 -11.024 -5.05
    endloop
  endfacet
  facet normal -0.595715 0.803196 0
    outer loop
      vertex 7.92992 -9.66263 -5.05
      vertex 6.94463 -10.3934 0
      vertex 7.92992 -9.66263 0
    endloop
  endfacet
  facet normal -0.595715 0.803196 0
    outer loop
      vertex 6.94463 -10.3934 0
      vertex 7.92992 -9.66263 -5.05
      vertex 6.94463 -10.3934 -5.05
    endloop
  endfacet
  facet normal 0.989176 0.146735 0
    outer loop
      vertex -12.2598 -2.43863 0
      vertex -12.4398 -1.22521 -5.05
      vertex -12.4398 -1.22521 0
    endloop
  endfacet
  facet normal 0.989176 0.146735 0
    outer loop
      vertex -12.4398 -1.22521 -5.05
      vertex -12.2598 -2.43863 0
      vertex -12.2598 -2.43863 -5.05
    endloop
  endfacet
  facet normal -0.33692 0.941533 0
    outer loop
      vertex 4.78354 -11.5485 -5.05
      vertex 3.62856 -11.9618 0
      vertex 4.78354 -11.5485 0
    endloop
  endfacet
  facet normal -0.33692 0.941533 0
    outer loop
      vertex 3.62856 -11.9618 0
      vertex 4.78354 -11.5485 -5.05
      vertex 3.62856 -11.9618 -5.05
    endloop
  endfacet
  facet normal -0.242933 0.970043 0
    outer loop
      vertex 3.62856 -11.9618 -5.05
      vertex 2.43863 -12.2598 0
      vertex 3.62856 -11.9618 0
    endloop
  endfacet
  facet normal -0.242933 0.970043 0
    outer loop
      vertex 2.43863 -12.2598 0
      vertex 3.62856 -11.9618 -5.05
      vertex 2.43863 -12.2598 -5.05
    endloop
  endfacet
  facet normal 0.903983 0.427568 0
    outer loop
      vertex -11.024 -5.89246 0
      vertex -11.5485 -4.78354 -5.05
      vertex -11.5485 -4.78354 0
    endloop
  endfacet
  facet normal 0.903983 0.427568 0
    outer loop
      vertex -11.5485 -4.78354 -5.05
      vertex -11.024 -5.89246 0
      vertex -11.024 -5.89246 -5.05
    endloop
  endfacet
  facet normal 0.740946 0.671564 0
    outer loop
      vertex -8.83883 -8.83883 0
      vertex -9.66263 -7.92992 -5.05
      vertex -9.66263 -7.92992 0
    endloop
  endfacet
  facet normal 0.740946 0.671564 0
    outer loop
      vertex -9.66263 -7.92992 -5.05
      vertex -8.83883 -8.83883 0
      vertex -8.83883 -8.83883 -5.05
    endloop
  endfacet
  facet normal 0.595715 0.803196 -0
    outer loop
      vertex -6.94463 -10.3934 -5.05
      vertex -7.92992 -9.66263 0
      vertex -6.94463 -10.3934 0
    endloop
  endfacet
  facet normal 0.595715 0.803196 0
    outer loop
      vertex -7.92992 -9.66263 0
      vertex -6.94463 -10.3934 -5.05
      vertex -7.92992 -9.66263 -5.05
    endloop
  endfacet
  facet normal 0.0490752 0.998795 -0
    outer loop
      vertex 0 -12.5 -5.05
      vertex -1.22521 -12.4398 0
      vertex 0 -12.5 0
    endloop
  endfacet
  facet normal 0.0490752 0.998795 0
    outer loop
      vertex -1.22521 -12.4398 0
      vertex 0 -12.5 -5.05
      vertex -1.22521 -12.4398 -5.05
    endloop
  endfacet
  facet normal 0 0 -1
    outer loop
      vertex 8 0 0
      vertex 12.5 0 0
      vertex 12.4398 -1.22521 0
    endloop
  endfacet
  facet normal 0 0 -1
    outer loop
      vertex 7.96148 -0.784137 0
      vertex 12.4398 -1.22521 0
      vertex 12.2598 -2.43863 0
    endloop
  endfacet
  facet normal 0 0 -1
    outer loop
      vertex 12.5 0 0
      vertex 8 0 0
      vertex 12.4398 1.22521 0
    endloop
  endfacet
  facet normal 0 0 -1
    outer loop
      vertex 7.84628 -1.56072 0
      vertex 12.2598 -2.43863 0
      vertex 11.9618 -3.62856 0
    endloop
  endfacet
  facet normal 0 0 -1
    outer loop
      vertex 7.96148 0.784137 0
      vertex 12.4398 1.22521 0
      vertex 8 0 0
    endloop
  endfacet
  facet normal 0 0 -1
    outer loop
      vertex 7.65552 -2.32228 0
      vertex 11.9618 -3.62856 0
      vertex 11.5485 -4.78354 0
    endloop
  endfacet
  facet normal -0 0 -1
    outer loop
      vertex 12.4398 1.22521 0
      vertex 7.96148 0.784137 0
      vertex 12.2598 2.43863 0
    endloop
  endfacet
  facet normal 0 0 -1
    outer loop
      vertex 7.39104 -3.06147 0
      vertex 11.5485 -4.78354 0
      vertex 11.024 -5.89246 0
    endloop
  endfacet
  facet normal 0 0 -1
    outer loop
      vertex 7.84628 1.56072 0
      vertex 12.2598 2.43863 0
      vertex 7.96148 0.784137 0
    endloop
  endfacet
  facet normal 0 0 -1
    outer loop
      vertex 7.05537 -3.77117 0
      vertex 11.024 -5.89246 0
      vertex 10.3934 -6.94463 0
    endloop
  endfacet
  facet normal -0 0 -1
    outer loop
      vertex 12.2598 2.43863 0
      vertex 7.84628 1.56072 0
      vertex 11.9618 3.62856 0
    endloop
  endfacet
  facet normal 0 0 -1
    outer loop
      vertex 6.65176 -4.44456 0
      vertex 10.3934 -6.94463 0
      vertex 9.66263 -7.92992 0
    endloop
  endfacet
  facet normal 0 0 -1
    outer loop
      vertex 7.65552 2.32228 0
      vertex 11.9618 3.62856 0
      vertex 7.84628 1.56072 0
    endloop
  endfacet
  facet normal 0 0 -1
    outer loop
      vertex 6.18408 -5.07515 0
      vertex 9.66263 -7.92992 0
      vertex 8.83883 -8.83883 0
    endloop
  endfacet
  facet normal -0 0 -1
    outer loop
      vertex 11.9618 3.62856 0
      vertex 7.65552 2.32228 0
      vertex 11.5485 4.78354 0
    endloop
  endfacet
  facet normal 0 0 -1
    outer loop
      vertex 7.39104 3.06147 0
      vertex 11.5485 4.78354 0
      vertex 7.65552 2.32228 0
    endloop
  endfacet
  facet normal 0 0 -1
    outer loop
      vertex 12.4398 -1.22521 0
      vertex 7.96148 -0.784137 0
      vertex 8 0 0
    endloop
  endfacet
  facet normal 0 0 -1
    outer loop
      vertex 5.65685 -5.65685 0
      vertex 8.83883 -8.83883 0
      vertex 7.92992 -9.66263 0
    endloop
  endfacet
  facet normal 0 0 -1
    outer loop
      vertex 12.2598 -2.43863 0
      vertex 7.84628 -1.56072 0
      vertex 7.96148 -0.784137 0
    endloop
  endfacet
  facet normal 0 0 -1
    outer loop
      vertex 11.9618 -3.62856 0
      vertex 7.65552 -2.32228 0
      vertex 7.84628 -1.56072 0
    endloop
  endfacet
  facet normal 0 0 -1
    outer loop
      vertex 11.5485 -4.78354 0
      vertex 7.39104 -3.06147 0
      vertex 7.65552 -2.32228 0
    endloop
  endfacet
  facet normal 0 0 -1
    outer loop
      vertex 11.024 -5.89246 0
      vertex 7.05537 -3.77117 0
      vertex 7.39104 -3.06147 0
    endloop
  endfacet
  facet normal 0 0 -1
    outer loop
      vertex 5.07515 -6.18408 0
      vertex 7.92992 -9.66263 0
      vertex 6.94463 -10.3934 0
    endloop
  endfacet
  facet normal 0 0 -1
    outer loop
      vertex 10.3934 -6.94463 0
      vertex 6.65176 -4.44456 0
      vertex 7.05537 -3.77117 0
    endloop
  endfacet
  facet normal 0 0 -1
    outer loop
      vertex 9.66263 -7.92992 0
      vertex 6.18408 -5.07515 0
      vertex 6.65176 -4.44456 0
    endloop
  endfacet
  facet normal 0 0 -1
    outer loop
      vertex 4.44456 -6.65176 0
      vertex 6.94463 -10.3934 0
      vertex 5.89246 -11.024 0
    endloop
  endfacet
  facet normal 0 0 -1
    outer loop
      vertex 8.83883 -8.83883 0
      vertex 5.65685 -5.65685 0
      vertex 6.18408 -5.07515 0
    endloop
  endfacet
  facet normal 0 0 -1
    outer loop
      vertex 7.92992 -9.66263 0
      vertex 5.07515 -6.18408 0
      vertex 5.65685 -5.65685 0
    endloop
  endfacet
  facet normal 0 0 -1
    outer loop
      vertex 3.77117 -7.05537 0
      vertex 5.89246 -11.024 0
      vertex 4.78354 -11.5485 0
    endloop
  endfacet
  facet normal 0 0 -1
    outer loop
      vertex 6.94463 -10.3934 0
      vertex 4.44456 -6.65176 0
      vertex 5.07515 -6.18408 0
    endloop
  endfacet
  facet normal 0 0 -1
    outer loop
      vertex 5.89246 -11.024 0
      vertex 3.77117 -7.05537 0
      vertex 4.44456 -6.65176 0
    endloop
  endfacet
  facet normal 0 0 -1
    outer loop
      vertex 3.06147 -7.39104 0
      vertex 4.78354 -11.5485 0
      vertex 3.62856 -11.9618 0
    endloop
  endfacet
  facet normal 0 0 -1
    outer loop
      vertex 4.78354 -11.5485 0
      vertex 3.06147 -7.39104 0
      vertex 3.77117 -7.05537 0
    endloop
  endfacet
  facet normal 0 0 -1
    outer loop
      vertex 2.32228 -7.65552 0
      vertex 3.62856 -11.9618 0
      vertex 2.43863 -12.2598 0
    endloop
  endfacet
  facet normal 0 0 -1
    outer loop
      vertex 3.62856 -11.9618 0
      vertex 2.32228 -7.65552 0
      vertex 3.06147 -7.39104 0
    endloop
  endfacet
  facet normal 0 0 -1
    outer loop
      vertex 2.43863 -12.2598 0
      vertex 1.56072 -7.84628 0
      vertex 2.32228 -7.65552 0
    endloop
  endfacet
  facet normal 0 0 -1
    outer loop
      vertex 1.22521 -12.4398 0
      vertex 1.56072 -7.84628 0
      vertex 2.43863 -12.2598 0
    endloop
  endfacet
  facet normal 0 0 -1
    outer loop
      vertex 1.22521 -12.4398 0
      vertex 0.784137 -7.96148 0
      vertex 1.56072 -7.84628 0
    endloop
  endfacet
  facet normal 0 0 -1
    outer loop
      vertex 0 -12.5 0
      vertex 0.784137 -7.96148 0
      vertex 1.22521 -12.4398 0
    endloop
  endfacet
  facet normal 0 0 -1
    outer loop
      vertex 0 -12.5 0
      vertex 0 -8 0
      vertex 0.784137 -7.96148 0
    endloop
  endfacet
  facet normal 0 0 -1
    outer loop
      vertex 0 -12.5 0
      vertex -0.784137 -7.96148 0
      vertex 0 -8 0
    endloop
  endfacet
  facet normal 0 0 -1
    outer loop
      vertex -1.22521 -12.4398 0
      vertex -0.784137 -7.96148 0
      vertex 0 -12.5 0
    endloop
  endfacet
  facet normal 0 0 -1
    outer loop
      vertex -1.22521 -12.4398 0
      vertex -1.56072 -7.84628 0
      vertex -0.784137 -7.96148 0
    endloop
  endfacet
  facet normal 0 0 -1
    outer loop
      vertex -2.43863 -12.2598 0
      vertex -1.56072 -7.84628 0
      vertex -1.22521 -12.4398 0
    endloop
  endfacet
  facet normal -0 0 -1
    outer loop
      vertex -1.56072 -7.84628 0
      vertex -2.43863 -12.2598 0
      vertex -2.32228 -7.65552 0
    endloop
  endfacet
  facet normal 0 0 -1
    outer loop
      vertex -3.62856 -11.9618 0
      vertex -2.32228 -7.65552 0
      vertex -2.43863 -12.2598 0
    endloop
  endfacet
  facet normal -0 0 -1
    outer loop
      vertex -2.32228 -7.65552 0
      vertex -3.62856 -11.9618 0
      vertex -3.06147 -7.39104 0
    endloop
  endfacet
  facet normal 0 0 -1
    outer loop
      vertex -4.78354 -11.5485 0
      vertex -3.06147 -7.39104 0
      vertex -3.62856 -11.9618 0
    endloop
  endfacet
  facet normal -0 0 -1
    outer loop
      vertex -3.06147 -7.39104 0
      vertex -4.78354 -11.5485 0
      vertex -3.77117 -7.05537 0
    endloop
  endfacet
  facet normal 0 0 -1
    outer loop
      vertex -5.89246 -11.024 0
      vertex -3.77117 -7.05537 0
      vertex -4.78354 -11.5485 0
    endloop
  endfacet
  facet normal -0 0 -1
    outer loop
      vertex -3.77117 -7.05537 0
      vertex -5.89246 -11.024 0
      vertex -4.44456 -6.65176 0
    endloop
  endfacet
  facet normal 0 0 -1
    outer loop
      vertex -6.94463 -10.3934 0
      vertex -4.44456 -6.65176 0
      vertex -5.89246 -11.024 0
    endloop
  endfacet
  facet normal -0 0 -1
    outer loop
      vertex -4.44456 -6.65176 0
      vertex -6.94463 -10.3934 0
      vertex -5.07515 -6.18408 0
    endloop
  endfacet
  facet normal 0 0 -1
    outer loop
      vertex -7.92992 -9.66263 0
      vertex -5.07515 -6.18408 0
      vertex -6.94463 -10.3934 0
    endloop
  endfacet
  facet normal -0 0 -1
    outer loop
      vertex -5.07515 -6.18408 0
      vertex -7.92992 -9.66263 0
      vertex -5.65685 -5.65685 0
    endloop
  endfacet
  facet normal 0 0 -1
    outer loop
      vertex -8.83883 -8.83883 0
      vertex -5.65685 -5.65685 0
      vertex -7.92992 -9.66263 0
    endloop
  endfacet
  facet normal -0 0 -1
    outer loop
      vertex -5.65685 -5.65685 0
      vertex -8.83883 -8.83883 0
      vertex -6.18408 -5.07515 0
    endloop
  endfacet
  facet normal 0 0 -1
    outer loop
      vertex -9.66263 -7.92992 0
      vertex -6.18408 -5.07515 0
      vertex -8.83883 -8.83883 0
    endloop
  endfacet
  facet normal -0 0 -1
    outer loop
      vertex -6.18408 -5.07515 0
      vertex -9.66263 -7.92992 0
      vertex -6.65176 -4.44456 0
    endloop
  endfacet
  facet normal 0 0 -1
    outer loop
      vertex -10.3934 -6.94463 0
      vertex -6.65176 -4.44456 0
      vertex -9.66263 -7.92992 0
    endloop
  endfacet
  facet normal -0 0 -1
    outer loop
      vertex -6.65176 -4.44456 0
      vertex -10.3934 -6.94463 0
      vertex -7.05537 -3.77117 0
    endloop
  endfacet
  facet normal 0 0 -1
    outer loop
      vertex -11.024 -5.89246 0
      vertex -7.05537 -3.77117 0
      vertex -10.3934 -6.94463 0
    endloop
  endfacet
  facet normal -0 0 -1
    outer loop
      vertex -7.05537 -3.77117 0
      vertex -11.024 -5.89246 0
      vertex -7.39104 -3.06147 0
    endloop
  endfacet
  facet normal 0 0 -1
    outer loop
      vertex -11.5485 -4.78354 0
      vertex -7.39104 -3.06147 0
      vertex -11.024 -5.89246 0
    endloop
  endfacet
  facet normal -0 0 -1
    outer loop
      vertex 11.5485 4.78354 0
      vertex 7.39104 3.06147 0
      vertex 11.024 5.89246 0
    endloop
  endfacet
  facet normal 0 0 -1
    outer loop
      vertex 7.05537 3.77117 0
      vertex 11.024 5.89246 0
      vertex 7.39104 3.06147 0
    endloop
  endfacet
  facet normal -0 0 -1
    outer loop
      vertex 11.024 5.89246 0
      vertex 7.05537 3.77117 0
      vertex 10.3934 6.94463 0
    endloop
  endfacet
  facet normal 0 0 -1
    outer loop
      vertex 6.65176 4.44456 0
      vertex 10.3934 6.94463 0
      vertex 7.05537 3.77117 0
    endloop
  endfacet
  facet normal -0 0 -1
    outer loop
      vertex 10.3934 6.94463 0
      vertex 6.65176 4.44456 0
      vertex 9.66263 7.92992 0
    endloop
  endfacet
  facet normal 0 0 -1
    outer loop
      vertex 6.18408 5.07515 0
      vertex 9.66263 7.92992 0
      vertex 6.65176 4.44456 0
    endloop
  endfacet
  facet normal -0 0 -1
    outer loop
      vertex 9.66263 7.92992 0
      vertex 6.18408 5.07515 0
      vertex 8.83883 8.83883 0
    endloop
  endfacet
  facet normal 0 0 -1
    outer loop
      vertex 5.65685 5.65685 0
      vertex 8.83883 8.83883 0
      vertex 6.18408 5.07515 0
    endloop
  endfacet
  facet normal -0 0 -1
    outer loop
      vertex 8.83883 8.83883 0
      vertex 5.65685 5.65685 0
      vertex 7.92992 9.66263 0
    endloop
  endfacet
  facet normal 0 0 -1
    outer loop
      vertex 5.07515 6.18408 0
      vertex 7.92992 9.66263 0
      vertex 5.65685 5.65685 0
    endloop
  endfacet
  facet normal -0 0 -1
    outer loop
      vertex 7.92992 9.66263 0
      vertex 5.07515 6.18408 0
      vertex 7.47503 10 0
    endloop
  endfacet
  facet normal 0 0 -1
    outer loop
      vertex 4.44456 6.65176 0
      vertex 7.47503 10 0
      vertex 5.07515 6.18408 0
    endloop
  endfacet
  facet normal 0 0 -1
    outer loop
      vertex 3.77117 7.05537 0
      vertex 7.47503 10 0
      vertex 4.44456 6.65176 0
    endloop
  endfacet
  facet normal 0 0 -1
    outer loop
      vertex 3.06147 7.39104 0
      vertex 7.47503 10 0
      vertex 3.77117 7.05537 0
    endloop
  endfacet
  facet normal 0 0 -1
    outer loop
      vertex 2.32228 7.65552 0
      vertex 7.47503 10 0
      vertex 3.06147 7.39104 0
    endloop
  endfacet
  facet normal 0 0 -1
    outer loop
      vertex 1.56072 7.84628 0
      vertex 7.47503 10 0
      vertex 2.32228 7.65552 0
    endloop
  endfacet
  facet normal 0 0 -1
    outer loop
      vertex 0.784137 7.96148 0
      vertex 7.47503 10 0
      vertex 1.56072 7.84628 0
    endloop
  endfacet
  facet normal 0 0 -1
    outer loop
      vertex 0 8 0
      vertex 7.47503 10 0
      vertex 0.784137 7.96148 0
    endloop
  endfacet
  facet normal 0 0 -1
    outer loop
      vertex -7.47503 10 0
      vertex 0 8 0
      vertex -0.784137 7.96148 0
    endloop
  endfacet
  facet normal 0 0 -1
    outer loop
      vertex -7.47503 10 0
      vertex -0.784137 7.96148 0
      vertex -1.56072 7.84628 0
    endloop
  endfacet
  facet normal 0 0 -1
    outer loop
      vertex 0 8 0
      vertex -7.47503 10 0
      vertex 7.47503 10 0
    endloop
  endfacet
  facet normal 0 0 -1
    outer loop
      vertex -2.32228 7.65552 0
      vertex -7.47503 10 0
      vertex -1.56072 7.84628 0
    endloop
  endfacet
  facet normal 0 0 -1
    outer loop
      vertex -3.06147 7.39104 0
      vertex -7.47503 10 0
      vertex -2.32228 7.65552 0
    endloop
  endfacet
  facet normal 0 0 -1
    outer loop
      vertex -3.77117 7.05537 0
      vertex -7.47503 10 0
      vertex -3.06147 7.39104 0
    endloop
  endfacet
  facet normal 0 0 -1
    outer loop
      vertex -4.44456 6.65176 0
      vertex -7.47503 10 0
      vertex -3.77117 7.05537 0
    endloop
  endfacet
  facet normal 0 0 -1
    outer loop
      vertex -5.07515 6.18408 0
      vertex -7.47503 10 0
      vertex -4.44456 6.65176 0
    endloop
  endfacet
  facet normal 0 0 -1
    outer loop
      vertex -7.92992 9.66263 0
      vertex -5.07515 6.18408 0
      vertex -5.65685 5.65685 0
    endloop
  endfacet
  facet normal 0 0 -1
    outer loop
      vertex -8.83883 8.83883 0
      vertex -5.65685 5.65685 0
      vertex -6.18408 5.07515 0
    endloop
  endfacet
  facet normal 0 0 -1
    outer loop
      vertex -9.66263 7.92992 0
      vertex -6.18408 5.07515 0
      vertex -6.65176 4.44456 0
    endloop
  endfacet
  facet normal 0 0 -1
    outer loop
      vertex -10.3934 6.94463 0
      vertex -6.65176 4.44456 0
      vertex -7.05537 3.77117 0
    endloop
  endfacet
  facet normal 0 0 -1
    outer loop
      vertex -11.024 5.89246 0
      vertex -7.05537 3.77117 0
      vertex -7.39104 3.06147 0
    endloop
  endfacet
  facet normal 0 0 -1
    outer loop
      vertex -11.5485 4.78354 0
      vertex -7.39104 3.06147 0
      vertex -7.65552 2.32228 0
    endloop
  endfacet
  facet normal 0 0 -1
    outer loop
      vertex -11.9618 3.62856 0
      vertex -7.65552 2.32228 0
      vertex -7.84628 1.56072 0
    endloop
  endfacet
  facet normal 0 0 -1
    outer loop
      vertex -5.07515 6.18408 0
      vertex -7.92992 9.66263 0
      vertex -7.47503 10 0
    endloop
  endfacet
  facet normal 0 0 -1
    outer loop
      vertex -12.2598 2.43863 0
      vertex -7.84628 1.56072 0
      vertex -7.96148 0.784137 0
    endloop
  endfacet
  facet normal 0 0 -1
    outer loop
      vertex -12.4398 1.22521 0
      vertex -7.96148 0.784137 0
      vertex -8 0 0
    endloop
  endfacet
  facet normal -0 0 -1
    outer loop
      vertex -7.39104 -3.06147 0
      vertex -11.5485 -4.78354 0
      vertex -7.65552 -2.32228 0
    endloop
  endfacet
  facet normal 0 0 -1
    outer loop
      vertex -5.65685 5.65685 0
      vertex -8.83883 8.83883 0
      vertex -7.92992 9.66263 0
    endloop
  endfacet
  facet normal 0 0 -1
    outer loop
      vertex -11.9618 -3.62856 0
      vertex -7.65552 -2.32228 0
      vertex -11.5485 -4.78354 0
    endloop
  endfacet
  facet normal 0 0 -1
    outer loop
      vertex -6.18408 5.07515 0
      vertex -9.66263 7.92992 0
      vertex -8.83883 8.83883 0
    endloop
  endfacet
  facet normal -0 0 -1
    outer loop
      vertex -7.65552 -2.32228 0
      vertex -11.9618 -3.62856 0
      vertex -7.84628 -1.56072 0
    endloop
  endfacet
  facet normal 0 0 -1
    outer loop
      vertex -6.65176 4.44456 0
      vertex -10.3934 6.94463 0
      vertex -9.66263 7.92992 0
    endloop
  endfacet
  facet normal 0 0 -1
    outer loop
      vertex -12.2598 -2.43863 0
      vertex -7.84628 -1.56072 0
      vertex -11.9618 -3.62856 0
    endloop
  endfacet
  facet normal 0 0 -1
    outer loop
      vertex -7.05537 3.77117 0
      vertex -11.024 5.89246 0
      vertex -10.3934 6.94463 0
    endloop
  endfacet
  facet normal -0 0 -1
    outer loop
      vertex -7.84628 -1.56072 0
      vertex -12.2598 -2.43863 0
      vertex -7.96148 -0.784137 0
    endloop
  endfacet
  facet normal 0 0 -1
    outer loop
      vertex -7.39104 3.06147 0
      vertex -11.5485 4.78354 0
      vertex -11.024 5.89246 0
    endloop
  endfacet
  facet normal 0 0 -1
    outer loop
      vertex -12.4398 -1.22521 0
      vertex -7.96148 -0.784137 0
      vertex -12.2598 -2.43863 0
    endloop
  endfacet
  facet normal 0 0 -1
    outer loop
      vertex -7.65552 2.32228 0
      vertex -11.9618 3.62856 0
      vertex -11.5485 4.78354 0
    endloop
  endfacet
  facet normal -0 0 -1
    outer loop
      vertex -7.96148 -0.784137 0
      vertex -12.4398 -1.22521 0
      vertex -8 0 0
    endloop
  endfacet
  facet normal 0 0 -1
    outer loop
      vertex -7.84628 1.56072 0
      vertex -12.2598 2.43863 0
      vertex -11.9618 3.62856 0
    endloop
  endfacet
  facet normal 0 0 -1
    outer loop
      vertex -12.5 0 0
      vertex -8 0 0
      vertex -12.4398 -1.22521 0
    endloop
  endfacet
  facet normal 0 0 -1
    outer loop
      vertex -7.96148 0.784137 0
      vertex -12.4398 1.22521 0
      vertex -12.2598 2.43863 0
    endloop
  endfacet
  facet normal 0 0 -1
    outer loop
      vertex -8 0 0
      vertex -12.5 0 0
      vertex -12.4398 1.22521 0
    endloop
  endfacet
  facet normal -0 0 1
    outer loop
      vertex -10.6 20 0
      vertex 10.6 15 0
      vertex 10.6 20 0
    endloop
  endfacet
  facet normal 0 0 1
    outer loop
      vertex 10.6 15 0
      vertex -10.6 20 0
      vertex -10.6 15 0
    endloop
  endfacet
  facet normal 0.998795 -0.0490752 0
    outer loop
      vertex -12.5 0 0
      vertex -12.4398 1.22521 -5.05
      vertex -12.4398 1.22521 0
    endloop
  endfacet
  facet normal 0.998795 -0.0490752 0
    outer loop
      vertex -12.4398 1.22521 -5.05
      vertex -12.5 0 0
      vertex -12.5 0 -5.05
    endloop
  endfacet
  facet normal -0.671564 0.740946 0
    outer loop
      vertex 8.83883 -8.83883 -5.05
      vertex 7.92992 -9.66263 0
      vertex 8.83883 -8.83883 0
    endloop
  endfacet
  facet normal -0.671564 0.740946 0
    outer loop
      vertex 7.92992 -9.66263 0
      vertex 8.83883 -8.83883 -5.05
      vertex 7.92992 -9.66263 -5.05
    endloop
  endfacet
  facet normal -0.671564 -0.740946 0
    outer loop
      vertex -5.65685 -5.65685 -10.1
      vertex -5.07515 -6.18408 0
      vertex -5.65685 -5.65685 0
    endloop
  endfacet
  facet normal -0.671564 -0.740946 -0
    outer loop
      vertex -5.07515 -6.18408 0
      vertex -5.65685 -5.65685 -10.1
      vertex -5.07515 -6.18408 -10.1
    endloop
  endfacet
  facet normal -0.941547 0.336883 0
    outer loop
      vertex -7.65552 2.32228 -10.1
      vertex -7.39104 3.06147 0
      vertex -7.39104 3.06147 -10.1
    endloop
  endfacet
  facet normal -0.941547 0.336883 0
    outer loop
      vertex -7.39104 3.06147 0
      vertex -7.65552 2.32228 -10.1
      vertex -7.65552 2.32228 0
    endloop
  endfacet
  facet normal 0.989176 0.146736 0
    outer loop
      vertex 7.96148 0.784137 0
      vertex 7.84628 1.56072 -10.1
      vertex 7.84628 1.56072 0
    endloop
  endfacet
  facet normal 0.989176 0.146736 0
    outer loop
      vertex 7.84628 1.56072 -10.1
      vertex 7.96148 0.784137 0
      vertex 7.96148 0.784137 -10.1
    endloop
  endfacet
  facet normal 0.998796 0.0490649 0
    outer loop
      vertex 8 0 0
      vertex 7.96148 0.784137 -10.1
      vertex 7.96148 0.784137 0
    endloop
  endfacet
  facet normal 0.998796 0.0490649 0
    outer loop
      vertex 7.96148 0.784137 -10.1
      vertex 8 0 0
      vertex 8 0 -10.1
    endloop
  endfacet
  facet normal -0.514099 -0.857731 0
    outer loop
      vertex -4.44456 -6.65176 -10.1
      vertex -3.77117 -7.05537 0
      vertex -4.44456 -6.65176 0
    endloop
  endfacet
  facet normal -0.514099 -0.857731 -0
    outer loop
      vertex -3.77117 -7.05537 0
      vertex -4.44456 -6.65176 -10.1
      vertex -3.77117 -7.05537 -10.1
    endloop
  endfacet
  facet normal 0.671564 0.740946 -0
    outer loop
      vertex 5.65685 5.65685 -10.1
      vertex 5.07515 6.18408 0
      vertex 5.65685 5.65685 0
    endloop
  endfacet
  facet normal 0.671564 0.740946 0
    outer loop
      vertex 5.07515 6.18408 0
      vertex 5.65685 5.65685 -10.1
      vertex 5.07515 6.18408 -10.1
    endloop
  endfacet
  facet normal -0.146736 -0.989176 0
    outer loop
      vertex -1.56072 -7.84628 -10.1
      vertex -0.784137 -7.96148 0
      vertex -1.56072 -7.84628 0
    endloop
  endfacet
  facet normal -0.146736 -0.989176 -0
    outer loop
      vertex -0.784137 -7.96148 0
      vertex -1.56072 -7.84628 -10.1
      vertex -0.784137 -7.96148 -10.1
    endloop
  endfacet
  facet normal 0.740946 0.671564 0
    outer loop
      vertex 6.18408 5.07515 0
      vertex 5.65685 5.65685 -10.1
      vertex 5.65685 5.65685 0
    endloop
  endfacet
  facet normal 0.740946 0.671564 0
    outer loop
      vertex 5.65685 5.65685 -10.1
      vertex 6.18408 5.07515 0
      vertex 6.18408 5.07515 -10.1
    endloop
  endfacet
  facet normal 0.427562 0.903986 -0
    outer loop
      vertex 3.77117 7.05537 -10.1
      vertex 3.06147 7.39104 0
      vertex 3.77117 7.05537 0
    endloop
  endfacet
  facet normal 0.427562 0.903986 0
    outer loop
      vertex 3.06147 7.39104 0
      vertex 3.77117 7.05537 -10.1
      vertex 3.06147 7.39104 -10.1
    endloop
  endfacet
  facet normal 0.0490649 -0.998796 0
    outer loop
      vertex 0 -8 -10.1
      vertex 0.784137 -7.96148 0
      vertex 0 -8 0
    endloop
  endfacet
  facet normal 0.0490649 -0.998796 0
    outer loop
      vertex 0.784137 -7.96148 0
      vertex 0 -8 -10.1
      vertex 0.784137 -7.96148 -10.1
    endloop
  endfacet
  facet normal -0.740946 0.671564 0
    outer loop
      vertex -6.18408 5.07515 -10.1
      vertex -5.65685 5.65685 0
      vertex -5.65685 5.65685 -10.1
    endloop
  endfacet
  facet normal -0.740946 0.671564 0
    outer loop
      vertex -5.65685 5.65685 0
      vertex -6.18408 5.07515 -10.1
      vertex -6.18408 5.07515 0
    endloop
  endfacet
  facet normal 0.989176 -0.146736 0
    outer loop
      vertex 7.84628 -1.56072 0
      vertex 7.96148 -0.784137 -10.1
      vertex 7.96148 -0.784137 0
    endloop
  endfacet
  facet normal 0.989176 -0.146736 0
    outer loop
      vertex 7.96148 -0.784137 -10.1
      vertex 7.84628 -1.56072 0
      vertex 7.84628 -1.56072 -10.1
    endloop
  endfacet
  facet normal 0.903986 0.427562 0
    outer loop
      vertex 7.39104 3.06147 0
      vertex 7.05537 3.77117 -10.1
      vertex 7.05537 3.77117 0
    endloop
  endfacet
  facet normal 0.903986 0.427562 0
    outer loop
      vertex 7.05537 3.77117 -10.1
      vertex 7.39104 3.06147 0
      vertex 7.39104 3.06147 -10.1
    endloop
  endfacet
  facet normal -0.242979 0.970032 0
    outer loop
      vertex -1.56072 7.84628 -10.1
      vertex -2.32228 7.65552 0
      vertex -1.56072 7.84628 0
    endloop
  endfacet
  facet normal -0.242979 0.970032 0
    outer loop
      vertex -2.32228 7.65552 0
      vertex -1.56072 7.84628 -10.1
      vertex -2.32228 7.65552 -10.1
    endloop
  endfacet
  facet normal -0.803206 0.595701 0
    outer loop
      vertex -6.65176 4.44456 -10.1
      vertex -6.18408 5.07515 0
      vertex -6.18408 5.07515 -10.1
    endloop
  endfacet
  facet normal -0.803206 0.595701 0
    outer loop
      vertex -6.18408 5.07515 0
      vertex -6.65176 4.44456 -10.1
      vertex -6.65176 4.44456 0
    endloop
  endfacet
  facet normal 0.242979 0.970032 -0
    outer loop
      vertex 2.32228 7.65552 -10.1
      vertex 1.56072 7.84628 0
      vertex 2.32228 7.65552 0
    endloop
  endfacet
  facet normal 0.242979 0.970032 0
    outer loop
      vertex 1.56072 7.84628 0
      vertex 2.32228 7.65552 -10.1
      vertex 1.56072 7.84628 -10.1
    endloop
  endfacet
  facet normal 0.336883 0.941547 -0
    outer loop
      vertex 3.06147 7.39104 -10.1
      vertex 2.32228 7.65552 0
      vertex 3.06147 7.39104 0
    endloop
  endfacet
  facet normal 0.336883 0.941547 0
    outer loop
      vertex 2.32228 7.65552 0
      vertex 3.06147 7.39104 -10.1
      vertex 2.32228 7.65552 -10.1
    endloop
  endfacet
  facet normal 0.941547 0.336883 0
    outer loop
      vertex 7.65552 2.32228 0
      vertex 7.39104 3.06147 -10.1
      vertex 7.39104 3.06147 0
    endloop
  endfacet
  facet normal 0.941547 0.336883 0
    outer loop
      vertex 7.39104 3.06147 -10.1
      vertex 7.65552 2.32228 0
      vertex 7.65552 2.32228 -10.1
    endloop
  endfacet
  facet normal 0.595701 0.803206 -0
    outer loop
      vertex 5.07515 6.18408 -10.1
      vertex 4.44456 6.65176 0
      vertex 5.07515 6.18408 0
    endloop
  endfacet
  facet normal 0.595701 0.803206 0
    outer loop
      vertex 4.44456 6.65176 0
      vertex 5.07515 6.18408 -10.1
      vertex 4.44456 6.65176 -10.1
    endloop
  endfacet
  facet normal -0.857731 -0.514099 0
    outer loop
      vertex -6.65176 -4.44456 -10.1
      vertex -7.05537 -3.77117 0
      vertex -7.05537 -3.77117 -10.1
    endloop
  endfacet
  facet normal -0.857731 -0.514099 0
    outer loop
      vertex -7.05537 -3.77117 0
      vertex -6.65176 -4.44456 -10.1
      vertex -6.65176 -4.44456 0
    endloop
  endfacet
  facet normal 0.514099 0.857731 -0
    outer loop
      vertex 4.44456 6.65176 -10.1
      vertex 3.77117 7.05537 0
      vertex 4.44456 6.65176 0
    endloop
  endfacet
  facet normal 0.514099 0.857731 0
    outer loop
      vertex 3.77117 7.05537 0
      vertex 4.44456 6.65176 -10.1
      vertex 3.77117 7.05537 -10.1
    endloop
  endfacet
  facet normal 0.941547 -0.336883 0
    outer loop
      vertex 7.39104 -3.06147 0
      vertex 7.65552 -2.32228 -10.1
      vertex 7.65552 -2.32228 0
    endloop
  endfacet
  facet normal 0.941547 -0.336883 0
    outer loop
      vertex 7.65552 -2.32228 -10.1
      vertex 7.39104 -3.06147 0
      vertex 7.39104 -3.06147 -10.1
    endloop
  endfacet
  facet normal -0.857731 0.514099 0
    outer loop
      vertex -7.05537 3.77117 -10.1
      vertex -6.65176 4.44456 0
      vertex -6.65176 4.44456 -10.1
    endloop
  endfacet
  facet normal -0.857731 0.514099 0
    outer loop
      vertex -6.65176 4.44456 0
      vertex -7.05537 3.77117 -10.1
      vertex -7.05537 3.77117 0
    endloop
  endfacet
  facet normal -0.970032 -0.242979 0
    outer loop
      vertex -7.65552 -2.32228 -10.1
      vertex -7.84628 -1.56072 0
      vertex -7.84628 -1.56072 -10.1
    endloop
  endfacet
  facet normal -0.970032 -0.242979 0
    outer loop
      vertex -7.84628 -1.56072 0
      vertex -7.65552 -2.32228 -10.1
      vertex -7.65552 -2.32228 0
    endloop
  endfacet
  facet normal 0.0490649 0.998796 -0
    outer loop
      vertex 0.784137 7.96148 -10.1
      vertex 0 8 0
      vertex 0.784137 7.96148 0
    endloop
  endfacet
  facet normal 0.0490649 0.998796 0
    outer loop
      vertex 0 8 0
      vertex 0.784137 7.96148 -10.1
      vertex 0 8 -10.1
    endloop
  endfacet
  facet normal 0.857731 0.514099 0
    outer loop
      vertex 7.05537 3.77117 0
      vertex 6.65176 4.44456 -10.1
      vertex 6.65176 4.44456 0
    endloop
  endfacet
  facet normal 0.857731 0.514099 0
    outer loop
      vertex 6.65176 4.44456 -10.1
      vertex 7.05537 3.77117 0
      vertex 7.05537 3.77117 -10.1
    endloop
  endfacet
  facet normal -0.941547 -0.336883 0
    outer loop
      vertex -7.39104 -3.06147 -10.1
      vertex -7.65552 -2.32228 0
      vertex -7.65552 -2.32228 -10.1
    endloop
  endfacet
  facet normal -0.941547 -0.336883 0
    outer loop
      vertex -7.65552 -2.32228 0
      vertex -7.39104 -3.06147 -10.1
      vertex -7.39104 -3.06147 0
    endloop
  endfacet
  facet normal -0.671564 0.740946 0
    outer loop
      vertex -5.07515 6.18408 -10.1
      vertex -5.65685 5.65685 0
      vertex -5.07515 6.18408 0
    endloop
  endfacet
  facet normal -0.671564 0.740946 0
    outer loop
      vertex -5.65685 5.65685 0
      vertex -5.07515 6.18408 -10.1
      vertex -5.65685 5.65685 -10.1
    endloop
  endfacet
  facet normal 0.970032 -0.242979 0
    outer loop
      vertex 7.65552 -2.32228 0
      vertex 7.84628 -1.56072 -10.1
      vertex 7.84628 -1.56072 0
    endloop
  endfacet
  facet normal 0.970032 -0.242979 0
    outer loop
      vertex 7.84628 -1.56072 -10.1
      vertex 7.65552 -2.32228 0
      vertex 7.65552 -2.32228 -10.1
    endloop
  endfacet
  facet normal 0 0 -1
    outer loop
      vertex 7.96148 -0.784137 -10.1
      vertex 7.96148 0.784137 -10.1
      vertex 8 0 -10.1
    endloop
  endfacet
  facet normal 0 0 -1
    outer loop
      vertex 7.84628 -1.56072 -10.1
      vertex 7.96148 0.784137 -10.1
      vertex 7.96148 -0.784137 -10.1
    endloop
  endfacet
  facet normal 0 0 -1
    outer loop
      vertex 7.84628 -1.56072 -10.1
      vertex 7.84628 1.56072 -10.1
      vertex 7.96148 0.784137 -10.1
    endloop
  endfacet
  facet normal 0 0 -1
    outer loop
      vertex 7.65552 -2.32228 -10.1
      vertex 7.84628 1.56072 -10.1
      vertex 7.84628 -1.56072 -10.1
    endloop
  endfacet
  facet normal 0 0 -1
    outer loop
      vertex 7.65552 -2.32228 -10.1
      vertex 7.65552 2.32228 -10.1
      vertex 7.84628 1.56072 -10.1
    endloop
  endfacet
  facet normal 0 0 -1
    outer loop
      vertex 7.39104 -3.06147 -10.1
      vertex 7.65552 2.32228 -10.1
      vertex 7.65552 -2.32228 -10.1
    endloop
  endfacet
  facet normal 0 0 -1
    outer loop
      vertex 7.39104 -3.06147 -10.1
      vertex 7.39104 3.06147 -10.1
      vertex 7.65552 2.32228 -10.1
    endloop
  endfacet
  facet normal 0 0 -1
    outer loop
      vertex 7.05537 -3.77117 -10.1
      vertex 7.39104 3.06147 -10.1
      vertex 7.39104 -3.06147 -10.1
    endloop
  endfacet
  facet normal 0 0 -1
    outer loop
      vertex 7.05537 -3.77117 -10.1
      vertex 7.05537 3.77117 -10.1
      vertex 7.39104 3.06147 -10.1
    endloop
  endfacet
  facet normal 0 0 -1
    outer loop
      vertex 6.65176 -4.44456 -10.1
      vertex 7.05537 3.77117 -10.1
      vertex 7.05537 -3.77117 -10.1
    endloop
  endfacet
  facet normal 0 0 -1
    outer loop
      vertex 6.65176 -4.44456 -10.1
      vertex 6.65176 4.44456 -10.1
      vertex 7.05537 3.77117 -10.1
    endloop
  endfacet
  facet normal 0 0 -1
    outer loop
      vertex 6.18408 -5.07515 -10.1
      vertex 6.65176 4.44456 -10.1
      vertex 6.65176 -4.44456 -10.1
    endloop
  endfacet
  facet normal 0 0 -1
    outer loop
      vertex 6.18408 -5.07515 -10.1
      vertex 6.18408 5.07515 -10.1
      vertex 6.65176 4.44456 -10.1
    endloop
  endfacet
  facet normal 0 0 -1
    outer loop
      vertex 5.65685 -5.65685 -10.1
      vertex 6.18408 5.07515 -10.1
      vertex 6.18408 -5.07515 -10.1
    endloop
  endfacet
  facet normal 0 0 -1
    outer loop
      vertex 5.65685 -5.65685 -10.1
      vertex 5.65685 5.65685 -10.1
      vertex 6.18408 5.07515 -10.1
    endloop
  endfacet
  facet normal 0 0 -1
    outer loop
      vertex 5.07515 -6.18408 -10.1
      vertex 5.65685 5.65685 -10.1
      vertex 5.65685 -5.65685 -10.1
    endloop
  endfacet
  facet normal 0 0 -1
    outer loop
      vertex 5.07515 -6.18408 -10.1
      vertex 5.07515 6.18408 -10.1
      vertex 5.65685 5.65685 -10.1
    endloop
  endfacet
  facet normal 0 0 -1
    outer loop
      vertex 4.44456 -6.65176 -10.1
      vertex 5.07515 6.18408 -10.1
      vertex 5.07515 -6.18408 -10.1
    endloop
  endfacet
  facet normal 0 0 -1
    outer loop
      vertex 4.44456 -6.65176 -10.1
      vertex 4.44456 6.65176 -10.1
      vertex 5.07515 6.18408 -10.1
    endloop
  endfacet
  facet normal 0 0 -1
    outer loop
      vertex 3.77117 -7.05537 -10.1
      vertex 4.44456 6.65176 -10.1
      vertex 4.44456 -6.65176 -10.1
    endloop
  endfacet
  facet normal 0 0 -1
    outer loop
      vertex 3.77117 -7.05537 -10.1
      vertex 3.77117 7.05537 -10.1
      vertex 4.44456 6.65176 -10.1
    endloop
  endfacet
  facet normal 0 0 -1
    outer loop
      vertex 3.06147 -7.39104 -10.1
      vertex 3.77117 7.05537 -10.1
      vertex 3.77117 -7.05537 -10.1
    endloop
  endfacet
  facet normal 0 0 -1
    outer loop
      vertex 3.06147 -7.39104 -10.1
      vertex 3.06147 7.39104 -10.1
      vertex 3.77117 7.05537 -10.1
    endloop
  endfacet
  facet normal 0 0 -1
    outer loop
      vertex 2.32228 -7.65552 -10.1
      vertex 3.06147 7.39104 -10.1
      vertex 3.06147 -7.39104 -10.1
    endloop
  endfacet
  facet normal 0 0 -1
    outer loop
      vertex 2.32228 -7.65552 -10.1
      vertex 2.32228 7.65552 -10.1
      vertex 3.06147 7.39104 -10.1
    endloop
  endfacet
  facet normal 0 0 -1
    outer loop
      vertex 1.56072 -7.84628 -10.1
      vertex 2.32228 7.65552 -10.1
      vertex 2.32228 -7.65552 -10.1
    endloop
  endfacet
  facet normal 0 0 -1
    outer loop
      vertex 1.56072 -7.84628 -10.1
      vertex 1.56072 7.84628 -10.1
      vertex 2.32228 7.65552 -10.1
    endloop
  endfacet
  facet normal 0 0 -1
    outer loop
      vertex 0.784137 -7.96148 -10.1
      vertex 1.56072 7.84628 -10.1
      vertex 1.56072 -7.84628 -10.1
    endloop
  endfacet
  facet normal 0 0 -1
    outer loop
      vertex 0.784137 -7.96148 -10.1
      vertex 0.784137 7.96148 -10.1
      vertex 1.56072 7.84628 -10.1
    endloop
  endfacet
  facet normal 0 0 -1
    outer loop
      vertex 0 -8 -10.1
      vertex 0.784137 7.96148 -10.1
      vertex 0.784137 -7.96148 -10.1
    endloop
  endfacet
  facet normal 0 0 -1
    outer loop
      vertex 0 -8 -10.1
      vertex 0 8 -10.1
      vertex 0.784137 7.96148 -10.1
    endloop
  endfacet
  facet normal 0 0 -1
    outer loop
      vertex -0.784137 -7.96148 -10.1
      vertex 0 8 -10.1
      vertex 0 -8 -10.1
    endloop
  endfacet
  facet normal 0 0 -1
    outer loop
      vertex -0.784137 -7.96148 -10.1
      vertex -0.784137 7.96148 -10.1
      vertex 0 8 -10.1
    endloop
  endfacet
  facet normal 0 0 -1
    outer loop
      vertex -1.56072 -7.84628 -10.1
      vertex -0.784137 7.96148 -10.1
      vertex -0.784137 -7.96148 -10.1
    endloop
  endfacet
  facet normal 0 0 -1
    outer loop
      vertex -1.56072 -7.84628 -10.1
      vertex -1.56072 7.84628 -10.1
      vertex -0.784137 7.96148 -10.1
    endloop
  endfacet
  facet normal 0 0 -1
    outer loop
      vertex -2.32228 -7.65552 -10.1
      vertex -1.56072 7.84628 -10.1
      vertex -1.56072 -7.84628 -10.1
    endloop
  endfacet
  facet normal 0 0 -1
    outer loop
      vertex -2.32228 -7.65552 -10.1
      vertex -2.32228 7.65552 -10.1
      vertex -1.56072 7.84628 -10.1
    endloop
  endfacet
  facet normal 0 0 -1
    outer loop
      vertex -3.06147 -7.39104 -10.1
      vertex -2.32228 7.65552 -10.1
      vertex -2.32228 -7.65552 -10.1
    endloop
  endfacet
  facet normal 0 0 -1
    outer loop
      vertex -3.06147 -7.39104 -10.1
      vertex -3.06147 7.39104 -10.1
      vertex -2.32228 7.65552 -10.1
    endloop
  endfacet
  facet normal 0 0 -1
    outer loop
      vertex -3.77117 -7.05537 -10.1
      vertex -3.06147 7.39104 -10.1
      vertex -3.06147 -7.39104 -10.1
    endloop
  endfacet
  facet normal 0 0 -1
    outer loop
      vertex -3.77117 -7.05537 -10.1
      vertex -3.77117 7.05537 -10.1
      vertex -3.06147 7.39104 -10.1
    endloop
  endfacet
  facet normal 0 0 -1
    outer loop
      vertex -4.44456 -6.65176 -10.1
      vertex -3.77117 7.05537 -10.1
      vertex -3.77117 -7.05537 -10.1
    endloop
  endfacet
  facet normal 0 0 -1
    outer loop
      vertex -4.44456 -6.65176 -10.1
      vertex -4.44456 6.65176 -10.1
      vertex -3.77117 7.05537 -10.1
    endloop
  endfacet
  facet normal 0 0 -1
    outer loop
      vertex -5.07515 -6.18408 -10.1
      vertex -4.44456 6.65176 -10.1
      vertex -4.44456 -6.65176 -10.1
    endloop
  endfacet
  facet normal 0 0 -1
    outer loop
      vertex -5.07515 -6.18408 -10.1
      vertex -5.07515 6.18408 -10.1
      vertex -4.44456 6.65176 -10.1
    endloop
  endfacet
  facet normal 0 0 -1
    outer loop
      vertex -5.65685 -5.65685 -10.1
      vertex -5.07515 6.18408 -10.1
      vertex -5.07515 -6.18408 -10.1
    endloop
  endfacet
  facet normal 0 0 -1
    outer loop
      vertex -5.65685 -5.65685 -10.1
      vertex -5.65685 5.65685 -10.1
      vertex -5.07515 6.18408 -10.1
    endloop
  endfacet
  facet normal 0 0 -1
    outer loop
      vertex -6.18408 -5.07515 -10.1
      vertex -5.65685 5.65685 -10.1
      vertex -5.65685 -5.65685 -10.1
    endloop
  endfacet
  facet normal 0 0 -1
    outer loop
      vertex -6.18408 -5.07515 -10.1
      vertex -6.18408 5.07515 -10.1
      vertex -5.65685 5.65685 -10.1
    endloop
  endfacet
  facet normal 0 0 -1
    outer loop
      vertex -6.65176 -4.44456 -10.1
      vertex -6.18408 5.07515 -10.1
      vertex -6.18408 -5.07515 -10.1
    endloop
  endfacet
  facet normal 0 0 -1
    outer loop
      vertex -6.65176 -4.44456 -10.1
      vertex -6.65176 4.44456 -10.1
      vertex -6.18408 5.07515 -10.1
    endloop
  endfacet
  facet normal 0 0 -1
    outer loop
      vertex -7.05537 -3.77117 -10.1
      vertex -6.65176 4.44456 -10.1
      vertex -6.65176 -4.44456 -10.1
    endloop
  endfacet
  facet normal 0 0 -1
    outer loop
      vertex -7.05537 -3.77117 -10.1
      vertex -7.05537 3.77117 -10.1
      vertex -6.65176 4.44456 -10.1
    endloop
  endfacet
  facet normal 0 0 -1
    outer loop
      vertex -7.39104 -3.06147 -10.1
      vertex -7.05537 3.77117 -10.1
      vertex -7.05537 -3.77117 -10.1
    endloop
  endfacet
  facet normal 0 0 -1
    outer loop
      vertex -7.39104 -3.06147 -10.1
      vertex -7.39104 3.06147 -10.1
      vertex -7.05537 3.77117 -10.1
    endloop
  endfacet
  facet normal 0 0 -1
    outer loop
      vertex -7.65552 -2.32228 -10.1
      vertex -7.39104 3.06147 -10.1
      vertex -7.39104 -3.06147 -10.1
    endloop
  endfacet
  facet normal 0 0 -1
    outer loop
      vertex -7.65552 -2.32228 -10.1
      vertex -7.65552 2.32228 -10.1
      vertex -7.39104 3.06147 -10.1
    endloop
  endfacet
  facet normal 0 0 -1
    outer loop
      vertex -7.84628 -1.56072 -10.1
      vertex -7.65552 2.32228 -10.1
      vertex -7.65552 -2.32228 -10.1
    endloop
  endfacet
  facet normal 0 0 -1
    outer loop
      vertex -7.84628 -1.56072 -10.1
      vertex -7.84628 1.56072 -10.1
      vertex -7.65552 2.32228 -10.1
    endloop
  endfacet
  facet normal 0 0 -1
    outer loop
      vertex -7.96148 -0.784137 -10.1
      vertex -7.84628 1.56072 -10.1
      vertex -7.84628 -1.56072 -10.1
    endloop
  endfacet
  facet normal 0 0 -1
    outer loop
      vertex -7.96148 -0.784137 -10.1
      vertex -7.96148 0.784137 -10.1
      vertex -7.84628 1.56072 -10.1
    endloop
  endfacet
  facet normal 0 -0 -1
    outer loop
      vertex -7.96148 0.784137 -10.1
      vertex -7.96148 -0.784137 -10.1
      vertex -8 0 -10.1
    endloop
  endfacet
  facet normal -0.514099 0.857731 0
    outer loop
      vertex -3.77117 7.05537 -10.1
      vertex -4.44456 6.65176 0
      vertex -3.77117 7.05537 0
    endloop
  endfacet
  facet normal -0.514099 0.857731 0
    outer loop
      vertex -4.44456 6.65176 0
      vertex -3.77117 7.05537 -10.1
      vertex -4.44456 6.65176 -10.1
    endloop
  endfacet
  facet normal -0.998796 -0.0490649 0
    outer loop
      vertex -7.96148 -0.784137 -10.1
      vertex -8 0 0
      vertex -8 0 -10.1
    endloop
  endfacet
  facet normal -0.998796 -0.0490649 0
    outer loop
      vertex -8 0 0
      vertex -7.96148 -0.784137 -10.1
      vertex -7.96148 -0.784137 0
    endloop
  endfacet
  facet normal -0.970032 0.242979 0
    outer loop
      vertex -7.84628 1.56072 -10.1
      vertex -7.65552 2.32228 0
      vertex -7.65552 2.32228 -10.1
    endloop
  endfacet
  facet normal -0.970032 0.242979 0
    outer loop
      vertex -7.65552 2.32228 0
      vertex -7.84628 1.56072 -10.1
      vertex -7.84628 1.56072 0
    endloop
  endfacet
  facet normal 0.427562 -0.903986 0
    outer loop
      vertex 3.06147 -7.39104 -10.1
      vertex 3.77117 -7.05537 0
      vertex 3.06147 -7.39104 0
    endloop
  endfacet
  facet normal 0.427562 -0.903986 0
    outer loop
      vertex 3.77117 -7.05537 0
      vertex 3.06147 -7.39104 -10.1
      vertex 3.77117 -7.05537 -10.1
    endloop
  endfacet
  facet normal -0.336883 -0.941547 0
    outer loop
      vertex -3.06147 -7.39104 -10.1
      vertex -2.32228 -7.65552 0
      vertex -3.06147 -7.39104 0
    endloop
  endfacet
  facet normal -0.336883 -0.941547 -0
    outer loop
      vertex -2.32228 -7.65552 0
      vertex -3.06147 -7.39104 -10.1
      vertex -2.32228 -7.65552 -10.1
    endloop
  endfacet
  facet normal -0.336883 0.941547 0
    outer loop
      vertex -2.32228 7.65552 -10.1
      vertex -3.06147 7.39104 0
      vertex -2.32228 7.65552 0
    endloop
  endfacet
  facet normal -0.336883 0.941547 0
    outer loop
      vertex -3.06147 7.39104 0
      vertex -2.32228 7.65552 -10.1
      vertex -3.06147 7.39104 -10.1
    endloop
  endfacet
  facet normal 0.514099 -0.857731 0
    outer loop
      vertex 3.77117 -7.05537 -10.1
      vertex 4.44456 -6.65176 0
      vertex 3.77117 -7.05537 0
    endloop
  endfacet
  facet normal 0.514099 -0.857731 0
    outer loop
      vertex 4.44456 -6.65176 0
      vertex 3.77117 -7.05537 -10.1
      vertex 4.44456 -6.65176 -10.1
    endloop
  endfacet
  facet normal 0.146736 -0.989176 0
    outer loop
      vertex 0.784137 -7.96148 -10.1
      vertex 1.56072 -7.84628 0
      vertex 0.784137 -7.96148 0
    endloop
  endfacet
  facet normal 0.146736 -0.989176 0
    outer loop
      vertex 1.56072 -7.84628 0
      vertex 0.784137 -7.96148 -10.1
      vertex 1.56072 -7.84628 -10.1
    endloop
  endfacet
  facet normal 0.740946 -0.671564 0
    outer loop
      vertex 5.65685 -5.65685 0
      vertex 6.18408 -5.07515 -10.1
      vertex 6.18408 -5.07515 0
    endloop
  endfacet
  facet normal 0.740946 -0.671564 0
    outer loop
      vertex 6.18408 -5.07515 -10.1
      vertex 5.65685 -5.65685 0
      vertex 5.65685 -5.65685 -10.1
    endloop
  endfacet
  facet normal 0.803206 -0.595701 0
    outer loop
      vertex 6.18408 -5.07515 0
      vertex 6.65176 -4.44456 -10.1
      vertex 6.65176 -4.44456 0
    endloop
  endfacet
  facet normal 0.803206 -0.595701 0
    outer loop
      vertex 6.65176 -4.44456 -10.1
      vertex 6.18408 -5.07515 0
      vertex 6.18408 -5.07515 -10.1
    endloop
  endfacet
  facet normal -0.0490649 0.998796 0
    outer loop
      vertex 0 8 -10.1
      vertex -0.784137 7.96148 0
      vertex 0 8 0
    endloop
  endfacet
  facet normal -0.0490649 0.998796 0
    outer loop
      vertex -0.784137 7.96148 0
      vertex 0 8 -10.1
      vertex -0.784137 7.96148 -10.1
    endloop
  endfacet
  facet normal -0.427562 0.903986 0
    outer loop
      vertex -3.06147 7.39104 -10.1
      vertex -3.77117 7.05537 0
      vertex -3.06147 7.39104 0
    endloop
  endfacet
  facet normal -0.427562 0.903986 0
    outer loop
      vertex -3.77117 7.05537 0
      vertex -3.06147 7.39104 -10.1
      vertex -3.77117 7.05537 -10.1
    endloop
  endfacet
  facet normal -0.595701 0.803206 0
    outer loop
      vertex -4.44456 6.65176 -10.1
      vertex -5.07515 6.18408 0
      vertex -4.44456 6.65176 0
    endloop
  endfacet
  facet normal -0.595701 0.803206 0
    outer loop
      vertex -5.07515 6.18408 0
      vertex -4.44456 6.65176 -10.1
      vertex -5.07515 6.18408 -10.1
    endloop
  endfacet
  facet normal -0.989176 0.146736 0
    outer loop
      vertex -7.96148 0.784137 -10.1
      vertex -7.84628 1.56072 0
      vertex -7.84628 1.56072 -10.1
    endloop
  endfacet
  facet normal -0.989176 0.146736 0
    outer loop
      vertex -7.84628 1.56072 0
      vertex -7.96148 0.784137 -10.1
      vertex -7.96148 0.784137 0
    endloop
  endfacet
  facet normal -0.242979 -0.970032 0
    outer loop
      vertex -2.32228 -7.65552 -10.1
      vertex -1.56072 -7.84628 0
      vertex -2.32228 -7.65552 0
    endloop
  endfacet
  facet normal -0.242979 -0.970032 -0
    outer loop
      vertex -1.56072 -7.84628 0
      vertex -2.32228 -7.65552 -10.1
      vertex -1.56072 -7.84628 -10.1
    endloop
  endfacet
  facet normal 0.970032 0.242979 0
    outer loop
      vertex 7.84628 1.56072 0
      vertex 7.65552 2.32228 -10.1
      vertex 7.65552 2.32228 0
    endloop
  endfacet
  facet normal 0.970032 0.242979 0
    outer loop
      vertex 7.65552 2.32228 -10.1
      vertex 7.84628 1.56072 0
      vertex 7.84628 1.56072 -10.1
    endloop
  endfacet
  facet normal 0.803206 0.595701 0
    outer loop
      vertex 6.65176 4.44456 0
      vertex 6.18408 5.07515 -10.1
      vertex 6.18408 5.07515 0
    endloop
  endfacet
  facet normal 0.803206 0.595701 0
    outer loop
      vertex 6.18408 5.07515 -10.1
      vertex 6.65176 4.44456 0
      vertex 6.65176 4.44456 -10.1
    endloop
  endfacet
  facet normal -0.803206 -0.595701 0
    outer loop
      vertex -6.18408 -5.07515 -10.1
      vertex -6.65176 -4.44456 0
      vertex -6.65176 -4.44456 -10.1
    endloop
  endfacet
  facet normal -0.803206 -0.595701 0
    outer loop
      vertex -6.65176 -4.44456 0
      vertex -6.18408 -5.07515 -10.1
      vertex -6.18408 -5.07515 0
    endloop
  endfacet
  facet normal -0.903986 -0.427562 0
    outer loop
      vertex -7.05537 -3.77117 -10.1
      vertex -7.39104 -3.06147 0
      vertex -7.39104 -3.06147 -10.1
    endloop
  endfacet
  facet normal -0.903986 -0.427562 0
    outer loop
      vertex -7.39104 -3.06147 0
      vertex -7.05537 -3.77117 -10.1
      vertex -7.05537 -3.77117 0
    endloop
  endfacet
  facet normal 0.146736 0.989176 -0
    outer loop
      vertex 1.56072 7.84628 -10.1
      vertex 0.784137 7.96148 0
      vertex 1.56072 7.84628 0
    endloop
  endfacet
  facet normal 0.146736 0.989176 0
    outer loop
      vertex 0.784137 7.96148 0
      vertex 1.56072 7.84628 -10.1
      vertex 0.784137 7.96148 -10.1
    endloop
  endfacet
  facet normal -0.427562 -0.903986 0
    outer loop
      vertex -3.77117 -7.05537 -10.1
      vertex -3.06147 -7.39104 0
      vertex -3.77117 -7.05537 0
    endloop
  endfacet
  facet normal -0.427562 -0.903986 -0
    outer loop
      vertex -3.06147 -7.39104 0
      vertex -3.77117 -7.05537 -10.1
      vertex -3.06147 -7.39104 -10.1
    endloop
  endfacet
  facet normal 0.595701 -0.803206 0
    outer loop
      vertex 4.44456 -6.65176 -10.1
      vertex 5.07515 -6.18408 0
      vertex 4.44456 -6.65176 0
    endloop
  endfacet
  facet normal 0.595701 -0.803206 0
    outer loop
      vertex 5.07515 -6.18408 0
      vertex 4.44456 -6.65176 -10.1
      vertex 5.07515 -6.18408 -10.1
    endloop
  endfacet
  facet normal 0.998796 -0.0490649 0
    outer loop
      vertex 7.96148 -0.784137 0
      vertex 8 0 -10.1
      vertex 8 0 0
    endloop
  endfacet
  facet normal 0.998796 -0.0490649 0
    outer loop
      vertex 8 0 -10.1
      vertex 7.96148 -0.784137 0
      vertex 7.96148 -0.784137 -10.1
    endloop
  endfacet
  facet normal -0.146736 0.989176 0
    outer loop
      vertex -0.784137 7.96148 -10.1
      vertex -1.56072 7.84628 0
      vertex -0.784137 7.96148 0
    endloop
  endfacet
  facet normal -0.146736 0.989176 0
    outer loop
      vertex -1.56072 7.84628 0
      vertex -0.784137 7.96148 -10.1
      vertex -1.56072 7.84628 -10.1
    endloop
  endfacet
  facet normal -0.989176 -0.146736 0
    outer loop
      vertex -7.84628 -1.56072 -10.1
      vertex -7.96148 -0.784137 0
      vertex -7.96148 -0.784137 -10.1
    endloop
  endfacet
  facet normal -0.989176 -0.146736 0
    outer loop
      vertex -7.96148 -0.784137 0
      vertex -7.84628 -1.56072 -10.1
      vertex -7.84628 -1.56072 0
    endloop
  endfacet
  facet normal 0.336883 -0.941547 0
    outer loop
      vertex 2.32228 -7.65552 -10.1
      vertex 3.06147 -7.39104 0
      vertex 2.32228 -7.65552 0
    endloop
  endfacet
  facet normal 0.336883 -0.941547 0
    outer loop
      vertex 3.06147 -7.39104 0
      vertex 2.32228 -7.65552 -10.1
      vertex 3.06147 -7.39104 -10.1
    endloop
  endfacet
  facet normal 0.242979 -0.970032 0
    outer loop
      vertex 1.56072 -7.84628 -10.1
      vertex 2.32228 -7.65552 0
      vertex 1.56072 -7.84628 0
    endloop
  endfacet
  facet normal 0.242979 -0.970032 0
    outer loop
      vertex 2.32228 -7.65552 0
      vertex 1.56072 -7.84628 -10.1
      vertex 2.32228 -7.65552 -10.1
    endloop
  endfacet
  facet normal -0.740946 -0.671564 0
    outer loop
      vertex -5.65685 -5.65685 -10.1
      vertex -6.18408 -5.07515 0
      vertex -6.18408 -5.07515 -10.1
    endloop
  endfacet
  facet normal -0.740946 -0.671564 0
    outer loop
      vertex -6.18408 -5.07515 0
      vertex -5.65685 -5.65685 -10.1
      vertex -5.65685 -5.65685 0
    endloop
  endfacet
  facet normal -0.903986 0.427562 0
    outer loop
      vertex -7.39104 3.06147 -10.1
      vertex -7.05537 3.77117 0
      vertex -7.05537 3.77117 -10.1
    endloop
  endfacet
  facet normal -0.903986 0.427562 0
    outer loop
      vertex -7.05537 3.77117 0
      vertex -7.39104 3.06147 -10.1
      vertex -7.39104 3.06147 0
    endloop
  endfacet
  facet normal -0.595701 -0.803206 0
    outer loop
      vertex -5.07515 -6.18408 -10.1
      vertex -4.44456 -6.65176 0
      vertex -5.07515 -6.18408 0
    endloop
  endfacet
  facet normal -0.595701 -0.803206 -0
    outer loop
      vertex -4.44456 -6.65176 0
      vertex -5.07515 -6.18408 -10.1
      vertex -4.44456 -6.65176 -10.1
    endloop
  endfacet
  facet normal 0.903986 -0.427562 0
    outer loop
      vertex 7.05537 -3.77117 0
      vertex 7.39104 -3.06147 -10.1
      vertex 7.39104 -3.06147 0
    endloop
  endfacet
  facet normal 0.903986 -0.427562 0
    outer loop
      vertex 7.39104 -3.06147 -10.1
      vertex 7.05537 -3.77117 0
      vertex 7.05537 -3.77117 -10.1
    endloop
  endfacet
  facet normal 0.857731 -0.514099 0
    outer loop
      vertex 6.65176 -4.44456 0
      vertex 7.05537 -3.77117 -10.1
      vertex 7.05537 -3.77117 0
    endloop
  endfacet
  facet normal 0.857731 -0.514099 0
    outer loop
      vertex 7.05537 -3.77117 -10.1
      vertex 6.65176 -4.44456 0
      vertex 6.65176 -4.44456 -10.1
    endloop
  endfacet
  facet normal -0.0490649 -0.998796 0
    outer loop
      vertex -0.784137 -7.96148 -10.1
      vertex 0 -8 0
      vertex -0.784137 -7.96148 0
    endloop
  endfacet
  facet normal -0.0490649 -0.998796 -0
    outer loop
      vertex 0 -8 0
      vertex -0.784137 -7.96148 -10.1
      vertex 0 -8 -10.1
    endloop
  endfacet
  facet normal -0.998796 0.0490649 0
    outer loop
      vertex -8 0 -10.1
      vertex -7.96148 0.784137 0
      vertex -7.96148 0.784137 -10.1
    endloop
  endfacet
  facet normal -0.998796 0.0490649 0
    outer loop
      vertex -7.96148 0.784137 0
      vertex -8 0 -10.1
      vertex -8 0 0
    endloop
  endfacet
  facet normal 0.671564 -0.740946 0
    outer loop
      vertex 5.07515 -6.18408 -10.1
      vertex 5.65685 -5.65685 0
      vertex 5.07515 -6.18408 0
    endloop
  endfacet
  facet normal 0.671564 -0.740946 0
    outer loop
      vertex 5.65685 -5.65685 0
      vertex 5.07515 -6.18408 -10.1
      vertex 5.65685 -5.65685 -10.1
    endloop
  endfacet
  facet normal 1 0 0
    outer loop
      vertex 10.6 15 -5.05
      vertex 10.6 20 0
      vertex 10.6 15 0
    endloop
  endfacet
  facet normal 1 0 0
    outer loop
      vertex 10.6 20 0
      vertex 10.6 15 -5.05
      vertex 10.6 20 -10.1
    endloop
  endfacet
  facet normal 1 0 0
    outer loop
      vertex 10.6 10 -10.1
      vertex 10.6 15 -5.05
      vertex 10.6 10 -5.05
    endloop
  endfacet
  facet normal 1 0 0
    outer loop
      vertex 10.6 15 -5.05
      vertex 10.6 10 -10.1
      vertex 10.6 20 -10.1
    endloop
  endfacet
  facet normal 0 0 -1
    outer loop
      vertex -10.6 10 -10.1
      vertex 10.6 20 -10.1
      vertex 10.6 10 -10.1
    endloop
  endfacet
  facet normal -0 0 -1
    outer loop
      vertex 10.6 20 -10.1
      vertex -10.6 10 -10.1
      vertex -10.6 20 -10.1
    endloop
  endfacet
  facet normal -1 0 0
    outer loop
      vertex -10.6 20 -10.1
      vertex -10.6 15 -5.05
      vertex -10.6 20 0
    endloop
  endfacet
  facet normal -1 0 0
    outer loop
      vertex -10.6 10 -10.1
      vertex -10.6 15 -5.05
      vertex -10.6 20 -10.1
    endloop
  endfacet
  facet normal -1 -0 0
    outer loop
      vertex -10.6 15 -5.05
      vertex -10.6 10 -10.1
      vertex -10.6 10 -5.05
    endloop
  endfacet
  facet normal -1 -0 0
    outer loop
      vertex -10.6 20 0
      vertex -10.6 15 -5.05
      vertex -10.6 15 0
    endloop
  endfacet
  facet normal 0 1 -0
    outer loop
      vertex 10.6 20 -10.1
      vertex -10.6 20 0
      vertex 10.6 20 0
    endloop
  endfacet
  facet normal 0 1 0
    outer loop
      vertex -10.6 20 0
      vertex 10.6 20 -10.1
      vertex -10.6 20 -10.1
    endloop
  endfacet
  facet normal 0 -1 0
    outer loop
      vertex -10.6 10 -10.1
      vertex -7.47503 10 -5.05
      vertex -10.6 10 -5.05
    endloop
  endfacet
  facet normal 0 -1 -0
    outer loop
      vertex -7.47503 10 -5.05
      vertex -10.6 10 -10.1
      vertex 7.47503 10 -5.05
    endloop
  endfacet
  facet normal 0 -1 0
    outer loop
      vertex 10.6 10 -10.1
      vertex 7.47503 10 -5.05
      vertex -10.6 10 -10.1
    endloop
  endfacet
  facet normal 0 -1 0
    outer loop
      vertex 7.47503 10 -5.05
      vertex 10.6 10 -10.1
      vertex 10.6 10 -5.05
    endloop
  endfacet
  facet normal 0 -1 0
    outer loop
      vertex -7.47503 10 -5.05
      vertex 7.47503 10 0
      vertex -7.47503 10 0
    endloop
  endfacet
  facet normal 0 -1 -0
    outer loop
      vertex 7.47503 10 0
      vertex -7.47503 10 -5.05
      vertex 7.47503 10 -5.05
    endloop
  endfacet
endsolid OpenSCAD_Model
