solid OpenSCAD_Model
  facet normal -0.427562 -0.903986 0
    outer loop
      vertex -3.77117 -7.05537 -66
      vertex -3.06147 -7.39104 0
      vertex -3.77117 -7.05537 0
    endloop
  endfacet
  facet normal -0.427562 -0.903986 -0
    outer loop
      vertex -3.06147 -7.39104 0
      vertex -3.77117 -7.05537 -66
      vertex -3.06147 -7.39104 -66
    endloop
  endfacet
  facet normal 0.740946 -0.671564 0
    outer loop
      vertex 5.65685 -5.65685 0
      vertex 6.18408 -5.07515 -66
      vertex 6.18408 -5.07515 0
    endloop
  endfacet
  facet normal 0.740946 -0.671564 0
    outer loop
      vertex 6.18408 -5.07515 -66
      vertex 5.65685 -5.65685 0
      vertex 5.65685 -5.65685 -66
    endloop
  endfacet
  facet normal 0.989176 0.146736 0
    outer loop
      vertex 7.96148 0.784137 0
      vertex 7.84628 1.56072 -66
      vertex 7.84628 1.56072 0
    endloop
  endfacet
  facet normal 0.989176 0.146736 0
    outer loop
      vertex 7.84628 1.56072 -66
      vertex 7.96148 0.784137 0
      vertex 7.96148 0.784137 -66
    endloop
  endfacet
  facet normal 0.146736 -0.989176 0
    outer loop
      vertex 0.784137 -7.96148 -66
      vertex 1.56072 -7.84628 0
      vertex 0.784137 -7.96148 0
    endloop
  endfacet
  facet normal 0.146736 -0.989176 0
    outer loop
      vertex 1.56072 -7.84628 0
      vertex 0.784137 -7.96148 -66
      vertex 1.56072 -7.84628 -66
    endloop
  endfacet
  facet normal 0.514099 -0.857731 0
    outer loop
      vertex 3.77117 -7.05537 -66
      vertex 4.44456 -6.65176 0
      vertex 3.77117 -7.05537 0
    endloop
  endfacet
  facet normal 0.514099 -0.857731 0
    outer loop
      vertex 4.44456 -6.65176 0
      vertex 3.77117 -7.05537 -66
      vertex 4.44456 -6.65176 -66
    endloop
  endfacet
  facet normal 0.998796 -0.0490649 0
    outer loop
      vertex 7.96148 -0.784137 0
      vertex 8 0 -66
      vertex 8 0 0
    endloop
  endfacet
  facet normal 0.998796 -0.0490649 0
    outer loop
      vertex 8 0 -66
      vertex 7.96148 -0.784137 0
      vertex 7.96148 -0.784137 -66
    endloop
  endfacet
  facet normal 0.671564 0.740946 -0
    outer loop
      vertex 5.65685 5.65685 -66
      vertex 5.07515 6.18408 0
      vertex 5.65685 5.65685 0
    endloop
  endfacet
  facet normal 0.671564 0.740946 0
    outer loop
      vertex 5.07515 6.18408 0
      vertex 5.65685 5.65685 -66
      vertex 5.07515 6.18408 -66
    endloop
  endfacet
  facet normal -0.146736 0.989176 0
    outer loop
      vertex -0.784137 7.96148 -66
      vertex -1.56072 7.84628 0
      vertex -0.784137 7.96148 0
    endloop
  endfacet
  facet normal -0.146736 0.989176 0
    outer loop
      vertex -1.56072 7.84628 0
      vertex -0.784137 7.96148 -66
      vertex -1.56072 7.84628 -66
    endloop
  endfacet
  facet normal 0.514099 0.857731 -0
    outer loop
      vertex 4.44456 6.65176 -66
      vertex 3.77117 7.05537 0
      vertex 4.44456 6.65176 0
    endloop
  endfacet
  facet normal 0.514099 0.857731 0
    outer loop
      vertex 3.77117 7.05537 0
      vertex 4.44456 6.65176 -66
      vertex 3.77117 7.05537 -66
    endloop
  endfacet
  facet normal 0.427562 0.903986 -0
    outer loop
      vertex 3.77117 7.05537 -66
      vertex 3.06147 7.39104 0
      vertex 3.77117 7.05537 0
    endloop
  endfacet
  facet normal 0.427562 0.903986 0
    outer loop
      vertex 3.06147 7.39104 0
      vertex 3.77117 7.05537 -66
      vertex 3.06147 7.39104 -66
    endloop
  endfacet
  facet normal 0.998796 0.0490649 0
    outer loop
      vertex 8 0 0
      vertex 7.96148 0.784137 -66
      vertex 7.96148 0.784137 0
    endloop
  endfacet
  facet normal 0.998796 0.0490649 0
    outer loop
      vertex 7.96148 0.784137 -66
      vertex 8 0 0
      vertex 8 0 -66
    endloop
  endfacet
  facet normal 0.857731 -0.514099 0
    outer loop
      vertex 6.65176 -4.44456 0
      vertex 7.05537 -3.77117 -66
      vertex 7.05537 -3.77117 0
    endloop
  endfacet
  facet normal 0.857731 -0.514099 0
    outer loop
      vertex 7.05537 -3.77117 -66
      vertex 6.65176 -4.44456 0
      vertex 6.65176 -4.44456 -66
    endloop
  endfacet
  facet normal 0.970032 -0.242979 0
    outer loop
      vertex 7.65552 -2.32228 0
      vertex 7.84628 -1.56072 -66
      vertex 7.84628 -1.56072 0
    endloop
  endfacet
  facet normal 0.970032 -0.242979 0
    outer loop
      vertex 7.84628 -1.56072 -66
      vertex 7.65552 -2.32228 0
      vertex 7.65552 -2.32228 -66
    endloop
  endfacet
  facet normal 0.803206 -0.595701 0
    outer loop
      vertex 6.18408 -5.07515 0
      vertex 6.65176 -4.44456 -66
      vertex 6.65176 -4.44456 0
    endloop
  endfacet
  facet normal 0.803206 -0.595701 0
    outer loop
      vertex 6.65176 -4.44456 -66
      vertex 6.18408 -5.07515 0
      vertex 6.18408 -5.07515 -66
    endloop
  endfacet
  facet normal -0.998796 -0.0490649 0
    outer loop
      vertex -7.96148 -0.784137 -66
      vertex -8 0 0
      vertex -8 0 -66
    endloop
  endfacet
  facet normal -0.998796 -0.0490649 0
    outer loop
      vertex -8 0 0
      vertex -7.96148 -0.784137 -66
      vertex -7.96148 -0.784137 0
    endloop
  endfacet
  facet normal 0.989176 -0.146736 0
    outer loop
      vertex 7.84628 -1.56072 0
      vertex 7.96148 -0.784137 -66
      vertex 7.96148 -0.784137 0
    endloop
  endfacet
  facet normal 0.989176 -0.146736 0
    outer loop
      vertex 7.96148 -0.784137 -66
      vertex 7.84628 -1.56072 0
      vertex 7.84628 -1.56072 -66
    endloop
  endfacet
  facet normal -0.0490649 0.998796 0
    outer loop
      vertex 0 8 -66
      vertex -0.784137 7.96148 0
      vertex 0 8 0
    endloop
  endfacet
  facet normal -0.0490649 0.998796 0
    outer loop
      vertex -0.784137 7.96148 0
      vertex 0 8 -66
      vertex -0.784137 7.96148 -66
    endloop
  endfacet
  facet normal 0.595701 0.803206 -0
    outer loop
      vertex 5.07515 6.18408 -66
      vertex 4.44456 6.65176 0
      vertex 5.07515 6.18408 0
    endloop
  endfacet
  facet normal 0.595701 0.803206 0
    outer loop
      vertex 4.44456 6.65176 0
      vertex 5.07515 6.18408 -66
      vertex 4.44456 6.65176 -66
    endloop
  endfacet
  facet normal -0.0490649 -0.998796 0
    outer loop
      vertex -0.784137 -7.96148 -66
      vertex 0 -8 0
      vertex -0.784137 -7.96148 0
    endloop
  endfacet
  facet normal -0.0490649 -0.998796 -0
    outer loop
      vertex 0 -8 0
      vertex -0.784137 -7.96148 -66
      vertex 0 -8 -66
    endloop
  endfacet
  facet normal -0.242979 0.970032 0
    outer loop
      vertex -1.56072 7.84628 -66
      vertex -2.32228 7.65552 0
      vertex -1.56072 7.84628 0
    endloop
  endfacet
  facet normal -0.242979 0.970032 0
    outer loop
      vertex -2.32228 7.65552 0
      vertex -1.56072 7.84628 -66
      vertex -2.32228 7.65552 -66
    endloop
  endfacet
  facet normal -0.740946 -0.671564 0
    outer loop
      vertex -5.65685 -5.65685 -66
      vertex -6.18408 -5.07515 0
      vertex -6.18408 -5.07515 -66
    endloop
  endfacet
  facet normal -0.740946 -0.671564 0
    outer loop
      vertex -6.18408 -5.07515 0
      vertex -5.65685 -5.65685 -66
      vertex -5.65685 -5.65685 0
    endloop
  endfacet
  facet normal -0.970032 -0.242979 0
    outer loop
      vertex -7.65552 -2.32228 -66
      vertex -7.84628 -1.56072 0
      vertex -7.84628 -1.56072 -66
    endloop
  endfacet
  facet normal -0.970032 -0.242979 0
    outer loop
      vertex -7.84628 -1.56072 0
      vertex -7.65552 -2.32228 -66
      vertex -7.65552 -2.32228 0
    endloop
  endfacet
  facet normal 0.0490649 0.998796 -0
    outer loop
      vertex 0.784137 7.96148 -66
      vertex 0 8 0
      vertex 0.784137 7.96148 0
    endloop
  endfacet
  facet normal 0.0490649 0.998796 0
    outer loop
      vertex 0 8 0
      vertex 0.784137 7.96148 -66
      vertex 0 8 -66
    endloop
  endfacet
  facet normal -0.671564 0.740946 0
    outer loop
      vertex -5.07515 6.18408 -66
      vertex -5.65685 5.65685 0
      vertex -5.07515 6.18408 0
    endloop
  endfacet
  facet normal -0.671564 0.740946 0
    outer loop
      vertex -5.65685 5.65685 0
      vertex -5.07515 6.18408 -66
      vertex -5.65685 5.65685 -66
    endloop
  endfacet
  facet normal -0.903986 -0.427562 0
    outer loop
      vertex -7.05537 -3.77117 -66
      vertex -7.39104 -3.06147 0
      vertex -7.39104 -3.06147 -66
    endloop
  endfacet
  facet normal -0.903986 -0.427562 0
    outer loop
      vertex -7.39104 -3.06147 0
      vertex -7.05537 -3.77117 -66
      vertex -7.05537 -3.77117 0
    endloop
  endfacet
  facet normal -0.514099 0.857731 0
    outer loop
      vertex -3.77117 7.05537 -66
      vertex -4.44456 6.65176 0
      vertex -3.77117 7.05537 0
    endloop
  endfacet
  facet normal -0.514099 0.857731 0
    outer loop
      vertex -4.44456 6.65176 0
      vertex -3.77117 7.05537 -66
      vertex -4.44456 6.65176 -66
    endloop
  endfacet
  facet normal 0.941547 0.336883 0
    outer loop
      vertex 7.65552 2.32228 0
      vertex 7.39104 3.06147 -66
      vertex 7.39104 3.06147 0
    endloop
  endfacet
  facet normal 0.941547 0.336883 0
    outer loop
      vertex 7.39104 3.06147 -66
      vertex 7.65552 2.32228 0
      vertex 7.65552 2.32228 -66
    endloop
  endfacet
  facet normal 0.242979 -0.970032 0
    outer loop
      vertex 1.56072 -7.84628 -66
      vertex 2.32228 -7.65552 0
      vertex 1.56072 -7.84628 0
    endloop
  endfacet
  facet normal 0.242979 -0.970032 0
    outer loop
      vertex 2.32228 -7.65552 0
      vertex 1.56072 -7.84628 -66
      vertex 2.32228 -7.65552 -66
    endloop
  endfacet
  facet normal 0.970032 0.242979 0
    outer loop
      vertex 7.84628 1.56072 0
      vertex 7.65552 2.32228 -66
      vertex 7.65552 2.32228 0
    endloop
  endfacet
  facet normal 0.970032 0.242979 0
    outer loop
      vertex 7.65552 2.32228 -66
      vertex 7.84628 1.56072 0
      vertex 7.84628 1.56072 -66
    endloop
  endfacet
  facet normal -0.803206 -0.595701 0
    outer loop
      vertex -6.18408 -5.07515 -66
      vertex -6.65176 -4.44456 0
      vertex -6.65176 -4.44456 -66
    endloop
  endfacet
  facet normal -0.803206 -0.595701 0
    outer loop
      vertex -6.65176 -4.44456 0
      vertex -6.18408 -5.07515 -66
      vertex -6.18408 -5.07515 0
    endloop
  endfacet
  facet normal -0.146736 -0.989176 0
    outer loop
      vertex -1.56072 -7.84628 -66
      vertex -0.784137 -7.96148 0
      vertex -1.56072 -7.84628 0
    endloop
  endfacet
  facet normal -0.146736 -0.989176 -0
    outer loop
      vertex -0.784137 -7.96148 0
      vertex -1.56072 -7.84628 -66
      vertex -0.784137 -7.96148 -66
    endloop
  endfacet
  facet normal 0.0490649 -0.998796 0
    outer loop
      vertex 0 -8 -66
      vertex 0.784137 -7.96148 0
      vertex 0 -8 0
    endloop
  endfacet
  facet normal 0.0490649 -0.998796 0
    outer loop
      vertex 0.784137 -7.96148 0
      vertex 0 -8 -66
      vertex 0.784137 -7.96148 -66
    endloop
  endfacet
  facet normal -0.514099 -0.857731 0
    outer loop
      vertex -4.44456 -6.65176 -66
      vertex -3.77117 -7.05537 0
      vertex -4.44456 -6.65176 0
    endloop
  endfacet
  facet normal -0.514099 -0.857731 -0
    outer loop
      vertex -3.77117 -7.05537 0
      vertex -4.44456 -6.65176 -66
      vertex -3.77117 -7.05537 -66
    endloop
  endfacet
  facet normal 0.857731 0.514099 0
    outer loop
      vertex 7.05537 3.77117 0
      vertex 6.65176 4.44456 -66
      vertex 6.65176 4.44456 0
    endloop
  endfacet
  facet normal 0.857731 0.514099 0
    outer loop
      vertex 6.65176 4.44456 -66
      vertex 7.05537 3.77117 0
      vertex 7.05537 3.77117 -66
    endloop
  endfacet
  facet normal -0.970032 0.242979 0
    outer loop
      vertex -7.84628 1.56072 -66
      vertex -7.65552 2.32228 0
      vertex -7.65552 2.32228 -66
    endloop
  endfacet
  facet normal -0.970032 0.242979 0
    outer loop
      vertex -7.65552 2.32228 0
      vertex -7.84628 1.56072 -66
      vertex -7.84628 1.56072 0
    endloop
  endfacet
  facet normal 0.941547 -0.336883 0
    outer loop
      vertex 7.39104 -3.06147 0
      vertex 7.65552 -2.32228 -66
      vertex 7.65552 -2.32228 0
    endloop
  endfacet
  facet normal 0.941547 -0.336883 0
    outer loop
      vertex 7.65552 -2.32228 -66
      vertex 7.39104 -3.06147 0
      vertex 7.39104 -3.06147 -66
    endloop
  endfacet
  facet normal 0.903986 -0.427562 0
    outer loop
      vertex 7.05537 -3.77117 0
      vertex 7.39104 -3.06147 -66
      vertex 7.39104 -3.06147 0
    endloop
  endfacet
  facet normal 0.903986 -0.427562 0
    outer loop
      vertex 7.39104 -3.06147 -66
      vertex 7.05537 -3.77117 0
      vertex 7.05537 -3.77117 -66
    endloop
  endfacet
  facet normal -0.671564 -0.740946 0
    outer loop
      vertex -5.65685 -5.65685 -66
      vertex -5.07515 -6.18408 0
      vertex -5.65685 -5.65685 0
    endloop
  endfacet
  facet normal -0.671564 -0.740946 -0
    outer loop
      vertex -5.07515 -6.18408 0
      vertex -5.65685 -5.65685 -66
      vertex -5.07515 -6.18408 -66
    endloop
  endfacet
  facet normal 0.903986 0.427562 0
    outer loop
      vertex 7.39104 3.06147 0
      vertex 7.05537 3.77117 -66
      vertex 7.05537 3.77117 0
    endloop
  endfacet
  facet normal 0.903986 0.427562 0
    outer loop
      vertex 7.05537 3.77117 -66
      vertex 7.39104 3.06147 0
      vertex 7.39104 3.06147 -66
    endloop
  endfacet
  facet normal -0.740946 0.671564 0
    outer loop
      vertex -6.18408 5.07515 -66
      vertex -5.65685 5.65685 0
      vertex -5.65685 5.65685 -66
    endloop
  endfacet
  facet normal -0.740946 0.671564 0
    outer loop
      vertex -5.65685 5.65685 0
      vertex -6.18408 5.07515 -66
      vertex -6.18408 5.07515 0
    endloop
  endfacet
  facet normal -0.998796 0.0490649 0
    outer loop
      vertex -8 0 -66
      vertex -7.96148 0.784137 0
      vertex -7.96148 0.784137 -66
    endloop
  endfacet
  facet normal -0.998796 0.0490649 0
    outer loop
      vertex -7.96148 0.784137 0
      vertex -8 0 -66
      vertex -8 0 0
    endloop
  endfacet
  facet normal -0.989176 0.146736 0
    outer loop
      vertex -7.96148 0.784137 -66
      vertex -7.84628 1.56072 0
      vertex -7.84628 1.56072 -66
    endloop
  endfacet
  facet normal -0.989176 0.146736 0
    outer loop
      vertex -7.84628 1.56072 0
      vertex -7.96148 0.784137 -66
      vertex -7.96148 0.784137 0
    endloop
  endfacet
  facet normal -0.336883 -0.941547 0
    outer loop
      vertex -3.06147 -7.39104 -66
      vertex -2.32228 -7.65552 0
      vertex -3.06147 -7.39104 0
    endloop
  endfacet
  facet normal -0.336883 -0.941547 -0
    outer loop
      vertex -2.32228 -7.65552 0
      vertex -3.06147 -7.39104 -66
      vertex -2.32228 -7.65552 -66
    endloop
  endfacet
  facet normal -0.941547 0.336883 0
    outer loop
      vertex -7.65552 2.32228 -66
      vertex -7.39104 3.06147 0
      vertex -7.39104 3.06147 -66
    endloop
  endfacet
  facet normal -0.941547 0.336883 0
    outer loop
      vertex -7.39104 3.06147 0
      vertex -7.65552 2.32228 -66
      vertex -7.65552 2.32228 0
    endloop
  endfacet
  facet normal -0.595701 0.803206 0
    outer loop
      vertex -4.44456 6.65176 -66
      vertex -5.07515 6.18408 0
      vertex -4.44456 6.65176 0
    endloop
  endfacet
  facet normal -0.595701 0.803206 0
    outer loop
      vertex -5.07515 6.18408 0
      vertex -4.44456 6.65176 -66
      vertex -5.07515 6.18408 -66
    endloop
  endfacet
  facet normal -0.941547 -0.336883 0
    outer loop
      vertex -7.39104 -3.06147 -66
      vertex -7.65552 -2.32228 0
      vertex -7.65552 -2.32228 -66
    endloop
  endfacet
  facet normal -0.941547 -0.336883 0
    outer loop
      vertex -7.65552 -2.32228 0
      vertex -7.39104 -3.06147 -66
      vertex -7.39104 -3.06147 0
    endloop
  endfacet
  facet normal -0.857731 -0.514099 0
    outer loop
      vertex -6.65176 -4.44456 -66
      vertex -7.05537 -3.77117 0
      vertex -7.05537 -3.77117 -66
    endloop
  endfacet
  facet normal -0.857731 -0.514099 0
    outer loop
      vertex -7.05537 -3.77117 0
      vertex -6.65176 -4.44456 -66
      vertex -6.65176 -4.44456 0
    endloop
  endfacet
  facet normal 0.242979 0.970032 -0
    outer loop
      vertex 2.32228 7.65552 -66
      vertex 1.56072 7.84628 0
      vertex 2.32228 7.65552 0
    endloop
  endfacet
  facet normal 0.242979 0.970032 0
    outer loop
      vertex 1.56072 7.84628 0
      vertex 2.32228 7.65552 -66
      vertex 1.56072 7.84628 -66
    endloop
  endfacet
  facet normal -0.803206 0.595701 0
    outer loop
      vertex -6.65176 4.44456 -66
      vertex -6.18408 5.07515 0
      vertex -6.18408 5.07515 -66
    endloop
  endfacet
  facet normal -0.803206 0.595701 0
    outer loop
      vertex -6.18408 5.07515 0
      vertex -6.65176 4.44456 -66
      vertex -6.65176 4.44456 0
    endloop
  endfacet
  facet normal 0.146736 0.989176 -0
    outer loop
      vertex 1.56072 7.84628 -66
      vertex 0.784137 7.96148 0
      vertex 1.56072 7.84628 0
    endloop
  endfacet
  facet normal 0.146736 0.989176 0
    outer loop
      vertex 0.784137 7.96148 0
      vertex 1.56072 7.84628 -66
      vertex 0.784137 7.96148 -66
    endloop
  endfacet
  facet normal -0.242979 -0.970032 0
    outer loop
      vertex -2.32228 -7.65552 -66
      vertex -1.56072 -7.84628 0
      vertex -2.32228 -7.65552 0
    endloop
  endfacet
  facet normal -0.242979 -0.970032 -0
    outer loop
      vertex -1.56072 -7.84628 0
      vertex -2.32228 -7.65552 -66
      vertex -1.56072 -7.84628 -66
    endloop
  endfacet
  facet normal -0.336883 0.941547 0
    outer loop
      vertex -2.32228 7.65552 -66
      vertex -3.06147 7.39104 0
      vertex -2.32228 7.65552 0
    endloop
  endfacet
  facet normal -0.336883 0.941547 0
    outer loop
      vertex -3.06147 7.39104 0
      vertex -2.32228 7.65552 -66
      vertex -3.06147 7.39104 -66
    endloop
  endfacet
  facet normal 0.671564 -0.740946 0
    outer loop
      vertex 5.07515 -6.18408 -66
      vertex 5.65685 -5.65685 0
      vertex 5.07515 -6.18408 0
    endloop
  endfacet
  facet normal 0.671564 -0.740946 0
    outer loop
      vertex 5.65685 -5.65685 0
      vertex 5.07515 -6.18408 -66
      vertex 5.65685 -5.65685 -66
    endloop
  endfacet
  facet normal -0.903986 0.427562 0
    outer loop
      vertex -7.39104 3.06147 -66
      vertex -7.05537 3.77117 0
      vertex -7.05537 3.77117 -66
    endloop
  endfacet
  facet normal -0.903986 0.427562 0
    outer loop
      vertex -7.05537 3.77117 0
      vertex -7.39104 3.06147 -66
      vertex -7.39104 3.06147 0
    endloop
  endfacet
  facet normal 0.803206 0.595701 0
    outer loop
      vertex 6.65176 4.44456 0
      vertex 6.18408 5.07515 -66
      vertex 6.18408 5.07515 0
    endloop
  endfacet
  facet normal 0.803206 0.595701 0
    outer loop
      vertex 6.18408 5.07515 -66
      vertex 6.65176 4.44456 0
      vertex 6.65176 4.44456 -66
    endloop
  endfacet
  facet normal 0.740946 0.671564 0
    outer loop
      vertex 6.18408 5.07515 0
      vertex 5.65685 5.65685 -66
      vertex 5.65685 5.65685 0
    endloop
  endfacet
  facet normal 0.740946 0.671564 0
    outer loop
      vertex 5.65685 5.65685 -66
      vertex 6.18408 5.07515 0
      vertex 6.18408 5.07515 -66
    endloop
  endfacet
  facet normal -0.989176 -0.146736 0
    outer loop
      vertex -7.84628 -1.56072 -66
      vertex -7.96148 -0.784137 0
      vertex -7.96148 -0.784137 -66
    endloop
  endfacet
  facet normal -0.989176 -0.146736 0
    outer loop
      vertex -7.96148 -0.784137 0
      vertex -7.84628 -1.56072 -66
      vertex -7.84628 -1.56072 0
    endloop
  endfacet
  facet normal 0.336883 0.941547 -0
    outer loop
      vertex 3.06147 7.39104 -66
      vertex 2.32228 7.65552 0
      vertex 3.06147 7.39104 0
    endloop
  endfacet
  facet normal 0.336883 0.941547 0
    outer loop
      vertex 2.32228 7.65552 0
      vertex 3.06147 7.39104 -66
      vertex 2.32228 7.65552 -66
    endloop
  endfacet
  facet normal 0.336883 -0.941547 0
    outer loop
      vertex 2.32228 -7.65552 -66
      vertex 3.06147 -7.39104 0
      vertex 2.32228 -7.65552 0
    endloop
  endfacet
  facet normal 0.336883 -0.941547 0
    outer loop
      vertex 3.06147 -7.39104 0
      vertex 2.32228 -7.65552 -66
      vertex 3.06147 -7.39104 -66
    endloop
  endfacet
  facet normal 0.595701 -0.803206 0
    outer loop
      vertex 4.44456 -6.65176 -66
      vertex 5.07515 -6.18408 0
      vertex 4.44456 -6.65176 0
    endloop
  endfacet
  facet normal 0.595701 -0.803206 0
    outer loop
      vertex 5.07515 -6.18408 0
      vertex 4.44456 -6.65176 -66
      vertex 5.07515 -6.18408 -66
    endloop
  endfacet
  facet normal 0.427562 -0.903986 0
    outer loop
      vertex 3.06147 -7.39104 -66
      vertex 3.77117 -7.05537 0
      vertex 3.06147 -7.39104 0
    endloop
  endfacet
  facet normal 0.427562 -0.903986 0
    outer loop
      vertex 3.77117 -7.05537 0
      vertex 3.06147 -7.39104 -66
      vertex 3.77117 -7.05537 -66
    endloop
  endfacet
  facet normal 0 0 -1
    outer loop
      vertex 7.96148 -0.784137 -66
      vertex 7.96148 0.784137 -66
      vertex 8 0 -66
    endloop
  endfacet
  facet normal 0 0 -1
    outer loop
      vertex 7.84628 -1.56072 -66
      vertex 7.96148 0.784137 -66
      vertex 7.96148 -0.784137 -66
    endloop
  endfacet
  facet normal 0 0 -1
    outer loop
      vertex 7.84628 -1.56072 -66
      vertex 7.84628 1.56072 -66
      vertex 7.96148 0.784137 -66
    endloop
  endfacet
  facet normal 0 0 -1
    outer loop
      vertex 7.65552 -2.32228 -66
      vertex 7.84628 1.56072 -66
      vertex 7.84628 -1.56072 -66
    endloop
  endfacet
  facet normal 0 0 -1
    outer loop
      vertex 7.65552 -2.32228 -66
      vertex 7.65552 2.32228 -66
      vertex 7.84628 1.56072 -66
    endloop
  endfacet
  facet normal 0 0 -1
    outer loop
      vertex 7.39104 -3.06147 -66
      vertex 7.65552 2.32228 -66
      vertex 7.65552 -2.32228 -66
    endloop
  endfacet
  facet normal 0 0 -1
    outer loop
      vertex 7.39104 -3.06147 -66
      vertex 7.39104 3.06147 -66
      vertex 7.65552 2.32228 -66
    endloop
  endfacet
  facet normal 0 0 -1
    outer loop
      vertex 7.05537 -3.77117 -66
      vertex 7.39104 3.06147 -66
      vertex 7.39104 -3.06147 -66
    endloop
  endfacet
  facet normal 0 0 -1
    outer loop
      vertex 7.05537 -3.77117 -66
      vertex 7.05537 3.77117 -66
      vertex 7.39104 3.06147 -66
    endloop
  endfacet
  facet normal 0 0 -1
    outer loop
      vertex 6.65176 -4.44456 -66
      vertex 7.05537 3.77117 -66
      vertex 7.05537 -3.77117 -66
    endloop
  endfacet
  facet normal 0 0 -1
    outer loop
      vertex 6.65176 -4.44456 -66
      vertex 6.65176 4.44456 -66
      vertex 7.05537 3.77117 -66
    endloop
  endfacet
  facet normal 0 0 -1
    outer loop
      vertex 6.18408 -5.07515 -66
      vertex 6.65176 4.44456 -66
      vertex 6.65176 -4.44456 -66
    endloop
  endfacet
  facet normal 0 0 -1
    outer loop
      vertex 6.18408 -5.07515 -66
      vertex 6.18408 5.07515 -66
      vertex 6.65176 4.44456 -66
    endloop
  endfacet
  facet normal 0 0 -1
    outer loop
      vertex 5.65685 -5.65685 -66
      vertex 6.18408 5.07515 -66
      vertex 6.18408 -5.07515 -66
    endloop
  endfacet
  facet normal 0 0 -1
    outer loop
      vertex 5.65685 -5.65685 -66
      vertex 5.65685 5.65685 -66
      vertex 6.18408 5.07515 -66
    endloop
  endfacet
  facet normal 0 0 -1
    outer loop
      vertex 5.07515 -6.18408 -66
      vertex 5.65685 5.65685 -66
      vertex 5.65685 -5.65685 -66
    endloop
  endfacet
  facet normal 0 0 -1
    outer loop
      vertex 5.07515 -6.18408 -66
      vertex 5.07515 6.18408 -66
      vertex 5.65685 5.65685 -66
    endloop
  endfacet
  facet normal 0 0 -1
    outer loop
      vertex 4.44456 -6.65176 -66
      vertex 5.07515 6.18408 -66
      vertex 5.07515 -6.18408 -66
    endloop
  endfacet
  facet normal 0 0 -1
    outer loop
      vertex 4.44456 -6.65176 -66
      vertex 4.44456 6.65176 -66
      vertex 5.07515 6.18408 -66
    endloop
  endfacet
  facet normal 0 0 -1
    outer loop
      vertex 3.77117 -7.05537 -66
      vertex 4.44456 6.65176 -66
      vertex 4.44456 -6.65176 -66
    endloop
  endfacet
  facet normal 0 0 -1
    outer loop
      vertex 3.77117 -7.05537 -66
      vertex 3.77117 7.05537 -66
      vertex 4.44456 6.65176 -66
    endloop
  endfacet
  facet normal 0 0 -1
    outer loop
      vertex 3.06147 -7.39104 -66
      vertex 3.77117 7.05537 -66
      vertex 3.77117 -7.05537 -66
    endloop
  endfacet
  facet normal 0 0 -1
    outer loop
      vertex 3.06147 -7.39104 -66
      vertex 3.06147 7.39104 -66
      vertex 3.77117 7.05537 -66
    endloop
  endfacet
  facet normal 0 0 -1
    outer loop
      vertex 2.32228 -7.65552 -66
      vertex 3.06147 7.39104 -66
      vertex 3.06147 -7.39104 -66
    endloop
  endfacet
  facet normal 0 0 -1
    outer loop
      vertex 2.32228 -7.65552 -66
      vertex 2.32228 7.65552 -66
      vertex 3.06147 7.39104 -66
    endloop
  endfacet
  facet normal 0 0 -1
    outer loop
      vertex 1.56072 -7.84628 -66
      vertex 2.32228 7.65552 -66
      vertex 2.32228 -7.65552 -66
    endloop
  endfacet
  facet normal 0 0 -1
    outer loop
      vertex 1.56072 -7.84628 -66
      vertex 1.56072 7.84628 -66
      vertex 2.32228 7.65552 -66
    endloop
  endfacet
  facet normal 0 0 -1
    outer loop
      vertex 0.784137 -7.96148 -66
      vertex 1.56072 7.84628 -66
      vertex 1.56072 -7.84628 -66
    endloop
  endfacet
  facet normal 0 0 -1
    outer loop
      vertex 0.784137 -7.96148 -66
      vertex 0.784137 7.96148 -66
      vertex 1.56072 7.84628 -66
    endloop
  endfacet
  facet normal 0 0 -1
    outer loop
      vertex 0 -8 -66
      vertex 0.784137 7.96148 -66
      vertex 0.784137 -7.96148 -66
    endloop
  endfacet
  facet normal 0 0 -1
    outer loop
      vertex 0 -8 -66
      vertex 0 8 -66
      vertex 0.784137 7.96148 -66
    endloop
  endfacet
  facet normal 0 0 -1
    outer loop
      vertex -0.784137 -7.96148 -66
      vertex 0 8 -66
      vertex 0 -8 -66
    endloop
  endfacet
  facet normal 0 0 -1
    outer loop
      vertex -0.784137 -7.96148 -66
      vertex -0.784137 7.96148 -66
      vertex 0 8 -66
    endloop
  endfacet
  facet normal 0 0 -1
    outer loop
      vertex -1.56072 -7.84628 -66
      vertex -0.784137 7.96148 -66
      vertex -0.784137 -7.96148 -66
    endloop
  endfacet
  facet normal 0 0 -1
    outer loop
      vertex -1.56072 -7.84628 -66
      vertex -1.56072 7.84628 -66
      vertex -0.784137 7.96148 -66
    endloop
  endfacet
  facet normal 0 0 -1
    outer loop
      vertex -2.32228 -7.65552 -66
      vertex -1.56072 7.84628 -66
      vertex -1.56072 -7.84628 -66
    endloop
  endfacet
  facet normal 0 0 -1
    outer loop
      vertex -2.32228 -7.65552 -66
      vertex -2.32228 7.65552 -66
      vertex -1.56072 7.84628 -66
    endloop
  endfacet
  facet normal 0 0 -1
    outer loop
      vertex -3.06147 -7.39104 -66
      vertex -2.32228 7.65552 -66
      vertex -2.32228 -7.65552 -66
    endloop
  endfacet
  facet normal 0 0 -1
    outer loop
      vertex -3.06147 -7.39104 -66
      vertex -3.06147 7.39104 -66
      vertex -2.32228 7.65552 -66
    endloop
  endfacet
  facet normal 0 0 -1
    outer loop
      vertex -3.77117 -7.05537 -66
      vertex -3.06147 7.39104 -66
      vertex -3.06147 -7.39104 -66
    endloop
  endfacet
  facet normal 0 0 -1
    outer loop
      vertex -3.77117 -7.05537 -66
      vertex -3.77117 7.05537 -66
      vertex -3.06147 7.39104 -66
    endloop
  endfacet
  facet normal 0 0 -1
    outer loop
      vertex -4.44456 -6.65176 -66
      vertex -3.77117 7.05537 -66
      vertex -3.77117 -7.05537 -66
    endloop
  endfacet
  facet normal 0 0 -1
    outer loop
      vertex -4.44456 -6.65176 -66
      vertex -4.44456 6.65176 -66
      vertex -3.77117 7.05537 -66
    endloop
  endfacet
  facet normal 0 0 -1
    outer loop
      vertex -5.07515 -6.18408 -66
      vertex -4.44456 6.65176 -66
      vertex -4.44456 -6.65176 -66
    endloop
  endfacet
  facet normal 0 0 -1
    outer loop
      vertex -5.07515 -6.18408 -66
      vertex -5.07515 6.18408 -66
      vertex -4.44456 6.65176 -66
    endloop
  endfacet
  facet normal 0 0 -1
    outer loop
      vertex -5.65685 -5.65685 -66
      vertex -5.07515 6.18408 -66
      vertex -5.07515 -6.18408 -66
    endloop
  endfacet
  facet normal 0 0 -1
    outer loop
      vertex -5.65685 -5.65685 -66
      vertex -5.65685 5.65685 -66
      vertex -5.07515 6.18408 -66
    endloop
  endfacet
  facet normal 0 0 -1
    outer loop
      vertex -6.18408 -5.07515 -66
      vertex -5.65685 5.65685 -66
      vertex -5.65685 -5.65685 -66
    endloop
  endfacet
  facet normal 0 0 -1
    outer loop
      vertex -6.18408 -5.07515 -66
      vertex -6.18408 5.07515 -66
      vertex -5.65685 5.65685 -66
    endloop
  endfacet
  facet normal 0 0 -1
    outer loop
      vertex -6.65176 -4.44456 -66
      vertex -6.18408 5.07515 -66
      vertex -6.18408 -5.07515 -66
    endloop
  endfacet
  facet normal 0 0 -1
    outer loop
      vertex -6.65176 -4.44456 -66
      vertex -6.65176 4.44456 -66
      vertex -6.18408 5.07515 -66
    endloop
  endfacet
  facet normal 0 0 -1
    outer loop
      vertex -7.05537 -3.77117 -66
      vertex -6.65176 4.44456 -66
      vertex -6.65176 -4.44456 -66
    endloop
  endfacet
  facet normal 0 0 -1
    outer loop
      vertex -7.05537 -3.77117 -66
      vertex -7.05537 3.77117 -66
      vertex -6.65176 4.44456 -66
    endloop
  endfacet
  facet normal 0 0 -1
    outer loop
      vertex -7.39104 -3.06147 -66
      vertex -7.05537 3.77117 -66
      vertex -7.05537 -3.77117 -66
    endloop
  endfacet
  facet normal 0 0 -1
    outer loop
      vertex -7.39104 -3.06147 -66
      vertex -7.39104 3.06147 -66
      vertex -7.05537 3.77117 -66
    endloop
  endfacet
  facet normal 0 0 -1
    outer loop
      vertex -7.65552 -2.32228 -66
      vertex -7.39104 3.06147 -66
      vertex -7.39104 -3.06147 -66
    endloop
  endfacet
  facet normal 0 0 -1
    outer loop
      vertex -7.65552 -2.32228 -66
      vertex -7.65552 2.32228 -66
      vertex -7.39104 3.06147 -66
    endloop
  endfacet
  facet normal 0 0 -1
    outer loop
      vertex -7.84628 -1.56072 -66
      vertex -7.65552 2.32228 -66
      vertex -7.65552 -2.32228 -66
    endloop
  endfacet
  facet normal 0 0 -1
    outer loop
      vertex -7.84628 -1.56072 -66
      vertex -7.84628 1.56072 -66
      vertex -7.65552 2.32228 -66
    endloop
  endfacet
  facet normal 0 0 -1
    outer loop
      vertex -7.96148 -0.784137 -66
      vertex -7.84628 1.56072 -66
      vertex -7.84628 -1.56072 -66
    endloop
  endfacet
  facet normal 0 0 -1
    outer loop
      vertex -7.96148 -0.784137 -66
      vertex -7.96148 0.784137 -66
      vertex -7.84628 1.56072 -66
    endloop
  endfacet
  facet normal 0 -0 -1
    outer loop
      vertex -7.96148 0.784137 -66
      vertex -7.96148 -0.784137 -66
      vertex -8 0 -66
    endloop
  endfacet
  facet normal -0.427562 0.903986 0
    outer loop
      vertex -3.06147 7.39104 -66
      vertex -3.77117 7.05537 0
      vertex -3.06147 7.39104 0
    endloop
  endfacet
  facet normal -0.427562 0.903986 0
    outer loop
      vertex -3.77117 7.05537 0
      vertex -3.06147 7.39104 -66
      vertex -3.77117 7.05537 -66
    endloop
  endfacet
  facet normal 0 0 1
    outer loop
      vertex 7.96148 0.784137 0
      vertex 7.96148 -0.784137 0
      vertex 8 0 0
    endloop
  endfacet
  facet normal 0 0 1
    outer loop
      vertex 7.84628 1.56072 0
      vertex 7.96148 -0.784137 0
      vertex 7.96148 0.784137 0
    endloop
  endfacet
  facet normal 0 0 1
    outer loop
      vertex 7.84628 1.56072 0
      vertex 7.84628 -1.56072 0
      vertex 7.96148 -0.784137 0
    endloop
  endfacet
  facet normal 0 0 1
    outer loop
      vertex 7.65552 2.32228 0
      vertex 7.84628 -1.56072 0
      vertex 7.84628 1.56072 0
    endloop
  endfacet
  facet normal 0 0 1
    outer loop
      vertex 7.65552 2.32228 0
      vertex 7.65552 -2.32228 0
      vertex 7.84628 -1.56072 0
    endloop
  endfacet
  facet normal 0 0 1
    outer loop
      vertex 7.39104 3.06147 0
      vertex 7.65552 -2.32228 0
      vertex 7.65552 2.32228 0
    endloop
  endfacet
  facet normal 0 0 1
    outer loop
      vertex 7.39104 3.06147 0
      vertex 7.39104 -3.06147 0
      vertex 7.65552 -2.32228 0
    endloop
  endfacet
  facet normal 0 0 1
    outer loop
      vertex 7.05537 3.77117 0
      vertex 7.39104 -3.06147 0
      vertex 7.39104 3.06147 0
    endloop
  endfacet
  facet normal 0 0 1
    outer loop
      vertex 7.05537 3.77117 0
      vertex 7.05537 -3.77117 0
      vertex 7.39104 -3.06147 0
    endloop
  endfacet
  facet normal 0 0 1
    outer loop
      vertex 6.65176 4.44456 0
      vertex 7.05537 -3.77117 0
      vertex 7.05537 3.77117 0
    endloop
  endfacet
  facet normal 0 0 1
    outer loop
      vertex 6.65176 4.44456 0
      vertex 6.65176 -4.44456 0
      vertex 7.05537 -3.77117 0
    endloop
  endfacet
  facet normal 0 0 1
    outer loop
      vertex 6.18408 5.07515 0
      vertex 6.65176 -4.44456 0
      vertex 6.65176 4.44456 0
    endloop
  endfacet
  facet normal 0 0 1
    outer loop
      vertex 6.18408 5.07515 0
      vertex 6.18408 -5.07515 0
      vertex 6.65176 -4.44456 0
    endloop
  endfacet
  facet normal 0 0 1
    outer loop
      vertex 5.65685 5.65685 0
      vertex 6.18408 -5.07515 0
      vertex 6.18408 5.07515 0
    endloop
  endfacet
  facet normal 0 0 1
    outer loop
      vertex 5.65685 5.65685 0
      vertex 5.65685 -5.65685 0
      vertex 6.18408 -5.07515 0
    endloop
  endfacet
  facet normal 0 0 1
    outer loop
      vertex 5.07515 6.18408 0
      vertex 5.65685 -5.65685 0
      vertex 5.65685 5.65685 0
    endloop
  endfacet
  facet normal 0 0 1
    outer loop
      vertex 5.07515 6.18408 0
      vertex 5.07515 -6.18408 0
      vertex 5.65685 -5.65685 0
    endloop
  endfacet
  facet normal 0 0 1
    outer loop
      vertex 4.44456 6.65176 0
      vertex 5.07515 -6.18408 0
      vertex 5.07515 6.18408 0
    endloop
  endfacet
  facet normal 0 0 1
    outer loop
      vertex 4.44456 6.65176 0
      vertex 4.44456 -6.65176 0
      vertex 5.07515 -6.18408 0
    endloop
  endfacet
  facet normal 0 0 1
    outer loop
      vertex 3.77117 7.05537 0
      vertex 4.44456 -6.65176 0
      vertex 4.44456 6.65176 0
    endloop
  endfacet
  facet normal 0 0 1
    outer loop
      vertex 3.77117 7.05537 0
      vertex 3.77117 -7.05537 0
      vertex 4.44456 -6.65176 0
    endloop
  endfacet
  facet normal 0 0 1
    outer loop
      vertex 3.06147 7.39104 0
      vertex 3.77117 -7.05537 0
      vertex 3.77117 7.05537 0
    endloop
  endfacet
  facet normal 0 0 1
    outer loop
      vertex 3.06147 7.39104 0
      vertex 3.06147 -7.39104 0
      vertex 3.77117 -7.05537 0
    endloop
  endfacet
  facet normal 0 0 1
    outer loop
      vertex 2.32228 7.65552 0
      vertex 3.06147 -7.39104 0
      vertex 3.06147 7.39104 0
    endloop
  endfacet
  facet normal 0 0 1
    outer loop
      vertex 2.32228 7.65552 0
      vertex 2.32228 -7.65552 0
      vertex 3.06147 -7.39104 0
    endloop
  endfacet
  facet normal 0 0 1
    outer loop
      vertex 1.56072 7.84628 0
      vertex 2.32228 -7.65552 0
      vertex 2.32228 7.65552 0
    endloop
  endfacet
  facet normal 0 0 1
    outer loop
      vertex 1.56072 7.84628 0
      vertex 1.56072 -7.84628 0
      vertex 2.32228 -7.65552 0
    endloop
  endfacet
  facet normal 0 0 1
    outer loop
      vertex 0.784137 7.96148 0
      vertex 1.56072 -7.84628 0
      vertex 1.56072 7.84628 0
    endloop
  endfacet
  facet normal 0 0 1
    outer loop
      vertex 0.784137 7.96148 0
      vertex 0.784137 -7.96148 0
      vertex 1.56072 -7.84628 0
    endloop
  endfacet
  facet normal 0 0 1
    outer loop
      vertex 0 8 0
      vertex 0.784137 -7.96148 0
      vertex 0.784137 7.96148 0
    endloop
  endfacet
  facet normal 0 0 1
    outer loop
      vertex 0 8 0
      vertex 0 -8 0
      vertex 0.784137 -7.96148 0
    endloop
  endfacet
  facet normal -0 0 1
    outer loop
      vertex -0.784137 7.96148 0
      vertex 0 -8 0
      vertex 0 8 0
    endloop
  endfacet
  facet normal 0 0 1
    outer loop
      vertex -0.784137 7.96148 0
      vertex -0.784137 -7.96148 0
      vertex 0 -8 0
    endloop
  endfacet
  facet normal -0 0 1
    outer loop
      vertex -1.56072 7.84628 0
      vertex -0.784137 -7.96148 0
      vertex -0.784137 7.96148 0
    endloop
  endfacet
  facet normal 0 0 1
    outer loop
      vertex -1.56072 7.84628 0
      vertex -1.56072 -7.84628 0
      vertex -0.784137 -7.96148 0
    endloop
  endfacet
  facet normal -0 0 1
    outer loop
      vertex -2.32228 7.65552 0
      vertex -1.56072 -7.84628 0
      vertex -1.56072 7.84628 0
    endloop
  endfacet
  facet normal 0 0 1
    outer loop
      vertex -2.32228 7.65552 0
      vertex -2.32228 -7.65552 0
      vertex -1.56072 -7.84628 0
    endloop
  endfacet
  facet normal -0 0 1
    outer loop
      vertex -3.06147 7.39104 0
      vertex -2.32228 -7.65552 0
      vertex -2.32228 7.65552 0
    endloop
  endfacet
  facet normal 0 0 1
    outer loop
      vertex -3.06147 7.39104 0
      vertex -3.06147 -7.39104 0
      vertex -2.32228 -7.65552 0
    endloop
  endfacet
  facet normal -0 0 1
    outer loop
      vertex -3.77117 7.05537 0
      vertex -3.06147 -7.39104 0
      vertex -3.06147 7.39104 0
    endloop
  endfacet
  facet normal 0 0 1
    outer loop
      vertex -3.77117 7.05537 0
      vertex -3.77117 -7.05537 0
      vertex -3.06147 -7.39104 0
    endloop
  endfacet
  facet normal -0 0 1
    outer loop
      vertex -4.44456 6.65176 0
      vertex -3.77117 -7.05537 0
      vertex -3.77117 7.05537 0
    endloop
  endfacet
  facet normal 0 0 1
    outer loop
      vertex -4.44456 6.65176 0
      vertex -4.44456 -6.65176 0
      vertex -3.77117 -7.05537 0
    endloop
  endfacet
  facet normal -0 0 1
    outer loop
      vertex -5.07515 6.18408 0
      vertex -4.44456 -6.65176 0
      vertex -4.44456 6.65176 0
    endloop
  endfacet
  facet normal 0 0 1
    outer loop
      vertex -5.07515 6.18408 0
      vertex -5.07515 -6.18408 0
      vertex -4.44456 -6.65176 0
    endloop
  endfacet
  facet normal -0 0 1
    outer loop
      vertex -5.65685 5.65685 0
      vertex -5.07515 -6.18408 0
      vertex -5.07515 6.18408 0
    endloop
  endfacet
  facet normal 0 0 1
    outer loop
      vertex -5.65685 5.65685 0
      vertex -5.65685 -5.65685 0
      vertex -5.07515 -6.18408 0
    endloop
  endfacet
  facet normal -0 0 1
    outer loop
      vertex -6.18408 5.07515 0
      vertex -5.65685 -5.65685 0
      vertex -5.65685 5.65685 0
    endloop
  endfacet
  facet normal 0 0 1
    outer loop
      vertex -6.18408 5.07515 0
      vertex -6.18408 -5.07515 0
      vertex -5.65685 -5.65685 0
    endloop
  endfacet
  facet normal -0 0 1
    outer loop
      vertex -6.65176 4.44456 0
      vertex -6.18408 -5.07515 0
      vertex -6.18408 5.07515 0
    endloop
  endfacet
  facet normal 0 0 1
    outer loop
      vertex -6.65176 4.44456 0
      vertex -6.65176 -4.44456 0
      vertex -6.18408 -5.07515 0
    endloop
  endfacet
  facet normal -0 0 1
    outer loop
      vertex -7.05537 3.77117 0
      vertex -6.65176 -4.44456 0
      vertex -6.65176 4.44456 0
    endloop
  endfacet
  facet normal 0 0 1
    outer loop
      vertex -7.05537 3.77117 0
      vertex -7.05537 -3.77117 0
      vertex -6.65176 -4.44456 0
    endloop
  endfacet
  facet normal -0 0 1
    outer loop
      vertex -7.39104 3.06147 0
      vertex -7.05537 -3.77117 0
      vertex -7.05537 3.77117 0
    endloop
  endfacet
  facet normal 0 0 1
    outer loop
      vertex -7.39104 3.06147 0
      vertex -7.39104 -3.06147 0
      vertex -7.05537 -3.77117 0
    endloop
  endfacet
  facet normal -0 0 1
    outer loop
      vertex -7.65552 2.32228 0
      vertex -7.39104 -3.06147 0
      vertex -7.39104 3.06147 0
    endloop
  endfacet
  facet normal 0 0 1
    outer loop
      vertex -7.65552 2.32228 0
      vertex -7.65552 -2.32228 0
      vertex -7.39104 -3.06147 0
    endloop
  endfacet
  facet normal -0 0 1
    outer loop
      vertex -7.84628 1.56072 0
      vertex -7.65552 -2.32228 0
      vertex -7.65552 2.32228 0
    endloop
  endfacet
  facet normal 0 0 1
    outer loop
      vertex -7.84628 1.56072 0
      vertex -7.84628 -1.56072 0
      vertex -7.65552 -2.32228 0
    endloop
  endfacet
  facet normal -0 0 1
    outer loop
      vertex -7.96148 0.784137 0
      vertex -7.84628 -1.56072 0
      vertex -7.84628 1.56072 0
    endloop
  endfacet
  facet normal 0 0 1
    outer loop
      vertex -7.96148 0.784137 0
      vertex -7.96148 -0.784137 0
      vertex -7.84628 -1.56072 0
    endloop
  endfacet
  facet normal 0 -0 1
    outer loop
      vertex -7.96148 -0.784137 0
      vertex -7.96148 0.784137 0
      vertex -8 0 0
    endloop
  endfacet
  facet normal -0.857731 0.514099 0
    outer loop
      vertex -7.05537 3.77117 -66
      vertex -6.65176 4.44456 0
      vertex -6.65176 4.44456 -66
    endloop
  endfacet
  facet normal -0.857731 0.514099 0
    outer loop
      vertex -6.65176 4.44456 0
      vertex -7.05537 3.77117 -66
      vertex -7.05537 3.77117 0
    endloop
  endfacet
  facet normal -0.595701 -0.803206 0
    outer loop
      vertex -5.07515 -6.18408 -66
      vertex -4.44456 -6.65176 0
      vertex -5.07515 -6.18408 0
    endloop
  endfacet
  facet normal -0.595701 -0.803206 -0
    outer loop
      vertex -4.44456 -6.65176 0
      vertex -5.07515 -6.18408 -66
      vertex -4.44456 -6.65176 -66
    endloop
  endfacet
  facet normal -0.740952 0.671558 0
    outer loop
      vertex 4.24264 -4.24264 -59.2
      vertex 4.63806 -3.80636 -53.6
      vertex 4.63806 -3.80636 -59.2
    endloop
  endfacet
  facet normal -0.740952 0.671558 0
    outer loop
      vertex 4.63806 -3.80636 -53.6
      vertex 4.24264 -4.24264 -59.2
      vertex 4.24264 -4.24264 -53.6
    endloop
  endfacet
  facet normal -0.941546 0.336884 0
    outer loop
      vertex 5.54328 -2.2961 -59.2
      vertex 5.74164 -1.74171 -53.6
      vertex 5.74164 -1.74171 -59.2
    endloop
  endfacet
  facet normal -0.941546 0.336884 0
    outer loop
      vertex 5.74164 -1.74171 -53.6
      vertex 5.54328 -2.2961 -59.2
      vertex 5.54328 -2.2961 -53.6
    endloop
  endfacet
  facet normal -0.803204 -0.595703 0
    outer loop
      vertex 4.98882 3.33342 -59.2
      vertex 4.63806 3.80636 -53.6
      vertex 4.63806 3.80636 -59.2
    endloop
  endfacet
  facet normal -0.803204 -0.595703 0
    outer loop
      vertex 4.63806 3.80636 -53.6
      vertex 4.98882 3.33342 -59.2
      vertex 4.98882 3.33342 -53.6
    endloop
  endfacet
  facet normal -0.989176 -0.146736 0
    outer loop
      vertex 5.97111 0.588102 -59.2
      vertex 5.88471 1.17054 -53.6
      vertex 5.88471 1.17054 -59.2
    endloop
  endfacet
  facet normal -0.989176 -0.146736 0
    outer loop
      vertex 5.88471 1.17054 -53.6
      vertex 5.97111 0.588102 -59.2
      vertex 5.97111 0.588102 -53.6
    endloop
  endfacet
  facet normal -0.857728 0.514104 0
    outer loop
      vertex 4.98882 -3.33342 -59.2
      vertex 5.29153 -2.82838 -53.6
      vertex 5.29153 -2.82838 -59.2
    endloop
  endfacet
  facet normal -0.857728 0.514104 0
    outer loop
      vertex 5.29153 -2.82838 -53.6
      vertex 4.98882 -3.33342 -59.2
      vertex 4.98882 -3.33342 -53.6
    endloop
  endfacet
  facet normal -0.146736 0.989176 0
    outer loop
      vertex 1.17054 -5.88471 -59.2
      vertex 0.588102 -5.97111 -53.6
      vertex 1.17054 -5.88471 -53.6
    endloop
  endfacet
  facet normal -0.146736 0.989176 0
    outer loop
      vertex 0.588102 -5.97111 -53.6
      vertex 1.17054 -5.88471 -59.2
      vertex 0.588102 -5.97111 -59.2
    endloop
  endfacet
  facet normal -0.803204 0.595703 0
    outer loop
      vertex 4.63806 -3.80636 -59.2
      vertex 4.98882 -3.33342 -53.6
      vertex 4.98882 -3.33342 -59.2
    endloop
  endfacet
  facet normal -0.803204 0.595703 0
    outer loop
      vertex 4.98882 -3.33342 -53.6
      vertex 4.63806 -3.80636 -59.2
      vertex 4.63806 -3.80636 -53.6
    endloop
  endfacet
  facet normal 0.903989 0.427556 0
    outer loop
      vertex -5.29153 -2.82838 -53.6
      vertex -5.54328 -2.2961 -59.2
      vertex -5.54328 -2.2961 -53.6
    endloop
  endfacet
  facet normal 0.903989 0.427556 0
    outer loop
      vertex -5.54328 -2.2961 -59.2
      vertex -5.29153 -2.82838 -53.6
      vertex -5.29153 -2.82838 -59.2
    endloop
  endfacet
  facet normal 0.336884 -0.941546 0
    outer loop
      vertex -2.2961 5.54328 -59.2
      vertex -1.74171 5.74164 -53.6
      vertex -2.2961 5.54328 -53.6
    endloop
  endfacet
  facet normal 0.336884 -0.941546 0
    outer loop
      vertex -1.74171 5.74164 -53.6
      vertex -2.2961 5.54328 -59.2
      vertex -1.74171 5.74164 -59.2
    endloop
  endfacet
  facet normal -0.740952 -0.671558 0
    outer loop
      vertex 4.63806 3.80636 -59.2
      vertex 4.24264 4.24264 -53.6
      vertex 4.24264 4.24264 -59.2
    endloop
  endfacet
  facet normal -0.740952 -0.671558 0
    outer loop
      vertex 4.24264 4.24264 -53.6
      vertex 4.63806 3.80636 -59.2
      vertex 4.63806 3.80636 -53.6
    endloop
  endfacet
  facet normal 0.514104 -0.857728 0
    outer loop
      vertex -3.33342 4.98882 -59.2
      vertex -2.82838 5.29153 -53.6
      vertex -3.33342 4.98882 -53.6
    endloop
  endfacet
  facet normal 0.514104 -0.857728 0
    outer loop
      vertex -2.82838 5.29153 -53.6
      vertex -3.33342 4.98882 -59.2
      vertex -2.82838 5.29153 -59.2
    endloop
  endfacet
  facet normal 0 0 1
    outer loop
      vertex 5.97111 0.588102 -59.2
      vertex 5.97111 -0.588102 -59.2
      vertex 6 0 -59.2
    endloop
  endfacet
  facet normal 0 0 1
    outer loop
      vertex 5.88471 1.17054 -59.2
      vertex 5.97111 -0.588102 -59.2
      vertex 5.97111 0.588102 -59.2
    endloop
  endfacet
  facet normal 0 0 1
    outer loop
      vertex 5.88471 1.17054 -59.2
      vertex 5.88471 -1.17054 -59.2
      vertex 5.97111 -0.588102 -59.2
    endloop
  endfacet
  facet normal 0 0 1
    outer loop
      vertex 5.74164 1.74171 -59.2
      vertex 5.88471 -1.17054 -59.2
      vertex 5.88471 1.17054 -59.2
    endloop
  endfacet
  facet normal 0 0 1
    outer loop
      vertex 5.74164 1.74171 -59.2
      vertex 5.74164 -1.74171 -59.2
      vertex 5.88471 -1.17054 -59.2
    endloop
  endfacet
  facet normal 0 0 1
    outer loop
      vertex 5.54328 2.2961 -59.2
      vertex 5.74164 -1.74171 -59.2
      vertex 5.74164 1.74171 -59.2
    endloop
  endfacet
  facet normal 0 0 1
    outer loop
      vertex 5.54328 2.2961 -59.2
      vertex 5.54328 -2.2961 -59.2
      vertex 5.74164 -1.74171 -59.2
    endloop
  endfacet
  facet normal 0 0 1
    outer loop
      vertex 5.29153 2.82838 -59.2
      vertex 5.54328 -2.2961 -59.2
      vertex 5.54328 2.2961 -59.2
    endloop
  endfacet
  facet normal 0 0 1
    outer loop
      vertex 5.29153 2.82838 -59.2
      vertex 5.29153 -2.82838 -59.2
      vertex 5.54328 -2.2961 -59.2
    endloop
  endfacet
  facet normal 0 0 1
    outer loop
      vertex 4.98882 3.33342 -59.2
      vertex 5.29153 -2.82838 -59.2
      vertex 5.29153 2.82838 -59.2
    endloop
  endfacet
  facet normal 0 0 1
    outer loop
      vertex 4.98882 3.33342 -59.2
      vertex 4.98882 -3.33342 -59.2
      vertex 5.29153 -2.82838 -59.2
    endloop
  endfacet
  facet normal 0 0 1
    outer loop
      vertex 4.63806 3.80636 -59.2
      vertex 4.98882 -3.33342 -59.2
      vertex 4.98882 3.33342 -59.2
    endloop
  endfacet
  facet normal 0 0 1
    outer loop
      vertex 4.63806 3.80636 -59.2
      vertex 4.63806 -3.80636 -59.2
      vertex 4.98882 -3.33342 -59.2
    endloop
  endfacet
  facet normal 0 0 1
    outer loop
      vertex 4.24264 4.24264 -59.2
      vertex 4.63806 -3.80636 -59.2
      vertex 4.63806 3.80636 -59.2
    endloop
  endfacet
  facet normal 0 0 1
    outer loop
      vertex 4.24264 4.24264 -59.2
      vertex 4.24264 -4.24264 -59.2
      vertex 4.63806 -3.80636 -59.2
    endloop
  endfacet
  facet normal 0 0 1
    outer loop
      vertex 3.80636 4.63806 -59.2
      vertex 4.24264 -4.24264 -59.2
      vertex 4.24264 4.24264 -59.2
    endloop
  endfacet
  facet normal 0 0 1
    outer loop
      vertex 3.80636 4.63806 -59.2
      vertex 3.80636 -4.63806 -59.2
      vertex 4.24264 -4.24264 -59.2
    endloop
  endfacet
  facet normal 0 0 1
    outer loop
      vertex 3.33342 4.98882 -59.2
      vertex 3.80636 -4.63806 -59.2
      vertex 3.80636 4.63806 -59.2
    endloop
  endfacet
  facet normal 0 0 1
    outer loop
      vertex 3.33342 4.98882 -59.2
      vertex 3.33342 -4.98882 -59.2
      vertex 3.80636 -4.63806 -59.2
    endloop
  endfacet
  facet normal 0 0 1
    outer loop
      vertex 2.82838 5.29153 -59.2
      vertex 3.33342 -4.98882 -59.2
      vertex 3.33342 4.98882 -59.2
    endloop
  endfacet
  facet normal 0 0 1
    outer loop
      vertex 2.82838 5.29153 -59.2
      vertex 2.82838 -5.29153 -59.2
      vertex 3.33342 -4.98882 -59.2
    endloop
  endfacet
  facet normal 0 0 1
    outer loop
      vertex 2.2961 5.54328 -59.2
      vertex 2.82838 -5.29153 -59.2
      vertex 2.82838 5.29153 -59.2
    endloop
  endfacet
  facet normal 0 0 1
    outer loop
      vertex 2.2961 5.54328 -59.2
      vertex 2.2961 -5.54328 -59.2
      vertex 2.82838 -5.29153 -59.2
    endloop
  endfacet
  facet normal 0 0 1
    outer loop
      vertex 1.74171 5.74164 -59.2
      vertex 2.2961 -5.54328 -59.2
      vertex 2.2961 5.54328 -59.2
    endloop
  endfacet
  facet normal 0 0 1
    outer loop
      vertex 1.74171 5.74164 -59.2
      vertex 1.74171 -5.74164 -59.2
      vertex 2.2961 -5.54328 -59.2
    endloop
  endfacet
  facet normal 0 0 1
    outer loop
      vertex 1.17054 5.88471 -59.2
      vertex 1.74171 -5.74164 -59.2
      vertex 1.74171 5.74164 -59.2
    endloop
  endfacet
  facet normal 0 0 1
    outer loop
      vertex 1.17054 5.88471 -59.2
      vertex 1.17054 -5.88471 -59.2
      vertex 1.74171 -5.74164 -59.2
    endloop
  endfacet
  facet normal 0 0 1
    outer loop
      vertex 0.588102 5.97111 -59.2
      vertex 1.17054 -5.88471 -59.2
      vertex 1.17054 5.88471 -59.2
    endloop
  endfacet
  facet normal 0 0 1
    outer loop
      vertex 0.588102 5.97111 -59.2
      vertex 0.588102 -5.97111 -59.2
      vertex 1.17054 -5.88471 -59.2
    endloop
  endfacet
  facet normal 0 0 1
    outer loop
      vertex 0 6 -59.2
      vertex 0.588102 -5.97111 -59.2
      vertex 0.588102 5.97111 -59.2
    endloop
  endfacet
  facet normal 0 0 1
    outer loop
      vertex 0 6 -59.2
      vertex 0 -6 -59.2
      vertex 0.588102 -5.97111 -59.2
    endloop
  endfacet
  facet normal -0 0 1
    outer loop
      vertex -0.588102 5.97111 -59.2
      vertex 0 -6 -59.2
      vertex 0 6 -59.2
    endloop
  endfacet
  facet normal 0 0 1
    outer loop
      vertex -0.588102 5.97111 -59.2
      vertex -0.588102 -5.97111 -59.2
      vertex 0 -6 -59.2
    endloop
  endfacet
  facet normal -0 0 1
    outer loop
      vertex -1.17054 5.88471 -59.2
      vertex -0.588102 -5.97111 -59.2
      vertex -0.588102 5.97111 -59.2
    endloop
  endfacet
  facet normal 0 0 1
    outer loop
      vertex -1.17054 5.88471 -59.2
      vertex -1.17054 -5.88471 -59.2
      vertex -0.588102 -5.97111 -59.2
    endloop
  endfacet
  facet normal -0 0 1
    outer loop
      vertex -1.74171 5.74164 -59.2
      vertex -1.17054 -5.88471 -59.2
      vertex -1.17054 5.88471 -59.2
    endloop
  endfacet
  facet normal 0 0 1
    outer loop
      vertex -1.74171 5.74164 -59.2
      vertex -1.74171 -5.74164 -59.2
      vertex -1.17054 -5.88471 -59.2
    endloop
  endfacet
  facet normal -0 0 1
    outer loop
      vertex -2.2961 5.54328 -59.2
      vertex -1.74171 -5.74164 -59.2
      vertex -1.74171 5.74164 -59.2
    endloop
  endfacet
  facet normal 0 0 1
    outer loop
      vertex -2.2961 5.54328 -59.2
      vertex -2.2961 -5.54328 -59.2
      vertex -1.74171 -5.74164 -59.2
    endloop
  endfacet
  facet normal -0 0 1
    outer loop
      vertex -2.82838 5.29153 -59.2
      vertex -2.2961 -5.54328 -59.2
      vertex -2.2961 5.54328 -59.2
    endloop
  endfacet
  facet normal 0 0 1
    outer loop
      vertex -2.82838 5.29153 -59.2
      vertex -2.82838 -5.29153 -59.2
      vertex -2.2961 -5.54328 -59.2
    endloop
  endfacet
  facet normal -0 0 1
    outer loop
      vertex -3.33342 4.98882 -59.2
      vertex -2.82838 -5.29153 -59.2
      vertex -2.82838 5.29153 -59.2
    endloop
  endfacet
  facet normal 0 0 1
    outer loop
      vertex -3.33342 4.98882 -59.2
      vertex -3.33342 -4.98882 -59.2
      vertex -2.82838 -5.29153 -59.2
    endloop
  endfacet
  facet normal -0 0 1
    outer loop
      vertex -3.80636 4.63806 -59.2
      vertex -3.33342 -4.98882 -59.2
      vertex -3.33342 4.98882 -59.2
    endloop
  endfacet
  facet normal 0 0 1
    outer loop
      vertex -3.80636 4.63806 -59.2
      vertex -3.80636 -4.63806 -59.2
      vertex -3.33342 -4.98882 -59.2
    endloop
  endfacet
  facet normal -0 0 1
    outer loop
      vertex -4.24264 4.24264 -59.2
      vertex -3.80636 -4.63806 -59.2
      vertex -3.80636 4.63806 -59.2
    endloop
  endfacet
  facet normal 0 0 1
    outer loop
      vertex -4.24264 4.24264 -59.2
      vertex -4.24264 -4.24264 -59.2
      vertex -3.80636 -4.63806 -59.2
    endloop
  endfacet
  facet normal -0 0 1
    outer loop
      vertex -4.63806 3.80636 -59.2
      vertex -4.24264 -4.24264 -59.2
      vertex -4.24264 4.24264 -59.2
    endloop
  endfacet
  facet normal 0 0 1
    outer loop
      vertex -4.63806 3.80636 -59.2
      vertex -4.63806 -3.80636 -59.2
      vertex -4.24264 -4.24264 -59.2
    endloop
  endfacet
  facet normal -0 0 1
    outer loop
      vertex -4.98882 3.33342 -59.2
      vertex -4.63806 -3.80636 -59.2
      vertex -4.63806 3.80636 -59.2
    endloop
  endfacet
  facet normal 0 0 1
    outer loop
      vertex -4.98882 3.33342 -59.2
      vertex -4.98882 -3.33342 -59.2
      vertex -4.63806 -3.80636 -59.2
    endloop
  endfacet
  facet normal -0 0 1
    outer loop
      vertex -5.29153 2.82838 -59.2
      vertex -4.98882 -3.33342 -59.2
      vertex -4.98882 3.33342 -59.2
    endloop
  endfacet
  facet normal 0 0 1
    outer loop
      vertex -5.29153 2.82838 -59.2
      vertex -5.29153 -2.82838 -59.2
      vertex -4.98882 -3.33342 -59.2
    endloop
  endfacet
  facet normal -0 0 1
    outer loop
      vertex -5.54328 2.2961 -59.2
      vertex -5.29153 -2.82838 -59.2
      vertex -5.29153 2.82838 -59.2
    endloop
  endfacet
  facet normal 0 0 1
    outer loop
      vertex -5.54328 2.2961 -59.2
      vertex -5.54328 -2.2961 -59.2
      vertex -5.29153 -2.82838 -59.2
    endloop
  endfacet
  facet normal -0 0 1
    outer loop
      vertex -5.74164 1.74171 -59.2
      vertex -5.54328 -2.2961 -59.2
      vertex -5.54328 2.2961 -59.2
    endloop
  endfacet
  facet normal 0 0 1
    outer loop
      vertex -5.74164 1.74171 -59.2
      vertex -5.74164 -1.74171 -59.2
      vertex -5.54328 -2.2961 -59.2
    endloop
  endfacet
  facet normal -0 0 1
    outer loop
      vertex -5.88471 1.17054 -59.2
      vertex -5.74164 -1.74171 -59.2
      vertex -5.74164 1.74171 -59.2
    endloop
  endfacet
  facet normal 0 0 1
    outer loop
      vertex -5.88471 1.17054 -59.2
      vertex -5.88471 -1.17054 -59.2
      vertex -5.74164 -1.74171 -59.2
    endloop
  endfacet
  facet normal -0 0 1
    outer loop
      vertex -5.97111 0.588102 -59.2
      vertex -5.88471 -1.17054 -59.2
      vertex -5.88471 1.17054 -59.2
    endloop
  endfacet
  facet normal 0 0 1
    outer loop
      vertex -5.97111 0.588102 -59.2
      vertex -5.97111 -0.588102 -59.2
      vertex -5.88471 -1.17054 -59.2
    endloop
  endfacet
  facet normal 0 -0 1
    outer loop
      vertex -5.97111 -0.588102 -59.2
      vertex -5.97111 0.588102 -59.2
      vertex -6 0 -59.2
    endloop
  endfacet
  facet normal -0.242979 0.970032 0
    outer loop
      vertex 1.74171 -5.74164 -59.2
      vertex 1.17054 -5.88471 -53.6
      vertex 1.74171 -5.74164 -53.6
    endloop
  endfacet
  facet normal -0.242979 0.970032 0
    outer loop
      vertex 1.17054 -5.88471 -53.6
      vertex 1.74171 -5.74164 -59.2
      vertex 1.17054 -5.88471 -59.2
    endloop
  endfacet
  facet normal 0.803204 0.595703 0
    outer loop
      vertex -4.63806 -3.80636 -53.6
      vertex -4.98882 -3.33342 -59.2
      vertex -4.98882 -3.33342 -53.6
    endloop
  endfacet
  facet normal 0.803204 0.595703 0
    outer loop
      vertex -4.98882 -3.33342 -59.2
      vertex -4.63806 -3.80636 -53.6
      vertex -4.63806 -3.80636 -59.2
    endloop
  endfacet
  facet normal -0.941546 -0.336884 0
    outer loop
      vertex 5.74164 1.74171 -59.2
      vertex 5.54328 2.2961 -53.6
      vertex 5.54328 2.2961 -59.2
    endloop
  endfacet
  facet normal -0.941546 -0.336884 0
    outer loop
      vertex 5.54328 2.2961 -53.6
      vertex 5.74164 1.74171 -59.2
      vertex 5.74164 1.74171 -53.6
    endloop
  endfacet
  facet normal -0.857728 -0.514104 0
    outer loop
      vertex 5.29153 2.82838 -59.2
      vertex 4.98882 3.33342 -53.6
      vertex 4.98882 3.33342 -59.2
    endloop
  endfacet
  facet normal -0.857728 -0.514104 0
    outer loop
      vertex 4.98882 3.33342 -53.6
      vertex 5.29153 2.82838 -59.2
      vertex 5.29153 2.82838 -53.6
    endloop
  endfacet
  facet normal 0.857728 0.514104 0
    outer loop
      vertex -4.98882 -3.33342 -53.6
      vertex -5.29153 -2.82838 -59.2
      vertex -5.29153 -2.82838 -53.6
    endloop
  endfacet
  facet normal 0.857728 0.514104 0
    outer loop
      vertex -5.29153 -2.82838 -59.2
      vertex -4.98882 -3.33342 -53.6
      vertex -4.98882 -3.33342 -59.2
    endloop
  endfacet
  facet normal 0.740952 0.671558 0
    outer loop
      vertex -4.24264 -4.24264 -53.6
      vertex -4.63806 -3.80636 -59.2
      vertex -4.63806 -3.80636 -53.6
    endloop
  endfacet
  facet normal 0.740952 0.671558 0
    outer loop
      vertex -4.63806 -3.80636 -59.2
      vertex -4.24264 -4.24264 -53.6
      vertex -4.24264 -4.24264 -59.2
    endloop
  endfacet
  facet normal -0.903989 -0.427556 0
    outer loop
      vertex 5.54328 2.2961 -59.2
      vertex 5.29153 2.82838 -53.6
      vertex 5.29153 2.82838 -59.2
    endloop
  endfacet
  facet normal -0.903989 -0.427556 0
    outer loop
      vertex 5.29153 2.82838 -53.6
      vertex 5.54328 2.2961 -59.2
      vertex 5.54328 2.2961 -53.6
    endloop
  endfacet
  facet normal -0.998796 -0.049065 0
    outer loop
      vertex 6 0 -59.2
      vertex 5.97111 0.588102 -53.6
      vertex 5.97111 0.588102 -59.2
    endloop
  endfacet
  facet normal -0.998796 -0.049065 0
    outer loop
      vertex 5.97111 0.588102 -53.6
      vertex 6 0 -59.2
      vertex 6 0 -53.6
    endloop
  endfacet
  facet normal 0.970032 0.242979 0
    outer loop
      vertex -5.74164 -1.74171 -53.6
      vertex -5.88471 -1.17054 -59.2
      vertex -5.88471 -1.17054 -53.6
    endloop
  endfacet
  facet normal 0.970032 0.242979 0
    outer loop
      vertex -5.88471 -1.17054 -59.2
      vertex -5.74164 -1.74171 -53.6
      vertex -5.74164 -1.74171 -59.2
    endloop
  endfacet
  facet normal -0.989176 0.146736 0
    outer loop
      vertex 5.88471 -1.17054 -59.2
      vertex 5.97111 -0.588102 -53.6
      vertex 5.97111 -0.588102 -59.2
    endloop
  endfacet
  facet normal -0.989176 0.146736 0
    outer loop
      vertex 5.97111 -0.588102 -53.6
      vertex 5.88471 -1.17054 -59.2
      vertex 5.88471 -1.17054 -53.6
    endloop
  endfacet
  facet normal 0.049065 -0.998796 0
    outer loop
      vertex -0.588102 5.97111 -59.2
      vertex 0 6 -53.6
      vertex -0.588102 5.97111 -53.6
    endloop
  endfacet
  facet normal 0.049065 -0.998796 0
    outer loop
      vertex 0 6 -53.6
      vertex -0.588102 5.97111 -59.2
      vertex 0 6 -59.2
    endloop
  endfacet
  facet normal 0.242979 0.970032 -0
    outer loop
      vertex -1.17054 -5.88471 -59.2
      vertex -1.74171 -5.74164 -53.6
      vertex -1.17054 -5.88471 -53.6
    endloop
  endfacet
  facet normal 0.242979 0.970032 0
    outer loop
      vertex -1.74171 -5.74164 -53.6
      vertex -1.17054 -5.88471 -59.2
      vertex -1.74171 -5.74164 -59.2
    endloop
  endfacet
  facet normal 0.427556 0.903989 -0
    outer loop
      vertex -2.2961 -5.54328 -59.2
      vertex -2.82838 -5.29153 -53.6
      vertex -2.2961 -5.54328 -53.6
    endloop
  endfacet
  facet normal 0.427556 0.903989 0
    outer loop
      vertex -2.82838 -5.29153 -53.6
      vertex -2.2961 -5.54328 -59.2
      vertex -2.82838 -5.29153 -59.2
    endloop
  endfacet
  facet normal 0.595703 0.803204 -0
    outer loop
      vertex -3.33342 -4.98882 -59.2
      vertex -3.80636 -4.63806 -53.6
      vertex -3.33342 -4.98882 -53.6
    endloop
  endfacet
  facet normal 0.595703 0.803204 0
    outer loop
      vertex -3.80636 -4.63806 -53.6
      vertex -3.33342 -4.98882 -59.2
      vertex -3.80636 -4.63806 -59.2
    endloop
  endfacet
  facet normal -0.998796 0.049065 0
    outer loop
      vertex 5.97111 -0.588102 -59.2
      vertex 6 0 -53.6
      vertex 6 0 -59.2
    endloop
  endfacet
  facet normal -0.998796 0.049065 0
    outer loop
      vertex 6 0 -53.6
      vertex 5.97111 -0.588102 -59.2
      vertex 5.97111 -0.588102 -53.6
    endloop
  endfacet
  facet normal -0.970032 -0.242979 0
    outer loop
      vertex 5.88471 1.17054 -59.2
      vertex 5.74164 1.74171 -53.6
      vertex 5.74164 1.74171 -59.2
    endloop
  endfacet
  facet normal -0.970032 -0.242979 0
    outer loop
      vertex 5.74164 1.74171 -53.6
      vertex 5.88471 1.17054 -59.2
      vertex 5.88471 1.17054 -53.6
    endloop
  endfacet
  facet normal 0.989176 -0.146736 0
    outer loop
      vertex -5.97111 0.588102 -53.6
      vertex -5.88471 1.17054 -59.2
      vertex -5.88471 1.17054 -53.6
    endloop
  endfacet
  facet normal 0.989176 -0.146736 0
    outer loop
      vertex -5.88471 1.17054 -59.2
      vertex -5.97111 0.588102 -53.6
      vertex -5.97111 0.588102 -59.2
    endloop
  endfacet
  facet normal 0.146736 -0.989176 0
    outer loop
      vertex -1.17054 5.88471 -59.2
      vertex -0.588102 5.97111 -53.6
      vertex -1.17054 5.88471 -53.6
    endloop
  endfacet
  facet normal 0.146736 -0.989176 0
    outer loop
      vertex -0.588102 5.97111 -53.6
      vertex -1.17054 5.88471 -59.2
      vertex -0.588102 5.97111 -59.2
    endloop
  endfacet
  facet normal 0.970032 -0.242979 0
    outer loop
      vertex -5.88471 1.17054 -53.6
      vertex -5.74164 1.74171 -59.2
      vertex -5.74164 1.74171 -53.6
    endloop
  endfacet
  facet normal 0.970032 -0.242979 0
    outer loop
      vertex -5.74164 1.74171 -59.2
      vertex -5.88471 1.17054 -53.6
      vertex -5.88471 1.17054 -59.2
    endloop
  endfacet
  facet normal -0.336884 -0.941546 0
    outer loop
      vertex 1.74171 5.74164 -59.2
      vertex 2.2961 5.54328 -53.6
      vertex 1.74171 5.74164 -53.6
    endloop
  endfacet
  facet normal -0.336884 -0.941546 -0
    outer loop
      vertex 2.2961 5.54328 -53.6
      vertex 1.74171 5.74164 -59.2
      vertex 2.2961 5.54328 -59.2
    endloop
  endfacet
  facet normal 0.941546 -0.336884 0
    outer loop
      vertex -5.74164 1.74171 -53.6
      vertex -5.54328 2.2961 -59.2
      vertex -5.54328 2.2961 -53.6
    endloop
  endfacet
  facet normal 0.941546 -0.336884 0
    outer loop
      vertex -5.54328 2.2961 -59.2
      vertex -5.74164 1.74171 -53.6
      vertex -5.74164 1.74171 -59.2
    endloop
  endfacet
  facet normal -0.514104 0.857728 0
    outer loop
      vertex 3.33342 -4.98882 -59.2
      vertex 2.82838 -5.29153 -53.6
      vertex 3.33342 -4.98882 -53.6
    endloop
  endfacet
  facet normal -0.514104 0.857728 0
    outer loop
      vertex 2.82838 -5.29153 -53.6
      vertex 3.33342 -4.98882 -59.2
      vertex 2.82838 -5.29153 -59.2
    endloop
  endfacet
  facet normal -0.671558 -0.740952 0
    outer loop
      vertex 3.80636 4.63806 -59.2
      vertex 4.24264 4.24264 -53.6
      vertex 3.80636 4.63806 -53.6
    endloop
  endfacet
  facet normal -0.671558 -0.740952 -0
    outer loop
      vertex 4.24264 4.24264 -53.6
      vertex 3.80636 4.63806 -59.2
      vertex 4.24264 4.24264 -59.2
    endloop
  endfacet
  facet normal -0.049065 0.998796 0
    outer loop
      vertex 0.588102 -5.97111 -59.2
      vertex 0 -6 -53.6
      vertex 0.588102 -5.97111 -53.6
    endloop
  endfacet
  facet normal -0.049065 0.998796 0
    outer loop
      vertex 0 -6 -53.6
      vertex 0.588102 -5.97111 -59.2
      vertex 0 -6 -59.2
    endloop
  endfacet
  facet normal 0.595703 -0.803204 0
    outer loop
      vertex -3.80636 4.63806 -59.2
      vertex -3.33342 4.98882 -53.6
      vertex -3.80636 4.63806 -53.6
    endloop
  endfacet
  facet normal 0.595703 -0.803204 0
    outer loop
      vertex -3.33342 4.98882 -53.6
      vertex -3.80636 4.63806 -59.2
      vertex -3.33342 4.98882 -59.2
    endloop
  endfacet
  facet normal -0.595703 0.803204 0
    outer loop
      vertex 3.80636 -4.63806 -59.2
      vertex 3.33342 -4.98882 -53.6
      vertex 3.80636 -4.63806 -53.6
    endloop
  endfacet
  facet normal -0.595703 0.803204 0
    outer loop
      vertex 3.33342 -4.98882 -53.6
      vertex 3.80636 -4.63806 -59.2
      vertex 3.33342 -4.98882 -59.2
    endloop
  endfacet
  facet normal 0.998796 0.049065 0
    outer loop
      vertex -5.97111 -0.588102 -53.6
      vertex -6 0 -59.2
      vertex -6 0 -53.6
    endloop
  endfacet
  facet normal 0.998796 0.049065 0
    outer loop
      vertex -6 0 -59.2
      vertex -5.97111 -0.588102 -53.6
      vertex -5.97111 -0.588102 -59.2
    endloop
  endfacet
  facet normal 0.903989 -0.427556 0
    outer loop
      vertex -5.54328 2.2961 -53.6
      vertex -5.29153 2.82838 -59.2
      vertex -5.29153 2.82838 -53.6
    endloop
  endfacet
  facet normal 0.903989 -0.427556 0
    outer loop
      vertex -5.29153 2.82838 -59.2
      vertex -5.54328 2.2961 -53.6
      vertex -5.54328 2.2961 -59.2
    endloop
  endfacet
  facet normal 0.146736 0.989176 -0
    outer loop
      vertex -0.588102 -5.97111 -59.2
      vertex -1.17054 -5.88471 -53.6
      vertex -0.588102 -5.97111 -53.6
    endloop
  endfacet
  facet normal 0.146736 0.989176 0
    outer loop
      vertex -1.17054 -5.88471 -53.6
      vertex -0.588102 -5.97111 -59.2
      vertex -1.17054 -5.88471 -59.2
    endloop
  endfacet
  facet normal -0.146736 -0.989176 0
    outer loop
      vertex 0.588102 5.97111 -59.2
      vertex 1.17054 5.88471 -53.6
      vertex 0.588102 5.97111 -53.6
    endloop
  endfacet
  facet normal -0.146736 -0.989176 -0
    outer loop
      vertex 1.17054 5.88471 -53.6
      vertex 0.588102 5.97111 -59.2
      vertex 1.17054 5.88471 -59.2
    endloop
  endfacet
  facet normal -0.049065 -0.998796 0
    outer loop
      vertex 0 6 -59.2
      vertex 0.588102 5.97111 -53.6
      vertex 0 6 -53.6
    endloop
  endfacet
  facet normal -0.049065 -0.998796 -0
    outer loop
      vertex 0.588102 5.97111 -53.6
      vertex 0 6 -59.2
      vertex 0.588102 5.97111 -59.2
    endloop
  endfacet
  facet normal -0.427556 -0.903989 0
    outer loop
      vertex 2.2961 5.54328 -59.2
      vertex 2.82838 5.29153 -53.6
      vertex 2.2961 5.54328 -53.6
    endloop
  endfacet
  facet normal -0.427556 -0.903989 -0
    outer loop
      vertex 2.82838 5.29153 -53.6
      vertex 2.2961 5.54328 -59.2
      vertex 2.82838 5.29153 -59.2
    endloop
  endfacet
  facet normal -0.595703 -0.803204 0
    outer loop
      vertex 3.33342 4.98882 -59.2
      vertex 3.80636 4.63806 -53.6
      vertex 3.33342 4.98882 -53.6
    endloop
  endfacet
  facet normal -0.595703 -0.803204 -0
    outer loop
      vertex 3.80636 4.63806 -53.6
      vertex 3.33342 4.98882 -59.2
      vertex 3.80636 4.63806 -59.2
    endloop
  endfacet
  facet normal -0.242979 -0.970032 0
    outer loop
      vertex 1.17054 5.88471 -59.2
      vertex 1.74171 5.74164 -53.6
      vertex 1.17054 5.88471 -53.6
    endloop
  endfacet
  facet normal -0.242979 -0.970032 -0
    outer loop
      vertex 1.74171 5.74164 -53.6
      vertex 1.17054 5.88471 -59.2
      vertex 1.74171 5.74164 -59.2
    endloop
  endfacet
  facet normal -0.903989 0.427556 0
    outer loop
      vertex 5.29153 -2.82838 -59.2
      vertex 5.54328 -2.2961 -53.6
      vertex 5.54328 -2.2961 -59.2
    endloop
  endfacet
  facet normal -0.903989 0.427556 0
    outer loop
      vertex 5.54328 -2.2961 -53.6
      vertex 5.29153 -2.82838 -59.2
      vertex 5.29153 -2.82838 -53.6
    endloop
  endfacet
  facet normal 0.049065 0.998796 -0
    outer loop
      vertex 0 -6 -59.2
      vertex -0.588102 -5.97111 -53.6
      vertex 0 -6 -53.6
    endloop
  endfacet
  facet normal 0.049065 0.998796 0
    outer loop
      vertex -0.588102 -5.97111 -53.6
      vertex 0 -6 -59.2
      vertex -0.588102 -5.97111 -59.2
    endloop
  endfacet
  facet normal 0.998796 -0.049065 0
    outer loop
      vertex -6 0 -53.6
      vertex -5.97111 0.588102 -59.2
      vertex -5.97111 0.588102 -53.6
    endloop
  endfacet
  facet normal 0.998796 -0.049065 0
    outer loop
      vertex -5.97111 0.588102 -59.2
      vertex -6 0 -53.6
      vertex -6 0 -59.2
    endloop
  endfacet
  facet normal -0.514104 -0.857728 0
    outer loop
      vertex 2.82838 5.29153 -59.2
      vertex 3.33342 4.98882 -53.6
      vertex 2.82838 5.29153 -53.6
    endloop
  endfacet
  facet normal -0.514104 -0.857728 -0
    outer loop
      vertex 3.33342 4.98882 -53.6
      vertex 2.82838 5.29153 -59.2
      vertex 3.33342 4.98882 -59.2
    endloop
  endfacet
  facet normal 0.671558 -0.740952 0
    outer loop
      vertex -4.24264 4.24264 -59.2
      vertex -3.80636 4.63806 -53.6
      vertex -4.24264 4.24264 -53.6
    endloop
  endfacet
  facet normal 0.671558 -0.740952 0
    outer loop
      vertex -3.80636 4.63806 -53.6
      vertex -4.24264 4.24264 -59.2
      vertex -3.80636 4.63806 -59.2
    endloop
  endfacet
  facet normal 0.514104 0.857728 -0
    outer loop
      vertex -2.82838 -5.29153 -59.2
      vertex -3.33342 -4.98882 -53.6
      vertex -2.82838 -5.29153 -53.6
    endloop
  endfacet
  facet normal 0.514104 0.857728 0
    outer loop
      vertex -3.33342 -4.98882 -53.6
      vertex -2.82838 -5.29153 -59.2
      vertex -3.33342 -4.98882 -59.2
    endloop
  endfacet
  facet normal 0.336884 0.941546 -0
    outer loop
      vertex -1.74171 -5.74164 -59.2
      vertex -2.2961 -5.54328 -53.6
      vertex -1.74171 -5.74164 -53.6
    endloop
  endfacet
  facet normal 0.336884 0.941546 0
    outer loop
      vertex -2.2961 -5.54328 -53.6
      vertex -1.74171 -5.74164 -59.2
      vertex -2.2961 -5.54328 -59.2
    endloop
  endfacet
  facet normal 0.242979 -0.970032 0
    outer loop
      vertex -1.74171 5.74164 -59.2
      vertex -1.17054 5.88471 -53.6
      vertex -1.74171 5.74164 -53.6
    endloop
  endfacet
  facet normal 0.242979 -0.970032 0
    outer loop
      vertex -1.17054 5.88471 -53.6
      vertex -1.74171 5.74164 -59.2
      vertex -1.17054 5.88471 -59.2
    endloop
  endfacet
  facet normal 0.941546 0.336884 0
    outer loop
      vertex -5.54328 -2.2961 -53.6
      vertex -5.74164 -1.74171 -59.2
      vertex -5.74164 -1.74171 -53.6
    endloop
  endfacet
  facet normal 0.941546 0.336884 0
    outer loop
      vertex -5.74164 -1.74171 -59.2
      vertex -5.54328 -2.2961 -53.6
      vertex -5.54328 -2.2961 -59.2
    endloop
  endfacet
  facet normal -0.671558 0.740952 0
    outer loop
      vertex 4.24264 -4.24264 -59.2
      vertex 3.80636 -4.63806 -53.6
      vertex 4.24264 -4.24264 -53.6
    endloop
  endfacet
  facet normal -0.671558 0.740952 0
    outer loop
      vertex 3.80636 -4.63806 -53.6
      vertex 4.24264 -4.24264 -59.2
      vertex 3.80636 -4.63806 -59.2
    endloop
  endfacet
  facet normal -0.970032 0.242979 0
    outer loop
      vertex 5.74164 -1.74171 -59.2
      vertex 5.88471 -1.17054 -53.6
      vertex 5.88471 -1.17054 -59.2
    endloop
  endfacet
  facet normal -0.970032 0.242979 0
    outer loop
      vertex 5.88471 -1.17054 -53.6
      vertex 5.74164 -1.74171 -59.2
      vertex 5.74164 -1.74171 -53.6
    endloop
  endfacet
  facet normal 0.671558 0.740952 -0
    outer loop
      vertex -3.80636 -4.63806 -59.2
      vertex -4.24264 -4.24264 -53.6
      vertex -3.80636 -4.63806 -53.6
    endloop
  endfacet
  facet normal 0.671558 0.740952 0
    outer loop
      vertex -4.24264 -4.24264 -53.6
      vertex -3.80636 -4.63806 -59.2
      vertex -4.24264 -4.24264 -59.2
    endloop
  endfacet
  facet normal 0.989176 0.146736 0
    outer loop
      vertex -5.88471 -1.17054 -53.6
      vertex -5.97111 -0.588102 -59.2
      vertex -5.97111 -0.588102 -53.6
    endloop
  endfacet
  facet normal 0.989176 0.146736 0
    outer loop
      vertex -5.97111 -0.588102 -59.2
      vertex -5.88471 -1.17054 -53.6
      vertex -5.88471 -1.17054 -59.2
    endloop
  endfacet
  facet normal -0.336884 0.941546 0
    outer loop
      vertex 2.2961 -5.54328 -59.2
      vertex 1.74171 -5.74164 -53.6
      vertex 2.2961 -5.54328 -53.6
    endloop
  endfacet
  facet normal -0.336884 0.941546 0
    outer loop
      vertex 1.74171 -5.74164 -53.6
      vertex 2.2961 -5.54328 -59.2
      vertex 1.74171 -5.74164 -59.2
    endloop
  endfacet
  facet normal 0.803204 -0.595703 0
    outer loop
      vertex -4.98882 3.33342 -53.6
      vertex -4.63806 3.80636 -59.2
      vertex -4.63806 3.80636 -53.6
    endloop
  endfacet
  facet normal 0.803204 -0.595703 0
    outer loop
      vertex -4.63806 3.80636 -59.2
      vertex -4.98882 3.33342 -53.6
      vertex -4.98882 3.33342 -59.2
    endloop
  endfacet
  facet normal -0.427556 0.903989 0
    outer loop
      vertex 2.82838 -5.29153 -59.2
      vertex 2.2961 -5.54328 -53.6
      vertex 2.82838 -5.29153 -53.6
    endloop
  endfacet
  facet normal -0.427556 0.903989 0
    outer loop
      vertex 2.2961 -5.54328 -53.6
      vertex 2.82838 -5.29153 -59.2
      vertex 2.2961 -5.54328 -59.2
    endloop
  endfacet
  facet normal 0.740952 -0.671558 0
    outer loop
      vertex -4.63806 3.80636 -53.6
      vertex -4.24264 4.24264 -59.2
      vertex -4.24264 4.24264 -53.6
    endloop
  endfacet
  facet normal 0.740952 -0.671558 0
    outer loop
      vertex -4.24264 4.24264 -59.2
      vertex -4.63806 3.80636 -53.6
      vertex -4.63806 3.80636 -59.2
    endloop
  endfacet
  facet normal 0.427556 -0.903989 0
    outer loop
      vertex -2.82838 5.29153 -59.2
      vertex -2.2961 5.54328 -53.6
      vertex -2.82838 5.29153 -53.6
    endloop
  endfacet
  facet normal 0.427556 -0.903989 0
    outer loop
      vertex -2.2961 5.54328 -53.6
      vertex -2.82838 5.29153 -59.2
      vertex -2.2961 5.54328 -59.2
    endloop
  endfacet
  facet normal 0 0 -1
    outer loop
      vertex 5.97111 -0.588102 -53.6
      vertex 5.97111 0.588102 -53.6
      vertex 6 0 -53.6
    endloop
  endfacet
  facet normal 0 0 -1
    outer loop
      vertex 5.88471 -1.17054 -53.6
      vertex 5.97111 0.588102 -53.6
      vertex 5.97111 -0.588102 -53.6
    endloop
  endfacet
  facet normal 0 0 -1
    outer loop
      vertex 5.88471 -1.17054 -53.6
      vertex 5.88471 1.17054 -53.6
      vertex 5.97111 0.588102 -53.6
    endloop
  endfacet
  facet normal 0 0 -1
    outer loop
      vertex 5.74164 -1.74171 -53.6
      vertex 5.88471 1.17054 -53.6
      vertex 5.88471 -1.17054 -53.6
    endloop
  endfacet
  facet normal 0 0 -1
    outer loop
      vertex 5.74164 -1.74171 -53.6
      vertex 5.74164 1.74171 -53.6
      vertex 5.88471 1.17054 -53.6
    endloop
  endfacet
  facet normal 0 0 -1
    outer loop
      vertex 5.54328 -2.2961 -53.6
      vertex 5.74164 1.74171 -53.6
      vertex 5.74164 -1.74171 -53.6
    endloop
  endfacet
  facet normal 0 0 -1
    outer loop
      vertex 5.54328 -2.2961 -53.6
      vertex 5.54328 2.2961 -53.6
      vertex 5.74164 1.74171 -53.6
    endloop
  endfacet
  facet normal 0 0 -1
    outer loop
      vertex 5.29153 -2.82838 -53.6
      vertex 5.54328 2.2961 -53.6
      vertex 5.54328 -2.2961 -53.6
    endloop
  endfacet
  facet normal 0 0 -1
    outer loop
      vertex 5.29153 -2.82838 -53.6
      vertex 5.29153 2.82838 -53.6
      vertex 5.54328 2.2961 -53.6
    endloop
  endfacet
  facet normal 0 0 -1
    outer loop
      vertex 4.98882 -3.33342 -53.6
      vertex 5.29153 2.82838 -53.6
      vertex 5.29153 -2.82838 -53.6
    endloop
  endfacet
  facet normal 0 0 -1
    outer loop
      vertex 4.98882 -3.33342 -53.6
      vertex 4.98882 3.33342 -53.6
      vertex 5.29153 2.82838 -53.6
    endloop
  endfacet
  facet normal 0 0 -1
    outer loop
      vertex 4.63806 -3.80636 -53.6
      vertex 4.98882 3.33342 -53.6
      vertex 4.98882 -3.33342 -53.6
    endloop
  endfacet
  facet normal 0 0 -1
    outer loop
      vertex 4.63806 -3.80636 -53.6
      vertex 4.63806 3.80636 -53.6
      vertex 4.98882 3.33342 -53.6
    endloop
  endfacet
  facet normal 0 0 -1
    outer loop
      vertex 4.24264 -4.24264 -53.6
      vertex 4.63806 3.80636 -53.6
      vertex 4.63806 -3.80636 -53.6
    endloop
  endfacet
  facet normal 0 0 -1
    outer loop
      vertex 4.24264 -4.24264 -53.6
      vertex 4.24264 4.24264 -53.6
      vertex 4.63806 3.80636 -53.6
    endloop
  endfacet
  facet normal 0 0 -1
    outer loop
      vertex 3.80636 -4.63806 -53.6
      vertex 4.24264 4.24264 -53.6
      vertex 4.24264 -4.24264 -53.6
    endloop
  endfacet
  facet normal 0 0 -1
    outer loop
      vertex 3.80636 -4.63806 -53.6
      vertex 3.80636 4.63806 -53.6
      vertex 4.24264 4.24264 -53.6
    endloop
  endfacet
  facet normal 0 0 -1
    outer loop
      vertex 3.33342 -4.98882 -53.6
      vertex 3.80636 4.63806 -53.6
      vertex 3.80636 -4.63806 -53.6
    endloop
  endfacet
  facet normal 0 0 -1
    outer loop
      vertex 3.33342 -4.98882 -53.6
      vertex 3.33342 4.98882 -53.6
      vertex 3.80636 4.63806 -53.6
    endloop
  endfacet
  facet normal 0 0 -1
    outer loop
      vertex 2.82838 -5.29153 -53.6
      vertex 3.33342 4.98882 -53.6
      vertex 3.33342 -4.98882 -53.6
    endloop
  endfacet
  facet normal 0 0 -1
    outer loop
      vertex 2.82838 -5.29153 -53.6
      vertex 2.82838 5.29153 -53.6
      vertex 3.33342 4.98882 -53.6
    endloop
  endfacet
  facet normal 0 0 -1
    outer loop
      vertex 2.2961 -5.54328 -53.6
      vertex 2.82838 5.29153 -53.6
      vertex 2.82838 -5.29153 -53.6
    endloop
  endfacet
  facet normal 0 0 -1
    outer loop
      vertex 2.2961 -5.54328 -53.6
      vertex 2.2961 5.54328 -53.6
      vertex 2.82838 5.29153 -53.6
    endloop
  endfacet
  facet normal 0 0 -1
    outer loop
      vertex 1.74171 -5.74164 -53.6
      vertex 2.2961 5.54328 -53.6
      vertex 2.2961 -5.54328 -53.6
    endloop
  endfacet
  facet normal 0 0 -1
    outer loop
      vertex 1.74171 -5.74164 -53.6
      vertex 1.74171 5.74164 -53.6
      vertex 2.2961 5.54328 -53.6
    endloop
  endfacet
  facet normal 0 0 -1
    outer loop
      vertex 1.17054 -5.88471 -53.6
      vertex 1.74171 5.74164 -53.6
      vertex 1.74171 -5.74164 -53.6
    endloop
  endfacet
  facet normal 0 0 -1
    outer loop
      vertex 1.17054 -5.88471 -53.6
      vertex 1.17054 5.88471 -53.6
      vertex 1.74171 5.74164 -53.6
    endloop
  endfacet
  facet normal 0 0 -1
    outer loop
      vertex 0.588102 -5.97111 -53.6
      vertex 1.17054 5.88471 -53.6
      vertex 1.17054 -5.88471 -53.6
    endloop
  endfacet
  facet normal 0 0 -1
    outer loop
      vertex 0.588102 -5.97111 -53.6
      vertex 0.588102 5.97111 -53.6
      vertex 1.17054 5.88471 -53.6
    endloop
  endfacet
  facet normal 0 0 -1
    outer loop
      vertex 0 -6 -53.6
      vertex 0.588102 5.97111 -53.6
      vertex 0.588102 -5.97111 -53.6
    endloop
  endfacet
  facet normal 0 0 -1
    outer loop
      vertex 0 -6 -53.6
      vertex 0 6 -53.6
      vertex 0.588102 5.97111 -53.6
    endloop
  endfacet
  facet normal 0 0 -1
    outer loop
      vertex -0.588102 -5.97111 -53.6
      vertex 0 6 -53.6
      vertex 0 -6 -53.6
    endloop
  endfacet
  facet normal 0 0 -1
    outer loop
      vertex -0.588102 -5.97111 -53.6
      vertex -0.588102 5.97111 -53.6
      vertex 0 6 -53.6
    endloop
  endfacet
  facet normal 0 0 -1
    outer loop
      vertex -1.17054 -5.88471 -53.6
      vertex -0.588102 5.97111 -53.6
      vertex -0.588102 -5.97111 -53.6
    endloop
  endfacet
  facet normal 0 0 -1
    outer loop
      vertex -1.17054 -5.88471 -53.6
      vertex -1.17054 5.88471 -53.6
      vertex -0.588102 5.97111 -53.6
    endloop
  endfacet
  facet normal 0 0 -1
    outer loop
      vertex -1.74171 -5.74164 -53.6
      vertex -1.17054 5.88471 -53.6
      vertex -1.17054 -5.88471 -53.6
    endloop
  endfacet
  facet normal 0 0 -1
    outer loop
      vertex -1.74171 -5.74164 -53.6
      vertex -1.74171 5.74164 -53.6
      vertex -1.17054 5.88471 -53.6
    endloop
  endfacet
  facet normal 0 0 -1
    outer loop
      vertex -2.2961 -5.54328 -53.6
      vertex -1.74171 5.74164 -53.6
      vertex -1.74171 -5.74164 -53.6
    endloop
  endfacet
  facet normal 0 0 -1
    outer loop
      vertex -2.2961 -5.54328 -53.6
      vertex -2.2961 5.54328 -53.6
      vertex -1.74171 5.74164 -53.6
    endloop
  endfacet
  facet normal 0 0 -1
    outer loop
      vertex -2.82838 -5.29153 -53.6
      vertex -2.2961 5.54328 -53.6
      vertex -2.2961 -5.54328 -53.6
    endloop
  endfacet
  facet normal 0 0 -1
    outer loop
      vertex -2.82838 -5.29153 -53.6
      vertex -2.82838 5.29153 -53.6
      vertex -2.2961 5.54328 -53.6
    endloop
  endfacet
  facet normal 0 0 -1
    outer loop
      vertex -3.33342 -4.98882 -53.6
      vertex -2.82838 5.29153 -53.6
      vertex -2.82838 -5.29153 -53.6
    endloop
  endfacet
  facet normal 0 0 -1
    outer loop
      vertex -3.33342 -4.98882 -53.6
      vertex -3.33342 4.98882 -53.6
      vertex -2.82838 5.29153 -53.6
    endloop
  endfacet
  facet normal 0 0 -1
    outer loop
      vertex -3.80636 -4.63806 -53.6
      vertex -3.33342 4.98882 -53.6
      vertex -3.33342 -4.98882 -53.6
    endloop
  endfacet
  facet normal 0 0 -1
    outer loop
      vertex -3.80636 -4.63806 -53.6
      vertex -3.80636 4.63806 -53.6
      vertex -3.33342 4.98882 -53.6
    endloop
  endfacet
  facet normal 0 0 -1
    outer loop
      vertex -4.24264 -4.24264 -53.6
      vertex -3.80636 4.63806 -53.6
      vertex -3.80636 -4.63806 -53.6
    endloop
  endfacet
  facet normal 0 0 -1
    outer loop
      vertex -4.24264 -4.24264 -53.6
      vertex -4.24264 4.24264 -53.6
      vertex -3.80636 4.63806 -53.6
    endloop
  endfacet
  facet normal 0 0 -1
    outer loop
      vertex -4.63806 -3.80636 -53.6
      vertex -4.24264 4.24264 -53.6
      vertex -4.24264 -4.24264 -53.6
    endloop
  endfacet
  facet normal 0 0 -1
    outer loop
      vertex -4.63806 -3.80636 -53.6
      vertex -4.63806 3.80636 -53.6
      vertex -4.24264 4.24264 -53.6
    endloop
  endfacet
  facet normal 0 0 -1
    outer loop
      vertex -4.98882 -3.33342 -53.6
      vertex -4.63806 3.80636 -53.6
      vertex -4.63806 -3.80636 -53.6
    endloop
  endfacet
  facet normal 0 0 -1
    outer loop
      vertex -4.98882 -3.33342 -53.6
      vertex -4.98882 3.33342 -53.6
      vertex -4.63806 3.80636 -53.6
    endloop
  endfacet
  facet normal 0 0 -1
    outer loop
      vertex -5.29153 -2.82838 -53.6
      vertex -4.98882 3.33342 -53.6
      vertex -4.98882 -3.33342 -53.6
    endloop
  endfacet
  facet normal 0 0 -1
    outer loop
      vertex -5.29153 -2.82838 -53.6
      vertex -5.29153 2.82838 -53.6
      vertex -4.98882 3.33342 -53.6
    endloop
  endfacet
  facet normal 0 0 -1
    outer loop
      vertex -5.54328 -2.2961 -53.6
      vertex -5.29153 2.82838 -53.6
      vertex -5.29153 -2.82838 -53.6
    endloop
  endfacet
  facet normal 0 0 -1
    outer loop
      vertex -5.54328 -2.2961 -53.6
      vertex -5.54328 2.2961 -53.6
      vertex -5.29153 2.82838 -53.6
    endloop
  endfacet
  facet normal 0 0 -1
    outer loop
      vertex -5.74164 -1.74171 -53.6
      vertex -5.54328 2.2961 -53.6
      vertex -5.54328 -2.2961 -53.6
    endloop
  endfacet
  facet normal 0 0 -1
    outer loop
      vertex -5.74164 -1.74171 -53.6
      vertex -5.74164 1.74171 -53.6
      vertex -5.54328 2.2961 -53.6
    endloop
  endfacet
  facet normal 0 0 -1
    outer loop
      vertex -5.88471 -1.17054 -53.6
      vertex -5.74164 1.74171 -53.6
      vertex -5.74164 -1.74171 -53.6
    endloop
  endfacet
  facet normal 0 0 -1
    outer loop
      vertex -5.88471 -1.17054 -53.6
      vertex -5.88471 1.17054 -53.6
      vertex -5.74164 1.74171 -53.6
    endloop
  endfacet
  facet normal 0 0 -1
    outer loop
      vertex -5.97111 -0.588102 -53.6
      vertex -5.88471 1.17054 -53.6
      vertex -5.88471 -1.17054 -53.6
    endloop
  endfacet
  facet normal 0 0 -1
    outer loop
      vertex -5.97111 -0.588102 -53.6
      vertex -5.97111 0.588102 -53.6
      vertex -5.88471 1.17054 -53.6
    endloop
  endfacet
  facet normal 0 -0 -1
    outer loop
      vertex -5.97111 0.588102 -53.6
      vertex -5.97111 -0.588102 -53.6
      vertex -6 0 -53.6
    endloop
  endfacet
  facet normal 0.857728 -0.514104 0
    outer loop
      vertex -5.29153 2.82838 -53.6
      vertex -4.98882 3.33342 -59.2
      vertex -4.98882 3.33342 -53.6
    endloop
  endfacet
  facet normal 0.857728 -0.514104 0
    outer loop
      vertex -4.98882 3.33342 -59.2
      vertex -5.29153 2.82838 -53.6
      vertex -5.29153 2.82838 -59.2
    endloop
  endfacet
endsolid OpenSCAD_Model
