solid OpenSCAD_Model
  facet normal 0.998796 0.0490603 0
    outer loop
      vertex 55 0 5
      vertex 54.7352 5.39094 0
      vertex 54.7352 5.39094 5
    endloop
  endfacet
  facet normal 0.998796 0.0490603 0
    outer loop
      vertex 54.7352 5.39094 0
      vertex 55 0 5
      vertex 55 0 0
    endloop
  endfacet
  facet normal 0.989176 0.146735 0
    outer loop
      vertex 54.7352 5.39094 5
      vertex 53.9432 10.73 0
      vertex 53.9432 10.73 5
    endloop
  endfacet
  facet normal 0.989176 0.146735 0
    outer loop
      vertex 53.9432 10.73 0
      vertex 54.7352 5.39094 5
      vertex 54.7352 5.39094 0
    endloop
  endfacet
  facet normal 0.97003 0.242985 0
    outer loop
      vertex 53.9432 10.73 5
      vertex 52.6317 15.9657 0
      vertex 52.6317 15.9657 5
    endloop
  endfacet
  facet normal 0.97003 0.242985 0
    outer loop
      vertex 52.6317 15.9657 0
      vertex 53.9432 10.73 5
      vertex 53.9432 10.73 0
    endloop
  endfacet
  facet normal 0.941546 0.336884 0
    outer loop
      vertex 52.6317 15.9657 5
      vertex 50.8134 21.0476 0
      vertex 50.8134 21.0476 5
    endloop
  endfacet
  facet normal 0.941546 0.336884 0
    outer loop
      vertex 50.8134 21.0476 0
      vertex 52.6317 15.9657 5
      vertex 52.6317 15.9657 0
    endloop
  endfacet
  facet normal 0.903989 0.427557 0
    outer loop
      vertex 50.8134 21.0476 5
      vertex 48.5057 25.9268 0
      vertex 48.5057 25.9268 5
    endloop
  endfacet
  facet normal 0.903989 0.427557 0
    outer loop
      vertex 48.5057 25.9268 0
      vertex 50.8134 21.0476 5
      vertex 50.8134 21.0476 0
    endloop
  endfacet
  facet normal 0.857727 0.514106 0
    outer loop
      vertex 48.5057 25.9268 5
      vertex 45.7308 30.5564 0
      vertex 45.7308 30.5564 5
    endloop
  endfacet
  facet normal 0.857727 0.514106 0
    outer loop
      vertex 45.7308 30.5564 0
      vertex 48.5057 25.9268 5
      vertex 48.5057 25.9268 0
    endloop
  endfacet
  facet normal 0.803208 0.595699 0
    outer loop
      vertex 45.7308 30.5564 5
      vertex 42.5156 34.8916 0
      vertex 42.5156 34.8916 5
    endloop
  endfacet
  facet normal 0.803208 0.595699 0
    outer loop
      vertex 42.5156 34.8916 0
      vertex 45.7308 30.5564 5
      vertex 45.7308 30.5564 0
    endloop
  endfacet
  facet normal 0.740956 0.671553 0
    outer loop
      vertex 42.5156 34.8916 5
      vertex 38.8909 38.8909 0
      vertex 38.8909 38.8909 5
    endloop
  endfacet
  facet normal 0.740956 0.671553 0
    outer loop
      vertex 38.8909 38.8909 0
      vertex 42.5156 34.8916 5
      vertex 42.5156 34.8916 0
    endloop
  endfacet
  facet normal 0.671553 0.740956 -0
    outer loop
      vertex 38.8909 38.8909 0
      vertex 34.8916 42.5156 5
      vertex 38.8909 38.8909 5
    endloop
  endfacet
  facet normal 0.671553 0.740956 0
    outer loop
      vertex 34.8916 42.5156 5
      vertex 38.8909 38.8909 0
      vertex 34.8916 42.5156 0
    endloop
  endfacet
  facet normal 0.595699 0.803208 -0
    outer loop
      vertex 34.8916 42.5156 0
      vertex 30.5564 45.7308 5
      vertex 34.8916 42.5156 5
    endloop
  endfacet
  facet normal 0.595699 0.803208 0
    outer loop
      vertex 30.5564 45.7308 5
      vertex 34.8916 42.5156 0
      vertex 30.5564 45.7308 0
    endloop
  endfacet
  facet normal 0.514106 0.857727 -0
    outer loop
      vertex 30.5564 45.7308 0
      vertex 25.9268 48.5057 5
      vertex 30.5564 45.7308 5
    endloop
  endfacet
  facet normal 0.514106 0.857727 0
    outer loop
      vertex 25.9268 48.5057 5
      vertex 30.5564 45.7308 0
      vertex 25.9268 48.5057 0
    endloop
  endfacet
  facet normal 0.427557 0.903989 -0
    outer loop
      vertex 25.9268 48.5057 0
      vertex 21.0476 50.8134 5
      vertex 25.9268 48.5057 5
    endloop
  endfacet
  facet normal 0.427557 0.903989 0
    outer loop
      vertex 21.0476 50.8134 5
      vertex 25.9268 48.5057 0
      vertex 21.0476 50.8134 0
    endloop
  endfacet
  facet normal 0.336884 0.941546 -0
    outer loop
      vertex 21.0476 50.8134 0
      vertex 15.9657 52.6317 5
      vertex 21.0476 50.8134 5
    endloop
  endfacet
  facet normal 0.336884 0.941546 0
    outer loop
      vertex 15.9657 52.6317 5
      vertex 21.0476 50.8134 0
      vertex 15.9657 52.6317 0
    endloop
  endfacet
  facet normal 0.242985 0.97003 -0
    outer loop
      vertex 15.9657 52.6317 0
      vertex 10.73 53.9432 5
      vertex 15.9657 52.6317 5
    endloop
  endfacet
  facet normal 0.242985 0.97003 0
    outer loop
      vertex 10.73 53.9432 5
      vertex 15.9657 52.6317 0
      vertex 10.73 53.9432 0
    endloop
  endfacet
  facet normal 0.146735 0.989176 -0
    outer loop
      vertex 10.73 53.9432 0
      vertex 5.39094 54.7352 5
      vertex 10.73 53.9432 5
    endloop
  endfacet
  facet normal 0.146735 0.989176 0
    outer loop
      vertex 5.39094 54.7352 5
      vertex 10.73 53.9432 0
      vertex 5.39094 54.7352 0
    endloop
  endfacet
  facet normal 0.0490603 0.998796 -0
    outer loop
      vertex 5.39094 54.7352 0
      vertex 0 55 5
      vertex 5.39094 54.7352 5
    endloop
  endfacet
  facet normal 0.0490603 0.998796 0
    outer loop
      vertex 0 55 5
      vertex 5.39094 54.7352 0
      vertex 0 55 0
    endloop
  endfacet
  facet normal -0.0490603 0.998796 0
    outer loop
      vertex 0 55 0
      vertex -5.39094 54.7352 5
      vertex 0 55 5
    endloop
  endfacet
  facet normal -0.0490603 0.998796 0
    outer loop
      vertex -5.39094 54.7352 5
      vertex 0 55 0
      vertex -5.39094 54.7352 0
    endloop
  endfacet
  facet normal -0.146735 0.989176 0
    outer loop
      vertex -5.39094 54.7352 0
      vertex -10.73 53.9432 5
      vertex -5.39094 54.7352 5
    endloop
  endfacet
  facet normal -0.146735 0.989176 0
    outer loop
      vertex -10.73 53.9432 5
      vertex -5.39094 54.7352 0
      vertex -10.73 53.9432 0
    endloop
  endfacet
  facet normal -0.242985 0.97003 0
    outer loop
      vertex -10.73 53.9432 0
      vertex -15.9657 52.6317 5
      vertex -10.73 53.9432 5
    endloop
  endfacet
  facet normal -0.242985 0.97003 0
    outer loop
      vertex -15.9657 52.6317 5
      vertex -10.73 53.9432 0
      vertex -15.9657 52.6317 0
    endloop
  endfacet
  facet normal -0.336884 0.941546 0
    outer loop
      vertex -15.9657 52.6317 0
      vertex -21.0476 50.8134 5
      vertex -15.9657 52.6317 5
    endloop
  endfacet
  facet normal -0.336884 0.941546 0
    outer loop
      vertex -21.0476 50.8134 5
      vertex -15.9657 52.6317 0
      vertex -21.0476 50.8134 0
    endloop
  endfacet
  facet normal -0.427557 0.903989 0
    outer loop
      vertex -21.0476 50.8134 0
      vertex -25.9268 48.5057 5
      vertex -21.0476 50.8134 5
    endloop
  endfacet
  facet normal -0.427557 0.903989 0
    outer loop
      vertex -25.9268 48.5057 5
      vertex -21.0476 50.8134 0
      vertex -25.9268 48.5057 0
    endloop
  endfacet
  facet normal -0.514106 0.857727 0
    outer loop
      vertex -25.9268 48.5057 0
      vertex -30.5564 45.7308 5
      vertex -25.9268 48.5057 5
    endloop
  endfacet
  facet normal -0.514106 0.857727 0
    outer loop
      vertex -30.5564 45.7308 5
      vertex -25.9268 48.5057 0
      vertex -30.5564 45.7308 0
    endloop
  endfacet
  facet normal -0.595699 0.803208 0
    outer loop
      vertex -30.5564 45.7308 0
      vertex -34.8916 42.5156 5
      vertex -30.5564 45.7308 5
    endloop
  endfacet
  facet normal -0.595699 0.803208 0
    outer loop
      vertex -34.8916 42.5156 5
      vertex -30.5564 45.7308 0
      vertex -34.8916 42.5156 0
    endloop
  endfacet
  facet normal -0.671553 0.740956 0
    outer loop
      vertex -34.8916 42.5156 0
      vertex -38.8909 38.8909 5
      vertex -34.8916 42.5156 5
    endloop
  endfacet
  facet normal -0.671553 0.740956 0
    outer loop
      vertex -38.8909 38.8909 5
      vertex -34.8916 42.5156 0
      vertex -38.8909 38.8909 0
    endloop
  endfacet
  facet normal -0.740956 0.671553 0
    outer loop
      vertex -42.5156 34.8916 0
      vertex -38.8909 38.8909 5
      vertex -38.8909 38.8909 0
    endloop
  endfacet
  facet normal -0.740956 0.671553 0
    outer loop
      vertex -38.8909 38.8909 5
      vertex -42.5156 34.8916 0
      vertex -42.5156 34.8916 5
    endloop
  endfacet
  facet normal -0.803208 0.595699 0
    outer loop
      vertex -45.7308 30.5564 0
      vertex -42.5156 34.8916 5
      vertex -42.5156 34.8916 0
    endloop
  endfacet
  facet normal -0.803208 0.595699 0
    outer loop
      vertex -42.5156 34.8916 5
      vertex -45.7308 30.5564 0
      vertex -45.7308 30.5564 5
    endloop
  endfacet
  facet normal -0.857727 0.514106 0
    outer loop
      vertex -48.5057 25.9268 0
      vertex -45.7308 30.5564 5
      vertex -45.7308 30.5564 0
    endloop
  endfacet
  facet normal -0.857727 0.514106 0
    outer loop
      vertex -45.7308 30.5564 5
      vertex -48.5057 25.9268 0
      vertex -48.5057 25.9268 5
    endloop
  endfacet
  facet normal -0.903989 0.427557 0
    outer loop
      vertex -50.8134 21.0476 0
      vertex -48.5057 25.9268 5
      vertex -48.5057 25.9268 0
    endloop
  endfacet
  facet normal -0.903989 0.427557 0
    outer loop
      vertex -48.5057 25.9268 5
      vertex -50.8134 21.0476 0
      vertex -50.8134 21.0476 5
    endloop
  endfacet
  facet normal -0.941546 0.336884 0
    outer loop
      vertex -52.6317 15.9657 0
      vertex -50.8134 21.0476 5
      vertex -50.8134 21.0476 0
    endloop
  endfacet
  facet normal -0.941546 0.336884 0
    outer loop
      vertex -50.8134 21.0476 5
      vertex -52.6317 15.9657 0
      vertex -52.6317 15.9657 5
    endloop
  endfacet
  facet normal -0.97003 0.242985 0
    outer loop
      vertex -53.9432 10.73 0
      vertex -52.6317 15.9657 5
      vertex -52.6317 15.9657 0
    endloop
  endfacet
  facet normal -0.97003 0.242985 0
    outer loop
      vertex -52.6317 15.9657 5
      vertex -53.9432 10.73 0
      vertex -53.9432 10.73 5
    endloop
  endfacet
  facet normal -0.989176 0.146735 0
    outer loop
      vertex -54.7352 5.39094 0
      vertex -53.9432 10.73 5
      vertex -53.9432 10.73 0
    endloop
  endfacet
  facet normal -0.989176 0.146735 0
    outer loop
      vertex -53.9432 10.73 5
      vertex -54.7352 5.39094 0
      vertex -54.7352 5.39094 5
    endloop
  endfacet
  facet normal -0.998796 0.0490603 0
    outer loop
      vertex -55 -0 0
      vertex -54.7352 5.39094 5
      vertex -54.7352 5.39094 0
    endloop
  endfacet
  facet normal -0.998796 0.0490603 0
    outer loop
      vertex -54.7352 5.39094 5
      vertex -55 -0 0
      vertex -55 -0 5
    endloop
  endfacet
  facet normal -0.998796 -0.0490603 0
    outer loop
      vertex -54.7352 -5.39094 0
      vertex -55 -0 5
      vertex -55 -0 0
    endloop
  endfacet
  facet normal -0.998796 -0.0490603 0
    outer loop
      vertex -55 -0 5
      vertex -54.7352 -5.39094 0
      vertex -54.7352 -5.39094 5
    endloop
  endfacet
  facet normal -0.989176 -0.146735 0
    outer loop
      vertex -53.9432 -10.73 0
      vertex -54.7352 -5.39094 5
      vertex -54.7352 -5.39094 0
    endloop
  endfacet
  facet normal -0.989176 -0.146735 0
    outer loop
      vertex -54.7352 -5.39094 5
      vertex -53.9432 -10.73 0
      vertex -53.9432 -10.73 5
    endloop
  endfacet
  facet normal -0.97003 -0.242985 0
    outer loop
      vertex -52.6317 -15.9657 0
      vertex -53.9432 -10.73 5
      vertex -53.9432 -10.73 0
    endloop
  endfacet
  facet normal -0.97003 -0.242985 0
    outer loop
      vertex -53.9432 -10.73 5
      vertex -52.6317 -15.9657 0
      vertex -52.6317 -15.9657 5
    endloop
  endfacet
  facet normal -0.941546 -0.336884 0
    outer loop
      vertex -50.8134 -21.0476 0
      vertex -52.6317 -15.9657 5
      vertex -52.6317 -15.9657 0
    endloop
  endfacet
  facet normal -0.941546 -0.336884 0
    outer loop
      vertex -52.6317 -15.9657 5
      vertex -50.8134 -21.0476 0
      vertex -50.8134 -21.0476 5
    endloop
  endfacet
  facet normal -0.903989 -0.427557 0
    outer loop
      vertex -48.5057 -25.9268 0
      vertex -50.8134 -21.0476 5
      vertex -50.8134 -21.0476 0
    endloop
  endfacet
  facet normal -0.903989 -0.427557 0
    outer loop
      vertex -50.8134 -21.0476 5
      vertex -48.5057 -25.9268 0
      vertex -48.5057 -25.9268 5
    endloop
  endfacet
  facet normal -0.857727 -0.514106 0
    outer loop
      vertex -45.7308 -30.5564 0
      vertex -48.5057 -25.9268 5
      vertex -48.5057 -25.9268 0
    endloop
  endfacet
  facet normal -0.857727 -0.514106 0
    outer loop
      vertex -48.5057 -25.9268 5
      vertex -45.7308 -30.5564 0
      vertex -45.7308 -30.5564 5
    endloop
  endfacet
  facet normal -0.803208 -0.595699 0
    outer loop
      vertex -42.5156 -34.8916 0
      vertex -45.7308 -30.5564 5
      vertex -45.7308 -30.5564 0
    endloop
  endfacet
  facet normal -0.803208 -0.595699 0
    outer loop
      vertex -45.7308 -30.5564 5
      vertex -42.5156 -34.8916 0
      vertex -42.5156 -34.8916 5
    endloop
  endfacet
  facet normal -0.740956 -0.671553 0
    outer loop
      vertex -38.8909 -38.8909 0
      vertex -42.5156 -34.8916 5
      vertex -42.5156 -34.8916 0
    endloop
  endfacet
  facet normal -0.740956 -0.671553 0
    outer loop
      vertex -42.5156 -34.8916 5
      vertex -38.8909 -38.8909 0
      vertex -38.8909 -38.8909 5
    endloop
  endfacet
  facet normal -0.671553 -0.740956 0
    outer loop
      vertex -38.8909 -38.8909 0
      vertex -34.8916 -42.5156 5
      vertex -38.8909 -38.8909 5
    endloop
  endfacet
  facet normal -0.671553 -0.740956 -0
    outer loop
      vertex -34.8916 -42.5156 5
      vertex -38.8909 -38.8909 0
      vertex -34.8916 -42.5156 0
    endloop
  endfacet
  facet normal -0.595699 -0.803208 0
    outer loop
      vertex -34.8916 -42.5156 0
      vertex -30.5564 -45.7308 5
      vertex -34.8916 -42.5156 5
    endloop
  endfacet
  facet normal -0.595699 -0.803208 -0
    outer loop
      vertex -30.5564 -45.7308 5
      vertex -34.8916 -42.5156 0
      vertex -30.5564 -45.7308 0
    endloop
  endfacet
  facet normal -0.514106 -0.857727 0
    outer loop
      vertex -30.5564 -45.7308 0
      vertex -25.9268 -48.5057 5
      vertex -30.5564 -45.7308 5
    endloop
  endfacet
  facet normal -0.514106 -0.857727 -0
    outer loop
      vertex -25.9268 -48.5057 5
      vertex -30.5564 -45.7308 0
      vertex -25.9268 -48.5057 0
    endloop
  endfacet
  facet normal -0.427557 -0.903989 0
    outer loop
      vertex -25.9268 -48.5057 0
      vertex -21.0476 -50.8134 5
      vertex -25.9268 -48.5057 5
    endloop
  endfacet
  facet normal -0.427557 -0.903989 -0
    outer loop
      vertex -21.0476 -50.8134 5
      vertex -25.9268 -48.5057 0
      vertex -21.0476 -50.8134 0
    endloop
  endfacet
  facet normal -0.336884 -0.941546 0
    outer loop
      vertex -21.0476 -50.8134 0
      vertex -15.9657 -52.6317 5
      vertex -21.0476 -50.8134 5
    endloop
  endfacet
  facet normal -0.336884 -0.941546 -0
    outer loop
      vertex -15.9657 -52.6317 5
      vertex -21.0476 -50.8134 0
      vertex -15.9657 -52.6317 0
    endloop
  endfacet
  facet normal -0.242985 -0.97003 0
    outer loop
      vertex -15.9657 -52.6317 0
      vertex -10.73 -53.9432 5
      vertex -15.9657 -52.6317 5
    endloop
  endfacet
  facet normal -0.242985 -0.97003 -0
    outer loop
      vertex -10.73 -53.9432 5
      vertex -15.9657 -52.6317 0
      vertex -10.73 -53.9432 0
    endloop
  endfacet
  facet normal -0.146735 -0.989176 0
    outer loop
      vertex -10.73 -53.9432 0
      vertex -5.39094 -54.7352 5
      vertex -10.73 -53.9432 5
    endloop
  endfacet
  facet normal -0.146735 -0.989176 -0
    outer loop
      vertex -5.39094 -54.7352 5
      vertex -10.73 -53.9432 0
      vertex -5.39094 -54.7352 0
    endloop
  endfacet
  facet normal -0.0490603 -0.998796 0
    outer loop
      vertex -5.39094 -54.7352 0
      vertex -0 -55 5
      vertex -5.39094 -54.7352 5
    endloop
  endfacet
  facet normal -0.0490603 -0.998796 -0
    outer loop
      vertex -0 -55 5
      vertex -5.39094 -54.7352 0
      vertex -0 -55 0
    endloop
  endfacet
  facet normal 0.0490603 -0.998796 0
    outer loop
      vertex -0 -55 0
      vertex 5.39094 -54.7352 5
      vertex -0 -55 5
    endloop
  endfacet
  facet normal 0.0490603 -0.998796 0
    outer loop
      vertex 5.39094 -54.7352 5
      vertex -0 -55 0
      vertex 5.39094 -54.7352 0
    endloop
  endfacet
  facet normal 0.146735 -0.989176 0
    outer loop
      vertex 5.39094 -54.7352 0
      vertex 10.73 -53.9432 5
      vertex 5.39094 -54.7352 5
    endloop
  endfacet
  facet normal 0.146735 -0.989176 0
    outer loop
      vertex 10.73 -53.9432 5
      vertex 5.39094 -54.7352 0
      vertex 10.73 -53.9432 0
    endloop
  endfacet
  facet normal 0.242985 -0.97003 0
    outer loop
      vertex 10.73 -53.9432 0
      vertex 15.9657 -52.6317 5
      vertex 10.73 -53.9432 5
    endloop
  endfacet
  facet normal 0.242985 -0.97003 0
    outer loop
      vertex 15.9657 -52.6317 5
      vertex 10.73 -53.9432 0
      vertex 15.9657 -52.6317 0
    endloop
  endfacet
  facet normal 0.336884 -0.941546 0
    outer loop
      vertex 15.9657 -52.6317 0
      vertex 21.0476 -50.8134 5
      vertex 15.9657 -52.6317 5
    endloop
  endfacet
  facet normal 0.336884 -0.941546 0
    outer loop
      vertex 21.0476 -50.8134 5
      vertex 15.9657 -52.6317 0
      vertex 21.0476 -50.8134 0
    endloop
  endfacet
  facet normal 0.427557 -0.903989 0
    outer loop
      vertex 21.0476 -50.8134 0
      vertex 25.9268 -48.5057 5
      vertex 21.0476 -50.8134 5
    endloop
  endfacet
  facet normal 0.427557 -0.903989 0
    outer loop
      vertex 25.9268 -48.5057 5
      vertex 21.0476 -50.8134 0
      vertex 25.9268 -48.5057 0
    endloop
  endfacet
  facet normal 0.514106 -0.857727 0
    outer loop
      vertex 25.9268 -48.5057 0
      vertex 30.5564 -45.7308 5
      vertex 25.9268 -48.5057 5
    endloop
  endfacet
  facet normal 0.514106 -0.857727 0
    outer loop
      vertex 30.5564 -45.7308 5
      vertex 25.9268 -48.5057 0
      vertex 30.5564 -45.7308 0
    endloop
  endfacet
  facet normal 0.595699 -0.803208 0
    outer loop
      vertex 30.5564 -45.7308 0
      vertex 34.8916 -42.5156 5
      vertex 30.5564 -45.7308 5
    endloop
  endfacet
  facet normal 0.595699 -0.803208 0
    outer loop
      vertex 34.8916 -42.5156 5
      vertex 30.5564 -45.7308 0
      vertex 34.8916 -42.5156 0
    endloop
  endfacet
  facet normal 0.671553 -0.740956 0
    outer loop
      vertex 34.8916 -42.5156 0
      vertex 38.8909 -38.8909 5
      vertex 34.8916 -42.5156 5
    endloop
  endfacet
  facet normal 0.671553 -0.740956 0
    outer loop
      vertex 38.8909 -38.8909 5
      vertex 34.8916 -42.5156 0
      vertex 38.8909 -38.8909 0
    endloop
  endfacet
  facet normal 0.740956 -0.671553 0
    outer loop
      vertex 38.8909 -38.8909 5
      vertex 42.5156 -34.8916 0
      vertex 42.5156 -34.8916 5
    endloop
  endfacet
  facet normal 0.740956 -0.671553 0
    outer loop
      vertex 42.5156 -34.8916 0
      vertex 38.8909 -38.8909 5
      vertex 38.8909 -38.8909 0
    endloop
  endfacet
  facet normal 0.803208 -0.595699 0
    outer loop
      vertex 42.5156 -34.8916 5
      vertex 45.7308 -30.5564 0
      vertex 45.7308 -30.5564 5
    endloop
  endfacet
  facet normal 0.803208 -0.595699 0
    outer loop
      vertex 45.7308 -30.5564 0
      vertex 42.5156 -34.8916 5
      vertex 42.5156 -34.8916 0
    endloop
  endfacet
  facet normal 0.857727 -0.514106 0
    outer loop
      vertex 45.7308 -30.5564 5
      vertex 48.5057 -25.9268 0
      vertex 48.5057 -25.9268 5
    endloop
  endfacet
  facet normal 0.857727 -0.514106 0
    outer loop
      vertex 48.5057 -25.9268 0
      vertex 45.7308 -30.5564 5
      vertex 45.7308 -30.5564 0
    endloop
  endfacet
  facet normal 0.903989 -0.427557 0
    outer loop
      vertex 48.5057 -25.9268 5
      vertex 50.8134 -21.0476 0
      vertex 50.8134 -21.0476 5
    endloop
  endfacet
  facet normal 0.903989 -0.427557 0
    outer loop
      vertex 50.8134 -21.0476 0
      vertex 48.5057 -25.9268 5
      vertex 48.5057 -25.9268 0
    endloop
  endfacet
  facet normal 0.941546 -0.336884 0
    outer loop
      vertex 50.8134 -21.0476 5
      vertex 52.6317 -15.9657 0
      vertex 52.6317 -15.9657 5
    endloop
  endfacet
  facet normal 0.941546 -0.336884 0
    outer loop
      vertex 52.6317 -15.9657 0
      vertex 50.8134 -21.0476 5
      vertex 50.8134 -21.0476 0
    endloop
  endfacet
  facet normal 0.97003 -0.242985 0
    outer loop
      vertex 52.6317 -15.9657 5
      vertex 53.9432 -10.73 0
      vertex 53.9432 -10.73 5
    endloop
  endfacet
  facet normal 0.97003 -0.242985 0
    outer loop
      vertex 53.9432 -10.73 0
      vertex 52.6317 -15.9657 5
      vertex 52.6317 -15.9657 0
    endloop
  endfacet
  facet normal 0.989176 -0.146735 0
    outer loop
      vertex 53.9432 -10.73 5
      vertex 54.7352 -5.39094 0
      vertex 54.7352 -5.39094 5
    endloop
  endfacet
  facet normal 0.989176 -0.146735 0
    outer loop
      vertex 54.7352 -5.39094 0
      vertex 53.9432 -10.73 5
      vertex 53.9432 -10.73 0
    endloop
  endfacet
  facet normal 0.998796 -0.0490603 0
    outer loop
      vertex 54.7352 -5.39094 5
      vertex 55 0 0
      vertex 55 0 5
    endloop
  endfacet
  facet normal 0.998796 -0.0490603 0
    outer loop
      vertex 55 0 0
      vertex 54.7352 -5.39094 5
      vertex 54.7352 -5.39094 0
    endloop
  endfacet
  facet normal 0 0 -1
    outer loop
      vertex 54.7352 -5.39094 0
      vertex 54.7352 5.39094 0
      vertex 55 0 0
    endloop
  endfacet
  facet normal 0 0 -1
    outer loop
      vertex 53.9432 -10.73 0
      vertex 54.7352 5.39094 0
      vertex 54.7352 -5.39094 0
    endloop
  endfacet
  facet normal 0 0 -1
    outer loop
      vertex 53.9432 -10.73 0
      vertex 53.9432 10.73 0
      vertex 54.7352 5.39094 0
    endloop
  endfacet
  facet normal 0 0 -1
    outer loop
      vertex 52.6317 -15.9657 0
      vertex 53.9432 10.73 0
      vertex 53.9432 -10.73 0
    endloop
  endfacet
  facet normal 0 0 -1
    outer loop
      vertex 52.6317 -15.9657 0
      vertex 52.6317 15.9657 0
      vertex 53.9432 10.73 0
    endloop
  endfacet
  facet normal 0 0 -1
    outer loop
      vertex 50.8134 -21.0476 0
      vertex 52.6317 15.9657 0
      vertex 52.6317 -15.9657 0
    endloop
  endfacet
  facet normal 0 0 -1
    outer loop
      vertex 50.8134 -21.0476 0
      vertex 50.8134 21.0476 0
      vertex 52.6317 15.9657 0
    endloop
  endfacet
  facet normal 0 0 -1
    outer loop
      vertex 48.5057 -25.9268 0
      vertex 50.8134 21.0476 0
      vertex 50.8134 -21.0476 0
    endloop
  endfacet
  facet normal 0 0 -1
    outer loop
      vertex 48.5057 -25.9268 0
      vertex 48.5057 25.9268 0
      vertex 50.8134 21.0476 0
    endloop
  endfacet
  facet normal 0 0 -1
    outer loop
      vertex 45.7308 -30.5564 0
      vertex 48.5057 25.9268 0
      vertex 48.5057 -25.9268 0
    endloop
  endfacet
  facet normal 0 0 -1
    outer loop
      vertex 45.7308 -30.5564 0
      vertex 45.7308 30.5564 0
      vertex 48.5057 25.9268 0
    endloop
  endfacet
  facet normal 0 0 -1
    outer loop
      vertex 42.5156 -34.8916 0
      vertex 45.7308 30.5564 0
      vertex 45.7308 -30.5564 0
    endloop
  endfacet
  facet normal 0 0 -1
    outer loop
      vertex 42.5156 -34.8916 0
      vertex 42.5156 34.8916 0
      vertex 45.7308 30.5564 0
    endloop
  endfacet
  facet normal 0 0 -1
    outer loop
      vertex 38.8909 -38.8909 0
      vertex 42.5156 34.8916 0
      vertex 42.5156 -34.8916 0
    endloop
  endfacet
  facet normal 0 0 -1
    outer loop
      vertex 38.8909 -38.8909 0
      vertex 38.8909 38.8909 0
      vertex 42.5156 34.8916 0
    endloop
  endfacet
  facet normal 0 0 -1
    outer loop
      vertex 34.8916 -42.5156 0
      vertex 38.8909 38.8909 0
      vertex 38.8909 -38.8909 0
    endloop
  endfacet
  facet normal 0 0 -1
    outer loop
      vertex 34.8916 -42.5156 0
      vertex 34.8916 42.5156 0
      vertex 38.8909 38.8909 0
    endloop
  endfacet
  facet normal 0 0 -1
    outer loop
      vertex 30.5564 -45.7308 0
      vertex 34.8916 42.5156 0
      vertex 34.8916 -42.5156 0
    endloop
  endfacet
  facet normal 0 0 -1
    outer loop
      vertex 30.5564 -45.7308 0
      vertex 30.5564 45.7308 0
      vertex 34.8916 42.5156 0
    endloop
  endfacet
  facet normal 0 0 -1
    outer loop
      vertex 25.9268 -48.5057 0
      vertex 30.5564 45.7308 0
      vertex 30.5564 -45.7308 0
    endloop
  endfacet
  facet normal 0 0 -1
    outer loop
      vertex 25.9268 -48.5057 0
      vertex 25.9268 48.5057 0
      vertex 30.5564 45.7308 0
    endloop
  endfacet
  facet normal 0 0 -1
    outer loop
      vertex 21.0476 -50.8134 0
      vertex 25.9268 48.5057 0
      vertex 25.9268 -48.5057 0
    endloop
  endfacet
  facet normal 0 0 -1
    outer loop
      vertex 21.0476 -50.8134 0
      vertex 21.0476 50.8134 0
      vertex 25.9268 48.5057 0
    endloop
  endfacet
  facet normal 0 0 -1
    outer loop
      vertex 15.9657 -52.6317 0
      vertex 21.0476 50.8134 0
      vertex 21.0476 -50.8134 0
    endloop
  endfacet
  facet normal 0 0 -1
    outer loop
      vertex 15.9657 -52.6317 0
      vertex 15.9657 52.6317 0
      vertex 21.0476 50.8134 0
    endloop
  endfacet
  facet normal 0 0 -1
    outer loop
      vertex 10.73 -53.9432 0
      vertex 15.9657 52.6317 0
      vertex 15.9657 -52.6317 0
    endloop
  endfacet
  facet normal 0 0 -1
    outer loop
      vertex 10.73 -53.9432 0
      vertex 10.73 53.9432 0
      vertex 15.9657 52.6317 0
    endloop
  endfacet
  facet normal 0 0 -1
    outer loop
      vertex 5.39094 -54.7352 0
      vertex 10.73 53.9432 0
      vertex 10.73 -53.9432 0
    endloop
  endfacet
  facet normal 0 0 -1
    outer loop
      vertex 5.39094 -54.7352 0
      vertex 5.39094 54.7352 0
      vertex 10.73 53.9432 0
    endloop
  endfacet
  facet normal 0 0 -1
    outer loop
      vertex -0 -55 0
      vertex 5.39094 54.7352 0
      vertex 5.39094 -54.7352 0
    endloop
  endfacet
  facet normal 0 0 -1
    outer loop
      vertex -0 -55 0
      vertex 0 55 0
      vertex 5.39094 54.7352 0
    endloop
  endfacet
  facet normal 0 0 -1
    outer loop
      vertex -5.39094 -54.7352 0
      vertex 0 55 0
      vertex -0 -55 0
    endloop
  endfacet
  facet normal 0 0 -1
    outer loop
      vertex -5.39094 -54.7352 0
      vertex -5.39094 54.7352 0
      vertex 0 55 0
    endloop
  endfacet
  facet normal 0 0 -1
    outer loop
      vertex -10.73 -53.9432 0
      vertex -5.39094 54.7352 0
      vertex -5.39094 -54.7352 0
    endloop
  endfacet
  facet normal 0 0 -1
    outer loop
      vertex -10.73 -53.9432 0
      vertex -10.73 53.9432 0
      vertex -5.39094 54.7352 0
    endloop
  endfacet
  facet normal 0 0 -1
    outer loop
      vertex -15.9657 -52.6317 0
      vertex -10.73 53.9432 0
      vertex -10.73 -53.9432 0
    endloop
  endfacet
  facet normal 0 0 -1
    outer loop
      vertex -15.9657 -52.6317 0
      vertex -15.9657 52.6317 0
      vertex -10.73 53.9432 0
    endloop
  endfacet
  facet normal 0 0 -1
    outer loop
      vertex -21.0476 -50.8134 0
      vertex -15.9657 52.6317 0
      vertex -15.9657 -52.6317 0
    endloop
  endfacet
  facet normal 0 0 -1
    outer loop
      vertex -21.0476 -50.8134 0
      vertex -21.0476 50.8134 0
      vertex -15.9657 52.6317 0
    endloop
  endfacet
  facet normal 0 0 -1
    outer loop
      vertex -25.9268 -48.5057 0
      vertex -21.0476 50.8134 0
      vertex -21.0476 -50.8134 0
    endloop
  endfacet
  facet normal 0 0 -1
    outer loop
      vertex -25.9268 -48.5057 0
      vertex -25.9268 48.5057 0
      vertex -21.0476 50.8134 0
    endloop
  endfacet
  facet normal 0 0 -1
    outer loop
      vertex -30.5564 -45.7308 0
      vertex -25.9268 48.5057 0
      vertex -25.9268 -48.5057 0
    endloop
  endfacet
  facet normal 0 0 -1
    outer loop
      vertex -30.5564 -45.7308 0
      vertex -30.5564 45.7308 0
      vertex -25.9268 48.5057 0
    endloop
  endfacet
  facet normal 0 0 -1
    outer loop
      vertex -34.8916 -42.5156 0
      vertex -30.5564 45.7308 0
      vertex -30.5564 -45.7308 0
    endloop
  endfacet
  facet normal 0 0 -1
    outer loop
      vertex -34.8916 -42.5156 0
      vertex -34.8916 42.5156 0
      vertex -30.5564 45.7308 0
    endloop
  endfacet
  facet normal 0 0 -1
    outer loop
      vertex -38.8909 -38.8909 0
      vertex -34.8916 42.5156 0
      vertex -34.8916 -42.5156 0
    endloop
  endfacet
  facet normal 0 0 -1
    outer loop
      vertex -38.8909 -38.8909 0
      vertex -38.8909 38.8909 0
      vertex -34.8916 42.5156 0
    endloop
  endfacet
  facet normal 0 0 -1
    outer loop
      vertex -42.5156 -34.8916 0
      vertex -38.8909 38.8909 0
      vertex -38.8909 -38.8909 0
    endloop
  endfacet
  facet normal 0 0 -1
    outer loop
      vertex -42.5156 -34.8916 0
      vertex -42.5156 34.8916 0
      vertex -38.8909 38.8909 0
    endloop
  endfacet
  facet normal 0 0 -1
    outer loop
      vertex -45.7308 -30.5564 0
      vertex -42.5156 34.8916 0
      vertex -42.5156 -34.8916 0
    endloop
  endfacet
  facet normal 0 0 -1
    outer loop
      vertex -45.7308 -30.5564 0
      vertex -45.7308 30.5564 0
      vertex -42.5156 34.8916 0
    endloop
  endfacet
  facet normal 0 0 -1
    outer loop
      vertex -48.5057 -25.9268 0
      vertex -45.7308 30.5564 0
      vertex -45.7308 -30.5564 0
    endloop
  endfacet
  facet normal 0 0 -1
    outer loop
      vertex -48.5057 -25.9268 0
      vertex -48.5057 25.9268 0
      vertex -45.7308 30.5564 0
    endloop
  endfacet
  facet normal 0 0 -1
    outer loop
      vertex -50.8134 -21.0476 0
      vertex -48.5057 25.9268 0
      vertex -48.5057 -25.9268 0
    endloop
  endfacet
  facet normal 0 0 -1
    outer loop
      vertex -50.8134 -21.0476 0
      vertex -50.8134 21.0476 0
      vertex -48.5057 25.9268 0
    endloop
  endfacet
  facet normal 0 0 -1
    outer loop
      vertex -52.6317 -15.9657 0
      vertex -50.8134 21.0476 0
      vertex -50.8134 -21.0476 0
    endloop
  endfacet
  facet normal 0 0 -1
    outer loop
      vertex -52.6317 -15.9657 0
      vertex -52.6317 15.9657 0
      vertex -50.8134 21.0476 0
    endloop
  endfacet
  facet normal 0 0 -1
    outer loop
      vertex -53.9432 -10.73 0
      vertex -52.6317 15.9657 0
      vertex -52.6317 -15.9657 0
    endloop
  endfacet
  facet normal 0 0 -1
    outer loop
      vertex -53.9432 -10.73 0
      vertex -53.9432 10.73 0
      vertex -52.6317 15.9657 0
    endloop
  endfacet
  facet normal 0 0 -1
    outer loop
      vertex -54.7352 -5.39094 0
      vertex -53.9432 10.73 0
      vertex -53.9432 -10.73 0
    endloop
  endfacet
  facet normal 0 0 -1
    outer loop
      vertex -54.7352 -5.39094 0
      vertex -54.7352 5.39094 0
      vertex -53.9432 10.73 0
    endloop
  endfacet
  facet normal 0 -0 -1
    outer loop
      vertex -54.7352 5.39094 0
      vertex -54.7352 -5.39094 0
      vertex -55 -0 0
    endloop
  endfacet
  facet normal 0 0 1
    outer loop
      vertex 54.7352 5.39094 5
      vertex 54.7352 -5.39094 5
      vertex 55 0 5
    endloop
  endfacet
  facet normal 0 0 1
    outer loop
      vertex 53.9432 10.73 5
      vertex 54.7352 -5.39094 5
      vertex 54.7352 5.39094 5
    endloop
  endfacet
  facet normal 0 0 1
    outer loop
      vertex 53.9432 10.73 5
      vertex 53.9432 -10.73 5
      vertex 54.7352 -5.39094 5
    endloop
  endfacet
  facet normal 0 0 1
    outer loop
      vertex 52.6317 15.9657 5
      vertex 53.9432 -10.73 5
      vertex 53.9432 10.73 5
    endloop
  endfacet
  facet normal 0 0 1
    outer loop
      vertex 52.6317 15.9657 5
      vertex 52.6317 -15.9657 5
      vertex 53.9432 -10.73 5
    endloop
  endfacet
  facet normal 0 0 1
    outer loop
      vertex 50.8134 21.0476 5
      vertex 52.6317 -15.9657 5
      vertex 52.6317 15.9657 5
    endloop
  endfacet
  facet normal 0 0 1
    outer loop
      vertex 50.8134 21.0476 5
      vertex 50.8134 -21.0476 5
      vertex 52.6317 -15.9657 5
    endloop
  endfacet
  facet normal 0 0 1
    outer loop
      vertex 48.5057 25.9268 5
      vertex 50.8134 -21.0476 5
      vertex 50.8134 21.0476 5
    endloop
  endfacet
  facet normal 0 0 1
    outer loop
      vertex 48.5057 25.9268 5
      vertex 48.5057 -25.9268 5
      vertex 50.8134 -21.0476 5
    endloop
  endfacet
  facet normal 0 0 1
    outer loop
      vertex 45.7308 30.5564 5
      vertex 48.5057 -25.9268 5
      vertex 48.5057 25.9268 5
    endloop
  endfacet
  facet normal 0 0 1
    outer loop
      vertex 45.7308 30.5564 5
      vertex 45.7308 -30.5564 5
      vertex 48.5057 -25.9268 5
    endloop
  endfacet
  facet normal 0 0 1
    outer loop
      vertex 42.5156 34.8916 5
      vertex 45.7308 -30.5564 5
      vertex 45.7308 30.5564 5
    endloop
  endfacet
  facet normal 0 0 1
    outer loop
      vertex 42.5156 34.8916 5
      vertex 42.5156 -34.8916 5
      vertex 45.7308 -30.5564 5
    endloop
  endfacet
  facet normal 0 0 1
    outer loop
      vertex 38.8909 38.8909 5
      vertex 42.5156 -34.8916 5
      vertex 42.5156 34.8916 5
    endloop
  endfacet
  facet normal 0 0 1
    outer loop
      vertex 38.8909 38.8909 5
      vertex 38.8909 -38.8909 5
      vertex 42.5156 -34.8916 5
    endloop
  endfacet
  facet normal 0 0 1
    outer loop
      vertex 34.8916 42.5156 5
      vertex 38.8909 -38.8909 5
      vertex 38.8909 38.8909 5
    endloop
  endfacet
  facet normal 0 0 1
    outer loop
      vertex 34.8916 42.5156 5
      vertex 34.8916 -42.5156 5
      vertex 38.8909 -38.8909 5
    endloop
  endfacet
  facet normal 0 0 1
    outer loop
      vertex 30.5564 45.7308 5
      vertex 34.8916 -42.5156 5
      vertex 34.8916 42.5156 5
    endloop
  endfacet
  facet normal 0 0 1
    outer loop
      vertex 30.5564 45.7308 5
      vertex 30.5564 -45.7308 5
      vertex 34.8916 -42.5156 5
    endloop
  endfacet
  facet normal 0 0 1
    outer loop
      vertex 25.9268 48.5057 5
      vertex 30.5564 -45.7308 5
      vertex 30.5564 45.7308 5
    endloop
  endfacet
  facet normal 0 0 1
    outer loop
      vertex 25.9268 48.5057 5
      vertex 25.9268 -48.5057 5
      vertex 30.5564 -45.7308 5
    endloop
  endfacet
  facet normal 0 0 1
    outer loop
      vertex 21.0476 50.8134 5
      vertex 25.9268 -48.5057 5
      vertex 25.9268 48.5057 5
    endloop
  endfacet
  facet normal 0 0 1
    outer loop
      vertex 21.0476 50.8134 5
      vertex 21.0476 -50.8134 5
      vertex 25.9268 -48.5057 5
    endloop
  endfacet
  facet normal 0 0 1
    outer loop
      vertex 15.9657 52.6317 5
      vertex 21.0476 -50.8134 5
      vertex 21.0476 50.8134 5
    endloop
  endfacet
  facet normal 0 0 1
    outer loop
      vertex 15.9657 52.6317 5
      vertex 15.9657 -52.6317 5
      vertex 21.0476 -50.8134 5
    endloop
  endfacet
  facet normal 0 0 1
    outer loop
      vertex 10.73 53.9432 5
      vertex 15.9657 -52.6317 5
      vertex 15.9657 52.6317 5
    endloop
  endfacet
  facet normal 0 0 1
    outer loop
      vertex 10.73 53.9432 5
      vertex 10.73 -53.9432 5
      vertex 15.9657 -52.6317 5
    endloop
  endfacet
  facet normal 0 0 1
    outer loop
      vertex 5.39094 54.7352 5
      vertex 10.73 -53.9432 5
      vertex 10.73 53.9432 5
    endloop
  endfacet
  facet normal 0 0 1
    outer loop
      vertex 5.39094 54.7352 5
      vertex 5.39094 -54.7352 5
      vertex 10.73 -53.9432 5
    endloop
  endfacet
  facet normal 0 0 1
    outer loop
      vertex 0 55 5
      vertex 5.39094 -54.7352 5
      vertex 5.39094 54.7352 5
    endloop
  endfacet
  facet normal 0 0 1
    outer loop
      vertex 0 55 5
      vertex -0 -55 5
      vertex 5.39094 -54.7352 5
    endloop
  endfacet
  facet normal -0 0 1
    outer loop
      vertex -5.39094 54.7352 5
      vertex -0 -55 5
      vertex 0 55 5
    endloop
  endfacet
  facet normal 0 0 1
    outer loop
      vertex -5.39094 54.7352 5
      vertex -5.39094 -54.7352 5
      vertex -0 -55 5
    endloop
  endfacet
  facet normal -0 0 1
    outer loop
      vertex -10.73 53.9432 5
      vertex -5.39094 -54.7352 5
      vertex -5.39094 54.7352 5
    endloop
  endfacet
  facet normal 0 0 1
    outer loop
      vertex -10.73 53.9432 5
      vertex -10.73 -53.9432 5
      vertex -5.39094 -54.7352 5
    endloop
  endfacet
  facet normal -0 0 1
    outer loop
      vertex -15.9657 52.6317 5
      vertex -10.73 -53.9432 5
      vertex -10.73 53.9432 5
    endloop
  endfacet
  facet normal 0 0 1
    outer loop
      vertex -15.9657 52.6317 5
      vertex -15.9657 -52.6317 5
      vertex -10.73 -53.9432 5
    endloop
  endfacet
  facet normal -0 0 1
    outer loop
      vertex -21.0476 50.8134 5
      vertex -15.9657 -52.6317 5
      vertex -15.9657 52.6317 5
    endloop
  endfacet
  facet normal 0 0 1
    outer loop
      vertex -21.0476 50.8134 5
      vertex -21.0476 -50.8134 5
      vertex -15.9657 -52.6317 5
    endloop
  endfacet
  facet normal -0 0 1
    outer loop
      vertex -25.9268 48.5057 5
      vertex -21.0476 -50.8134 5
      vertex -21.0476 50.8134 5
    endloop
  endfacet
  facet normal 0 0 1
    outer loop
      vertex -25.9268 48.5057 5
      vertex -25.9268 -48.5057 5
      vertex -21.0476 -50.8134 5
    endloop
  endfacet
  facet normal -0 0 1
    outer loop
      vertex -30.5564 45.7308 5
      vertex -25.9268 -48.5057 5
      vertex -25.9268 48.5057 5
    endloop
  endfacet
  facet normal 0 0 1
    outer loop
      vertex -30.5564 45.7308 5
      vertex -30.5564 -45.7308 5
      vertex -25.9268 -48.5057 5
    endloop
  endfacet
  facet normal -0 0 1
    outer loop
      vertex -34.8916 42.5156 5
      vertex -30.5564 -45.7308 5
      vertex -30.5564 45.7308 5
    endloop
  endfacet
  facet normal 0 0 1
    outer loop
      vertex -34.8916 42.5156 5
      vertex -34.8916 -42.5156 5
      vertex -30.5564 -45.7308 5
    endloop
  endfacet
  facet normal -0 0 1
    outer loop
      vertex -38.8909 38.8909 5
      vertex -34.8916 -42.5156 5
      vertex -34.8916 42.5156 5
    endloop
  endfacet
  facet normal 0 0 1
    outer loop
      vertex -38.8909 38.8909 5
      vertex -38.8909 -38.8909 5
      vertex -34.8916 -42.5156 5
    endloop
  endfacet
  facet normal -0 0 1
    outer loop
      vertex -42.5156 34.8916 5
      vertex -38.8909 -38.8909 5
      vertex -38.8909 38.8909 5
    endloop
  endfacet
  facet normal 0 0 1
    outer loop
      vertex -42.5156 34.8916 5
      vertex -42.5156 -34.8916 5
      vertex -38.8909 -38.8909 5
    endloop
  endfacet
  facet normal -0 0 1
    outer loop
      vertex -45.7308 30.5564 5
      vertex -42.5156 -34.8916 5
      vertex -42.5156 34.8916 5
    endloop
  endfacet
  facet normal 0 0 1
    outer loop
      vertex -45.7308 30.5564 5
      vertex -45.7308 -30.5564 5
      vertex -42.5156 -34.8916 5
    endloop
  endfacet
  facet normal -0 0 1
    outer loop
      vertex -48.5057 25.9268 5
      vertex -45.7308 -30.5564 5
      vertex -45.7308 30.5564 5
    endloop
  endfacet
  facet normal 0 0 1
    outer loop
      vertex -48.5057 25.9268 5
      vertex -48.5057 -25.9268 5
      vertex -45.7308 -30.5564 5
    endloop
  endfacet
  facet normal -0 0 1
    outer loop
      vertex -50.8134 21.0476 5
      vertex -48.5057 -25.9268 5
      vertex -48.5057 25.9268 5
    endloop
  endfacet
  facet normal 0 0 1
    outer loop
      vertex -50.8134 21.0476 5
      vertex -50.8134 -21.0476 5
      vertex -48.5057 -25.9268 5
    endloop
  endfacet
  facet normal -0 0 1
    outer loop
      vertex -52.6317 15.9657 5
      vertex -50.8134 -21.0476 5
      vertex -50.8134 21.0476 5
    endloop
  endfacet
  facet normal 0 0 1
    outer loop
      vertex -52.6317 15.9657 5
      vertex -52.6317 -15.9657 5
      vertex -50.8134 -21.0476 5
    endloop
  endfacet
  facet normal -0 0 1
    outer loop
      vertex -53.9432 10.73 5
      vertex -52.6317 -15.9657 5
      vertex -52.6317 15.9657 5
    endloop
  endfacet
  facet normal 0 0 1
    outer loop
      vertex -53.9432 10.73 5
      vertex -53.9432 -10.73 5
      vertex -52.6317 -15.9657 5
    endloop
  endfacet
  facet normal -0 0 1
    outer loop
      vertex -54.7352 5.39094 5
      vertex -53.9432 -10.73 5
      vertex -53.9432 10.73 5
    endloop
  endfacet
  facet normal 0 0 1
    outer loop
      vertex -54.7352 5.39094 5
      vertex -54.7352 -5.39094 5
      vertex -53.9432 -10.73 5
    endloop
  endfacet
  facet normal 0 -0 1
    outer loop
      vertex -54.7352 -5.39094 5
      vertex -54.7352 5.39094 5
      vertex -55 -0 5
    endloop
  endfacet
endsolid OpenSCAD_Model
