solid OpenSCAD_Model
  facet normal 1 -0 0
    outer loop
      vertex 23.9 -14.4 9.7
      vertex 23.9 14.4 7.7
      vertex 23.9 14.4 9.7
    endloop
  endfacet
  facet normal 1 0 0
    outer loop
      vertex 23.9 14.4 7.7
      vertex 23.9 -14.4 9.7
      vertex 23.9 -14.4 7.7
    endloop
  endfacet
  facet normal -0 0 1
    outer loop
      vertex -23.9 14.4 9.7
      vertex 23.9 -14.4 9.7
      vertex 23.9 14.4 9.7
    endloop
  endfacet
  facet normal 0 0 1
    outer loop
      vertex 23.9 -14.4 9.7
      vertex -23.9 14.4 9.7
      vertex -23.9 -14.4 9.7
    endloop
  endfacet
  facet normal 0 0 -1
    outer loop
      vertex 23.9 -14.4 7.7
      vertex 18 -9 7.7
      vertex 23.9 14.4 7.7
    endloop
  endfacet
  facet normal 0 0 -1
    outer loop
      vertex 23.9 -14.4 7.7
      vertex -18 -9 7.7
      vertex 18 -9 7.7
    endloop
  endfacet
  facet normal -0 0 -1
    outer loop
      vertex -18 -9 7.7
      vertex -23.9 -14.4 7.7
      vertex -18 9 7.7
    endloop
  endfacet
  facet normal 0 0 -1
    outer loop
      vertex -23.9 -14.4 7.7
      vertex -18 -9 7.7
      vertex 23.9 -14.4 7.7
    endloop
  endfacet
  facet normal 0 0 -1
    outer loop
      vertex 18 9 7.7
      vertex 23.9 14.4 7.7
      vertex 18 -9 7.7
    endloop
  endfacet
  facet normal 0 0 -1
    outer loop
      vertex -18 9 7.7
      vertex 23.9 14.4 7.7
      vertex 18 9 7.7
    endloop
  endfacet
  facet normal 0 0 -1
    outer loop
      vertex -18 9 7.7
      vertex -23.9 14.4 7.7
      vertex 23.9 14.4 7.7
    endloop
  endfacet
  facet normal 0 0 -1
    outer loop
      vertex -23.9 14.4 7.7
      vertex -18 9 7.7
      vertex -23.9 -14.4 7.7
    endloop
  endfacet
  facet normal -1 0 0
    outer loop
      vertex -23.9 -14.4 7.7
      vertex -23.9 14.4 9.7
      vertex -23.9 14.4 7.7
    endloop
  endfacet
  facet normal -1 -0 0
    outer loop
      vertex -23.9 14.4 9.7
      vertex -23.9 -14.4 7.7
      vertex -23.9 -14.4 9.7
    endloop
  endfacet
  facet normal 0 1 -0
    outer loop
      vertex 23.9 14.4 7.7
      vertex -23.9 14.4 9.7
      vertex 23.9 14.4 9.7
    endloop
  endfacet
  facet normal 0 1 0
    outer loop
      vertex -23.9 14.4 9.7
      vertex 23.9 14.4 7.7
      vertex -23.9 14.4 7.7
    endloop
  endfacet
  facet normal 0 -1 0
    outer loop
      vertex -23.9 -14.4 7.7
      vertex 23.9 -14.4 9.7
      vertex -23.9 -14.4 9.7
    endloop
  endfacet
  facet normal 0 -1 -0
    outer loop
      vertex 23.9 -14.4 9.7
      vertex -23.9 -14.4 7.7
      vertex 23.9 -14.4 7.7
    endloop
  endfacet
  facet normal -1 0 0
    outer loop
      vertex 18 -9 7.7
      vertex 18 9 9.2
      vertex 18 9 7.7
    endloop
  endfacet
  facet normal -1 -0 0
    outer loop
      vertex 18 9 9.2
      vertex 18 -9 7.7
      vertex 18 -9 9.2
    endloop
  endfacet
  facet normal 0 0 -1
    outer loop
      vertex -18 -9 9.2
      vertex 18 9 9.2
      vertex 18 -9 9.2
    endloop
  endfacet
  facet normal -0 0 -1
    outer loop
      vertex 18 9 9.2
      vertex -18 -9 9.2
      vertex -18 9 9.2
    endloop
  endfacet
  facet normal 1 -0 0
    outer loop
      vertex -18 -9 9.2
      vertex -18 9 7.7
      vertex -18 9 9.2
    endloop
  endfacet
  facet normal 1 0 0
    outer loop
      vertex -18 9 7.7
      vertex -18 -9 9.2
      vertex -18 -9 7.7
    endloop
  endfacet
  facet normal 0 -1 0
    outer loop
      vertex -18 9 7.7
      vertex 18 9 9.2
      vertex -18 9 9.2
    endloop
  endfacet
  facet normal 0 -1 -0
    outer loop
      vertex 18 9 9.2
      vertex -18 9 7.7
      vertex 18 9 7.7
    endloop
  endfacet
  facet normal 0 1 -0
    outer loop
      vertex 18 -9 7.7
      vertex -18 -9 9.2
      vertex 18 -9 9.2
    endloop
  endfacet
  facet normal 0 1 0
    outer loop
      vertex -18 -9 9.2
      vertex 18 -9 7.7
      vertex -18 -9 7.7
    endloop
  endfacet
  facet normal 1 -0 0
    outer loop
      vertex 22.65 -13 1.5
      vertex 22.65 13 -15.9
      vertex 22.65 13 1.5
    endloop
  endfacet
  facet normal 1 0 0
    outer loop
      vertex 22.65 13 -15.9
      vertex 22.65 -13 1.5
      vertex 22.65 -13 -15.9
    endloop
  endfacet
  facet normal -0 0 1
    outer loop
      vertex -22.65 13 1.5
      vertex 22.65 -13 1.5
      vertex 22.65 13 1.5
    endloop
  endfacet
  facet normal 0 0 1
    outer loop
      vertex 22.65 -13 1.5
      vertex -22.65 13 1.5
      vertex -22.65 -13 1.5
    endloop
  endfacet
  facet normal 0 0 -1
    outer loop
      vertex -22.65 -13 -15.9
      vertex 22.65 13 -15.9
      vertex 22.65 -13 -15.9
    endloop
  endfacet
  facet normal -0 0 -1
    outer loop
      vertex 22.65 13 -15.9
      vertex -22.65 -13 -15.9
      vertex -22.65 13 -15.9
    endloop
  endfacet
  facet normal -1 0 0
    outer loop
      vertex -22.65 -13 -15.9
      vertex -22.65 13 1.5
      vertex -22.65 13 -15.9
    endloop
  endfacet
  facet normal -1 -0 0
    outer loop
      vertex -22.65 13 1.5
      vertex -22.65 -13 -15.9
      vertex -22.65 -13 1.5
    endloop
  endfacet
  facet normal 0 1 -0
    outer loop
      vertex 22.65 13 -15.9
      vertex -22.65 13 1.5
      vertex 22.65 13 1.5
    endloop
  endfacet
  facet normal 0 1 0
    outer loop
      vertex -22.65 13 1.5
      vertex 22.65 13 -15.9
      vertex -22.65 13 -15.9
    endloop
  endfacet
  facet normal 0 -1 0
    outer loop
      vertex -22.65 -13 -15.9
      vertex 22.65 -13 1.5
      vertex -22.65 -13 1.5
    endloop
  endfacet
  facet normal 0 -1 -0
    outer loop
      vertex 22.65 -13 1.5
      vertex -22.65 -13 -15.9
      vertex 22.65 -13 -15.9
    endloop
  endfacet
endsolid OpenSCAD_Model
