solid OpenSCAD_Model
  facet normal -1 0 0
    outer loop
      vertex -50 50 -1
      vertex -50 42 1
      vertex -50 50 1
    endloop
  endfacet
  facet normal -1 0 0
    outer loop
      vertex -50 50 -1
      vertex -50 -42 1
      vertex -50 42 1
    endloop
  endfacet
  facet normal -1 0 0
    outer loop
      vertex -50 -50 -1
      vertex -50 -42 1
      vertex -50 50 -1
    endloop
  endfacet
  facet normal -1 -0 0
    outer loop
      vertex -50 -42 1
      vertex -50 -50 -1
      vertex -50 -50 1
    endloop
  endfacet
  facet normal 0 0 1
    outer loop
      vertex 50 -42 1
      vertex 42 -50 1
      vertex 50 -50 1
    endloop
  endfacet
  facet normal 0 0 1
    outer loop
      vertex -50 -42 1
      vertex -50 -50 1
      vertex -42 -50 1
    endloop
  endfacet
  facet normal 0 0 1
    outer loop
      vertex 50 50 1
      vertex 42 50 1
      vertex 50 42 1
    endloop
  endfacet
  facet normal -0 0 1
    outer loop
      vertex -50 50 1
      vertex -50 42 1
      vertex -42 50 1
    endloop
  endfacet
  facet normal -0 0 1
    outer loop
      vertex -50 42 1
      vertex -42 -42 1
      vertex -42 42 1
    endloop
  endfacet
  facet normal 0 0 1
    outer loop
      vertex -42 -42 1
      vertex -50 42 1
      vertex -50 -42 1
    endloop
  endfacet
  facet normal 0 0 1
    outer loop
      vertex -42 42 1
      vertex 42 42 1
      vertex 42 50 1
    endloop
  endfacet
  facet normal 0 0 1
    outer loop
      vertex 42 42 1
      vertex -42 42 1
      vertex 42 -42 1
    endloop
  endfacet
  facet normal 0 0 1
    outer loop
      vertex -42 42 1
      vertex 42 50 1
      vertex -42 50 1
    endloop
  endfacet
  facet normal 0 0 1
    outer loop
      vertex -42 -42 1
      vertex 42 -42 1
      vertex -42 42 1
    endloop
  endfacet
  facet normal 0 0 1
    outer loop
      vertex 42 -42 1
      vertex -42 -42 1
      vertex 42 -50 1
    endloop
  endfacet
  facet normal 0 0 1
    outer loop
      vertex 42 -50 1
      vertex -42 -42 1
      vertex -42 -50 1
    endloop
  endfacet
  facet normal -0 0 1
    outer loop
      vertex 42 42 1
      vertex 50 -42 1
      vertex 50 42 1
    endloop
  endfacet
  facet normal 0 0 1
    outer loop
      vertex 50 -42 1
      vertex 42 42 1
      vertex 42 -42 1
    endloop
  endfacet
  facet normal 1 -0 0
    outer loop
      vertex 50 42 1
      vertex 50 50 -1
      vertex 50 50 1
    endloop
  endfacet
  facet normal 1 -0 0
    outer loop
      vertex 50 -42 1
      vertex 50 50 -1
      vertex 50 42 1
    endloop
  endfacet
  facet normal 1 0 0
    outer loop
      vertex 50 -50 -1
      vertex 50 -42 1
      vertex 50 -50 1
    endloop
  endfacet
  facet normal 1 0 0
    outer loop
      vertex 50 -42 1
      vertex 50 -50 -1
      vertex 50 50 -1
    endloop
  endfacet
  facet normal 0 1 -0
    outer loop
      vertex 50 50 -1
      vertex 42 50 1
      vertex 50 50 1
    endloop
  endfacet
  facet normal 0 1 0
    outer loop
      vertex 42 50 1
      vertex 50 50 -1
      vertex -42 50 1
    endloop
  endfacet
  facet normal 0 1 0
    outer loop
      vertex -50 50 -1
      vertex -42 50 1
      vertex 50 50 -1
    endloop
  endfacet
  facet normal 0 1 0
    outer loop
      vertex -42 50 1
      vertex -50 50 -1
      vertex -50 50 1
    endloop
  endfacet
  facet normal 0 0 -1
    outer loop
      vertex -50 -50 -1
      vertex 50 50 -1
      vertex 50 -50 -1
    endloop
  endfacet
  facet normal -0 0 -1
    outer loop
      vertex 50 50 -1
      vertex -50 -50 -1
      vertex -50 50 -1
    endloop
  endfacet
  facet normal 0 -1 0
    outer loop
      vertex -50 -50 -1
      vertex -42 -50 1
      vertex -50 -50 1
    endloop
  endfacet
  facet normal 0 -1 -0
    outer loop
      vertex -42 -50 1
      vertex -50 -50 -1
      vertex 42 -50 1
    endloop
  endfacet
  facet normal 0 -1 0
    outer loop
      vertex 50 -50 -1
      vertex 42 -50 1
      vertex -50 -50 -1
    endloop
  endfacet
  facet normal 0 -1 0
    outer loop
      vertex 42 -50 1
      vertex 50 -50 -1
      vertex 50 -50 1
    endloop
  endfacet
  facet normal 0 0 1
    outer loop
      vertex 50 42 0.2
      vertex 42 50 0.2
      vertex 42 42 0.2
    endloop
  endfacet
  facet normal 0 1 -0
    outer loop
      vertex 50 42 0.2
      vertex 42 42 1
      vertex 50 42 1
    endloop
  endfacet
  facet normal 0 1 0
    outer loop
      vertex 42 42 1
      vertex 50 42 0.2
      vertex 42 42 0.2
    endloop
  endfacet
  facet normal -0.707107 -0.707107 0
    outer loop
      vertex 50 42 0.2
      vertex 42 50 1
      vertex 42 50 0.2
    endloop
  endfacet
  facet normal -0.707107 -0.707107 0
    outer loop
      vertex 42 50 1
      vertex 50 42 0.2
      vertex 50 42 1
    endloop
  endfacet
  facet normal 1 -0 0
    outer loop
      vertex 42 42 1
      vertex 42 50 0.2
      vertex 42 50 1
    endloop
  endfacet
  facet normal 1 0 0
    outer loop
      vertex 42 50 0.2
      vertex 42 42 1
      vertex 42 42 0.2
    endloop
  endfacet
  facet normal 0 -0 1
    outer loop
      vertex -42 42 0.2
      vertex -42 50 0.2
      vertex -50 42 0.2
    endloop
  endfacet
  facet normal 0 1 -0
    outer loop
      vertex -42 42 0.2
      vertex -50 42 1
      vertex -42 42 1
    endloop
  endfacet
  facet normal 0 1 0
    outer loop
      vertex -50 42 1
      vertex -42 42 0.2
      vertex -50 42 0.2
    endloop
  endfacet
  facet normal -1 0 0
    outer loop
      vertex -42 42 0.2
      vertex -42 50 1
      vertex -42 50 0.2
    endloop
  endfacet
  facet normal -1 -0 0
    outer loop
      vertex -42 50 1
      vertex -42 42 0.2
      vertex -42 42 1
    endloop
  endfacet
  facet normal 0.707107 -0.707107 0
    outer loop
      vertex -50 42 1
      vertex -42 50 0.2
      vertex -42 50 1
    endloop
  endfacet
  facet normal 0.707107 -0.707107 0
    outer loop
      vertex -42 50 0.2
      vertex -50 42 1
      vertex -50 42 0.2
    endloop
  endfacet
  facet normal 0 -0 1
    outer loop
      vertex -42 -50 0.2
      vertex -42 -42 0.2
      vertex -50 -42 0.2
    endloop
  endfacet
  facet normal 0.707107 0.707107 0
    outer loop
      vertex -42 -50 1
      vertex -50 -42 0.2
      vertex -50 -42 1
    endloop
  endfacet
  facet normal 0.707107 0.707107 0
    outer loop
      vertex -50 -42 0.2
      vertex -42 -50 1
      vertex -42 -50 0.2
    endloop
  endfacet
  facet normal -1 0 0
    outer loop
      vertex -42 -50 0.2
      vertex -42 -42 1
      vertex -42 -42 0.2
    endloop
  endfacet
  facet normal -1 -0 0
    outer loop
      vertex -42 -42 1
      vertex -42 -50 0.2
      vertex -42 -50 1
    endloop
  endfacet
  facet normal 0 -1 0
    outer loop
      vertex -50 -42 0.2
      vertex -42 -42 1
      vertex -50 -42 1
    endloop
  endfacet
  facet normal 0 -1 -0
    outer loop
      vertex -42 -42 1
      vertex -50 -42 0.2
      vertex -42 -42 0.2
    endloop
  endfacet
  facet normal 0 0 1
    outer loop
      vertex 50 -42 0.2
      vertex 42 -42 0.2
      vertex 42 -50 0.2
    endloop
  endfacet
  facet normal -0.707107 0.707107 0
    outer loop
      vertex 42 -50 0.2
      vertex 50 -42 1
      vertex 50 -42 0.2
    endloop
  endfacet
  facet normal -0.707107 0.707107 0
    outer loop
      vertex 50 -42 1
      vertex 42 -50 0.2
      vertex 42 -50 1
    endloop
  endfacet
  facet normal 1 -0 0
    outer loop
      vertex 42 -50 1
      vertex 42 -42 0.2
      vertex 42 -42 1
    endloop
  endfacet
  facet normal 1 0 0
    outer loop
      vertex 42 -42 0.2
      vertex 42 -50 1
      vertex 42 -50 0.2
    endloop
  endfacet
  facet normal 0 -1 0
    outer loop
      vertex 42 -42 0.2
      vertex 50 -42 1
      vertex 42 -42 1
    endloop
  endfacet
  facet normal 0 -1 -0
    outer loop
      vertex 50 -42 1
      vertex 42 -42 0.2
      vertex 50 -42 0.2
    endloop
  endfacet
endsolid OpenSCAD_Model
