solid OpenSCAD_Model
  facet normal 1 -0 0
    outer loop
      vertex -45 -20 1
      vertex -45 -15 0
      vertex -45 -15 1
    endloop
  endfacet
  facet normal 1 0 0
    outer loop
      vertex -45 -15 0
      vertex -45 -20 1
      vertex -45 -20 0
    endloop
  endfacet
  facet normal -1 0 0
    outer loop
      vertex -40 -20 0
      vertex -40 -15 1
      vertex -40 -15 0
    endloop
  endfacet
  facet normal -1 -0 0
    outer loop
      vertex -40 -15 1
      vertex -40 -20 0
      vertex -40 -20 1
    endloop
  endfacet
  facet normal 0 -1 0
    outer loop
      vertex -45 -15 0
      vertex -40 -15 1
      vertex -45 -15 1
    endloop
  endfacet
  facet normal 0 -1 -0
    outer loop
      vertex -40 -15 1
      vertex -45 -15 0
      vertex -40 -15 0
    endloop
  endfacet
  facet normal -0 0 1
    outer loop
      vertex -45 -15 0
      vertex -40 -20 0
      vertex -40 -15 0
    endloop
  endfacet
  facet normal 0 0 1
    outer loop
      vertex -40 -20 0
      vertex -45 -15 0
      vertex -45 -20 0
    endloop
  endfacet
  facet normal 0 1 -0
    outer loop
      vertex -40 -20 0
      vertex -45 -20 1
      vertex -40 -20 1
    endloop
  endfacet
  facet normal 0 1 0
    outer loop
      vertex -45 -20 1
      vertex -40 -20 0
      vertex -45 -20 0
    endloop
  endfacet
  facet normal 1 -0 0
    outer loop
      vertex -45 20 1
      vertex -45 25 0
      vertex -45 25 1
    endloop
  endfacet
  facet normal 1 0 0
    outer loop
      vertex -45 25 0
      vertex -45 20 1
      vertex -45 20 0
    endloop
  endfacet
  facet normal -1 0 0
    outer loop
      vertex -40 20 0
      vertex -40 25 1
      vertex -40 25 0
    endloop
  endfacet
  facet normal -1 -0 0
    outer loop
      vertex -40 25 1
      vertex -40 20 0
      vertex -40 20 1
    endloop
  endfacet
  facet normal 0 1 -0
    outer loop
      vertex 50 25 -1
      vertex 45 25 0
      vertex 50 25 0
    endloop
  endfacet
  facet normal 0 1 0
    outer loop
      vertex 45 25 0
      vertex 50 25 -1
      vertex -40 25 0
    endloop
  endfacet
  facet normal 0 1 0
    outer loop
      vertex -50 25 -1
      vertex -40 25 0
      vertex 50 25 -1
    endloop
  endfacet
  facet normal 0 1 -0
    outer loop
      vertex 45 25 0
      vertex -40 25 1
      vertex 45 25 1
    endloop
  endfacet
  facet normal 0 1 0
    outer loop
      vertex -40 25 1
      vertex 45 25 0
      vertex -40 25 0
    endloop
  endfacet
  facet normal 0 1 -0
    outer loop
      vertex -45 25 0
      vertex -50 25 1
      vertex -45 25 1
    endloop
  endfacet
  facet normal 0 1 0
    outer loop
      vertex -45 25 0
      vertex -50 25 -1
      vertex -50 25 1
    endloop
  endfacet
  facet normal 0 1 0
    outer loop
      vertex -40 25 0
      vertex -50 25 -1
      vertex -45 25 0
    endloop
  endfacet
  facet normal -0 0 1
    outer loop
      vertex -45 25 0
      vertex -40 20 0
      vertex -40 25 0
    endloop
  endfacet
  facet normal 0 0 1
    outer loop
      vertex -40 20 0
      vertex -45 25 0
      vertex -45 20 0
    endloop
  endfacet
  facet normal 0 1 -0
    outer loop
      vertex -40 20 0
      vertex -45 20 1
      vertex -40 20 1
    endloop
  endfacet
  facet normal 0 1 0
    outer loop
      vertex -45 20 1
      vertex -40 20 0
      vertex -45 20 0
    endloop
  endfacet
  facet normal 1 -0 0
    outer loop
      vertex 45 -20 1
      vertex 45 -15 0
      vertex 45 -15 1
    endloop
  endfacet
  facet normal 1 0 0
    outer loop
      vertex 45 -15 0
      vertex 45 -20 1
      vertex 45 -20 0
    endloop
  endfacet
  facet normal 1 0 0
    outer loop
      vertex 50 -20 1
      vertex 50 -25 1
      vertex 50 -20 0
    endloop
  endfacet
  facet normal 1 0 0
    outer loop
      vertex 50 20 1
      vertex 50 -15 1
      vertex 50 20 0
    endloop
  endfacet
  facet normal 1 -0 0
    outer loop
      vertex 50 20 0
      vertex 50 25 -1
      vertex 50 25 0
    endloop
  endfacet
  facet normal 1 0 0
    outer loop
      vertex 50 -15 0
      vertex 50 20 0
      vertex 50 -15 1
    endloop
  endfacet
  facet normal 1 0 0
    outer loop
      vertex 50 20 0
      vertex 50 -15 0
      vertex 50 25 -1
    endloop
  endfacet
  facet normal 1 0 0
    outer loop
      vertex 50 -25 -1
      vertex 50 -15 0
      vertex 50 -20 0
    endloop
  endfacet
  facet normal 1 0 0
    outer loop
      vertex 50 -15 0
      vertex 50 -25 -1
      vertex 50 25 -1
    endloop
  endfacet
  facet normal 1 0 0
    outer loop
      vertex 50 -25 -1
      vertex 50 -20 0
      vertex 50 -25 1
    endloop
  endfacet
  facet normal -0 0 1
    outer loop
      vertex 45 -15 0
      vertex 50 -20 0
      vertex 50 -15 0
    endloop
  endfacet
  facet normal 0 0 1
    outer loop
      vertex 50 -20 0
      vertex 45 -15 0
      vertex 45 -20 0
    endloop
  endfacet
  facet normal 0 1 -0
    outer loop
      vertex 50 -20 0
      vertex 45 -20 1
      vertex 50 -20 1
    endloop
  endfacet
  facet normal 0 1 0
    outer loop
      vertex 45 -20 1
      vertex 50 -20 0
      vertex 45 -20 0
    endloop
  endfacet
  facet normal 0 -1 0
    outer loop
      vertex 45 -15 0
      vertex 50 -15 1
      vertex 45 -15 1
    endloop
  endfacet
  facet normal 0 -1 -0
    outer loop
      vertex 50 -15 1
      vertex 45 -15 0
      vertex 50 -15 0
    endloop
  endfacet
  facet normal 1 -0 0
    outer loop
      vertex 45 20 1
      vertex 45 25 0
      vertex 45 25 1
    endloop
  endfacet
  facet normal 1 0 0
    outer loop
      vertex 45 25 0
      vertex 45 20 1
      vertex 45 20 0
    endloop
  endfacet
  facet normal -0 0 1
    outer loop
      vertex 45 25 0
      vertex 50 20 0
      vertex 50 25 0
    endloop
  endfacet
  facet normal 0 0 1
    outer loop
      vertex 50 20 0
      vertex 45 25 0
      vertex 45 20 0
    endloop
  endfacet
  facet normal 0 1 -0
    outer loop
      vertex 50 20 0
      vertex 45 20 1
      vertex 50 20 1
    endloop
  endfacet
  facet normal 0 1 0
    outer loop
      vertex 45 20 1
      vertex 50 20 0
      vertex 45 20 0
    endloop
  endfacet
  facet normal -1 0 0
    outer loop
      vertex -50 -25 -1
      vertex -50 25 1
      vertex -50 25 -1
    endloop
  endfacet
  facet normal -1 -0 0
    outer loop
      vertex -50 25 1
      vertex -50 -25 -1
      vertex -50 -25 1
    endloop
  endfacet
  facet normal 0 0 1
    outer loop
      vertex -40 20 1
      vertex 45 20 1
      vertex 45 25 1
    endloop
  endfacet
  facet normal 0 0 1
    outer loop
      vertex 45 20 1
      vertex -40 20 1
      vertex 45 -15 1
    endloop
  endfacet
  facet normal 0 0 1
    outer loop
      vertex -40 20 1
      vertex 45 25 1
      vertex -40 25 1
    endloop
  endfacet
  facet normal -0 0 1
    outer loop
      vertex 45 20 1
      vertex 50 -15 1
      vertex 50 20 1
    endloop
  endfacet
  facet normal 0 0 1
    outer loop
      vertex 50 -15 1
      vertex 45 20 1
      vertex 45 -15 1
    endloop
  endfacet
  facet normal -0 0 1
    outer loop
      vertex 45 -20 1
      vertex 50 -25 1
      vertex 50 -20 1
    endloop
  endfacet
  facet normal 0 0 1
    outer loop
      vertex -40 -15 1
      vertex 45 -15 1
      vertex -40 20 1
    endloop
  endfacet
  facet normal 0 0 1
    outer loop
      vertex 45 -15 1
      vertex -40 -15 1
      vertex 45 -20 1
    endloop
  endfacet
  facet normal 0 0 1
    outer loop
      vertex -40 -20 1
      vertex 45 -20 1
      vertex -40 -15 1
    endloop
  endfacet
  facet normal 0 0 1
    outer loop
      vertex 45 -20 1
      vertex -40 -20 1
      vertex 50 -25 1
    endloop
  endfacet
  facet normal 0 0 1
    outer loop
      vertex -50 -25 1
      vertex -40 -20 1
      vertex -45 -20 1
    endloop
  endfacet
  facet normal 0 0 1
    outer loop
      vertex -40 -20 1
      vertex -50 -25 1
      vertex 50 -25 1
    endloop
  endfacet
  facet normal 0 0 1
    outer loop
      vertex -45 -15 1
      vertex -50 -25 1
      vertex -45 -20 1
    endloop
  endfacet
  facet normal -0 0 1
    outer loop
      vertex -50 25 1
      vertex -45 20 1
      vertex -45 25 1
    endloop
  endfacet
  facet normal 0 0 1
    outer loop
      vertex -45 20 1
      vertex -50 25 1
      vertex -45 -15 1
    endloop
  endfacet
  facet normal 0 0 1
    outer loop
      vertex -50 -25 1
      vertex -45 -15 1
      vertex -50 25 1
    endloop
  endfacet
  facet normal -0 0 1
    outer loop
      vertex -45 20 1
      vertex -40 -15 1
      vertex -40 20 1
    endloop
  endfacet
  facet normal 0 0 1
    outer loop
      vertex -40 -15 1
      vertex -45 20 1
      vertex -45 -15 1
    endloop
  endfacet
  facet normal 0 0 -1
    outer loop
      vertex -50 -25 -1
      vertex 50 25 -1
      vertex 50 -25 -1
    endloop
  endfacet
  facet normal -0 0 -1
    outer loop
      vertex 50 25 -1
      vertex -50 -25 -1
      vertex -50 25 -1
    endloop
  endfacet
  facet normal 0 -1 0
    outer loop
      vertex -50 -25 -1
      vertex 50 -25 1
      vertex -50 -25 1
    endloop
  endfacet
  facet normal 0 -1 -0
    outer loop
      vertex 50 -25 1
      vertex -50 -25 -1
      vertex 50 -25 -1
    endloop
  endfacet
endsolid OpenSCAD_Model
