solid OpenSCAD_Model
  facet normal -0.532181 -0.846631 0
    outer loop
      vertex 0.0584661 -8.79295e-05 -0.019
      vertex 0.0621752 -0.00241942 0.019
      vertex 0.0584661 -8.79295e-05 0.019
    endloop
  endfacet
  facet normal -0.532181 -0.846631 -0
    outer loop
      vertex 0.0621752 -0.00241942 0.019
      vertex 0.0584661 -8.79295e-05 -0.019
      vertex 0.0621752 -0.00241942 -0.019
    endloop
  endfacet
  facet normal 0.532253 -0.846586 0
    outer loop
      vertex 0.0547577 -0.00241942 -0.019
      vertex 0.0584661 -8.79295e-05 0.019
      vertex 0.0547577 -0.00241942 0.019
    endloop
  endfacet
  facet normal 0.532253 -0.846586 0
    outer loop
      vertex 0.0584661 -8.79295e-05 0.019
      vertex 0.0547577 -0.00241942 -0.019
      vertex 0.0584661 -8.79295e-05 -0.019
    endloop
  endfacet
  facet normal -0.53233 0.846537 0
    outer loop
      vertex 0.0621752 -0.00708421 -0.019
      vertex 0.0584661 -0.00941661 0.019
      vertex 0.0621752 -0.00708421 0.019
    endloop
  endfacet
  facet normal -0.53233 0.846537 0
    outer loop
      vertex 0.0584661 -0.00941661 0.019
      vertex 0.0621752 -0.00708421 -0.019
      vertex 0.0584661 -0.00941661 -0.019
    endloop
  endfacet
  facet normal 1 -0 0
    outer loop
      vertex 0.0547577 -0.00708421 0.019
      vertex 0.0547577 -0.00241942 -0.019
      vertex 0.0547577 -0.00241942 0.019
    endloop
  endfacet
  facet normal 1 0 0
    outer loop
      vertex 0.0547577 -0.00241942 -0.019
      vertex 0.0547577 -0.00708421 0.019
      vertex 0.0547577 -0.00708421 -0.019
    endloop
  endfacet
  facet normal 0.532402 0.846492 -0
    outer loop
      vertex 0.0584661 -0.00941661 -0.019
      vertex 0.0547577 -0.00708421 0.019
      vertex 0.0584661 -0.00941661 0.019
    endloop
  endfacet
  facet normal 0.532402 0.846492 0
    outer loop
      vertex 0.0547577 -0.00708421 0.019
      vertex 0.0584661 -0.00941661 -0.019
      vertex 0.0547577 -0.00708421 -0.019
    endloop
  endfacet
  facet normal -1 0 0
    outer loop
      vertex 0.0621752 -0.00708421 -0.019
      vertex 0.0621752 -0.00241942 0.019
      vertex 0.0621752 -0.00241942 -0.019
    endloop
  endfacet
  facet normal -1 -0 0
    outer loop
      vertex 0.0621752 -0.00241942 0.019
      vertex 0.0621752 -0.00708421 -0.019
      vertex 0.0621752 -0.00708421 0.019
    endloop
  endfacet
  facet normal -0.53233 -0.846537 0
    outer loop
      vertex 0.0584661 0.00941661 -0.019
      vertex 0.0621752 0.00708421 0.019
      vertex 0.0584661 0.00941661 0.019
    endloop
  endfacet
  facet normal -0.53233 -0.846537 -0
    outer loop
      vertex 0.0621752 0.00708421 0.019
      vertex 0.0584661 0.00941661 -0.019
      vertex 0.0621752 0.00708421 -0.019
    endloop
  endfacet
  facet normal 1 -0 0
    outer loop
      vertex 0.0547577 0.00241942 0.019
      vertex 0.0547577 0.00708421 -0.019
      vertex 0.0547577 0.00708421 0.019
    endloop
  endfacet
  facet normal 1 0 0
    outer loop
      vertex 0.0547577 0.00708421 -0.019
      vertex 0.0547577 0.00241942 0.019
      vertex 0.0547577 0.00241942 -0.019
    endloop
  endfacet
  facet normal 0.532402 -0.846492 0
    outer loop
      vertex 0.0547577 0.00708421 -0.019
      vertex 0.0584661 0.00941661 0.019
      vertex 0.0547577 0.00708421 0.019
    endloop
  endfacet
  facet normal 0.532402 -0.846492 0
    outer loop
      vertex 0.0584661 0.00941661 0.019
      vertex 0.0547577 0.00708421 -0.019
      vertex 0.0584661 0.00941661 -0.019
    endloop
  endfacet
  facet normal -1 0 0
    outer loop
      vertex 0.0621752 0.00241942 -0.019
      vertex 0.0621752 0.00708421 0.019
      vertex 0.0621752 0.00708421 -0.019
    endloop
  endfacet
  facet normal -1 -0 0
    outer loop
      vertex 0.0621752 0.00708421 0.019
      vertex 0.0621752 0.00241942 -0.019
      vertex 0.0621752 0.00241942 0.019
    endloop
  endfacet
  facet normal 0.532253 0.846586 -0
    outer loop
      vertex 0.0584661 8.79295e-05 -0.019
      vertex 0.0547577 0.00241942 0.019
      vertex 0.0584661 8.79295e-05 0.019
    endloop
  endfacet
  facet normal 0.532253 0.846586 0
    outer loop
      vertex 0.0547577 0.00241942 0.019
      vertex 0.0584661 8.79295e-05 -0.019
      vertex 0.0547577 0.00241942 -0.019
    endloop
  endfacet
  facet normal -0.532181 0.846631 0
    outer loop
      vertex 0.0621752 0.00241942 -0.019
      vertex 0.0584661 8.79295e-05 0.019
      vertex 0.0621752 0.00241942 0.019
    endloop
  endfacet
  facet normal -0.532181 0.846631 0
    outer loop
      vertex 0.0584661 8.79295e-05 0.019
      vertex 0.0621752 0.00241942 -0.019
      vertex 0.0584661 8.79295e-05 -0.019
    endloop
  endfacet
  facet normal -0.532263 -0.846579 0
    outer loop
      vertex 0.0671926 -8.79295e-05 -0.019
      vertex 0.0709009 -0.00241942 0.019
      vertex 0.0671926 -8.79295e-05 0.019
    endloop
  endfacet
  facet normal -0.532263 -0.846579 -0
    outer loop
      vertex 0.0709009 -0.00241942 0.019
      vertex 0.0671926 -8.79295e-05 -0.019
      vertex 0.0709009 -0.00241942 -0.019
    endloop
  endfacet
  facet normal 0.532319 0.846544 -0
    outer loop
      vertex 0.0671926 -0.00941661 -0.019
      vertex 0.0634834 -0.00708421 0.019
      vertex 0.0671926 -0.00941661 0.019
    endloop
  endfacet
  facet normal 0.532319 0.846544 0
    outer loop
      vertex 0.0634834 -0.00708421 0.019
      vertex 0.0671926 -0.00941661 -0.019
      vertex 0.0634834 -0.00708421 -0.019
    endloop
  endfacet
  facet normal 0.53217 -0.846637 0
    outer loop
      vertex 0.0634834 -0.00241942 -0.019
      vertex 0.0671926 -8.79295e-05 0.019
      vertex 0.0634834 -0.00241942 0.019
    endloop
  endfacet
  facet normal 0.53217 -0.846637 0
    outer loop
      vertex 0.0671926 -8.79295e-05 0.019
      vertex 0.0634834 -0.00241942 -0.019
      vertex 0.0671926 -8.79295e-05 -0.019
    endloop
  endfacet
  facet normal -0.532412 0.846485 0
    outer loop
      vertex 0.0709009 -0.00708421 -0.019
      vertex 0.0671926 -0.00941661 0.019
      vertex 0.0709009 -0.00708421 0.019
    endloop
  endfacet
  facet normal -0.532412 0.846485 0
    outer loop
      vertex 0.0671926 -0.00941661 0.019
      vertex 0.0709009 -0.00708421 -0.019
      vertex 0.0671926 -0.00941661 -0.019
    endloop
  endfacet
  facet normal 1 -0 0
    outer loop
      vertex 0.0634834 -0.00708421 0.019
      vertex 0.0634834 -0.00241942 -0.019
      vertex 0.0634834 -0.00241942 0.019
    endloop
  endfacet
  facet normal 1 0 0
    outer loop
      vertex 0.0634834 -0.00241942 -0.019
      vertex 0.0634834 -0.00708421 0.019
      vertex 0.0634834 -0.00708421 -0.019
    endloop
  endfacet
  facet normal -1 0 0
    outer loop
      vertex 0.0709009 -0.00708421 -0.019
      vertex 0.0709009 -0.00241942 0.019
      vertex 0.0709009 -0.00241942 -0.019
    endloop
  endfacet
  facet normal -1 -0 0
    outer loop
      vertex 0.0709009 -0.00241942 0.019
      vertex 0.0709009 -0.00708421 -0.019
      vertex 0.0709009 -0.00708421 0.019
    endloop
  endfacet
  facet normal -0.532412 -0.846485 0
    outer loop
      vertex 0.0671926 0.00941661 -0.019
      vertex 0.0709009 0.00708421 0.019
      vertex 0.0671926 0.00941661 0.019
    endloop
  endfacet
  facet normal -0.532412 -0.846485 -0
    outer loop
      vertex 0.0709009 0.00708421 0.019
      vertex 0.0671926 0.00941661 -0.019
      vertex 0.0709009 0.00708421 -0.019
    endloop
  endfacet
  facet normal 1 -0 0
    outer loop
      vertex 0.0634834 0.00241942 0.019
      vertex 0.0634834 0.00708421 -0.019
      vertex 0.0634834 0.00708421 0.019
    endloop
  endfacet
  facet normal 1 0 0
    outer loop
      vertex 0.0634834 0.00708421 -0.019
      vertex 0.0634834 0.00241942 0.019
      vertex 0.0634834 0.00241942 -0.019
    endloop
  endfacet
  facet normal 0.532319 -0.846544 0
    outer loop
      vertex 0.0634834 0.00708421 -0.019
      vertex 0.0671926 0.00941661 0.019
      vertex 0.0634834 0.00708421 0.019
    endloop
  endfacet
  facet normal 0.532319 -0.846544 0
    outer loop
      vertex 0.0671926 0.00941661 0.019
      vertex 0.0634834 0.00708421 -0.019
      vertex 0.0671926 0.00941661 -0.019
    endloop
  endfacet
  facet normal -1 0 0
    outer loop
      vertex 0.0709009 0.00241942 -0.019
      vertex 0.0709009 0.00708421 0.019
      vertex 0.0709009 0.00708421 -0.019
    endloop
  endfacet
  facet normal -1 -0 0
    outer loop
      vertex 0.0709009 0.00708421 0.019
      vertex 0.0709009 0.00241942 -0.019
      vertex 0.0709009 0.00241942 0.019
    endloop
  endfacet
  facet normal 0.53217 0.846637 -0
    outer loop
      vertex 0.0671926 8.79295e-05 -0.019
      vertex 0.0634834 0.00241942 0.019
      vertex 0.0671926 8.79295e-05 0.019
    endloop
  endfacet
  facet normal 0.53217 0.846637 0
    outer loop
      vertex 0.0634834 0.00241942 0.019
      vertex 0.0671926 8.79295e-05 -0.019
      vertex 0.0634834 0.00241942 -0.019
    endloop
  endfacet
  facet normal -0.532263 0.846579 0
    outer loop
      vertex 0.0709009 0.00241942 -0.019
      vertex 0.0671926 8.79295e-05 0.019
      vertex 0.0709009 0.00241942 0.019
    endloop
  endfacet
  facet normal -0.532263 0.846579 0
    outer loop
      vertex 0.0671926 8.79295e-05 0.019
      vertex 0.0709009 0.00241942 -0.019
      vertex 0.0671926 8.79295e-05 -0.019
    endloop
  endfacet
  facet normal -0.532383 -0.846504 0
    outer loop
      vertex 0.0191974 0.00905492 -0.019
      vertex 0.0263969 0.00452701 0.019
      vertex 0.0191974 0.00905492 0.019
    endloop
  endfacet
  facet normal -0.532383 -0.846504 -0
    outer loop
      vertex 0.0263969 0.00452701 0.019
      vertex 0.0191974 0.00905492 -0.019
      vertex 0.0263969 0.00452701 -0.019
    endloop
  endfacet
  facet normal 1 -0 0
    outer loop
      vertex 0.011998 -0.00452701 0.019
      vertex 0.011998 0.00452701 -0.019
      vertex 0.011998 0.00452701 0.019
    endloop
  endfacet
  facet normal 1 0 0
    outer loop
      vertex 0.011998 0.00452701 -0.019
      vertex 0.011998 -0.00452701 0.019
      vertex 0.011998 -0.00452701 -0.019
    endloop
  endfacet
  facet normal 0.532388 -0.8465 0
    outer loop
      vertex 0.011998 0.00452701 -0.019
      vertex 0.0191974 0.00905492 0.019
      vertex 0.011998 0.00452701 0.019
    endloop
  endfacet
  facet normal 0.532388 -0.8465 0
    outer loop
      vertex 0.0191974 0.00905492 0.019
      vertex 0.011998 0.00452701 -0.019
      vertex 0.0191974 0.00905492 -0.019
    endloop
  endfacet
  facet normal 0.532388 0.8465 -0
    outer loop
      vertex 0.0191974 -0.00905492 -0.019
      vertex 0.011998 -0.00452701 0.019
      vertex 0.0191974 -0.00905492 0.019
    endloop
  endfacet
  facet normal 0.532388 0.8465 0
    outer loop
      vertex 0.011998 -0.00452701 0.019
      vertex 0.0191974 -0.00905492 -0.019
      vertex 0.011998 -0.00452701 -0.019
    endloop
  endfacet
  facet normal -1 0 0
    outer loop
      vertex 0.0263969 -0.00452701 -0.019
      vertex 0.0263969 0.00452701 0.019
      vertex 0.0263969 0.00452701 -0.019
    endloop
  endfacet
  facet normal -1 -0 0
    outer loop
      vertex 0.0263969 0.00452701 0.019
      vertex 0.0263969 -0.00452701 -0.019
      vertex 0.0263969 -0.00452701 0.019
    endloop
  endfacet
  facet normal -0.532383 0.846504 0
    outer loop
      vertex 0.0263969 -0.00452701 -0.019
      vertex 0.0191974 -0.00905492 0.019
      vertex 0.0263969 -0.00452701 0.019
    endloop
  endfacet
  facet normal -0.532383 0.846504 0
    outer loop
      vertex 0.0191974 -0.00905492 0.019
      vertex 0.0263969 -0.00452701 -0.019
      vertex 0.0191974 -0.00905492 -0.019
    endloop
  endfacet
  facet normal 0 0 -1
    outer loop
      vertex 0.0263969 -0.00452701 -0.019
      vertex 0.0436211 -0.0114 -0.019
      vertex 0.0436211 -0.019 -0.019
    endloop
  endfacet
  facet normal 0 0 -1
    outer loop
      vertex 0.0436211 -0.0114 -0.019
      vertex 0.0263969 -0.00452701 -0.019
      vertex 0.0436211 0.0114 -0.019
    endloop
  endfacet
  facet normal 0 0 -1
    outer loop
      vertex 0.0263969 0.00452701 -0.019
      vertex 0.0436211 0.0114 -0.019
      vertex 0.0263969 -0.00452701 -0.019
    endloop
  endfacet
  facet normal 0 0 -1
    outer loop
      vertex 0.0436211 -0.019 -0.019
      vertex 0.0191974 -0.00905492 -0.019
      vertex 0.0263969 -0.00452701 -0.019
    endloop
  endfacet
  facet normal -0 0 -1
    outer loop
      vertex 0.011998 -0.00452701 -0.019
      vertex 0 -0.019 -0.019
      vertex 0.011998 0.00452701 -0.019
    endloop
  endfacet
  facet normal -0 0 -1
    outer loop
      vertex 0.0191974 -0.00905492 -0.019
      vertex 0 -0.019 -0.019
      vertex 0.011998 -0.00452701 -0.019
    endloop
  endfacet
  facet normal 0 0 -1
    outer loop
      vertex 0 -0.019 -0.019
      vertex 0.0191974 -0.00905492 -0.019
      vertex 0.0436211 -0.019 -0.019
    endloop
  endfacet
  facet normal -0 0 -1
    outer loop
      vertex 0.0436211 0.0114 -0.019
      vertex 0.0263969 0.00452701 -0.019
      vertex 0.0436211 0.019 -0.019
    endloop
  endfacet
  facet normal 0 0 -1
    outer loop
      vertex 0.0191974 0.00905492 -0.019
      vertex 0.0436211 0.019 -0.019
      vertex 0.0263969 0.00452701 -0.019
    endloop
  endfacet
  facet normal 0 0 -1
    outer loop
      vertex 0.0191974 0.00905492 -0.019
      vertex 0 0.019 -0.019
      vertex 0.0436211 0.019 -0.019
    endloop
  endfacet
  facet normal 0 0 -1
    outer loop
      vertex 0.011998 0.00452701 -0.019
      vertex 0 0.019 -0.019
      vertex 0.0191974 0.00905492 -0.019
    endloop
  endfacet
  facet normal 0 0 -1
    outer loop
      vertex 0 0.019 -0.019
      vertex 0.011998 0.00452701 -0.019
      vertex 0 -0.019 -0.019
    endloop
  endfacet
  facet normal 0 0 -1
    outer loop
      vertex 0.0584661 -8.79295e-05 -0.019
      vertex 0.0621752 0.00241942 -0.019
      vertex 0.0621752 -0.00241942 -0.019
    endloop
  endfacet
  facet normal 0 0 -1
    outer loop
      vertex 0.0584661 -8.79295e-05 -0.019
      vertex 0.0584661 8.79295e-05 -0.019
      vertex 0.0621752 0.00241942 -0.019
    endloop
  endfacet
  facet normal 0 0 -1
    outer loop
      vertex 0.0547577 -0.00241942 -0.019
      vertex 0.0584661 8.79295e-05 -0.019
      vertex 0.0584661 -8.79295e-05 -0.019
    endloop
  endfacet
  facet normal -0 0 -1
    outer loop
      vertex 0.0584661 8.79295e-05 -0.019
      vertex 0.0547577 -0.00241942 -0.019
      vertex 0.0547577 0.00241942 -0.019
    endloop
  endfacet
  facet normal 0 0 -1
    outer loop
      vertex 0.0671926 -8.79295e-05 -0.019
      vertex 0.0709009 0.00241942 -0.019
      vertex 0.0709009 -0.00241942 -0.019
    endloop
  endfacet
  facet normal 0 0 -1
    outer loop
      vertex 0.0671926 -8.79295e-05 -0.019
      vertex 0.0671926 8.79295e-05 -0.019
      vertex 0.0709009 0.00241942 -0.019
    endloop
  endfacet
  facet normal 0 0 -1
    outer loop
      vertex 0.0634834 -0.00241942 -0.019
      vertex 0.0671926 8.79295e-05 -0.019
      vertex 0.0671926 -8.79295e-05 -0.019
    endloop
  endfacet
  facet normal -0 0 -1
    outer loop
      vertex 0.0671926 8.79295e-05 -0.019
      vertex 0.0634834 -0.00241942 -0.019
      vertex 0.0634834 0.00241942 -0.019
    endloop
  endfacet
  facet normal 0 0 -1
    outer loop
      vertex 0.0889732 -0.000739695 -0.019
      vertex 0.0889732 0.000739695 -0.019
      vertex 0.0889998 0 -0.019
    endloop
  endfacet
  facet normal 0 0 -1
    outer loop
      vertex 0.0709009 -0.00241942 -0.019
      vertex 0.0889732 -0.000739695 -0.019
      vertex 0.0889066 -0.00147939 -0.019
    endloop
  endfacet
  facet normal -0 0 -1
    outer loop
      vertex 0.0889732 -0.000739695 -0.019
      vertex 0.0709009 -0.00241942 -0.019
      vertex 0.0889732 0.000739695 -0.019
    endloop
  endfacet
  facet normal 0 0 -1
    outer loop
      vertex 0.0709009 -0.00241942 -0.019
      vertex 0.0889066 -0.00147939 -0.019
      vertex 0.0888001 -0.00221909 -0.019
    endloop
  endfacet
  facet normal 0 0 -1
    outer loop
      vertex 0.0709009 0.00241942 -0.019
      vertex 0.0889732 0.000739695 -0.019
      vertex 0.0709009 -0.00241942 -0.019
    endloop
  endfacet
  facet normal 0 0 -1
    outer loop
      vertex 0.0709009 -0.00241942 -0.019
      vertex 0.0888001 -0.00221909 -0.019
      vertex 0.0886403 -0.00294428 -0.019
    endloop
  endfacet
  facet normal 0 0 -1
    outer loop
      vertex 0.0889732 0.000739695 -0.019
      vertex 0.0709009 0.00241942 -0.019
      vertex 0.0889066 0.00147939 -0.019
    endloop
  endfacet
  facet normal 0 0 -1
    outer loop
      vertex 0.0709009 -0.00241942 -0.019
      vertex 0.0886403 -0.00294428 -0.019
      vertex 0.0884406 -0.00365497 -0.019
    endloop
  endfacet
  facet normal 0 0 -1
    outer loop
      vertex 0.0889066 0.00147939 -0.019
      vertex 0.0709009 0.00241942 -0.019
      vertex 0.0888001 0.00221909 -0.019
    endloop
  endfacet
  facet normal 0 0 -1
    outer loop
      vertex 0.0709009 -0.00241942 -0.019
      vertex 0.0884406 -0.00365497 -0.019
      vertex 0.0882009 -0.00435115 -0.019
    endloop
  endfacet
  facet normal 0 0 -1
    outer loop
      vertex 0.0888001 0.00221909 -0.019
      vertex 0.0709009 0.00241942 -0.019
      vertex 0.0886403 0.00294428 -0.019
    endloop
  endfacet
  facet normal 0 0 -1
    outer loop
      vertex 0.0709009 -0.00241942 -0.019
      vertex 0.0882009 -0.00435115 -0.019
      vertex 0.0879213 -0.00503283 -0.019
    endloop
  endfacet
  facet normal -0 0 -1
    outer loop
      vertex 0.0886403 0.00294428 -0.019
      vertex 0.0709009 0.00241942 -0.019
      vertex 0.0884406 0.00365497 -0.019
    endloop
  endfacet
  facet normal 0 0 -1
    outer loop
      vertex 0.0709009 -0.00241942 -0.019
      vertex 0.0879213 -0.00503283 -0.019
      vertex 0.0876017 -0.00570001 -0.019
    endloop
  endfacet
  facet normal -0 0 -1
    outer loop
      vertex 0.0884406 0.00365497 -0.019
      vertex 0.0709009 0.00241942 -0.019
      vertex 0.0882009 0.00435115 -0.019
    endloop
  endfacet
  facet normal 0 0 -1
    outer loop
      vertex 0.0709009 -0.00241942 -0.019
      vertex 0.0876017 -0.00570001 -0.019
      vertex 0.0872422 -0.00632367 -0.019
    endloop
  endfacet
  facet normal -0 0 -1
    outer loop
      vertex 0.0882009 0.00435115 -0.019
      vertex 0.0709009 0.00241942 -0.019
      vertex 0.0879213 0.00503283 -0.019
    endloop
  endfacet
  facet normal 0 0 -1
    outer loop
      vertex 0.0709009 -0.00241942 -0.019
      vertex 0.0872422 -0.00632367 -0.019
      vertex 0.0868427 -0.00693283 -0.019
    endloop
  endfacet
  facet normal -0 0 -1
    outer loop
      vertex 0.0879213 0.00503283 -0.019
      vertex 0.0709009 0.00241942 -0.019
      vertex 0.0876017 0.00570001 -0.019
    endloop
  endfacet
  facet normal 0 0 -1
    outer loop
      vertex 0.0709009 -0.00241942 -0.019
      vertex 0.0868427 -0.00693283 -0.019
      vertex 0.0859373 -0.00806413 -0.019
    endloop
  endfacet
  facet normal -0 0 -1
    outer loop
      vertex 0.0876017 0.00570001 -0.019
      vertex 0.0709009 0.00241942 -0.019
      vertex 0.0872422 0.00632367 -0.019
    endloop
  endfacet
  facet normal 0 0 -1
    outer loop
      vertex 0.0709009 -0.00241942 -0.019
      vertex 0.0859373 -0.00806413 -0.019
      vertex 0.0854313 -0.00857176 -0.019
    endloop
  endfacet
  facet normal -0 0 -1
    outer loop
      vertex 0.0872422 0.00632367 -0.019
      vertex 0.0709009 0.00241942 -0.019
      vertex 0.0868427 0.00693283 -0.019
    endloop
  endfacet
  facet normal 0 0 -1
    outer loop
      vertex 0.0709009 -0.00241942 -0.019
      vertex 0.0854313 -0.00857176 -0.019
      vertex 0.0843528 -0.009471 -0.019
    endloop
  endfacet
  facet normal -0 0 -1
    outer loop
      vertex 0.0868427 0.00693283 -0.019
      vertex 0.0709009 0.00241942 -0.019
      vertex 0.0859373 0.00806413 -0.019
    endloop
  endfacet
  facet normal 0 0 -1
    outer loop
      vertex 0.0709009 -0.00241942 -0.019
      vertex 0.0843528 -0.009471 -0.019
      vertex 0.0837669 -0.00987711 -0.019
    endloop
  endfacet
  facet normal -0 0 -1
    outer loop
      vertex 0.0859373 0.00806413 -0.019
      vertex 0.0709009 0.00241942 -0.019
      vertex 0.0854313 0.00857176 -0.019
    endloop
  endfacet
  facet normal 0 0 -1
    outer loop
      vertex 0.0709009 -0.00241942 -0.019
      vertex 0.0837669 -0.00987711 -0.019
      vertex 0.0831677 -0.0102252 -0.019
    endloop
  endfacet
  facet normal -0 0 -1
    outer loop
      vertex 0.0854313 0.00857176 -0.019
      vertex 0.0709009 0.00241942 -0.019
      vertex 0.0843528 0.009471 -0.019
    endloop
  endfacet
  facet normal 0 0 -1
    outer loop
      vertex 0.0709009 -0.00241942 -0.019
      vertex 0.0831677 -0.0102252 -0.019
      vertex 0.0825419 -0.0105298 -0.019
    endloop
  endfacet
  facet normal -0 0 -1
    outer loop
      vertex 0.0843528 0.009471 -0.019
      vertex 0.0709009 0.00241942 -0.019
      vertex 0.0837669 0.00987711 -0.019
    endloop
  endfacet
  facet normal 0 0 -1
    outer loop
      vertex 0.0709009 -0.00241942 -0.019
      vertex 0.0825419 -0.0105298 -0.019
      vertex 0.0819027 -0.0107908 -0.019
    endloop
  endfacet
  facet normal -0 0 -1
    outer loop
      vertex 0.0837669 0.00987711 -0.019
      vertex 0.0709009 0.00241942 -0.019
      vertex 0.0831677 0.0102252 -0.019
    endloop
  endfacet
  facet normal 0 0 -1
    outer loop
      vertex 0.0709009 -0.00241942 -0.019
      vertex 0.0819027 -0.0107908 -0.019
      vertex 0.081237 -0.0110084 -0.019
    endloop
  endfacet
  facet normal -0 0 -1
    outer loop
      vertex 0.0831677 0.0102252 -0.019
      vertex 0.0709009 0.00241942 -0.019
      vertex 0.0825419 0.0105298 -0.019
    endloop
  endfacet
  facet normal 0 0 -1
    outer loop
      vertex 0.0709009 -0.00241942 -0.019
      vertex 0.081237 -0.0110084 -0.019
      vertex 0.0805712 -0.0111825 -0.019
    endloop
  endfacet
  facet normal -0 0 -1
    outer loop
      vertex 0.0825419 0.0105298 -0.019
      vertex 0.0709009 0.00241942 -0.019
      vertex 0.0819027 0.0107908 -0.019
    endloop
  endfacet
  facet normal 0 0 -1
    outer loop
      vertex 0.0709009 -0.00241942 -0.019
      vertex 0.0805712 -0.0111825 -0.019
      vertex 0.0798921 -0.0112985 -0.019
    endloop
  endfacet
  facet normal -0 0 -1
    outer loop
      vertex 0.0819027 0.0107908 -0.019
      vertex 0.0709009 0.00241942 -0.019
      vertex 0.081237 0.0110084 -0.019
    endloop
  endfacet
  facet normal 0 0 -1
    outer loop
      vertex 0.0709009 -0.00241942 -0.019
      vertex 0.0798921 -0.0112985 -0.019
      vertex 0.079213 -0.011371 -0.019
    endloop
  endfacet
  facet normal -0 0 -1
    outer loop
      vertex 0.081237 0.0110084 -0.019
      vertex 0.0709009 0.00241942 -0.019
      vertex 0.0805712 0.0111825 -0.019
    endloop
  endfacet
  facet normal 0 0 -1
    outer loop
      vertex 0.0709009 -0.00241942 -0.019
      vertex 0.079213 -0.011371 -0.019
      vertex 0.078534 -0.0114 -0.019
    endloop
  endfacet
  facet normal -0 0 -1
    outer loop
      vertex 0.0805712 0.0111825 -0.019
      vertex 0.0709009 0.00241942 -0.019
      vertex 0.0798921 0.0112985 -0.019
    endloop
  endfacet
  facet normal 0 0 -1
    outer loop
      vertex 0.0709009 -0.00241942 -0.019
      vertex 0.078534 -0.0114 -0.019
      vertex 0.0709009 -0.00708421 -0.019
    endloop
  endfacet
  facet normal 0 0 -1
    outer loop
      vertex 0.078534 -0.0114 -0.019
      vertex 0.0671926 -0.00941661 -0.019
      vertex 0.0709009 -0.00708421 -0.019
    endloop
  endfacet
  facet normal 0 0 -1
    outer loop
      vertex 0.0621752 -0.00241942 -0.019
      vertex 0.0634834 -0.00241942 -0.019
      vertex 0.0634834 -0.00708421 -0.019
    endloop
  endfacet
  facet normal 0 0 -1
    outer loop
      vertex 0.0634834 -0.00241942 -0.019
      vertex 0.0621752 -0.00241942 -0.019
      vertex 0.0634834 0.00241942 -0.019
    endloop
  endfacet
  facet normal 0 0 -1
    outer loop
      vertex 0.0621752 -0.00241942 -0.019
      vertex 0.0634834 -0.00708421 -0.019
      vertex 0.0621752 -0.00708421 -0.019
    endloop
  endfacet
  facet normal 0 0 -1
    outer loop
      vertex 0.0671926 -0.00941661 -0.019
      vertex 0.0621752 -0.00708421 -0.019
      vertex 0.0634834 -0.00708421 -0.019
    endloop
  endfacet
  facet normal 0 0 -1
    outer loop
      vertex 0.0671926 -0.00941661 -0.019
      vertex 0.0584661 -0.00941661 -0.019
      vertex 0.0621752 -0.00708421 -0.019
    endloop
  endfacet
  facet normal 0 0 -1
    outer loop
      vertex 0.078534 -0.0114 -0.019
      vertex 0.0584661 -0.00941661 -0.019
      vertex 0.0671926 -0.00941661 -0.019
    endloop
  endfacet
  facet normal 0 0 -1
    outer loop
      vertex 0.0436211 -0.0114 -0.019
      vertex 0.0547577 -0.00241942 -0.019
      vertex 0.0547577 -0.00708421 -0.019
    endloop
  endfacet
  facet normal -0 0 -1
    outer loop
      vertex 0.0547577 -0.00241942 -0.019
      vertex 0.0436211 -0.0114 -0.019
      vertex 0.0547577 0.00241942 -0.019
    endloop
  endfacet
  facet normal 0 0 -1
    outer loop
      vertex 0.0436211 0.0114 -0.019
      vertex 0.0547577 0.00241942 -0.019
      vertex 0.0436211 -0.0114 -0.019
    endloop
  endfacet
  facet normal -0 0 -1
    outer loop
      vertex 0.0584661 -0.00941661 -0.019
      vertex 0.0436211 -0.0114 -0.019
      vertex 0.0547577 -0.00708421 -0.019
    endloop
  endfacet
  facet normal 0 0 -1
    outer loop
      vertex 0.0436211 -0.0114 -0.019
      vertex 0.0584661 -0.00941661 -0.019
      vertex 0.078534 -0.0114 -0.019
    endloop
  endfacet
  facet normal -0 0 -1
    outer loop
      vertex 0.0798921 0.0112985 -0.019
      vertex 0.0709009 0.00241942 -0.019
      vertex 0.079213 0.011371 -0.019
    endloop
  endfacet
  facet normal -0 0 -1
    outer loop
      vertex 0.079213 0.011371 -0.019
      vertex 0.0709009 0.00241942 -0.019
      vertex 0.078534 0.0114 -0.019
    endloop
  endfacet
  facet normal 0 0 -1
    outer loop
      vertex 0.0709009 0.00708421 -0.019
      vertex 0.078534 0.0114 -0.019
      vertex 0.0709009 0.00241942 -0.019
    endloop
  endfacet
  facet normal 0 0 -1
    outer loop
      vertex 0.0671926 0.00941661 -0.019
      vertex 0.078534 0.0114 -0.019
      vertex 0.0709009 0.00708421 -0.019
    endloop
  endfacet
  facet normal 0 0 -1
    outer loop
      vertex 0.0621752 0.00241942 -0.019
      vertex 0.0634834 0.00241942 -0.019
      vertex 0.0621752 -0.00241942 -0.019
    endloop
  endfacet
  facet normal 0 0 -1
    outer loop
      vertex 0.0634834 0.00241942 -0.019
      vertex 0.0621752 0.00241942 -0.019
      vertex 0.0634834 0.00708421 -0.019
    endloop
  endfacet
  facet normal 0 0 -1
    outer loop
      vertex 0.0621752 0.00708421 -0.019
      vertex 0.0634834 0.00708421 -0.019
      vertex 0.0621752 0.00241942 -0.019
    endloop
  endfacet
  facet normal 0 0 -1
    outer loop
      vertex 0.0621752 0.00708421 -0.019
      vertex 0.0671926 0.00941661 -0.019
      vertex 0.0634834 0.00708421 -0.019
    endloop
  endfacet
  facet normal 0 0 -1
    outer loop
      vertex 0.0584661 0.00941661 -0.019
      vertex 0.0671926 0.00941661 -0.019
      vertex 0.0621752 0.00708421 -0.019
    endloop
  endfacet
  facet normal 0 0 -1
    outer loop
      vertex 0.0584661 0.00941661 -0.019
      vertex 0.078534 0.0114 -0.019
      vertex 0.0671926 0.00941661 -0.019
    endloop
  endfacet
  facet normal 0 0 -1
    outer loop
      vertex 0.0584661 0.00941661 -0.019
      vertex 0.0436211 0.0114 -0.019
      vertex 0.078534 0.0114 -0.019
    endloop
  endfacet
  facet normal 0 0 -1
    outer loop
      vertex 0.0547577 0.00708421 -0.019
      vertex 0.0436211 0.0114 -0.019
      vertex 0.0584661 0.00941661 -0.019
    endloop
  endfacet
  facet normal 0 0 -1
    outer loop
      vertex 0.0547577 0.00241942 -0.019
      vertex 0.0436211 0.0114 -0.019
      vertex 0.0547577 0.00708421 -0.019
    endloop
  endfacet
  facet normal 0 0 1
    outer loop
      vertex 0.0263969 0.00452701 0.019
      vertex 0.0436211 0.0114 0.019
      vertex 0.0436211 0.019 0.019
    endloop
  endfacet
  facet normal 0 0 1
    outer loop
      vertex 0.0436211 0.0114 0.019
      vertex 0.0263969 0.00452701 0.019
      vertex 0.0436211 -0.0114 0.019
    endloop
  endfacet
  facet normal -0 0 1
    outer loop
      vertex 0.0263969 -0.00452701 0.019
      vertex 0.0436211 -0.0114 0.019
      vertex 0.0263969 0.00452701 0.019
    endloop
  endfacet
  facet normal 0 0 1
    outer loop
      vertex 0.0436211 0.019 0.019
      vertex 0.0191974 0.00905492 0.019
      vertex 0.0263969 0.00452701 0.019
    endloop
  endfacet
  facet normal 0 0 1
    outer loop
      vertex 0.011998 0.00452701 0.019
      vertex 0 0.019 0.019
      vertex 0.011998 -0.00452701 0.019
    endloop
  endfacet
  facet normal 0 0 1
    outer loop
      vertex 0.0191974 0.00905492 0.019
      vertex 0 0.019 0.019
      vertex 0.011998 0.00452701 0.019
    endloop
  endfacet
  facet normal -0 0 1
    outer loop
      vertex 0 0.019 0.019
      vertex 0.0191974 0.00905492 0.019
      vertex 0.0436211 0.019 0.019
    endloop
  endfacet
  facet normal 0 0 1
    outer loop
      vertex 0.0436211 -0.0114 0.019
      vertex 0.0263969 -0.00452701 0.019
      vertex 0.0436211 -0.019 0.019
    endloop
  endfacet
  facet normal -0 0 1
    outer loop
      vertex 0.0191974 -0.00905492 0.019
      vertex 0.0436211 -0.019 0.019
      vertex 0.0263969 -0.00452701 0.019
    endloop
  endfacet
  facet normal 0 0 1
    outer loop
      vertex 0.0191974 -0.00905492 0.019
      vertex 0 -0.019 0.019
      vertex 0.0436211 -0.019 0.019
    endloop
  endfacet
  facet normal 0 0 1
    outer loop
      vertex 0.011998 -0.00452701 0.019
      vertex 0 -0.019 0.019
      vertex 0.0191974 -0.00905492 0.019
    endloop
  endfacet
  facet normal 0 0 1
    outer loop
      vertex 0 -0.019 0.019
      vertex 0.011998 -0.00452701 0.019
      vertex 0 0.019 0.019
    endloop
  endfacet
  facet normal -0 0 1
    outer loop
      vertex 0.0584661 8.79295e-05 0.019
      vertex 0.0621752 -0.00241942 0.019
      vertex 0.0621752 0.00241942 0.019
    endloop
  endfacet
  facet normal 0 0 1
    outer loop
      vertex 0.0584661 8.79295e-05 0.019
      vertex 0.0584661 -8.79295e-05 0.019
      vertex 0.0621752 -0.00241942 0.019
    endloop
  endfacet
  facet normal 0 0 1
    outer loop
      vertex 0.0547577 0.00241942 0.019
      vertex 0.0584661 -8.79295e-05 0.019
      vertex 0.0584661 8.79295e-05 0.019
    endloop
  endfacet
  facet normal 0 0 1
    outer loop
      vertex 0.0584661 -8.79295e-05 0.019
      vertex 0.0547577 0.00241942 0.019
      vertex 0.0547577 -0.00241942 0.019
    endloop
  endfacet
  facet normal -0 0 1
    outer loop
      vertex 0.0671926 8.79295e-05 0.019
      vertex 0.0709009 -0.00241942 0.019
      vertex 0.0709009 0.00241942 0.019
    endloop
  endfacet
  facet normal 0 0 1
    outer loop
      vertex 0.0671926 8.79295e-05 0.019
      vertex 0.0671926 -8.79295e-05 0.019
      vertex 0.0709009 -0.00241942 0.019
    endloop
  endfacet
  facet normal 0 0 1
    outer loop
      vertex 0.0634834 0.00241942 0.019
      vertex 0.0671926 -8.79295e-05 0.019
      vertex 0.0671926 8.79295e-05 0.019
    endloop
  endfacet
  facet normal 0 0 1
    outer loop
      vertex 0.0671926 -8.79295e-05 0.019
      vertex 0.0634834 0.00241942 0.019
      vertex 0.0634834 -0.00241942 0.019
    endloop
  endfacet
  facet normal 0 0 1
    outer loop
      vertex 0.0889732 0.000739695 0.019
      vertex 0.0889732 -0.000739695 0.019
      vertex 0.0889998 0 0.019
    endloop
  endfacet
  facet normal 0 0 1
    outer loop
      vertex 0.0709009 0.00241942 0.019
      vertex 0.0889732 0.000739695 0.019
      vertex 0.0889066 0.00147939 0.019
    endloop
  endfacet
  facet normal 0 0 1
    outer loop
      vertex 0.0889732 0.000739695 0.019
      vertex 0.0709009 0.00241942 0.019
      vertex 0.0889732 -0.000739695 0.019
    endloop
  endfacet
  facet normal 0 0 1
    outer loop
      vertex 0.0709009 0.00241942 0.019
      vertex 0.0889066 0.00147939 0.019
      vertex 0.0888001 0.00221909 0.019
    endloop
  endfacet
  facet normal 0 0 1
    outer loop
      vertex 0.0709009 -0.00241942 0.019
      vertex 0.0889732 -0.000739695 0.019
      vertex 0.0709009 0.00241942 0.019
    endloop
  endfacet
  facet normal -0 0 1
    outer loop
      vertex 0.0709009 0.00241942 0.019
      vertex 0.0888001 0.00221909 0.019
      vertex 0.0886403 0.00294428 0.019
    endloop
  endfacet
  facet normal 0 0 1
    outer loop
      vertex 0.0889732 -0.000739695 0.019
      vertex 0.0709009 -0.00241942 0.019
      vertex 0.0889066 -0.00147939 0.019
    endloop
  endfacet
  facet normal 0 0 1
    outer loop
      vertex 0.0709009 0.00241942 0.019
      vertex 0.0886403 0.00294428 0.019
      vertex 0.0884406 0.00365497 0.019
    endloop
  endfacet
  facet normal 0 0 1
    outer loop
      vertex 0.0889066 -0.00147939 0.019
      vertex 0.0709009 -0.00241942 0.019
      vertex 0.0888001 -0.00221909 0.019
    endloop
  endfacet
  facet normal 0 0 1
    outer loop
      vertex 0.0709009 0.00241942 0.019
      vertex 0.0884406 0.00365497 0.019
      vertex 0.0882009 0.00435115 0.019
    endloop
  endfacet
  facet normal 0 0 1
    outer loop
      vertex 0.0888001 -0.00221909 0.019
      vertex 0.0709009 -0.00241942 0.019
      vertex 0.0886403 -0.00294428 0.019
    endloop
  endfacet
  facet normal 0 0 1
    outer loop
      vertex 0.0709009 0.00241942 0.019
      vertex 0.0882009 0.00435115 0.019
      vertex 0.0879213 0.00503283 0.019
    endloop
  endfacet
  facet normal 0 0 1
    outer loop
      vertex 0.0886403 -0.00294428 0.019
      vertex 0.0709009 -0.00241942 0.019
      vertex 0.0884406 -0.00365497 0.019
    endloop
  endfacet
  facet normal 0 0 1
    outer loop
      vertex 0.0709009 0.00241942 0.019
      vertex 0.0879213 0.00503283 0.019
      vertex 0.0876017 0.00570001 0.019
    endloop
  endfacet
  facet normal 0 0 1
    outer loop
      vertex 0.0884406 -0.00365497 0.019
      vertex 0.0709009 -0.00241942 0.019
      vertex 0.0882009 -0.00435115 0.019
    endloop
  endfacet
  facet normal 0 0 1
    outer loop
      vertex 0.0709009 0.00241942 0.019
      vertex 0.0876017 0.00570001 0.019
      vertex 0.0872422 0.00632367 0.019
    endloop
  endfacet
  facet normal 0 0 1
    outer loop
      vertex 0.0882009 -0.00435115 0.019
      vertex 0.0709009 -0.00241942 0.019
      vertex 0.0879213 -0.00503283 0.019
    endloop
  endfacet
  facet normal 0 0 1
    outer loop
      vertex 0.0709009 0.00241942 0.019
      vertex 0.0872422 0.00632367 0.019
      vertex 0.0868427 0.00693283 0.019
    endloop
  endfacet
  facet normal 0 0 1
    outer loop
      vertex 0.0879213 -0.00503283 0.019
      vertex 0.0709009 -0.00241942 0.019
      vertex 0.0876017 -0.00570001 0.019
    endloop
  endfacet
  facet normal 0 0 1
    outer loop
      vertex 0.0709009 0.00241942 0.019
      vertex 0.0868427 0.00693283 0.019
      vertex 0.0859373 0.00806413 0.019
    endloop
  endfacet
  facet normal 0 0 1
    outer loop
      vertex 0.0876017 -0.00570001 0.019
      vertex 0.0709009 -0.00241942 0.019
      vertex 0.0872422 -0.00632367 0.019
    endloop
  endfacet
  facet normal 0 0 1
    outer loop
      vertex 0.0709009 0.00241942 0.019
      vertex 0.0859373 0.00806413 0.019
      vertex 0.0854313 0.00857176 0.019
    endloop
  endfacet
  facet normal 0 0 1
    outer loop
      vertex 0.0872422 -0.00632367 0.019
      vertex 0.0709009 -0.00241942 0.019
      vertex 0.0868427 -0.00693283 0.019
    endloop
  endfacet
  facet normal 0 0 1
    outer loop
      vertex 0.0709009 0.00241942 0.019
      vertex 0.0854313 0.00857176 0.019
      vertex 0.0843528 0.009471 0.019
    endloop
  endfacet
  facet normal 0 0 1
    outer loop
      vertex 0.0868427 -0.00693283 0.019
      vertex 0.0709009 -0.00241942 0.019
      vertex 0.0859373 -0.00806413 0.019
    endloop
  endfacet
  facet normal 0 0 1
    outer loop
      vertex 0.0709009 0.00241942 0.019
      vertex 0.0843528 0.009471 0.019
      vertex 0.0837669 0.00987711 0.019
    endloop
  endfacet
  facet normal 0 0 1
    outer loop
      vertex 0.0859373 -0.00806413 0.019
      vertex 0.0709009 -0.00241942 0.019
      vertex 0.0854313 -0.00857176 0.019
    endloop
  endfacet
  facet normal 0 0 1
    outer loop
      vertex 0.0709009 0.00241942 0.019
      vertex 0.0837669 0.00987711 0.019
      vertex 0.0831677 0.0102252 0.019
    endloop
  endfacet
  facet normal 0 0 1
    outer loop
      vertex 0.0854313 -0.00857176 0.019
      vertex 0.0709009 -0.00241942 0.019
      vertex 0.0843528 -0.009471 0.019
    endloop
  endfacet
  facet normal 0 0 1
    outer loop
      vertex 0.0709009 0.00241942 0.019
      vertex 0.0831677 0.0102252 0.019
      vertex 0.0825419 0.0105298 0.019
    endloop
  endfacet
  facet normal 0 0 1
    outer loop
      vertex 0.0843528 -0.009471 0.019
      vertex 0.0709009 -0.00241942 0.019
      vertex 0.0837669 -0.00987711 0.019
    endloop
  endfacet
  facet normal 0 0 1
    outer loop
      vertex 0.0709009 0.00241942 0.019
      vertex 0.0825419 0.0105298 0.019
      vertex 0.0819027 0.0107908 0.019
    endloop
  endfacet
  facet normal 0 0 1
    outer loop
      vertex 0.0837669 -0.00987711 0.019
      vertex 0.0709009 -0.00241942 0.019
      vertex 0.0831677 -0.0102252 0.019
    endloop
  endfacet
  facet normal 0 0 1
    outer loop
      vertex 0.0709009 0.00241942 0.019
      vertex 0.0819027 0.0107908 0.019
      vertex 0.081237 0.0110084 0.019
    endloop
  endfacet
  facet normal 0 0 1
    outer loop
      vertex 0.0831677 -0.0102252 0.019
      vertex 0.0709009 -0.00241942 0.019
      vertex 0.0825419 -0.0105298 0.019
    endloop
  endfacet
  facet normal 0 0 1
    outer loop
      vertex 0.0709009 0.00241942 0.019
      vertex 0.081237 0.0110084 0.019
      vertex 0.0805712 0.0111825 0.019
    endloop
  endfacet
  facet normal 0 0 1
    outer loop
      vertex 0.0825419 -0.0105298 0.019
      vertex 0.0709009 -0.00241942 0.019
      vertex 0.0819027 -0.0107908 0.019
    endloop
  endfacet
  facet normal 0 0 1
    outer loop
      vertex 0.0709009 0.00241942 0.019
      vertex 0.0805712 0.0111825 0.019
      vertex 0.0798921 0.0112985 0.019
    endloop
  endfacet
  facet normal 0 0 1
    outer loop
      vertex 0.0819027 -0.0107908 0.019
      vertex 0.0709009 -0.00241942 0.019
      vertex 0.081237 -0.0110084 0.019
    endloop
  endfacet
  facet normal 0 0 1
    outer loop
      vertex 0.0709009 0.00241942 0.019
      vertex 0.0798921 0.0112985 0.019
      vertex 0.079213 0.011371 0.019
    endloop
  endfacet
  facet normal 0 0 1
    outer loop
      vertex 0.081237 -0.0110084 0.019
      vertex 0.0709009 -0.00241942 0.019
      vertex 0.0805712 -0.0111825 0.019
    endloop
  endfacet
  facet normal 0 0 1
    outer loop
      vertex 0.0709009 0.00241942 0.019
      vertex 0.079213 0.011371 0.019
      vertex 0.078534 0.0114 0.019
    endloop
  endfacet
  facet normal 0 0 1
    outer loop
      vertex 0.0805712 -0.0111825 0.019
      vertex 0.0709009 -0.00241942 0.019
      vertex 0.0798921 -0.0112985 0.019
    endloop
  endfacet
  facet normal 0 0 1
    outer loop
      vertex 0.0709009 0.00241942 0.019
      vertex 0.078534 0.0114 0.019
      vertex 0.0709009 0.00708421 0.019
    endloop
  endfacet
  facet normal 0 0 1
    outer loop
      vertex 0.078534 0.0114 0.019
      vertex 0.0671926 0.00941661 0.019
      vertex 0.0709009 0.00708421 0.019
    endloop
  endfacet
  facet normal 0 0 1
    outer loop
      vertex 0.0621752 0.00241942 0.019
      vertex 0.0634834 0.00241942 0.019
      vertex 0.0634834 0.00708421 0.019
    endloop
  endfacet
  facet normal 0 0 1
    outer loop
      vertex 0.0634834 0.00241942 0.019
      vertex 0.0621752 0.00241942 0.019
      vertex 0.0634834 -0.00241942 0.019
    endloop
  endfacet
  facet normal 0 0 1
    outer loop
      vertex 0.0621752 0.00241942 0.019
      vertex 0.0634834 0.00708421 0.019
      vertex 0.0621752 0.00708421 0.019
    endloop
  endfacet
  facet normal 0 0 1
    outer loop
      vertex 0.0671926 0.00941661 0.019
      vertex 0.0621752 0.00708421 0.019
      vertex 0.0634834 0.00708421 0.019
    endloop
  endfacet
  facet normal 0 0 1
    outer loop
      vertex 0.0671926 0.00941661 0.019
      vertex 0.0584661 0.00941661 0.019
      vertex 0.0621752 0.00708421 0.019
    endloop
  endfacet
  facet normal 0 0 1
    outer loop
      vertex 0.078534 0.0114 0.019
      vertex 0.0584661 0.00941661 0.019
      vertex 0.0671926 0.00941661 0.019
    endloop
  endfacet
  facet normal 0 0 1
    outer loop
      vertex 0.0436211 0.0114 0.019
      vertex 0.0547577 0.00241942 0.019
      vertex 0.0547577 0.00708421 0.019
    endloop
  endfacet
  facet normal 0 0 1
    outer loop
      vertex 0.0547577 0.00241942 0.019
      vertex 0.0436211 0.0114 0.019
      vertex 0.0547577 -0.00241942 0.019
    endloop
  endfacet
  facet normal 0 0 1
    outer loop
      vertex 0.0436211 -0.0114 0.019
      vertex 0.0547577 -0.00241942 0.019
      vertex 0.0436211 0.0114 0.019
    endloop
  endfacet
  facet normal 0 0 1
    outer loop
      vertex 0.0584661 0.00941661 0.019
      vertex 0.0436211 0.0114 0.019
      vertex 0.0547577 0.00708421 0.019
    endloop
  endfacet
  facet normal -0 0 1
    outer loop
      vertex 0.0436211 0.0114 0.019
      vertex 0.0584661 0.00941661 0.019
      vertex 0.078534 0.0114 0.019
    endloop
  endfacet
  facet normal 0 0 1
    outer loop
      vertex 0.0798921 -0.0112985 0.019
      vertex 0.0709009 -0.00241942 0.019
      vertex 0.079213 -0.011371 0.019
    endloop
  endfacet
  facet normal 0 0 1
    outer loop
      vertex 0.079213 -0.011371 0.019
      vertex 0.0709009 -0.00241942 0.019
      vertex 0.078534 -0.0114 0.019
    endloop
  endfacet
  facet normal -0 0 1
    outer loop
      vertex 0.0709009 -0.00708421 0.019
      vertex 0.078534 -0.0114 0.019
      vertex 0.0709009 -0.00241942 0.019
    endloop
  endfacet
  facet normal -0 0 1
    outer loop
      vertex 0.0671926 -0.00941661 0.019
      vertex 0.078534 -0.0114 0.019
      vertex 0.0709009 -0.00708421 0.019
    endloop
  endfacet
  facet normal 0 0 1
    outer loop
      vertex 0.0621752 -0.00241942 0.019
      vertex 0.0634834 -0.00241942 0.019
      vertex 0.0621752 0.00241942 0.019
    endloop
  endfacet
  facet normal 0 0 1
    outer loop
      vertex 0.0634834 -0.00241942 0.019
      vertex 0.0621752 -0.00241942 0.019
      vertex 0.0634834 -0.00708421 0.019
    endloop
  endfacet
  facet normal 0 0 1
    outer loop
      vertex 0.0621752 -0.00708421 0.019
      vertex 0.0634834 -0.00708421 0.019
      vertex 0.0621752 -0.00241942 0.019
    endloop
  endfacet
  facet normal -0 0 1
    outer loop
      vertex 0.0621752 -0.00708421 0.019
      vertex 0.0671926 -0.00941661 0.019
      vertex 0.0634834 -0.00708421 0.019
    endloop
  endfacet
  facet normal 0 0 1
    outer loop
      vertex 0.0584661 -0.00941661 0.019
      vertex 0.0671926 -0.00941661 0.019
      vertex 0.0621752 -0.00708421 0.019
    endloop
  endfacet
  facet normal -0 0 1
    outer loop
      vertex 0.0584661 -0.00941661 0.019
      vertex 0.078534 -0.0114 0.019
      vertex 0.0671926 -0.00941661 0.019
    endloop
  endfacet
  facet normal 0 0 1
    outer loop
      vertex 0.0584661 -0.00941661 0.019
      vertex 0.0436211 -0.0114 0.019
      vertex 0.078534 -0.0114 0.019
    endloop
  endfacet
  facet normal 0 0 1
    outer loop
      vertex 0.0547577 -0.00708421 0.019
      vertex 0.0436211 -0.0114 0.019
      vertex 0.0584661 -0.00941661 0.019
    endloop
  endfacet
  facet normal 0 0 1
    outer loop
      vertex 0.0547577 -0.00241942 0.019
      vertex 0.0436211 -0.0114 0.019
      vertex 0.0547577 -0.00708421 0.019
    endloop
  endfacet
  facet normal -1 0 0
    outer loop
      vertex 0 -0.019 -0.019
      vertex 0 0.019 0.019
      vertex 0 0.019 -0.019
    endloop
  endfacet
  facet normal -1 -0 0
    outer loop
      vertex 0 0.019 0.019
      vertex 0 -0.019 -0.019
      vertex 0 -0.019 0.019
    endloop
  endfacet
  facet normal 0 -1 0
    outer loop
      vertex 0 -0.019 -0.019
      vertex 0.0436211 -0.019 0.019
      vertex 0 -0.019 0.019
    endloop
  endfacet
  facet normal 0 -1 -0
    outer loop
      vertex 0.0436211 -0.019 0.019
      vertex 0 -0.019 -0.019
      vertex 0.0436211 -0.019 -0.019
    endloop
  endfacet
  facet normal 1 -0 0
    outer loop
      vertex 0.0436211 -0.019 0.019
      vertex 0.0436211 -0.0114 -0.019
      vertex 0.0436211 -0.0114 0.019
    endloop
  endfacet
  facet normal 1 0 0
    outer loop
      vertex 0.0436211 -0.0114 -0.019
      vertex 0.0436211 -0.019 0.019
      vertex 0.0436211 -0.019 -0.019
    endloop
  endfacet
  facet normal 0 -1 0
    outer loop
      vertex 0.0436211 -0.0114 -0.019
      vertex 0.078534 -0.0114 0.019
      vertex 0.0436211 -0.0114 0.019
    endloop
  endfacet
  facet normal 0 -1 -0
    outer loop
      vertex 0.078534 -0.0114 0.019
      vertex 0.0436211 -0.0114 -0.019
      vertex 0.078534 -0.0114 -0.019
    endloop
  endfacet
  facet normal 0.042671 -0.999089 0
    outer loop
      vertex 0.078534 -0.0114 -0.019
      vertex 0.079213 -0.011371 0.019
      vertex 0.078534 -0.0114 0.019
    endloop
  endfacet
  facet normal 0.042671 -0.999089 0
    outer loop
      vertex 0.079213 -0.011371 0.019
      vertex 0.078534 -0.0114 -0.019
      vertex 0.079213 -0.011371 -0.019
    endloop
  endfacet
  facet normal 0.106156 -0.99435 0
    outer loop
      vertex 0.079213 -0.011371 -0.019
      vertex 0.0798921 -0.0112985 0.019
      vertex 0.079213 -0.011371 0.019
    endloop
  endfacet
  facet normal 0.106156 -0.99435 0
    outer loop
      vertex 0.0798921 -0.0112985 0.019
      vertex 0.079213 -0.011371 -0.019
      vertex 0.0798921 -0.0112985 -0.019
    endloop
  endfacet
  facet normal 0.168376 -0.985723 0
    outer loop
      vertex 0.0798921 -0.0112985 -0.019
      vertex 0.0805712 -0.0111825 0.019
      vertex 0.0798921 -0.0112985 0.019
    endloop
  endfacet
  facet normal 0.168376 -0.985723 0
    outer loop
      vertex 0.0805712 -0.0111825 0.019
      vertex 0.0798921 -0.0112985 -0.019
      vertex 0.0805712 -0.0111825 -0.019
    endloop
  endfacet
  facet normal 0.252984 -0.967471 0
    outer loop
      vertex 0.0805712 -0.0111825 -0.019
      vertex 0.081237 -0.0110084 0.019
      vertex 0.0805712 -0.0111825 0.019
    endloop
  endfacet
  facet normal 0.252984 -0.967471 0
    outer loop
      vertex 0.081237 -0.0110084 0.019
      vertex 0.0805712 -0.0111825 -0.019
      vertex 0.081237 -0.0110084 -0.019
    endloop
  endfacet
  facet normal 0.310697 -0.950509 0
    outer loop
      vertex 0.081237 -0.0110084 -0.019
      vertex 0.0819027 -0.0107908 0.019
      vertex 0.081237 -0.0110084 0.019
    endloop
  endfacet
  facet normal 0.310697 -0.950509 0
    outer loop
      vertex 0.0819027 -0.0107908 0.019
      vertex 0.081237 -0.0110084 -0.019
      vertex 0.0819027 -0.0107908 -0.019
    endloop
  endfacet
  facet normal 0.378024 -0.925796 0
    outer loop
      vertex 0.0819027 -0.0107908 -0.019
      vertex 0.0825419 -0.0105298 0.019
      vertex 0.0819027 -0.0107908 0.019
    endloop
  endfacet
  facet normal 0.378024 -0.925796 0
    outer loop
      vertex 0.0825419 -0.0105298 0.019
      vertex 0.0819027 -0.0107908 -0.019
      vertex 0.0825419 -0.0105298 -0.019
    endloop
  endfacet
  facet normal 0.437648 -0.899146 0
    outer loop
      vertex 0.0825419 -0.0105298 -0.019
      vertex 0.0831677 -0.0102252 0.019
      vertex 0.0825419 -0.0105298 0.019
    endloop
  endfacet
  facet normal 0.437648 -0.899146 0
    outer loop
      vertex 0.0831677 -0.0102252 0.019
      vertex 0.0825419 -0.0105298 -0.019
      vertex 0.0831677 -0.0102252 -0.019
    endloop
  endfacet
  facet normal 0.502316 -0.864684 0
    outer loop
      vertex 0.0831677 -0.0102252 -0.019
      vertex 0.0837669 -0.00987711 0.019
      vertex 0.0831677 -0.0102252 0.019
    endloop
  endfacet
  facet normal 0.502316 -0.864684 0
    outer loop
      vertex 0.0837669 -0.00987711 0.019
      vertex 0.0831677 -0.0102252 -0.019
      vertex 0.0837669 -0.00987711 -0.019
    endloop
  endfacet
  facet normal 0.569672 -0.821872 0
    outer loop
      vertex 0.0837669 -0.00987711 -0.019
      vertex 0.0843528 -0.009471 0.019
      vertex 0.0837669 -0.00987711 0.019
    endloop
  endfacet
  facet normal 0.569672 -0.821872 0
    outer loop
      vertex 0.0843528 -0.009471 0.019
      vertex 0.0837669 -0.00987711 -0.019
      vertex 0.0843528 -0.009471 -0.019
    endloop
  endfacet
  facet normal 0.64039 -0.76805 0
    outer loop
      vertex 0.0843528 -0.009471 -0.019
      vertex 0.0854313 -0.00857176 0.019
      vertex 0.0843528 -0.009471 0.019
    endloop
  endfacet
  facet normal 0.64039 -0.76805 0
    outer loop
      vertex 0.0854313 -0.00857176 0.019
      vertex 0.0843528 -0.009471 -0.019
      vertex 0.0854313 -0.00857176 -0.019
    endloop
  endfacet
  facet normal 0.708243 -0.705969 0
    outer loop
      vertex 0.0854313 -0.00857176 0.019
      vertex 0.0859373 -0.00806413 -0.019
      vertex 0.0859373 -0.00806413 0.019
    endloop
  endfacet
  facet normal 0.708243 -0.705969 0
    outer loop
      vertex 0.0859373 -0.00806413 -0.019
      vertex 0.0854313 -0.00857176 0.019
      vertex 0.0854313 -0.00857176 -0.019
    endloop
  endfacet
  facet normal 0.780748 -0.624847 0
    outer loop
      vertex 0.0859373 -0.00806413 0.019
      vertex 0.0868427 -0.00693283 -0.019
      vertex 0.0868427 -0.00693283 0.019
    endloop
  endfacet
  facet normal 0.780748 -0.624847 0
    outer loop
      vertex 0.0868427 -0.00693283 -0.019
      vertex 0.0859373 -0.00806413 0.019
      vertex 0.0859373 -0.00806413 -0.019
    endloop
  endfacet
  facet normal 0.836212 -0.548406 0
    outer loop
      vertex 0.0868427 -0.00693283 0.019
      vertex 0.0872422 -0.00632367 -0.019
      vertex 0.0872422 -0.00632367 0.019
    endloop
  endfacet
  facet normal 0.836212 -0.548406 0
    outer loop
      vertex 0.0872422 -0.00632367 -0.019
      vertex 0.0868427 -0.00693283 0.019
      vertex 0.0868427 -0.00693283 -0.019
    endloop
  endfacet
  facet normal 0.866368 -0.499406 0
    outer loop
      vertex 0.0872422 -0.00632367 0.019
      vertex 0.0876017 -0.00570001 -0.019
      vertex 0.0876017 -0.00570001 0.019
    endloop
  endfacet
  facet normal 0.866368 -0.499406 0
    outer loop
      vertex 0.0876017 -0.00570001 -0.019
      vertex 0.0872422 -0.00632367 0.019
      vertex 0.0872422 -0.00632367 -0.019
    endloop
  endfacet
  facet normal 0.901864 -0.432021 0
    outer loop
      vertex 0.0876017 -0.00570001 0.019
      vertex 0.0879213 -0.00503283 -0.019
      vertex 0.0879213 -0.00503283 0.019
    endloop
  endfacet
  facet normal 0.901864 -0.432021 0
    outer loop
      vertex 0.0879213 -0.00503283 -0.019
      vertex 0.0876017 -0.00570001 0.019
      vertex 0.0876017 -0.00570001 -0.019
    endloop
  endfacet
  facet normal 0.925199 -0.379482 0
    outer loop
      vertex 0.0879213 -0.00503283 0.019
      vertex 0.0882009 -0.00435115 -0.019
      vertex 0.0882009 -0.00435115 0.019
    endloop
  endfacet
  facet normal 0.925199 -0.379482 0
    outer loop
      vertex 0.0882009 -0.00435115 -0.019
      vertex 0.0879213 -0.00503283 0.019
      vertex 0.0879213 -0.00503283 -0.019
    endloop
  endfacet
  facet normal 0.945524 -0.325551 0
    outer loop
      vertex 0.0882009 -0.00435115 0.019
      vertex 0.0884406 -0.00365497 -0.019
      vertex 0.0884406 -0.00365497 0.019
    endloop
  endfacet
  facet normal 0.945524 -0.325551 0
    outer loop
      vertex 0.0884406 -0.00365497 -0.019
      vertex 0.0882009 -0.00435115 0.019
      vertex 0.0882009 -0.00435115 -0.019
    endloop
  endfacet
  facet normal 0.962715 -0.270518 0
    outer loop
      vertex 0.0884406 -0.00365497 0.019
      vertex 0.0886403 -0.00294428 -0.019
      vertex 0.0886403 -0.00294428 0.019
    endloop
  endfacet
  facet normal 0.962715 -0.270518 0
    outer loop
      vertex 0.0886403 -0.00294428 -0.019
      vertex 0.0884406 -0.00365497 0.019
      vertex 0.0884406 -0.00365497 -0.019
    endloop
  endfacet
  facet normal 0.976571 -0.215193 0
    outer loop
      vertex 0.0886403 -0.00294428 0.019
      vertex 0.0888001 -0.00221909 -0.019
      vertex 0.0888001 -0.00221909 0.019
    endloop
  endfacet
  facet normal 0.976571 -0.215193 0
    outer loop
      vertex 0.0888001 -0.00221909 -0.019
      vertex 0.0886403 -0.00294428 0.019
      vertex 0.0886403 -0.00294428 -0.019
    endloop
  endfacet
  facet normal 0.989794 -0.142508 0
    outer loop
      vertex 0.0888001 -0.00221909 0.019
      vertex 0.0889066 -0.00147939 -0.019
      vertex 0.0889066 -0.00147939 0.019
    endloop
  endfacet
  facet normal 0.989794 -0.142508 0
    outer loop
      vertex 0.0889066 -0.00147939 -0.019
      vertex 0.0888001 -0.00221909 0.019
      vertex 0.0888001 -0.00221909 -0.019
    endloop
  endfacet
  facet normal 0.995971 -0.0896744 0
    outer loop
      vertex 0.0889066 -0.00147939 0.019
      vertex 0.0889732 -0.000739695 -0.019
      vertex 0.0889732 -0.000739695 0.019
    endloop
  endfacet
  facet normal 0.995971 -0.0896744 0
    outer loop
      vertex 0.0889732 -0.000739695 -0.019
      vertex 0.0889066 -0.00147939 0.019
      vertex 0.0889066 -0.00147939 -0.019
    endloop
  endfacet
  facet normal 0.999354 -0.0359375 0
    outer loop
      vertex 0.0889732 -0.000739695 0.019
      vertex 0.0889998 0 -0.019
      vertex 0.0889998 0 0.019
    endloop
  endfacet
  facet normal 0.999354 -0.0359375 0
    outer loop
      vertex 0.0889998 0 -0.019
      vertex 0.0889732 -0.000739695 0.019
      vertex 0.0889732 -0.000739695 -0.019
    endloop
  endfacet
  facet normal 0.999354 0.0359375 0
    outer loop
      vertex 0.0889998 0 0.019
      vertex 0.0889732 0.000739695 -0.019
      vertex 0.0889732 0.000739695 0.019
    endloop
  endfacet
  facet normal 0.999354 0.0359375 0
    outer loop
      vertex 0.0889732 0.000739695 -0.019
      vertex 0.0889998 0 0.019
      vertex 0.0889998 0 -0.019
    endloop
  endfacet
  facet normal 0.995971 0.0896744 0
    outer loop
      vertex 0.0889732 0.000739695 0.019
      vertex 0.0889066 0.00147939 -0.019
      vertex 0.0889066 0.00147939 0.019
    endloop
  endfacet
  facet normal 0.995971 0.0896744 0
    outer loop
      vertex 0.0889066 0.00147939 -0.019
      vertex 0.0889732 0.000739695 0.019
      vertex 0.0889732 0.000739695 -0.019
    endloop
  endfacet
  facet normal 0.989794 0.142508 0
    outer loop
      vertex 0.0889066 0.00147939 0.019
      vertex 0.0888001 0.00221909 -0.019
      vertex 0.0888001 0.00221909 0.019
    endloop
  endfacet
  facet normal 0.989794 0.142508 0
    outer loop
      vertex 0.0888001 0.00221909 -0.019
      vertex 0.0889066 0.00147939 0.019
      vertex 0.0889066 0.00147939 -0.019
    endloop
  endfacet
  facet normal 0.976571 0.215193 0
    outer loop
      vertex 0.0888001 0.00221909 0.019
      vertex 0.0886403 0.00294428 -0.019
      vertex 0.0886403 0.00294428 0.019
    endloop
  endfacet
  facet normal 0.976571 0.215193 0
    outer loop
      vertex 0.0886403 0.00294428 -0.019
      vertex 0.0888001 0.00221909 0.019
      vertex 0.0888001 0.00221909 -0.019
    endloop
  endfacet
  facet normal 0.962715 0.270518 0
    outer loop
      vertex 0.0886403 0.00294428 0.019
      vertex 0.0884406 0.00365497 -0.019
      vertex 0.0884406 0.00365497 0.019
    endloop
  endfacet
  facet normal 0.962715 0.270518 0
    outer loop
      vertex 0.0884406 0.00365497 -0.019
      vertex 0.0886403 0.00294428 0.019
      vertex 0.0886403 0.00294428 -0.019
    endloop
  endfacet
  facet normal 0.945524 0.325551 0
    outer loop
      vertex 0.0884406 0.00365497 0.019
      vertex 0.0882009 0.00435115 -0.019
      vertex 0.0882009 0.00435115 0.019
    endloop
  endfacet
  facet normal 0.945524 0.325551 0
    outer loop
      vertex 0.0882009 0.00435115 -0.019
      vertex 0.0884406 0.00365497 0.019
      vertex 0.0884406 0.00365497 -0.019
    endloop
  endfacet
  facet normal 0.925199 0.379482 0
    outer loop
      vertex 0.0882009 0.00435115 0.019
      vertex 0.0879213 0.00503283 -0.019
      vertex 0.0879213 0.00503283 0.019
    endloop
  endfacet
  facet normal 0.925199 0.379482 0
    outer loop
      vertex 0.0879213 0.00503283 -0.019
      vertex 0.0882009 0.00435115 0.019
      vertex 0.0882009 0.00435115 -0.019
    endloop
  endfacet
  facet normal 0.901864 0.432021 0
    outer loop
      vertex 0.0879213 0.00503283 0.019
      vertex 0.0876017 0.00570001 -0.019
      vertex 0.0876017 0.00570001 0.019
    endloop
  endfacet
  facet normal 0.901864 0.432021 0
    outer loop
      vertex 0.0876017 0.00570001 -0.019
      vertex 0.0879213 0.00503283 0.019
      vertex 0.0879213 0.00503283 -0.019
    endloop
  endfacet
  facet normal 0.866368 0.499406 0
    outer loop
      vertex 0.0876017 0.00570001 0.019
      vertex 0.0872422 0.00632367 -0.019
      vertex 0.0872422 0.00632367 0.019
    endloop
  endfacet
  facet normal 0.866368 0.499406 0
    outer loop
      vertex 0.0872422 0.00632367 -0.019
      vertex 0.0876017 0.00570001 0.019
      vertex 0.0876017 0.00570001 -0.019
    endloop
  endfacet
  facet normal 0.836212 0.548406 0
    outer loop
      vertex 0.0872422 0.00632367 0.019
      vertex 0.0868427 0.00693283 -0.019
      vertex 0.0868427 0.00693283 0.019
    endloop
  endfacet
  facet normal 0.836212 0.548406 0
    outer loop
      vertex 0.0868427 0.00693283 -0.019
      vertex 0.0872422 0.00632367 0.019
      vertex 0.0872422 0.00632367 -0.019
    endloop
  endfacet
  facet normal 0.780748 0.624847 0
    outer loop
      vertex 0.0868427 0.00693283 0.019
      vertex 0.0859373 0.00806413 -0.019
      vertex 0.0859373 0.00806413 0.019
    endloop
  endfacet
  facet normal 0.780748 0.624847 0
    outer loop
      vertex 0.0859373 0.00806413 -0.019
      vertex 0.0868427 0.00693283 0.019
      vertex 0.0868427 0.00693283 -0.019
    endloop
  endfacet
  facet normal 0.708243 0.705969 0
    outer loop
      vertex 0.0859373 0.00806413 0.019
      vertex 0.0854313 0.00857176 -0.019
      vertex 0.0854313 0.00857176 0.019
    endloop
  endfacet
  facet normal 0.708243 0.705969 0
    outer loop
      vertex 0.0854313 0.00857176 -0.019
      vertex 0.0859373 0.00806413 0.019
      vertex 0.0859373 0.00806413 -0.019
    endloop
  endfacet
  facet normal 0.64039 0.76805 -0
    outer loop
      vertex 0.0854313 0.00857176 -0.019
      vertex 0.0843528 0.009471 0.019
      vertex 0.0854313 0.00857176 0.019
    endloop
  endfacet
  facet normal 0.64039 0.76805 0
    outer loop
      vertex 0.0843528 0.009471 0.019
      vertex 0.0854313 0.00857176 -0.019
      vertex 0.0843528 0.009471 -0.019
    endloop
  endfacet
  facet normal 0.569672 0.821872 -0
    outer loop
      vertex 0.0843528 0.009471 -0.019
      vertex 0.0837669 0.00987711 0.019
      vertex 0.0843528 0.009471 0.019
    endloop
  endfacet
  facet normal 0.569672 0.821872 0
    outer loop
      vertex 0.0837669 0.00987711 0.019
      vertex 0.0843528 0.009471 -0.019
      vertex 0.0837669 0.00987711 -0.019
    endloop
  endfacet
  facet normal 0.502316 0.864684 -0
    outer loop
      vertex 0.0837669 0.00987711 -0.019
      vertex 0.0831677 0.0102252 0.019
      vertex 0.0837669 0.00987711 0.019
    endloop
  endfacet
  facet normal 0.502316 0.864684 0
    outer loop
      vertex 0.0831677 0.0102252 0.019
      vertex 0.0837669 0.00987711 -0.019
      vertex 0.0831677 0.0102252 -0.019
    endloop
  endfacet
  facet normal 0.437648 0.899146 -0
    outer loop
      vertex 0.0831677 0.0102252 -0.019
      vertex 0.0825419 0.0105298 0.019
      vertex 0.0831677 0.0102252 0.019
    endloop
  endfacet
  facet normal 0.437648 0.899146 0
    outer loop
      vertex 0.0825419 0.0105298 0.019
      vertex 0.0831677 0.0102252 -0.019
      vertex 0.0825419 0.0105298 -0.019
    endloop
  endfacet
  facet normal 0.378024 0.925796 -0
    outer loop
      vertex 0.0825419 0.0105298 -0.019
      vertex 0.0819027 0.0107908 0.019
      vertex 0.0825419 0.0105298 0.019
    endloop
  endfacet
  facet normal 0.378024 0.925796 0
    outer loop
      vertex 0.0819027 0.0107908 0.019
      vertex 0.0825419 0.0105298 -0.019
      vertex 0.0819027 0.0107908 -0.019
    endloop
  endfacet
  facet normal 0.310697 0.950509 -0
    outer loop
      vertex 0.0819027 0.0107908 -0.019
      vertex 0.081237 0.0110084 0.019
      vertex 0.0819027 0.0107908 0.019
    endloop
  endfacet
  facet normal 0.310697 0.950509 0
    outer loop
      vertex 0.081237 0.0110084 0.019
      vertex 0.0819027 0.0107908 -0.019
      vertex 0.081237 0.0110084 -0.019
    endloop
  endfacet
  facet normal 0.252984 0.967471 -0
    outer loop
      vertex 0.081237 0.0110084 -0.019
      vertex 0.0805712 0.0111825 0.019
      vertex 0.081237 0.0110084 0.019
    endloop
  endfacet
  facet normal 0.252984 0.967471 0
    outer loop
      vertex 0.0805712 0.0111825 0.019
      vertex 0.081237 0.0110084 -0.019
      vertex 0.0805712 0.0111825 -0.019
    endloop
  endfacet
  facet normal 0.168376 0.985723 -0
    outer loop
      vertex 0.0805712 0.0111825 -0.019
      vertex 0.0798921 0.0112985 0.019
      vertex 0.0805712 0.0111825 0.019
    endloop
  endfacet
  facet normal 0.168376 0.985723 0
    outer loop
      vertex 0.0798921 0.0112985 0.019
      vertex 0.0805712 0.0111825 -0.019
      vertex 0.0798921 0.0112985 -0.019
    endloop
  endfacet
  facet normal 0.106156 0.99435 -0
    outer loop
      vertex 0.0798921 0.0112985 -0.019
      vertex 0.079213 0.011371 0.019
      vertex 0.0798921 0.0112985 0.019
    endloop
  endfacet
  facet normal 0.106156 0.99435 0
    outer loop
      vertex 0.079213 0.011371 0.019
      vertex 0.0798921 0.0112985 -0.019
      vertex 0.079213 0.011371 -0.019
    endloop
  endfacet
  facet normal 0.042671 0.999089 -0
    outer loop
      vertex 0.079213 0.011371 -0.019
      vertex 0.078534 0.0114 0.019
      vertex 0.079213 0.011371 0.019
    endloop
  endfacet
  facet normal 0.042671 0.999089 0
    outer loop
      vertex 0.078534 0.0114 0.019
      vertex 0.079213 0.011371 -0.019
      vertex 0.078534 0.0114 -0.019
    endloop
  endfacet
  facet normal 0 1 -0
    outer loop
      vertex 0.078534 0.0114 -0.019
      vertex 0.0436211 0.0114 0.019
      vertex 0.078534 0.0114 0.019
    endloop
  endfacet
  facet normal 0 1 0
    outer loop
      vertex 0.0436211 0.0114 0.019
      vertex 0.078534 0.0114 -0.019
      vertex 0.0436211 0.0114 -0.019
    endloop
  endfacet
  facet normal 1 -0 0
    outer loop
      vertex 0.0436211 0.0114 0.019
      vertex 0.0436211 0.019 -0.019
      vertex 0.0436211 0.019 0.019
    endloop
  endfacet
  facet normal 1 0 0
    outer loop
      vertex 0.0436211 0.019 -0.019
      vertex 0.0436211 0.0114 0.019
      vertex 0.0436211 0.0114 -0.019
    endloop
  endfacet
  facet normal 0 1 -0
    outer loop
      vertex 0.0436211 0.019 -0.019
      vertex 0 0.019 0.019
      vertex 0.0436211 0.019 0.019
    endloop
  endfacet
  facet normal 0 1 0
    outer loop
      vertex 0 0.019 0.019
      vertex 0.0436211 0.019 -0.019
      vertex 0 0.019 -0.019
    endloop
  endfacet
endsolid OpenSCAD_Model
