solid OpenSCAD_Model
  facet normal 0.634396 -0.773008 0
    outer loop
      vertex 2.86119 -4.28207 -14.25
      vertex 3.6416 -3.6416 13.25
      vertex 2.86119 -4.28207 13.25
    endloop
  endfacet
  facet normal 0.634396 -0.773008 0
    outer loop
      vertex 3.6416 -3.6416 13.25
      vertex 2.86119 -4.28207 -14.25
      vertex 3.6416 -3.6416 -14.25
    endloop
  endfacet
  facet normal 0.881922 0.471395 0
    outer loop
      vertex 4.75798 1.97082 13.25
      vertex 4.28207 2.86119 -14.25
      vertex 4.28207 2.86119 13.25
    endloop
  endfacet
  facet normal 0.881922 0.471395 0
    outer loop
      vertex 4.28207 2.86119 -14.25
      vertex 4.75798 1.97082 13.25
      vertex 4.75798 1.97082 -14.25
    endloop
  endfacet
  facet normal 0.290279 -0.956942 0
    outer loop
      vertex 1.00471 -5.05104 -14.25
      vertex 1.97082 -4.75798 13.25
      vertex 1.00471 -5.05104 13.25
    endloop
  endfacet
  facet normal 0.290279 -0.956942 0
    outer loop
      vertex 1.97082 -4.75798 13.25
      vertex 1.00471 -5.05104 -14.25
      vertex 1.97082 -4.75798 -14.25
    endloop
  endfacet
  facet normal 0.995184 0.0980218 0
    outer loop
      vertex 5.15 0 13.25
      vertex 5.05104 1.00471 -14.25
      vertex 5.05104 1.00471 13.25
    endloop
  endfacet
  facet normal 0.995184 0.0980218 0
    outer loop
      vertex 5.05104 1.00471 -14.25
      vertex 5.15 0 13.25
      vertex 5.15 0 -14.25
    endloop
  endfacet
  facet normal 0.773008 -0.634396 0
    outer loop
      vertex 3.6416 -3.6416 13.25
      vertex 4.28207 -2.86119 -14.25
      vertex 4.28207 -2.86119 13.25
    endloop
  endfacet
  facet normal 0.773008 -0.634396 0
    outer loop
      vertex 4.28207 -2.86119 -14.25
      vertex 3.6416 -3.6416 13.25
      vertex 3.6416 -3.6416 -14.25
    endloop
  endfacet
  facet normal 0.634396 0.773008 -0
    outer loop
      vertex 3.6416 3.6416 -14.25
      vertex 2.86119 4.28207 13.25
      vertex 3.6416 3.6416 13.25
    endloop
  endfacet
  facet normal 0.634396 0.773008 0
    outer loop
      vertex 2.86119 4.28207 13.25
      vertex 3.6416 3.6416 -14.25
      vertex 2.86119 4.28207 -14.25
    endloop
  endfacet
  facet normal 0.471395 0.881922 -0
    outer loop
      vertex 2.86119 4.28207 -14.25
      vertex 1.97082 4.75798 13.25
      vertex 2.86119 4.28207 13.25
    endloop
  endfacet
  facet normal 0.471395 0.881922 0
    outer loop
      vertex 1.97082 4.75798 13.25
      vertex 2.86119 4.28207 -14.25
      vertex 1.97082 4.75798 -14.25
    endloop
  endfacet
  facet normal 0.0980218 -0.995184 0
    outer loop
      vertex 0 -5.15 -14.25
      vertex 1.00471 -5.05104 13.25
      vertex 0 -5.15 13.25
    endloop
  endfacet
  facet normal 0.0980218 -0.995184 0
    outer loop
      vertex 1.00471 -5.05104 13.25
      vertex 0 -5.15 -14.25
      vertex 1.00471 -5.05104 -14.25
    endloop
  endfacet
  facet normal -0.773008 0.634396 0
    outer loop
      vertex -4.28207 2.86119 -14.25
      vertex -3.6416 3.6416 13.25
      vertex -3.6416 3.6416 -14.25
    endloop
  endfacet
  facet normal -0.773008 0.634396 0
    outer loop
      vertex -3.6416 3.6416 13.25
      vertex -4.28207 2.86119 -14.25
      vertex -4.28207 2.86119 13.25
    endloop
  endfacet
  facet normal -0.290279 -0.956942 0
    outer loop
      vertex -1.97082 -4.75798 -14.25
      vertex -1.00471 -5.05104 13.25
      vertex -1.97082 -4.75798 13.25
    endloop
  endfacet
  facet normal -0.290279 -0.956942 -0
    outer loop
      vertex -1.00471 -5.05104 13.25
      vertex -1.97082 -4.75798 -14.25
      vertex -1.00471 -5.05104 -14.25
    endloop
  endfacet
  facet normal 0.956942 0.290279 0
    outer loop
      vertex 5.05104 1.00471 13.25
      vertex 4.75798 1.97082 -14.25
      vertex 4.75798 1.97082 13.25
    endloop
  endfacet
  facet normal 0.956942 0.290279 0
    outer loop
      vertex 4.75798 1.97082 -14.25
      vertex 5.05104 1.00471 13.25
      vertex 5.05104 1.00471 -14.25
    endloop
  endfacet
  facet normal 0.290279 0.956942 -0
    outer loop
      vertex 1.97082 4.75798 -14.25
      vertex 1.00471 5.05104 13.25
      vertex 1.97082 4.75798 13.25
    endloop
  endfacet
  facet normal 0.290279 0.956942 0
    outer loop
      vertex 1.00471 5.05104 13.25
      vertex 1.97082 4.75798 -14.25
      vertex 1.00471 5.05104 -14.25
    endloop
  endfacet
  facet normal 0.0980218 0.995184 -0
    outer loop
      vertex 1.00471 5.05104 -14.25
      vertex 0 5.15 13.25
      vertex 1.00471 5.05104 13.25
    endloop
  endfacet
  facet normal 0.0980218 0.995184 0
    outer loop
      vertex 0 5.15 13.25
      vertex 1.00471 5.05104 -14.25
      vertex 0 5.15 -14.25
    endloop
  endfacet
  facet normal 0 0 -1
    outer loop
      vertex 5.05104 -1.00471 -14.25
      vertex 5.05104 1.00471 -14.25
      vertex 5.15 0 -14.25
    endloop
  endfacet
  facet normal 0 0 -1
    outer loop
      vertex 4.75798 -1.97082 -14.25
      vertex 5.05104 1.00471 -14.25
      vertex 5.05104 -1.00471 -14.25
    endloop
  endfacet
  facet normal 0 0 -1
    outer loop
      vertex 4.75798 -1.97082 -14.25
      vertex 4.75798 1.97082 -14.25
      vertex 5.05104 1.00471 -14.25
    endloop
  endfacet
  facet normal 0 0 -1
    outer loop
      vertex 4.28207 -2.86119 -14.25
      vertex 4.75798 1.97082 -14.25
      vertex 4.75798 -1.97082 -14.25
    endloop
  endfacet
  facet normal 0 0 -1
    outer loop
      vertex 4.28207 -2.86119 -14.25
      vertex 4.28207 2.86119 -14.25
      vertex 4.75798 1.97082 -14.25
    endloop
  endfacet
  facet normal 0 0 -1
    outer loop
      vertex 3.6416 -3.6416 -14.25
      vertex 4.28207 2.86119 -14.25
      vertex 4.28207 -2.86119 -14.25
    endloop
  endfacet
  facet normal 0 0 -1
    outer loop
      vertex 3.6416 -3.6416 -14.25
      vertex 3.6416 3.6416 -14.25
      vertex 4.28207 2.86119 -14.25
    endloop
  endfacet
  facet normal 0 0 -1
    outer loop
      vertex 2.86119 -4.28207 -14.25
      vertex 3.6416 3.6416 -14.25
      vertex 3.6416 -3.6416 -14.25
    endloop
  endfacet
  facet normal 0 0 -1
    outer loop
      vertex 2.86119 -4.28207 -14.25
      vertex 2.86119 4.28207 -14.25
      vertex 3.6416 3.6416 -14.25
    endloop
  endfacet
  facet normal 0 0 -1
    outer loop
      vertex 1.97082 -4.75798 -14.25
      vertex 2.86119 4.28207 -14.25
      vertex 2.86119 -4.28207 -14.25
    endloop
  endfacet
  facet normal 0 0 -1
    outer loop
      vertex 1.97082 -4.75798 -14.25
      vertex 1.97082 4.75798 -14.25
      vertex 2.86119 4.28207 -14.25
    endloop
  endfacet
  facet normal 0 0 -1
    outer loop
      vertex 1.00471 -5.05104 -14.25
      vertex 1.97082 4.75798 -14.25
      vertex 1.97082 -4.75798 -14.25
    endloop
  endfacet
  facet normal 0 0 -1
    outer loop
      vertex 1.00471 -5.05104 -14.25
      vertex 1.00471 5.05104 -14.25
      vertex 1.97082 4.75798 -14.25
    endloop
  endfacet
  facet normal 0 0 -1
    outer loop
      vertex 0 -5.15 -14.25
      vertex 1.00471 5.05104 -14.25
      vertex 1.00471 -5.05104 -14.25
    endloop
  endfacet
  facet normal 0 0 -1
    outer loop
      vertex 0 -5.15 -14.25
      vertex 0 5.15 -14.25
      vertex 1.00471 5.05104 -14.25
    endloop
  endfacet
  facet normal 0 0 -1
    outer loop
      vertex -1.00471 -5.05104 -14.25
      vertex 0 5.15 -14.25
      vertex 0 -5.15 -14.25
    endloop
  endfacet
  facet normal 0 0 -1
    outer loop
      vertex -1.00471 -5.05104 -14.25
      vertex -1.00471 5.05104 -14.25
      vertex 0 5.15 -14.25
    endloop
  endfacet
  facet normal 0 0 -1
    outer loop
      vertex -1.97082 -4.75798 -14.25
      vertex -1.00471 5.05104 -14.25
      vertex -1.00471 -5.05104 -14.25
    endloop
  endfacet
  facet normal 0 0 -1
    outer loop
      vertex -1.97082 -4.75798 -14.25
      vertex -1.97082 4.75798 -14.25
      vertex -1.00471 5.05104 -14.25
    endloop
  endfacet
  facet normal 0 0 -1
    outer loop
      vertex -2.86119 -4.28207 -14.25
      vertex -1.97082 4.75798 -14.25
      vertex -1.97082 -4.75798 -14.25
    endloop
  endfacet
  facet normal 0 0 -1
    outer loop
      vertex -2.86119 -4.28207 -14.25
      vertex -2.86119 4.28207 -14.25
      vertex -1.97082 4.75798 -14.25
    endloop
  endfacet
  facet normal 0 0 -1
    outer loop
      vertex -3.6416 -3.6416 -14.25
      vertex -2.86119 4.28207 -14.25
      vertex -2.86119 -4.28207 -14.25
    endloop
  endfacet
  facet normal 0 0 -1
    outer loop
      vertex -3.6416 -3.6416 -14.25
      vertex -3.6416 3.6416 -14.25
      vertex -2.86119 4.28207 -14.25
    endloop
  endfacet
  facet normal 0 0 -1
    outer loop
      vertex -4.28207 -2.86119 -14.25
      vertex -3.6416 3.6416 -14.25
      vertex -3.6416 -3.6416 -14.25
    endloop
  endfacet
  facet normal 0 0 -1
    outer loop
      vertex -4.28207 -2.86119 -14.25
      vertex -4.28207 2.86119 -14.25
      vertex -3.6416 3.6416 -14.25
    endloop
  endfacet
  facet normal 0 0 -1
    outer loop
      vertex -4.75798 -1.97082 -14.25
      vertex -4.28207 2.86119 -14.25
      vertex -4.28207 -2.86119 -14.25
    endloop
  endfacet
  facet normal 0 0 -1
    outer loop
      vertex -4.75798 -1.97082 -14.25
      vertex -4.75798 1.97082 -14.25
      vertex -4.28207 2.86119 -14.25
    endloop
  endfacet
  facet normal 0 0 -1
    outer loop
      vertex -5.05104 -1.00471 -14.25
      vertex -4.75798 1.97082 -14.25
      vertex -4.75798 -1.97082 -14.25
    endloop
  endfacet
  facet normal 0 0 -1
    outer loop
      vertex -5.05104 -1.00471 -14.25
      vertex -5.05104 1.00471 -14.25
      vertex -4.75798 1.97082 -14.25
    endloop
  endfacet
  facet normal 0 -0 -1
    outer loop
      vertex -5.05104 1.00471 -14.25
      vertex -5.05104 -1.00471 -14.25
      vertex -5.15 0 -14.25
    endloop
  endfacet
  facet normal -0.634396 0.773008 0
    outer loop
      vertex -2.86119 4.28207 -14.25
      vertex -3.6416 3.6416 13.25
      vertex -2.86119 4.28207 13.25
    endloop
  endfacet
  facet normal -0.634396 0.773008 0
    outer loop
      vertex -3.6416 3.6416 13.25
      vertex -2.86119 4.28207 -14.25
      vertex -3.6416 3.6416 -14.25
    endloop
  endfacet
  facet normal -0.881922 0.471395 0
    outer loop
      vertex -4.75798 1.97082 -14.25
      vertex -4.28207 2.86119 13.25
      vertex -4.28207 2.86119 -14.25
    endloop
  endfacet
  facet normal -0.881922 0.471395 0
    outer loop
      vertex -4.28207 2.86119 13.25
      vertex -4.75798 1.97082 -14.25
      vertex -4.75798 1.97082 13.25
    endloop
  endfacet
  facet normal -0.0980218 0.995184 0
    outer loop
      vertex 0 5.15 -14.25
      vertex -1.00471 5.05104 13.25
      vertex 0 5.15 13.25
    endloop
  endfacet
  facet normal -0.0980218 0.995184 0
    outer loop
      vertex -1.00471 5.05104 13.25
      vertex 0 5.15 -14.25
      vertex -1.00471 5.05104 -14.25
    endloop
  endfacet
  facet normal -0.995184 0.0980218 0
    outer loop
      vertex -5.15 0 -14.25
      vertex -5.05104 1.00471 13.25
      vertex -5.05104 1.00471 -14.25
    endloop
  endfacet
  facet normal -0.995184 0.0980218 0
    outer loop
      vertex -5.05104 1.00471 13.25
      vertex -5.15 0 -14.25
      vertex -5.15 0 13.25
    endloop
  endfacet
  facet normal 0 0 1
    outer loop
      vertex 2 0 13.25
      vertex 5.15 0 13.25
      vertex 5.05104 1.00471 13.25
    endloop
  endfacet
  facet normal 0 0 1
    outer loop
      vertex 1.96157 0.390181 13.25
      vertex 5.05104 1.00471 13.25
      vertex 4.75798 1.97082 13.25
    endloop
  endfacet
  facet normal 0 0 1
    outer loop
      vertex 5.15 0 13.25
      vertex 2 0 13.25
      vertex 5.05104 -1.00471 13.25
    endloop
  endfacet
  facet normal 0 0 1
    outer loop
      vertex 1.84776 0.765367 13.25
      vertex 4.75798 1.97082 13.25
      vertex 4.28207 2.86119 13.25
    endloop
  endfacet
  facet normal -0 0 1
    outer loop
      vertex 1.96157 -0.390181 13.25
      vertex 5.05104 -1.00471 13.25
      vertex 2 0 13.25
    endloop
  endfacet
  facet normal 0 0 1
    outer loop
      vertex 1.66294 1.11114 13.25
      vertex 4.28207 2.86119 13.25
      vertex 3.6416 3.6416 13.25
    endloop
  endfacet
  facet normal 0 0 1
    outer loop
      vertex 5.05104 -1.00471 13.25
      vertex 1.96157 -0.390181 13.25
      vertex 4.75798 -1.97082 13.25
    endloop
  endfacet
  facet normal 0 0 1
    outer loop
      vertex 1.41421 1.41421 13.25
      vertex 3.6416 3.6416 13.25
      vertex 2.86119 4.28207 13.25
    endloop
  endfacet
  facet normal -0 0 1
    outer loop
      vertex 1.84776 -0.765367 13.25
      vertex 4.75798 -1.97082 13.25
      vertex 1.96157 -0.390181 13.25
    endloop
  endfacet
  facet normal 0 0 1
    outer loop
      vertex 4.75798 -1.97082 13.25
      vertex 1.84776 -0.765367 13.25
      vertex 4.28207 -2.86119 13.25
    endloop
  endfacet
  facet normal 0 0 1
    outer loop
      vertex 1.11114 1.66294 13.25
      vertex 2.86119 4.28207 13.25
      vertex 1.97082 4.75798 13.25
    endloop
  endfacet
  facet normal 0 0 1
    outer loop
      vertex 5.05104 1.00471 13.25
      vertex 1.96157 0.390181 13.25
      vertex 2 0 13.25
    endloop
  endfacet
  facet normal 0 0 1
    outer loop
      vertex 4.75798 1.97082 13.25
      vertex 1.84776 0.765367 13.25
      vertex 1.96157 0.390181 13.25
    endloop
  endfacet
  facet normal 0 0 1
    outer loop
      vertex 4.28207 2.86119 13.25
      vertex 1.66294 1.11114 13.25
      vertex 1.84776 0.765367 13.25
    endloop
  endfacet
  facet normal 0 0 1
    outer loop
      vertex 3.6416 3.6416 13.25
      vertex 1.41421 1.41421 13.25
      vertex 1.66294 1.11114 13.25
    endloop
  endfacet
  facet normal 0 0 1
    outer loop
      vertex 2.86119 4.28207 13.25
      vertex 1.11114 1.66294 13.25
      vertex 1.41421 1.41421 13.25
    endloop
  endfacet
  facet normal 0 0 1
    outer loop
      vertex 0.765367 1.84776 13.25
      vertex 1.97082 4.75798 13.25
      vertex 1.00471 5.05104 13.25
    endloop
  endfacet
  facet normal 0 0 1
    outer loop
      vertex 1.97082 4.75798 13.25
      vertex 0.765367 1.84776 13.25
      vertex 1.11114 1.66294 13.25
    endloop
  endfacet
  facet normal 0 0 1
    outer loop
      vertex 1.00471 5.05104 13.25
      vertex 0.390181 1.96157 13.25
      vertex 0.765367 1.84776 13.25
    endloop
  endfacet
  facet normal 0 0 1
    outer loop
      vertex 0 5.15 13.25
      vertex 0.390181 1.96157 13.25
      vertex 1.00471 5.05104 13.25
    endloop
  endfacet
  facet normal 0 0 1
    outer loop
      vertex 0 5.15 13.25
      vertex 0 2 13.25
      vertex 0.390181 1.96157 13.25
    endloop
  endfacet
  facet normal 0 0 1
    outer loop
      vertex 0 5.15 13.25
      vertex -0.390181 1.96157 13.25
      vertex 0 2 13.25
    endloop
  endfacet
  facet normal -0 0 1
    outer loop
      vertex -1.00471 5.05104 13.25
      vertex -0.390181 1.96157 13.25
      vertex 0 5.15 13.25
    endloop
  endfacet
  facet normal 0 0 1
    outer loop
      vertex -0.390181 1.96157 13.25
      vertex -1.00471 5.05104 13.25
      vertex -0.765367 1.84776 13.25
    endloop
  endfacet
  facet normal -0 0 1
    outer loop
      vertex -1.97082 4.75798 13.25
      vertex -0.765367 1.84776 13.25
      vertex -1.00471 5.05104 13.25
    endloop
  endfacet
  facet normal 0 0 1
    outer loop
      vertex -0.765367 1.84776 13.25
      vertex -1.97082 4.75798 13.25
      vertex -1.11114 1.66294 13.25
    endloop
  endfacet
  facet normal -0 0 1
    outer loop
      vertex -2.86119 4.28207 13.25
      vertex -1.11114 1.66294 13.25
      vertex -1.97082 4.75798 13.25
    endloop
  endfacet
  facet normal 0 0 1
    outer loop
      vertex -1.11114 1.66294 13.25
      vertex -2.86119 4.28207 13.25
      vertex -1.41421 1.41421 13.25
    endloop
  endfacet
  facet normal -0 0 1
    outer loop
      vertex -3.6416 3.6416 13.25
      vertex -1.41421 1.41421 13.25
      vertex -2.86119 4.28207 13.25
    endloop
  endfacet
  facet normal 0 0 1
    outer loop
      vertex -1.41421 1.41421 13.25
      vertex -3.6416 3.6416 13.25
      vertex -1.66294 1.11114 13.25
    endloop
  endfacet
  facet normal -0 0 1
    outer loop
      vertex -4.28207 2.86119 13.25
      vertex -1.66294 1.11114 13.25
      vertex -3.6416 3.6416 13.25
    endloop
  endfacet
  facet normal 0 0 1
    outer loop
      vertex -1.66294 1.11114 13.25
      vertex -4.28207 2.86119 13.25
      vertex -1.84776 0.765367 13.25
    endloop
  endfacet
  facet normal -0 0 1
    outer loop
      vertex 1.66294 -1.11114 13.25
      vertex 4.28207 -2.86119 13.25
      vertex 1.84776 -0.765367 13.25
    endloop
  endfacet
  facet normal 0 0 1
    outer loop
      vertex 4.28207 -2.86119 13.25
      vertex 1.66294 -1.11114 13.25
      vertex 3.6416 -3.6416 13.25
    endloop
  endfacet
  facet normal -0 0 1
    outer loop
      vertex 1.41421 -1.41421 13.25
      vertex 3.6416 -3.6416 13.25
      vertex 1.66294 -1.11114 13.25
    endloop
  endfacet
  facet normal 0 0 1
    outer loop
      vertex 3.6416 -3.6416 13.25
      vertex 1.41421 -1.41421 13.25
      vertex 2.86119 -4.28207 13.25
    endloop
  endfacet
  facet normal -0 0 1
    outer loop
      vertex 1.11114 -1.66294 13.25
      vertex 2.86119 -4.28207 13.25
      vertex 1.41421 -1.41421 13.25
    endloop
  endfacet
  facet normal 0 0 1
    outer loop
      vertex 2.86119 -4.28207 13.25
      vertex 1.11114 -1.66294 13.25
      vertex 1.97082 -4.75798 13.25
    endloop
  endfacet
  facet normal -0 0 1
    outer loop
      vertex 0.765367 -1.84776 13.25
      vertex 1.97082 -4.75798 13.25
      vertex 1.11114 -1.66294 13.25
    endloop
  endfacet
  facet normal 0 0 1
    outer loop
      vertex 1.97082 -4.75798 13.25
      vertex 0.765367 -1.84776 13.25
      vertex 1.00471 -5.05104 13.25
    endloop
  endfacet
  facet normal -0 0 1
    outer loop
      vertex 0.390181 -1.96157 13.25
      vertex 1.00471 -5.05104 13.25
      vertex 0.765367 -1.84776 13.25
    endloop
  endfacet
  facet normal -0 0 1
    outer loop
      vertex 0 -2 13.25
      vertex 1.00471 -5.05104 13.25
      vertex 0.390181 -1.96157 13.25
    endloop
  endfacet
  facet normal 0 0 1
    outer loop
      vertex 0 -2 13.25
      vertex 0 -5.15 13.25
      vertex 1.00471 -5.05104 13.25
    endloop
  endfacet
  facet normal 0 0 1
    outer loop
      vertex -0.390181 -1.96157 13.25
      vertex 0 -5.15 13.25
      vertex 0 -2 13.25
    endloop
  endfacet
  facet normal 0 0 1
    outer loop
      vertex -1.00471 -5.05104 13.25
      vertex -0.390181 -1.96157 13.25
      vertex -0.765367 -1.84776 13.25
    endloop
  endfacet
  facet normal 0 0 1
    outer loop
      vertex -0.390181 -1.96157 13.25
      vertex -1.00471 -5.05104 13.25
      vertex 0 -5.15 13.25
    endloop
  endfacet
  facet normal 0 0 1
    outer loop
      vertex -1.97082 -4.75798 13.25
      vertex -0.765367 -1.84776 13.25
      vertex -1.11114 -1.66294 13.25
    endloop
  endfacet
  facet normal 0 0 1
    outer loop
      vertex -2.86119 -4.28207 13.25
      vertex -1.11114 -1.66294 13.25
      vertex -1.41421 -1.41421 13.25
    endloop
  endfacet
  facet normal 0 0 1
    outer loop
      vertex -3.6416 -3.6416 13.25
      vertex -1.41421 -1.41421 13.25
      vertex -1.66294 -1.11114 13.25
    endloop
  endfacet
  facet normal 0 0 1
    outer loop
      vertex -4.28207 -2.86119 13.25
      vertex -1.66294 -1.11114 13.25
      vertex -1.84776 -0.765367 13.25
    endloop
  endfacet
  facet normal 0 0 1
    outer loop
      vertex -4.75798 -1.97082 13.25
      vertex -1.84776 -0.765367 13.25
      vertex -1.96157 -0.390181 13.25
    endloop
  endfacet
  facet normal 0 0 1
    outer loop
      vertex -0.765367 -1.84776 13.25
      vertex -1.97082 -4.75798 13.25
      vertex -1.00471 -5.05104 13.25
    endloop
  endfacet
  facet normal 0 0 1
    outer loop
      vertex -5.05104 -1.00471 13.25
      vertex -1.96157 -0.390181 13.25
      vertex -2 0 13.25
    endloop
  endfacet
  facet normal -0 0 1
    outer loop
      vertex -4.75798 1.97082 13.25
      vertex -1.84776 0.765367 13.25
      vertex -4.28207 2.86119 13.25
    endloop
  endfacet
  facet normal 0 0 1
    outer loop
      vertex -1.11114 -1.66294 13.25
      vertex -2.86119 -4.28207 13.25
      vertex -1.97082 -4.75798 13.25
    endloop
  endfacet
  facet normal 0 0 1
    outer loop
      vertex -1.84776 0.765367 13.25
      vertex -4.75798 1.97082 13.25
      vertex -1.96157 0.390181 13.25
    endloop
  endfacet
  facet normal 0 0 1
    outer loop
      vertex -1.41421 -1.41421 13.25
      vertex -3.6416 -3.6416 13.25
      vertex -2.86119 -4.28207 13.25
    endloop
  endfacet
  facet normal -0 0 1
    outer loop
      vertex -5.05104 1.00471 13.25
      vertex -1.96157 0.390181 13.25
      vertex -4.75798 1.97082 13.25
    endloop
  endfacet
  facet normal 0 0 1
    outer loop
      vertex -1.66294 -1.11114 13.25
      vertex -4.28207 -2.86119 13.25
      vertex -3.6416 -3.6416 13.25
    endloop
  endfacet
  facet normal 0 0 1
    outer loop
      vertex -1.96157 0.390181 13.25
      vertex -5.05104 1.00471 13.25
      vertex -2 0 13.25
    endloop
  endfacet
  facet normal 0 0 1
    outer loop
      vertex -1.84776 -0.765367 13.25
      vertex -4.75798 -1.97082 13.25
      vertex -4.28207 -2.86119 13.25
    endloop
  endfacet
  facet normal 0 0 1
    outer loop
      vertex -5.15 0 13.25
      vertex -2 0 13.25
      vertex -5.05104 1.00471 13.25
    endloop
  endfacet
  facet normal 0 0 1
    outer loop
      vertex -1.96157 -0.390181 13.25
      vertex -5.05104 -1.00471 13.25
      vertex -4.75798 -1.97082 13.25
    endloop
  endfacet
  facet normal 0 0 1
    outer loop
      vertex -2 0 13.25
      vertex -5.15 0 13.25
      vertex -5.05104 -1.00471 13.25
    endloop
  endfacet
  facet normal -0.290279 0.956942 0
    outer loop
      vertex -1.00471 5.05104 -14.25
      vertex -1.97082 4.75798 13.25
      vertex -1.00471 5.05104 13.25
    endloop
  endfacet
  facet normal -0.290279 0.956942 0
    outer loop
      vertex -1.97082 4.75798 13.25
      vertex -1.00471 5.05104 -14.25
      vertex -1.97082 4.75798 -14.25
    endloop
  endfacet
  facet normal -0.956942 -0.290279 0
    outer loop
      vertex -4.75798 -1.97082 -14.25
      vertex -5.05104 -1.00471 13.25
      vertex -5.05104 -1.00471 -14.25
    endloop
  endfacet
  facet normal -0.956942 -0.290279 0
    outer loop
      vertex -5.05104 -1.00471 13.25
      vertex -4.75798 -1.97082 -14.25
      vertex -4.75798 -1.97082 13.25
    endloop
  endfacet
  facet normal 0.773008 0.634396 0
    outer loop
      vertex 4.28207 2.86119 13.25
      vertex 3.6416 3.6416 -14.25
      vertex 3.6416 3.6416 13.25
    endloop
  endfacet
  facet normal 0.773008 0.634396 0
    outer loop
      vertex 3.6416 3.6416 -14.25
      vertex 4.28207 2.86119 13.25
      vertex 4.28207 2.86119 -14.25
    endloop
  endfacet
  facet normal 0.881922 -0.471395 0
    outer loop
      vertex 4.28207 -2.86119 13.25
      vertex 4.75798 -1.97082 -14.25
      vertex 4.75798 -1.97082 13.25
    endloop
  endfacet
  facet normal 0.881922 -0.471395 0
    outer loop
      vertex 4.75798 -1.97082 -14.25
      vertex 4.28207 -2.86119 13.25
      vertex 4.28207 -2.86119 -14.25
    endloop
  endfacet
  facet normal -0.956942 0.290279 0
    outer loop
      vertex -5.05104 1.00471 -14.25
      vertex -4.75798 1.97082 13.25
      vertex -4.75798 1.97082 -14.25
    endloop
  endfacet
  facet normal -0.956942 0.290279 0
    outer loop
      vertex -4.75798 1.97082 13.25
      vertex -5.05104 1.00471 -14.25
      vertex -5.05104 1.00471 13.25
    endloop
  endfacet
  facet normal -0.634396 -0.773008 0
    outer loop
      vertex -3.6416 -3.6416 -14.25
      vertex -2.86119 -4.28207 13.25
      vertex -3.6416 -3.6416 13.25
    endloop
  endfacet
  facet normal -0.634396 -0.773008 -0
    outer loop
      vertex -2.86119 -4.28207 13.25
      vertex -3.6416 -3.6416 -14.25
      vertex -2.86119 -4.28207 -14.25
    endloop
  endfacet
  facet normal -0.471395 0.881922 0
    outer loop
      vertex -1.97082 4.75798 -14.25
      vertex -2.86119 4.28207 13.25
      vertex -1.97082 4.75798 13.25
    endloop
  endfacet
  facet normal -0.471395 0.881922 0
    outer loop
      vertex -2.86119 4.28207 13.25
      vertex -1.97082 4.75798 -14.25
      vertex -2.86119 4.28207 -14.25
    endloop
  endfacet
  facet normal -0.471395 -0.881922 0
    outer loop
      vertex -2.86119 -4.28207 -14.25
      vertex -1.97082 -4.75798 13.25
      vertex -2.86119 -4.28207 13.25
    endloop
  endfacet
  facet normal -0.471395 -0.881922 -0
    outer loop
      vertex -1.97082 -4.75798 13.25
      vertex -2.86119 -4.28207 -14.25
      vertex -1.97082 -4.75798 -14.25
    endloop
  endfacet
  facet normal -0.881922 -0.471395 0
    outer loop
      vertex -4.28207 -2.86119 -14.25
      vertex -4.75798 -1.97082 13.25
      vertex -4.75798 -1.97082 -14.25
    endloop
  endfacet
  facet normal -0.881922 -0.471395 0
    outer loop
      vertex -4.75798 -1.97082 13.25
      vertex -4.28207 -2.86119 -14.25
      vertex -4.28207 -2.86119 13.25
    endloop
  endfacet
  facet normal -0.773008 -0.634396 0
    outer loop
      vertex -3.6416 -3.6416 -14.25
      vertex -4.28207 -2.86119 13.25
      vertex -4.28207 -2.86119 -14.25
    endloop
  endfacet
  facet normal -0.773008 -0.634396 0
    outer loop
      vertex -4.28207 -2.86119 13.25
      vertex -3.6416 -3.6416 -14.25
      vertex -3.6416 -3.6416 13.25
    endloop
  endfacet
  facet normal -0.995184 -0.0980218 0
    outer loop
      vertex -5.05104 -1.00471 -14.25
      vertex -5.15 0 13.25
      vertex -5.15 0 -14.25
    endloop
  endfacet
  facet normal -0.995184 -0.0980218 0
    outer loop
      vertex -5.15 0 13.25
      vertex -5.05104 -1.00471 -14.25
      vertex -5.05104 -1.00471 13.25
    endloop
  endfacet
  facet normal 0.995184 -0.0980218 0
    outer loop
      vertex 5.05104 -1.00471 13.25
      vertex 5.15 0 -14.25
      vertex 5.15 0 13.25
    endloop
  endfacet
  facet normal 0.995184 -0.0980218 0
    outer loop
      vertex 5.15 0 -14.25
      vertex 5.05104 -1.00471 13.25
      vertex 5.05104 -1.00471 -14.25
    endloop
  endfacet
  facet normal 0.471395 -0.881922 0
    outer loop
      vertex 1.97082 -4.75798 -14.25
      vertex 2.86119 -4.28207 13.25
      vertex 1.97082 -4.75798 13.25
    endloop
  endfacet
  facet normal 0.471395 -0.881922 0
    outer loop
      vertex 2.86119 -4.28207 13.25
      vertex 1.97082 -4.75798 -14.25
      vertex 2.86119 -4.28207 -14.25
    endloop
  endfacet
  facet normal 0.956942 -0.290279 0
    outer loop
      vertex 4.75798 -1.97082 13.25
      vertex 5.05104 -1.00471 -14.25
      vertex 5.05104 -1.00471 13.25
    endloop
  endfacet
  facet normal 0.956942 -0.290279 0
    outer loop
      vertex 5.05104 -1.00471 -14.25
      vertex 4.75798 -1.97082 13.25
      vertex 4.75798 -1.97082 -14.25
    endloop
  endfacet
  facet normal -0.0980218 -0.995184 0
    outer loop
      vertex -1.00471 -5.05104 -14.25
      vertex 0 -5.15 13.25
      vertex -1.00471 -5.05104 13.25
    endloop
  endfacet
  facet normal -0.0980218 -0.995184 -0
    outer loop
      vertex 0 -5.15 13.25
      vertex -1.00471 -5.05104 -14.25
      vertex 0 -5.15 -14.25
    endloop
  endfacet
  facet normal 0.471398 0.881921 -0
    outer loop
      vertex 1.11114 1.66294 13.25
      vertex 0.765367 1.84776 14.25
      vertex 1.11114 1.66294 14.25
    endloop
  endfacet
  facet normal 0.471398 0.881921 0
    outer loop
      vertex 0.765367 1.84776 14.25
      vertex 1.11114 1.66294 13.25
      vertex 0.765367 1.84776 13.25
    endloop
  endfacet
  facet normal 0.956941 0.290281 0
    outer loop
      vertex 1.96157 0.390181 14.25
      vertex 1.84776 0.765367 13.25
      vertex 1.84776 0.765367 14.25
    endloop
  endfacet
  facet normal 0.956941 0.290281 0
    outer loop
      vertex 1.84776 0.765367 13.25
      vertex 1.96157 0.390181 14.25
      vertex 1.96157 0.390181 13.25
    endloop
  endfacet
  facet normal 0.995185 0.0980185 0
    outer loop
      vertex 2 0 14.25
      vertex 1.96157 0.390181 13.25
      vertex 1.96157 0.390181 14.25
    endloop
  endfacet
  facet normal 0.995185 0.0980185 0
    outer loop
      vertex 1.96157 0.390181 13.25
      vertex 2 0 14.25
      vertex 2 0 13.25
    endloop
  endfacet
  facet normal 0.881921 0.471398 0
    outer loop
      vertex 1.84776 0.765367 14.25
      vertex 1.66294 1.11114 13.25
      vertex 1.66294 1.11114 14.25
    endloop
  endfacet
  facet normal 0.881921 0.471398 0
    outer loop
      vertex 1.66294 1.11114 13.25
      vertex 1.84776 0.765367 14.25
      vertex 1.84776 0.765367 13.25
    endloop
  endfacet
  facet normal 0.0980185 0.995185 -0
    outer loop
      vertex 0.390181 1.96157 13.25
      vertex 0 2 14.25
      vertex 0.390181 1.96157 14.25
    endloop
  endfacet
  facet normal 0.0980185 0.995185 0
    outer loop
      vertex 0 2 14.25
      vertex 0.390181 1.96157 13.25
      vertex 0 2 13.25
    endloop
  endfacet
  facet normal 0.0980185 -0.995185 0
    outer loop
      vertex 0 -2 13.25
      vertex 0.390181 -1.96157 14.25
      vertex 0 -2 14.25
    endloop
  endfacet
  facet normal 0.0980185 -0.995185 0
    outer loop
      vertex 0.390181 -1.96157 14.25
      vertex 0 -2 13.25
      vertex 0.390181 -1.96157 13.25
    endloop
  endfacet
  facet normal 0.290281 0.956941 -0
    outer loop
      vertex 0.765367 1.84776 13.25
      vertex 0.390181 1.96157 14.25
      vertex 0.765367 1.84776 14.25
    endloop
  endfacet
  facet normal 0.290281 0.956941 0
    outer loop
      vertex 0.390181 1.96157 14.25
      vertex 0.765367 1.84776 13.25
      vertex 0.390181 1.96157 13.25
    endloop
  endfacet
  facet normal 0.634404 0.773002 -0
    outer loop
      vertex 1.41421 1.41421 13.25
      vertex 1.11114 1.66294 14.25
      vertex 1.41421 1.41421 14.25
    endloop
  endfacet
  facet normal 0.634404 0.773002 0
    outer loop
      vertex 1.11114 1.66294 14.25
      vertex 1.41421 1.41421 13.25
      vertex 1.11114 1.66294 13.25
    endloop
  endfacet
  facet normal 0.773002 -0.634404 0
    outer loop
      vertex 1.41421 -1.41421 14.25
      vertex 1.66294 -1.11114 13.25
      vertex 1.66294 -1.11114 14.25
    endloop
  endfacet
  facet normal 0.773002 -0.634404 0
    outer loop
      vertex 1.66294 -1.11114 13.25
      vertex 1.41421 -1.41421 14.25
      vertex 1.41421 -1.41421 13.25
    endloop
  endfacet
  facet normal -0.634404 0.773002 0
    outer loop
      vertex -1.11114 1.66294 13.25
      vertex -1.41421 1.41421 14.25
      vertex -1.11114 1.66294 14.25
    endloop
  endfacet
  facet normal -0.634404 0.773002 0
    outer loop
      vertex -1.41421 1.41421 14.25
      vertex -1.11114 1.66294 13.25
      vertex -1.41421 1.41421 13.25
    endloop
  endfacet
  facet normal 0.471398 -0.881921 0
    outer loop
      vertex 0.765367 -1.84776 13.25
      vertex 1.11114 -1.66294 14.25
      vertex 0.765367 -1.84776 14.25
    endloop
  endfacet
  facet normal 0.471398 -0.881921 0
    outer loop
      vertex 1.11114 -1.66294 14.25
      vertex 0.765367 -1.84776 13.25
      vertex 1.11114 -1.66294 13.25
    endloop
  endfacet
  facet normal -0.881921 -0.471398 0
    outer loop
      vertex -1.66294 -1.11114 13.25
      vertex -1.84776 -0.765367 14.25
      vertex -1.84776 -0.765367 13.25
    endloop
  endfacet
  facet normal -0.881921 -0.471398 0
    outer loop
      vertex -1.84776 -0.765367 14.25
      vertex -1.66294 -1.11114 13.25
      vertex -1.66294 -1.11114 14.25
    endloop
  endfacet
  facet normal 0.995185 -0.0980185 0
    outer loop
      vertex 1.96157 -0.390181 14.25
      vertex 2 0 13.25
      vertex 2 0 14.25
    endloop
  endfacet
  facet normal 0.995185 -0.0980185 0
    outer loop
      vertex 2 0 13.25
      vertex 1.96157 -0.390181 14.25
      vertex 1.96157 -0.390181 13.25
    endloop
  endfacet
  facet normal -0.290281 0.956941 0
    outer loop
      vertex -0.390181 1.96157 13.25
      vertex -0.765367 1.84776 14.25
      vertex -0.390181 1.96157 14.25
    endloop
  endfacet
  facet normal -0.290281 0.956941 0
    outer loop
      vertex -0.765367 1.84776 14.25
      vertex -0.390181 1.96157 13.25
      vertex -0.765367 1.84776 13.25
    endloop
  endfacet
  facet normal -0.0980185 -0.995185 0
    outer loop
      vertex -0.390181 -1.96157 13.25
      vertex 0 -2 14.25
      vertex -0.390181 -1.96157 14.25
    endloop
  endfacet
  facet normal -0.0980185 -0.995185 -0
    outer loop
      vertex 0 -2 14.25
      vertex -0.390181 -1.96157 13.25
      vertex 0 -2 13.25
    endloop
  endfacet
  facet normal -0.881921 0.471398 0
    outer loop
      vertex -1.84776 0.765367 13.25
      vertex -1.66294 1.11114 14.25
      vertex -1.66294 1.11114 13.25
    endloop
  endfacet
  facet normal -0.881921 0.471398 0
    outer loop
      vertex -1.66294 1.11114 14.25
      vertex -1.84776 0.765367 13.25
      vertex -1.84776 0.765367 14.25
    endloop
  endfacet
  facet normal 0.290281 -0.956941 0
    outer loop
      vertex 0.390181 -1.96157 13.25
      vertex 0.765367 -1.84776 14.25
      vertex 0.390181 -1.96157 14.25
    endloop
  endfacet
  facet normal 0.290281 -0.956941 0
    outer loop
      vertex 0.765367 -1.84776 14.25
      vertex 0.390181 -1.96157 13.25
      vertex 0.765367 -1.84776 13.25
    endloop
  endfacet
  facet normal 0 0 1
    outer loop
      vertex 1.96157 0.390181 14.25
      vertex 1.96157 -0.390181 14.25
      vertex 2 0 14.25
    endloop
  endfacet
  facet normal 0 0 1
    outer loop
      vertex 1.84776 0.765367 14.25
      vertex 1.96157 -0.390181 14.25
      vertex 1.96157 0.390181 14.25
    endloop
  endfacet
  facet normal 0 0 1
    outer loop
      vertex 1.84776 0.765367 14.25
      vertex 1.84776 -0.765367 14.25
      vertex 1.96157 -0.390181 14.25
    endloop
  endfacet
  facet normal 0 0 1
    outer loop
      vertex 1.66294 1.11114 14.25
      vertex 1.84776 -0.765367 14.25
      vertex 1.84776 0.765367 14.25
    endloop
  endfacet
  facet normal 0 0 1
    outer loop
      vertex 1.66294 1.11114 14.25
      vertex 1.66294 -1.11114 14.25
      vertex 1.84776 -0.765367 14.25
    endloop
  endfacet
  facet normal 0 0 1
    outer loop
      vertex 1.41421 1.41421 14.25
      vertex 1.66294 -1.11114 14.25
      vertex 1.66294 1.11114 14.25
    endloop
  endfacet
  facet normal 0 0 1
    outer loop
      vertex 1.41421 1.41421 14.25
      vertex 1.41421 -1.41421 14.25
      vertex 1.66294 -1.11114 14.25
    endloop
  endfacet
  facet normal 0 0 1
    outer loop
      vertex 1.11114 1.66294 14.25
      vertex 1.41421 -1.41421 14.25
      vertex 1.41421 1.41421 14.25
    endloop
  endfacet
  facet normal 0 0 1
    outer loop
      vertex 1.11114 1.66294 14.25
      vertex 1.11114 -1.66294 14.25
      vertex 1.41421 -1.41421 14.25
    endloop
  endfacet
  facet normal 0 0 1
    outer loop
      vertex 0.765367 1.84776 14.25
      vertex 1.11114 -1.66294 14.25
      vertex 1.11114 1.66294 14.25
    endloop
  endfacet
  facet normal 0 0 1
    outer loop
      vertex 0.765367 1.84776 14.25
      vertex 0.765367 -1.84776 14.25
      vertex 1.11114 -1.66294 14.25
    endloop
  endfacet
  facet normal 0 0 1
    outer loop
      vertex 0.390181 1.96157 14.25
      vertex 0.765367 -1.84776 14.25
      vertex 0.765367 1.84776 14.25
    endloop
  endfacet
  facet normal 0 0 1
    outer loop
      vertex 0.390181 1.96157 14.25
      vertex 0.390181 -1.96157 14.25
      vertex 0.765367 -1.84776 14.25
    endloop
  endfacet
  facet normal 0 0 1
    outer loop
      vertex 0 2 14.25
      vertex 0.390181 -1.96157 14.25
      vertex 0.390181 1.96157 14.25
    endloop
  endfacet
  facet normal 0 0 1
    outer loop
      vertex 0 2 14.25
      vertex 0 -2 14.25
      vertex 0.390181 -1.96157 14.25
    endloop
  endfacet
  facet normal -0 0 1
    outer loop
      vertex -0.390181 1.96157 14.25
      vertex 0 -2 14.25
      vertex 0 2 14.25
    endloop
  endfacet
  facet normal 0 0 1
    outer loop
      vertex -0.390181 1.96157 14.25
      vertex -0.390181 -1.96157 14.25
      vertex 0 -2 14.25
    endloop
  endfacet
  facet normal -0 0 1
    outer loop
      vertex -0.765367 1.84776 14.25
      vertex -0.390181 -1.96157 14.25
      vertex -0.390181 1.96157 14.25
    endloop
  endfacet
  facet normal 0 0 1
    outer loop
      vertex -0.765367 1.84776 14.25
      vertex -0.765367 -1.84776 14.25
      vertex -0.390181 -1.96157 14.25
    endloop
  endfacet
  facet normal -0 0 1
    outer loop
      vertex -1.11114 1.66294 14.25
      vertex -0.765367 -1.84776 14.25
      vertex -0.765367 1.84776 14.25
    endloop
  endfacet
  facet normal 0 0 1
    outer loop
      vertex -1.11114 1.66294 14.25
      vertex -1.11114 -1.66294 14.25
      vertex -0.765367 -1.84776 14.25
    endloop
  endfacet
  facet normal -0 0 1
    outer loop
      vertex -1.41421 1.41421 14.25
      vertex -1.11114 -1.66294 14.25
      vertex -1.11114 1.66294 14.25
    endloop
  endfacet
  facet normal 0 0 1
    outer loop
      vertex -1.41421 1.41421 14.25
      vertex -1.41421 -1.41421 14.25
      vertex -1.11114 -1.66294 14.25
    endloop
  endfacet
  facet normal -0 0 1
    outer loop
      vertex -1.66294 1.11114 14.25
      vertex -1.41421 -1.41421 14.25
      vertex -1.41421 1.41421 14.25
    endloop
  endfacet
  facet normal 0 0 1
    outer loop
      vertex -1.66294 1.11114 14.25
      vertex -1.66294 -1.11114 14.25
      vertex -1.41421 -1.41421 14.25
    endloop
  endfacet
  facet normal -0 0 1
    outer loop
      vertex -1.84776 0.765367 14.25
      vertex -1.66294 -1.11114 14.25
      vertex -1.66294 1.11114 14.25
    endloop
  endfacet
  facet normal 0 0 1
    outer loop
      vertex -1.84776 0.765367 14.25
      vertex -1.84776 -0.765367 14.25
      vertex -1.66294 -1.11114 14.25
    endloop
  endfacet
  facet normal -0 0 1
    outer loop
      vertex -1.96157 0.390181 14.25
      vertex -1.84776 -0.765367 14.25
      vertex -1.84776 0.765367 14.25
    endloop
  endfacet
  facet normal 0 0 1
    outer loop
      vertex -1.96157 0.390181 14.25
      vertex -1.96157 -0.390181 14.25
      vertex -1.84776 -0.765367 14.25
    endloop
  endfacet
  facet normal 0 -0 1
    outer loop
      vertex -1.96157 -0.390181 14.25
      vertex -1.96157 0.390181 14.25
      vertex -2 0 14.25
    endloop
  endfacet
  facet normal -0.290281 -0.956941 0
    outer loop
      vertex -0.765367 -1.84776 13.25
      vertex -0.390181 -1.96157 14.25
      vertex -0.765367 -1.84776 14.25
    endloop
  endfacet
  facet normal -0.290281 -0.956941 -0
    outer loop
      vertex -0.390181 -1.96157 14.25
      vertex -0.765367 -1.84776 13.25
      vertex -0.390181 -1.96157 13.25
    endloop
  endfacet
  facet normal 0.956941 -0.290281 0
    outer loop
      vertex 1.84776 -0.765367 14.25
      vertex 1.96157 -0.390181 13.25
      vertex 1.96157 -0.390181 14.25
    endloop
  endfacet
  facet normal 0.956941 -0.290281 0
    outer loop
      vertex 1.96157 -0.390181 13.25
      vertex 1.84776 -0.765367 14.25
      vertex 1.84776 -0.765367 13.25
    endloop
  endfacet
  facet normal 0.773002 0.634404 0
    outer loop
      vertex 1.66294 1.11114 14.25
      vertex 1.41421 1.41421 13.25
      vertex 1.41421 1.41421 14.25
    endloop
  endfacet
  facet normal 0.773002 0.634404 0
    outer loop
      vertex 1.41421 1.41421 13.25
      vertex 1.66294 1.11114 14.25
      vertex 1.66294 1.11114 13.25
    endloop
  endfacet
  facet normal -0.995185 0.0980185 0
    outer loop
      vertex -2 0 13.25
      vertex -1.96157 0.390181 14.25
      vertex -1.96157 0.390181 13.25
    endloop
  endfacet
  facet normal -0.995185 0.0980185 0
    outer loop
      vertex -1.96157 0.390181 14.25
      vertex -2 0 13.25
      vertex -2 0 14.25
    endloop
  endfacet
  facet normal 0.634404 -0.773002 0
    outer loop
      vertex 1.11114 -1.66294 13.25
      vertex 1.41421 -1.41421 14.25
      vertex 1.11114 -1.66294 14.25
    endloop
  endfacet
  facet normal 0.634404 -0.773002 0
    outer loop
      vertex 1.41421 -1.41421 14.25
      vertex 1.11114 -1.66294 13.25
      vertex 1.41421 -1.41421 13.25
    endloop
  endfacet
  facet normal -0.471398 0.881921 0
    outer loop
      vertex -0.765367 1.84776 13.25
      vertex -1.11114 1.66294 14.25
      vertex -0.765367 1.84776 14.25
    endloop
  endfacet
  facet normal -0.471398 0.881921 0
    outer loop
      vertex -1.11114 1.66294 14.25
      vertex -0.765367 1.84776 13.25
      vertex -1.11114 1.66294 13.25
    endloop
  endfacet
  facet normal -0.634404 -0.773002 0
    outer loop
      vertex -1.41421 -1.41421 13.25
      vertex -1.11114 -1.66294 14.25
      vertex -1.41421 -1.41421 14.25
    endloop
  endfacet
  facet normal -0.634404 -0.773002 -0
    outer loop
      vertex -1.11114 -1.66294 14.25
      vertex -1.41421 -1.41421 13.25
      vertex -1.11114 -1.66294 13.25
    endloop
  endfacet
  facet normal -0.0980185 0.995185 0
    outer loop
      vertex 0 2 13.25
      vertex -0.390181 1.96157 14.25
      vertex 0 2 14.25
    endloop
  endfacet
  facet normal -0.0980185 0.995185 0
    outer loop
      vertex -0.390181 1.96157 14.25
      vertex 0 2 13.25
      vertex -0.390181 1.96157 13.25
    endloop
  endfacet
  facet normal 0.881921 -0.471398 0
    outer loop
      vertex 1.66294 -1.11114 14.25
      vertex 1.84776 -0.765367 13.25
      vertex 1.84776 -0.765367 14.25
    endloop
  endfacet
  facet normal 0.881921 -0.471398 0
    outer loop
      vertex 1.84776 -0.765367 13.25
      vertex 1.66294 -1.11114 14.25
      vertex 1.66294 -1.11114 13.25
    endloop
  endfacet
  facet normal -0.956941 -0.290281 0
    outer loop
      vertex -1.84776 -0.765367 13.25
      vertex -1.96157 -0.390181 14.25
      vertex -1.96157 -0.390181 13.25
    endloop
  endfacet
  facet normal -0.956941 -0.290281 0
    outer loop
      vertex -1.96157 -0.390181 14.25
      vertex -1.84776 -0.765367 13.25
      vertex -1.84776 -0.765367 14.25
    endloop
  endfacet
  facet normal -0.995185 -0.0980185 0
    outer loop
      vertex -1.96157 -0.390181 13.25
      vertex -2 0 14.25
      vertex -2 0 13.25
    endloop
  endfacet
  facet normal -0.995185 -0.0980185 0
    outer loop
      vertex -2 0 14.25
      vertex -1.96157 -0.390181 13.25
      vertex -1.96157 -0.390181 14.25
    endloop
  endfacet
  facet normal -0.773002 -0.634404 0
    outer loop
      vertex -1.41421 -1.41421 13.25
      vertex -1.66294 -1.11114 14.25
      vertex -1.66294 -1.11114 13.25
    endloop
  endfacet
  facet normal -0.773002 -0.634404 0
    outer loop
      vertex -1.66294 -1.11114 14.25
      vertex -1.41421 -1.41421 13.25
      vertex -1.41421 -1.41421 14.25
    endloop
  endfacet
  facet normal -0.773002 0.634404 0
    outer loop
      vertex -1.66294 1.11114 13.25
      vertex -1.41421 1.41421 14.25
      vertex -1.41421 1.41421 13.25
    endloop
  endfacet
  facet normal -0.773002 0.634404 0
    outer loop
      vertex -1.41421 1.41421 14.25
      vertex -1.66294 1.11114 13.25
      vertex -1.66294 1.11114 14.25
    endloop
  endfacet
  facet normal -0.956941 0.290281 0
    outer loop
      vertex -1.96157 0.390181 13.25
      vertex -1.84776 0.765367 14.25
      vertex -1.84776 0.765367 13.25
    endloop
  endfacet
  facet normal -0.956941 0.290281 0
    outer loop
      vertex -1.84776 0.765367 14.25
      vertex -1.96157 0.390181 13.25
      vertex -1.96157 0.390181 14.25
    endloop
  endfacet
  facet normal -0.471398 -0.881921 0
    outer loop
      vertex -1.11114 -1.66294 13.25
      vertex -0.765367 -1.84776 14.25
      vertex -1.11114 -1.66294 14.25
    endloop
  endfacet
  facet normal -0.471398 -0.881921 -0
    outer loop
      vertex -0.765367 -1.84776 14.25
      vertex -1.11114 -1.66294 13.25
      vertex -0.765367 -1.84776 13.25
    endloop
  endfacet
endsolid OpenSCAD_Model
