solid crank spacer - crank spacer (repaired)
 facet normal 0.000000 0.000000 1.000000
  outer loop
   vertex 28.020803 15.745685 37.587799
   vertex 28.571751 23.998198 37.587799
   vertex 28.270721 24.024534 37.587799
  endloop
 endfacet
 facet normal 0.000000 0.000000 1.000000
  outer loop
   vertex 27.243773 26.846054 37.587799
   vertex 20.199038 31.201912 37.587799
   vertex 27.070452 26.598524 37.587799
  endloop
 endfacet
 facet normal 0.000000 0.000000 1.000000
  outer loop
   vertex 27.070452 26.598524 37.587799
   vertex 20.199038 31.201912 37.587799
   vertex 19.648092 30.247648 37.587799
  endloop
 endfacet
 facet normal 0.000000 0.000000 1.000000
  outer loop
   vertex 27.070452 26.598524 37.587799
   vertex 19.648092 30.247648 37.587799
   vertex 26.942745 26.324659 37.587799
  endloop
 endfacet
 facet normal 0.000000 0.000000 1.000000
  outer loop
   vertex 27.978840 27.360752 37.587799
   vertex 24.303450 34.776451 37.587799
   vertex 27.704975 27.233046 37.587799
  endloop
 endfacet
 facet normal 0.000000 0.000000 1.000000
  outer loop
   vertex 27.704975 27.233046 37.587799
   vertex 24.303450 34.776451 37.587799
   vertex 23.334368 34.252007 37.587799
  endloop
 endfacet
 facet normal 0.000000 0.000000 1.000000
  outer loop
   vertex 27.704975 27.233046 37.587799
   vertex 23.334368 34.252007 37.587799
   vertex 27.457443 27.059725 37.587799
  endloop
 endfacet
 facet normal 0.000000 0.000000 1.000000
  outer loop
   vertex 27.978840 24.102741 37.587799
   vertex 25.850374 16.107864 37.587799
   vertex 28.270721 24.024534 37.587799
  endloop
 endfacet
 facet normal 0.000000 0.000000 1.000000
  outer loop
   vertex 28.270721 24.024534 37.587799
   vertex 25.850374 16.107864 37.587799
   vertex 26.925598 15.866903 37.587799
  endloop
 endfacet
 facet normal 0.000000 0.000000 1.000000
  outer loop
   vertex 28.270721 24.024534 37.587799
   vertex 26.925598 15.866903 37.587799
   vertex 28.020803 15.745685 37.587799
  endloop
 endfacet
 facet normal 0.000000 0.000000 1.000000
  outer loop
   vertex 27.457443 24.403770 37.587799
   vertex 22.872955 17.512943 37.587799
   vertex 27.704975 24.230450 37.587799
  endloop
 endfacet
 facet normal 0.000000 0.000000 1.000000
  outer loop
   vertex 27.704975 24.230450 37.587799
   vertex 22.872955 17.512943 37.587799
   vertex 23.811680 16.935913 37.587799
  endloop
 endfacet
 facet normal 0.000000 0.000000 1.000000
  outer loop
   vertex 27.704975 24.230450 37.587799
   vertex 23.811680 16.935913 37.587799
   vertex 27.978840 24.102741 37.587799
  endloop
 endfacet
 facet normal 0.000000 0.000000 1.000000
  outer loop
   vertex 27.978840 24.102741 37.587799
   vertex 23.811680 16.935913 37.587799
   vertex 24.808186 16.465649 37.587799
  endloop
 endfacet
 facet normal 0.000000 0.000000 1.000000
  outer loop
   vertex 27.978840 24.102741 37.587799
   vertex 24.808186 16.465649 37.587799
   vertex 25.850374 16.107864 37.587799
  endloop
 endfacet
 facet normal 0.000000 0.000000 1.000000
  outer loop
   vertex 27.070452 24.864973 37.587799
   vertex 26.942745 25.138838 37.587799
   vertex 19.412872 21.714291 37.587799
  endloop
 endfacet
 facet normal 0.000000 0.000000 1.000000
  outer loop
   vertex 26.838200 25.731749 37.587799
   vertex 18.604658 24.905853 37.587799
   vertex 26.864536 25.430721 37.587799
  endloop
 endfacet
 facet normal 0.000000 0.000000 1.000000
  outer loop
   vertex 26.864536 25.430721 37.587799
   vertex 18.604658 24.905853 37.587799
   vertex 18.756008 23.814402 37.587799
  endloop
 endfacet
 facet normal 0.000000 0.000000 1.000000
  outer loop
   vertex 26.864536 25.430721 37.587799
   vertex 18.756008 23.814402 37.587799
   vertex 26.942745 25.138838 37.587799
  endloop
 endfacet
 facet normal 0.000000 0.000000 1.000000
  outer loop
   vertex 26.942745 25.138838 37.587799
   vertex 18.756008 23.814402 37.587799
   vertex 19.026506 22.746227 37.587799
  endloop
 endfacet
 facet normal 0.000000 0.000000 1.000000
  outer loop
   vertex 26.942745 25.138838 37.587799
   vertex 19.026506 22.746227 37.587799
   vertex 19.412872 21.714291 37.587799
  endloop
 endfacet
 facet normal 0.000000 0.000000 1.000000
  outer loop
   vertex 28.571751 27.465298 37.587799
   vertex 27.471527 35.672298 37.587799
   vertex 28.270721 27.438961 37.587799
  endloop
 endfacet
 facet normal 0.000000 0.000000 1.000000
  outer loop
   vertex 28.270721 27.438961 37.587799
   vertex 27.471527 35.672298 37.587799
   vertex 26.384666 35.490932 37.587799
  endloop
 endfacet
 facet normal 0.000000 0.000000 1.000000
  outer loop
   vertex 28.270721 27.438961 37.587799
   vertex 26.384666 35.490932 37.587799
   vertex 27.978840 27.360752 37.587799
  endloop
 endfacet
 facet normal 0.000000 0.000000 1.000000
  outer loop
   vertex 27.978840 27.360752 37.587799
   vertex 26.384666 35.490932 37.587799
   vertex 25.324348 35.191101 37.587799
  endloop
 endfacet
 facet normal 0.000000 0.000000 1.000000
  outer loop
   vertex 27.978840 27.360752 37.587799
   vertex 25.324348 35.191101 37.587799
   vertex 24.303450 34.776451 37.587799
  endloop
 endfacet
 facet normal 0.000000 0.000000 1.000000
  outer loop
   vertex 19.412872 21.714291 37.587799
   vertex 19.910414 20.731123 37.587799
   vertex 27.070452 24.864973 37.587799
  endloop
 endfacet
 facet normal 0.000000 0.000000 1.000000
  outer loop
   vertex 27.070452 24.864973 37.587799
   vertex 19.910414 20.731123 37.587799
   vertex 20.513092 19.808657 37.587799
  endloop
 endfacet
 facet normal 0.000000 0.000000 1.000000
  outer loop
   vertex 27.070452 24.864973 37.587799
   vertex 20.513092 19.808657 37.587799
   vertex 27.243773 24.617443 37.587799
  endloop
 endfacet
 facet normal 0.000000 0.000000 1.000000
  outer loop
   vertex 27.243773 24.617443 37.587799
   vertex 20.513092 19.808657 37.587799
   vertex 21.213591 18.958086 37.587799
  endloop
 endfacet
 facet normal 0.000000 0.000000 1.000000
  outer loop
   vertex 27.243773 24.617443 37.587799
   vertex 21.213591 18.958086 37.587799
   vertex 27.457443 24.403770 37.587799
  endloop
 endfacet
 facet normal 0.000000 0.000000 1.000000
  outer loop
   vertex 27.457443 24.403770 37.587799
   vertex 21.213591 18.958086 37.587799
   vertex 22.003408 18.189737 37.587799
  endloop
 endfacet
 facet normal 0.000000 0.000000 1.000000
  outer loop
   vertex 27.457443 24.403770 37.587799
   vertex 22.003408 18.189737 37.587799
   vertex 22.872955 17.512943 37.587799
  endloop
 endfacet
 facet normal 0.000000 0.000000 1.000000
  outer loop
   vertex 19.648092 30.247648 37.587799
   vertex 19.205467 29.238564 37.587799
   vertex 26.942745 26.324659 37.587799
  endloop
 endfacet
 facet normal 0.000000 0.000000 1.000000
  outer loop
   vertex 26.942745 26.324659 37.587799
   vertex 19.205467 29.238564 37.587799
   vertex 18.876535 28.186911 37.587799
  endloop
 endfacet
 facet normal 0.000000 0.000000 1.000000
  outer loop
   vertex 26.942745 26.324659 37.587799
   vertex 18.876535 28.186911 37.587799
   vertex 26.864536 26.032776 37.587799
  endloop
 endfacet
 facet normal 0.000000 0.000000 1.000000
  outer loop
   vertex 26.864536 26.032776 37.587799
   vertex 18.876535 28.186911 37.587799
   vertex 18.665291 27.105457 37.587799
  endloop
 endfacet
 facet normal 0.000000 0.000000 1.000000
  outer loop
   vertex 26.864536 26.032776 37.587799
   vertex 18.665291 27.105457 37.587799
   vertex 26.838200 25.731749 37.587799
  endloop
 endfacet
 facet normal 0.000000 0.000000 1.000000
  outer loop
   vertex 26.838200 25.731749 37.587799
   vertex 18.665291 27.105457 37.587799
   vertex 18.574297 26.007328 37.587799
  endloop
 endfacet
 facet normal 0.000000 0.000000 1.000000
  outer loop
   vertex 26.838200 25.731749 37.587799
   vertex 18.574297 26.007328 37.587799
   vertex 18.604658 24.905853 37.587799
  endloop
 endfacet
 facet normal 0.000000 0.000000 1.000000
  outer loop
   vertex 23.334368 34.252007 37.587799
   vertex 22.428854 33.624138 37.587799
   vertex 27.457443 27.059725 37.587799
  endloop
 endfacet
 facet normal 0.000000 0.000000 1.000000
  outer loop
   vertex 27.457443 27.059725 37.587799
   vertex 22.428854 33.624138 37.587799
   vertex 21.597910 32.900467 37.587799
  endloop
 endfacet
 facet normal 0.000000 0.000000 1.000000
  outer loop
   vertex 27.457443 27.059725 37.587799
   vertex 21.597910 32.900467 37.587799
   vertex 27.243773 26.846054 37.587799
  endloop
 endfacet
 facet normal 0.000000 0.000000 1.000000
  outer loop
   vertex 27.243773 26.846054 37.587799
   vertex 21.597910 32.900467 37.587799
   vertex 20.851618 32.089783 37.587799
  endloop
 endfacet
 facet normal 0.000000 0.000000 1.000000
  outer loop
   vertex 27.243773 26.846054 37.587799
   vertex 20.851618 32.089783 37.587799
   vertex 20.199038 31.201912 37.587799
  endloop
 endfacet
 facet normal 0.000000 0.000000 1.000000
  outer loop
   vertex 28.872776 27.438961 37.587799
   vertex 29.671967 35.672298 37.587799
   vertex 28.571751 27.465298 37.587799
  endloop
 endfacet
 facet normal 0.000000 0.000000 1.000000
  outer loop
   vertex 28.571751 27.465298 37.587799
   vertex 29.671967 35.672298 37.587799
   vertex 28.571751 35.732998 37.587799
  endloop
 endfacet
 facet normal 0.000000 0.000000 1.000000
  outer loop
   vertex 28.571751 27.465298 37.587799
   vertex 28.571751 35.732998 37.587799
   vertex 27.471527 35.672298 37.587799
  endloop
 endfacet
 facet normal 0.000000 0.000000 1.000000
  outer loop
   vertex 29.438524 27.233046 37.587799
   vertex 32.840042 34.776451 37.587799
   vertex 29.164660 27.360752 37.587799
  endloop
 endfacet
 facet normal 0.000000 0.000000 1.000000
  outer loop
   vertex 29.164660 27.360752 37.587799
   vertex 32.840042 34.776451 37.587799
   vertex 31.819149 35.191101 37.587799
  endloop
 endfacet
 facet normal 0.000000 0.000000 1.000000
  outer loop
   vertex 29.164660 27.360752 37.587799
   vertex 31.819149 35.191101 37.587799
   vertex 28.872776 27.438961 37.587799
  endloop
 endfacet
 facet normal 0.000000 0.000000 1.000000
  outer loop
   vertex 28.872776 27.438961 37.587799
   vertex 31.819149 35.191101 37.587799
   vertex 30.758831 35.490932 37.587799
  endloop
 endfacet
 facet normal 0.000000 0.000000 1.000000
  outer loop
   vertex 28.872776 27.438961 37.587799
   vertex 30.758831 35.490932 37.587799
   vertex 29.671967 35.672298 37.587799
  endloop
 endfacet
 facet normal 0.000000 0.000000 1.000000
  outer loop
   vertex 29.899725 26.846054 37.587799
   vertex 35.545589 32.900467 37.587799
   vertex 29.686054 27.059725 37.587799
  endloop
 endfacet
 facet normal 0.000000 0.000000 1.000000
  outer loop
   vertex 29.686054 27.059725 37.587799
   vertex 35.545589 32.900467 37.587799
   vertex 34.714645 33.624138 37.587799
  endloop
 endfacet
 facet normal 0.000000 0.000000 1.000000
  outer loop
   vertex 29.686054 27.059725 37.587799
   vertex 34.714645 33.624138 37.587799
   vertex 29.438524 27.233046 37.587799
  endloop
 endfacet
 facet normal 0.000000 0.000000 1.000000
  outer loop
   vertex 29.438524 27.233046 37.587799
   vertex 34.714645 33.624138 37.587799
   vertex 33.809135 34.252007 37.587799
  endloop
 endfacet
 facet normal 0.000000 0.000000 1.000000
  outer loop
   vertex 29.438524 27.233046 37.587799
   vertex 33.809135 34.252007 37.587799
   vertex 32.840042 34.776451 37.587799
  endloop
 endfacet
 facet normal 0.000000 0.000000 1.000000
  outer loop
   vertex 30.073046 24.864973 37.587799
   vertex 37.730625 21.714291 37.587799
   vertex 30.200756 25.138838 37.587799
  endloop
 endfacet
 facet normal 0.000000 0.000000 1.000000
  outer loop
   vertex 30.200756 25.138838 37.587799
   vertex 37.730625 21.714291 37.587799
   vertex 38.116989 22.746227 37.587799
  endloop
 endfacet
 facet normal 0.000000 0.000000 1.000000
  outer loop
   vertex 30.200756 25.138838 37.587799
   vertex 38.116989 22.746227 37.587799
   vertex 30.278961 25.430721 37.587799
  endloop
 endfacet
 facet normal 0.000000 0.000000 1.000000
  outer loop
   vertex 29.899725 24.617443 37.587799
   vertex 36.630409 19.808657 37.587799
   vertex 30.073046 24.864973 37.587799
  endloop
 endfacet
 facet normal 0.000000 0.000000 1.000000
  outer loop
   vertex 30.073046 24.864973 37.587799
   vertex 36.630409 19.808657 37.587799
   vertex 37.233086 20.731123 37.587799
  endloop
 endfacet
 facet normal 0.000000 0.000000 1.000000
  outer loop
   vertex 30.073046 24.864973 37.587799
   vertex 37.233086 20.731123 37.587799
   vertex 37.730625 21.714291 37.587799
  endloop
 endfacet
 facet normal 0.000000 0.000000 1.000000
  outer loop
   vertex 30.200756 26.324659 37.587799
   vertex 37.495407 30.247648 37.587799
   vertex 30.073046 26.598524 37.587799
  endloop
 endfacet
 facet normal 0.000000 0.000000 1.000000
  outer loop
   vertex 30.073046 26.598524 37.587799
   vertex 37.495407 30.247648 37.587799
   vertex 36.944458 31.201912 37.587799
  endloop
 endfacet
 facet normal 0.000000 0.000000 1.000000
  outer loop
   vertex 30.073046 26.598524 37.587799
   vertex 36.944458 31.201912 37.587799
   vertex 29.899725 26.846054 37.587799
  endloop
 endfacet
 facet normal 0.000000 0.000000 1.000000
  outer loop
   vertex 29.899725 26.846054 37.587799
   vertex 36.944458 31.201912 37.587799
   vertex 36.291878 32.089783 37.587799
  endloop
 endfacet
 facet normal 0.000000 0.000000 1.000000
  outer loop
   vertex 29.899725 26.846054 37.587799
   vertex 36.291878 32.089783 37.587799
   vertex 35.545589 32.900467 37.587799
  endloop
 endfacet
 facet normal 0.000000 0.000000 1.000000
  outer loop
   vertex 28.872776 24.024534 37.587799
   vertex 31.293121 16.107864 37.587799
   vertex 29.164660 24.102741 37.587799
  endloop
 endfacet
 facet normal 0.000000 0.000000 1.000000
  outer loop
   vertex 29.164660 24.102741 37.587799
   vertex 31.293121 16.107864 37.587799
   vertex 32.335312 16.465649 37.587799
  endloop
 endfacet
 facet normal 0.000000 0.000000 1.000000
  outer loop
   vertex 29.164660 24.102741 37.587799
   vertex 32.335312 16.465649 37.587799
   vertex 29.438524 24.230450 37.587799
  endloop
 endfacet
 facet normal 0.000000 0.000000 1.000000
  outer loop
   vertex 28.020803 15.745685 37.587799
   vertex 28.571751 15.730497 37.587799
   vertex 28.571751 23.998198 37.587799
  endloop
 endfacet
 facet normal 0.000000 0.000000 1.000000
  outer loop
   vertex 28.571751 23.998198 37.587799
   vertex 28.571751 15.730497 37.587799
   vertex 29.122696 15.745685 37.587799
  endloop
 endfacet
 facet normal 0.000000 0.000000 1.000000
  outer loop
   vertex 28.571751 23.998198 37.587799
   vertex 29.122696 15.745685 37.587799
   vertex 28.872776 24.024534 37.587799
  endloop
 endfacet
 facet normal 0.000000 0.000000 1.000000
  outer loop
   vertex 28.872776 24.024534 37.587799
   vertex 29.122696 15.745685 37.587799
   vertex 30.217899 15.866903 37.587799
  endloop
 endfacet
 facet normal 0.000000 0.000000 1.000000
  outer loop
   vertex 28.872776 24.024534 37.587799
   vertex 30.217899 15.866903 37.587799
   vertex 31.293121 16.107864 37.587799
  endloop
 endfacet
 facet normal 0.000000 0.000000 1.000000
  outer loop
   vertex 30.278961 26.032776 37.587799
   vertex 38.266964 28.186911 37.587799
   vertex 30.200756 26.324659 37.587799
  endloop
 endfacet
 facet normal 0.000000 0.000000 1.000000
  outer loop
   vertex 30.200756 26.324659 37.587799
   vertex 38.266964 28.186911 37.587799
   vertex 37.938034 29.238564 37.587799
  endloop
 endfacet
 facet normal 0.000000 0.000000 1.000000
  outer loop
   vertex 30.200756 26.324659 37.587799
   vertex 37.938034 29.238564 37.587799
   vertex 37.495407 30.247648 37.587799
  endloop
 endfacet
 facet normal 0.000000 0.000000 1.000000
  outer loop
   vertex 38.116989 22.746227 37.587799
   vertex 38.387489 23.814402 37.587799
   vertex 30.278961 25.430721 37.587799
  endloop
 endfacet
 facet normal 0.000000 0.000000 1.000000
  outer loop
   vertex 30.278961 25.430721 37.587799
   vertex 38.387489 23.814402 37.587799
   vertex 38.538841 24.905853 37.587799
  endloop
 endfacet
 facet normal 0.000000 0.000000 1.000000
  outer loop
   vertex 30.278961 25.430721 37.587799
   vertex 38.538841 24.905853 37.587799
   vertex 30.305298 25.731749 37.587799
  endloop
 endfacet
 facet normal 0.000000 0.000000 1.000000
  outer loop
   vertex 30.305298 25.731749 37.587799
   vertex 38.538841 24.905853 37.587799
   vertex 38.569199 26.007328 37.587799
  endloop
 endfacet
 facet normal 0.000000 0.000000 1.000000
  outer loop
   vertex 30.305298 25.731749 37.587799
   vertex 38.569199 26.007328 37.587799
   vertex 30.278961 26.032776 37.587799
  endloop
 endfacet
 facet normal 0.000000 0.000000 1.000000
  outer loop
   vertex 30.278961 26.032776 37.587799
   vertex 38.569199 26.007328 37.587799
   vertex 38.478207 27.105457 37.587799
  endloop
 endfacet
 facet normal 0.000000 0.000000 1.000000
  outer loop
   vertex 30.278961 26.032776 37.587799
   vertex 38.478207 27.105457 37.587799
   vertex 38.266964 28.186911 37.587799
  endloop
 endfacet
 facet normal 0.000000 0.000000 1.000000
  outer loop
   vertex 32.335312 16.465649 37.587799
   vertex 33.331818 16.935913 37.587799
   vertex 29.438524 24.230450 37.587799
  endloop
 endfacet
 facet normal 0.000000 0.000000 1.000000
  outer loop
   vertex 29.438524 24.230450 37.587799
   vertex 33.331818 16.935913 37.587799
   vertex 34.270542 17.512943 37.587799
  endloop
 endfacet
 facet normal 0.000000 0.000000 1.000000
  outer loop
   vertex 29.438524 24.230450 37.587799
   vertex 34.270542 17.512943 37.587799
   vertex 29.686054 24.403770 37.587799
  endloop
 endfacet
 facet normal 0.000000 0.000000 1.000000
  outer loop
   vertex 29.686054 24.403770 37.587799
   vertex 34.270542 17.512943 37.587799
   vertex 35.140091 18.189737 37.587799
  endloop
 endfacet
 facet normal 0.000000 0.000000 1.000000
  outer loop
   vertex 29.686054 24.403770 37.587799
   vertex 35.140091 18.189737 37.587799
   vertex 29.899725 24.617443 37.587799
  endloop
 endfacet
 facet normal 0.000000 0.000000 1.000000
  outer loop
   vertex 29.899725 24.617443 37.587799
   vertex 35.140091 18.189737 37.587799
   vertex 35.929905 18.958086 37.587799
  endloop
 endfacet
 facet normal 0.000000 0.000000 1.000000
  outer loop
   vertex 29.899725 24.617443 37.587799
   vertex 35.929905 18.958086 37.587799
   vertex 36.630409 19.808657 37.587799
  endloop
 endfacet
 facet normal 0.000000 0.000000 -1.000000
  outer loop
   vertex 28.571751 27.465300 19.574501
   vertex 28.270721 27.438961 19.574501
   vertex 27.471527 35.672298 19.574501
  endloop
 endfacet
 facet normal 0.000000 0.000000 -1.000000
  outer loop
   vertex 27.704975 27.233047 19.574501
   vertex 24.303450 34.776451 19.574501
   vertex 27.978840 27.360754 19.574501
  endloop
 endfacet
 facet normal 0.000000 0.000000 -1.000000
  outer loop
   vertex 27.978840 27.360754 19.574501
   vertex 24.303450 34.776451 19.574501
   vertex 25.324348 35.191105 19.574501
  endloop
 endfacet
 facet normal 0.000000 0.000000 -1.000000
  outer loop
   vertex 27.978840 27.360754 19.574501
   vertex 25.324348 35.191105 19.574501
   vertex 28.270721 27.438961 19.574501
  endloop
 endfacet
 facet normal 0.000000 0.000000 -1.000000
  outer loop
   vertex 28.270721 27.438961 19.574501
   vertex 25.324348 35.191105 19.574501
   vertex 26.384666 35.490932 19.574501
  endloop
 endfacet
 facet normal 0.000000 0.000000 -1.000000
  outer loop
   vertex 28.270721 27.438961 19.574501
   vertex 26.384666 35.490932 19.574501
   vertex 27.471527 35.672298 19.574501
  endloop
 endfacet
 facet normal 0.000000 0.000000 -1.000000
  outer loop
   vertex 27.243773 26.846054 19.574499
   vertex 21.597910 32.900471 19.574501
   vertex 27.457443 27.059727 19.574499
  endloop
 endfacet
 facet normal 0.000000 0.000000 -1.000000
  outer loop
   vertex 27.457443 27.059727 19.574499
   vertex 21.597910 32.900471 19.574501
   vertex 22.428854 33.624138 19.574501
  endloop
 endfacet
 facet normal 0.000005 0.000004 -1.000000
  outer loop
   vertex 27.457443 27.059727 19.574499
   vertex 22.428854 33.624138 19.574501
   vertex 27.704975 27.233047 19.574501
  endloop
 endfacet
 facet normal 0.000000 0.000000 -1.000000
  outer loop
   vertex 27.704975 27.233047 19.574501
   vertex 22.428854 33.624138 19.574501
   vertex 23.334368 34.252007 19.574501
  endloop
 endfacet
 facet normal 0.000000 0.000000 -1.000000
  outer loop
   vertex 27.704975 27.233047 19.574501
   vertex 23.334368 34.252007 19.574501
   vertex 24.303450 34.776451 19.574501
  endloop
 endfacet
 facet normal 0.000000 0.000000 -1.000000
  outer loop
   vertex 27.070452 26.598524 19.574499
   vertex 20.199038 31.201912 19.574501
   vertex 27.243773 26.846054 19.574499
  endloop
 endfacet
 facet normal 0.000000 0.000000 -1.000000
  outer loop
   vertex 27.243773 26.846054 19.574499
   vertex 20.199038 31.201912 19.574501
   vertex 20.851618 32.089783 19.574501
  endloop
 endfacet
 facet normal 0.000000 0.000000 -1.000000
  outer loop
   vertex 27.243773 26.846054 19.574499
   vertex 20.851618 32.089783 19.574501
   vertex 21.597910 32.900471 19.574501
  endloop
 endfacet
 facet normal 0.000000 0.000000 -1.000000
  outer loop
   vertex 26.864536 25.430721 19.574499
   vertex 18.604658 24.905853 19.574499
   vertex 26.838200 25.731749 19.574499
  endloop
 endfacet
 facet normal 0.000000 0.000000 -1.000000
  outer loop
   vertex 26.838200 25.731749 19.574499
   vertex 18.604658 24.905853 19.574499
   vertex 18.574297 26.007328 19.574499
  endloop
 endfacet
 facet normal 0.000000 0.000000 -1.000000
  outer loop
   vertex 26.838200 25.731749 19.574499
   vertex 18.574297 26.007328 19.574499
   vertex 26.864536 26.032776 19.574499
  endloop
 endfacet
 facet normal 0.000000 0.000000 -1.000000
  outer loop
   vertex 27.070452 24.864975 19.574499
   vertex 19.412872 21.714291 19.574499
   vertex 26.942745 25.138840 19.574499
  endloop
 endfacet
 facet normal 0.000000 0.000000 -1.000000
  outer loop
   vertex 26.942745 25.138840 19.574499
   vertex 19.412872 21.714291 19.574499
   vertex 19.026506 22.746227 19.574499
  endloop
 endfacet
 facet normal 0.000000 0.000000 -1.000000
  outer loop
   vertex 26.942745 25.138840 19.574499
   vertex 19.026506 22.746227 19.574499
   vertex 26.864536 25.430721 19.574499
  endloop
 endfacet
 facet normal 0.000000 0.000000 -1.000000
  outer loop
   vertex 26.864536 25.430721 19.574499
   vertex 19.026506 22.746227 19.574499
   vertex 18.756008 23.814404 19.574499
  endloop
 endfacet
 facet normal 0.000000 0.000000 -1.000000
  outer loop
   vertex 26.864536 25.430721 19.574499
   vertex 18.756008 23.814404 19.574499
   vertex 18.604658 24.905853 19.574499
  endloop
 endfacet
 facet normal 0.000000 0.000000 -1.000000
  outer loop
   vertex 29.164660 27.360754 19.574501
   vertex 32.840042 34.776451 19.574501
   vertex 29.438524 27.233047 19.574501
  endloop
 endfacet
 facet normal 0.000000 0.000000 -1.000000
  outer loop
   vertex 29.438524 27.233047 19.574501
   vertex 32.840042 34.776451 19.574501
   vertex 33.809135 34.252007 19.574501
  endloop
 endfacet
 facet normal -0.000005 0.000003 -1.000000
  outer loop
   vertex 29.438524 27.233047 19.574501
   vertex 33.809135 34.252007 19.574501
   vertex 29.686054 27.059727 19.574499
  endloop
 endfacet
 facet normal 0.000000 0.000000 -1.000000
  outer loop
   vertex 27.471527 35.672298 19.574501
   vertex 28.571751 35.733002 19.574501
   vertex 28.571751 27.465300 19.574501
  endloop
 endfacet
 facet normal 0.000000 0.000000 -1.000000
  outer loop
   vertex 28.571751 27.465300 19.574501
   vertex 28.571751 35.733002 19.574501
   vertex 29.671967 35.672298 19.574501
  endloop
 endfacet
 facet normal 0.000000 0.000000 -1.000000
  outer loop
   vertex 28.571751 27.465300 19.574501
   vertex 29.671967 35.672298 19.574501
   vertex 28.872776 27.438961 19.574501
  endloop
 endfacet
 facet normal 0.000000 0.000000 -1.000000
  outer loop
   vertex 28.872776 27.438961 19.574501
   vertex 29.671967 35.672298 19.574501
   vertex 30.758831 35.490932 19.574501
  endloop
 endfacet
 facet normal 0.000000 0.000000 -1.000000
  outer loop
   vertex 28.872776 27.438961 19.574501
   vertex 30.758831 35.490932 19.574501
   vertex 29.164660 27.360754 19.574501
  endloop
 endfacet
 facet normal 0.000000 0.000000 -1.000000
  outer loop
   vertex 29.164660 27.360754 19.574501
   vertex 30.758831 35.490932 19.574501
   vertex 31.819149 35.191105 19.574501
  endloop
 endfacet
 facet normal 0.000000 0.000000 -1.000000
  outer loop
   vertex 29.164660 27.360754 19.574501
   vertex 31.819149 35.191105 19.574501
   vertex 32.840042 34.776451 19.574501
  endloop
 endfacet
 facet normal 0.000000 0.000000 -1.000000
  outer loop
   vertex 18.574297 26.007328 19.574499
   vertex 18.665291 27.105457 19.574499
   vertex 26.864536 26.032776 19.574499
  endloop
 endfacet
 facet normal 0.000000 0.000002 -1.000000
  outer loop
   vertex 26.864536 26.032776 19.574499
   vertex 18.665291 27.105457 19.574499
   vertex 18.876535 28.186913 19.574501
  endloop
 endfacet
 facet normal 0.000000 0.000000 -1.000000
  outer loop
   vertex 26.864536 26.032776 19.574499
   vertex 18.876535 28.186913 19.574501
   vertex 26.942745 26.324659 19.574499
  endloop
 endfacet
 facet normal 0.000000 0.000000 -1.000000
  outer loop
   vertex 26.942745 26.324659 19.574499
   vertex 18.876535 28.186913 19.574501
   vertex 19.205467 29.238564 19.574501
  endloop
 endfacet
 facet normal 0.000000 0.000000 -1.000000
  outer loop
   vertex 26.942745 26.324659 19.574499
   vertex 19.205467 29.238564 19.574501
   vertex 27.070452 26.598524 19.574499
  endloop
 endfacet
 facet normal 0.000000 0.000000 -1.000000
  outer loop
   vertex 27.070452 26.598524 19.574499
   vertex 19.205467 29.238564 19.574501
   vertex 19.648092 30.247650 19.574501
  endloop
 endfacet
 facet normal 0.000000 0.000000 -1.000000
  outer loop
   vertex 27.070452 26.598524 19.574499
   vertex 19.648092 30.247650 19.574501
   vertex 20.199038 31.201912 19.574501
  endloop
 endfacet
 facet normal 0.000000 0.000000 -1.000000
  outer loop
   vertex 27.243773 24.617443 19.574499
   vertex 20.513092 19.808657 19.574499
   vertex 27.070452 24.864975 19.574499
  endloop
 endfacet
 facet normal 0.000000 0.000000 -1.000000
  outer loop
   vertex 27.070452 24.864975 19.574499
   vertex 20.513092 19.808657 19.574499
   vertex 19.910414 20.731125 19.574499
  endloop
 endfacet
 facet normal 0.000000 0.000000 -1.000000
  outer loop
   vertex 27.070452 24.864975 19.574499
   vertex 19.910414 20.731125 19.574499
   vertex 19.412872 21.714291 19.574499
  endloop
 endfacet
 facet normal 0.000000 0.000000 -1.000000
  outer loop
   vertex 29.122696 15.745686 19.574499
   vertex 28.571751 23.998199 19.574499
   vertex 28.872776 24.024536 19.574499
  endloop
 endfacet
 facet normal 0.000000 0.000000 -1.000000
  outer loop
   vertex 28.270721 24.024536 19.574499
   vertex 25.850374 16.107864 19.574499
   vertex 27.978840 24.102743 19.574499
  endloop
 endfacet
 facet normal 0.000000 0.000000 -1.000000
  outer loop
   vertex 27.978840 24.102743 19.574499
   vertex 25.850374 16.107864 19.574499
   vertex 24.808186 16.465651 19.574499
  endloop
 endfacet
 facet normal 0.000000 0.000000 -1.000000
  outer loop
   vertex 27.978840 24.102743 19.574499
   vertex 24.808186 16.465651 19.574499
   vertex 27.704975 24.230452 19.574499
  endloop
 endfacet
 facet normal 0.000000 0.000000 -1.000000
  outer loop
   vertex 29.164660 24.102743 19.574499
   vertex 31.293121 16.107864 19.574499
   vertex 28.872776 24.024536 19.574499
  endloop
 endfacet
 facet normal 0.000000 0.000000 -1.000000
  outer loop
   vertex 28.872776 24.024536 19.574499
   vertex 31.293121 16.107864 19.574499
   vertex 30.217899 15.866905 19.574499
  endloop
 endfacet
 facet normal 0.000000 0.000000 -1.000000
  outer loop
   vertex 28.872776 24.024536 19.574499
   vertex 30.217899 15.866905 19.574499
   vertex 29.122696 15.745686 19.574499
  endloop
 endfacet
 facet normal 0.000000 0.000000 -1.000000
  outer loop
   vertex 24.808186 16.465651 19.574499
   vertex 23.811680 16.935913 19.574499
   vertex 27.704975 24.230452 19.574499
  endloop
 endfacet
 facet normal 0.000000 0.000000 -1.000000
  outer loop
   vertex 27.704975 24.230452 19.574499
   vertex 23.811680 16.935913 19.574499
   vertex 22.872955 17.512943 19.574499
  endloop
 endfacet
 facet normal 0.000000 0.000000 -1.000000
  outer loop
   vertex 27.704975 24.230452 19.574499
   vertex 22.872955 17.512943 19.574499
   vertex 27.457443 24.403772 19.574499
  endloop
 endfacet
 facet normal 0.000000 0.000000 -1.000000
  outer loop
   vertex 27.457443 24.403772 19.574499
   vertex 22.872955 17.512943 19.574499
   vertex 22.003408 18.189739 19.574499
  endloop
 endfacet
 facet normal 0.000000 0.000000 -1.000000
  outer loop
   vertex 27.457443 24.403772 19.574499
   vertex 22.003408 18.189739 19.574499
   vertex 27.243773 24.617443 19.574499
  endloop
 endfacet
 facet normal 0.000000 0.000000 -1.000000
  outer loop
   vertex 27.243773 24.617443 19.574499
   vertex 22.003408 18.189739 19.574499
   vertex 21.213591 18.958086 19.574499
  endloop
 endfacet
 facet normal 0.000000 0.000000 -1.000000
  outer loop
   vertex 27.243773 24.617443 19.574499
   vertex 21.213591 18.958086 19.574499
   vertex 20.513092 19.808657 19.574499
  endloop
 endfacet
 facet normal 0.000000 0.000000 -1.000000
  outer loop
   vertex 29.122696 15.745686 19.574499
   vertex 28.571751 15.730498 19.574499
   vertex 28.571751 23.998199 19.574499
  endloop
 endfacet
 facet normal 0.000000 0.000000 -1.000000
  outer loop
   vertex 28.571751 23.998199 19.574499
   vertex 28.571751 15.730498 19.574499
   vertex 28.020803 15.745686 19.574499
  endloop
 endfacet
 facet normal 0.000000 0.000000 -1.000000
  outer loop
   vertex 28.571751 23.998199 19.574499
   vertex 28.020803 15.745686 19.574499
   vertex 28.270721 24.024536 19.574499
  endloop
 endfacet
 facet normal 0.000000 0.000000 -1.000000
  outer loop
   vertex 28.270721 24.024536 19.574499
   vertex 28.020803 15.745686 19.574499
   vertex 26.925598 15.866905 19.574499
  endloop
 endfacet
 facet normal 0.000000 0.000000 -1.000000
  outer loop
   vertex 28.270721 24.024536 19.574499
   vertex 26.925598 15.866905 19.574499
   vertex 25.850374 16.107864 19.574499
  endloop
 endfacet
 facet normal 0.000000 0.000000 -1.000000
  outer loop
   vertex 30.073046 24.864975 19.574499
   vertex 36.630409 19.808657 19.574499
   vertex 29.899725 24.617443 19.574499
  endloop
 endfacet
 facet normal 0.000000 0.000000 -1.000000
  outer loop
   vertex 29.899725 24.617443 19.574499
   vertex 36.630409 19.808657 19.574499
   vertex 35.929905 18.958086 19.574499
  endloop
 endfacet
 facet normal 0.000000 0.000000 -1.000000
  outer loop
   vertex 29.899725 24.617443 19.574499
   vertex 35.929905 18.958086 19.574499
   vertex 29.686054 24.403772 19.574499
  endloop
 endfacet
 facet normal 0.000000 0.000000 -1.000000
  outer loop
   vertex 35.929905 18.958086 19.574499
   vertex 35.140091 18.189739 19.574499
   vertex 29.686054 24.403772 19.574499
  endloop
 endfacet
 facet normal 0.000000 0.000000 -1.000000
  outer loop
   vertex 29.686054 24.403772 19.574499
   vertex 35.140091 18.189739 19.574499
   vertex 34.270542 17.512943 19.574499
  endloop
 endfacet
 facet normal 0.000000 0.000000 -1.000000
  outer loop
   vertex 29.686054 24.403772 19.574499
   vertex 34.270542 17.512943 19.574499
   vertex 29.438524 24.230452 19.574499
  endloop
 endfacet
 facet normal 0.000000 0.000000 -1.000000
  outer loop
   vertex 29.438524 24.230452 19.574499
   vertex 34.270542 17.512943 19.574499
   vertex 33.331818 16.935913 19.574499
  endloop
 endfacet
 facet normal 0.000000 0.000000 -1.000000
  outer loop
   vertex 29.438524 24.230452 19.574499
   vertex 33.331818 16.935913 19.574499
   vertex 29.164660 24.102743 19.574499
  endloop
 endfacet
 facet normal 0.000000 0.000000 -1.000000
  outer loop
   vertex 29.164660 24.102743 19.574499
   vertex 33.331818 16.935913 19.574499
   vertex 32.335312 16.465651 19.574499
  endloop
 endfacet
 facet normal 0.000000 0.000000 -1.000000
  outer loop
   vertex 29.164660 24.102743 19.574499
   vertex 32.335312 16.465651 19.574499
   vertex 31.293121 16.107864 19.574499
  endloop
 endfacet
 facet normal 0.000000 0.000000 -1.000000
  outer loop
   vertex 30.200756 25.138840 19.574499
   vertex 37.730625 21.714291 19.574499
   vertex 30.073046 24.864975 19.574499
  endloop
 endfacet
 facet normal 0.000000 0.000000 -1.000000
  outer loop
   vertex 30.073046 24.864975 19.574499
   vertex 37.730625 21.714291 19.574499
   vertex 37.233086 20.731125 19.574499
  endloop
 endfacet
 facet normal 0.000000 0.000000 -1.000000
  outer loop
   vertex 30.073046 24.864975 19.574499
   vertex 37.233086 20.731125 19.574499
   vertex 36.630409 19.808657 19.574499
  endloop
 endfacet
 facet normal 0.000000 0.000000 -1.000000
  outer loop
   vertex 30.305298 25.731749 19.574499
   vertex 38.538841 24.905853 19.574499
   vertex 30.278961 25.430721 19.574499
  endloop
 endfacet
 facet normal 0.000000 0.000000 -1.000000
  outer loop
   vertex 30.278961 25.430721 19.574499
   vertex 38.538841 24.905853 19.574499
   vertex 38.387489 23.814404 19.574499
  endloop
 endfacet
 facet normal 0.000000 0.000000 -1.000000
  outer loop
   vertex 30.278961 25.430721 19.574499
   vertex 38.387489 23.814404 19.574499
   vertex 30.200756 25.138840 19.574499
  endloop
 endfacet
 facet normal 0.000000 0.000000 -1.000000
  outer loop
   vertex 30.200756 25.138840 19.574499
   vertex 38.387489 23.814404 19.574499
   vertex 38.116989 22.746227 19.574499
  endloop
 endfacet
 facet normal 0.000000 0.000000 -1.000000
  outer loop
   vertex 30.200756 25.138840 19.574499
   vertex 38.116989 22.746227 19.574499
   vertex 37.730625 21.714291 19.574499
  endloop
 endfacet
 facet normal 0.000000 0.000000 -1.000000
  outer loop
   vertex 30.200756 26.324659 19.574499
   vertex 38.266964 28.186913 19.574501
   vertex 30.278961 26.032776 19.574499
  endloop
 endfacet
 facet normal 0.000000 0.000002 -1.000000
  outer loop
   vertex 30.278961 26.032776 19.574499
   vertex 38.266964 28.186913 19.574501
   vertex 38.478207 27.105457 19.574499
  endloop
 endfacet
 facet normal 0.000000 0.000000 -1.000000
  outer loop
   vertex 30.278961 26.032776 19.574499
   vertex 38.478207 27.105457 19.574499
   vertex 30.305298 25.731749 19.574499
  endloop
 endfacet
 facet normal 0.000000 0.000000 -1.000000
  outer loop
   vertex 30.305298 25.731749 19.574499
   vertex 38.478207 27.105457 19.574499
   vertex 38.569199 26.007328 19.574499
  endloop
 endfacet
 facet normal 0.000000 0.000000 -1.000000
  outer loop
   vertex 30.305298 25.731749 19.574499
   vertex 38.569199 26.007328 19.574499
   vertex 38.538841 24.905853 19.574499
  endloop
 endfacet
 facet normal 0.000000 0.000000 -1.000000
  outer loop
   vertex 30.073046 26.598524 19.574499
   vertex 37.495407 30.247650 19.574501
   vertex 30.200756 26.324659 19.574499
  endloop
 endfacet
 facet normal 0.000000 0.000000 -1.000000
  outer loop
   vertex 30.200756 26.324659 19.574499
   vertex 37.495407 30.247650 19.574501
   vertex 37.938034 29.238564 19.574501
  endloop
 endfacet
 facet normal 0.000000 0.000000 -1.000000
  outer loop
   vertex 30.200756 26.324659 19.574499
   vertex 37.938034 29.238564 19.574501
   vertex 38.266964 28.186913 19.574501
  endloop
 endfacet
 facet normal 0.000000 0.000000 -1.000000
  outer loop
   vertex 33.809135 34.252007 19.574501
   vertex 34.714645 33.624138 19.574501
   vertex 29.686054 27.059727 19.574499
  endloop
 endfacet
 facet normal 0.000000 0.000000 -1.000000
  outer loop
   vertex 29.686054 27.059727 19.574499
   vertex 34.714645 33.624138 19.574501
   vertex 35.545589 32.900471 19.574501
  endloop
 endfacet
 facet normal 0.000000 0.000000 -1.000000
  outer loop
   vertex 29.686054 27.059727 19.574499
   vertex 35.545589 32.900471 19.574501
   vertex 29.899725 26.846054 19.574499
  endloop
 endfacet
 facet normal 0.000000 0.000000 -1.000000
  outer loop
   vertex 29.899725 26.846054 19.574499
   vertex 35.545589 32.900471 19.574501
   vertex 36.291878 32.089783 19.574501
  endloop
 endfacet
 facet normal 0.000000 0.000000 -1.000000
  outer loop
   vertex 29.899725 26.846054 19.574499
   vertex 36.291878 32.089783 19.574501
   vertex 30.073046 26.598524 19.574499
  endloop
 endfacet
 facet normal 0.000000 0.000000 -1.000000
  outer loop
   vertex 30.073046 26.598524 19.574499
   vertex 36.291878 32.089783 19.574501
   vertex 36.944458 31.201912 19.574501
  endloop
 endfacet
 facet normal 0.000000 0.000000 -1.000000
  outer loop
   vertex 30.073046 26.598524 19.574499
   vertex 36.944458 31.201912 19.574501
   vertex 37.495407 30.247650 19.574501
  endloop
 endfacet
 facet normal 0.027555 -0.999620 0.000000
  outer loop
   vertex 29.122696 15.745685 37.587799
   vertex 28.571751 15.730497 37.587799
   vertex 28.571751 15.730498 19.574499
  endloop
 endfacet
 facet normal -0.027555 -0.999620 0.000000
  outer loop
   vertex 28.571751 15.730498 19.574499
   vertex 28.571751 15.730497 37.587799
   vertex 28.020803 15.745686 19.574499
  endloop
 endfacet
 facet normal 0.027555 -0.999620 0.000000
  outer loop
   vertex 28.571751 15.730498 19.574499
   vertex 29.122696 15.745686 19.574499
   vertex 29.122696 15.745685 37.587799
  endloop
 endfacet
 facet normal 0.110011 -0.993930 0.000000
  outer loop
   vertex 29.122696 15.745685 37.587799
   vertex 29.122696 15.745686 19.574499
   vertex 30.217899 15.866905 19.574499
  endloop
 endfacet
 facet normal 0.110010 -0.993931 0.000000
  outer loop
   vertex 29.122696 15.745685 37.587799
   vertex 30.217899 15.866905 19.574499
   vertex 30.217899 15.866903 37.587799
  endloop
 endfacet
 facet normal 0.218678 -0.975797 0.000000
  outer loop
   vertex 30.217899 15.866903 37.587799
   vertex 30.217899 15.866905 19.574499
   vertex 31.293121 16.107864 19.574499
  endloop
 endfacet
 facet normal 0.218680 -0.975797 0.000000
  outer loop
   vertex 30.217899 15.866903 37.587799
   vertex 31.293121 16.107864 19.574499
   vertex 31.293121 16.107864 37.587799
  endloop
 endfacet
 facet normal 0.324701 -0.945817 0.000000
  outer loop
   vertex 31.293121 16.107864 37.587799
   vertex 31.293121 16.107864 19.574499
   vertex 32.335312 16.465651 19.574499
  endloop
 endfacet
 facet normal 0.324699 -0.945817 0.000000
  outer loop
   vertex 31.293121 16.107864 37.587799
   vertex 32.335312 16.465651 19.574499
   vertex 32.335312 16.465649 37.587799
  endloop
 endfacet
 facet normal 0.426776 -0.904357 0.000000
  outer loop
   vertex 32.335312 16.465649 37.587799
   vertex 32.335312 16.465651 19.574499
   vertex 33.331818 16.935913 19.574499
  endloop
 endfacet
 facet normal 0.426778 -0.904356 0.000000
  outer loop
   vertex 32.335312 16.465649 37.587799
   vertex 33.331818 16.935913 19.574499
   vertex 33.331818 16.935913 37.587799
  endloop
 endfacet
 facet normal 0.523672 -0.851920 0.000000
  outer loop
   vertex 33.331818 16.935913 37.587799
   vertex 33.331818 16.935913 19.574499
   vertex 34.270542 17.512943 19.574499
  endloop
 endfacet
 facet normal 0.523672 -0.851920 0.000000
  outer loop
   vertex 33.331818 16.935913 37.587799
   vertex 34.270542 17.512943 19.574499
   vertex 34.270542 17.512943 37.587799
  endloop
 endfacet
 facet normal 0.614212 -0.789141 0.000000
  outer loop
   vertex 34.270542 17.512943 37.587799
   vertex 34.270542 17.512943 19.574499
   vertex 35.140091 18.189739 19.574499
  endloop
 endfacet
 facet normal 0.614211 -0.789142 0.000000
  outer loop
   vertex 34.270542 17.512943 37.587799
   vertex 35.140091 18.189739 19.574499
   vertex 35.140091 18.189737 37.587799
  endloop
 endfacet
 facet normal 0.697299 -0.716781 0.000000
  outer loop
   vertex 35.140091 18.189737 37.587799
   vertex 35.140091 18.189739 19.574499
   vertex 35.929905 18.958086 19.574499
  endloop
 endfacet
 facet normal 0.697299 -0.716780 0.000000
  outer loop
   vertex 35.140091 18.189737 37.587799
   vertex 35.929905 18.958086 19.574499
   vertex 35.929905 18.958086 37.587799
  endloop
 endfacet
 facet normal 0.771915 -0.635726 0.000000
  outer loop
   vertex 35.929905 18.958086 37.587799
   vertex 35.929905 18.958086 19.574499
   vertex 36.630409 19.808657 19.574499
  endloop
 endfacet
 facet normal 0.771915 -0.635726 0.000000
  outer loop
   vertex 35.929905 18.958086 37.587799
   vertex 36.630409 19.808657 19.574499
   vertex 36.630409 19.808657 37.587799
  endloop
 endfacet
 facet normal 0.837167 -0.546947 0.000000
  outer loop
   vertex 36.630409 19.808657 37.587799
   vertex 36.630409 19.808657 19.574499
   vertex 37.233086 20.731125 19.574499
  endloop
 endfacet
 facet normal 0.837167 -0.546948 0.000000
  outer loop
   vertex 36.630409 19.808657 37.587799
   vertex 37.233086 20.731125 19.574499
   vertex 37.233086 20.731123 37.587799
  endloop
 endfacet
 facet normal 0.892254 -0.451533 0.000000
  outer loop
   vertex 37.233086 20.731123 37.587799
   vertex 37.233086 20.731125 19.574499
   vertex 37.730625 21.714291 19.574499
  endloop
 endfacet
 facet normal 0.892255 -0.451532 0.000000
  outer loop
   vertex 37.233086 20.731123 37.587799
   vertex 37.730625 21.714291 19.574499
   vertex 37.730625 21.714291 37.587799
  endloop
 endfacet
 facet normal 0.936512 -0.350636 0.000000
  outer loop
   vertex 37.730625 21.714291 37.587799
   vertex 37.730625 21.714291 19.574499
   vertex 38.116989 22.746227 19.574499
  endloop
 endfacet
 facet normal 0.936512 -0.350636 0.000000
  outer loop
   vertex 37.730625 21.714291 37.587799
   vertex 38.116989 22.746227 19.574499
   vertex 38.116989 22.746227 37.587799
  endloop
 endfacet
 facet normal 0.969400 -0.245487 0.000000
  outer loop
   vertex 38.116989 22.746227 37.587799
   vertex 38.116989 22.746227 19.574499
   vertex 38.387489 23.814404 19.574499
  endloop
 endfacet
 facet normal 0.969400 -0.245487 0.000000
  outer loop
   vertex 38.116989 22.746227 37.587799
   vertex 38.387489 23.814404 19.574499
   vertex 38.387489 23.814402 37.587799
  endloop
 endfacet
 facet normal 0.990522 -0.137356 0.000000
  outer loop
   vertex 38.387489 23.814402 37.587799
   vertex 38.387489 23.814404 19.574499
   vertex 38.538841 24.905853 19.574499
  endloop
 endfacet
 facet normal 0.990522 -0.137356 0.000000
  outer loop
   vertex 38.387489 23.814402 37.587799
   vertex 38.538841 24.905853 19.574499
   vertex 38.538841 24.905853 37.587799
  endloop
 endfacet
 facet normal 0.999620 -0.027550 0.000000
  outer loop
   vertex 38.538841 24.905853 37.587799
   vertex 38.538841 24.905853 19.574499
   vertex 38.569199 26.007328 19.574499
  endloop
 endfacet
 facet normal 0.999620 -0.027550 0.000000
  outer loop
   vertex 38.538841 24.905853 37.587799
   vertex 38.569199 26.007328 19.574499
   vertex 38.569199 26.007328 37.587799
  endloop
 endfacet
 facet normal 0.996585 0.082578 0.000000
  outer loop
   vertex 38.569199 26.007328 37.587799
   vertex 38.569199 26.007328 19.574499
   vertex 38.478207 27.105457 19.574499
  endloop
 endfacet
 facet normal 0.996585 0.082578 0.000000
  outer loop
   vertex 38.569199 26.007328 37.587799
   vertex 38.478207 27.105457 19.574499
   vertex 38.478207 27.105457 37.587799
  endloop
 endfacet
 facet normal 0.981452 0.191709 0.000000
  outer loop
   vertex 38.478207 27.105457 37.587799
   vertex 38.478207 27.105457 19.574499
   vertex 38.266964 28.186913 19.574501
  endloop
 endfacet
 facet normal 0.981452 0.191709 0.000000
  outer loop
   vertex 38.478207 27.105457 37.587799
   vertex 38.266964 28.186913 19.574501
   vertex 38.266964 28.186911 37.587799
  endloop
 endfacet
 facet normal 0.954405 0.298514 0.000000
  outer loop
   vertex 38.266964 28.186911 37.587799
   vertex 38.266964 28.186913 19.574501
   vertex 37.938034 29.238564 19.574501
  endloop
 endfacet
 facet normal 0.954405 0.298513 0.000000
  outer loop
   vertex 38.266964 28.186911 37.587799
   vertex 37.938034 29.238564 19.574501
   vertex 37.938034 29.238564 37.587799
  endloop
 endfacet
 facet normal 0.915773 0.401696 0.000000
  outer loop
   vertex 37.938034 29.238564 37.587799
   vertex 37.938034 29.238564 19.574501
   vertex 37.495407 30.247650 19.574501
  endloop
 endfacet
 facet normal 0.915773 0.401697 0.000000
  outer loop
   vertex 37.938034 29.238564 37.587799
   vertex 37.495407 30.247650 19.574501
   vertex 37.495407 30.247648 37.587799
  endloop
 endfacet
 facet normal 0.866023 0.500004 0.000000
  outer loop
   vertex 37.495407 30.247648 37.587799
   vertex 37.495407 30.247650 19.574501
   vertex 36.944458 31.201912 19.574501
  endloop
 endfacet
 facet normal 0.866024 0.500003 0.000000
  outer loop
   vertex 37.495407 30.247648 37.587799
   vertex 36.944458 31.201912 19.574501
   vertex 36.944458 31.201912 37.587799
  endloop
 endfacet
 facet normal 0.805766 0.592234 0.000000
  outer loop
   vertex 36.944458 31.201912 37.587799
   vertex 36.944458 31.201912 19.574501
   vertex 36.291878 32.089783 19.574501
  endloop
 endfacet
 facet normal 0.805766 0.592234 0.000000
  outer loop
   vertex 36.944458 31.201912 37.587799
   vertex 36.291878 32.089783 19.574501
   vertex 36.291878 32.089783 37.587799
  endloop
 endfacet
 facet normal 0.735725 0.677280 0.000000
  outer loop
   vertex 36.291878 32.089783 37.587799
   vertex 36.291878 32.089783 19.574501
   vertex 35.545589 32.900471 19.574501
  endloop
 endfacet
 facet normal 0.735723 0.677282 0.000000
  outer loop
   vertex 36.291878 32.089783 37.587799
   vertex 35.545589 32.900471 19.574501
   vertex 35.545589 32.900467 37.587799
  endloop
 endfacet
 facet normal 0.656751 0.754108 0.000000
  outer loop
   vertex 35.545589 32.900467 37.587799
   vertex 35.545589 32.900471 19.574501
   vertex 34.714645 33.624138 19.574501
  endloop
 endfacet
 facet normal 0.656753 0.754106 0.000000
  outer loop
   vertex 35.545589 32.900467 37.587799
   vertex 34.714645 33.624138 19.574501
   vertex 34.714645 33.624138 37.587799
  endloop
 endfacet
 facet normal 0.569809 0.821777 0.000000
  outer loop
   vertex 34.714645 33.624138 37.587799
   vertex 34.714645 33.624138 19.574501
   vertex 33.809135 34.252007 19.574501
  endloop
 endfacet
 facet normal 0.569809 0.821777 0.000000
  outer loop
   vertex 34.714645 33.624138 37.587799
   vertex 33.809135 34.252007 19.574501
   vertex 33.809135 34.252007 37.587799
  endloop
 endfacet
 facet normal 0.475946 0.879475 0.000000
  outer loop
   vertex 33.809135 34.252007 37.587799
   vertex 33.809135 34.252007 19.574501
   vertex 32.840042 34.776451 19.574501
  endloop
 endfacet
 facet normal 0.475946 0.879475 0.000000
  outer loop
   vertex 33.809135 34.252007 37.587799
   vertex 32.840042 34.776451 19.574501
   vertex 32.840042 34.776451 37.587799
  endloop
 endfacet
 facet normal 0.376312 0.926493 0.000000
  outer loop
   vertex 32.840042 34.776451 37.587799
   vertex 32.840042 34.776451 19.574501
   vertex 31.819149 35.191105 19.574501
  endloop
 endfacet
 facet normal 0.376309 0.926494 0.000000
  outer loop
   vertex 32.840042 34.776451 37.587799
   vertex 31.819149 35.191105 19.574501
   vertex 31.819149 35.191101 37.587799
  endloop
 endfacet
 facet normal 0.272102 0.962268 0.000000
  outer loop
   vertex 31.819149 35.191101 37.587799
   vertex 31.819149 35.191105 19.574501
   vertex 30.758831 35.490932 19.574501
  endloop
 endfacet
 facet normal 0.272105 0.962268 0.000000
  outer loop
   vertex 31.819149 35.191101 37.587799
   vertex 30.758831 35.490932 19.574501
   vertex 30.758831 35.490932 37.587799
  endloop
 endfacet
 facet normal 0.164595 0.986361 0.000000
  outer loop
   vertex 30.758831 35.490932 37.587799
   vertex 30.758831 35.490932 19.574501
   vertex 29.671967 35.672298 19.574501
  endloop
 endfacet
 facet normal 0.164595 0.986361 0.000000
  outer loop
   vertex 30.758831 35.490932 37.587799
   vertex 29.671967 35.672298 19.574501
   vertex 29.671967 35.672298 37.587799
  endloop
 endfacet
 facet normal 0.055090 0.998481 0.000000
  outer loop
   vertex 29.671967 35.672298 37.587799
   vertex 29.671967 35.672298 19.574501
   vertex 28.571751 35.733002 19.574501
  endloop
 endfacet
 facet normal 0.055087 0.998482 0.000000
  outer loop
   vertex 29.671967 35.672298 37.587799
   vertex 28.571751 35.733002 19.574501
   vertex 28.571751 35.732998 37.587799
  endloop
 endfacet
 facet normal -0.055090 0.998481 0.000000
  outer loop
   vertex 28.571751 35.732998 37.587799
   vertex 28.571751 35.733002 19.574501
   vertex 27.471527 35.672298 19.574501
  endloop
 endfacet
 facet normal -0.055086 0.998482 0.000000
  outer loop
   vertex 28.571751 35.732998 37.587799
   vertex 27.471527 35.672298 19.574501
   vertex 27.471527 35.672298 37.587799
  endloop
 endfacet
 facet normal -0.164595 0.986361 0.000000
  outer loop
   vertex 27.471527 35.672298 37.587799
   vertex 27.471527 35.672298 19.574501
   vertex 26.384666 35.490932 19.574501
  endloop
 endfacet
 facet normal -0.164595 0.986361 0.000000
  outer loop
   vertex 27.471527 35.672298 37.587799
   vertex 26.384666 35.490932 19.574501
   vertex 26.384666 35.490932 37.587799
  endloop
 endfacet
 facet normal -0.272102 0.962268 0.000000
  outer loop
   vertex 26.384666 35.490932 37.587799
   vertex 26.384666 35.490932 19.574501
   vertex 25.324348 35.191105 19.574501
  endloop
 endfacet
 facet normal -0.272105 0.962268 0.000000
  outer loop
   vertex 26.384666 35.490932 37.587799
   vertex 25.324348 35.191105 19.574501
   vertex 25.324348 35.191101 37.587799
  endloop
 endfacet
 facet normal -0.376310 0.926494 0.000000
  outer loop
   vertex 25.324348 35.191101 37.587799
   vertex 25.324348 35.191105 19.574501
   vertex 24.303450 34.776451 19.574501
  endloop
 endfacet
 facet normal -0.376307 0.926495 0.000000
  outer loop
   vertex 25.324348 35.191101 37.587799
   vertex 24.303450 34.776451 19.574501
   vertex 24.303450 34.776451 37.587799
  endloop
 endfacet
 facet normal -0.475950 0.879472 0.000000
  outer loop
   vertex 24.303450 34.776451 37.587799
   vertex 24.303450 34.776451 19.574501
   vertex 23.334368 34.252007 19.574501
  endloop
 endfacet
 facet normal -0.475950 0.879472 0.000000
  outer loop
   vertex 24.303450 34.776451 37.587799
   vertex 23.334368 34.252007 19.574501
   vertex 23.334368 34.252007 37.587799
  endloop
 endfacet
 facet normal -0.569808 0.821778 0.000000
  outer loop
   vertex 23.334368 34.252007 37.587799
   vertex 23.334368 34.252007 19.574501
   vertex 22.428854 33.624138 19.574501
  endloop
 endfacet
 facet normal -0.569808 0.821778 0.000000
  outer loop
   vertex 23.334368 34.252007 37.587799
   vertex 22.428854 33.624138 19.574501
   vertex 22.428854 33.624138 37.587799
  endloop
 endfacet
 facet normal -0.656751 0.754108 0.000000
  outer loop
   vertex 22.428854 33.624138 37.587799
   vertex 22.428854 33.624138 19.574501
   vertex 21.597910 32.900471 19.574501
  endloop
 endfacet
 facet normal -0.656753 0.754106 0.000000
  outer loop
   vertex 22.428854 33.624138 37.587799
   vertex 21.597910 32.900471 19.574501
   vertex 21.597910 32.900467 37.587799
  endloop
 endfacet
 facet normal -0.735723 0.677282 0.000000
  outer loop
   vertex 21.597910 32.900467 37.587799
   vertex 21.597910 32.900471 19.574501
   vertex 20.851618 32.089783 19.574501
  endloop
 endfacet
 facet normal -0.735722 0.677284 0.000000
  outer loop
   vertex 21.597910 32.900467 37.587799
   vertex 20.851618 32.089783 19.574501
   vertex 20.851618 32.089783 37.587799
  endloop
 endfacet
 facet normal -0.805766 0.592234 0.000000
  outer loop
   vertex 20.851618 32.089783 37.587799
   vertex 20.851618 32.089783 19.574501
   vertex 20.199038 31.201912 19.574501
  endloop
 endfacet
 facet normal -0.805766 0.592234 0.000000
  outer loop
   vertex 20.851618 32.089783 37.587799
   vertex 20.199038 31.201912 19.574501
   vertex 20.199038 31.201912 37.587799
  endloop
 endfacet
 facet normal -0.866025 0.500001 0.000000
  outer loop
   vertex 20.199038 31.201912 37.587799
   vertex 20.199038 31.201912 19.574501
   vertex 19.648092 30.247650 19.574501
  endloop
 endfacet
 facet normal -0.866025 0.500001 0.000000
  outer loop
   vertex 20.199038 31.201912 37.587799
   vertex 19.648092 30.247650 19.574501
   vertex 19.648092 30.247648 37.587799
  endloop
 endfacet
 facet normal -0.915774 0.401694 0.000000
  outer loop
   vertex 19.648092 30.247648 37.587799
   vertex 19.648092 30.247650 19.574501
   vertex 19.205467 29.238564 19.574501
  endloop
 endfacet
 facet normal -0.915774 0.401695 0.000000
  outer loop
   vertex 19.648092 30.247648 37.587799
   vertex 19.205467 29.238564 19.574501
   vertex 19.205467 29.238564 37.587799
  endloop
 endfacet
 facet normal -0.954405 0.298515 0.000000
  outer loop
   vertex 19.205467 29.238564 37.587799
   vertex 19.205467 29.238564 19.574501
   vertex 18.876535 28.186913 19.574501
  endloop
 endfacet
 facet normal -0.954405 0.298515 0.000000
  outer loop
   vertex 19.205467 29.238564 37.587799
   vertex 18.876535 28.186913 19.574501
   vertex 18.876535 28.186911 37.587799
  endloop
 endfacet
 facet normal -0.981452 0.191711 0.000000
  outer loop
   vertex 18.876535 28.186911 37.587799
   vertex 18.876535 28.186913 19.574501
   vertex 18.665291 27.105457 19.574499
  endloop
 endfacet
 facet normal -0.981452 0.191711 0.000000
  outer loop
   vertex 18.876535 28.186911 37.587799
   vertex 18.665291 27.105457 19.574499
   vertex 18.665291 27.105457 37.587799
  endloop
 endfacet
 facet normal -0.996584 0.082580 0.000000
  outer loop
   vertex 18.665291 27.105457 37.587799
   vertex 18.665291 27.105457 19.574499
   vertex 18.574297 26.007328 19.574499
  endloop
 endfacet
 facet normal -0.996584 0.082580 0.000000
  outer loop
   vertex 18.665291 27.105457 37.587799
   vertex 18.574297 26.007328 19.574499
   vertex 18.574297 26.007328 37.587799
  endloop
 endfacet
 facet normal -0.999620 -0.027554 0.000000
  outer loop
   vertex 18.574297 26.007328 37.587799
   vertex 18.574297 26.007328 19.574499
   vertex 18.604658 24.905853 19.574499
  endloop
 endfacet
 facet normal -0.999620 -0.027554 0.000000
  outer loop
   vertex 18.574297 26.007328 37.587799
   vertex 18.604658 24.905853 19.574499
   vertex 18.604658 24.905853 37.587799
  endloop
 endfacet
 facet normal -0.990522 -0.137354 0.000000
  outer loop
   vertex 18.604658 24.905853 37.587799
   vertex 18.604658 24.905853 19.574499
   vertex 18.756008 23.814404 19.574499
  endloop
 endfacet
 facet normal -0.990522 -0.137354 0.000000
  outer loop
   vertex 18.604658 24.905853 37.587799
   vertex 18.756008 23.814404 19.574499
   vertex 18.756008 23.814402 37.587799
  endloop
 endfacet
 facet normal -0.969400 -0.245485 0.000000
  outer loop
   vertex 18.756008 23.814402 37.587799
   vertex 18.756008 23.814404 19.574499
   vertex 19.026506 22.746227 19.574499
  endloop
 endfacet
 facet normal -0.969400 -0.245485 0.000000
  outer loop
   vertex 18.756008 23.814402 37.587799
   vertex 19.026506 22.746227 19.574499
   vertex 19.026506 22.746227 37.587799
  endloop
 endfacet
 facet normal -0.936511 -0.350638 0.000000
  outer loop
   vertex 19.026506 22.746227 37.587799
   vertex 19.026506 22.746227 19.574499
   vertex 19.412872 21.714291 19.574499
  endloop
 endfacet
 facet normal -0.936511 -0.350638 0.000000
  outer loop
   vertex 19.026506 22.746227 37.587799
   vertex 19.412872 21.714291 19.574499
   vertex 19.412872 21.714291 37.587799
  endloop
 endfacet
 facet normal -0.892254 -0.451534 0.000000
  outer loop
   vertex 19.412872 21.714291 37.587799
   vertex 19.412872 21.714291 19.574499
   vertex 19.910414 20.731125 19.574499
  endloop
 endfacet
 facet normal -0.892254 -0.451534 0.000000
  outer loop
   vertex 19.412872 21.714291 37.587799
   vertex 19.910414 20.731125 19.574499
   vertex 19.910414 20.731123 37.587799
  endloop
 endfacet
 facet normal -0.837166 -0.546948 0.000000
  outer loop
   vertex 19.910414 20.731123 37.587799
   vertex 19.910414 20.731125 19.574499
   vertex 20.513092 19.808657 19.574499
  endloop
 endfacet
 facet normal -0.837166 -0.546949 0.000000
  outer loop
   vertex 19.910414 20.731123 37.587799
   vertex 20.513092 19.808657 19.574499
   vertex 20.513092 19.808657 37.587799
  endloop
 endfacet
 facet normal -0.771918 -0.635723 0.000000
  outer loop
   vertex 20.513092 19.808657 37.587799
   vertex 20.513092 19.808657 19.574499
   vertex 21.213591 18.958086 19.574499
  endloop
 endfacet
 facet normal -0.771918 -0.635723 0.000000
  outer loop
   vertex 20.513092 19.808657 37.587799
   vertex 21.213591 18.958086 19.574499
   vertex 21.213591 18.958086 37.587799
  endloop
 endfacet
 facet normal -0.697297 -0.716782 0.000000
  outer loop
   vertex 21.213591 18.958086 37.587799
   vertex 21.213591 18.958086 19.574499
   vertex 22.003408 18.189739 19.574499
  endloop
 endfacet
 facet normal -0.697298 -0.716782 0.000000
  outer loop
   vertex 21.213591 18.958086 37.587799
   vertex 22.003408 18.189739 19.574499
   vertex 22.003408 18.189737 37.587799
  endloop
 endfacet
 facet normal -0.614213 -0.789140 0.000000
  outer loop
   vertex 22.003408 18.189737 37.587799
   vertex 22.003408 18.189739 19.574499
   vertex 22.872955 17.512943 19.574499
  endloop
 endfacet
 facet normal -0.614212 -0.789141 0.000000
  outer loop
   vertex 22.003408 18.189737 37.587799
   vertex 22.872955 17.512943 19.574499
   vertex 22.872955 17.512943 37.587799
  endloop
 endfacet
 facet normal -0.523672 -0.851920 0.000000
  outer loop
   vertex 22.872955 17.512943 37.587799
   vertex 22.872955 17.512943 19.574499
   vertex 23.811680 16.935913 19.574499
  endloop
 endfacet
 facet normal -0.523672 -0.851920 0.000000
  outer loop
   vertex 22.872955 17.512943 37.587799
   vertex 23.811680 16.935913 19.574499
   vertex 23.811680 16.935913 37.587799
  endloop
 endfacet
 facet normal -0.426776 -0.904357 0.000000
  outer loop
   vertex 23.811680 16.935913 37.587799
   vertex 23.811680 16.935913 19.574499
   vertex 24.808186 16.465651 19.574499
  endloop
 endfacet
 facet normal -0.426778 -0.904356 0.000000
  outer loop
   vertex 23.811680 16.935913 37.587799
   vertex 24.808186 16.465651 19.574499
   vertex 24.808186 16.465649 37.587799
  endloop
 endfacet
 facet normal -0.324701 -0.945817 0.000000
  outer loop
   vertex 24.808186 16.465649 37.587799
   vertex 24.808186 16.465651 19.574499
   vertex 25.850374 16.107864 19.574499
  endloop
 endfacet
 facet normal -0.324700 -0.945817 0.000000
  outer loop
   vertex 24.808186 16.465649 37.587799
   vertex 25.850374 16.107864 19.574499
   vertex 25.850374 16.107864 37.587799
  endloop
 endfacet
 facet normal -0.218678 -0.975797 0.000000
  outer loop
   vertex 25.850374 16.107864 37.587799
   vertex 25.850374 16.107864 19.574499
   vertex 26.925598 15.866905 19.574499
  endloop
 endfacet
 facet normal -0.218679 -0.975797 0.000000
  outer loop
   vertex 25.850374 16.107864 37.587799
   vertex 26.925598 15.866905 19.574499
   vertex 26.925598 15.866903 37.587799
  endloop
 endfacet
 facet normal -0.110010 -0.993931 0.000000
  outer loop
   vertex 26.925598 15.866903 37.587799
   vertex 26.925598 15.866905 19.574499
   vertex 28.020803 15.745686 19.574499
  endloop
 endfacet
 facet normal -0.110009 -0.993931 0.000000
  outer loop
   vertex 26.925598 15.866903 37.587799
   vertex 28.020803 15.745686 19.574499
   vertex 28.020803 15.745685 37.587799
  endloop
 endfacet
 facet normal -0.027555 -0.999620 0.000000
  outer loop
   vertex 28.020803 15.745685 37.587799
   vertex 28.020803 15.745686 19.574499
   vertex 28.571751 15.730497 37.587799
  endloop
 endfacet
 facet normal 0.087156 -0.996195 0.000000
  outer loop
   vertex 28.270721 27.438961 37.587799
   vertex 28.571751 27.465300 19.574501
   vertex 28.571751 27.465298 37.587799
  endloop
 endfacet
 facet normal -0.087163 -0.996194 0.000000
  outer loop
   vertex 28.571751 27.465298 37.587799
   vertex 28.571751 27.465300 19.574501
   vertex 28.872776 27.438961 19.574501
  endloop
 endfacet
 facet normal -0.087157 -0.996195 0.000000
  outer loop
   vertex 28.571751 27.465298 37.587799
   vertex 28.872776 27.438961 19.574501
   vertex 28.872776 27.438961 37.587799
  endloop
 endfacet
 facet normal -0.258810 -0.965928 0.000000
  outer loop
   vertex 28.872776 27.438961 37.587799
   vertex 28.872776 27.438961 19.574501
   vertex 29.164660 27.360754 19.574501
  endloop
 endfacet
 facet normal -0.258816 -0.965927 0.000000
  outer loop
   vertex 28.872776 27.438961 37.587799
   vertex 29.164660 27.360754 19.574501
   vertex 29.164660 27.360752 37.587799
  endloop
 endfacet
 facet normal -0.422622 -0.906306 0.000000
  outer loop
   vertex 29.164660 27.360752 37.587799
   vertex 29.164660 27.360754 19.574501
   vertex 29.438524 27.233047 19.574501
  endloop
 endfacet
 facet normal -0.422622 -0.906306 0.000000
  outer loop
   vertex 29.164660 27.360752 37.587799
   vertex 29.438524 27.233047 19.574501
   vertex 29.438524 27.233046 37.587799
  endloop
 endfacet
 facet normal -0.573573 -0.819155 0.000000
  outer loop
   vertex 29.438524 27.233046 37.587799
   vertex 29.438524 27.233047 19.574501
   vertex 29.686054 27.059727 19.574499
  endloop
 endfacet
 facet normal -0.573573 -0.819155 0.000000
  outer loop
   vertex 29.438524 27.233046 37.587799
   vertex 29.686054 27.059727 19.574499
   vertex 29.686054 27.059725 37.587799
  endloop
 endfacet
 facet normal -0.707110 -0.707104 0.000000
  outer loop
   vertex 29.686054 27.059725 37.587799
   vertex 29.686054 27.059727 19.574499
   vertex 29.899725 26.846054 19.574499
  endloop
 endfacet
 facet normal -0.707107 -0.707107 0.000000
  outer loop
   vertex 29.686054 27.059725 37.587799
   vertex 29.899725 26.846054 19.574499
   vertex 29.899725 26.846054 37.587799
  endloop
 endfacet
 facet normal -0.819155 -0.573573 0.000000
  outer loop
   vertex 29.899725 26.846054 37.587799
   vertex 29.899725 26.846054 19.574499
   vertex 30.073046 26.598524 19.574499
  endloop
 endfacet
 facet normal -0.819155 -0.573573 0.000000
  outer loop
   vertex 29.899725 26.846054 37.587799
   vertex 30.073046 26.598524 19.574499
   vertex 30.073046 26.598524 37.587799
  endloop
 endfacet
 facet normal -0.906301 -0.422632 0.000000
  outer loop
   vertex 30.073046 26.598524 37.587799
   vertex 30.073046 26.598524 19.574499
   vertex 30.200756 26.324659 19.574499
  endloop
 endfacet
 facet normal -0.906301 -0.422632 0.000000
  outer loop
   vertex 30.073046 26.598524 37.587799
   vertex 30.200756 26.324659 19.574499
   vertex 30.200756 26.324659 37.587799
  endloop
 endfacet
 facet normal -0.965930 -0.258804 0.000000
  outer loop
   vertex 30.200756 26.324659 37.587799
   vertex 30.200756 26.324659 19.574499
   vertex 30.278961 26.032776 19.574499
  endloop
 endfacet
 facet normal -0.965930 -0.258804 0.000000
  outer loop
   vertex 30.200756 26.324659 37.587799
   vertex 30.278961 26.032776 19.574499
   vertex 30.278961 26.032776 37.587799
  endloop
 endfacet
 facet normal -0.996195 -0.087156 0.000000
  outer loop
   vertex 30.278961 26.032776 37.587799
   vertex 30.278961 26.032776 19.574499
   vertex 30.305298 25.731749 19.574499
  endloop
 endfacet
 facet normal -0.996195 -0.087156 0.000000
  outer loop
   vertex 30.278961 26.032776 37.587799
   vertex 30.305298 25.731749 19.574499
   vertex 30.305298 25.731749 37.587799
  endloop
 endfacet
 facet normal -0.996195 0.087156 0.000000
  outer loop
   vertex 30.305298 25.731749 37.587799
   vertex 30.305298 25.731749 19.574499
   vertex 30.278961 25.430721 19.574499
  endloop
 endfacet
 facet normal -0.996195 0.087156 0.000000
  outer loop
   vertex 30.305298 25.731749 37.587799
   vertex 30.278961 25.430721 19.574499
   vertex 30.278961 25.430721 37.587799
  endloop
 endfacet
 facet normal -0.965929 0.258806 0.000000
  outer loop
   vertex 30.278961 25.430721 37.587799
   vertex 30.278961 25.430721 19.574499
   vertex 30.200756 25.138840 19.574499
  endloop
 endfacet
 facet normal -0.965930 0.258804 0.000000
  outer loop
   vertex 30.278961 25.430721 37.587799
   vertex 30.200756 25.138840 19.574499
   vertex 30.200756 25.138838 37.587799
  endloop
 endfacet
 facet normal -0.906301 0.422632 0.000000
  outer loop
   vertex 30.200756 25.138838 37.587799
   vertex 30.200756 25.138840 19.574499
   vertex 30.073046 24.864975 19.574499
  endloop
 endfacet
 facet normal -0.906301 0.422632 0.000000
  outer loop
   vertex 30.200756 25.138838 37.587799
   vertex 30.073046 24.864975 19.574499
   vertex 30.073046 24.864973 37.587799
  endloop
 endfacet
 facet normal -0.819157 0.573570 0.000000
  outer loop
   vertex 30.073046 24.864973 37.587799
   vertex 30.073046 24.864975 19.574499
   vertex 29.899725 24.617443 19.574499
  endloop
 endfacet
 facet normal -0.819155 0.573573 0.000000
  outer loop
   vertex 30.073046 24.864973 37.587799
   vertex 29.899725 24.617443 19.574499
   vertex 29.899725 24.617443 37.587799
  endloop
 endfacet
 facet normal -0.707107 0.707107 0.000000
  outer loop
   vertex 29.899725 24.617443 37.587799
   vertex 29.899725 24.617443 19.574499
   vertex 29.686054 24.403772 19.574499
  endloop
 endfacet
 facet normal -0.707110 0.707104 0.000000
  outer loop
   vertex 29.899725 24.617443 37.587799
   vertex 29.686054 24.403772 19.574499
   vertex 29.686054 24.403770 37.587799
  endloop
 endfacet
 facet normal -0.573573 0.819155 0.000000
  outer loop
   vertex 29.686054 24.403770 37.587799
   vertex 29.686054 24.403772 19.574499
   vertex 29.438524 24.230452 19.574499
  endloop
 endfacet
 facet normal -0.573573 0.819155 0.000000
  outer loop
   vertex 29.686054 24.403770 37.587799
   vertex 29.438524 24.230452 19.574499
   vertex 29.438524 24.230450 37.587799
  endloop
 endfacet
 facet normal -0.422627 0.906304 0.000000
  outer loop
   vertex 29.438524 24.230450 37.587799
   vertex 29.438524 24.230452 19.574499
   vertex 29.164660 24.102743 19.574499
  endloop
 endfacet
 facet normal -0.422627 0.906304 0.000000
  outer loop
   vertex 29.438524 24.230450 37.587799
   vertex 29.164660 24.102743 19.574499
   vertex 29.164660 24.102741 37.587799
  endloop
 endfacet
 facet normal -0.258810 0.965928 0.000000
  outer loop
   vertex 29.164660 24.102741 37.587799
   vertex 29.164660 24.102743 19.574499
   vertex 28.872776 24.024536 19.574499
  endloop
 endfacet
 facet normal -0.258810 0.965928 0.000000
  outer loop
   vertex 29.164660 24.102741 37.587799
   vertex 28.872776 24.024536 19.574499
   vertex 28.872776 24.024534 37.587799
  endloop
 endfacet
 facet normal -0.087157 0.996195 0.000000
  outer loop
   vertex 28.872776 24.024534 37.587799
   vertex 28.872776 24.024536 19.574499
   vertex 28.571751 23.998199 19.574499
  endloop
 endfacet
 facet normal -0.087157 0.996195 0.000000
  outer loop
   vertex 28.872776 24.024534 37.587799
   vertex 28.571751 23.998199 19.574499
   vertex 28.571751 23.998198 37.587799
  endloop
 endfacet
 facet normal 0.087156 0.996195 0.000000
  outer loop
   vertex 28.571751 23.998198 37.587799
   vertex 28.571751 23.998199 19.574499
   vertex 28.270721 24.024536 19.574499
  endloop
 endfacet
 facet normal 0.087156 0.996195 0.000000
  outer loop
   vertex 28.571751 23.998198 37.587799
   vertex 28.270721 24.024536 19.574499
   vertex 28.270721 24.024534 37.587799
  endloop
 endfacet
 facet normal 0.258812 0.965928 0.000000
  outer loop
   vertex 28.270721 24.024534 37.587799
   vertex 28.270721 24.024536 19.574499
   vertex 27.978840 24.102743 19.574499
  endloop
 endfacet
 facet normal 0.258812 0.965928 0.000000
  outer loop
   vertex 28.270721 24.024534 37.587799
   vertex 27.978840 24.102743 19.574499
   vertex 27.978840 24.102741 37.587799
  endloop
 endfacet
 facet normal 0.422627 0.906304 0.000000
  outer loop
   vertex 27.978840 24.102741 37.587799
   vertex 27.978840 24.102743 19.574499
   vertex 27.704975 24.230452 19.574499
  endloop
 endfacet
 facet normal 0.422627 0.906304 0.000000
  outer loop
   vertex 27.978840 24.102741 37.587799
   vertex 27.704975 24.230452 19.574499
   vertex 27.704975 24.230450 37.587799
  endloop
 endfacet
 facet normal 0.573570 0.819157 0.000000
  outer loop
   vertex 27.704975 24.230450 37.587799
   vertex 27.704975 24.230452 19.574499
   vertex 27.457443 24.403772 19.574499
  endloop
 endfacet
 facet normal 0.573570 0.819157 0.000000
  outer loop
   vertex 27.704975 24.230450 37.587799
   vertex 27.457443 24.403772 19.574499
   vertex 27.457443 24.403770 37.587799
  endloop
 endfacet
 facet normal 0.707107 0.707107 0.000000
  outer loop
   vertex 27.457443 24.403770 37.587799
   vertex 27.457443 24.403772 19.574499
   vertex 27.243773 24.617443 19.574499
  endloop
 endfacet
 facet normal 0.707110 0.707104 0.000000
  outer loop
   vertex 27.457443 24.403770 37.587799
   vertex 27.243773 24.617443 19.574499
   vertex 27.243773 24.617443 37.587799
  endloop
 endfacet
 facet normal 0.819157 0.573570 0.000000
  outer loop
   vertex 27.243773 24.617443 37.587799
   vertex 27.243773 24.617443 19.574499
   vertex 27.070452 24.864975 19.574499
  endloop
 endfacet
 facet normal 0.819155 0.573573 0.000000
  outer loop
   vertex 27.243773 24.617443 37.587799
   vertex 27.070452 24.864975 19.574499
   vertex 27.070452 24.864973 37.587799
  endloop
 endfacet
 facet normal 0.906306 0.422622 0.000000
  outer loop
   vertex 27.070452 24.864973 37.587799
   vertex 27.070452 24.864975 19.574499
   vertex 26.942745 25.138840 19.574499
  endloop
 endfacet
 facet normal 0.906306 0.422622 0.000000
  outer loop
   vertex 27.070452 24.864973 37.587799
   vertex 26.942745 25.138840 19.574499
   vertex 26.942745 25.138838 37.587799
  endloop
 endfacet
 facet normal 0.965926 0.258817 0.000000
  outer loop
   vertex 26.942745 25.138838 37.587799
   vertex 26.942745 25.138840 19.574499
   vertex 26.864536 25.430721 19.574499
  endloop
 endfacet
 facet normal 0.965927 0.258816 0.000000
  outer loop
   vertex 26.942745 25.138838 37.587799
   vertex 26.864536 25.430721 19.574499
   vertex 26.864536 25.430721 37.587799
  endloop
 endfacet
 facet normal 0.996195 0.087156 0.000000
  outer loop
   vertex 26.864536 25.430721 37.587799
   vertex 26.864536 25.430721 19.574499
   vertex 26.838200 25.731749 19.574499
  endloop
 endfacet
 facet normal 0.996195 0.087156 0.000000
  outer loop
   vertex 26.864536 25.430721 37.587799
   vertex 26.838200 25.731749 19.574499
   vertex 26.838200 25.731749 37.587799
  endloop
 endfacet
 facet normal 0.996195 -0.087156 0.000000
  outer loop
   vertex 26.838200 25.731749 37.587799
   vertex 26.838200 25.731749 19.574499
   vertex 26.864536 26.032776 19.574499
  endloop
 endfacet
 facet normal 0.996195 -0.087156 0.000000
  outer loop
   vertex 26.838200 25.731749 37.587799
   vertex 26.864536 26.032776 19.574499
   vertex 26.864536 26.032776 37.587799
  endloop
 endfacet
 facet normal 0.965927 -0.258816 0.000000
  outer loop
   vertex 26.864536 26.032776 37.587799
   vertex 26.864536 26.032776 19.574499
   vertex 26.942745 26.324659 19.574499
  endloop
 endfacet
 facet normal 0.965927 -0.258816 0.000000
  outer loop
   vertex 26.864536 26.032776 37.587799
   vertex 26.942745 26.324659 19.574499
   vertex 26.942745 26.324659 37.587799
  endloop
 endfacet
 facet normal 0.906306 -0.422622 0.000000
  outer loop
   vertex 26.942745 26.324659 37.587799
   vertex 26.942745 26.324659 19.574499
   vertex 27.070452 26.598524 19.574499
  endloop
 endfacet
 facet normal 0.906306 -0.422622 0.000000
  outer loop
   vertex 26.942745 26.324659 37.587799
   vertex 27.070452 26.598524 19.574499
   vertex 27.070452 26.598524 37.587799
  endloop
 endfacet
 facet normal 0.819155 -0.573573 0.000000
  outer loop
   vertex 27.070452 26.598524 37.587799
   vertex 27.070452 26.598524 19.574499
   vertex 27.243773 26.846054 19.574499
  endloop
 endfacet
 facet normal 0.819155 -0.573573 0.000000
  outer loop
   vertex 27.070452 26.598524 37.587799
   vertex 27.243773 26.846054 19.574499
   vertex 27.243773 26.846054 37.587799
  endloop
 endfacet
 facet normal 0.707110 -0.707104 0.000000
  outer loop
   vertex 27.243773 26.846054 37.587799
   vertex 27.243773 26.846054 19.574499
   vertex 27.457443 27.059727 19.574499
  endloop
 endfacet
 facet normal 0.707107 -0.707107 0.000000
  outer loop
   vertex 27.243773 26.846054 37.587799
   vertex 27.457443 27.059727 19.574499
   vertex 27.457443 27.059725 37.587799
  endloop
 endfacet
 facet normal 0.573570 -0.819157 0.000000
  outer loop
   vertex 27.457443 27.059725 37.587799
   vertex 27.457443 27.059727 19.574499
   vertex 27.704975 27.233047 19.574501
  endloop
 endfacet
 facet normal 0.573570 -0.819157 0.000000
  outer loop
   vertex 27.457443 27.059725 37.587799
   vertex 27.704975 27.233047 19.574501
   vertex 27.704975 27.233046 37.587799
  endloop
 endfacet
 facet normal 0.422622 -0.906306 0.000000
  outer loop
   vertex 27.704975 27.233046 37.587799
   vertex 27.704975 27.233047 19.574501
   vertex 27.978840 27.360754 19.574501
  endloop
 endfacet
 facet normal 0.422622 -0.906306 0.000000
  outer loop
   vertex 27.704975 27.233046 37.587799
   vertex 27.978840 27.360754 19.574501
   vertex 27.978840 27.360752 37.587799
  endloop
 endfacet
 facet normal 0.258812 -0.965928 0.000000
  outer loop
   vertex 27.978840 27.360752 37.587799
   vertex 27.978840 27.360754 19.574501
   vertex 28.270721 27.438961 19.574501
  endloop
 endfacet
 facet normal 0.258817 -0.965926 0.000000
  outer loop
   vertex 27.978840 27.360752 37.587799
   vertex 28.270721 27.438961 19.574501
   vertex 28.270721 27.438961 37.587799
  endloop
 endfacet
 facet normal 0.087162 -0.996194 0.000000
  outer loop
   vertex 28.270721 27.438961 37.587799
   vertex 28.270721 27.438961 19.574501
   vertex 28.571751 27.465300 19.574501
  endloop
 endfacet
endsolid crank spacer - crank spacer (repaired)
