solid Default
  facet normal 8.660044e-01 5.000364e-01 0.000000e+00
    outer loop
      vertex 6.250000e+00 1.082600e+01 3.002000e+00
      vertex 1.250100e+01 2.086163e-07 3.002000e+00
      vertex 1.250100e+01 2.086163e-07 1.000000e-03
    endloop
  endfacet
  facet normal 8.660044e-01 5.000364e-01 0.000000e+00
    outer loop
      vertex 6.250000e+00 1.082600e+01 3.002000e+00
      vertex 1.250100e+01 2.086163e-07 1.000000e-03
      vertex 6.250000e+00 1.082600e+01 1.000000e-03
    endloop
  endfacet
  facet normal 0.000000e+00 1.000000e+00 0.000000e+00
    outer loop
      vertex 6.250000e+00 1.082600e+01 1.000000e-03
      vertex -6.250000e+00 1.082600e+01 1.000000e-03
      vertex 6.250000e+00 1.082600e+01 3.002000e+00
    endloop
  endfacet
  facet normal 0.000000e+00 1.000000e+00 0.000000e+00
    outer loop
      vertex 6.250000e+00 1.082600e+01 3.002000e+00
      vertex -6.250000e+00 1.082600e+01 1.000000e-03
      vertex -6.250000e+00 1.082600e+01 3.002000e+00
    endloop
  endfacet
  facet normal -8.660044e-01 5.000364e-01 0.000000e+00
    outer loop
      vertex -6.250000e+00 1.082600e+01 1.000000e-03
      vertex -1.250100e+01 2.086163e-07 1.000000e-03
      vertex -1.250100e+01 2.086163e-07 3.002000e+00
    endloop
  endfacet
  facet normal -8.660044e-01 5.000364e-01 0.000000e+00
    outer loop
      vertex -6.250000e+00 1.082600e+01 1.000000e-03
      vertex -1.250100e+01 2.086163e-07 3.002000e+00
      vertex -6.250000e+00 1.082600e+01 3.002000e+00
    endloop
  endfacet
  facet normal 0.000000e+00 0.000000e+00 -1.000000e+00
    outer loop
      vertex -6.250000e+00 1.082600e+01 1.000000e-03
      vertex 6.250000e+00 1.082600e+01 1.000000e-03
      vertex 0.000000e+00 1.503000e+00 1.000000e-03
    endloop
  endfacet
  facet normal -8.660044e-01 -5.000364e-01 0.000000e+00
    outer loop
      vertex -6.250000e+00 -1.082600e+01 3.002000e+00
      vertex -1.250100e+01 2.086163e-07 3.002000e+00
      vertex -6.250000e+00 -1.082600e+01 1.000000e-03
    endloop
  endfacet
  facet normal -8.660044e-01 -5.000364e-01 0.000000e+00
    outer loop
      vertex -1.250100e+01 2.086163e-07 1.000000e-03
      vertex -6.250000e+00 -1.082600e+01 1.000000e-03
      vertex -1.250100e+01 2.086163e-07 3.002000e+00
    endloop
  endfacet
  facet normal 0.000000e+00 0.000000e+00 1.000000e+00
    outer loop
      vertex 5.001000e+00 -6.047000e+00 4.002000e+00
      vertex -5.001000e+00 -6.047000e+00 4.002000e+00
      vertex -2.500000e+00 -8.000000e+00 4.002000e+00
    endloop
  endfacet
  facet normal 0.000000e+00 0.000000e+00 1.000000e+00
    outer loop
      vertex 0.000000e+00 -9.954000e+00 4.002000e+00
      vertex 2.500000e+00 -8.000000e+00 4.002000e+00
      vertex -2.500000e+00 -8.000000e+00 4.002000e+00
    endloop
  endfacet
  facet normal 0.000000e+00 0.000000e+00 1.000000e+00
    outer loop
      vertex 5.001000e+00 -6.047000e+00 4.002000e+00
      vertex -2.500000e+00 -8.000000e+00 4.002000e+00
      vertex 2.500000e+00 -8.000000e+00 4.002000e+00
    endloop
  endfacet
  facet normal 0.000000e+00 0.000000e+00 1.000000e+00
    outer loop
      vertex 0.000000e+00 1.503000e+00 3.002000e+00
      vertex 7.520000e-01 1.301000e+00 3.002000e+00
      vertex 6.250000e+00 1.082600e+01 3.002000e+00
    endloop
  endfacet
  facet normal 0.000000e+00 0.000000e+00 1.000000e+00
    outer loop
      vertex 1.302000e+00 -7.519998e-01 3.002000e+00
      vertex 1.250100e+01 2.086163e-07 3.002000e+00
      vertex 1.503000e+00 2.086163e-07 3.002000e+00
    endloop
  endfacet
  facet normal 0.000000e+00 -1.000000e+00 0.000000e+00
    outer loop
      vertex 6.250000e+00 -1.082600e+01 3.002000e+00
      vertex -6.250000e+00 -1.082600e+01 3.002000e+00
      vertex 6.250000e+00 -1.082600e+01 1.000000e-03
    endloop
  endfacet
  facet normal -6.158153e-01 -7.878906e-01 0.000000e+00
    outer loop
      vertex -1.250625e+00 -8.976511e+00 3.002000e+00
      vertex 0.000000e+00 -9.954000e+00 3.002000e+00
      vertex 0.000000e+00 -9.954000e+00 4.002000e+00
    endloop
  endfacet
  facet normal -6.158153e-01 -7.878906e-01 0.000000e+00
    outer loop
      vertex -1.250625e+00 -8.976511e+00 3.002000e+00
      vertex 0.000000e+00 -9.954000e+00 4.002000e+00
      vertex -2.500000e+00 -8.000000e+00 4.002000e+00
    endloop
  endfacet
  facet normal 0.000000e+00 0.000000e+00 1.000000e+00
    outer loop
      vertex -1.250625e+00 -8.976511e+00 3.002000e+00
      vertex -6.250000e+00 -1.082600e+01 3.002000e+00
      vertex 0.000000e+00 -9.954000e+00 3.002000e+00
    endloop
  endfacet
  facet normal 0.000000e+00 -1.000000e+00 0.000000e+00
    outer loop
      vertex -6.250000e+00 -1.082600e+01 1.000000e-03
      vertex 6.250000e+00 -1.082600e+01 1.000000e-03
      vertex -6.250000e+00 -1.082600e+01 3.002000e+00
    endloop
  endfacet
  facet normal -6.156409e-01 -7.880267e-01 3.507416e-04
    outer loop
      vertex -3.749875e+00 -7.023988e+00 3.002000e+00
      vertex -1.250625e+00 -8.976511e+00 3.002000e+00
      vertex -2.500000e+00 -8.000000e+00 4.002000e+00
    endloop
  endfacet
  facet normal -6.154667e-01 -7.881629e-01 0.000000e+00
    outer loop
      vertex -5.001000e+00 -6.047000e+00 4.002000e+00
      vertex -5.001000e+00 -6.047000e+00 3.002000e+00
      vertex -3.749875e+00 -7.023988e+00 3.002000e+00
    endloop
  endfacet
  facet normal -6.154667e-01 -7.881629e-01 0.000000e+00
    outer loop
      vertex -5.001000e+00 -6.047000e+00 4.002000e+00
      vertex -3.749875e+00 -7.023988e+00 3.002000e+00
      vertex -2.500000e+00 -8.000000e+00 4.002000e+00
    endloop
  endfacet
  facet normal 6.154667e-01 -7.881629e-01 0.000000e+00
    outer loop
      vertex 2.500000e+00 -8.000000e+00 3.002000e+00
      vertex 5.001000e+00 -6.047000e+00 3.002000e+00
      vertex 5.001000e+00 -6.047000e+00 4.002000e+00
    endloop
  endfacet
  facet normal 6.154667e-01 -7.881629e-01 0.000000e+00
    outer loop
      vertex 2.500000e+00 -8.000000e+00 3.002000e+00
      vertex 5.001000e+00 -6.047000e+00 4.002000e+00
      vertex 2.500000e+00 -8.000000e+00 4.002000e+00
    endloop
  endfacet
  facet normal 8.660044e-01 -5.000364e-01 0.000000e+00
    outer loop
      vertex 6.250000e+00 -1.082600e+01 3.002000e+00
      vertex 6.250000e+00 -1.082600e+01 1.000000e-03
      vertex 1.250100e+01 2.086163e-07 3.002000e+00
    endloop
  endfacet
  facet normal 8.660044e-01 -5.000364e-01 0.000000e+00
    outer loop
      vertex 1.250100e+01 2.086163e-07 1.000000e-03
      vertex 1.250100e+01 2.086163e-07 3.002000e+00
      vertex 6.250000e+00 -1.082600e+01 1.000000e-03
    endloop
  endfacet
  facet normal 0.000000e+00 0.000000e+00 1.000000e+00
    outer loop
      vertex 0.000000e+00 -9.954000e+00 3.002000e+00
      vertex 6.250000e+00 -1.082600e+01 3.002000e+00
      vertex 2.500000e+00 -8.000000e+00 3.002000e+00
    endloop
  endfacet
  facet normal 0.000000e+00 0.000000e+00 1.000000e+00
    outer loop
      vertex 5.001000e+00 -6.047000e+00 3.002000e+00
      vertex 2.500000e+00 -8.000000e+00 3.002000e+00
      vertex 6.250000e+00 -1.082600e+01 3.002000e+00
    endloop
  endfacet
  facet normal 0.000000e+00 0.000000e+00 1.000000e+00
    outer loop
      vertex 1.250100e+01 2.086163e-07 3.002000e+00
      vertex 5.001000e+00 -6.047000e+00 3.002000e+00
      vertex 6.250000e+00 -1.082600e+01 3.002000e+00
    endloop
  endfacet
  facet normal 0.000000e+00 0.000000e+00 -1.000000e+00
    outer loop
      vertex 5.001000e+00 -6.047000e+00 1.000000e-03
      vertex -5.001000e+00 -6.047000e+00 1.000000e-03
      vertex 0.000000e+00 -1.503000e+00 1.000000e-03
    endloop
  endfacet
  facet normal 6.158153e-01 -7.878906e-01 0.000000e+00
    outer loop
      vertex 0.000000e+00 -9.954000e+00 3.002000e+00
      vertex 2.500000e+00 -8.000000e+00 3.002000e+00
      vertex 2.500000e+00 -8.000000e+00 4.002000e+00
    endloop
  endfacet
  facet normal 6.158153e-01 -7.878906e-01 0.000000e+00
    outer loop
      vertex 0.000000e+00 -9.954000e+00 3.002000e+00
      vertex 2.500000e+00 -8.000000e+00 4.002000e+00
      vertex 0.000000e+00 -9.954000e+00 4.002000e+00
    endloop
  endfacet
  facet normal 0.000000e+00 1.000000e+00 0.000000e+00
    outer loop
      vertex 5.001000e+00 -6.047000e+00 3.002000e+00
      vertex -5.001000e+00 -6.047000e+00 3.002000e+00
      vertex -5.001000e+00 -6.047000e+00 4.002000e+00
    endloop
  endfacet
  facet normal 0.000000e+00 1.000000e+00 0.000000e+00
    outer loop
      vertex 5.001000e+00 -6.047000e+00 3.002000e+00
      vertex -5.001000e+00 -6.047000e+00 4.002000e+00
      vertex 5.001000e+00 -6.047000e+00 4.002000e+00
    endloop
  endfacet
  facet normal 0.000000e+00 0.000000e+00 -1.000000e+00
    outer loop
      vertex -5.001000e+00 -6.047000e+00 0.000000e+00
      vertex 5.001000e+00 -6.047000e+00 0.000000e+00
      vertex 2.500000e+00 -8.000000e+00 0.000000e+00
    endloop
  endfacet
  facet normal 0.000000e+00 0.000000e+00 -1.000000e+00
    outer loop
      vertex 0.000000e+00 -9.954000e+00 0.000000e+00
      vertex -2.500000e+00 -8.000000e+00 0.000000e+00
      vertex 2.500000e+00 -8.000000e+00 0.000000e+00
    endloop
  endfacet
  facet normal 0.000000e+00 0.000000e+00 -1.000000e+00
    outer loop
      vertex -5.001000e+00 -6.047000e+00 0.000000e+00
      vertex 2.500000e+00 -8.000000e+00 0.000000e+00
      vertex -2.500000e+00 -8.000000e+00 0.000000e+00
    endloop
  endfacet
  facet normal 0.000000e+00 0.000000e+00 1.000000e+00
    outer loop
      vertex 1.503000e+00 2.086163e-07 3.002000e+00
      vertex 1.250100e+01 2.086163e-07 3.002000e+00
      vertex 1.302000e+00 7.510002e-01 3.002000e+00
    endloop
  endfacet
  facet normal -6.158153e-01 -7.878906e-01 0.000000e+00
    outer loop
      vertex 0.000000e+00 -9.954000e+00 1.000000e-03
      vertex -2.498751e+00 -8.000976e+00 1.000000e-03
      vertex 0.000000e+00 -9.954000e+00 0.000000e+00
    endloop
  endfacet
  facet normal -6.158153e-01 -7.878906e-01 0.000000e+00
    outer loop
      vertex -2.500000e+00 -8.000000e+00 0.000000e+00
      vertex 0.000000e+00 -9.954000e+00 0.000000e+00
      vertex -2.498751e+00 -8.000976e+00 1.000000e-03
    endloop
  endfacet
  facet normal 0.000000e+00 0.000000e+00 -1.000000e+00
    outer loop
      vertex 1.503000e+00 2.086163e-07 1.000000e-03
      vertex 1.302000e+00 7.510002e-01 1.000000e-03
      vertex 1.250100e+01 2.086163e-07 1.000000e-03
    endloop
  endfacet
  facet normal 0.000000e+00 0.000000e+00 -1.000000e+00
    outer loop
      vertex 1.250100e+01 2.086163e-07 1.000000e-03
      vertex 5.001000e+00 -6.047000e+00 1.000000e-03
      vertex 1.302000e+00 -7.519998e-01 1.000000e-03
    endloop
  endfacet
  facet normal 0.000000e+00 0.000000e+00 1.000000e+00
    outer loop
      vertex 1.250100e+01 2.086163e-07 3.002000e+00
      vertex 6.250000e+00 1.082600e+01 3.002000e+00
      vertex 1.302000e+00 7.510002e-01 3.002000e+00
    endloop
  endfacet
  facet normal 0.000000e+00 0.000000e+00 1.000000e+00
    outer loop
      vertex 7.520000e-01 -1.302000e+00 3.002000e+00
      vertex 0.000000e+00 -1.503000e+00 3.002000e+00
      vertex 5.001000e+00 -6.047000e+00 3.002000e+00
    endloop
  endfacet
  facet normal 0.000000e+00 0.000000e+00 1.000000e+00
    outer loop
      vertex 0.000000e+00 -1.503000e+00 3.002000e+00
      vertex -7.520000e-01 -1.302000e+00 3.002000e+00
      vertex -5.001000e+00 -6.047000e+00 3.002000e+00
    endloop
  endfacet
  facet normal 0.000000e+00 0.000000e+00 1.000000e+00
    outer loop
      vertex 1.250100e+01 2.086163e-07 3.002000e+00
      vertex 1.302000e+00 -7.519998e-01 3.002000e+00
      vertex 5.001000e+00 -6.047000e+00 3.002000e+00
    endloop
  endfacet
  facet normal -6.156409e-01 -7.880267e-01 -3.507416e-04
    outer loop
      vertex -2.500000e+00 -8.000000e+00 0.000000e+00
      vertex -2.498751e+00 -8.000976e+00 1.000000e-03
      vertex -2.501250e+00 -7.999024e+00 1.000000e-03
    endloop
  endfacet
  facet normal 0.000000e+00 0.000000e+00 -1.000000e+00
    outer loop
      vertex 7.520000e-01 1.301000e+00 1.000000e-03
      vertex 0.000000e+00 1.503000e+00 1.000000e-03
      vertex 6.250000e+00 1.082600e+01 1.000000e-03
    endloop
  endfacet
  facet normal 0.000000e+00 0.000000e+00 -1.000000e+00
    outer loop
      vertex -6.250000e+00 1.082600e+01 1.000000e-03
      vertex 0.000000e+00 1.503000e+00 1.000000e-03
      vertex -7.520000e-01 1.301000e+00 1.000000e-03
    endloop
  endfacet
  facet normal 0.000000e+00 0.000000e+00 -1.000000e+00
    outer loop
      vertex -1.302000e+00 7.510002e-01 1.000000e-03
      vertex -6.250000e+00 1.082600e+01 1.000000e-03
      vertex -7.520000e-01 1.301000e+00 1.000000e-03
    endloop
  endfacet
  facet normal 0.000000e+00 0.000000e+00 1.000000e+00
    outer loop
      vertex 7.520000e-01 1.301000e+00 3.002000e+00
      vertex 1.302000e+00 7.510002e-01 3.002000e+00
      vertex 6.250000e+00 1.082600e+01 3.002000e+00
    endloop
  endfacet
  facet normal 0.000000e+00 0.000000e+00 1.000000e+00
    outer loop
      vertex -3.749875e+00 -7.023988e+00 3.002000e+00
      vertex -6.250000e+00 -1.082600e+01 3.002000e+00
      vertex -1.250625e+00 -8.976511e+00 3.002000e+00
    endloop
  endfacet
  facet normal 0.000000e+00 0.000000e+00 1.000000e+00
    outer loop
      vertex -5.001000e+00 -6.047000e+00 3.002000e+00
      vertex -6.250000e+00 -1.082600e+01 3.002000e+00
      vertex -3.749875e+00 -7.023988e+00 3.002000e+00
    endloop
  endfacet
  facet normal 0.000000e+00 0.000000e+00 1.000000e+00
    outer loop
      vertex -1.250100e+01 2.086163e-07 3.002000e+00
      vertex -6.250000e+00 -1.082600e+01 3.002000e+00
      vertex -5.001000e+00 -6.047000e+00 3.002000e+00
    endloop
  endfacet
  facet normal 0.000000e+00 0.000000e+00 1.000000e+00
    outer loop
      vertex 6.250000e+00 -1.082600e+01 3.002000e+00
      vertex 0.000000e+00 -9.954000e+00 3.002000e+00
      vertex -6.250000e+00 -1.082600e+01 3.002000e+00
    endloop
  endfacet
  facet normal -6.154667e-01 -7.881629e-01 0.000000e+00
    outer loop
      vertex -5.001000e+00 -6.047000e+00 1.000000e-03
      vertex -5.001000e+00 -6.047000e+00 0.000000e+00
      vertex -2.501250e+00 -7.999024e+00 1.000000e-03
    endloop
  endfacet
  facet normal -6.154667e-01 -7.881629e-01 0.000000e+00
    outer loop
      vertex -2.500000e+00 -8.000000e+00 0.000000e+00
      vertex -2.501250e+00 -7.999024e+00 1.000000e-03
      vertex -5.001000e+00 -6.047000e+00 0.000000e+00
    endloop
  endfacet
  facet normal 0.000000e+00 0.000000e+00 1.000000e+00
    outer loop
      vertex 6.250000e+00 1.082600e+01 3.002000e+00
      vertex -6.250000e+00 1.082600e+01 3.002000e+00
      vertex 0.000000e+00 1.503000e+00 3.002000e+00
    endloop
  endfacet
  facet normal 6.154667e-01 -7.881629e-01 0.000000e+00
    outer loop
      vertex 5.001000e+00 -6.047000e+00 0.000000e+00
      vertex 5.001000e+00 -6.047000e+00 1.000000e-03
      vertex 2.500000e+00 -8.000000e+00 1.000000e-03
    endloop
  endfacet
  facet normal 6.154667e-01 -7.881629e-01 0.000000e+00
    outer loop
      vertex 5.001000e+00 -6.047000e+00 0.000000e+00
      vertex 2.500000e+00 -8.000000e+00 1.000000e-03
      vertex 2.500000e+00 -8.000000e+00 0.000000e+00
    endloop
  endfacet
  facet normal 0.000000e+00 0.000000e+00 1.000000e+00
    outer loop
      vertex -7.520000e-01 1.301000e+00 3.002000e+00
      vertex 0.000000e+00 1.503000e+00 3.002000e+00
      vertex -6.250000e+00 1.082600e+01 3.002000e+00
    endloop
  endfacet
  facet normal 0.000000e+00 0.000000e+00 -1.000000e+00
    outer loop
      vertex 1.302000e+00 -7.519998e-01 1.000000e-03
      vertex 1.503000e+00 2.086163e-07 1.000000e-03
      vertex 1.250100e+01 2.086163e-07 1.000000e-03
    endloop
  endfacet
  facet normal 0.000000e+00 0.000000e+00 -1.000000e+00
    outer loop
      vertex 1.302000e+00 7.510002e-01 1.000000e-03
      vertex 7.520000e-01 1.301000e+00 1.000000e-03
      vertex 6.250000e+00 1.082600e+01 1.000000e-03
    endloop
  endfacet
  facet normal 0.000000e+00 0.000000e+00 -1.000000e+00
    outer loop
      vertex 6.250000e+00 1.082600e+01 1.000000e-03
      vertex 1.250100e+01 2.086163e-07 1.000000e-03
      vertex 1.302000e+00 7.510002e-01 1.000000e-03
    endloop
  endfacet
  facet normal 6.158153e-01 -7.878906e-01 0.000000e+00
    outer loop
      vertex 2.500000e+00 -8.000000e+00 0.000000e+00
      vertex 2.500000e+00 -8.000000e+00 1.000000e-03
      vertex 0.000000e+00 -9.954000e+00 1.000000e-03
    endloop
  endfacet
  facet normal 6.158153e-01 -7.878906e-01 0.000000e+00
    outer loop
      vertex 2.500000e+00 -8.000000e+00 0.000000e+00
      vertex 0.000000e+00 -9.954000e+00 1.000000e-03
      vertex 0.000000e+00 -9.954000e+00 0.000000e+00
    endloop
  endfacet
  facet normal 0.000000e+00 0.000000e+00 1.000000e+00
    outer loop
      vertex -1.503000e+00 2.086163e-07 3.002000e+00
      vertex -1.250100e+01 2.086163e-07 3.002000e+00
      vertex -1.302000e+00 -7.519998e-01 3.002000e+00
    endloop
  endfacet
  facet normal 0.000000e+00 0.000000e+00 1.000000e+00
    outer loop
      vertex -1.503000e+00 2.086163e-07 3.002000e+00
      vertex -1.302000e+00 7.510002e-01 3.002000e+00
      vertex -1.250100e+01 2.086163e-07 3.002000e+00
    endloop
  endfacet
  facet normal 0.000000e+00 0.000000e+00 1.000000e+00
    outer loop
      vertex -1.302000e+00 7.510002e-01 3.002000e+00
      vertex -7.520000e-01 1.301000e+00 3.002000e+00
      vertex -6.250000e+00 1.082600e+01 3.002000e+00
    endloop
  endfacet
  facet normal 0.000000e+00 0.000000e+00 1.000000e+00
    outer loop
      vertex -6.250000e+00 1.082600e+01 3.002000e+00
      vertex -1.250100e+01 2.086163e-07 3.002000e+00
      vertex -1.302000e+00 7.510002e-01 3.002000e+00
    endloop
  endfacet
  facet normal 0.000000e+00 0.000000e+00 1.000000e+00
    outer loop
      vertex -5.001000e+00 -6.047000e+00 3.002000e+00
      vertex -1.302000e+00 -7.519998e-01 3.002000e+00
      vertex -1.250100e+01 2.086163e-07 3.002000e+00
    endloop
  endfacet
  facet normal 0.000000e+00 0.000000e+00 -1.000000e+00
    outer loop
      vertex -6.250000e+00 -1.082600e+01 1.000000e-03
      vertex 0.000000e+00 -9.954000e+00 1.000000e-03
      vertex 6.250000e+00 -1.082600e+01 1.000000e-03
    endloop
  endfacet
  facet normal 0.000000e+00 1.000000e+00 0.000000e+00
    outer loop
      vertex -5.001000e+00 -6.047000e+00 1.000000e-03
      vertex 5.001000e+00 -6.047000e+00 1.000000e-03
      vertex -5.001000e+00 -6.047000e+00 0.000000e+00
    endloop
  endfacet
  facet normal 0.000000e+00 1.000000e+00 0.000000e+00
    outer loop
      vertex 5.001000e+00 -6.047000e+00 0.000000e+00
      vertex -5.001000e+00 -6.047000e+00 0.000000e+00
      vertex 5.001000e+00 -6.047000e+00 1.000000e-03
    endloop
  endfacet
  facet normal -9.659997e-01 -2.585432e-01 0.000000e+00
    outer loop
      vertex 1.302000e+00 7.510002e-01 3.002000e+00
      vertex 1.302000e+00 7.510002e-01 1.000000e-03
      vertex 1.503000e+00 2.086163e-07 1.000000e-03
    endloop
  endfacet
  facet normal -9.659997e-01 -2.585432e-01 0.000000e+00
    outer loop
      vertex 1.302000e+00 7.510002e-01 3.002000e+00
      vertex 1.503000e+00 2.086163e-07 1.000000e-03
      vertex 1.503000e+00 2.086163e-07 3.002000e+00
    endloop
  endfacet
  facet normal 0.000000e+00 0.000000e+00 1.000000e+00
    outer loop
      vertex -1.302000e+00 -7.519998e-01 3.002000e+00
      vertex -5.001000e+00 -6.047000e+00 3.002000e+00
      vertex -7.520000e-01 -1.302000e+00 3.002000e+00
    endloop
  endfacet
  facet normal 0.000000e+00 0.000000e+00 -1.000000e+00
    outer loop
      vertex 0.000000e+00 -9.954000e+00 1.000000e-03
      vertex 2.500000e+00 -8.000000e+00 1.000000e-03
      vertex 6.250000e+00 -1.082600e+01 1.000000e-03
    endloop
  endfacet
  facet normal -7.071068e-01 -7.071068e-01 0.000000e+00
    outer loop
      vertex 7.520000e-01 1.301000e+00 3.002000e+00
      vertex 7.520000e-01 1.301000e+00 1.000000e-03
      vertex 1.302000e+00 7.510002e-01 1.000000e-03
    endloop
  endfacet
  facet normal -7.071068e-01 -7.071068e-01 0.000000e+00
    outer loop
      vertex 7.520000e-01 1.301000e+00 3.002000e+00
      vertex 1.302000e+00 7.510002e-01 1.000000e-03
      vertex 1.302000e+00 7.510002e-01 3.002000e+00
    endloop
  endfacet
  facet normal 0.000000e+00 0.000000e+00 1.000000e+00
    outer loop
      vertex 7.520000e-01 -1.302000e+00 3.002000e+00
      vertex 5.001000e+00 -6.047000e+00 3.002000e+00
      vertex 1.302000e+00 -7.519998e-01 3.002000e+00
    endloop
  endfacet
  facet normal 0.000000e+00 0.000000e+00 1.000000e+00
    outer loop
      vertex -5.001000e+00 -6.047000e+00 3.002000e+00
      vertex 5.001000e+00 -6.047000e+00 3.002000e+00
      vertex 0.000000e+00 -1.503000e+00 3.002000e+00
    endloop
  endfacet
  facet normal 0.000000e+00 0.000000e+00 -1.000000e+00
    outer loop
      vertex 6.250000e+00 -1.082600e+01 1.000000e-03
      vertex 2.500000e+00 -8.000000e+00 1.000000e-03
      vertex 5.001000e+00 -6.047000e+00 1.000000e-03
    endloop
  endfacet
  facet normal 0.000000e+00 0.000000e+00 -1.000000e+00
    outer loop
      vertex 5.001000e+00 -6.047000e+00 1.000000e-03
      vertex 1.250100e+01 2.086163e-07 1.000000e-03
      vertex 6.250000e+00 -1.082600e+01 1.000000e-03
    endloop
  endfacet
  facet normal -2.594208e-01 -9.657644e-01 0.000000e+00
    outer loop
      vertex 7.520000e-01 1.301000e+00 1.000000e-03
      vertex 7.520000e-01 1.301000e+00 3.002000e+00
      vertex 0.000000e+00 1.503000e+00 3.002000e+00
    endloop
  endfacet
  facet normal -2.594208e-01 -9.657644e-01 0.000000e+00
    outer loop
      vertex 7.520000e-01 1.301000e+00 1.000000e-03
      vertex 0.000000e+00 1.503000e+00 3.002000e+00
      vertex 0.000000e+00 1.503000e+00 1.000000e-03
    endloop
  endfacet
  facet normal 0.000000e+00 0.000000e+00 -1.000000e+00
    outer loop
      vertex 7.520000e-01 -1.302000e+00 1.000000e-03
      vertex 1.302000e+00 -7.519998e-01 1.000000e-03
      vertex 5.001000e+00 -6.047000e+00 1.000000e-03
    endloop
  endfacet
  facet normal 0.000000e+00 0.000000e+00 -1.000000e+00
    outer loop
      vertex 7.520000e-01 -1.302000e+00 1.000000e-03
      vertex 5.001000e+00 -6.047000e+00 1.000000e-03
      vertex 0.000000e+00 -1.503000e+00 1.000000e-03
    endloop
  endfacet
  facet normal 2.594208e-01 -9.657644e-01 0.000000e+00
    outer loop
      vertex 0.000000e+00 1.503000e+00 1.000000e-03
      vertex 0.000000e+00 1.503000e+00 3.002000e+00
      vertex -7.520000e-01 1.301000e+00 3.002000e+00
    endloop
  endfacet
  facet normal 2.594208e-01 -9.657644e-01 0.000000e+00
    outer loop
      vertex 0.000000e+00 1.503000e+00 1.000000e-03
      vertex -7.520000e-01 1.301000e+00 3.002000e+00
      vertex -7.520000e-01 1.301000e+00 1.000000e-03
    endloop
  endfacet
  facet normal 0.000000e+00 0.000000e+00 -1.000000e+00
    outer loop
      vertex -1.250100e+01 2.086163e-07 1.000000e-03
      vertex -5.001000e+00 -6.047000e+00 1.000000e-03
      vertex -6.250000e+00 -1.082600e+01 1.000000e-03
    endloop
  endfacet
  facet normal 0.000000e+00 0.000000e+00 -1.000000e+00
    outer loop
      vertex -5.001000e+00 -6.047000e+00 1.000000e-03
      vertex -2.501250e+00 -7.999024e+00 1.000000e-03
      vertex -6.250000e+00 -1.082600e+01 1.000000e-03
    endloop
  endfacet
  facet normal 0.000000e+00 0.000000e+00 -1.000000e+00
    outer loop
      vertex 0.000000e+00 -9.954000e+00 1.000000e-03
      vertex -6.250000e+00 -1.082600e+01 1.000000e-03
      vertex -2.498751e+00 -8.000976e+00 1.000000e-03
    endloop
  endfacet
  facet normal 0.000000e+00 0.000000e+00 -1.000000e+00
    outer loop
      vertex -2.498751e+00 -8.000976e+00 1.000000e-03
      vertex -6.250000e+00 -1.082600e+01 1.000000e-03
      vertex -2.501250e+00 -7.999024e+00 1.000000e-03
    endloop
  endfacet
  facet normal 7.071068e-01 -7.071068e-01 0.000000e+00
    outer loop
      vertex -7.520000e-01 1.301000e+00 1.000000e-03
      vertex -7.520000e-01 1.301000e+00 3.002000e+00
      vertex -1.302000e+00 7.510002e-01 3.002000e+00
    endloop
  endfacet
  facet normal 7.071068e-01 -7.071068e-01 0.000000e+00
    outer loop
      vertex -7.520000e-01 1.301000e+00 1.000000e-03
      vertex -1.302000e+00 7.510002e-01 3.002000e+00
      vertex -1.302000e+00 7.510002e-01 1.000000e-03
    endloop
  endfacet
  facet normal 0.000000e+00 0.000000e+00 -1.000000e+00
    outer loop
      vertex -1.503000e+00 2.086163e-07 1.000000e-03
      vertex -1.250100e+01 2.086163e-07 1.000000e-03
      vertex -1.302000e+00 7.510002e-01 1.000000e-03
    endloop
  endfacet
  facet normal 0.000000e+00 0.000000e+00 -1.000000e+00
    outer loop
      vertex -5.001000e+00 -6.047000e+00 1.000000e-03
      vertex -1.250100e+01 2.086163e-07 1.000000e-03
      vertex -1.302000e+00 -7.519998e-01 1.000000e-03
    endloop
  endfacet
  facet normal 0.000000e+00 0.000000e+00 -1.000000e+00
    outer loop
      vertex -1.302000e+00 -7.519998e-01 1.000000e-03
      vertex -7.520000e-01 -1.302000e+00 1.000000e-03
      vertex -5.001000e+00 -6.047000e+00 1.000000e-03
    endloop
  endfacet
  facet normal 0.000000e+00 0.000000e+00 -1.000000e+00
    outer loop
      vertex -7.520000e-01 -1.302000e+00 1.000000e-03
      vertex 0.000000e+00 -1.503000e+00 1.000000e-03
      vertex -5.001000e+00 -6.047000e+00 1.000000e-03
    endloop
  endfacet
  facet normal 0.000000e+00 0.000000e+00 -1.000000e+00
    outer loop
      vertex -1.503000e+00 2.086163e-07 1.000000e-03
      vertex -1.302000e+00 -7.519998e-01 1.000000e-03
      vertex -1.250100e+01 2.086163e-07 1.000000e-03
    endloop
  endfacet
  facet normal 0.000000e+00 0.000000e+00 -1.000000e+00
    outer loop
      vertex -6.250000e+00 1.082600e+01 1.000000e-03
      vertex -1.302000e+00 7.510002e-01 1.000000e-03
      vertex -1.250100e+01 2.086163e-07 1.000000e-03
    endloop
  endfacet
  facet normal 9.659997e-01 -2.585432e-01 0.000000e+00
    outer loop
      vertex -1.302000e+00 7.510002e-01 1.000000e-03
      vertex -1.302000e+00 7.510002e-01 3.002000e+00
      vertex -1.503000e+00 2.086163e-07 3.002000e+00
    endloop
  endfacet
  facet normal 9.659997e-01 -2.585432e-01 0.000000e+00
    outer loop
      vertex -1.302000e+00 7.510002e-01 1.000000e-03
      vertex -1.503000e+00 2.086163e-07 3.002000e+00
      vertex -1.503000e+00 2.086163e-07 1.000000e-03
    endloop
  endfacet
  facet normal 9.660855e-01 2.582223e-01 0.000000e+00
    outer loop
      vertex -1.302000e+00 -7.519998e-01 3.002000e+00
      vertex -1.302000e+00 -7.519998e-01 1.000000e-03
      vertex -1.503000e+00 2.086163e-07 1.000000e-03
    endloop
  endfacet
  facet normal 9.660855e-01 2.582223e-01 0.000000e+00
    outer loop
      vertex -1.302000e+00 -7.519998e-01 3.002000e+00
      vertex -1.503000e+00 2.086163e-07 1.000000e-03
      vertex -1.503000e+00 2.086163e-07 3.002000e+00
    endloop
  endfacet
  facet normal 7.071068e-01 7.071068e-01 0.000000e+00
    outer loop
      vertex -7.520000e-01 -1.302000e+00 3.002000e+00
      vertex -7.520000e-01 -1.302000e+00 1.000000e-03
      vertex -1.302000e+00 -7.519998e-01 1.000000e-03
    endloop
  endfacet
  facet normal 7.071068e-01 7.071068e-01 0.000000e+00
    outer loop
      vertex -7.520000e-01 -1.302000e+00 3.002000e+00
      vertex -1.302000e+00 -7.519998e-01 1.000000e-03
      vertex -1.302000e+00 -7.519998e-01 3.002000e+00
    endloop
  endfacet
  facet normal 2.582223e-01 9.660855e-01 0.000000e+00
    outer loop
      vertex 0.000000e+00 -1.503000e+00 3.002000e+00
      vertex 0.000000e+00 -1.503000e+00 1.000000e-03
      vertex -7.520000e-01 -1.302000e+00 1.000000e-03
    endloop
  endfacet
  facet normal 2.582223e-01 9.660855e-01 0.000000e+00
    outer loop
      vertex 0.000000e+00 -1.503000e+00 3.002000e+00
      vertex -7.520000e-01 -1.302000e+00 1.000000e-03
      vertex -7.520000e-01 -1.302000e+00 3.002000e+00
    endloop
  endfacet
  facet normal -2.582223e-01 9.660855e-01 0.000000e+00
    outer loop
      vertex 7.520000e-01 -1.302000e+00 3.002000e+00
      vertex 7.520000e-01 -1.302000e+00 1.000000e-03
      vertex 0.000000e+00 -1.503000e+00 1.000000e-03
    endloop
  endfacet
  facet normal -2.582223e-01 9.660855e-01 0.000000e+00
    outer loop
      vertex 7.520000e-01 -1.302000e+00 3.002000e+00
      vertex 0.000000e+00 -1.503000e+00 1.000000e-03
      vertex 0.000000e+00 -1.503000e+00 3.002000e+00
    endloop
  endfacet
  facet normal -7.071068e-01 7.071068e-01 0.000000e+00
    outer loop
      vertex 1.302000e+00 -7.519998e-01 3.002000e+00
      vertex 1.302000e+00 -7.519998e-01 1.000000e-03
      vertex 7.520000e-01 -1.302000e+00 1.000000e-03
    endloop
  endfacet
  facet normal -7.071068e-01 7.071068e-01 0.000000e+00
    outer loop
      vertex 1.302000e+00 -7.519998e-01 3.002000e+00
      vertex 7.520000e-01 -1.302000e+00 1.000000e-03
      vertex 7.520000e-01 -1.302000e+00 3.002000e+00
    endloop
  endfacet
  facet normal -9.660855e-01 2.582223e-01 0.000000e+00
    outer loop
      vertex 1.503000e+00 2.086163e-07 3.002000e+00
      vertex 1.503000e+00 2.086163e-07 1.000000e-03
      vertex 1.302000e+00 -7.519998e-01 1.000000e-03
    endloop
  endfacet
  facet normal -9.660855e-01 2.582223e-01 0.000000e+00
    outer loop
      vertex 1.503000e+00 2.086163e-07 3.002000e+00
      vertex 1.302000e+00 -7.519998e-01 1.000000e-03
      vertex 1.302000e+00 -7.519998e-01 3.002000e+00
    endloop
  endfacet
endsolid Default
