solid OpenSCAD_Model
  facet normal 0.903983 0.427569 0
    outer loop
      vertex 5.88582 3.07402 20
      vertex 5.82288 3.20709 -20
      vertex 5.82288 3.20709 20
    endloop
  endfacet
  facet normal 0.903983 0.427569 0
    outer loop
      vertex 5.82288 3.20709 -20
      vertex 5.88582 3.07402 20
      vertex 5.88582 3.07402 -20
    endloop
  endfacet
  facet normal 0.970027 0.242999 0
    outer loop
      vertex 5.97118 2.79263 20
      vertex 5.93541 2.93542 -20
      vertex 5.93541 2.93542 20
    endloop
  endfacet
  facet normal 0.970027 0.242999 0
    outer loop
      vertex 5.93541 2.93542 -20
      vertex 5.97118 2.79263 20
      vertex 5.97118 2.79263 -20
    endloop
  endfacet
  facet normal -0.671614 0.740901 0
    outer loop
      vertex -5.45158 3.65952 -20
      vertex -5.56065 3.56065 20
      vertex -5.45158 3.65952 20
    endloop
  endfacet
  facet normal -0.671614 0.740901 0
    outer loop
      vertex -5.56065 3.56065 20
      vertex -5.45158 3.65952 -20
      vertex -5.56065 3.56065 -20
    endloop
  endfacet
  facet normal 0.941548 0.336879 0
    outer loop
      vertex 5.93541 2.93542 20
      vertex 5.88582 3.07402 -20
      vertex 5.88582 3.07402 20
    endloop
  endfacet
  facet normal 0.941548 0.336879 0
    outer loop
      vertex 5.88582 3.07402 -20
      vertex 5.93541 2.93542 20
      vertex 5.93541 2.93542 -20
    endloop
  endfacet
  facet normal -0.989186 0.146669 0
    outer loop
      vertex -5.99277 2.64702 -20
      vertex -5.97118 2.79263 20
      vertex -5.97118 2.79263 -20
    endloop
  endfacet
  facet normal -0.989186 0.146669 0
    outer loop
      vertex -5.97118 2.79263 20
      vertex -5.99277 2.64702 -20
      vertex -5.99277 2.64702 20
    endloop
  endfacet
  facet normal 0.998793 -0.0491176 0
    outer loop
      vertex 5.99277 -2.64702 20
      vertex 6 -2.5 -20
      vertex 6 -2.5 20
    endloop
  endfacet
  facet normal 0.998793 -0.0491176 0
    outer loop
      vertex 6 -2.5 -20
      vertex 5.99277 -2.64702 20
      vertex 5.99277 -2.64702 -20
    endloop
  endfacet
  facet normal -1 0 0
    outer loop
      vertex -6 -2.5 -20
      vertex -6 2.5 20
      vertex -6 2.5 -20
    endloop
  endfacet
  facet normal -1 -0 0
    outer loop
      vertex -6 2.5 20
      vertex -6 -2.5 -20
      vertex -6 -2.5 20
    endloop
  endfacet
  facet normal 0.427569 0.903983 -0
    outer loop
      vertex 5.20709 3.82288 -20
      vertex 5.07402 3.88582 20
      vertex 5.20709 3.82288 20
    endloop
  endfacet
  facet normal 0.427569 0.903983 0
    outer loop
      vertex 5.07402 3.88582 20
      vertex 5.20709 3.82288 -20
      vertex 5.07402 3.88582 -20
    endloop
  endfacet
  facet normal -0.0491176 -0.998793 0
    outer loop
      vertex -4.64702 -3.99277 -20
      vertex -4.5 -4 20
      vertex -4.64702 -3.99277 20
    endloop
  endfacet
  facet normal -0.0491176 -0.998793 -0
    outer loop
      vertex -4.5 -4 20
      vertex -4.64702 -3.99277 -20
      vertex -4.5 -4 -20
    endloop
  endfacet
  facet normal 0.336879 -0.941548 0
    outer loop
      vertex 4.93542 -3.93541 -20
      vertex 5.07402 -3.88582 20
      vertex 4.93542 -3.93541 20
    endloop
  endfacet
  facet normal 0.336879 -0.941548 0
    outer loop
      vertex 5.07402 -3.88582 20
      vertex 4.93542 -3.93541 -20
      vertex 5.07402 -3.88582 -20
    endloop
  endfacet
  facet normal 1 -0 0
    outer loop
      vertex 6 -2.5 20
      vertex 6 2.5 -20
      vertex 6 2.5 20
    endloop
  endfacet
  facet normal 1 0 0
    outer loop
      vertex 6 2.5 -20
      vertex 6 -2.5 20
      vertex 6 -2.5 -20
    endloop
  endfacet
  facet normal 0.998793 0.0491176 0
    outer loop
      vertex 6 2.5 20
      vertex 5.99277 2.64702 -20
      vertex 5.99277 2.64702 20
    endloop
  endfacet
  facet normal 0.998793 0.0491176 0
    outer loop
      vertex 5.99277 2.64702 -20
      vertex 6 2.5 20
      vertex 6 2.5 -20
    endloop
  endfacet
  facet normal 0.514196 0.857673 -0
    outer loop
      vertex 5.33334 3.74719 -20
      vertex 5.20709 3.82288 20
      vertex 5.33334 3.74719 20
    endloop
  endfacet
  facet normal 0.514196 0.857673 0
    outer loop
      vertex 5.20709 3.82288 20
      vertex 5.33334 3.74719 -20
      vertex 5.20709 3.82288 -20
    endloop
  endfacet
  facet normal 0.803282 0.5956 0
    outer loop
      vertex 5.74719 3.33334 20
      vertex 5.65952 3.45158 -20
      vertex 5.65952 3.45158 20
    endloop
  endfacet
  facet normal 0.803282 0.5956 0
    outer loop
      vertex 5.65952 3.45158 -20
      vertex 5.74719 3.33334 20
      vertex 5.74719 3.33334 -20
    endloop
  endfacet
  facet normal -0.242999 -0.970027 0
    outer loop
      vertex -4.93542 -3.93541 -20
      vertex -4.79263 -3.97118 20
      vertex -4.93542 -3.93541 20
    endloop
  endfacet
  facet normal -0.242999 -0.970027 -0
    outer loop
      vertex -4.79263 -3.97118 20
      vertex -4.93542 -3.93541 -20
      vertex -4.79263 -3.97118 -20
    endloop
  endfacet
  facet normal -0.903983 -0.427569 0
    outer loop
      vertex -5.82288 -3.20709 -20
      vertex -5.88582 -3.07402 20
      vertex -5.88582 -3.07402 -20
    endloop
  endfacet
  facet normal -0.903983 -0.427569 0
    outer loop
      vertex -5.88582 -3.07402 20
      vertex -5.82288 -3.20709 -20
      vertex -5.82288 -3.20709 20
    endloop
  endfacet
  facet normal -0.0491176 0.998793 0
    outer loop
      vertex -4.5 4 -20
      vertex -4.64702 3.99277 20
      vertex -4.5 4 20
    endloop
  endfacet
  facet normal -0.0491176 0.998793 0
    outer loop
      vertex -4.64702 3.99277 20
      vertex -4.5 4 -20
      vertex -4.64702 3.99277 -20
    endloop
  endfacet
  facet normal 0 1 -0
    outer loop
      vertex 4.5 4 -20
      vertex -4.5 4 20
      vertex 4.5 4 20
    endloop
  endfacet
  facet normal 0 1 0
    outer loop
      vertex -4.5 4 20
      vertex 4.5 4 -20
      vertex -4.5 4 -20
    endloop
  endfacet
  facet normal -0.970027 0.242999 0
    outer loop
      vertex -5.97118 2.79263 -20
      vertex -5.93541 2.93542 20
      vertex -5.93541 2.93542 -20
    endloop
  endfacet
  facet normal -0.970027 0.242999 0
    outer loop
      vertex -5.93541 2.93542 20
      vertex -5.97118 2.79263 -20
      vertex -5.97118 2.79263 20
    endloop
  endfacet
  facet normal 0.671614 0.740901 -0
    outer loop
      vertex 5.56065 3.56065 -20
      vertex 5.45158 3.65952 20
      vertex 5.56065 3.56065 20
    endloop
  endfacet
  facet normal 0.671614 0.740901 0
    outer loop
      vertex 5.45158 3.65952 20
      vertex 5.56065 3.56065 -20
      vertex 5.45158 3.65952 -20
    endloop
  endfacet
  facet normal 0.857673 0.514196 0
    outer loop
      vertex 5.82288 3.20709 20
      vertex 5.74719 3.33334 -20
      vertex 5.74719 3.33334 20
    endloop
  endfacet
  facet normal 0.857673 0.514196 0
    outer loop
      vertex 5.74719 3.33334 -20
      vertex 5.82288 3.20709 20
      vertex 5.82288 3.20709 -20
    endloop
  endfacet
  facet normal -0.941548 -0.336879 0
    outer loop
      vertex -5.88582 -3.07402 -20
      vertex -5.93541 -2.93542 20
      vertex -5.93541 -2.93542 -20
    endloop
  endfacet
  facet normal -0.941548 -0.336879 0
    outer loop
      vertex -5.93541 -2.93542 20
      vertex -5.88582 -3.07402 -20
      vertex -5.88582 -3.07402 20
    endloop
  endfacet
  facet normal -0.146669 0.989186 0
    outer loop
      vertex -4.64702 3.99277 -20
      vertex -4.79263 3.97118 20
      vertex -4.64702 3.99277 20
    endloop
  endfacet
  facet normal -0.146669 0.989186 0
    outer loop
      vertex -4.79263 3.97118 20
      vertex -4.64702 3.99277 -20
      vertex -4.79263 3.97118 -20
    endloop
  endfacet
  facet normal 0.903983 -0.427569 0
    outer loop
      vertex 5.82288 -3.20709 20
      vertex 5.88582 -3.07402 -20
      vertex 5.88582 -3.07402 20
    endloop
  endfacet
  facet normal 0.903983 -0.427569 0
    outer loop
      vertex 5.88582 -3.07402 -20
      vertex 5.82288 -3.20709 20
      vertex 5.82288 -3.20709 -20
    endloop
  endfacet
  facet normal 0.0491176 -0.998793 0
    outer loop
      vertex 4.5 -4 -20
      vertex 4.64702 -3.99277 20
      vertex 4.5 -4 20
    endloop
  endfacet
  facet normal 0.0491176 -0.998793 0
    outer loop
      vertex 4.64702 -3.99277 20
      vertex 4.5 -4 -20
      vertex 4.64702 -3.99277 -20
    endloop
  endfacet
  facet normal 0.336879 0.941548 -0
    outer loop
      vertex 5.07402 3.88582 -20
      vertex 4.93542 3.93541 20
      vertex 5.07402 3.88582 20
    endloop
  endfacet
  facet normal 0.336879 0.941548 0
    outer loop
      vertex 4.93542 3.93541 20
      vertex 5.07402 3.88582 -20
      vertex 4.93542 3.93541 -20
    endloop
  endfacet
  facet normal -0.671614 -0.740901 0
    outer loop
      vertex -5.56065 -3.56065 -20
      vertex -5.45158 -3.65952 20
      vertex -5.56065 -3.56065 20
    endloop
  endfacet
  facet normal -0.671614 -0.740901 -0
    outer loop
      vertex -5.45158 -3.65952 20
      vertex -5.56065 -3.56065 -20
      vertex -5.45158 -3.65952 -20
    endloop
  endfacet
  facet normal -0.998793 0.0491176 0
    outer loop
      vertex -6 2.5 -20
      vertex -5.99277 2.64702 20
      vertex -5.99277 2.64702 -20
    endloop
  endfacet
  facet normal -0.998793 0.0491176 0
    outer loop
      vertex -5.99277 2.64702 20
      vertex -6 2.5 -20
      vertex -6 2.5 20
    endloop
  endfacet
  facet normal -0.5956 0.803282 0
    outer loop
      vertex -5.33334 3.74719 -20
      vertex -5.45158 3.65952 20
      vertex -5.33334 3.74719 20
    endloop
  endfacet
  facet normal -0.5956 0.803282 0
    outer loop
      vertex -5.45158 3.65952 20
      vertex -5.33334 3.74719 -20
      vertex -5.45158 3.65952 -20
    endloop
  endfacet
  facet normal 0.146669 -0.989186 0
    outer loop
      vertex 4.64702 -3.99277 -20
      vertex 4.79263 -3.97118 20
      vertex 4.64702 -3.99277 20
    endloop
  endfacet
  facet normal 0.146669 -0.989186 0
    outer loop
      vertex 4.79263 -3.97118 20
      vertex 4.64702 -3.99277 -20
      vertex 4.79263 -3.97118 -20
    endloop
  endfacet
  facet normal 0 -1 0
    outer loop
      vertex -4.5 -4 -20
      vertex 4.5 -4 20
      vertex -4.5 -4 20
    endloop
  endfacet
  facet normal 0 -1 -0
    outer loop
      vertex 4.5 -4 20
      vertex -4.5 -4 -20
      vertex 4.5 -4 -20
    endloop
  endfacet
  facet normal -0.998793 -0.0491176 0
    outer loop
      vertex -5.99277 -2.64702 -20
      vertex -6 -2.5 20
      vertex -6 -2.5 -20
    endloop
  endfacet
  facet normal -0.998793 -0.0491176 0
    outer loop
      vertex -6 -2.5 20
      vertex -5.99277 -2.64702 -20
      vertex -5.99277 -2.64702 20
    endloop
  endfacet
  facet normal -0.989186 -0.146669 0
    outer loop
      vertex -5.97118 -2.79263 -20
      vertex -5.99277 -2.64702 20
      vertex -5.99277 -2.64702 -20
    endloop
  endfacet
  facet normal -0.989186 -0.146669 0
    outer loop
      vertex -5.99277 -2.64702 20
      vertex -5.97118 -2.79263 -20
      vertex -5.97118 -2.79263 20
    endloop
  endfacet
  facet normal 0.146669 0.989186 -0
    outer loop
      vertex 4.79263 3.97118 -20
      vertex 4.64702 3.99277 20
      vertex 4.79263 3.97118 20
    endloop
  endfacet
  facet normal 0.146669 0.989186 0
    outer loop
      vertex 4.64702 3.99277 20
      vertex 4.79263 3.97118 -20
      vertex 4.64702 3.99277 -20
    endloop
  endfacet
  facet normal -0.427569 0.903983 0
    outer loop
      vertex -5.07402 3.88582 -20
      vertex -5.20709 3.82288 20
      vertex -5.07402 3.88582 20
    endloop
  endfacet
  facet normal -0.427569 0.903983 0
    outer loop
      vertex -5.20709 3.82288 20
      vertex -5.07402 3.88582 -20
      vertex -5.20709 3.82288 -20
    endloop
  endfacet
  facet normal 0.5956 0.803282 -0
    outer loop
      vertex 5.45158 3.65952 -20
      vertex 5.33334 3.74719 20
      vertex 5.45158 3.65952 20
    endloop
  endfacet
  facet normal 0.5956 0.803282 0
    outer loop
      vertex 5.33334 3.74719 20
      vertex 5.45158 3.65952 -20
      vertex 5.33334 3.74719 -20
    endloop
  endfacet
  facet normal 0.0491176 0.998793 -0
    outer loop
      vertex 4.64702 3.99277 -20
      vertex 4.5 4 20
      vertex 4.64702 3.99277 20
    endloop
  endfacet
  facet normal 0.0491176 0.998793 0
    outer loop
      vertex 4.5 4 20
      vertex 4.64702 3.99277 -20
      vertex 4.5 4 -20
    endloop
  endfacet
  facet normal -0.857673 -0.514196 0
    outer loop
      vertex -5.74719 -3.33334 -20
      vertex -5.82288 -3.20709 20
      vertex -5.82288 -3.20709 -20
    endloop
  endfacet
  facet normal -0.857673 -0.514196 0
    outer loop
      vertex -5.82288 -3.20709 20
      vertex -5.74719 -3.33334 -20
      vertex -5.74719 -3.33334 20
    endloop
  endfacet
  facet normal 0.941548 -0.336879 0
    outer loop
      vertex 5.88582 -3.07402 20
      vertex 5.93541 -2.93542 -20
      vertex 5.93541 -2.93542 20
    endloop
  endfacet
  facet normal 0.941548 -0.336879 0
    outer loop
      vertex 5.93541 -2.93542 -20
      vertex 5.88582 -3.07402 20
      vertex 5.88582 -3.07402 -20
    endloop
  endfacet
  facet normal 0.427569 -0.903983 0
    outer loop
      vertex 5.07402 -3.88582 -20
      vertex 5.20709 -3.82288 20
      vertex 5.07402 -3.88582 20
    endloop
  endfacet
  facet normal 0.427569 -0.903983 0
    outer loop
      vertex 5.20709 -3.82288 20
      vertex 5.07402 -3.88582 -20
      vertex 5.20709 -3.82288 -20
    endloop
  endfacet
  facet normal -0.970027 -0.242999 0
    outer loop
      vertex -5.93541 -2.93542 -20
      vertex -5.97118 -2.79263 20
      vertex -5.97118 -2.79263 -20
    endloop
  endfacet
  facet normal -0.970027 -0.242999 0
    outer loop
      vertex -5.97118 -2.79263 20
      vertex -5.93541 -2.93542 -20
      vertex -5.93541 -2.93542 20
    endloop
  endfacet
  facet normal 0.857673 -0.514196 0
    outer loop
      vertex 5.74719 -3.33334 20
      vertex 5.82288 -3.20709 -20
      vertex 5.82288 -3.20709 20
    endloop
  endfacet
  facet normal 0.857673 -0.514196 0
    outer loop
      vertex 5.82288 -3.20709 -20
      vertex 5.74719 -3.33334 20
      vertex 5.74719 -3.33334 -20
    endloop
  endfacet
  facet normal 0.989186 -0.146669 0
    outer loop
      vertex 5.97118 -2.79263 20
      vertex 5.99277 -2.64702 -20
      vertex 5.99277 -2.64702 20
    endloop
  endfacet
  facet normal 0.989186 -0.146669 0
    outer loop
      vertex 5.99277 -2.64702 -20
      vertex 5.97118 -2.79263 20
      vertex 5.97118 -2.79263 -20
    endloop
  endfacet
  facet normal 0.989186 0.146669 0
    outer loop
      vertex 5.99277 2.64702 20
      vertex 5.97118 2.79263 -20
      vertex 5.97118 2.79263 20
    endloop
  endfacet
  facet normal 0.989186 0.146669 0
    outer loop
      vertex 5.97118 2.79263 -20
      vertex 5.99277 2.64702 20
      vertex 5.99277 2.64702 -20
    endloop
  endfacet
  facet normal 0 0 1
    outer loop
      vertex 5 2.5 20
      vertex 6 2.5 20
      vertex 5.99277 2.64702 20
    endloop
  endfacet
  facet normal 0 0 1
    outer loop
      vertex 6 2.5 20
      vertex 5 2.5 20
      vertex 6 -2.5 20
    endloop
  endfacet
  facet normal 0 0 1
    outer loop
      vertex 4.99759 2.549 20
      vertex 5.99277 2.64702 20
      vertex 5.97118 2.79263 20
    endloop
  endfacet
  facet normal 0 0 1
    outer loop
      vertex 5 -2.5 20
      vertex 6 -2.5 20
      vertex 5 2.5 20
    endloop
  endfacet
  facet normal 0 0 1
    outer loop
      vertex 4.99039 2.59753 20
      vertex 5.97118 2.79263 20
      vertex 5.93541 2.93542 20
    endloop
  endfacet
  facet normal 0 0 1
    outer loop
      vertex 6 -2.5 20
      vertex 5 -2.5 20
      vertex 5.99277 -2.64702 20
    endloop
  endfacet
  facet normal 0 0 1
    outer loop
      vertex 4.97847 2.64514 20
      vertex 5.93541 2.93542 20
      vertex 5.88582 3.07402 20
    endloop
  endfacet
  facet normal -0 0 1
    outer loop
      vertex 4.99759 -2.549 20
      vertex 5.99277 -2.64702 20
      vertex 5 -2.5 20
    endloop
  endfacet
  facet normal 0 0 1
    outer loop
      vertex 4.96193 2.69133 20
      vertex 5.88582 3.07402 20
      vertex 5.82288 3.20709 20
    endloop
  endfacet
  facet normal 0 0 1
    outer loop
      vertex 5.99277 -2.64702 20
      vertex 4.99759 -2.549 20
      vertex 5.97118 -2.79263 20
    endloop
  endfacet
  facet normal 0 0 1
    outer loop
      vertex 4.94095 2.73569 20
      vertex 5.82288 3.20709 20
      vertex 5.74719 3.33334 20
    endloop
  endfacet
  facet normal -0 0 1
    outer loop
      vertex 4.99039 -2.59753 20
      vertex 5.97118 -2.79263 20
      vertex 4.99759 -2.549 20
    endloop
  endfacet
  facet normal 0 0 1
    outer loop
      vertex 4.91573 2.77777 20
      vertex 5.74719 3.33334 20
      vertex 5.65952 3.45158 20
    endloop
  endfacet
  facet normal 0 0 1
    outer loop
      vertex 5.97118 -2.79263 20
      vertex 4.99039 -2.59753 20
      vertex 5.93541 -2.93542 20
    endloop
  endfacet
  facet normal 0 0 1
    outer loop
      vertex 4.88651 2.81718 20
      vertex 5.65952 3.45158 20
      vertex 5.56065 3.56065 20
    endloop
  endfacet
  facet normal -0 0 1
    outer loop
      vertex 4.97847 -2.64514 20
      vertex 5.93541 -2.93542 20
      vertex 4.99039 -2.59753 20
    endloop
  endfacet
  facet normal 0 0 1
    outer loop
      vertex 4.85355 2.85355 20
      vertex 5.56065 3.56065 20
      vertex 5.45158 3.65952 20
    endloop
  endfacet
  facet normal 0 0 1
    outer loop
      vertex 5.93541 -2.93542 20
      vertex 4.97847 -2.64514 20
      vertex 5.88582 -3.07402 20
    endloop
  endfacet
  facet normal 0 0 1
    outer loop
      vertex 4.81718 2.88651 20
      vertex 5.45158 3.65952 20
      vertex 5.33334 3.74719 20
    endloop
  endfacet
  facet normal -0 0 1
    outer loop
      vertex 4.96193 -2.69133 20
      vertex 5.88582 -3.07402 20
      vertex 4.97847 -2.64514 20
    endloop
  endfacet
  facet normal 0 0 1
    outer loop
      vertex 4.77777 2.91573 20
      vertex 5.33334 3.74719 20
      vertex 5.20709 3.82288 20
    endloop
  endfacet
  facet normal 0 0 1
    outer loop
      vertex 5.88582 -3.07402 20
      vertex 4.96193 -2.69133 20
      vertex 5.82288 -3.20709 20
    endloop
  endfacet
  facet normal 0 0 1
    outer loop
      vertex 4.73569 2.94095 20
      vertex 5.20709 3.82288 20
      vertex 5.07402 3.88582 20
    endloop
  endfacet
  facet normal -0 0 1
    outer loop
      vertex 4.94095 -2.73569 20
      vertex 5.82288 -3.20709 20
      vertex 4.96193 -2.69133 20
    endloop
  endfacet
  facet normal 0 0 1
    outer loop
      vertex 5.82288 -3.20709 20
      vertex 4.94095 -2.73569 20
      vertex 5.74719 -3.33334 20
    endloop
  endfacet
  facet normal 0 0 1
    outer loop
      vertex 5.99277 2.64702 20
      vertex 4.99759 2.549 20
      vertex 5 2.5 20
    endloop
  endfacet
  facet normal 0 0 1
    outer loop
      vertex 5.97118 2.79263 20
      vertex 4.99039 2.59753 20
      vertex 4.99759 2.549 20
    endloop
  endfacet
  facet normal 0 0 1
    outer loop
      vertex 5.93541 2.93542 20
      vertex 4.97847 2.64514 20
      vertex 4.99039 2.59753 20
    endloop
  endfacet
  facet normal 0 0 1
    outer loop
      vertex 5.88582 3.07402 20
      vertex 4.96193 2.69133 20
      vertex 4.97847 2.64514 20
    endloop
  endfacet
  facet normal 0 0 1
    outer loop
      vertex 5.82288 3.20709 20
      vertex 4.94095 2.73569 20
      vertex 4.96193 2.69133 20
    endloop
  endfacet
  facet normal 0 0 1
    outer loop
      vertex 4.69133 2.96193 20
      vertex 5.07402 3.88582 20
      vertex 4.93542 3.93541 20
    endloop
  endfacet
  facet normal 0 0 1
    outer loop
      vertex 5.74719 3.33334 20
      vertex 4.91573 2.77777 20
      vertex 4.94095 2.73569 20
    endloop
  endfacet
  facet normal 0 0 1
    outer loop
      vertex 5.65952 3.45158 20
      vertex 4.88651 2.81718 20
      vertex 4.91573 2.77777 20
    endloop
  endfacet
  facet normal 0 0 1
    outer loop
      vertex 5.56065 3.56065 20
      vertex 4.85355 2.85355 20
      vertex 4.88651 2.81718 20
    endloop
  endfacet
  facet normal 0 0 1
    outer loop
      vertex 5.45158 3.65952 20
      vertex 4.81718 2.88651 20
      vertex 4.85355 2.85355 20
    endloop
  endfacet
  facet normal 0 0 1
    outer loop
      vertex 4.64514 2.97847 20
      vertex 4.93542 3.93541 20
      vertex 4.79263 3.97118 20
    endloop
  endfacet
  facet normal 0 0 1
    outer loop
      vertex 5.33334 3.74719 20
      vertex 4.77777 2.91573 20
      vertex 4.81718 2.88651 20
    endloop
  endfacet
  facet normal 0 0 1
    outer loop
      vertex 5.20709 3.82288 20
      vertex 4.73569 2.94095 20
      vertex 4.77777 2.91573 20
    endloop
  endfacet
  facet normal 0 0 1
    outer loop
      vertex 5.07402 3.88582 20
      vertex 4.69133 2.96193 20
      vertex 4.73569 2.94095 20
    endloop
  endfacet
  facet normal 0 0 1
    outer loop
      vertex 4.59753 2.99039 20
      vertex 4.79263 3.97118 20
      vertex 4.64702 3.99277 20
    endloop
  endfacet
  facet normal 0 0 1
    outer loop
      vertex 4.93542 3.93541 20
      vertex 4.64514 2.97847 20
      vertex 4.69133 2.96193 20
    endloop
  endfacet
  facet normal 0 0 1
    outer loop
      vertex 4.79263 3.97118 20
      vertex 4.59753 2.99039 20
      vertex 4.64514 2.97847 20
    endloop
  endfacet
  facet normal 0 0 1
    outer loop
      vertex 4.64702 3.99277 20
      vertex 4.549 2.99759 20
      vertex 4.59753 2.99039 20
    endloop
  endfacet
  facet normal 0 0 1
    outer loop
      vertex 4.5 4 20
      vertex 4.549 2.99759 20
      vertex 4.64702 3.99277 20
    endloop
  endfacet
  facet normal 0 0 1
    outer loop
      vertex 4.5 4 20
      vertex 4.5 3 20
      vertex 4.549 2.99759 20
    endloop
  endfacet
  facet normal -0 0 1
    outer loop
      vertex -4.5 4 20
      vertex 4.5 3 20
      vertex 4.5 4 20
    endloop
  endfacet
  facet normal 0 0 1
    outer loop
      vertex -4.5 4 20
      vertex -4.5 3 20
      vertex 4.5 3 20
    endloop
  endfacet
  facet normal 0 0 1
    outer loop
      vertex -4.5 4 20
      vertex -4.549 2.99759 20
      vertex -4.5 3 20
    endloop
  endfacet
  facet normal -0 0 1
    outer loop
      vertex -4.64702 3.99277 20
      vertex -4.549 2.99759 20
      vertex -4.5 4 20
    endloop
  endfacet
  facet normal 0 0 1
    outer loop
      vertex -4.549 2.99759 20
      vertex -4.64702 3.99277 20
      vertex -4.59753 2.99039 20
    endloop
  endfacet
  facet normal -0 0 1
    outer loop
      vertex -4.79263 3.97118 20
      vertex -4.59753 2.99039 20
      vertex -4.64702 3.99277 20
    endloop
  endfacet
  facet normal 0 0 1
    outer loop
      vertex -4.59753 2.99039 20
      vertex -4.79263 3.97118 20
      vertex -4.64514 2.97847 20
    endloop
  endfacet
  facet normal -0 0 1
    outer loop
      vertex -4.93542 3.93541 20
      vertex -4.64514 2.97847 20
      vertex -4.79263 3.97118 20
    endloop
  endfacet
  facet normal 0 0 1
    outer loop
      vertex -4.64514 2.97847 20
      vertex -4.93542 3.93541 20
      vertex -4.69133 2.96193 20
    endloop
  endfacet
  facet normal -0 0 1
    outer loop
      vertex -5.07402 3.88582 20
      vertex -4.69133 2.96193 20
      vertex -4.93542 3.93541 20
    endloop
  endfacet
  facet normal 0 0 1
    outer loop
      vertex -4.69133 2.96193 20
      vertex -5.07402 3.88582 20
      vertex -4.73569 2.94095 20
    endloop
  endfacet
  facet normal -0 0 1
    outer loop
      vertex -5.20709 3.82288 20
      vertex -4.73569 2.94095 20
      vertex -5.07402 3.88582 20
    endloop
  endfacet
  facet normal 0 0 1
    outer loop
      vertex -4.73569 2.94095 20
      vertex -5.20709 3.82288 20
      vertex -4.77777 2.91573 20
    endloop
  endfacet
  facet normal -0 0 1
    outer loop
      vertex -5.33334 3.74719 20
      vertex -4.77777 2.91573 20
      vertex -5.20709 3.82288 20
    endloop
  endfacet
  facet normal 0 0 1
    outer loop
      vertex -4.77777 2.91573 20
      vertex -5.33334 3.74719 20
      vertex -4.81718 2.88651 20
    endloop
  endfacet
  facet normal -0 0 1
    outer loop
      vertex -5.45158 3.65952 20
      vertex -4.81718 2.88651 20
      vertex -5.33334 3.74719 20
    endloop
  endfacet
  facet normal 0 0 1
    outer loop
      vertex -4.81718 2.88651 20
      vertex -5.45158 3.65952 20
      vertex -4.85355 2.85355 20
    endloop
  endfacet
  facet normal -0 0 1
    outer loop
      vertex -5.56065 3.56065 20
      vertex -4.85355 2.85355 20
      vertex -5.45158 3.65952 20
    endloop
  endfacet
  facet normal 0 0 1
    outer loop
      vertex -4.85355 2.85355 20
      vertex -5.56065 3.56065 20
      vertex -4.88651 2.81718 20
    endloop
  endfacet
  facet normal -0 0 1
    outer loop
      vertex -5.65952 3.45158 20
      vertex -4.88651 2.81718 20
      vertex -5.56065 3.56065 20
    endloop
  endfacet
  facet normal 0 0 1
    outer loop
      vertex -4.88651 2.81718 20
      vertex -5.65952 3.45158 20
      vertex -4.91573 2.77777 20
    endloop
  endfacet
  facet normal 0 0 1
    outer loop
      vertex -4.91573 2.77777 20
      vertex -5.74719 3.33334 20
      vertex -4.94095 2.73569 20
    endloop
  endfacet
  facet normal -0 0 1
    outer loop
      vertex -5.74719 3.33334 20
      vertex -4.91573 2.77777 20
      vertex -5.65952 3.45158 20
    endloop
  endfacet
  facet normal -0 0 1
    outer loop
      vertex 4.91573 -2.77777 20
      vertex 5.74719 -3.33334 20
      vertex 4.94095 -2.73569 20
    endloop
  endfacet
  facet normal 0 0 1
    outer loop
      vertex 5.74719 -3.33334 20
      vertex 4.91573 -2.77777 20
      vertex 5.65952 -3.45158 20
    endloop
  endfacet
  facet normal -0 0 1
    outer loop
      vertex 4.88651 -2.81718 20
      vertex 5.65952 -3.45158 20
      vertex 4.91573 -2.77777 20
    endloop
  endfacet
  facet normal 0 0 1
    outer loop
      vertex 5.65952 -3.45158 20
      vertex 4.88651 -2.81718 20
      vertex 5.56065 -3.56065 20
    endloop
  endfacet
  facet normal -0 0 1
    outer loop
      vertex 4.85355 -2.85355 20
      vertex 5.56065 -3.56065 20
      vertex 4.88651 -2.81718 20
    endloop
  endfacet
  facet normal 0 0 1
    outer loop
      vertex 5.56065 -3.56065 20
      vertex 4.85355 -2.85355 20
      vertex 5.45158 -3.65952 20
    endloop
  endfacet
  facet normal -0 0 1
    outer loop
      vertex 4.81718 -2.88651 20
      vertex 5.45158 -3.65952 20
      vertex 4.85355 -2.85355 20
    endloop
  endfacet
  facet normal 0 0 1
    outer loop
      vertex 5.45158 -3.65952 20
      vertex 4.81718 -2.88651 20
      vertex 5.33334 -3.74719 20
    endloop
  endfacet
  facet normal -0 0 1
    outer loop
      vertex 4.77777 -2.91573 20
      vertex 5.33334 -3.74719 20
      vertex 4.81718 -2.88651 20
    endloop
  endfacet
  facet normal 0 0 1
    outer loop
      vertex 5.33334 -3.74719 20
      vertex 4.77777 -2.91573 20
      vertex 5.20709 -3.82288 20
    endloop
  endfacet
  facet normal -0 0 1
    outer loop
      vertex 4.73569 -2.94095 20
      vertex 5.20709 -3.82288 20
      vertex 4.77777 -2.91573 20
    endloop
  endfacet
  facet normal 0 0 1
    outer loop
      vertex 5.20709 -3.82288 20
      vertex 4.73569 -2.94095 20
      vertex 5.07402 -3.88582 20
    endloop
  endfacet
  facet normal -0 0 1
    outer loop
      vertex 4.69133 -2.96193 20
      vertex 5.07402 -3.88582 20
      vertex 4.73569 -2.94095 20
    endloop
  endfacet
  facet normal 0 0 1
    outer loop
      vertex 5.07402 -3.88582 20
      vertex 4.69133 -2.96193 20
      vertex 4.93542 -3.93541 20
    endloop
  endfacet
  facet normal -0 0 1
    outer loop
      vertex 4.64514 -2.97847 20
      vertex 4.93542 -3.93541 20
      vertex 4.69133 -2.96193 20
    endloop
  endfacet
  facet normal 0 0 1
    outer loop
      vertex 4.93542 -3.93541 20
      vertex 4.64514 -2.97847 20
      vertex 4.79263 -3.97118 20
    endloop
  endfacet
  facet normal -0 0 1
    outer loop
      vertex 4.59753 -2.99039 20
      vertex 4.79263 -3.97118 20
      vertex 4.64514 -2.97847 20
    endloop
  endfacet
  facet normal 0 0 1
    outer loop
      vertex 4.79263 -3.97118 20
      vertex 4.59753 -2.99039 20
      vertex 4.64702 -3.99277 20
    endloop
  endfacet
  facet normal -0 0 1
    outer loop
      vertex 4.549 -2.99759 20
      vertex 4.64702 -3.99277 20
      vertex 4.59753 -2.99039 20
    endloop
  endfacet
  facet normal -0 0 1
    outer loop
      vertex 4.5 -3 20
      vertex 4.64702 -3.99277 20
      vertex 4.549 -2.99759 20
    endloop
  endfacet
  facet normal 0 0 1
    outer loop
      vertex 4.5 -3 20
      vertex 4.5 -4 20
      vertex 4.64702 -3.99277 20
    endloop
  endfacet
  facet normal -0 0 1
    outer loop
      vertex -4.5 -3 20
      vertex 4.5 -4 20
      vertex 4.5 -3 20
    endloop
  endfacet
  facet normal 0 0 1
    outer loop
      vertex -4.5 -3 20
      vertex -4.5 -4 20
      vertex 4.5 -4 20
    endloop
  endfacet
  facet normal 0 0 1
    outer loop
      vertex -4.549 -2.99759 20
      vertex -4.5 -4 20
      vertex -4.5 -3 20
    endloop
  endfacet
  facet normal 0 0 1
    outer loop
      vertex -4.64702 -3.99277 20
      vertex -4.549 -2.99759 20
      vertex -4.59753 -2.99039 20
    endloop
  endfacet
  facet normal 0 0 1
    outer loop
      vertex -4.79263 -3.97118 20
      vertex -4.59753 -2.99039 20
      vertex -4.64514 -2.97847 20
    endloop
  endfacet
  facet normal 0 0 1
    outer loop
      vertex -4.549 -2.99759 20
      vertex -4.64702 -3.99277 20
      vertex -4.5 -4 20
    endloop
  endfacet
  facet normal 0 0 1
    outer loop
      vertex -4.93542 -3.93541 20
      vertex -4.64514 -2.97847 20
      vertex -4.69133 -2.96193 20
    endloop
  endfacet
  facet normal 0 0 1
    outer loop
      vertex -5.07402 -3.88582 20
      vertex -4.69133 -2.96193 20
      vertex -4.73569 -2.94095 20
    endloop
  endfacet
  facet normal 0 0 1
    outer loop
      vertex -5.20709 -3.82288 20
      vertex -4.73569 -2.94095 20
      vertex -4.77777 -2.91573 20
    endloop
  endfacet
  facet normal 0 0 1
    outer loop
      vertex -4.59753 -2.99039 20
      vertex -4.79263 -3.97118 20
      vertex -4.64702 -3.99277 20
    endloop
  endfacet
  facet normal 0 0 1
    outer loop
      vertex -5.33334 -3.74719 20
      vertex -4.77777 -2.91573 20
      vertex -4.81718 -2.88651 20
    endloop
  endfacet
  facet normal 0 0 1
    outer loop
      vertex -5.45158 -3.65952 20
      vertex -4.81718 -2.88651 20
      vertex -4.85355 -2.85355 20
    endloop
  endfacet
  facet normal 0 0 1
    outer loop
      vertex -5.56065 -3.56065 20
      vertex -4.85355 -2.85355 20
      vertex -4.88651 -2.81718 20
    endloop
  endfacet
  facet normal 0 0 1
    outer loop
      vertex -5.65952 -3.45158 20
      vertex -4.88651 -2.81718 20
      vertex -4.91573 -2.77777 20
    endloop
  endfacet
  facet normal 0 0 1
    outer loop
      vertex -4.64514 -2.97847 20
      vertex -4.93542 -3.93541 20
      vertex -4.79263 -3.97118 20
    endloop
  endfacet
  facet normal 0 0 1
    outer loop
      vertex -5.74719 -3.33334 20
      vertex -4.91573 -2.77777 20
      vertex -4.94095 -2.73569 20
    endloop
  endfacet
  facet normal 0 0 1
    outer loop
      vertex -5.82288 -3.20709 20
      vertex -4.94095 -2.73569 20
      vertex -4.96193 -2.69133 20
    endloop
  endfacet
  facet normal 0 0 1
    outer loop
      vertex -5.88582 -3.07402 20
      vertex -4.96193 -2.69133 20
      vertex -4.97847 -2.64514 20
    endloop
  endfacet
  facet normal 0 0 1
    outer loop
      vertex -5.93541 -2.93542 20
      vertex -4.97847 -2.64514 20
      vertex -4.99039 -2.59753 20
    endloop
  endfacet
  facet normal 0 0 1
    outer loop
      vertex -5.97118 -2.79263 20
      vertex -4.99039 -2.59753 20
      vertex -4.99759 -2.549 20
    endloop
  endfacet
  facet normal 0 0 1
    outer loop
      vertex -5.99277 -2.64702 20
      vertex -4.99759 -2.549 20
      vertex -5 -2.5 20
    endloop
  endfacet
  facet normal 0 0 1
    outer loop
      vertex -4.69133 -2.96193 20
      vertex -5.07402 -3.88582 20
      vertex -4.93542 -3.93541 20
    endloop
  endfacet
  facet normal 0 0 1
    outer loop
      vertex -5 2.5 20
      vertex -6 2.5 20
      vertex -5 -2.5 20
    endloop
  endfacet
  facet normal -0 0 1
    outer loop
      vertex -5.82288 3.20709 20
      vertex -4.94095 2.73569 20
      vertex -5.74719 3.33334 20
    endloop
  endfacet
  facet normal 0 0 1
    outer loop
      vertex -6 -2.5 20
      vertex -5 -2.5 20
      vertex -6 2.5 20
    endloop
  endfacet
  facet normal 0 0 1
    outer loop
      vertex -4.94095 2.73569 20
      vertex -5.82288 3.20709 20
      vertex -4.96193 2.69133 20
    endloop
  endfacet
  facet normal 0 -0 1
    outer loop
      vertex -5.99277 -2.64702 20
      vertex -5 -2.5 20
      vertex -6 -2.5 20
    endloop
  endfacet
  facet normal -0 0 1
    outer loop
      vertex -5.88582 3.07402 20
      vertex -4.96193 2.69133 20
      vertex -5.82288 3.20709 20
    endloop
  endfacet
  facet normal 0 0 1
    outer loop
      vertex -4.73569 -2.94095 20
      vertex -5.20709 -3.82288 20
      vertex -5.07402 -3.88582 20
    endloop
  endfacet
  facet normal 0 0 1
    outer loop
      vertex -4.96193 2.69133 20
      vertex -5.88582 3.07402 20
      vertex -4.97847 2.64514 20
    endloop
  endfacet
  facet normal 0 0 1
    outer loop
      vertex -4.77777 -2.91573 20
      vertex -5.33334 -3.74719 20
      vertex -5.20709 -3.82288 20
    endloop
  endfacet
  facet normal -0 0 1
    outer loop
      vertex -5.93541 2.93542 20
      vertex -4.97847 2.64514 20
      vertex -5.88582 3.07402 20
    endloop
  endfacet
  facet normal 0 0 1
    outer loop
      vertex -4.81718 -2.88651 20
      vertex -5.45158 -3.65952 20
      vertex -5.33334 -3.74719 20
    endloop
  endfacet
  facet normal 0 0 1
    outer loop
      vertex -4.97847 2.64514 20
      vertex -5.93541 2.93542 20
      vertex -4.99039 2.59753 20
    endloop
  endfacet
  facet normal 0 0 1
    outer loop
      vertex -4.85355 -2.85355 20
      vertex -5.56065 -3.56065 20
      vertex -5.45158 -3.65952 20
    endloop
  endfacet
  facet normal -0 0 1
    outer loop
      vertex -5.97118 2.79263 20
      vertex -4.99039 2.59753 20
      vertex -5.93541 2.93542 20
    endloop
  endfacet
  facet normal 0 0 1
    outer loop
      vertex -4.88651 -2.81718 20
      vertex -5.65952 -3.45158 20
      vertex -5.56065 -3.56065 20
    endloop
  endfacet
  facet normal 0 0 1
    outer loop
      vertex -4.99039 2.59753 20
      vertex -5.97118 2.79263 20
      vertex -4.99759 2.549 20
    endloop
  endfacet
  facet normal 0 0 1
    outer loop
      vertex -4.91573 -2.77777 20
      vertex -5.74719 -3.33334 20
      vertex -5.65952 -3.45158 20
    endloop
  endfacet
  facet normal -0 0 1
    outer loop
      vertex -5.99277 2.64702 20
      vertex -4.99759 2.549 20
      vertex -5.97118 2.79263 20
    endloop
  endfacet
  facet normal 0 0 1
    outer loop
      vertex -4.94095 -2.73569 20
      vertex -5.82288 -3.20709 20
      vertex -5.74719 -3.33334 20
    endloop
  endfacet
  facet normal 0 0 1
    outer loop
      vertex -4.99759 2.549 20
      vertex -5.99277 2.64702 20
      vertex -5 2.5 20
    endloop
  endfacet
  facet normal 0 0 1
    outer loop
      vertex -4.96193 -2.69133 20
      vertex -5.88582 -3.07402 20
      vertex -5.82288 -3.20709 20
    endloop
  endfacet
  facet normal 0 0 1
    outer loop
      vertex -5 2.5 20
      vertex -5.99277 2.64702 20
      vertex -6 2.5 20
    endloop
  endfacet
  facet normal 0 0 1
    outer loop
      vertex -4.97847 -2.64514 20
      vertex -5.93541 -2.93542 20
      vertex -5.88582 -3.07402 20
    endloop
  endfacet
  facet normal 0 0 1
    outer loop
      vertex -4.99039 -2.59753 20
      vertex -5.97118 -2.79263 20
      vertex -5.93541 -2.93542 20
    endloop
  endfacet
  facet normal 0 0 1
    outer loop
      vertex -4.99759 -2.549 20
      vertex -5.99277 -2.64702 20
      vertex -5.97118 -2.79263 20
    endloop
  endfacet
  facet normal -0.857673 0.514196 0
    outer loop
      vertex -5.82288 3.20709 -20
      vertex -5.74719 3.33334 20
      vertex -5.74719 3.33334 -20
    endloop
  endfacet
  facet normal -0.857673 0.514196 0
    outer loop
      vertex -5.74719 3.33334 20
      vertex -5.82288 3.20709 -20
      vertex -5.82288 3.20709 20
    endloop
  endfacet
  facet normal 0.514196 -0.857673 0
    outer loop
      vertex 5.20709 -3.82288 -20
      vertex 5.33334 -3.74719 20
      vertex 5.20709 -3.82288 20
    endloop
  endfacet
  facet normal 0.514196 -0.857673 0
    outer loop
      vertex 5.33334 -3.74719 20
      vertex 5.20709 -3.82288 -20
      vertex 5.33334 -3.74719 -20
    endloop
  endfacet
  facet normal -0.427569 -0.903983 0
    outer loop
      vertex -5.20709 -3.82288 -20
      vertex -5.07402 -3.88582 20
      vertex -5.20709 -3.82288 20
    endloop
  endfacet
  facet normal -0.427569 -0.903983 -0
    outer loop
      vertex -5.07402 -3.88582 20
      vertex -5.20709 -3.82288 -20
      vertex -5.07402 -3.88582 -20
    endloop
  endfacet
  facet normal -0.5956 -0.803282 0
    outer loop
      vertex -5.45158 -3.65952 -20
      vertex -5.33334 -3.74719 20
      vertex -5.45158 -3.65952 20
    endloop
  endfacet
  facet normal -0.5956 -0.803282 -0
    outer loop
      vertex -5.33334 -3.74719 20
      vertex -5.45158 -3.65952 -20
      vertex -5.33334 -3.74719 -20
    endloop
  endfacet
  facet normal -0.146669 -0.989186 0
    outer loop
      vertex -4.79263 -3.97118 -20
      vertex -4.64702 -3.99277 20
      vertex -4.79263 -3.97118 20
    endloop
  endfacet
  facet normal -0.146669 -0.989186 -0
    outer loop
      vertex -4.64702 -3.99277 20
      vertex -4.79263 -3.97118 -20
      vertex -4.64702 -3.99277 -20
    endloop
  endfacet
  facet normal 0.242999 0.970027 -0
    outer loop
      vertex 4.93542 3.93541 -20
      vertex 4.79263 3.97118 20
      vertex 4.93542 3.93541 20
    endloop
  endfacet
  facet normal 0.242999 0.970027 0
    outer loop
      vertex 4.79263 3.97118 20
      vertex 4.93542 3.93541 -20
      vertex 4.79263 3.97118 -20
    endloop
  endfacet
  facet normal 0.242999 -0.970027 0
    outer loop
      vertex 4.79263 -3.97118 -20
      vertex 4.93542 -3.93541 20
      vertex 4.79263 -3.97118 20
    endloop
  endfacet
  facet normal 0.242999 -0.970027 0
    outer loop
      vertex 4.93542 -3.93541 20
      vertex 4.79263 -3.97118 -20
      vertex 4.93542 -3.93541 -20
    endloop
  endfacet
  facet normal 0.803282 -0.5956 0
    outer loop
      vertex 5.65952 -3.45158 20
      vertex 5.74719 -3.33334 -20
      vertex 5.74719 -3.33334 20
    endloop
  endfacet
  facet normal 0.803282 -0.5956 0
    outer loop
      vertex 5.74719 -3.33334 -20
      vertex 5.65952 -3.45158 20
      vertex 5.65952 -3.45158 -20
    endloop
  endfacet
  facet normal -0.336879 0.941548 0
    outer loop
      vertex -4.93542 3.93541 -20
      vertex -5.07402 3.88582 20
      vertex -4.93542 3.93541 20
    endloop
  endfacet
  facet normal -0.336879 0.941548 0
    outer loop
      vertex -5.07402 3.88582 20
      vertex -4.93542 3.93541 -20
      vertex -5.07402 3.88582 -20
    endloop
  endfacet
  facet normal 0.5956 -0.803282 0
    outer loop
      vertex 5.33334 -3.74719 -20
      vertex 5.45158 -3.65952 20
      vertex 5.33334 -3.74719 20
    endloop
  endfacet
  facet normal 0.5956 -0.803282 0
    outer loop
      vertex 5.45158 -3.65952 20
      vertex 5.33334 -3.74719 -20
      vertex 5.45158 -3.65952 -20
    endloop
  endfacet
  facet normal 0 0 -1
    outer loop
      vertex 5 -2.5 -20
      vertex 6 -2.5 -20
      vertex 5.99277 -2.64702 -20
    endloop
  endfacet
  facet normal 0 0 -1
    outer loop
      vertex 6 -2.5 -20
      vertex 5 -2.5 -20
      vertex 6 2.5 -20
    endloop
  endfacet
  facet normal 0 0 -1
    outer loop
      vertex 4.99759 -2.549 -20
      vertex 5.99277 -2.64702 -20
      vertex 5.97118 -2.79263 -20
    endloop
  endfacet
  facet normal 0 0 -1
    outer loop
      vertex 5 2.5 -20
      vertex 6 2.5 -20
      vertex 5 -2.5 -20
    endloop
  endfacet
  facet normal 0 0 -1
    outer loop
      vertex 4.99039 -2.59753 -20
      vertex 5.97118 -2.79263 -20
      vertex 5.93541 -2.93542 -20
    endloop
  endfacet
  facet normal 0 0 -1
    outer loop
      vertex 6 2.5 -20
      vertex 5 2.5 -20
      vertex 5.99277 2.64702 -20
    endloop
  endfacet
  facet normal 0 0 -1
    outer loop
      vertex 4.97847 -2.64514 -20
      vertex 5.93541 -2.93542 -20
      vertex 5.88582 -3.07402 -20
    endloop
  endfacet
  facet normal 0 0 -1
    outer loop
      vertex 4.99759 2.549 -20
      vertex 5.99277 2.64702 -20
      vertex 5 2.5 -20
    endloop
  endfacet
  facet normal 0 0 -1
    outer loop
      vertex 4.96193 -2.69133 -20
      vertex 5.88582 -3.07402 -20
      vertex 5.82288 -3.20709 -20
    endloop
  endfacet
  facet normal -0 0 -1
    outer loop
      vertex 5.99277 2.64702 -20
      vertex 4.99759 2.549 -20
      vertex 5.97118 2.79263 -20
    endloop
  endfacet
  facet normal 0 0 -1
    outer loop
      vertex 4.94095 -2.73569 -20
      vertex 5.82288 -3.20709 -20
      vertex 5.74719 -3.33334 -20
    endloop
  endfacet
  facet normal 0 0 -1
    outer loop
      vertex 4.99039 2.59753 -20
      vertex 5.97118 2.79263 -20
      vertex 4.99759 2.549 -20
    endloop
  endfacet
  facet normal 0 0 -1
    outer loop
      vertex 4.91573 -2.77777 -20
      vertex 5.74719 -3.33334 -20
      vertex 5.65952 -3.45158 -20
    endloop
  endfacet
  facet normal -0 0 -1
    outer loop
      vertex 5.97118 2.79263 -20
      vertex 4.99039 2.59753 -20
      vertex 5.93541 2.93542 -20
    endloop
  endfacet
  facet normal 0 0 -1
    outer loop
      vertex 4.88651 -2.81718 -20
      vertex 5.65952 -3.45158 -20
      vertex 5.56065 -3.56065 -20
    endloop
  endfacet
  facet normal 0 0 -1
    outer loop
      vertex 4.97847 2.64514 -20
      vertex 5.93541 2.93542 -20
      vertex 4.99039 2.59753 -20
    endloop
  endfacet
  facet normal 0 0 -1
    outer loop
      vertex 4.85355 -2.85355 -20
      vertex 5.56065 -3.56065 -20
      vertex 5.45158 -3.65952 -20
    endloop
  endfacet
  facet normal -0 0 -1
    outer loop
      vertex 5.93541 2.93542 -20
      vertex 4.97847 2.64514 -20
      vertex 5.88582 3.07402 -20
    endloop
  endfacet
  facet normal 0 0 -1
    outer loop
      vertex 4.81718 -2.88651 -20
      vertex 5.45158 -3.65952 -20
      vertex 5.33334 -3.74719 -20
    endloop
  endfacet
  facet normal 0 0 -1
    outer loop
      vertex 4.96193 2.69133 -20
      vertex 5.88582 3.07402 -20
      vertex 4.97847 2.64514 -20
    endloop
  endfacet
  facet normal 0 0 -1
    outer loop
      vertex 4.77777 -2.91573 -20
      vertex 5.33334 -3.74719 -20
      vertex 5.20709 -3.82288 -20
    endloop
  endfacet
  facet normal -0 0 -1
    outer loop
      vertex 5.88582 3.07402 -20
      vertex 4.96193 2.69133 -20
      vertex 5.82288 3.20709 -20
    endloop
  endfacet
  facet normal 0 0 -1
    outer loop
      vertex 4.73569 -2.94095 -20
      vertex 5.20709 -3.82288 -20
      vertex 5.07402 -3.88582 -20
    endloop
  endfacet
  facet normal 0 0 -1
    outer loop
      vertex 4.94095 2.73569 -20
      vertex 5.82288 3.20709 -20
      vertex 4.96193 2.69133 -20
    endloop
  endfacet
  facet normal -0 0 -1
    outer loop
      vertex 5.82288 3.20709 -20
      vertex 4.94095 2.73569 -20
      vertex 5.74719 3.33334 -20
    endloop
  endfacet
  facet normal 0 0 -1
    outer loop
      vertex 5.99277 -2.64702 -20
      vertex 4.99759 -2.549 -20
      vertex 5 -2.5 -20
    endloop
  endfacet
  facet normal 0 0 -1
    outer loop
      vertex 5.97118 -2.79263 -20
      vertex 4.99039 -2.59753 -20
      vertex 4.99759 -2.549 -20
    endloop
  endfacet
  facet normal 0 0 -1
    outer loop
      vertex 5.93541 -2.93542 -20
      vertex 4.97847 -2.64514 -20
      vertex 4.99039 -2.59753 -20
    endloop
  endfacet
  facet normal 0 0 -1
    outer loop
      vertex 5.88582 -3.07402 -20
      vertex 4.96193 -2.69133 -20
      vertex 4.97847 -2.64514 -20
    endloop
  endfacet
  facet normal 0 0 -1
    outer loop
      vertex 5.82288 -3.20709 -20
      vertex 4.94095 -2.73569 -20
      vertex 4.96193 -2.69133 -20
    endloop
  endfacet
  facet normal 0 0 -1
    outer loop
      vertex 4.69133 -2.96193 -20
      vertex 5.07402 -3.88582 -20
      vertex 4.93542 -3.93541 -20
    endloop
  endfacet
  facet normal 0 0 -1
    outer loop
      vertex 5.74719 -3.33334 -20
      vertex 4.91573 -2.77777 -20
      vertex 4.94095 -2.73569 -20
    endloop
  endfacet
  facet normal 0 0 -1
    outer loop
      vertex 5.65952 -3.45158 -20
      vertex 4.88651 -2.81718 -20
      vertex 4.91573 -2.77777 -20
    endloop
  endfacet
  facet normal 0 0 -1
    outer loop
      vertex 5.56065 -3.56065 -20
      vertex 4.85355 -2.85355 -20
      vertex 4.88651 -2.81718 -20
    endloop
  endfacet
  facet normal 0 0 -1
    outer loop
      vertex 5.45158 -3.65952 -20
      vertex 4.81718 -2.88651 -20
      vertex 4.85355 -2.85355 -20
    endloop
  endfacet
  facet normal 0 0 -1
    outer loop
      vertex 4.64514 -2.97847 -20
      vertex 4.93542 -3.93541 -20
      vertex 4.79263 -3.97118 -20
    endloop
  endfacet
  facet normal 0 0 -1
    outer loop
      vertex 5.33334 -3.74719 -20
      vertex 4.77777 -2.91573 -20
      vertex 4.81718 -2.88651 -20
    endloop
  endfacet
  facet normal 0 0 -1
    outer loop
      vertex 5.20709 -3.82288 -20
      vertex 4.73569 -2.94095 -20
      vertex 4.77777 -2.91573 -20
    endloop
  endfacet
  facet normal 0 0 -1
    outer loop
      vertex 5.07402 -3.88582 -20
      vertex 4.69133 -2.96193 -20
      vertex 4.73569 -2.94095 -20
    endloop
  endfacet
  facet normal 0 0 -1
    outer loop
      vertex 4.59753 -2.99039 -20
      vertex 4.79263 -3.97118 -20
      vertex 4.64702 -3.99277 -20
    endloop
  endfacet
  facet normal 0 0 -1
    outer loop
      vertex 4.93542 -3.93541 -20
      vertex 4.64514 -2.97847 -20
      vertex 4.69133 -2.96193 -20
    endloop
  endfacet
  facet normal 0 0 -1
    outer loop
      vertex 4.79263 -3.97118 -20
      vertex 4.59753 -2.99039 -20
      vertex 4.64514 -2.97847 -20
    endloop
  endfacet
  facet normal 0 0 -1
    outer loop
      vertex 4.64702 -3.99277 -20
      vertex 4.549 -2.99759 -20
      vertex 4.59753 -2.99039 -20
    endloop
  endfacet
  facet normal 0 0 -1
    outer loop
      vertex 4.5 -4 -20
      vertex 4.549 -2.99759 -20
      vertex 4.64702 -3.99277 -20
    endloop
  endfacet
  facet normal 0 0 -1
    outer loop
      vertex 4.5 -4 -20
      vertex 4.5 -3 -20
      vertex 4.549 -2.99759 -20
    endloop
  endfacet
  facet normal 0 0 -1
    outer loop
      vertex -4.5 -4 -20
      vertex 4.5 -3 -20
      vertex 4.5 -4 -20
    endloop
  endfacet
  facet normal 0 0 -1
    outer loop
      vertex -4.5 -4 -20
      vertex -4.5 -3 -20
      vertex 4.5 -3 -20
    endloop
  endfacet
  facet normal 0 0 -1
    outer loop
      vertex -4.5 -4 -20
      vertex -4.549 -2.99759 -20
      vertex -4.5 -3 -20
    endloop
  endfacet
  facet normal 0 0 -1
    outer loop
      vertex -4.64702 -3.99277 -20
      vertex -4.549 -2.99759 -20
      vertex -4.5 -4 -20
    endloop
  endfacet
  facet normal -0 0 -1
    outer loop
      vertex -4.549 -2.99759 -20
      vertex -4.64702 -3.99277 -20
      vertex -4.59753 -2.99039 -20
    endloop
  endfacet
  facet normal 0 0 -1
    outer loop
      vertex -4.79263 -3.97118 -20
      vertex -4.59753 -2.99039 -20
      vertex -4.64702 -3.99277 -20
    endloop
  endfacet
  facet normal -0 0 -1
    outer loop
      vertex -4.59753 -2.99039 -20
      vertex -4.79263 -3.97118 -20
      vertex -4.64514 -2.97847 -20
    endloop
  endfacet
  facet normal 0 0 -1
    outer loop
      vertex -4.93542 -3.93541 -20
      vertex -4.64514 -2.97847 -20
      vertex -4.79263 -3.97118 -20
    endloop
  endfacet
  facet normal -0 0 -1
    outer loop
      vertex -4.64514 -2.97847 -20
      vertex -4.93542 -3.93541 -20
      vertex -4.69133 -2.96193 -20
    endloop
  endfacet
  facet normal 0 0 -1
    outer loop
      vertex -5.07402 -3.88582 -20
      vertex -4.69133 -2.96193 -20
      vertex -4.93542 -3.93541 -20
    endloop
  endfacet
  facet normal -0 0 -1
    outer loop
      vertex -4.69133 -2.96193 -20
      vertex -5.07402 -3.88582 -20
      vertex -4.73569 -2.94095 -20
    endloop
  endfacet
  facet normal 0 0 -1
    outer loop
      vertex -5.20709 -3.82288 -20
      vertex -4.73569 -2.94095 -20
      vertex -5.07402 -3.88582 -20
    endloop
  endfacet
  facet normal -0 0 -1
    outer loop
      vertex -4.73569 -2.94095 -20
      vertex -5.20709 -3.82288 -20
      vertex -4.77777 -2.91573 -20
    endloop
  endfacet
  facet normal 0 0 -1
    outer loop
      vertex -5.33334 -3.74719 -20
      vertex -4.77777 -2.91573 -20
      vertex -5.20709 -3.82288 -20
    endloop
  endfacet
  facet normal -0 0 -1
    outer loop
      vertex -4.77777 -2.91573 -20
      vertex -5.33334 -3.74719 -20
      vertex -4.81718 -2.88651 -20
    endloop
  endfacet
  facet normal 0 0 -1
    outer loop
      vertex -5.45158 -3.65952 -20
      vertex -4.81718 -2.88651 -20
      vertex -5.33334 -3.74719 -20
    endloop
  endfacet
  facet normal -0 0 -1
    outer loop
      vertex -4.81718 -2.88651 -20
      vertex -5.45158 -3.65952 -20
      vertex -4.85355 -2.85355 -20
    endloop
  endfacet
  facet normal 0 0 -1
    outer loop
      vertex -5.56065 -3.56065 -20
      vertex -4.85355 -2.85355 -20
      vertex -5.45158 -3.65952 -20
    endloop
  endfacet
  facet normal -0 0 -1
    outer loop
      vertex -4.85355 -2.85355 -20
      vertex -5.56065 -3.56065 -20
      vertex -4.88651 -2.81718 -20
    endloop
  endfacet
  facet normal 0 0 -1
    outer loop
      vertex -5.65952 -3.45158 -20
      vertex -4.88651 -2.81718 -20
      vertex -5.56065 -3.56065 -20
    endloop
  endfacet
  facet normal -0 0 -1
    outer loop
      vertex -4.88651 -2.81718 -20
      vertex -5.65952 -3.45158 -20
      vertex -4.91573 -2.77777 -20
    endloop
  endfacet
  facet normal -0 0 -1
    outer loop
      vertex -4.91573 -2.77777 -20
      vertex -5.74719 -3.33334 -20
      vertex -4.94095 -2.73569 -20
    endloop
  endfacet
  facet normal 0 0 -1
    outer loop
      vertex -5.74719 -3.33334 -20
      vertex -4.91573 -2.77777 -20
      vertex -5.65952 -3.45158 -20
    endloop
  endfacet
  facet normal 0 0 -1
    outer loop
      vertex 4.91573 2.77777 -20
      vertex 5.74719 3.33334 -20
      vertex 4.94095 2.73569 -20
    endloop
  endfacet
  facet normal -0 0 -1
    outer loop
      vertex 5.74719 3.33334 -20
      vertex 4.91573 2.77777 -20
      vertex 5.65952 3.45158 -20
    endloop
  endfacet
  facet normal 0 0 -1
    outer loop
      vertex 4.88651 2.81718 -20
      vertex 5.65952 3.45158 -20
      vertex 4.91573 2.77777 -20
    endloop
  endfacet
  facet normal -0 0 -1
    outer loop
      vertex 5.65952 3.45158 -20
      vertex 4.88651 2.81718 -20
      vertex 5.56065 3.56065 -20
    endloop
  endfacet
  facet normal 0 0 -1
    outer loop
      vertex 4.85355 2.85355 -20
      vertex 5.56065 3.56065 -20
      vertex 4.88651 2.81718 -20
    endloop
  endfacet
  facet normal -0 0 -1
    outer loop
      vertex 5.56065 3.56065 -20
      vertex 4.85355 2.85355 -20
      vertex 5.45158 3.65952 -20
    endloop
  endfacet
  facet normal 0 0 -1
    outer loop
      vertex 4.81718 2.88651 -20
      vertex 5.45158 3.65952 -20
      vertex 4.85355 2.85355 -20
    endloop
  endfacet
  facet normal -0 0 -1
    outer loop
      vertex 5.45158 3.65952 -20
      vertex 4.81718 2.88651 -20
      vertex 5.33334 3.74719 -20
    endloop
  endfacet
  facet normal 0 0 -1
    outer loop
      vertex 4.77777 2.91573 -20
      vertex 5.33334 3.74719 -20
      vertex 4.81718 2.88651 -20
    endloop
  endfacet
  facet normal -0 0 -1
    outer loop
      vertex 5.33334 3.74719 -20
      vertex 4.77777 2.91573 -20
      vertex 5.20709 3.82288 -20
    endloop
  endfacet
  facet normal 0 0 -1
    outer loop
      vertex 4.73569 2.94095 -20
      vertex 5.20709 3.82288 -20
      vertex 4.77777 2.91573 -20
    endloop
  endfacet
  facet normal -0 0 -1
    outer loop
      vertex 5.20709 3.82288 -20
      vertex 4.73569 2.94095 -20
      vertex 5.07402 3.88582 -20
    endloop
  endfacet
  facet normal 0 0 -1
    outer loop
      vertex 4.69133 2.96193 -20
      vertex 5.07402 3.88582 -20
      vertex 4.73569 2.94095 -20
    endloop
  endfacet
  facet normal -0 0 -1
    outer loop
      vertex 5.07402 3.88582 -20
      vertex 4.69133 2.96193 -20
      vertex 4.93542 3.93541 -20
    endloop
  endfacet
  facet normal 0 0 -1
    outer loop
      vertex 4.64514 2.97847 -20
      vertex 4.93542 3.93541 -20
      vertex 4.69133 2.96193 -20
    endloop
  endfacet
  facet normal -0 0 -1
    outer loop
      vertex 4.93542 3.93541 -20
      vertex 4.64514 2.97847 -20
      vertex 4.79263 3.97118 -20
    endloop
  endfacet
  facet normal 0 0 -1
    outer loop
      vertex 4.59753 2.99039 -20
      vertex 4.79263 3.97118 -20
      vertex 4.64514 2.97847 -20
    endloop
  endfacet
  facet normal -0 0 -1
    outer loop
      vertex 4.79263 3.97118 -20
      vertex 4.59753 2.99039 -20
      vertex 4.64702 3.99277 -20
    endloop
  endfacet
  facet normal 0 0 -1
    outer loop
      vertex 4.549 2.99759 -20
      vertex 4.64702 3.99277 -20
      vertex 4.59753 2.99039 -20
    endloop
  endfacet
  facet normal 0 0 -1
    outer loop
      vertex 4.5 3 -20
      vertex 4.64702 3.99277 -20
      vertex 4.549 2.99759 -20
    endloop
  endfacet
  facet normal 0 0 -1
    outer loop
      vertex 4.5 3 -20
      vertex 4.5 4 -20
      vertex 4.64702 3.99277 -20
    endloop
  endfacet
  facet normal 0 0 -1
    outer loop
      vertex -4.5 3 -20
      vertex 4.5 4 -20
      vertex 4.5 3 -20
    endloop
  endfacet
  facet normal 0 0 -1
    outer loop
      vertex -4.5 3 -20
      vertex -4.5 4 -20
      vertex 4.5 4 -20
    endloop
  endfacet
  facet normal 0 0 -1
    outer loop
      vertex -4.549 2.99759 -20
      vertex -4.5 4 -20
      vertex -4.5 3 -20
    endloop
  endfacet
  facet normal 0 0 -1
    outer loop
      vertex -4.64702 3.99277 -20
      vertex -4.549 2.99759 -20
      vertex -4.59753 2.99039 -20
    endloop
  endfacet
  facet normal 0 0 -1
    outer loop
      vertex -4.79263 3.97118 -20
      vertex -4.59753 2.99039 -20
      vertex -4.64514 2.97847 -20
    endloop
  endfacet
  facet normal 0 0 -1
    outer loop
      vertex -4.549 2.99759 -20
      vertex -4.64702 3.99277 -20
      vertex -4.5 4 -20
    endloop
  endfacet
  facet normal 0 0 -1
    outer loop
      vertex -4.93542 3.93541 -20
      vertex -4.64514 2.97847 -20
      vertex -4.69133 2.96193 -20
    endloop
  endfacet
  facet normal 0 0 -1
    outer loop
      vertex -5.07402 3.88582 -20
      vertex -4.69133 2.96193 -20
      vertex -4.73569 2.94095 -20
    endloop
  endfacet
  facet normal 0 0 -1
    outer loop
      vertex -5.20709 3.82288 -20
      vertex -4.73569 2.94095 -20
      vertex -4.77777 2.91573 -20
    endloop
  endfacet
  facet normal 0 0 -1
    outer loop
      vertex -4.59753 2.99039 -20
      vertex -4.79263 3.97118 -20
      vertex -4.64702 3.99277 -20
    endloop
  endfacet
  facet normal 0 0 -1
    outer loop
      vertex -5.33334 3.74719 -20
      vertex -4.77777 2.91573 -20
      vertex -4.81718 2.88651 -20
    endloop
  endfacet
  facet normal 0 0 -1
    outer loop
      vertex -5.45158 3.65952 -20
      vertex -4.81718 2.88651 -20
      vertex -4.85355 2.85355 -20
    endloop
  endfacet
  facet normal 0 0 -1
    outer loop
      vertex -5.56065 3.56065 -20
      vertex -4.85355 2.85355 -20
      vertex -4.88651 2.81718 -20
    endloop
  endfacet
  facet normal 0 0 -1
    outer loop
      vertex -5.65952 3.45158 -20
      vertex -4.88651 2.81718 -20
      vertex -4.91573 2.77777 -20
    endloop
  endfacet
  facet normal 0 0 -1
    outer loop
      vertex -4.64514 2.97847 -20
      vertex -4.93542 3.93541 -20
      vertex -4.79263 3.97118 -20
    endloop
  endfacet
  facet normal 0 0 -1
    outer loop
      vertex -5.74719 3.33334 -20
      vertex -4.91573 2.77777 -20
      vertex -4.94095 2.73569 -20
    endloop
  endfacet
  facet normal 0 0 -1
    outer loop
      vertex -5.82288 3.20709 -20
      vertex -4.94095 2.73569 -20
      vertex -4.96193 2.69133 -20
    endloop
  endfacet
  facet normal 0 0 -1
    outer loop
      vertex -5.88582 3.07402 -20
      vertex -4.96193 2.69133 -20
      vertex -4.97847 2.64514 -20
    endloop
  endfacet
  facet normal 0 0 -1
    outer loop
      vertex -5.93541 2.93542 -20
      vertex -4.97847 2.64514 -20
      vertex -4.99039 2.59753 -20
    endloop
  endfacet
  facet normal 0 0 -1
    outer loop
      vertex -5.97118 2.79263 -20
      vertex -4.99039 2.59753 -20
      vertex -4.99759 2.549 -20
    endloop
  endfacet
  facet normal 0 0 -1
    outer loop
      vertex -5.99277 2.64702 -20
      vertex -4.99759 2.549 -20
      vertex -5 2.5 -20
    endloop
  endfacet
  facet normal 0 0 -1
    outer loop
      vertex -4.69133 2.96193 -20
      vertex -5.07402 3.88582 -20
      vertex -4.93542 3.93541 -20
    endloop
  endfacet
  facet normal 0 0 -1
    outer loop
      vertex -5 -2.5 -20
      vertex -6 -2.5 -20
      vertex -5 2.5 -20
    endloop
  endfacet
  facet normal 0 0 -1
    outer loop
      vertex -5.82288 -3.20709 -20
      vertex -4.94095 -2.73569 -20
      vertex -5.74719 -3.33334 -20
    endloop
  endfacet
  facet normal 0 0 -1
    outer loop
      vertex -6 2.5 -20
      vertex -5 2.5 -20
      vertex -6 -2.5 -20
    endloop
  endfacet
  facet normal -0 0 -1
    outer loop
      vertex -4.94095 -2.73569 -20
      vertex -5.82288 -3.20709 -20
      vertex -4.96193 -2.69133 -20
    endloop
  endfacet
  facet normal 0 -0 -1
    outer loop
      vertex -5.99277 2.64702 -20
      vertex -5 2.5 -20
      vertex -6 2.5 -20
    endloop
  endfacet
  facet normal 0 0 -1
    outer loop
      vertex -5.88582 -3.07402 -20
      vertex -4.96193 -2.69133 -20
      vertex -5.82288 -3.20709 -20
    endloop
  endfacet
  facet normal 0 0 -1
    outer loop
      vertex -4.73569 2.94095 -20
      vertex -5.20709 3.82288 -20
      vertex -5.07402 3.88582 -20
    endloop
  endfacet
  facet normal -0 0 -1
    outer loop
      vertex -4.96193 -2.69133 -20
      vertex -5.88582 -3.07402 -20
      vertex -4.97847 -2.64514 -20
    endloop
  endfacet
  facet normal 0 0 -1
    outer loop
      vertex -4.77777 2.91573 -20
      vertex -5.33334 3.74719 -20
      vertex -5.20709 3.82288 -20
    endloop
  endfacet
  facet normal 0 0 -1
    outer loop
      vertex -5.93541 -2.93542 -20
      vertex -4.97847 -2.64514 -20
      vertex -5.88582 -3.07402 -20
    endloop
  endfacet
  facet normal 0 0 -1
    outer loop
      vertex -4.81718 2.88651 -20
      vertex -5.45158 3.65952 -20
      vertex -5.33334 3.74719 -20
    endloop
  endfacet
  facet normal -0 0 -1
    outer loop
      vertex -4.97847 -2.64514 -20
      vertex -5.93541 -2.93542 -20
      vertex -4.99039 -2.59753 -20
    endloop
  endfacet
  facet normal 0 0 -1
    outer loop
      vertex -4.85355 2.85355 -20
      vertex -5.56065 3.56065 -20
      vertex -5.45158 3.65952 -20
    endloop
  endfacet
  facet normal 0 0 -1
    outer loop
      vertex -5.97118 -2.79263 -20
      vertex -4.99039 -2.59753 -20
      vertex -5.93541 -2.93542 -20
    endloop
  endfacet
  facet normal 0 0 -1
    outer loop
      vertex -4.88651 2.81718 -20
      vertex -5.65952 3.45158 -20
      vertex -5.56065 3.56065 -20
    endloop
  endfacet
  facet normal -0 0 -1
    outer loop
      vertex -4.99039 -2.59753 -20
      vertex -5.97118 -2.79263 -20
      vertex -4.99759 -2.549 -20
    endloop
  endfacet
  facet normal 0 0 -1
    outer loop
      vertex -4.91573 2.77777 -20
      vertex -5.74719 3.33334 -20
      vertex -5.65952 3.45158 -20
    endloop
  endfacet
  facet normal 0 0 -1
    outer loop
      vertex -5.99277 -2.64702 -20
      vertex -4.99759 -2.549 -20
      vertex -5.97118 -2.79263 -20
    endloop
  endfacet
  facet normal 0 0 -1
    outer loop
      vertex -4.94095 2.73569 -20
      vertex -5.82288 3.20709 -20
      vertex -5.74719 3.33334 -20
    endloop
  endfacet
  facet normal -0 0 -1
    outer loop
      vertex -4.99759 -2.549 -20
      vertex -5.99277 -2.64702 -20
      vertex -5 -2.5 -20
    endloop
  endfacet
  facet normal 0 0 -1
    outer loop
      vertex -4.96193 2.69133 -20
      vertex -5.88582 3.07402 -20
      vertex -5.82288 3.20709 -20
    endloop
  endfacet
  facet normal -0 0 -1
    outer loop
      vertex -5 -2.5 -20
      vertex -5.99277 -2.64702 -20
      vertex -6 -2.5 -20
    endloop
  endfacet
  facet normal 0 0 -1
    outer loop
      vertex -4.97847 2.64514 -20
      vertex -5.93541 2.93542 -20
      vertex -5.88582 3.07402 -20
    endloop
  endfacet
  facet normal 0 0 -1
    outer loop
      vertex -4.99039 2.59753 -20
      vertex -5.97118 2.79263 -20
      vertex -5.93541 2.93542 -20
    endloop
  endfacet
  facet normal 0 0 -1
    outer loop
      vertex -4.99759 2.549 -20
      vertex -5.99277 2.64702 -20
      vertex -5.97118 2.79263 -20
    endloop
  endfacet
  facet normal -0.336879 -0.941548 0
    outer loop
      vertex -5.07402 -3.88582 -20
      vertex -4.93542 -3.93541 20
      vertex -5.07402 -3.88582 20
    endloop
  endfacet
  facet normal -0.336879 -0.941548 -0
    outer loop
      vertex -4.93542 -3.93541 20
      vertex -5.07402 -3.88582 -20
      vertex -4.93542 -3.93541 -20
    endloop
  endfacet
  facet normal -0.514196 -0.857673 0
    outer loop
      vertex -5.33334 -3.74719 -20
      vertex -5.20709 -3.82288 20
      vertex -5.33334 -3.74719 20
    endloop
  endfacet
  facet normal -0.514196 -0.857673 -0
    outer loop
      vertex -5.20709 -3.82288 20
      vertex -5.33334 -3.74719 -20
      vertex -5.20709 -3.82288 -20
    endloop
  endfacet
  facet normal 0.970027 -0.242999 0
    outer loop
      vertex 5.93541 -2.93542 20
      vertex 5.97118 -2.79263 -20
      vertex 5.97118 -2.79263 20
    endloop
  endfacet
  facet normal 0.970027 -0.242999 0
    outer loop
      vertex 5.97118 -2.79263 -20
      vertex 5.93541 -2.93542 20
      vertex 5.93541 -2.93542 -20
    endloop
  endfacet
  facet normal -0.242999 0.970027 0
    outer loop
      vertex -4.79263 3.97118 -20
      vertex -4.93542 3.93541 20
      vertex -4.79263 3.97118 20
    endloop
  endfacet
  facet normal -0.242999 0.970027 0
    outer loop
      vertex -4.93542 3.93541 20
      vertex -4.79263 3.97118 -20
      vertex -4.93542 3.93541 -20
    endloop
  endfacet
  facet normal -0.903983 0.427569 0
    outer loop
      vertex -5.88582 3.07402 -20
      vertex -5.82288 3.20709 20
      vertex -5.82288 3.20709 -20
    endloop
  endfacet
  facet normal -0.903983 0.427569 0
    outer loop
      vertex -5.82288 3.20709 20
      vertex -5.88582 3.07402 -20
      vertex -5.88582 3.07402 20
    endloop
  endfacet
  facet normal -0.941548 0.336879 0
    outer loop
      vertex -5.93541 2.93542 -20
      vertex -5.88582 3.07402 20
      vertex -5.88582 3.07402 -20
    endloop
  endfacet
  facet normal -0.941548 0.336879 0
    outer loop
      vertex -5.88582 3.07402 20
      vertex -5.93541 2.93542 -20
      vertex -5.93541 2.93542 20
    endloop
  endfacet
  facet normal -0.803282 -0.5956 0
    outer loop
      vertex -5.65952 -3.45158 -20
      vertex -5.74719 -3.33334 20
      vertex -5.74719 -3.33334 -20
    endloop
  endfacet
  facet normal -0.803282 -0.5956 0
    outer loop
      vertex -5.74719 -3.33334 20
      vertex -5.65952 -3.45158 -20
      vertex -5.65952 -3.45158 20
    endloop
  endfacet
  facet normal -0.514196 0.857673 0
    outer loop
      vertex -5.20709 3.82288 -20
      vertex -5.33334 3.74719 20
      vertex -5.20709 3.82288 20
    endloop
  endfacet
  facet normal -0.514196 0.857673 0
    outer loop
      vertex -5.33334 3.74719 20
      vertex -5.20709 3.82288 -20
      vertex -5.33334 3.74719 -20
    endloop
  endfacet
  facet normal -0.740901 0.671614 0
    outer loop
      vertex -5.65952 3.45158 -20
      vertex -5.56065 3.56065 20
      vertex -5.56065 3.56065 -20
    endloop
  endfacet
  facet normal -0.740901 0.671614 0
    outer loop
      vertex -5.56065 3.56065 20
      vertex -5.65952 3.45158 -20
      vertex -5.65952 3.45158 20
    endloop
  endfacet
  facet normal -0.803282 0.5956 0
    outer loop
      vertex -5.74719 3.33334 -20
      vertex -5.65952 3.45158 20
      vertex -5.65952 3.45158 -20
    endloop
  endfacet
  facet normal -0.803282 0.5956 0
    outer loop
      vertex -5.65952 3.45158 20
      vertex -5.74719 3.33334 -20
      vertex -5.74719 3.33334 20
    endloop
  endfacet
  facet normal 0.740901 0.671614 0
    outer loop
      vertex 5.65952 3.45158 20
      vertex 5.56065 3.56065 -20
      vertex 5.56065 3.56065 20
    endloop
  endfacet
  facet normal 0.740901 0.671614 0
    outer loop
      vertex 5.56065 3.56065 -20
      vertex 5.65952 3.45158 20
      vertex 5.65952 3.45158 -20
    endloop
  endfacet
  facet normal -0.740901 -0.671614 0
    outer loop
      vertex -5.56065 -3.56065 -20
      vertex -5.65952 -3.45158 20
      vertex -5.65952 -3.45158 -20
    endloop
  endfacet
  facet normal -0.740901 -0.671614 0
    outer loop
      vertex -5.65952 -3.45158 20
      vertex -5.56065 -3.56065 -20
      vertex -5.56065 -3.56065 20
    endloop
  endfacet
  facet normal 0.740901 -0.671614 0
    outer loop
      vertex 5.56065 -3.56065 20
      vertex 5.65952 -3.45158 -20
      vertex 5.65952 -3.45158 20
    endloop
  endfacet
  facet normal 0.740901 -0.671614 0
    outer loop
      vertex 5.65952 -3.45158 -20
      vertex 5.56065 -3.56065 20
      vertex 5.56065 -3.56065 -20
    endloop
  endfacet
  facet normal 0.671614 -0.740901 0
    outer loop
      vertex 5.45158 -3.65952 -20
      vertex 5.56065 -3.56065 20
      vertex 5.45158 -3.65952 20
    endloop
  endfacet
  facet normal 0.671614 -0.740901 0
    outer loop
      vertex 5.56065 -3.56065 20
      vertex 5.45158 -3.65952 -20
      vertex 5.56065 -3.56065 -20
    endloop
  endfacet
  facet normal -0.242871 -0.970059 0
    outer loop
      vertex 4.59753 2.99039 -20
      vertex 4.64514 2.97847 20
      vertex 4.59753 2.99039 20
    endloop
  endfacet
  facet normal -0.242871 -0.970059 -0
    outer loop
      vertex 4.64514 2.97847 20
      vertex 4.59753 2.99039 -20
      vertex 4.64514 2.97847 -20
    endloop
  endfacet
  facet normal 0.998793 0.0491243 0
    outer loop
      vertex -4.99759 -2.549 20
      vertex -5 -2.5 -20
      vertex -5 -2.5 20
    endloop
  endfacet
  facet normal 0.998793 0.0491243 0
    outer loop
      vertex -5 -2.5 -20
      vertex -4.99759 -2.549 20
      vertex -4.99759 -2.549 -20
    endloop
  endfacet
  facet normal -0.970059 -0.242871 0
    outer loop
      vertex 4.99039 2.59753 -20
      vertex 4.97847 2.64514 20
      vertex 4.97847 2.64514 -20
    endloop
  endfacet
  facet normal -0.970059 -0.242871 0
    outer loop
      vertex 4.97847 2.64514 20
      vertex 4.99039 2.59753 -20
      vertex 4.99039 2.59753 20
    endloop
  endfacet
  facet normal -0.998793 -0.0491243 0
    outer loop
      vertex 5 2.5 -20
      vertex 4.99759 2.549 20
      vertex 4.99759 2.549 -20
    endloop
  endfacet
  facet normal -0.998793 -0.0491243 0
    outer loop
      vertex 4.99759 2.549 20
      vertex 5 2.5 -20
      vertex 5 2.5 20
    endloop
  endfacet
  facet normal 0.94146 0.337124 0
    outer loop
      vertex -4.96193 -2.69133 20
      vertex -4.97847 -2.64514 -20
      vertex -4.97847 -2.64514 20
    endloop
  endfacet
  facet normal 0.94146 0.337124 0
    outer loop
      vertex -4.97847 -2.64514 -20
      vertex -4.96193 -2.69133 20
      vertex -4.96193 -2.69133 -20
    endloop
  endfacet
  facet normal 0.0491243 0.998793 -0
    outer loop
      vertex -4.5 -3 -20
      vertex -4.549 -2.99759 20
      vertex -4.5 -3 20
    endloop
  endfacet
  facet normal 0.0491243 0.998793 0
    outer loop
      vertex -4.549 -2.99759 20
      vertex -4.5 -3 -20
      vertex -4.549 -2.99759 -20
    endloop
  endfacet
  facet normal 0.80329 -0.595588 0
    outer loop
      vertex -4.91573 2.77777 20
      vertex -4.88651 2.81718 -20
      vertex -4.88651 2.81718 20
    endloop
  endfacet
  facet normal 0.80329 -0.595588 0
    outer loop
      vertex -4.88651 2.81718 -20
      vertex -4.91573 2.77777 20
      vertex -4.91573 2.77777 -20
    endloop
  endfacet
  facet normal -0.74099 0.671516 0
    outer loop
      vertex 4.85355 -2.85355 -20
      vertex 4.88651 -2.81718 20
      vertex 4.88651 -2.81718 -20
    endloop
  endfacet
  facet normal -0.74099 0.671516 0
    outer loop
      vertex 4.88651 -2.81718 20
      vertex 4.85355 -2.85355 -20
      vertex 4.85355 -2.85355 20
    endloop
  endfacet
  facet normal -1 0 0
    outer loop
      vertex 5 -2.5 -20
      vertex 5 2.5 20
      vertex 5 2.5 -20
    endloop
  endfacet
  facet normal -1 -0 0
    outer loop
      vertex 5 2.5 20
      vertex 5 -2.5 -20
      vertex 5 -2.5 20
    endloop
  endfacet
  facet normal 0 -1 0
    outer loop
      vertex -4.5 3 -20
      vertex 4.5 3 20
      vertex -4.5 3 20
    endloop
  endfacet
  facet normal 0 -1 -0
    outer loop
      vertex 4.5 3 20
      vertex -4.5 3 -20
      vertex 4.5 3 -20
    endloop
  endfacet
  facet normal -0.989173 -0.146755 0
    outer loop
      vertex 4.99759 2.549 -20
      vertex 4.99039 2.59753 20
      vertex 4.99039 2.59753 -20
    endloop
  endfacet
  facet normal -0.989173 -0.146755 0
    outer loop
      vertex 4.99039 2.59753 20
      vertex 4.99759 2.549 -20
      vertex 4.99759 2.549 20
    endloop
  endfacet
  facet normal -0.671516 -0.74099 0
    outer loop
      vertex 4.81718 2.88651 -20
      vertex 4.85355 2.85355 20
      vertex 4.81718 2.88651 20
    endloop
  endfacet
  facet normal -0.671516 -0.74099 -0
    outer loop
      vertex 4.85355 2.85355 20
      vertex 4.81718 2.88651 -20
      vertex 4.85355 2.85355 -20
    endloop
  endfacet
  facet normal 0 1 -0
    outer loop
      vertex 4.5 -3 -20
      vertex -4.5 -3 20
      vertex 4.5 -3 20
    endloop
  endfacet
  facet normal 0 1 0
    outer loop
      vertex -4.5 -3 20
      vertex 4.5 -3 -20
      vertex -4.5 -3 -20
    endloop
  endfacet
  facet normal 0.74099 0.671516 0
    outer loop
      vertex -4.85355 -2.85355 20
      vertex -4.88651 -2.81718 -20
      vertex -4.88651 -2.81718 20
    endloop
  endfacet
  facet normal 0.74099 0.671516 0
    outer loop
      vertex -4.88651 -2.81718 -20
      vertex -4.85355 -2.85355 20
      vertex -4.85355 -2.85355 -20
    endloop
  endfacet
  facet normal 0.671516 0.74099 -0
    outer loop
      vertex -4.81718 -2.88651 -20
      vertex -4.85355 -2.85355 20
      vertex -4.81718 -2.88651 20
    endloop
  endfacet
  facet normal 0.671516 0.74099 0
    outer loop
      vertex -4.85355 -2.85355 20
      vertex -4.81718 -2.88651 -20
      vertex -4.85355 -2.85355 -20
    endloop
  endfacet
  facet normal -0.903995 -0.427543 0
    outer loop
      vertex 4.96193 2.69133 -20
      vertex 4.94095 2.73569 20
      vertex 4.94095 2.73569 -20
    endloop
  endfacet
  facet normal -0.903995 -0.427543 0
    outer loop
      vertex 4.94095 2.73569 20
      vertex 4.96193 2.69133 -20
      vertex 4.96193 2.69133 20
    endloop
  endfacet
  facet normal -0.146755 0.989173 0
    outer loop
      vertex 4.59753 -2.99039 -20
      vertex 4.549 -2.99759 20
      vertex 4.59753 -2.99039 20
    endloop
  endfacet
  facet normal -0.146755 0.989173 0
    outer loop
      vertex 4.549 -2.99759 20
      vertex 4.59753 -2.99039 -20
      vertex 4.549 -2.99759 -20
    endloop
  endfacet
  facet normal 0.595588 -0.80329 0
    outer loop
      vertex -4.81718 2.88651 -20
      vertex -4.77777 2.91573 20
      vertex -4.81718 2.88651 20
    endloop
  endfacet
  facet normal 0.595588 -0.80329 0
    outer loop
      vertex -4.77777 2.91573 20
      vertex -4.81718 2.88651 -20
      vertex -4.77777 2.91573 -20
    endloop
  endfacet
  facet normal 0.970059 0.242871 0
    outer loop
      vertex -4.97847 -2.64514 20
      vertex -4.99039 -2.59753 -20
      vertex -4.99039 -2.59753 20
    endloop
  endfacet
  facet normal 0.970059 0.242871 0
    outer loop
      vertex -4.99039 -2.59753 -20
      vertex -4.97847 -2.64514 20
      vertex -4.97847 -2.64514 -20
    endloop
  endfacet
  facet normal 1 -0 0
    outer loop
      vertex -5 -2.5 20
      vertex -5 2.5 -20
      vertex -5 2.5 20
    endloop
  endfacet
  facet normal 1 0 0
    outer loop
      vertex -5 2.5 -20
      vertex -5 -2.5 20
      vertex -5 -2.5 -20
    endloop
  endfacet
  facet normal -0.80329 0.595588 0
    outer loop
      vertex 4.88651 -2.81718 -20
      vertex 4.91573 -2.77777 20
      vertex 4.91573 -2.77777 -20
    endloop
  endfacet
  facet normal -0.80329 0.595588 0
    outer loop
      vertex 4.91573 -2.77777 20
      vertex 4.88651 -2.81718 -20
      vertex 4.88651 -2.81718 20
    endloop
  endfacet
  facet normal 0.989173 0.146755 0
    outer loop
      vertex -4.99039 -2.59753 20
      vertex -4.99759 -2.549 -20
      vertex -4.99759 -2.549 20
    endloop
  endfacet
  facet normal 0.989173 0.146755 0
    outer loop
      vertex -4.99759 -2.549 -20
      vertex -4.99039 -2.59753 20
      vertex -4.99039 -2.59753 -20
    endloop
  endfacet
  facet normal -0.427543 -0.903995 0
    outer loop
      vertex 4.69133 2.96193 -20
      vertex 4.73569 2.94095 20
      vertex 4.69133 2.96193 20
    endloop
  endfacet
  facet normal -0.427543 -0.903995 -0
    outer loop
      vertex 4.73569 2.94095 20
      vertex 4.69133 2.96193 -20
      vertex 4.73569 2.94095 -20
    endloop
  endfacet
  facet normal -0.242871 0.970059 0
    outer loop
      vertex 4.64514 -2.97847 -20
      vertex 4.59753 -2.99039 20
      vertex 4.64514 -2.97847 20
    endloop
  endfacet
  facet normal -0.242871 0.970059 0
    outer loop
      vertex 4.59753 -2.99039 20
      vertex 4.64514 -2.97847 -20
      vertex 4.59753 -2.99039 -20
    endloop
  endfacet
  facet normal -0.94146 -0.337124 0
    outer loop
      vertex 4.97847 2.64514 -20
      vertex 4.96193 2.69133 20
      vertex 4.96193 2.69133 -20
    endloop
  endfacet
  facet normal -0.94146 -0.337124 0
    outer loop
      vertex 4.96193 2.69133 20
      vertex 4.97847 2.64514 -20
      vertex 4.97847 2.64514 20
    endloop
  endfacet
  facet normal -0.595588 0.80329 0
    outer loop
      vertex 4.81718 -2.88651 -20
      vertex 4.77777 -2.91573 20
      vertex 4.81718 -2.88651 20
    endloop
  endfacet
  facet normal -0.595588 0.80329 0
    outer loop
      vertex 4.77777 -2.91573 20
      vertex 4.81718 -2.88651 -20
      vertex 4.77777 -2.91573 -20
    endloop
  endfacet
  facet normal 0.970059 -0.242871 0
    outer loop
      vertex -4.99039 2.59753 20
      vertex -4.97847 2.64514 -20
      vertex -4.97847 2.64514 20
    endloop
  endfacet
  facet normal 0.970059 -0.242871 0
    outer loop
      vertex -4.97847 2.64514 -20
      vertex -4.99039 2.59753 20
      vertex -4.99039 2.59753 -20
    endloop
  endfacet
  facet normal -0.74099 -0.671516 0
    outer loop
      vertex 4.88651 2.81718 -20
      vertex 4.85355 2.85355 20
      vertex 4.85355 2.85355 -20
    endloop
  endfacet
  facet normal -0.74099 -0.671516 0
    outer loop
      vertex 4.85355 2.85355 20
      vertex 4.88651 2.81718 -20
      vertex 4.88651 2.81718 20
    endloop
  endfacet
  facet normal 0.94146 -0.337124 0
    outer loop
      vertex -4.97847 2.64514 20
      vertex -4.96193 2.69133 -20
      vertex -4.96193 2.69133 20
    endloop
  endfacet
  facet normal 0.94146 -0.337124 0
    outer loop
      vertex -4.96193 2.69133 -20
      vertex -4.97847 2.64514 20
      vertex -4.97847 2.64514 -20
    endloop
  endfacet
  facet normal 0.337124 0.94146 -0
    outer loop
      vertex -4.64514 -2.97847 -20
      vertex -4.69133 -2.96193 20
      vertex -4.64514 -2.97847 20
    endloop
  endfacet
  facet normal 0.337124 0.94146 0
    outer loop
      vertex -4.69133 -2.96193 20
      vertex -4.64514 -2.97847 -20
      vertex -4.69133 -2.96193 -20
    endloop
  endfacet
  facet normal -0.970059 0.242871 0
    outer loop
      vertex 4.97847 -2.64514 -20
      vertex 4.99039 -2.59753 20
      vertex 4.99039 -2.59753 -20
    endloop
  endfacet
  facet normal -0.970059 0.242871 0
    outer loop
      vertex 4.99039 -2.59753 20
      vertex 4.97847 -2.64514 -20
      vertex 4.97847 -2.64514 20
    endloop
  endfacet
  facet normal 0.80329 0.595588 0
    outer loop
      vertex -4.88651 -2.81718 20
      vertex -4.91573 -2.77777 -20
      vertex -4.91573 -2.77777 20
    endloop
  endfacet
  facet normal 0.80329 0.595588 0
    outer loop
      vertex -4.91573 -2.77777 -20
      vertex -4.88651 -2.81718 20
      vertex -4.88651 -2.81718 -20
    endloop
  endfacet
  facet normal -0.0491243 -0.998793 0
    outer loop
      vertex 4.5 3 -20
      vertex 4.549 2.99759 20
      vertex 4.5 3 20
    endloop
  endfacet
  facet normal -0.0491243 -0.998793 -0
    outer loop
      vertex 4.549 2.99759 20
      vertex 4.5 3 -20
      vertex 4.549 2.99759 -20
    endloop
  endfacet
  facet normal 0.514076 0.857745 -0
    outer loop
      vertex -4.73569 -2.94095 -20
      vertex -4.77777 -2.91573 20
      vertex -4.73569 -2.94095 20
    endloop
  endfacet
  facet normal 0.514076 0.857745 0
    outer loop
      vertex -4.77777 -2.91573 20
      vertex -4.73569 -2.94095 -20
      vertex -4.77777 -2.91573 -20
    endloop
  endfacet
  facet normal -0.998793 0.0491243 0
    outer loop
      vertex 4.99759 -2.549 -20
      vertex 5 -2.5 20
      vertex 5 -2.5 -20
    endloop
  endfacet
  facet normal -0.998793 0.0491243 0
    outer loop
      vertex 5 -2.5 20
      vertex 4.99759 -2.549 -20
      vertex 4.99759 -2.549 20
    endloop
  endfacet
  facet normal -0.427543 0.903995 0
    outer loop
      vertex 4.73569 -2.94095 -20
      vertex 4.69133 -2.96193 20
      vertex 4.73569 -2.94095 20
    endloop
  endfacet
  facet normal -0.427543 0.903995 0
    outer loop
      vertex 4.69133 -2.96193 20
      vertex 4.73569 -2.94095 -20
      vertex 4.69133 -2.96193 -20
    endloop
  endfacet
  facet normal -0.514076 0.857745 0
    outer loop
      vertex 4.77777 -2.91573 -20
      vertex 4.73569 -2.94095 20
      vertex 4.77777 -2.91573 20
    endloop
  endfacet
  facet normal -0.514076 0.857745 0
    outer loop
      vertex 4.73569 -2.94095 20
      vertex 4.77777 -2.91573 -20
      vertex 4.73569 -2.94095 -20
    endloop
  endfacet
  facet normal 0.514076 -0.857745 0
    outer loop
      vertex -4.77777 2.91573 -20
      vertex -4.73569 2.94095 20
      vertex -4.77777 2.91573 20
    endloop
  endfacet
  facet normal 0.514076 -0.857745 0
    outer loop
      vertex -4.73569 2.94095 20
      vertex -4.77777 2.91573 -20
      vertex -4.73569 2.94095 -20
    endloop
  endfacet
  facet normal -0.857745 0.514076 0
    outer loop
      vertex 4.91573 -2.77777 -20
      vertex 4.94095 -2.73569 20
      vertex 4.94095 -2.73569 -20
    endloop
  endfacet
  facet normal -0.857745 0.514076 0
    outer loop
      vertex 4.94095 -2.73569 20
      vertex 4.91573 -2.77777 -20
      vertex 4.91573 -2.77777 20
    endloop
  endfacet
  facet normal 0.989173 -0.146755 0
    outer loop
      vertex -4.99759 2.549 20
      vertex -4.99039 2.59753 -20
      vertex -4.99039 2.59753 20
    endloop
  endfacet
  facet normal 0.989173 -0.146755 0
    outer loop
      vertex -4.99039 2.59753 -20
      vertex -4.99759 2.549 20
      vertex -4.99759 2.549 -20
    endloop
  endfacet
  facet normal 0.903995 0.427543 0
    outer loop
      vertex -4.94095 -2.73569 20
      vertex -4.96193 -2.69133 -20
      vertex -4.96193 -2.69133 20
    endloop
  endfacet
  facet normal 0.903995 0.427543 0
    outer loop
      vertex -4.96193 -2.69133 -20
      vertex -4.94095 -2.73569 20
      vertex -4.94095 -2.73569 -20
    endloop
  endfacet
  facet normal -0.0491243 0.998793 0
    outer loop
      vertex 4.549 -2.99759 -20
      vertex 4.5 -3 20
      vertex 4.549 -2.99759 20
    endloop
  endfacet
  facet normal -0.0491243 0.998793 0
    outer loop
      vertex 4.5 -3 20
      vertex 4.549 -2.99759 -20
      vertex 4.5 -3 -20
    endloop
  endfacet
  facet normal -0.595588 -0.80329 0
    outer loop
      vertex 4.77777 2.91573 -20
      vertex 4.81718 2.88651 20
      vertex 4.77777 2.91573 20
    endloop
  endfacet
  facet normal -0.595588 -0.80329 -0
    outer loop
      vertex 4.81718 2.88651 20
      vertex 4.77777 2.91573 -20
      vertex 4.81718 2.88651 -20
    endloop
  endfacet
  facet normal 0.857745 0.514076 0
    outer loop
      vertex -4.91573 -2.77777 20
      vertex -4.94095 -2.73569 -20
      vertex -4.94095 -2.73569 20
    endloop
  endfacet
  facet normal 0.857745 0.514076 0
    outer loop
      vertex -4.94095 -2.73569 -20
      vertex -4.91573 -2.77777 20
      vertex -4.91573 -2.77777 -20
    endloop
  endfacet
  facet normal 0.242871 0.970059 -0
    outer loop
      vertex -4.59753 -2.99039 -20
      vertex -4.64514 -2.97847 20
      vertex -4.59753 -2.99039 20
    endloop
  endfacet
  facet normal 0.242871 0.970059 0
    outer loop
      vertex -4.64514 -2.97847 20
      vertex -4.59753 -2.99039 -20
      vertex -4.64514 -2.97847 -20
    endloop
  endfacet
  facet normal -0.80329 -0.595588 0
    outer loop
      vertex 4.91573 2.77777 -20
      vertex 4.88651 2.81718 20
      vertex 4.88651 2.81718 -20
    endloop
  endfacet
  facet normal -0.80329 -0.595588 0
    outer loop
      vertex 4.88651 2.81718 20
      vertex 4.91573 2.77777 -20
      vertex 4.91573 2.77777 20
    endloop
  endfacet
  facet normal 0.857745 -0.514076 0
    outer loop
      vertex -4.94095 2.73569 20
      vertex -4.91573 2.77777 -20
      vertex -4.91573 2.77777 20
    endloop
  endfacet
  facet normal 0.857745 -0.514076 0
    outer loop
      vertex -4.91573 2.77777 -20
      vertex -4.94095 2.73569 20
      vertex -4.94095 2.73569 -20
    endloop
  endfacet
  facet normal -0.903995 0.427543 0
    outer loop
      vertex 4.94095 -2.73569 -20
      vertex 4.96193 -2.69133 20
      vertex 4.96193 -2.69133 -20
    endloop
  endfacet
  facet normal -0.903995 0.427543 0
    outer loop
      vertex 4.96193 -2.69133 20
      vertex 4.94095 -2.73569 -20
      vertex 4.94095 -2.73569 20
    endloop
  endfacet
  facet normal -0.94146 0.337124 0
    outer loop
      vertex 4.96193 -2.69133 -20
      vertex 4.97847 -2.64514 20
      vertex 4.97847 -2.64514 -20
    endloop
  endfacet
  facet normal -0.94146 0.337124 0
    outer loop
      vertex 4.97847 -2.64514 20
      vertex 4.96193 -2.69133 -20
      vertex 4.96193 -2.69133 20
    endloop
  endfacet
  facet normal 0.146755 0.989173 -0
    outer loop
      vertex -4.549 -2.99759 -20
      vertex -4.59753 -2.99039 20
      vertex -4.549 -2.99759 20
    endloop
  endfacet
  facet normal 0.146755 0.989173 0
    outer loop
      vertex -4.59753 -2.99039 20
      vertex -4.549 -2.99759 -20
      vertex -4.59753 -2.99039 -20
    endloop
  endfacet
  facet normal -0.337124 -0.94146 0
    outer loop
      vertex 4.64514 2.97847 -20
      vertex 4.69133 2.96193 20
      vertex 4.64514 2.97847 20
    endloop
  endfacet
  facet normal -0.337124 -0.94146 -0
    outer loop
      vertex 4.69133 2.96193 20
      vertex 4.64514 2.97847 -20
      vertex 4.69133 2.96193 -20
    endloop
  endfacet
  facet normal 0.595588 0.80329 -0
    outer loop
      vertex -4.77777 -2.91573 -20
      vertex -4.81718 -2.88651 20
      vertex -4.77777 -2.91573 20
    endloop
  endfacet
  facet normal 0.595588 0.80329 0
    outer loop
      vertex -4.81718 -2.88651 20
      vertex -4.77777 -2.91573 -20
      vertex -4.81718 -2.88651 -20
    endloop
  endfacet
  facet normal 0.671516 -0.74099 0
    outer loop
      vertex -4.85355 2.85355 -20
      vertex -4.81718 2.88651 20
      vertex -4.85355 2.85355 20
    endloop
  endfacet
  facet normal 0.671516 -0.74099 0
    outer loop
      vertex -4.81718 2.88651 20
      vertex -4.85355 2.85355 -20
      vertex -4.81718 2.88651 -20
    endloop
  endfacet
  facet normal 0.242871 -0.970059 0
    outer loop
      vertex -4.64514 2.97847 -20
      vertex -4.59753 2.99039 20
      vertex -4.64514 2.97847 20
    endloop
  endfacet
  facet normal 0.242871 -0.970059 0
    outer loop
      vertex -4.59753 2.99039 20
      vertex -4.64514 2.97847 -20
      vertex -4.59753 2.99039 -20
    endloop
  endfacet
  facet normal -0.337124 0.94146 0
    outer loop
      vertex 4.69133 -2.96193 -20
      vertex 4.64514 -2.97847 20
      vertex 4.69133 -2.96193 20
    endloop
  endfacet
  facet normal -0.337124 0.94146 0
    outer loop
      vertex 4.64514 -2.97847 20
      vertex 4.69133 -2.96193 -20
      vertex 4.64514 -2.97847 -20
    endloop
  endfacet
  facet normal 0.903995 -0.427543 0
    outer loop
      vertex -4.96193 2.69133 20
      vertex -4.94095 2.73569 -20
      vertex -4.94095 2.73569 20
    endloop
  endfacet
  facet normal 0.903995 -0.427543 0
    outer loop
      vertex -4.94095 2.73569 -20
      vertex -4.96193 2.69133 20
      vertex -4.96193 2.69133 -20
    endloop
  endfacet
  facet normal 0.74099 -0.671516 0
    outer loop
      vertex -4.88651 2.81718 20
      vertex -4.85355 2.85355 -20
      vertex -4.85355 2.85355 20
    endloop
  endfacet
  facet normal 0.74099 -0.671516 0
    outer loop
      vertex -4.85355 2.85355 -20
      vertex -4.88651 2.81718 20
      vertex -4.88651 2.81718 -20
    endloop
  endfacet
  facet normal 0.427543 -0.903995 0
    outer loop
      vertex -4.73569 2.94095 -20
      vertex -4.69133 2.96193 20
      vertex -4.73569 2.94095 20
    endloop
  endfacet
  facet normal 0.427543 -0.903995 0
    outer loop
      vertex -4.69133 2.96193 20
      vertex -4.73569 2.94095 -20
      vertex -4.69133 2.96193 -20
    endloop
  endfacet
  facet normal 0.337124 -0.94146 0
    outer loop
      vertex -4.69133 2.96193 -20
      vertex -4.64514 2.97847 20
      vertex -4.69133 2.96193 20
    endloop
  endfacet
  facet normal 0.337124 -0.94146 0
    outer loop
      vertex -4.64514 2.97847 20
      vertex -4.69133 2.96193 -20
      vertex -4.64514 2.97847 -20
    endloop
  endfacet
  facet normal -0.989173 0.146755 0
    outer loop
      vertex 4.99039 -2.59753 -20
      vertex 4.99759 -2.549 20
      vertex 4.99759 -2.549 -20
    endloop
  endfacet
  facet normal -0.989173 0.146755 0
    outer loop
      vertex 4.99759 -2.549 20
      vertex 4.99039 -2.59753 -20
      vertex 4.99039 -2.59753 20
    endloop
  endfacet
  facet normal 0.146755 -0.989173 0
    outer loop
      vertex -4.59753 2.99039 -20
      vertex -4.549 2.99759 20
      vertex -4.59753 2.99039 20
    endloop
  endfacet
  facet normal 0.146755 -0.989173 0
    outer loop
      vertex -4.549 2.99759 20
      vertex -4.59753 2.99039 -20
      vertex -4.549 2.99759 -20
    endloop
  endfacet
  facet normal 0.998793 -0.0491243 0
    outer loop
      vertex -5 2.5 20
      vertex -4.99759 2.549 -20
      vertex -4.99759 2.549 20
    endloop
  endfacet
  facet normal 0.998793 -0.0491243 0
    outer loop
      vertex -4.99759 2.549 -20
      vertex -5 2.5 20
      vertex -5 2.5 -20
    endloop
  endfacet
  facet normal -0.514076 -0.857745 0
    outer loop
      vertex 4.73569 2.94095 -20
      vertex 4.77777 2.91573 20
      vertex 4.73569 2.94095 20
    endloop
  endfacet
  facet normal -0.514076 -0.857745 -0
    outer loop
      vertex 4.77777 2.91573 20
      vertex 4.73569 2.94095 -20
      vertex 4.77777 2.91573 -20
    endloop
  endfacet
  facet normal -0.857745 -0.514076 0
    outer loop
      vertex 4.94095 2.73569 -20
      vertex 4.91573 2.77777 20
      vertex 4.91573 2.77777 -20
    endloop
  endfacet
  facet normal -0.857745 -0.514076 0
    outer loop
      vertex 4.91573 2.77777 20
      vertex 4.94095 2.73569 -20
      vertex 4.94095 2.73569 20
    endloop
  endfacet
  facet normal 0.427543 0.903995 -0
    outer loop
      vertex -4.69133 -2.96193 -20
      vertex -4.73569 -2.94095 20
      vertex -4.69133 -2.96193 20
    endloop
  endfacet
  facet normal 0.427543 0.903995 0
    outer loop
      vertex -4.73569 -2.94095 20
      vertex -4.69133 -2.96193 -20
      vertex -4.73569 -2.94095 -20
    endloop
  endfacet
  facet normal -0.671516 0.74099 0
    outer loop
      vertex 4.85355 -2.85355 -20
      vertex 4.81718 -2.88651 20
      vertex 4.85355 -2.85355 20
    endloop
  endfacet
  facet normal -0.671516 0.74099 0
    outer loop
      vertex 4.81718 -2.88651 20
      vertex 4.85355 -2.85355 -20
      vertex 4.81718 -2.88651 -20
    endloop
  endfacet
  facet normal -0.146755 -0.989173 0
    outer loop
      vertex 4.549 2.99759 -20
      vertex 4.59753 2.99039 20
      vertex 4.549 2.99759 20
    endloop
  endfacet
  facet normal -0.146755 -0.989173 -0
    outer loop
      vertex 4.59753 2.99039 20
      vertex 4.549 2.99759 -20
      vertex 4.59753 2.99039 -20
    endloop
  endfacet
  facet normal 0.0491243 -0.998793 0
    outer loop
      vertex -4.549 2.99759 -20
      vertex -4.5 3 20
      vertex -4.549 2.99759 20
    endloop
  endfacet
  facet normal 0.0491243 -0.998793 0
    outer loop
      vertex -4.5 3 20
      vertex -4.549 2.99759 -20
      vertex -4.5 3 -20
    endloop
  endfacet
endsolid OpenSCAD_Model
