solid OpenSCAD_Model
  facet normal 1 0 0
    outer loop
      vertex 1.25 2.3 2.5
      vertex 1.25 1.9 1.25
      vertex 1.25 2.3 0
    endloop
  endfacet
  facet normal 1 0 0
    outer loop
      vertex 1.25 2.3 2.5
      vertex 1.25 1.89855 1.2794
      vertex 1.25 1.9 1.25
    endloop
  endfacet
  facet normal 1 0 0
    outer loop
      vertex 1.25 2.3 2.5
      vertex 1.25 1.89423 1.30853
      vertex 1.25 1.89855 1.2794
    endloop
  endfacet
  facet normal 1 0 0
    outer loop
      vertex 1.25 2.3 2.5
      vertex 1.25 1.88708 1.33708
      vertex 1.25 1.89423 1.30853
    endloop
  endfacet
  facet normal 1 0 0
    outer loop
      vertex 1.25 2.3 2.5
      vertex 1.25 1.87716 1.3648
      vertex 1.25 1.88708 1.33708
    endloop
  endfacet
  facet normal 1 0 0
    outer loop
      vertex 1.25 2.3 2.5
      vertex 1.25 1.86458 1.39142
      vertex 1.25 1.87716 1.3648
    endloop
  endfacet
  facet normal 1 0 0
    outer loop
      vertex 1.25 2.3 2.5
      vertex 1.25 1.84944 1.41667
      vertex 1.25 1.86458 1.39142
    endloop
  endfacet
  facet normal 1 0 0
    outer loop
      vertex 1.25 2.3 2.5
      vertex 1.25 1.8319 1.44032
      vertex 1.25 1.84944 1.41667
    endloop
  endfacet
  facet normal 1 0 0
    outer loop
      vertex 1.25 2.3 2.5
      vertex 1.25 1.81213 1.46213
      vertex 1.25 1.8319 1.44032
    endloop
  endfacet
  facet normal 1 0 0
    outer loop
      vertex 1.25 2.3 2.5
      vertex 1.25 1.79032 1.4819
      vertex 1.25 1.81213 1.46213
    endloop
  endfacet
  facet normal 1 0 0
    outer loop
      vertex 1.25 2.3 2.5
      vertex 1.25 1.76667 1.49944
      vertex 1.25 1.79032 1.4819
    endloop
  endfacet
  facet normal 1 0 0
    outer loop
      vertex 1.25 2.3 2.5
      vertex 1.25 1.74142 1.51458
      vertex 1.25 1.76667 1.49944
    endloop
  endfacet
  facet normal 1 0 0
    outer loop
      vertex 1.25 2.3 2.5
      vertex 1.25 1.7148 1.52716
      vertex 1.25 1.74142 1.51458
    endloop
  endfacet
  facet normal 1 0 0
    outer loop
      vertex 1.25 2.3 2.5
      vertex 1.25 1.68709 1.53708
      vertex 1.25 1.7148 1.52716
    endloop
  endfacet
  facet normal 1 0 0
    outer loop
      vertex 1.25 2.3 2.5
      vertex 1.25 1.65853 1.54424
      vertex 1.25 1.68709 1.53708
    endloop
  endfacet
  facet normal 1 0 0
    outer loop
      vertex 1.25 2.3 2.5
      vertex 1.25 1.62941 1.54856
      vertex 1.25 1.65853 1.54424
    endloop
  endfacet
  facet normal 1 0 0
    outer loop
      vertex 1.25 2.3 2.5
      vertex 1.25 1.6 1.55
      vertex 1.25 1.62941 1.54856
    endloop
  endfacet
  facet normal 1 0 0
    outer loop
      vertex 1.25 2.3 2.5
      vertex 1.25 1.57059 1.54856
      vertex 1.25 1.6 1.55
    endloop
  endfacet
  facet normal 1 0 0
    outer loop
      vertex 1.25 2.3 2.5
      vertex 1.25 1.54147 1.54424
      vertex 1.25 1.57059 1.54856
    endloop
  endfacet
  facet normal 1 0 0
    outer loop
      vertex 1.25 2.3 2.5
      vertex 1.25 1.51291 1.53708
      vertex 1.25 1.54147 1.54424
    endloop
  endfacet
  facet normal 1 0 0
    outer loop
      vertex 1.25 2.3 2.5
      vertex 1.25 1.48519 1.52716
      vertex 1.25 1.51291 1.53708
    endloop
  endfacet
  facet normal 1 0 0
    outer loop
      vertex 1.25 2.3 2.5
      vertex 1.25 1.45858 1.51458
      vertex 1.25 1.48519 1.52716
    endloop
  endfacet
  facet normal 1 0 0
    outer loop
      vertex 1.25 2.3 2.5
      vertex 1.25 1.43333 1.49944
      vertex 1.25 1.45858 1.51458
    endloop
  endfacet
  facet normal 1 0 0
    outer loop
      vertex 1.25 -1.43333 1.49944
      vertex 1.25 1.43333 1.49944
      vertex 1.25 2.3 2.5
    endloop
  endfacet
  facet normal 1 0 0
    outer loop
      vertex 1.25 1.43333 1.49944
      vertex 1.25 -1.43333 1.49944
      vertex 1.25 1.40968 1.4819
    endloop
  endfacet
  facet normal 1 0 -0
    outer loop
      vertex 1.25 -1.40968 1.4819
      vertex 1.25 1.40968 1.4819
      vertex 1.25 -1.43333 1.49944
    endloop
  endfacet
  facet normal 1 0 0
    outer loop
      vertex 1.25 1.30144 1.2794
      vertex 1.25 -1.3 1.25
      vertex 1.25 1.3 1.25
    endloop
  endfacet
  facet normal 1 0 0
    outer loop
      vertex 1.25 -1.30144 1.2794
      vertex 1.25 1.30144 1.2794
      vertex 1.25 1.30576 1.30853
    endloop
  endfacet
  facet normal 1 0 0
    outer loop
      vertex 1.25 -1.30576 1.30853
      vertex 1.25 1.30576 1.30853
      vertex 1.25 1.31292 1.33708
    endloop
  endfacet
  facet normal 1 0 0
    outer loop
      vertex 1.25 -1.31292 1.33708
      vertex 1.25 1.31292 1.33708
      vertex 1.25 1.32284 1.3648
    endloop
  endfacet
  facet normal 1 0 0
    outer loop
      vertex 1.25 -1.32284 1.3648
      vertex 1.25 1.32284 1.3648
      vertex 1.25 1.33542 1.39142
    endloop
  endfacet
  facet normal 1 0 0
    outer loop
      vertex 1.25 -1.33542 1.39142
      vertex 1.25 1.33542 1.39142
      vertex 1.25 1.35056 1.41667
    endloop
  endfacet
  facet normal 1 0 0
    outer loop
      vertex 1.25 -1.35056 1.41667
      vertex 1.25 1.35056 1.41667
      vertex 1.25 1.3681 1.44032
    endloop
  endfacet
  facet normal 1 0 0
    outer loop
      vertex 1.25 1.40968 1.4819
      vertex 1.25 -1.40968 1.4819
      vertex 1.25 1.38787 1.46213
    endloop
  endfacet
  facet normal 1 0 0
    outer loop
      vertex 1.25 1.30144 1.2794
      vertex 1.25 -1.30144 1.2794
      vertex 1.25 -1.3 1.25
    endloop
  endfacet
  facet normal 1 0 0
    outer loop
      vertex 1.25 1.30576 1.30853
      vertex 1.25 -1.30576 1.30853
      vertex 1.25 -1.30144 1.2794
    endloop
  endfacet
  facet normal 1 0 0
    outer loop
      vertex 1.25 1.31292 1.33708
      vertex 1.25 -1.31292 1.33708
      vertex 1.25 -1.30576 1.30853
    endloop
  endfacet
  facet normal 1 0 0
    outer loop
      vertex 1.25 1.32284 1.3648
      vertex 1.25 -1.32284 1.3648
      vertex 1.25 -1.31292 1.33708
    endloop
  endfacet
  facet normal 1 0 0
    outer loop
      vertex 1.25 1.33542 1.39142
      vertex 1.25 -1.33542 1.39142
      vertex 1.25 -1.32284 1.3648
    endloop
  endfacet
  facet normal 1 0 0
    outer loop
      vertex 1.25 1.35056 1.41667
      vertex 1.25 -1.35056 1.41667
      vertex 1.25 -1.33542 1.39142
    endloop
  endfacet
  facet normal 1 0 0
    outer loop
      vertex 1.25 1.3681 1.44032
      vertex 1.25 -1.3681 1.44032
      vertex 1.25 -1.35056 1.41667
    endloop
  endfacet
  facet normal 1 0 0
    outer loop
      vertex 1.25 1.3681 1.44032
      vertex 1.25 -1.38787 1.46213
      vertex 1.25 -1.3681 1.44032
    endloop
  endfacet
  facet normal 1 0 0
    outer loop
      vertex 1.25 1.38787 1.46213
      vertex 1.25 -1.38787 1.46213
      vertex 1.25 1.3681 1.44032
    endloop
  endfacet
  facet normal 1 0 -0
    outer loop
      vertex 1.25 -1.38787 1.46213
      vertex 1.25 1.38787 1.46213
      vertex 1.25 -1.40968 1.4819
    endloop
  endfacet
  facet normal 1 -0 0
    outer loop
      vertex 1.25 -2.3 2.5
      vertex 1.25 -1.43333 1.49944
      vertex 1.25 2.3 2.5
    endloop
  endfacet
  facet normal 1 0 0
    outer loop
      vertex 1.25 -1.43333 1.49944
      vertex 1.25 -2.3 2.5
      vertex 1.25 -1.45858 1.51458
    endloop
  endfacet
  facet normal 1 0 0
    outer loop
      vertex 1.25 -1.45858 1.51458
      vertex 1.25 -2.3 2.5
      vertex 1.25 -1.48519 1.52716
    endloop
  endfacet
  facet normal 1 0 0
    outer loop
      vertex 1.25 -1.48519 1.52716
      vertex 1.25 -2.3 2.5
      vertex 1.25 -1.51291 1.53708
    endloop
  endfacet
  facet normal 1 0 0
    outer loop
      vertex 1.25 -1.51291 1.53708
      vertex 1.25 -2.3 2.5
      vertex 1.25 -1.54147 1.54424
    endloop
  endfacet
  facet normal 1 0 0
    outer loop
      vertex 1.25 -1.54147 1.54424
      vertex 1.25 -2.3 2.5
      vertex 1.25 -1.57059 1.54856
    endloop
  endfacet
  facet normal 1 0 0
    outer loop
      vertex 1.25 -1.57059 1.54856
      vertex 1.25 -2.3 2.5
      vertex 1.25 -1.6 1.55
    endloop
  endfacet
  facet normal 1 0 0
    outer loop
      vertex 1.25 -1.6 1.55
      vertex 1.25 -2.3 2.5
      vertex 1.25 -1.62941 1.54856
    endloop
  endfacet
  facet normal 1 0 0
    outer loop
      vertex 1.25 -1.89855 1.2794
      vertex 1.25 -2.3 2.5
      vertex 1.25 -1.9 1.25
    endloop
  endfacet
  facet normal 1 0 0
    outer loop
      vertex 1.25 -1.89423 1.30853
      vertex 1.25 -2.3 2.5
      vertex 1.25 -1.89855 1.2794
    endloop
  endfacet
  facet normal 1 0 0
    outer loop
      vertex 1.25 -1.88708 1.33708
      vertex 1.25 -2.3 2.5
      vertex 1.25 -1.89423 1.30853
    endloop
  endfacet
  facet normal 1 0 0
    outer loop
      vertex 1.25 -1.87716 1.3648
      vertex 1.25 -2.3 2.5
      vertex 1.25 -1.88708 1.33708
    endloop
  endfacet
  facet normal 1 0 0
    outer loop
      vertex 1.25 -1.86458 1.39142
      vertex 1.25 -2.3 2.5
      vertex 1.25 -1.87716 1.3648
    endloop
  endfacet
  facet normal 1 0 0
    outer loop
      vertex 1.25 -1.84944 1.41667
      vertex 1.25 -2.3 2.5
      vertex 1.25 -1.86458 1.39142
    endloop
  endfacet
  facet normal 1 0 0
    outer loop
      vertex 1.25 -1.8319 1.44032
      vertex 1.25 -2.3 2.5
      vertex 1.25 -1.84944 1.41667
    endloop
  endfacet
  facet normal 1 0 0
    outer loop
      vertex 1.25 -1.81213 1.46213
      vertex 1.25 -2.3 2.5
      vertex 1.25 -1.8319 1.44032
    endloop
  endfacet
  facet normal 1 0 0
    outer loop
      vertex 1.25 -1.79032 1.4819
      vertex 1.25 -2.3 2.5
      vertex 1.25 -1.81213 1.46213
    endloop
  endfacet
  facet normal 1 0 0
    outer loop
      vertex 1.25 -1.76667 1.49944
      vertex 1.25 -2.3 2.5
      vertex 1.25 -1.79032 1.4819
    endloop
  endfacet
  facet normal 1 0 0
    outer loop
      vertex 1.25 -1.74142 1.51458
      vertex 1.25 -2.3 2.5
      vertex 1.25 -1.76667 1.49944
    endloop
  endfacet
  facet normal 1 0 0
    outer loop
      vertex 1.25 -1.7148 1.52716
      vertex 1.25 -2.3 2.5
      vertex 1.25 -1.74142 1.51458
    endloop
  endfacet
  facet normal 1 0 0
    outer loop
      vertex 1.25 -1.68709 1.53708
      vertex 1.25 -2.3 2.5
      vertex 1.25 -1.7148 1.52716
    endloop
  endfacet
  facet normal 1 0 0
    outer loop
      vertex 1.25 -1.65853 1.54424
      vertex 1.25 -2.3 2.5
      vertex 1.25 -1.68709 1.53708
    endloop
  endfacet
  facet normal 1 0 0
    outer loop
      vertex 1.25 -1.62941 1.54856
      vertex 1.25 -2.3 2.5
      vertex 1.25 -1.65853 1.54424
    endloop
  endfacet
  facet normal 1 -0 0
    outer loop
      vertex 1.25 1.89855 1.22059
      vertex 1.25 2.3 0
      vertex 1.25 1.9 1.25
    endloop
  endfacet
  facet normal 1 -0 0
    outer loop
      vertex 1.25 1.89423 1.19147
      vertex 1.25 2.3 0
      vertex 1.25 1.89855 1.22059
    endloop
  endfacet
  facet normal 1 -0 0
    outer loop
      vertex 1.25 1.88708 1.16291
      vertex 1.25 2.3 0
      vertex 1.25 1.89423 1.19147
    endloop
  endfacet
  facet normal 1 -0 0
    outer loop
      vertex 1.25 1.87716 1.13519
      vertex 1.25 2.3 0
      vertex 1.25 1.88708 1.16291
    endloop
  endfacet
  facet normal 1 -0 0
    outer loop
      vertex 1.25 1.86458 1.10858
      vertex 1.25 2.3 0
      vertex 1.25 1.87716 1.13519
    endloop
  endfacet
  facet normal 1 -0 0
    outer loop
      vertex 1.25 1.84944 1.08333
      vertex 1.25 2.3 0
      vertex 1.25 1.86458 1.10858
    endloop
  endfacet
  facet normal 1 -0 0
    outer loop
      vertex 1.25 1.8319 1.05968
      vertex 1.25 2.3 0
      vertex 1.25 1.84944 1.08333
    endloop
  endfacet
  facet normal 1 -0 0
    outer loop
      vertex 1.25 1.81213 1.03787
      vertex 1.25 2.3 0
      vertex 1.25 1.8319 1.05968
    endloop
  endfacet
  facet normal 1 -0 0
    outer loop
      vertex 1.25 1.79032 1.0181
      vertex 1.25 2.3 0
      vertex 1.25 1.81213 1.03787
    endloop
  endfacet
  facet normal 1 -0 0
    outer loop
      vertex 1.25 1.76667 1.00056
      vertex 1.25 2.3 0
      vertex 1.25 1.79032 1.0181
    endloop
  endfacet
  facet normal 1 -0 0
    outer loop
      vertex 1.25 1.74142 0.985423
      vertex 1.25 2.3 0
      vertex 1.25 1.76667 1.00056
    endloop
  endfacet
  facet normal 1 -0 0
    outer loop
      vertex 1.25 1.7148 0.972836
      vertex 1.25 2.3 0
      vertex 1.25 1.74142 0.985423
    endloop
  endfacet
  facet normal 1 -0 0
    outer loop
      vertex 1.25 1.68709 0.962917
      vertex 1.25 2.3 0
      vertex 1.25 1.7148 0.972836
    endloop
  endfacet
  facet normal 1 -0 0
    outer loop
      vertex 1.25 1.65853 0.955764
      vertex 1.25 2.3 0
      vertex 1.25 1.68709 0.962917
    endloop
  endfacet
  facet normal 1 -0 0
    outer loop
      vertex 1.25 1.62941 0.951444
      vertex 1.25 2.3 0
      vertex 1.25 1.65853 0.955764
    endloop
  endfacet
  facet normal 1 -0 0
    outer loop
      vertex 1.25 1.6 0.95
      vertex 1.25 2.3 0
      vertex 1.25 1.62941 0.951444
    endloop
  endfacet
  facet normal 1 0 0
    outer loop
      vertex 1.25 1.57059 0.951444
      vertex 1.25 2.3 0
      vertex 1.25 1.6 0.95
    endloop
  endfacet
  facet normal 1 0 0
    outer loop
      vertex 1.25 1.54147 0.955764
      vertex 1.25 2.3 0
      vertex 1.25 1.57059 0.951444
    endloop
  endfacet
  facet normal 1 0 0
    outer loop
      vertex 1.25 1.51291 0.962917
      vertex 1.25 2.3 0
      vertex 1.25 1.54147 0.955764
    endloop
  endfacet
  facet normal 1 0 0
    outer loop
      vertex 1.25 1.48519 0.972836
      vertex 1.25 2.3 0
      vertex 1.25 1.51291 0.962917
    endloop
  endfacet
  facet normal 1 0 0
    outer loop
      vertex 1.25 1.45858 0.985423
      vertex 1.25 2.3 0
      vertex 1.25 1.48519 0.972836
    endloop
  endfacet
  facet normal 1 0 0
    outer loop
      vertex 1.25 1.43333 1.00056
      vertex 1.25 2.3 0
      vertex 1.25 1.45858 0.985423
    endloop
  endfacet
  facet normal 1 0 0
    outer loop
      vertex 1.25 -1.43333 1.00056
      vertex 1.25 1.43333 1.00056
      vertex 1.25 1.40968 1.0181
    endloop
  endfacet
  facet normal 1 0 0
    outer loop
      vertex 1.25 -1.40968 1.0181
      vertex 1.25 1.40968 1.0181
      vertex 1.25 1.38787 1.03787
    endloop
  endfacet
  facet normal 1 0 0
    outer loop
      vertex 1.25 -1.38787 1.03787
      vertex 1.25 1.38787 1.03787
      vertex 1.25 1.3681 1.05968
    endloop
  endfacet
  facet normal 1 -0 0
    outer loop
      vertex 1.25 -1.3 1.25
      vertex 1.25 1.30144 1.22059
      vertex 1.25 1.3 1.25
    endloop
  endfacet
  facet normal 1 0 0
    outer loop
      vertex 1.25 -1.30144 1.22059
      vertex 1.25 1.30144 1.22059
      vertex 1.25 -1.3 1.25
    endloop
  endfacet
  facet normal 1 0 0
    outer loop
      vertex 1.25 1.30144 1.22059
      vertex 1.25 -1.30144 1.22059
      vertex 1.25 1.30576 1.19147
    endloop
  endfacet
  facet normal 1 0 0
    outer loop
      vertex 1.25 -1.30576 1.19147
      vertex 1.25 1.30576 1.19147
      vertex 1.25 -1.30144 1.22059
    endloop
  endfacet
  facet normal 1 0 0
    outer loop
      vertex 1.25 1.30576 1.19147
      vertex 1.25 -1.30576 1.19147
      vertex 1.25 1.31292 1.16291
    endloop
  endfacet
  facet normal 1 0 0
    outer loop
      vertex 1.25 -1.31292 1.16291
      vertex 1.25 1.31292 1.16291
      vertex 1.25 -1.30576 1.19147
    endloop
  endfacet
  facet normal 1 0 0
    outer loop
      vertex 1.25 1.31292 1.16291
      vertex 1.25 -1.31292 1.16291
      vertex 1.25 1.32284 1.13519
    endloop
  endfacet
  facet normal 1 0 0
    outer loop
      vertex 1.25 -1.32284 1.13519
      vertex 1.25 1.32284 1.13519
      vertex 1.25 -1.31292 1.16291
    endloop
  endfacet
  facet normal 1 0 0
    outer loop
      vertex 1.25 1.32284 1.13519
      vertex 1.25 -1.32284 1.13519
      vertex 1.25 1.33542 1.10858
    endloop
  endfacet
  facet normal 1 0 0
    outer loop
      vertex 1.25 -1.33542 1.10858
      vertex 1.25 1.33542 1.10858
      vertex 1.25 -1.32284 1.13519
    endloop
  endfacet
  facet normal 1 0 0
    outer loop
      vertex 1.25 1.33542 1.10858
      vertex 1.25 -1.33542 1.10858
      vertex 1.25 1.35056 1.08333
    endloop
  endfacet
  facet normal 1 0 0
    outer loop
      vertex 1.25 -1.35056 1.08333
      vertex 1.25 1.35056 1.08333
      vertex 1.25 -1.33542 1.10858
    endloop
  endfacet
  facet normal 1 0 0
    outer loop
      vertex 1.25 1.35056 1.08333
      vertex 1.25 -1.35056 1.08333
      vertex 1.25 1.3681 1.05968
    endloop
  endfacet
  facet normal 1 0 0
    outer loop
      vertex 1.25 -1.3681 1.05968
      vertex 1.25 1.3681 1.05968
      vertex 1.25 -1.35056 1.08333
    endloop
  endfacet
  facet normal 1 0 0
    outer loop
      vertex 1.25 -1.38787 1.03787
      vertex 1.25 1.3681 1.05968
      vertex 1.25 -1.3681 1.05968
    endloop
  endfacet
  facet normal 1 0 0
    outer loop
      vertex 1.25 1.38787 1.03787
      vertex 1.25 -1.38787 1.03787
      vertex 1.25 -1.40968 1.0181
    endloop
  endfacet
  facet normal 1 0 0
    outer loop
      vertex 1.25 1.40968 1.0181
      vertex 1.25 -1.40968 1.0181
      vertex 1.25 -1.43333 1.00056
    endloop
  endfacet
  facet normal 1 0 0
    outer loop
      vertex 1.25 1.43333 1.00056
      vertex 1.25 -1.43333 1.00056
      vertex 1.25 2.3 0
    endloop
  endfacet
  facet normal 1 0 0
    outer loop
      vertex 1.25 -2.3 0
      vertex 1.25 -1.43333 1.00056
      vertex 1.25 -1.45858 0.985423
    endloop
  endfacet
  facet normal 1 0 0
    outer loop
      vertex 1.25 -2.3 0
      vertex 1.25 -1.45858 0.985423
      vertex 1.25 -1.48519 0.972836
    endloop
  endfacet
  facet normal 1 0 0
    outer loop
      vertex 1.25 -2.3 0
      vertex 1.25 -1.48519 0.972836
      vertex 1.25 -1.51291 0.962917
    endloop
  endfacet
  facet normal 1 0 0
    outer loop
      vertex 1.25 -2.3 0
      vertex 1.25 -1.51291 0.962917
      vertex 1.25 -1.54147 0.955764
    endloop
  endfacet
  facet normal 1 0 0
    outer loop
      vertex 1.25 -2.3 0
      vertex 1.25 -1.54147 0.955764
      vertex 1.25 -1.57059 0.951444
    endloop
  endfacet
  facet normal 1 0 0
    outer loop
      vertex 1.25 -2.3 0
      vertex 1.25 -1.57059 0.951444
      vertex 1.25 -1.6 0.95
    endloop
  endfacet
  facet normal 1 0 0
    outer loop
      vertex 1.25 -2.3 0
      vertex 1.25 -1.6 0.95
      vertex 1.25 -1.62941 0.951444
    endloop
  endfacet
  facet normal 1 0 0
    outer loop
      vertex 1.25 -2.3 0
      vertex 1.25 -1.62941 0.951444
      vertex 1.25 -1.65853 0.955764
    endloop
  endfacet
  facet normal 1 0 0
    outer loop
      vertex 1.25 -2.3 0
      vertex 1.25 -1.9 1.25
      vertex 1.25 -2.3 2.5
    endloop
  endfacet
  facet normal 1 0 0
    outer loop
      vertex 1.25 -1.9 1.25
      vertex 1.25 -2.3 0
      vertex 1.25 -1.89855 1.22059
    endloop
  endfacet
  facet normal 1 0 0
    outer loop
      vertex 1.25 -1.89855 1.22059
      vertex 1.25 -2.3 0
      vertex 1.25 -1.89423 1.19147
    endloop
  endfacet
  facet normal 1 0 0
    outer loop
      vertex 1.25 -1.43333 1.00056
      vertex 1.25 -2.3 0
      vertex 1.25 2.3 0
    endloop
  endfacet
  facet normal 1 0 0
    outer loop
      vertex 1.25 -1.68709 0.962917
      vertex 1.25 -2.3 0
      vertex 1.25 -1.65853 0.955764
    endloop
  endfacet
  facet normal 1 0 0
    outer loop
      vertex 1.25 -1.7148 0.972836
      vertex 1.25 -2.3 0
      vertex 1.25 -1.68709 0.962917
    endloop
  endfacet
  facet normal 1 0 0
    outer loop
      vertex 1.25 -1.74142 0.985423
      vertex 1.25 -2.3 0
      vertex 1.25 -1.7148 0.972836
    endloop
  endfacet
  facet normal 1 0 0
    outer loop
      vertex 1.25 -1.76667 1.00056
      vertex 1.25 -2.3 0
      vertex 1.25 -1.74142 0.985423
    endloop
  endfacet
  facet normal 1 0 0
    outer loop
      vertex 1.25 -1.79032 1.0181
      vertex 1.25 -2.3 0
      vertex 1.25 -1.76667 1.00056
    endloop
  endfacet
  facet normal 1 0 0
    outer loop
      vertex 1.25 -1.81213 1.03787
      vertex 1.25 -2.3 0
      vertex 1.25 -1.79032 1.0181
    endloop
  endfacet
  facet normal 1 0 0
    outer loop
      vertex 1.25 -1.8319 1.05968
      vertex 1.25 -2.3 0
      vertex 1.25 -1.81213 1.03787
    endloop
  endfacet
  facet normal 1 0 0
    outer loop
      vertex 1.25 -1.84944 1.08333
      vertex 1.25 -2.3 0
      vertex 1.25 -1.8319 1.05968
    endloop
  endfacet
  facet normal 1 0 0
    outer loop
      vertex 1.25 -1.86458 1.10858
      vertex 1.25 -2.3 0
      vertex 1.25 -1.84944 1.08333
    endloop
  endfacet
  facet normal 1 0 0
    outer loop
      vertex 1.25 -1.87716 1.13519
      vertex 1.25 -2.3 0
      vertex 1.25 -1.86458 1.10858
    endloop
  endfacet
  facet normal 1 0 0
    outer loop
      vertex 1.25 -1.88708 1.16291
      vertex 1.25 -2.3 0
      vertex 1.25 -1.87716 1.13519
    endloop
  endfacet
  facet normal 1 0 0
    outer loop
      vertex 1.25 -1.89423 1.19147
      vertex 1.25 -2.3 0
      vertex 1.25 -1.88708 1.16291
    endloop
  endfacet
  facet normal 0 0.989182 0.146696
    outer loop
      vertex 7.25 -1.30144 1.2794
      vertex 1.25 -1.30576 1.30853
      vertex 7.25 -1.30576 1.30853
    endloop
  endfacet
  facet normal 0 0.989182 0.146696
    outer loop
      vertex 1.25 -1.30576 1.30853
      vertex 7.25 -1.30144 1.2794
      vertex 1.25 -1.30144 1.2794
    endloop
  endfacet
  facet normal 0 0.242951 -0.970039
    outer loop
      vertex 1.25 -1.54147 0.955764
      vertex 7.25 -1.51291 0.962917
      vertex 7.25 -1.54147 0.955764
    endloop
  endfacet
  facet normal 0 0.242951 -0.970039
    outer loop
      vertex 7.25 -1.51291 0.962917
      vertex 1.25 -1.54147 0.955764
      vertex 1.25 -1.51291 0.962917
    endloop
  endfacet
  facet normal 0 -0.0490399 -0.998797
    outer loop
      vertex 1.25 -1.62941 0.951444
      vertex 7.25 -1.6 0.95
      vertex 7.25 -1.62941 0.951444
    endloop
  endfacet
  facet normal -0 -0.0490399 -0.998797
    outer loop
      vertex 7.25 -1.6 0.95
      vertex 1.25 -1.62941 0.951444
      vertex 1.25 -1.6 0.95
    endloop
  endfacet
  facet normal 0 0.941527 0.336939
    outer loop
      vertex 7.25 -1.31292 1.33708
      vertex 1.25 -1.32284 1.3648
      vertex 7.25 -1.32284 1.3648
    endloop
  endfacet
  facet normal 0 0.941527 0.336939
    outer loop
      vertex 1.25 -1.32284 1.3648
      vertex 7.25 -1.31292 1.33708
      vertex 1.25 -1.31292 1.33708
    endloop
  endfacet
  facet normal 0 0.857643 0.514246
    outer loop
      vertex 7.25 -1.33542 1.39142
      vertex 1.25 -1.35056 1.41667
      vertex 7.25 -1.35056 1.41667
    endloop
  endfacet
  facet normal 0 0.857643 0.514246
    outer loop
      vertex 1.25 -1.35056 1.41667
      vertex 7.25 -1.33542 1.39142
      vertex 1.25 -1.33542 1.39142
    endloop
  endfacet
  facet normal 0 -0.941527 0.336939
    outer loop
      vertex 1.25 -1.88708 1.33708
      vertex 7.25 -1.87716 1.3648
      vertex 1.25 -1.87716 1.3648
    endloop
  endfacet
  facet normal 0 -0.941527 0.336939
    outer loop
      vertex 7.25 -1.87716 1.3648
      vertex 1.25 -1.88708 1.33708
      vertex 7.25 -1.88708 1.33708
    endloop
  endfacet
  facet normal 0 0.0490399 -0.998797
    outer loop
      vertex 1.25 -1.6 0.95
      vertex 7.25 -1.57059 0.951444
      vertex 7.25 -1.6 0.95
    endloop
  endfacet
  facet normal 0 0.0490399 -0.998797
    outer loop
      vertex 7.25 -1.57059 0.951444
      vertex 1.25 -1.6 0.95
      vertex 1.25 -1.57059 0.951444
    endloop
  endfacet
  facet normal 0 -0.857643 -0.514246
    outer loop
      vertex 1.25 -1.84944 1.08333
      vertex 7.25 -1.86458 1.10858
      vertex 1.25 -1.86458 1.10858
    endloop
  endfacet
  facet normal 0 -0.857643 -0.514246
    outer loop
      vertex 7.25 -1.86458 1.10858
      vertex 1.25 -1.84944 1.08333
      vertex 7.25 -1.84944 1.08333
    endloop
  endfacet
  facet normal 0 -0.941527 -0.336939
    outer loop
      vertex 1.25 -1.87716 1.13519
      vertex 7.25 -1.88708 1.16291
      vertex 1.25 -1.88708 1.16291
    endloop
  endfacet
  facet normal 0 -0.941527 -0.336939
    outer loop
      vertex 7.25 -1.88708 1.16291
      vertex 1.25 -1.87716 1.13519
      vertex 7.25 -1.87716 1.13519
    endloop
  endfacet
  facet normal 0 -0.671607 0.740908
    outer loop
      vertex 1.25 -1.79032 1.4819
      vertex 7.25 -1.81213 1.46213
      vertex 7.25 -1.79032 1.4819
    endloop
  endfacet
  facet normal 0 -0.671607 0.740908
    outer loop
      vertex 7.25 -1.81213 1.46213
      vertex 1.25 -1.79032 1.4819
      vertex 1.25 -1.81213 1.46213
    endloop
  endfacet
  facet normal 0 0.969962 0.243255
    outer loop
      vertex 7.25 -1.30576 1.30853
      vertex 1.25 -1.31292 1.33708
      vertex 7.25 -1.31292 1.33708
    endloop
  endfacet
  facet normal 0 0.969962 0.243255
    outer loop
      vertex 1.25 -1.31292 1.33708
      vertex 7.25 -1.30576 1.30853
      vertex 1.25 -1.30576 1.30853
    endloop
  endfacet
  facet normal 0 0.904125 0.427269
    outer loop
      vertex 7.25 -1.32284 1.3648
      vertex 1.25 -1.33542 1.39142
      vertex 7.25 -1.33542 1.39142
    endloop
  endfacet
  facet normal 0 0.904125 0.427269
    outer loop
      vertex 1.25 -1.33542 1.39142
      vertex 7.25 -1.32284 1.3648
      vertex 1.25 -1.32284 1.3648
    endloop
  endfacet
  facet normal 0 -0.337047 0.941488
    outer loop
      vertex 1.25 -1.68709 1.53708
      vertex 7.25 -1.7148 1.52716
      vertex 7.25 -1.68709 1.53708
    endloop
  endfacet
  facet normal 0 -0.337047 0.941488
    outer loop
      vertex 7.25 -1.7148 1.52716
      vertex 1.25 -1.68709 1.53708
      vertex 1.25 -1.7148 1.52716
    endloop
  endfacet
  facet normal 0 0.803208 -0.595699
    outer loop
      vertex 7.25 -1.3681 1.05968
      vertex 1.25 -1.35056 1.08333
      vertex 7.25 -1.35056 1.08333
    endloop
  endfacet
  facet normal 0 0.803208 -0.595699
    outer loop
      vertex 1.25 -1.35056 1.08333
      vertex 7.25 -1.3681 1.05968
      vertex 1.25 -1.3681 1.05968
    endloop
  endfacet
  facet normal 0 0.595699 -0.803208
    outer loop
      vertex 1.25 -1.43333 1.00056
      vertex 7.25 -1.40968 1.0181
      vertex 7.25 -1.43333 1.00056
    endloop
  endfacet
  facet normal 0 0.595699 -0.803208
    outer loop
      vertex 7.25 -1.40968 1.0181
      vertex 1.25 -1.43333 1.00056
      vertex 1.25 -1.40968 1.0181
    endloop
  endfacet
  facet normal 0 -0.146746 -0.989174
    outer loop
      vertex 1.25 -1.65853 0.955764
      vertex 7.25 -1.62941 0.951444
      vertex 7.25 -1.65853 0.955764
    endloop
  endfacet
  facet normal -0 -0.146746 -0.989174
    outer loop
      vertex 7.25 -1.62941 0.951444
      vertex 1.25 -1.65853 0.955764
      vertex 1.25 -1.62941 0.951444
    endloop
  endfacet
  facet normal 0 -0.970063 -0.242855
    outer loop
      vertex 1.25 -1.88708 1.16291
      vertex 7.25 -1.89423 1.19147
      vertex 1.25 -1.89423 1.19147
    endloop
  endfacet
  facet normal 0 -0.970063 -0.242855
    outer loop
      vertex 7.25 -1.89423 1.19147
      vertex 1.25 -1.88708 1.16291
      vertex 7.25 -1.88708 1.16291
    endloop
  endfacet
  facet normal 0 -0.243175 0.969982
    outer loop
      vertex 1.25 -1.65853 1.54424
      vertex 7.25 -1.68709 1.53708
      vertex 7.25 -1.65853 1.54424
    endloop
  endfacet
  facet normal 0 -0.243175 0.969982
    outer loop
      vertex 7.25 -1.68709 1.53708
      vertex 1.25 -1.65853 1.54424
      vertex 1.25 -1.68709 1.53708
    endloop
  endfacet
  facet normal -0 0.514246 0.857643
    outer loop
      vertex 1.25 -1.43333 1.49944
      vertex 7.25 -1.45858 1.51458
      vertex 7.25 -1.43333 1.49944
    endloop
  endfacet
  facet normal 0 0.514246 0.857643
    outer loop
      vertex 7.25 -1.45858 1.51458
      vertex 1.25 -1.43333 1.49944
      vertex 1.25 -1.45858 1.51458
    endloop
  endfacet
  facet normal 0 -0.904125 0.427269
    outer loop
      vertex 1.25 -1.87716 1.3648
      vertex 7.25 -1.86458 1.39142
      vertex 1.25 -1.86458 1.39142
    endloop
  endfacet
  facet normal 0 -0.904125 0.427269
    outer loop
      vertex 7.25 -1.86458 1.39142
      vertex 1.25 -1.87716 1.3648
      vertex 7.25 -1.87716 1.3648
    endloop
  endfacet
  facet normal 0 0.740908 -0.671607
    outer loop
      vertex 7.25 -1.38787 1.03787
      vertex 1.25 -1.3681 1.05968
      vertex 7.25 -1.3681 1.05968
    endloop
  endfacet
  facet normal 0 0.740908 -0.671607
    outer loop
      vertex 1.25 -1.3681 1.05968
      vertex 7.25 -1.38787 1.03787
      vertex 1.25 -1.38787 1.03787
    endloop
  endfacet
  facet normal 0 0.427594 -0.903971
    outer loop
      vertex 1.25 -1.48519 0.972836
      vertex 7.25 -1.45858 0.985423
      vertex 7.25 -1.48519 0.972836
    endloop
  endfacet
  facet normal 0 0.427594 -0.903971
    outer loop
      vertex 7.25 -1.45858 0.985423
      vertex 1.25 -1.48519 0.972836
      vertex 1.25 -1.45858 0.985423
    endloop
  endfacet
  facet normal 0 -0.427463 -0.904033
    outer loop
      vertex 1.25 -1.74142 0.985423
      vertex 7.25 -1.7148 0.972836
      vertex 7.25 -1.74142 0.985423
    endloop
  endfacet
  facet normal -0 -0.427463 -0.904033
    outer loop
      vertex 7.25 -1.7148 0.972836
      vertex 1.25 -1.74142 0.985423
      vertex 1.25 -1.7148 0.972836
    endloop
  endfacet
  facet normal 0 -0.514246 0.857643
    outer loop
      vertex 1.25 -1.74142 1.51458
      vertex 7.25 -1.76667 1.49944
      vertex 7.25 -1.74142 1.51458
    endloop
  endfacet
  facet normal 0 -0.514246 0.857643
    outer loop
      vertex 7.25 -1.76667 1.49944
      vertex 1.25 -1.74142 1.51458
      vertex 1.25 -1.76667 1.49944
    endloop
  endfacet
  facet normal 0 -0.242951 -0.970039
    outer loop
      vertex 1.25 -1.68709 0.962917
      vertex 7.25 -1.65853 0.955764
      vertex 7.25 -1.68709 0.962917
    endloop
  endfacet
  facet normal -0 -0.242951 -0.970039
    outer loop
      vertex 7.25 -1.65853 0.955764
      vertex 1.25 -1.68709 0.962917
      vertex 1.25 -1.65853 0.955764
    endloop
  endfacet
  facet normal 0 -0.803208 0.595699
    outer loop
      vertex 1.25 -1.84944 1.41667
      vertex 7.25 -1.8319 1.44032
      vertex 1.25 -1.8319 1.44032
    endloop
  endfacet
  facet normal 0 -0.803208 0.595699
    outer loop
      vertex 7.25 -1.8319 1.44032
      vertex 1.25 -1.84944 1.41667
      vertex 7.25 -1.84944 1.41667
    endloop
  endfacet
  facet normal 0 -0.998787 -0.0492431
    outer loop
      vertex 1.25 -1.89855 1.22059
      vertex 7.25 -1.9 1.25
      vertex 1.25 -1.9 1.25
    endloop
  endfacet
  facet normal 0 -0.998787 -0.0492431
    outer loop
      vertex 7.25 -1.9 1.25
      vertex 1.25 -1.89855 1.22059
      vertex 7.25 -1.89855 1.22059
    endloop
  endfacet
  facet normal 0 0.803208 0.595699
    outer loop
      vertex 7.25 -1.35056 1.41667
      vertex 1.25 -1.3681 1.44032
      vertex 7.25 -1.3681 1.44032
    endloop
  endfacet
  facet normal 0 0.803208 0.595699
    outer loop
      vertex 1.25 -1.3681 1.44032
      vertex 7.25 -1.35056 1.41667
      vertex 1.25 -1.35056 1.41667
    endloop
  endfacet
  facet normal 0 0.904063 -0.4274
    outer loop
      vertex 7.25 -1.33542 1.10858
      vertex 1.25 -1.32284 1.13519
      vertex 7.25 -1.32284 1.13519
    endloop
  endfacet
  facet normal 0 0.904063 -0.4274
    outer loop
      vertex 1.25 -1.32284 1.13519
      vertex 7.25 -1.33542 1.10858
      vertex 1.25 -1.33542 1.10858
    endloop
  endfacet
  facet normal 0 0.146746 -0.989174
    outer loop
      vertex 1.25 -1.57059 0.951444
      vertex 7.25 -1.54147 0.955764
      vertex 7.25 -1.57059 0.951444
    endloop
  endfacet
  facet normal 0 0.146746 -0.989174
    outer loop
      vertex 7.25 -1.54147 0.955764
      vertex 1.25 -1.57059 0.951444
      vertex 1.25 -1.54147 0.955764
    endloop
  endfacet
  facet normal -0 0.146746 0.989174
    outer loop
      vertex 1.25 -1.54147 1.54424
      vertex 7.25 -1.57059 1.54856
      vertex 7.25 -1.54147 1.54424
    endloop
  endfacet
  facet normal 0 0.146746 0.989174
    outer loop
      vertex 7.25 -1.57059 1.54856
      vertex 1.25 -1.54147 1.54424
      vertex 1.25 -1.57059 1.54856
    endloop
  endfacet
  facet normal 0 -0.904063 -0.4274
    outer loop
      vertex 1.25 -1.86458 1.10858
      vertex 7.25 -1.87716 1.13519
      vertex 1.25 -1.87716 1.13519
    endloop
  endfacet
  facet normal 0 -0.904063 -0.4274
    outer loop
      vertex 7.25 -1.87716 1.13519
      vertex 1.25 -1.86458 1.10858
      vertex 7.25 -1.86458 1.10858
    endloop
  endfacet
  facet normal 0 -0.989174 -0.146746
    outer loop
      vertex 1.25 -1.89423 1.19147
      vertex 7.25 -1.89855 1.22059
      vertex 1.25 -1.89855 1.22059
    endloop
  endfacet
  facet normal 0 -0.989174 -0.146746
    outer loop
      vertex 7.25 -1.89855 1.22059
      vertex 1.25 -1.89423 1.19147
      vertex 7.25 -1.89423 1.19147
    endloop
  endfacet
  facet normal 0 0.941527 -0.336939
    outer loop
      vertex 7.25 -1.32284 1.13519
      vertex 1.25 -1.31292 1.16291
      vertex 7.25 -1.31292 1.16291
    endloop
  endfacet
  facet normal 0 0.941527 -0.336939
    outer loop
      vertex 1.25 -1.31292 1.16291
      vertex 7.25 -1.32284 1.13519
      vertex 1.25 -1.32284 1.13519
    endloop
  endfacet
  facet normal 0 0.671607 -0.740908
    outer loop
      vertex 1.25 -1.40968 1.0181
      vertex 7.25 -1.38787 1.03787
      vertex 7.25 -1.40968 1.0181
    endloop
  endfacet
  facet normal 0 0.671607 -0.740908
    outer loop
      vertex 7.25 -1.38787 1.03787
      vertex 1.25 -1.40968 1.0181
      vertex 1.25 -1.38787 1.03787
    endloop
  endfacet
  facet normal 0 -0.427269 0.904125
    outer loop
      vertex 1.25 -1.7148 1.52716
      vertex 7.25 -1.74142 1.51458
      vertex 7.25 -1.7148 1.52716
    endloop
  endfacet
  facet normal 0 -0.427269 0.904125
    outer loop
      vertex 7.25 -1.74142 1.51458
      vertex 1.25 -1.7148 1.52716
      vertex 1.25 -1.74142 1.51458
    endloop
  endfacet
  facet normal 0 -0.998786 0.0492599
    outer loop
      vertex 1.25 -1.9 1.25
      vertex 7.25 -1.89855 1.2794
      vertex 1.25 -1.89855 1.2794
    endloop
  endfacet
  facet normal 0 -0.998786 0.0492599
    outer loop
      vertex 7.25 -1.89855 1.2794
      vertex 1.25 -1.9 1.25
      vertex 7.25 -1.9 1.25
    endloop
  endfacet
  facet normal 0 -0.595699 -0.803208
    outer loop
      vertex 1.25 -1.79032 1.0181
      vertex 7.25 -1.76667 1.00056
      vertex 7.25 -1.79032 1.0181
    endloop
  endfacet
  facet normal -0 -0.595699 -0.803208
    outer loop
      vertex 7.25 -1.76667 1.00056
      vertex 1.25 -1.79032 1.0181
      vertex 1.25 -1.76667 1.00056
    endloop
  endfacet
  facet normal 0 0.336909 -0.941537
    outer loop
      vertex 1.25 -1.51291 0.962917
      vertex 7.25 -1.48519 0.972836
      vertex 7.25 -1.51291 0.962917
    endloop
  endfacet
  facet normal 0 0.336909 -0.941537
    outer loop
      vertex 7.25 -1.48519 0.972836
      vertex 1.25 -1.51291 0.962917
      vertex 1.25 -1.48519 0.972836
    endloop
  endfacet
  facet normal 0 0.857643 -0.514246
    outer loop
      vertex 7.25 -1.35056 1.08333
      vertex 1.25 -1.33542 1.10858
      vertex 7.25 -1.33542 1.10858
    endloop
  endfacet
  facet normal 0 0.857643 -0.514246
    outer loop
      vertex 1.25 -1.33542 1.10858
      vertex 7.25 -1.35056 1.08333
      vertex 1.25 -1.35056 1.08333
    endloop
  endfacet
  facet normal 0 0.740908 0.671607
    outer loop
      vertex 7.25 -1.3681 1.44032
      vertex 1.25 -1.38787 1.46213
      vertex 7.25 -1.38787 1.46213
    endloop
  endfacet
  facet normal 0 0.740908 0.671607
    outer loop
      vertex 1.25 -1.38787 1.46213
      vertex 7.25 -1.3681 1.44032
      vertex 1.25 -1.3681 1.44032
    endloop
  endfacet
  facet normal 0 0.989174 -0.146746
    outer loop
      vertex 7.25 -1.30576 1.19147
      vertex 1.25 -1.30144 1.22059
      vertex 7.25 -1.30144 1.22059
    endloop
  endfacet
  facet normal 0 0.989174 -0.146746
    outer loop
      vertex 1.25 -1.30144 1.22059
      vertex 7.25 -1.30576 1.19147
      vertex 1.25 -1.30576 1.19147
    endloop
  endfacet
  facet normal 0 -0.740908 -0.671607
    outer loop
      vertex 1.25 -1.81213 1.03787
      vertex 7.25 -1.8319 1.05968
      vertex 1.25 -1.8319 1.05968
    endloop
  endfacet
  facet normal 0 -0.740908 -0.671607
    outer loop
      vertex 7.25 -1.8319 1.05968
      vertex 1.25 -1.81213 1.03787
      vertex 7.25 -1.81213 1.03787
    endloop
  endfacet
  facet normal -0 0.243175 0.969982
    outer loop
      vertex 1.25 -1.51291 1.53708
      vertex 7.25 -1.54147 1.54424
      vertex 7.25 -1.51291 1.53708
    endloop
  endfacet
  facet normal 0 0.243175 0.969982
    outer loop
      vertex 7.25 -1.54147 1.54424
      vertex 1.25 -1.51291 1.53708
      vertex 1.25 -1.54147 1.54424
    endloop
  endfacet
  facet normal 0 0.514171 -0.857688
    outer loop
      vertex 1.25 -1.45858 0.985423
      vertex 7.25 -1.43333 1.00056
      vertex 7.25 -1.45858 0.985423
    endloop
  endfacet
  facet normal 0 0.514171 -0.857688
    outer loop
      vertex 7.25 -1.43333 1.00056
      vertex 1.25 -1.45858 0.985423
      vertex 1.25 -1.43333 1.00056
    endloop
  endfacet
  facet normal 0 -0.0489044 0.998803
    outer loop
      vertex 1.25 -1.6 1.55
      vertex 7.25 -1.62941 1.54856
      vertex 7.25 -1.6 1.55
    endloop
  endfacet
  facet normal 0 -0.0489044 0.998803
    outer loop
      vertex 7.25 -1.62941 1.54856
      vertex 1.25 -1.6 1.55
      vertex 1.25 -1.62941 1.54856
    endloop
  endfacet
  facet normal -0 0.0489044 0.998803
    outer loop
      vertex 1.25 -1.57059 1.54856
      vertex 7.25 -1.6 1.55
      vertex 7.25 -1.57059 1.54856
    endloop
  endfacet
  facet normal 0 0.0489044 0.998803
    outer loop
      vertex 7.25 -1.6 1.55
      vertex 1.25 -1.57059 1.54856
      vertex 1.25 -1.6 1.55
    endloop
  endfacet
  facet normal 0 -0.803208 -0.595699
    outer loop
      vertex 1.25 -1.8319 1.05968
      vertex 7.25 -1.84944 1.08333
      vertex 1.25 -1.84944 1.08333
    endloop
  endfacet
  facet normal 0 -0.803208 -0.595699
    outer loop
      vertex 7.25 -1.84944 1.08333
      vertex 1.25 -1.8319 1.05968
      vertex 7.25 -1.8319 1.05968
    endloop
  endfacet
  facet normal 0 -0.595699 0.803208
    outer loop
      vertex 1.25 -1.76667 1.49944
      vertex 7.25 -1.79032 1.4819
      vertex 7.25 -1.76667 1.49944
    endloop
  endfacet
  facet normal 0 -0.595699 0.803208
    outer loop
      vertex 7.25 -1.79032 1.4819
      vertex 1.25 -1.76667 1.49944
      vertex 1.25 -1.79032 1.4819
    endloop
  endfacet
  facet normal 1 0 0
    outer loop
      vertex 7.25 -1.30144 1.2794
      vertex 7.25 -1.30144 1.22059
      vertex 7.25 -1.3 1.25
    endloop
  endfacet
  facet normal 1 0 0
    outer loop
      vertex 7.25 -1.30576 1.30853
      vertex 7.25 -1.30144 1.22059
      vertex 7.25 -1.30144 1.2794
    endloop
  endfacet
  facet normal 1 0 0
    outer loop
      vertex 7.25 -1.30576 1.30853
      vertex 7.25 -1.30576 1.19147
      vertex 7.25 -1.30144 1.22059
    endloop
  endfacet
  facet normal 1 0 0
    outer loop
      vertex 7.25 -1.31292 1.33708
      vertex 7.25 -1.30576 1.19147
      vertex 7.25 -1.30576 1.30853
    endloop
  endfacet
  facet normal 1 0 0
    outer loop
      vertex 7.25 -1.31292 1.33708
      vertex 7.25 -1.31292 1.16291
      vertex 7.25 -1.30576 1.19147
    endloop
  endfacet
  facet normal 1 0 0
    outer loop
      vertex 7.25 -1.32284 1.3648
      vertex 7.25 -1.31292 1.16291
      vertex 7.25 -1.31292 1.33708
    endloop
  endfacet
  facet normal 1 0 0
    outer loop
      vertex 7.25 -1.32284 1.3648
      vertex 7.25 -1.32284 1.13519
      vertex 7.25 -1.31292 1.16291
    endloop
  endfacet
  facet normal 1 0 0
    outer loop
      vertex 7.25 -1.33542 1.39142
      vertex 7.25 -1.32284 1.13519
      vertex 7.25 -1.32284 1.3648
    endloop
  endfacet
  facet normal 1 0 0
    outer loop
      vertex 7.25 -1.33542 1.39142
      vertex 7.25 -1.33542 1.10858
      vertex 7.25 -1.32284 1.13519
    endloop
  endfacet
  facet normal 1 0 0
    outer loop
      vertex 7.25 -1.35056 1.41667
      vertex 7.25 -1.33542 1.10858
      vertex 7.25 -1.33542 1.39142
    endloop
  endfacet
  facet normal 1 0 0
    outer loop
      vertex 7.25 -1.35056 1.41667
      vertex 7.25 -1.35056 1.08333
      vertex 7.25 -1.33542 1.10858
    endloop
  endfacet
  facet normal 1 0 0
    outer loop
      vertex 7.25 -1.3681 1.44032
      vertex 7.25 -1.35056 1.08333
      vertex 7.25 -1.35056 1.41667
    endloop
  endfacet
  facet normal 1 0 0
    outer loop
      vertex 7.25 -1.3681 1.44032
      vertex 7.25 -1.3681 1.05968
      vertex 7.25 -1.35056 1.08333
    endloop
  endfacet
  facet normal 1 0 0
    outer loop
      vertex 7.25 -1.38787 1.46213
      vertex 7.25 -1.3681 1.05968
      vertex 7.25 -1.3681 1.44032
    endloop
  endfacet
  facet normal 1 0 0
    outer loop
      vertex 7.25 -1.38787 1.46213
      vertex 7.25 -1.38787 1.03787
      vertex 7.25 -1.3681 1.05968
    endloop
  endfacet
  facet normal 1 0 0
    outer loop
      vertex 7.25 -1.40968 1.4819
      vertex 7.25 -1.38787 1.03787
      vertex 7.25 -1.38787 1.46213
    endloop
  endfacet
  facet normal 1 0 0
    outer loop
      vertex 7.25 -1.40968 1.4819
      vertex 7.25 -1.40968 1.0181
      vertex 7.25 -1.38787 1.03787
    endloop
  endfacet
  facet normal 1 0 0
    outer loop
      vertex 7.25 -1.43333 1.49944
      vertex 7.25 -1.40968 1.0181
      vertex 7.25 -1.40968 1.4819
    endloop
  endfacet
  facet normal 1 0 0
    outer loop
      vertex 7.25 -1.43333 1.49944
      vertex 7.25 -1.43333 1.00056
      vertex 7.25 -1.40968 1.0181
    endloop
  endfacet
  facet normal 1 0 0
    outer loop
      vertex 7.25 -1.45858 1.51458
      vertex 7.25 -1.43333 1.00056
      vertex 7.25 -1.43333 1.49944
    endloop
  endfacet
  facet normal 1 0 0
    outer loop
      vertex 7.25 -1.45858 1.51458
      vertex 7.25 -1.45858 0.985423
      vertex 7.25 -1.43333 1.00056
    endloop
  endfacet
  facet normal 1 0 0
    outer loop
      vertex 7.25 -1.48519 1.52716
      vertex 7.25 -1.45858 0.985423
      vertex 7.25 -1.45858 1.51458
    endloop
  endfacet
  facet normal 1 0 0
    outer loop
      vertex 7.25 -1.48519 1.52716
      vertex 7.25 -1.48519 0.972836
      vertex 7.25 -1.45858 0.985423
    endloop
  endfacet
  facet normal 1 0 0
    outer loop
      vertex 7.25 -1.51291 1.53708
      vertex 7.25 -1.48519 0.972836
      vertex 7.25 -1.48519 1.52716
    endloop
  endfacet
  facet normal 1 0 0
    outer loop
      vertex 7.25 -1.51291 1.53708
      vertex 7.25 -1.51291 0.962917
      vertex 7.25 -1.48519 0.972836
    endloop
  endfacet
  facet normal 1 0 0
    outer loop
      vertex 7.25 -1.54147 1.54424
      vertex 7.25 -1.51291 0.962917
      vertex 7.25 -1.51291 1.53708
    endloop
  endfacet
  facet normal 1 0 0
    outer loop
      vertex 7.25 -1.54147 1.54424
      vertex 7.25 -1.54147 0.955764
      vertex 7.25 -1.51291 0.962917
    endloop
  endfacet
  facet normal 1 0 0
    outer loop
      vertex 7.25 -1.57059 1.54856
      vertex 7.25 -1.54147 0.955764
      vertex 7.25 -1.54147 1.54424
    endloop
  endfacet
  facet normal 1 0 0
    outer loop
      vertex 7.25 -1.57059 1.54856
      vertex 7.25 -1.57059 0.951444
      vertex 7.25 -1.54147 0.955764
    endloop
  endfacet
  facet normal 1 0 0
    outer loop
      vertex 7.25 -1.6 1.55
      vertex 7.25 -1.57059 0.951444
      vertex 7.25 -1.57059 1.54856
    endloop
  endfacet
  facet normal 1 0 0
    outer loop
      vertex 7.25 -1.6 1.55
      vertex 7.25 -1.6 0.95
      vertex 7.25 -1.57059 0.951444
    endloop
  endfacet
  facet normal 1 -0 0
    outer loop
      vertex 7.25 -1.62941 1.54856
      vertex 7.25 -1.6 0.95
      vertex 7.25 -1.6 1.55
    endloop
  endfacet
  facet normal 1 0 0
    outer loop
      vertex 7.25 -1.62941 1.54856
      vertex 7.25 -1.62941 0.951444
      vertex 7.25 -1.6 0.95
    endloop
  endfacet
  facet normal 1 -0 0
    outer loop
      vertex 7.25 -1.65853 1.54424
      vertex 7.25 -1.62941 0.951444
      vertex 7.25 -1.62941 1.54856
    endloop
  endfacet
  facet normal 1 0 0
    outer loop
      vertex 7.25 -1.65853 1.54424
      vertex 7.25 -1.65853 0.955764
      vertex 7.25 -1.62941 0.951444
    endloop
  endfacet
  facet normal 1 -0 0
    outer loop
      vertex 7.25 -1.68709 1.53708
      vertex 7.25 -1.65853 0.955764
      vertex 7.25 -1.65853 1.54424
    endloop
  endfacet
  facet normal 1 0 0
    outer loop
      vertex 7.25 -1.68709 1.53708
      vertex 7.25 -1.68709 0.962917
      vertex 7.25 -1.65853 0.955764
    endloop
  endfacet
  facet normal 1 -0 0
    outer loop
      vertex 7.25 -1.7148 1.52716
      vertex 7.25 -1.68709 0.962917
      vertex 7.25 -1.68709 1.53708
    endloop
  endfacet
  facet normal 1 0 0
    outer loop
      vertex 7.25 -1.7148 1.52716
      vertex 7.25 -1.7148 0.972836
      vertex 7.25 -1.68709 0.962917
    endloop
  endfacet
  facet normal 1 -0 0
    outer loop
      vertex 7.25 -1.74142 1.51458
      vertex 7.25 -1.7148 0.972836
      vertex 7.25 -1.7148 1.52716
    endloop
  endfacet
  facet normal 1 0 0
    outer loop
      vertex 7.25 -1.74142 1.51458
      vertex 7.25 -1.74142 0.985423
      vertex 7.25 -1.7148 0.972836
    endloop
  endfacet
  facet normal 1 -0 0
    outer loop
      vertex 7.25 -1.76667 1.49944
      vertex 7.25 -1.74142 0.985423
      vertex 7.25 -1.74142 1.51458
    endloop
  endfacet
  facet normal 1 0 0
    outer loop
      vertex 7.25 -1.76667 1.49944
      vertex 7.25 -1.76667 1.00056
      vertex 7.25 -1.74142 0.985423
    endloop
  endfacet
  facet normal 1 -0 0
    outer loop
      vertex 7.25 -1.79032 1.4819
      vertex 7.25 -1.76667 1.00056
      vertex 7.25 -1.76667 1.49944
    endloop
  endfacet
  facet normal 1 0 0
    outer loop
      vertex 7.25 -1.79032 1.4819
      vertex 7.25 -1.79032 1.0181
      vertex 7.25 -1.76667 1.00056
    endloop
  endfacet
  facet normal 1 -0 0
    outer loop
      vertex 7.25 -1.81213 1.46213
      vertex 7.25 -1.79032 1.0181
      vertex 7.25 -1.79032 1.4819
    endloop
  endfacet
  facet normal 1 0 0
    outer loop
      vertex 7.25 -1.81213 1.46213
      vertex 7.25 -1.81213 1.03787
      vertex 7.25 -1.79032 1.0181
    endloop
  endfacet
  facet normal 1 -0 0
    outer loop
      vertex 7.25 -1.8319 1.44032
      vertex 7.25 -1.81213 1.03787
      vertex 7.25 -1.81213 1.46213
    endloop
  endfacet
  facet normal 1 0 0
    outer loop
      vertex 7.25 -1.8319 1.44032
      vertex 7.25 -1.8319 1.05968
      vertex 7.25 -1.81213 1.03787
    endloop
  endfacet
  facet normal 1 -0 0
    outer loop
      vertex 7.25 -1.84944 1.41667
      vertex 7.25 -1.8319 1.05968
      vertex 7.25 -1.8319 1.44032
    endloop
  endfacet
  facet normal 1 0 0
    outer loop
      vertex 7.25 -1.84944 1.41667
      vertex 7.25 -1.84944 1.08333
      vertex 7.25 -1.8319 1.05968
    endloop
  endfacet
  facet normal 1 -0 0
    outer loop
      vertex 7.25 -1.86458 1.39142
      vertex 7.25 -1.84944 1.08333
      vertex 7.25 -1.84944 1.41667
    endloop
  endfacet
  facet normal 1 0 0
    outer loop
      vertex 7.25 -1.86458 1.39142
      vertex 7.25 -1.86458 1.10858
      vertex 7.25 -1.84944 1.08333
    endloop
  endfacet
  facet normal 1 -0 0
    outer loop
      vertex 7.25 -1.87716 1.3648
      vertex 7.25 -1.86458 1.10858
      vertex 7.25 -1.86458 1.39142
    endloop
  endfacet
  facet normal 1 0 0
    outer loop
      vertex 7.25 -1.87716 1.3648
      vertex 7.25 -1.87716 1.13519
      vertex 7.25 -1.86458 1.10858
    endloop
  endfacet
  facet normal 1 -0 0
    outer loop
      vertex 7.25 -1.88708 1.33708
      vertex 7.25 -1.87716 1.13519
      vertex 7.25 -1.87716 1.3648
    endloop
  endfacet
  facet normal 1 0 0
    outer loop
      vertex 7.25 -1.88708 1.33708
      vertex 7.25 -1.88708 1.16291
      vertex 7.25 -1.87716 1.13519
    endloop
  endfacet
  facet normal 1 -0 0
    outer loop
      vertex 7.25 -1.89423 1.30853
      vertex 7.25 -1.88708 1.16291
      vertex 7.25 -1.88708 1.33708
    endloop
  endfacet
  facet normal 1 0 0
    outer loop
      vertex 7.25 -1.89423 1.30853
      vertex 7.25 -1.89423 1.19147
      vertex 7.25 -1.88708 1.16291
    endloop
  endfacet
  facet normal 1 -0 0
    outer loop
      vertex 7.25 -1.89855 1.2794
      vertex 7.25 -1.89423 1.19147
      vertex 7.25 -1.89423 1.30853
    endloop
  endfacet
  facet normal 1 0 0
    outer loop
      vertex 7.25 -1.89855 1.2794
      vertex 7.25 -1.89855 1.22059
      vertex 7.25 -1.89423 1.19147
    endloop
  endfacet
  facet normal 1 0 -0
    outer loop
      vertex 7.25 -1.89855 1.22059
      vertex 7.25 -1.89855 1.2794
      vertex 7.25 -1.9 1.25
    endloop
  endfacet
  facet normal 0 -0.740908 0.671607
    outer loop
      vertex 1.25 -1.8319 1.44032
      vertex 7.25 -1.81213 1.46213
      vertex 1.25 -1.81213 1.46213
    endloop
  endfacet
  facet normal 0 -0.740908 0.671607
    outer loop
      vertex 7.25 -1.81213 1.46213
      vertex 1.25 -1.8319 1.44032
      vertex 7.25 -1.8319 1.44032
    endloop
  endfacet
  facet normal -0 0.671607 0.740908
    outer loop
      vertex 1.25 -1.38787 1.46213
      vertex 7.25 -1.40968 1.4819
      vertex 7.25 -1.38787 1.46213
    endloop
  endfacet
  facet normal 0 0.671607 0.740908
    outer loop
      vertex 7.25 -1.40968 1.4819
      vertex 1.25 -1.38787 1.46213
      vertex 1.25 -1.40968 1.4819
    endloop
  endfacet
  facet normal 0 -0.146746 0.989174
    outer loop
      vertex 1.25 -1.62941 1.54856
      vertex 7.25 -1.65853 1.54424
      vertex 7.25 -1.62941 1.54856
    endloop
  endfacet
  facet normal 0 -0.146746 0.989174
    outer loop
      vertex 7.25 -1.65853 1.54424
      vertex 1.25 -1.62941 1.54856
      vertex 1.25 -1.65853 1.54424
    endloop
  endfacet
  facet normal 0 -0.857643 0.514246
    outer loop
      vertex 1.25 -1.86458 1.39142
      vertex 7.25 -1.84944 1.41667
      vertex 1.25 -1.84944 1.41667
    endloop
  endfacet
  facet normal 0 -0.857643 0.514246
    outer loop
      vertex 7.25 -1.84944 1.41667
      vertex 1.25 -1.86458 1.39142
      vertex 7.25 -1.86458 1.39142
    endloop
  endfacet
  facet normal 0 -0.970042 0.242935
    outer loop
      vertex 1.25 -1.89423 1.30853
      vertex 7.25 -1.88708 1.33708
      vertex 1.25 -1.88708 1.33708
    endloop
  endfacet
  facet normal 0 -0.970042 0.242935
    outer loop
      vertex 7.25 -1.88708 1.33708
      vertex 1.25 -1.89423 1.30853
      vertex 7.25 -1.89423 1.30853
    endloop
  endfacet
  facet normal 0 0.998803 -0.0489044
    outer loop
      vertex 7.25 -1.30144 1.22059
      vertex 1.25 -1.3 1.25
      vertex 7.25 -1.3 1.25
    endloop
  endfacet
  facet normal 0 0.998803 -0.0489044
    outer loop
      vertex 1.25 -1.3 1.25
      vertex 7.25 -1.30144 1.22059
      vertex 1.25 -1.30144 1.22059
    endloop
  endfacet
  facet normal 0 -0.989182 0.146696
    outer loop
      vertex 1.25 -1.89855 1.2794
      vertex 7.25 -1.89423 1.30853
      vertex 1.25 -1.89423 1.30853
    endloop
  endfacet
  facet normal 0 -0.989182 0.146696
    outer loop
      vertex 7.25 -1.89423 1.30853
      vertex 1.25 -1.89855 1.2794
      vertex 7.25 -1.89855 1.2794
    endloop
  endfacet
  facet normal 0 0.998803 0.0489209
    outer loop
      vertex 7.25 -1.3 1.25
      vertex 1.25 -1.30144 1.2794
      vertex 7.25 -1.30144 1.2794
    endloop
  endfacet
  facet normal 0 0.998803 0.0489209
    outer loop
      vertex 1.25 -1.30144 1.2794
      vertex 7.25 -1.3 1.25
      vertex 1.25 -1.3 1.25
    endloop
  endfacet
  facet normal -0 0.4274 0.904063
    outer loop
      vertex 1.25 -1.45858 1.51458
      vertex 7.25 -1.48519 1.52716
      vertex 7.25 -1.45858 1.51458
    endloop
  endfacet
  facet normal 0 0.4274 0.904063
    outer loop
      vertex 7.25 -1.48519 1.52716
      vertex 1.25 -1.45858 1.51458
      vertex 1.25 -1.48519 1.52716
    endloop
  endfacet
  facet normal 0 -0.514171 -0.857688
    outer loop
      vertex 1.25 -1.76667 1.00056
      vertex 7.25 -1.74142 0.985423
      vertex 7.25 -1.76667 1.00056
    endloop
  endfacet
  facet normal -0 -0.514171 -0.857688
    outer loop
      vertex 7.25 -1.74142 0.985423
      vertex 1.25 -1.76667 1.00056
      vertex 1.25 -1.74142 0.985423
    endloop
  endfacet
  facet normal -0 0.336939 0.941527
    outer loop
      vertex 1.25 -1.48519 1.52716
      vertex 7.25 -1.51291 1.53708
      vertex 7.25 -1.48519 1.52716
    endloop
  endfacet
  facet normal 0 0.336939 0.941527
    outer loop
      vertex 7.25 -1.51291 1.53708
      vertex 1.25 -1.48519 1.52716
      vertex 1.25 -1.51291 1.53708
    endloop
  endfacet
  facet normal 0 -0.337016 -0.941499
    outer loop
      vertex 1.25 -1.7148 0.972836
      vertex 7.25 -1.68709 0.962917
      vertex 7.25 -1.7148 0.972836
    endloop
  endfacet
  facet normal -0 -0.337016 -0.941499
    outer loop
      vertex 7.25 -1.68709 0.962917
      vertex 1.25 -1.7148 0.972836
      vertex 1.25 -1.68709 0.962917
    endloop
  endfacet
  facet normal 0 -0.671607 -0.740908
    outer loop
      vertex 1.25 -1.81213 1.03787
      vertex 7.25 -1.79032 1.0181
      vertex 7.25 -1.81213 1.03787
    endloop
  endfacet
  facet normal -0 -0.671607 -0.740908
    outer loop
      vertex 7.25 -1.79032 1.0181
      vertex 1.25 -1.81213 1.03787
      vertex 1.25 -1.79032 1.0181
    endloop
  endfacet
  facet normal 0 0.969982 -0.243175
    outer loop
      vertex 7.25 -1.31292 1.16291
      vertex 1.25 -1.30576 1.19147
      vertex 7.25 -1.30576 1.19147
    endloop
  endfacet
  facet normal 0 0.969982 -0.243175
    outer loop
      vertex 1.25 -1.30576 1.19147
      vertex 7.25 -1.31292 1.16291
      vertex 1.25 -1.31292 1.16291
    endloop
  endfacet
  facet normal -0 0.595699 0.803208
    outer loop
      vertex 1.25 -1.40968 1.4819
      vertex 7.25 -1.43333 1.49944
      vertex 7.25 -1.40968 1.4819
    endloop
  endfacet
  facet normal 0 0.595699 0.803208
    outer loop
      vertex 7.25 -1.43333 1.49944
      vertex 1.25 -1.40968 1.4819
      vertex 1.25 -1.43333 1.49944
    endloop
  endfacet
  facet normal 0 -0.0489044 0.998803
    outer loop
      vertex 1.25 1.6 1.55
      vertex 7.25 1.57059 1.54856
      vertex 7.25 1.6 1.55
    endloop
  endfacet
  facet normal 0 -0.0489044 0.998803
    outer loop
      vertex 7.25 1.57059 1.54856
      vertex 1.25 1.6 1.55
      vertex 1.25 1.57059 1.54856
    endloop
  endfacet
  facet normal 0 0.242951 -0.970039
    outer loop
      vertex 1.25 1.65853 0.955764
      vertex 7.25 1.68709 0.962917
      vertex 7.25 1.65853 0.955764
    endloop
  endfacet
  facet normal 0 0.242951 -0.970039
    outer loop
      vertex 7.25 1.68709 0.962917
      vertex 1.25 1.65853 0.955764
      vertex 1.25 1.68709 0.962917
    endloop
  endfacet
  facet normal 0 -0.941527 -0.336939
    outer loop
      vertex 1.25 1.32284 1.13519
      vertex 7.25 1.31292 1.16291
      vertex 1.25 1.31292 1.16291
    endloop
  endfacet
  facet normal 0 -0.941527 -0.336939
    outer loop
      vertex 7.25 1.31292 1.16291
      vertex 1.25 1.32284 1.13519
      vertex 7.25 1.32284 1.13519
    endloop
  endfacet
  facet normal 0 -0.336939 0.941527
    outer loop
      vertex 1.25 1.51291 1.53708
      vertex 7.25 1.48519 1.52716
      vertex 7.25 1.51291 1.53708
    endloop
  endfacet
  facet normal 0 -0.336939 0.941527
    outer loop
      vertex 7.25 1.48519 1.52716
      vertex 1.25 1.51291 1.53708
      vertex 1.25 1.48519 1.52716
    endloop
  endfacet
  facet normal 0 -0.243175 0.969982
    outer loop
      vertex 1.25 1.54147 1.54424
      vertex 7.25 1.51291 1.53708
      vertex 7.25 1.54147 1.54424
    endloop
  endfacet
  facet normal 0 -0.243175 0.969982
    outer loop
      vertex 7.25 1.51291 1.53708
      vertex 1.25 1.54147 1.54424
      vertex 1.25 1.51291 1.53708
    endloop
  endfacet
  facet normal 0 0.0490399 -0.998797
    outer loop
      vertex 1.25 1.6 0.95
      vertex 7.25 1.62941 0.951444
      vertex 7.25 1.6 0.95
    endloop
  endfacet
  facet normal 0 0.0490399 -0.998797
    outer loop
      vertex 7.25 1.62941 0.951444
      vertex 1.25 1.6 0.95
      vertex 1.25 1.62941 0.951444
    endloop
  endfacet
  facet normal 0 -0.904063 -0.4274
    outer loop
      vertex 1.25 1.33542 1.10858
      vertex 7.25 1.32284 1.13519
      vertex 1.25 1.32284 1.13519
    endloop
  endfacet
  facet normal 0 -0.904063 -0.4274
    outer loop
      vertex 7.25 1.32284 1.13519
      vertex 1.25 1.33542 1.10858
      vertex 7.25 1.33542 1.10858
    endloop
  endfacet
  facet normal 0 0.904125 0.427269
    outer loop
      vertex 7.25 1.87716 1.3648
      vertex 1.25 1.86458 1.39142
      vertex 7.25 1.86458 1.39142
    endloop
  endfacet
  facet normal 0 0.904125 0.427269
    outer loop
      vertex 1.25 1.86458 1.39142
      vertex 7.25 1.87716 1.3648
      vertex 1.25 1.87716 1.3648
    endloop
  endfacet
  facet normal 0 0.671607 -0.740908
    outer loop
      vertex 1.25 1.79032 1.0181
      vertex 7.25 1.81213 1.03787
      vertex 7.25 1.79032 1.0181
    endloop
  endfacet
  facet normal 0 0.671607 -0.740908
    outer loop
      vertex 7.25 1.81213 1.03787
      vertex 1.25 1.79032 1.0181
      vertex 1.25 1.81213 1.03787
    endloop
  endfacet
  facet normal 0 -0.989174 -0.146746
    outer loop
      vertex 1.25 1.30576 1.19147
      vertex 7.25 1.30144 1.22059
      vertex 1.25 1.30144 1.22059
    endloop
  endfacet
  facet normal 0 -0.989174 -0.146746
    outer loop
      vertex 7.25 1.30144 1.22059
      vertex 1.25 1.30576 1.19147
      vertex 7.25 1.30576 1.19147
    endloop
  endfacet
  facet normal 0 -0.904125 0.427269
    outer loop
      vertex 1.25 1.32284 1.3648
      vertex 7.25 1.33542 1.39142
      vertex 1.25 1.33542 1.39142
    endloop
  endfacet
  facet normal 0 -0.904125 0.427269
    outer loop
      vertex 7.25 1.33542 1.39142
      vertex 1.25 1.32284 1.3648
      vertex 7.25 1.32284 1.3648
    endloop
  endfacet
  facet normal -0 0.243175 0.969982
    outer loop
      vertex 1.25 1.68709 1.53708
      vertex 7.25 1.65853 1.54424
      vertex 7.25 1.68709 1.53708
    endloop
  endfacet
  facet normal 0 0.243175 0.969982
    outer loop
      vertex 7.25 1.65853 1.54424
      vertex 1.25 1.68709 1.53708
      vertex 1.25 1.65853 1.54424
    endloop
  endfacet
  facet normal 0 -0.857643 -0.514246
    outer loop
      vertex 1.25 1.35056 1.08333
      vertex 7.25 1.33542 1.10858
      vertex 1.25 1.33542 1.10858
    endloop
  endfacet
  facet normal 0 -0.857643 -0.514246
    outer loop
      vertex 7.25 1.33542 1.10858
      vertex 1.25 1.35056 1.08333
      vertex 7.25 1.35056 1.08333
    endloop
  endfacet
  facet normal 0 0.857643 -0.514246
    outer loop
      vertex 7.25 1.84944 1.08333
      vertex 1.25 1.86458 1.10858
      vertex 7.25 1.86458 1.10858
    endloop
  endfacet
  facet normal 0 0.857643 -0.514246
    outer loop
      vertex 1.25 1.86458 1.10858
      vertex 7.25 1.84944 1.08333
      vertex 1.25 1.84944 1.08333
    endloop
  endfacet
  facet normal 0 -0.857643 0.514246
    outer loop
      vertex 1.25 1.33542 1.39142
      vertex 7.25 1.35056 1.41667
      vertex 1.25 1.35056 1.41667
    endloop
  endfacet
  facet normal 0 -0.857643 0.514246
    outer loop
      vertex 7.25 1.35056 1.41667
      vertex 1.25 1.33542 1.39142
      vertex 7.25 1.33542 1.39142
    endloop
  endfacet
  facet normal 0 -0.595699 -0.803208
    outer loop
      vertex 1.25 1.40968 1.0181
      vertex 7.25 1.43333 1.00056
      vertex 7.25 1.40968 1.0181
    endloop
  endfacet
  facet normal -0 -0.595699 -0.803208
    outer loop
      vertex 7.25 1.43333 1.00056
      vertex 1.25 1.40968 1.0181
      vertex 1.25 1.43333 1.00056
    endloop
  endfacet
  facet normal 0 -0.941527 0.336939
    outer loop
      vertex 1.25 1.31292 1.33708
      vertex 7.25 1.32284 1.3648
      vertex 1.25 1.32284 1.3648
    endloop
  endfacet
  facet normal 0 -0.941527 0.336939
    outer loop
      vertex 7.25 1.32284 1.3648
      vertex 1.25 1.31292 1.33708
      vertex 7.25 1.31292 1.33708
    endloop
  endfacet
  facet normal 0 0.427463 -0.904033
    outer loop
      vertex 1.25 1.7148 0.972836
      vertex 7.25 1.74142 0.985423
      vertex 7.25 1.7148 0.972836
    endloop
  endfacet
  facet normal 0 0.427463 -0.904033
    outer loop
      vertex 7.25 1.74142 0.985423
      vertex 1.25 1.7148 0.972836
      vertex 1.25 1.74142 0.985423
    endloop
  endfacet
  facet normal 0 0.595699 -0.803208
    outer loop
      vertex 1.25 1.76667 1.00056
      vertex 7.25 1.79032 1.0181
      vertex 7.25 1.76667 1.00056
    endloop
  endfacet
  facet normal 0 0.595699 -0.803208
    outer loop
      vertex 7.25 1.79032 1.0181
      vertex 1.25 1.76667 1.00056
      vertex 1.25 1.79032 1.0181
    endloop
  endfacet
  facet normal 0 -0.969962 0.243255
    outer loop
      vertex 1.25 1.30576 1.30853
      vertex 7.25 1.31292 1.33708
      vertex 1.25 1.31292 1.33708
    endloop
  endfacet
  facet normal 0 -0.969962 0.243255
    outer loop
      vertex 7.25 1.31292 1.33708
      vertex 1.25 1.30576 1.30853
      vertex 7.25 1.30576 1.30853
    endloop
  endfacet
  facet normal 0 0.740908 0.671607
    outer loop
      vertex 7.25 1.8319 1.44032
      vertex 1.25 1.81213 1.46213
      vertex 7.25 1.81213 1.46213
    endloop
  endfacet
  facet normal 0 0.740908 0.671607
    outer loop
      vertex 1.25 1.81213 1.46213
      vertex 7.25 1.8319 1.44032
      vertex 1.25 1.8319 1.44032
    endloop
  endfacet
  facet normal -0 0.514246 0.857643
    outer loop
      vertex 1.25 1.76667 1.49944
      vertex 7.25 1.74142 1.51458
      vertex 7.25 1.76667 1.49944
    endloop
  endfacet
  facet normal 0 0.514246 0.857643
    outer loop
      vertex 7.25 1.74142 1.51458
      vertex 1.25 1.76667 1.49944
      vertex 1.25 1.74142 1.51458
    endloop
  endfacet
  facet normal 0 -0.671607 -0.740908
    outer loop
      vertex 1.25 1.38787 1.03787
      vertex 7.25 1.40968 1.0181
      vertex 7.25 1.38787 1.03787
    endloop
  endfacet
  facet normal -0 -0.671607 -0.740908
    outer loop
      vertex 7.25 1.40968 1.0181
      vertex 1.25 1.38787 1.03787
      vertex 1.25 1.40968 1.0181
    endloop
  endfacet
  facet normal 0 -0.0490399 -0.998797
    outer loop
      vertex 1.25 1.57059 0.951444
      vertex 7.25 1.6 0.95
      vertex 7.25 1.57059 0.951444
    endloop
  endfacet
  facet normal -0 -0.0490399 -0.998797
    outer loop
      vertex 7.25 1.6 0.95
      vertex 1.25 1.57059 0.951444
      vertex 1.25 1.6 0.95
    endloop
  endfacet
  facet normal 0 0.740908 -0.671607
    outer loop
      vertex 7.25 1.81213 1.03787
      vertex 1.25 1.8319 1.05968
      vertex 7.25 1.8319 1.05968
    endloop
  endfacet
  facet normal 0 0.740908 -0.671607
    outer loop
      vertex 1.25 1.8319 1.05968
      vertex 7.25 1.81213 1.03787
      vertex 1.25 1.81213 1.03787
    endloop
  endfacet
  facet normal 0 -0.427594 -0.903971
    outer loop
      vertex 1.25 1.45858 0.985423
      vertex 7.25 1.48519 0.972836
      vertex 7.25 1.45858 0.985423
    endloop
  endfacet
  facet normal -0 -0.427594 -0.903971
    outer loop
      vertex 7.25 1.48519 0.972836
      vertex 1.25 1.45858 0.985423
      vertex 1.25 1.48519 0.972836
    endloop
  endfacet
  facet normal 0 0.514171 -0.857688
    outer loop
      vertex 1.25 1.74142 0.985423
      vertex 7.25 1.76667 1.00056
      vertex 7.25 1.74142 0.985423
    endloop
  endfacet
  facet normal 0 0.514171 -0.857688
    outer loop
      vertex 7.25 1.76667 1.00056
      vertex 1.25 1.74142 0.985423
      vertex 1.25 1.76667 1.00056
    endloop
  endfacet
  facet normal 0 0.989174 -0.146746
    outer loop
      vertex 7.25 1.89423 1.19147
      vertex 1.25 1.89855 1.22059
      vertex 7.25 1.89855 1.22059
    endloop
  endfacet
  facet normal 0 0.989174 -0.146746
    outer loop
      vertex 1.25 1.89855 1.22059
      vertex 7.25 1.89423 1.19147
      vertex 1.25 1.89423 1.19147
    endloop
  endfacet
  facet normal 0 0.146746 -0.989174
    outer loop
      vertex 1.25 1.62941 0.951444
      vertex 7.25 1.65853 0.955764
      vertex 7.25 1.62941 0.951444
    endloop
  endfacet
  facet normal 0 0.146746 -0.989174
    outer loop
      vertex 7.25 1.65853 0.955764
      vertex 1.25 1.62941 0.951444
      vertex 1.25 1.65853 0.955764
    endloop
  endfacet
  facet normal 0 0.857643 0.514246
    outer loop
      vertex 7.25 1.86458 1.39142
      vertex 1.25 1.84944 1.41667
      vertex 7.25 1.84944 1.41667
    endloop
  endfacet
  facet normal 0 0.857643 0.514246
    outer loop
      vertex 1.25 1.84944 1.41667
      vertex 7.25 1.86458 1.39142
      vertex 1.25 1.86458 1.39142
    endloop
  endfacet
  facet normal 0 -0.740908 -0.671607
    outer loop
      vertex 1.25 1.38787 1.03787
      vertex 7.25 1.3681 1.05968
      vertex 1.25 1.3681 1.05968
    endloop
  endfacet
  facet normal 0 -0.740908 -0.671607
    outer loop
      vertex 7.25 1.3681 1.05968
      vertex 1.25 1.38787 1.03787
      vertex 7.25 1.38787 1.03787
    endloop
  endfacet
  facet normal 0 0.337016 -0.941499
    outer loop
      vertex 1.25 1.68709 0.962917
      vertex 7.25 1.7148 0.972836
      vertex 7.25 1.68709 0.962917
    endloop
  endfacet
  facet normal 0 0.337016 -0.941499
    outer loop
      vertex 7.25 1.7148 0.972836
      vertex 1.25 1.68709 0.962917
      vertex 1.25 1.7148 0.972836
    endloop
  endfacet
  facet normal 0 -0.242951 -0.970039
    outer loop
      vertex 1.25 1.51291 0.962917
      vertex 7.25 1.54147 0.955764
      vertex 7.25 1.51291 0.962917
    endloop
  endfacet
  facet normal -0 -0.242951 -0.970039
    outer loop
      vertex 7.25 1.54147 0.955764
      vertex 1.25 1.51291 0.962917
      vertex 1.25 1.54147 0.955764
    endloop
  endfacet
  facet normal 0 -0.146746 -0.989174
    outer loop
      vertex 1.25 1.54147 0.955764
      vertex 7.25 1.57059 0.951444
      vertex 7.25 1.54147 0.955764
    endloop
  endfacet
  facet normal -0 -0.146746 -0.989174
    outer loop
      vertex 7.25 1.57059 0.951444
      vertex 1.25 1.54147 0.955764
      vertex 1.25 1.57059 0.951444
    endloop
  endfacet
  facet normal -0 0.671607 0.740908
    outer loop
      vertex 1.25 1.81213 1.46213
      vertex 7.25 1.79032 1.4819
      vertex 7.25 1.81213 1.46213
    endloop
  endfacet
  facet normal 0 0.671607 0.740908
    outer loop
      vertex 7.25 1.79032 1.4819
      vertex 1.25 1.81213 1.46213
      vertex 1.25 1.79032 1.4819
    endloop
  endfacet
  facet normal 0 0.970042 0.242935
    outer loop
      vertex 7.25 1.89423 1.30853
      vertex 1.25 1.88708 1.33708
      vertex 7.25 1.88708 1.33708
    endloop
  endfacet
  facet normal 0 0.970042 0.242935
    outer loop
      vertex 1.25 1.88708 1.33708
      vertex 7.25 1.89423 1.30853
      vertex 1.25 1.89423 1.30853
    endloop
  endfacet
  facet normal 0 0.904063 -0.4274
    outer loop
      vertex 7.25 1.86458 1.10858
      vertex 1.25 1.87716 1.13519
      vertex 7.25 1.87716 1.13519
    endloop
  endfacet
  facet normal 0 0.904063 -0.4274
    outer loop
      vertex 1.25 1.87716 1.13519
      vertex 7.25 1.86458 1.10858
      vertex 1.25 1.86458 1.10858
    endloop
  endfacet
  facet normal 0 -0.998803 -0.0489044
    outer loop
      vertex 1.25 1.30144 1.22059
      vertex 7.25 1.3 1.25
      vertex 1.25 1.3 1.25
    endloop
  endfacet
  facet normal 0 -0.998803 -0.0489044
    outer loop
      vertex 7.25 1.3 1.25
      vertex 1.25 1.30144 1.22059
      vertex 7.25 1.30144 1.22059
    endloop
  endfacet
  facet normal 0 -0.514171 -0.857688
    outer loop
      vertex 1.25 1.43333 1.00056
      vertex 7.25 1.45858 0.985423
      vertex 7.25 1.43333 1.00056
    endloop
  endfacet
  facet normal -0 -0.514171 -0.857688
    outer loop
      vertex 7.25 1.45858 0.985423
      vertex 1.25 1.43333 1.00056
      vertex 1.25 1.45858 0.985423
    endloop
  endfacet
  facet normal -0 0.0489044 0.998803
    outer loop
      vertex 1.25 1.62941 1.54856
      vertex 7.25 1.6 1.55
      vertex 7.25 1.62941 1.54856
    endloop
  endfacet
  facet normal 0 0.0489044 0.998803
    outer loop
      vertex 7.25 1.6 1.55
      vertex 1.25 1.62941 1.54856
      vertex 1.25 1.6 1.55
    endloop
  endfacet
  facet normal 0 -0.336909 -0.941537
    outer loop
      vertex 1.25 1.48519 0.972836
      vertex 7.25 1.51291 0.962917
      vertex 7.25 1.48519 0.972836
    endloop
  endfacet
  facet normal -0 -0.336909 -0.941537
    outer loop
      vertex 7.25 1.51291 0.962917
      vertex 1.25 1.48519 0.972836
      vertex 1.25 1.51291 0.962917
    endloop
  endfacet
  facet normal 0 0.803208 0.595699
    outer loop
      vertex 7.25 1.84944 1.41667
      vertex 1.25 1.8319 1.44032
      vertex 7.25 1.8319 1.44032
    endloop
  endfacet
  facet normal 0 0.803208 0.595699
    outer loop
      vertex 1.25 1.8319 1.44032
      vertex 7.25 1.84944 1.41667
      vertex 1.25 1.84944 1.41667
    endloop
  endfacet
  facet normal 0 -0.989182 0.146696
    outer loop
      vertex 1.25 1.30144 1.2794
      vertex 7.25 1.30576 1.30853
      vertex 1.25 1.30576 1.30853
    endloop
  endfacet
  facet normal 0 -0.989182 0.146696
    outer loop
      vertex 7.25 1.30576 1.30853
      vertex 1.25 1.30144 1.2794
      vertex 7.25 1.30144 1.2794
    endloop
  endfacet
  facet normal 0 0.803208 -0.595699
    outer loop
      vertex 7.25 1.8319 1.05968
      vertex 1.25 1.84944 1.08333
      vertex 7.25 1.84944 1.08333
    endloop
  endfacet
  facet normal 0 0.803208 -0.595699
    outer loop
      vertex 1.25 1.84944 1.08333
      vertex 7.25 1.8319 1.05968
      vertex 1.25 1.8319 1.05968
    endloop
  endfacet
  facet normal 0 0.989182 0.146696
    outer loop
      vertex 7.25 1.89855 1.2794
      vertex 1.25 1.89423 1.30853
      vertex 7.25 1.89423 1.30853
    endloop
  endfacet
  facet normal 0 0.989182 0.146696
    outer loop
      vertex 1.25 1.89423 1.30853
      vertex 7.25 1.89855 1.2794
      vertex 1.25 1.89855 1.2794
    endloop
  endfacet
  facet normal 1 0 0
    outer loop
      vertex 7.25 1.89855 1.2794
      vertex 7.25 1.89855 1.22059
      vertex 7.25 1.9 1.25
    endloop
  endfacet
  facet normal 1 0 0
    outer loop
      vertex 7.25 1.89423 1.30853
      vertex 7.25 1.89855 1.22059
      vertex 7.25 1.89855 1.2794
    endloop
  endfacet
  facet normal 1 0 0
    outer loop
      vertex 7.25 1.89423 1.30853
      vertex 7.25 1.89423 1.19147
      vertex 7.25 1.89855 1.22059
    endloop
  endfacet
  facet normal 1 0 0
    outer loop
      vertex 7.25 1.88708 1.33708
      vertex 7.25 1.89423 1.19147
      vertex 7.25 1.89423 1.30853
    endloop
  endfacet
  facet normal 1 0 0
    outer loop
      vertex 7.25 1.88708 1.33708
      vertex 7.25 1.88708 1.16291
      vertex 7.25 1.89423 1.19147
    endloop
  endfacet
  facet normal 1 0 0
    outer loop
      vertex 7.25 1.87716 1.3648
      vertex 7.25 1.88708 1.16291
      vertex 7.25 1.88708 1.33708
    endloop
  endfacet
  facet normal 1 0 0
    outer loop
      vertex 7.25 1.87716 1.3648
      vertex 7.25 1.87716 1.13519
      vertex 7.25 1.88708 1.16291
    endloop
  endfacet
  facet normal 1 0 0
    outer loop
      vertex 7.25 1.86458 1.39142
      vertex 7.25 1.87716 1.13519
      vertex 7.25 1.87716 1.3648
    endloop
  endfacet
  facet normal 1 0 0
    outer loop
      vertex 7.25 1.86458 1.39142
      vertex 7.25 1.86458 1.10858
      vertex 7.25 1.87716 1.13519
    endloop
  endfacet
  facet normal 1 0 0
    outer loop
      vertex 7.25 1.84944 1.41667
      vertex 7.25 1.86458 1.10858
      vertex 7.25 1.86458 1.39142
    endloop
  endfacet
  facet normal 1 0 0
    outer loop
      vertex 7.25 1.84944 1.41667
      vertex 7.25 1.84944 1.08333
      vertex 7.25 1.86458 1.10858
    endloop
  endfacet
  facet normal 1 0 0
    outer loop
      vertex 7.25 1.8319 1.44032
      vertex 7.25 1.84944 1.08333
      vertex 7.25 1.84944 1.41667
    endloop
  endfacet
  facet normal 1 0 0
    outer loop
      vertex 7.25 1.8319 1.44032
      vertex 7.25 1.8319 1.05968
      vertex 7.25 1.84944 1.08333
    endloop
  endfacet
  facet normal 1 0 0
    outer loop
      vertex 7.25 1.81213 1.46213
      vertex 7.25 1.8319 1.05968
      vertex 7.25 1.8319 1.44032
    endloop
  endfacet
  facet normal 1 0 0
    outer loop
      vertex 7.25 1.81213 1.46213
      vertex 7.25 1.81213 1.03787
      vertex 7.25 1.8319 1.05968
    endloop
  endfacet
  facet normal 1 0 0
    outer loop
      vertex 7.25 1.79032 1.4819
      vertex 7.25 1.81213 1.03787
      vertex 7.25 1.81213 1.46213
    endloop
  endfacet
  facet normal 1 0 0
    outer loop
      vertex 7.25 1.79032 1.4819
      vertex 7.25 1.79032 1.0181
      vertex 7.25 1.81213 1.03787
    endloop
  endfacet
  facet normal 1 0 0
    outer loop
      vertex 7.25 1.76667 1.49944
      vertex 7.25 1.79032 1.0181
      vertex 7.25 1.79032 1.4819
    endloop
  endfacet
  facet normal 1 0 0
    outer loop
      vertex 7.25 1.76667 1.49944
      vertex 7.25 1.76667 1.00056
      vertex 7.25 1.79032 1.0181
    endloop
  endfacet
  facet normal 1 0 0
    outer loop
      vertex 7.25 1.74142 1.51458
      vertex 7.25 1.76667 1.00056
      vertex 7.25 1.76667 1.49944
    endloop
  endfacet
  facet normal 1 0 0
    outer loop
      vertex 7.25 1.74142 1.51458
      vertex 7.25 1.74142 0.985423
      vertex 7.25 1.76667 1.00056
    endloop
  endfacet
  facet normal 1 0 0
    outer loop
      vertex 7.25 1.7148 1.52716
      vertex 7.25 1.74142 0.985423
      vertex 7.25 1.74142 1.51458
    endloop
  endfacet
  facet normal 1 0 0
    outer loop
      vertex 7.25 1.7148 1.52716
      vertex 7.25 1.7148 0.972836
      vertex 7.25 1.74142 0.985423
    endloop
  endfacet
  facet normal 1 0 0
    outer loop
      vertex 7.25 1.68709 1.53708
      vertex 7.25 1.7148 0.972836
      vertex 7.25 1.7148 1.52716
    endloop
  endfacet
  facet normal 1 0 0
    outer loop
      vertex 7.25 1.68709 1.53708
      vertex 7.25 1.68709 0.962917
      vertex 7.25 1.7148 0.972836
    endloop
  endfacet
  facet normal 1 0 0
    outer loop
      vertex 7.25 1.65853 1.54424
      vertex 7.25 1.68709 0.962917
      vertex 7.25 1.68709 1.53708
    endloop
  endfacet
  facet normal 1 0 0
    outer loop
      vertex 7.25 1.65853 1.54424
      vertex 7.25 1.65853 0.955764
      vertex 7.25 1.68709 0.962917
    endloop
  endfacet
  facet normal 1 0 0
    outer loop
      vertex 7.25 1.62941 1.54856
      vertex 7.25 1.65853 0.955764
      vertex 7.25 1.65853 1.54424
    endloop
  endfacet
  facet normal 1 0 0
    outer loop
      vertex 7.25 1.62941 1.54856
      vertex 7.25 1.62941 0.951444
      vertex 7.25 1.65853 0.955764
    endloop
  endfacet
  facet normal 1 0 0
    outer loop
      vertex 7.25 1.6 1.55
      vertex 7.25 1.62941 0.951444
      vertex 7.25 1.62941 1.54856
    endloop
  endfacet
  facet normal 1 0 0
    outer loop
      vertex 7.25 1.6 1.55
      vertex 7.25 1.6 0.95
      vertex 7.25 1.62941 0.951444
    endloop
  endfacet
  facet normal 1 -0 0
    outer loop
      vertex 7.25 1.57059 1.54856
      vertex 7.25 1.6 0.95
      vertex 7.25 1.6 1.55
    endloop
  endfacet
  facet normal 1 0 0
    outer loop
      vertex 7.25 1.57059 1.54856
      vertex 7.25 1.57059 0.951444
      vertex 7.25 1.6 0.95
    endloop
  endfacet
  facet normal 1 -0 0
    outer loop
      vertex 7.25 1.54147 1.54424
      vertex 7.25 1.57059 0.951444
      vertex 7.25 1.57059 1.54856
    endloop
  endfacet
  facet normal 1 0 0
    outer loop
      vertex 7.25 1.54147 1.54424
      vertex 7.25 1.54147 0.955764
      vertex 7.25 1.57059 0.951444
    endloop
  endfacet
  facet normal 1 -0 0
    outer loop
      vertex 7.25 1.51291 1.53708
      vertex 7.25 1.54147 0.955764
      vertex 7.25 1.54147 1.54424
    endloop
  endfacet
  facet normal 1 0 0
    outer loop
      vertex 7.25 1.51291 1.53708
      vertex 7.25 1.51291 0.962917
      vertex 7.25 1.54147 0.955764
    endloop
  endfacet
  facet normal 1 -0 0
    outer loop
      vertex 7.25 1.48519 1.52716
      vertex 7.25 1.51291 0.962917
      vertex 7.25 1.51291 1.53708
    endloop
  endfacet
  facet normal 1 0 0
    outer loop
      vertex 7.25 1.48519 1.52716
      vertex 7.25 1.48519 0.972836
      vertex 7.25 1.51291 0.962917
    endloop
  endfacet
  facet normal 1 -0 0
    outer loop
      vertex 7.25 1.45858 1.51458
      vertex 7.25 1.48519 0.972836
      vertex 7.25 1.48519 1.52716
    endloop
  endfacet
  facet normal 1 0 0
    outer loop
      vertex 7.25 1.45858 1.51458
      vertex 7.25 1.45858 0.985423
      vertex 7.25 1.48519 0.972836
    endloop
  endfacet
  facet normal 1 -0 0
    outer loop
      vertex 7.25 1.43333 1.49944
      vertex 7.25 1.45858 0.985423
      vertex 7.25 1.45858 1.51458
    endloop
  endfacet
  facet normal 1 0 0
    outer loop
      vertex 7.25 1.43333 1.49944
      vertex 7.25 1.43333 1.00056
      vertex 7.25 1.45858 0.985423
    endloop
  endfacet
  facet normal 1 -0 0
    outer loop
      vertex 7.25 1.40968 1.4819
      vertex 7.25 1.43333 1.00056
      vertex 7.25 1.43333 1.49944
    endloop
  endfacet
  facet normal 1 0 0
    outer loop
      vertex 7.25 1.40968 1.4819
      vertex 7.25 1.40968 1.0181
      vertex 7.25 1.43333 1.00056
    endloop
  endfacet
  facet normal 1 -0 0
    outer loop
      vertex 7.25 1.38787 1.46213
      vertex 7.25 1.40968 1.0181
      vertex 7.25 1.40968 1.4819
    endloop
  endfacet
  facet normal 1 0 0
    outer loop
      vertex 7.25 1.38787 1.46213
      vertex 7.25 1.38787 1.03787
      vertex 7.25 1.40968 1.0181
    endloop
  endfacet
  facet normal 1 -0 0
    outer loop
      vertex 7.25 1.3681 1.44032
      vertex 7.25 1.38787 1.03787
      vertex 7.25 1.38787 1.46213
    endloop
  endfacet
  facet normal 1 0 0
    outer loop
      vertex 7.25 1.3681 1.44032
      vertex 7.25 1.3681 1.05968
      vertex 7.25 1.38787 1.03787
    endloop
  endfacet
  facet normal 1 -0 0
    outer loop
      vertex 7.25 1.35056 1.41667
      vertex 7.25 1.3681 1.05968
      vertex 7.25 1.3681 1.44032
    endloop
  endfacet
  facet normal 1 0 0
    outer loop
      vertex 7.25 1.35056 1.41667
      vertex 7.25 1.35056 1.08333
      vertex 7.25 1.3681 1.05968
    endloop
  endfacet
  facet normal 1 -0 0
    outer loop
      vertex 7.25 1.33542 1.39142
      vertex 7.25 1.35056 1.08333
      vertex 7.25 1.35056 1.41667
    endloop
  endfacet
  facet normal 1 0 0
    outer loop
      vertex 7.25 1.33542 1.39142
      vertex 7.25 1.33542 1.10858
      vertex 7.25 1.35056 1.08333
    endloop
  endfacet
  facet normal 1 -0 0
    outer loop
      vertex 7.25 1.32284 1.3648
      vertex 7.25 1.33542 1.10858
      vertex 7.25 1.33542 1.39142
    endloop
  endfacet
  facet normal 1 0 0
    outer loop
      vertex 7.25 1.32284 1.3648
      vertex 7.25 1.32284 1.13519
      vertex 7.25 1.33542 1.10858
    endloop
  endfacet
  facet normal 1 -0 0
    outer loop
      vertex 7.25 1.31292 1.33708
      vertex 7.25 1.32284 1.13519
      vertex 7.25 1.32284 1.3648
    endloop
  endfacet
  facet normal 1 0 0
    outer loop
      vertex 7.25 1.31292 1.33708
      vertex 7.25 1.31292 1.16291
      vertex 7.25 1.32284 1.13519
    endloop
  endfacet
  facet normal 1 -0 0
    outer loop
      vertex 7.25 1.30576 1.30853
      vertex 7.25 1.31292 1.16291
      vertex 7.25 1.31292 1.33708
    endloop
  endfacet
  facet normal 1 0 0
    outer loop
      vertex 7.25 1.30576 1.30853
      vertex 7.25 1.30576 1.19147
      vertex 7.25 1.31292 1.16291
    endloop
  endfacet
  facet normal 1 -0 0
    outer loop
      vertex 7.25 1.30144 1.2794
      vertex 7.25 1.30576 1.19147
      vertex 7.25 1.30576 1.30853
    endloop
  endfacet
  facet normal 1 0 0
    outer loop
      vertex 7.25 1.30144 1.2794
      vertex 7.25 1.30144 1.22059
      vertex 7.25 1.30576 1.19147
    endloop
  endfacet
  facet normal 1 0 -0
    outer loop
      vertex 7.25 1.30144 1.22059
      vertex 7.25 1.30144 1.2794
      vertex 7.25 1.3 1.25
    endloop
  endfacet
  facet normal 0 -0.803208 -0.595699
    outer loop
      vertex 1.25 1.3681 1.05968
      vertex 7.25 1.35056 1.08333
      vertex 1.25 1.35056 1.08333
    endloop
  endfacet
  facet normal 0 -0.803208 -0.595699
    outer loop
      vertex 7.25 1.35056 1.08333
      vertex 1.25 1.3681 1.05968
      vertex 7.25 1.3681 1.05968
    endloop
  endfacet
  facet normal -0 0.427269 0.904125
    outer loop
      vertex 1.25 1.74142 1.51458
      vertex 7.25 1.7148 1.52716
      vertex 7.25 1.74142 1.51458
    endloop
  endfacet
  facet normal 0 0.427269 0.904125
    outer loop
      vertex 7.25 1.7148 1.52716
      vertex 1.25 1.74142 1.51458
      vertex 1.25 1.7148 1.52716
    endloop
  endfacet
  facet normal 0 -0.969982 -0.243175
    outer loop
      vertex 1.25 1.31292 1.16291
      vertex 7.25 1.30576 1.19147
      vertex 1.25 1.30576 1.19147
    endloop
  endfacet
  facet normal 0 -0.969982 -0.243175
    outer loop
      vertex 7.25 1.30576 1.19147
      vertex 1.25 1.31292 1.16291
      vertex 7.25 1.31292 1.16291
    endloop
  endfacet
  facet normal 0 -0.514246 0.857643
    outer loop
      vertex 1.25 1.45858 1.51458
      vertex 7.25 1.43333 1.49944
      vertex 7.25 1.45858 1.51458
    endloop
  endfacet
  facet normal 0 -0.514246 0.857643
    outer loop
      vertex 7.25 1.43333 1.49944
      vertex 1.25 1.45858 1.51458
      vertex 1.25 1.43333 1.49944
    endloop
  endfacet
  facet normal 0 0.941527 0.336939
    outer loop
      vertex 7.25 1.88708 1.33708
      vertex 1.25 1.87716 1.3648
      vertex 7.25 1.87716 1.3648
    endloop
  endfacet
  facet normal 0 0.941527 0.336939
    outer loop
      vertex 1.25 1.87716 1.3648
      vertex 7.25 1.88708 1.33708
      vertex 1.25 1.88708 1.33708
    endloop
  endfacet
  facet normal 0 0.998786 0.0492599
    outer loop
      vertex 7.25 1.9 1.25
      vertex 1.25 1.89855 1.2794
      vertex 7.25 1.89855 1.2794
    endloop
  endfacet
  facet normal 0 0.998786 0.0492599
    outer loop
      vertex 1.25 1.89855 1.2794
      vertex 7.25 1.9 1.25
      vertex 1.25 1.9 1.25
    endloop
  endfacet
  facet normal 0 -0.146746 0.989174
    outer loop
      vertex 1.25 1.57059 1.54856
      vertex 7.25 1.54147 1.54424
      vertex 7.25 1.57059 1.54856
    endloop
  endfacet
  facet normal 0 -0.146746 0.989174
    outer loop
      vertex 7.25 1.54147 1.54424
      vertex 1.25 1.57059 1.54856
      vertex 1.25 1.54147 1.54424
    endloop
  endfacet
  facet normal 0 -0.671607 0.740908
    outer loop
      vertex 1.25 1.40968 1.4819
      vertex 7.25 1.38787 1.46213
      vertex 7.25 1.40968 1.4819
    endloop
  endfacet
  facet normal 0 -0.671607 0.740908
    outer loop
      vertex 7.25 1.38787 1.46213
      vertex 1.25 1.40968 1.4819
      vertex 1.25 1.38787 1.46213
    endloop
  endfacet
  facet normal 0 0.970063 -0.242855
    outer loop
      vertex 7.25 1.88708 1.16291
      vertex 1.25 1.89423 1.19147
      vertex 7.25 1.89423 1.19147
    endloop
  endfacet
  facet normal 0 0.970063 -0.242855
    outer loop
      vertex 1.25 1.89423 1.19147
      vertex 7.25 1.88708 1.16291
      vertex 1.25 1.88708 1.16291
    endloop
  endfacet
  facet normal -0 0.337047 0.941488
    outer loop
      vertex 1.25 1.7148 1.52716
      vertex 7.25 1.68709 1.53708
      vertex 7.25 1.7148 1.52716
    endloop
  endfacet
  facet normal 0 0.337047 0.941488
    outer loop
      vertex 7.25 1.68709 1.53708
      vertex 1.25 1.7148 1.52716
      vertex 1.25 1.68709 1.53708
    endloop
  endfacet
  facet normal 0 -0.595699 0.803208
    outer loop
      vertex 1.25 1.43333 1.49944
      vertex 7.25 1.40968 1.4819
      vertex 7.25 1.43333 1.49944
    endloop
  endfacet
  facet normal 0 -0.595699 0.803208
    outer loop
      vertex 7.25 1.40968 1.4819
      vertex 1.25 1.43333 1.49944
      vertex 1.25 1.40968 1.4819
    endloop
  endfacet
  facet normal 0 0.998787 -0.0492431
    outer loop
      vertex 7.25 1.89855 1.22059
      vertex 1.25 1.9 1.25
      vertex 7.25 1.9 1.25
    endloop
  endfacet
  facet normal 0 0.998787 -0.0492431
    outer loop
      vertex 1.25 1.9 1.25
      vertex 7.25 1.89855 1.22059
      vertex 1.25 1.89855 1.22059
    endloop
  endfacet
  facet normal 0 -0.803208 0.595699
    outer loop
      vertex 1.25 1.35056 1.41667
      vertex 7.25 1.3681 1.44032
      vertex 1.25 1.3681 1.44032
    endloop
  endfacet
  facet normal 0 -0.803208 0.595699
    outer loop
      vertex 7.25 1.3681 1.44032
      vertex 1.25 1.35056 1.41667
      vertex 7.25 1.35056 1.41667
    endloop
  endfacet
  facet normal 0 -0.740908 0.671607
    outer loop
      vertex 1.25 1.3681 1.44032
      vertex 7.25 1.38787 1.46213
      vertex 1.25 1.38787 1.46213
    endloop
  endfacet
  facet normal 0 -0.740908 0.671607
    outer loop
      vertex 7.25 1.38787 1.46213
      vertex 1.25 1.3681 1.44032
      vertex 7.25 1.3681 1.44032
    endloop
  endfacet
  facet normal -0 0.595699 0.803208
    outer loop
      vertex 1.25 1.79032 1.4819
      vertex 7.25 1.76667 1.49944
      vertex 7.25 1.79032 1.4819
    endloop
  endfacet
  facet normal 0 0.595699 0.803208
    outer loop
      vertex 7.25 1.76667 1.49944
      vertex 1.25 1.79032 1.4819
      vertex 1.25 1.76667 1.49944
    endloop
  endfacet
  facet normal 0 -0.998803 0.0489209
    outer loop
      vertex 1.25 1.3 1.25
      vertex 7.25 1.30144 1.2794
      vertex 1.25 1.30144 1.2794
    endloop
  endfacet
  facet normal 0 -0.998803 0.0489209
    outer loop
      vertex 7.25 1.30144 1.2794
      vertex 1.25 1.3 1.25
      vertex 7.25 1.3 1.25
    endloop
  endfacet
  facet normal 0 -0.4274 0.904063
    outer loop
      vertex 1.25 1.48519 1.52716
      vertex 7.25 1.45858 1.51458
      vertex 7.25 1.48519 1.52716
    endloop
  endfacet
  facet normal 0 -0.4274 0.904063
    outer loop
      vertex 7.25 1.45858 1.51458
      vertex 1.25 1.48519 1.52716
      vertex 1.25 1.45858 1.51458
    endloop
  endfacet
  facet normal -0 0.146746 0.989174
    outer loop
      vertex 1.25 1.65853 1.54424
      vertex 7.25 1.62941 1.54856
      vertex 7.25 1.65853 1.54424
    endloop
  endfacet
  facet normal 0 0.146746 0.989174
    outer loop
      vertex 7.25 1.62941 1.54856
      vertex 1.25 1.65853 1.54424
      vertex 1.25 1.62941 1.54856
    endloop
  endfacet
  facet normal 0 0.941527 -0.336939
    outer loop
      vertex 7.25 1.87716 1.13519
      vertex 1.25 1.88708 1.16291
      vertex 7.25 1.88708 1.16291
    endloop
  endfacet
  facet normal 0 0.941527 -0.336939
    outer loop
      vertex 1.25 1.88708 1.16291
      vertex 7.25 1.87716 1.13519
      vertex 1.25 1.87716 1.13519
    endloop
  endfacet
  facet normal -0 0 1
    outer loop
      vertex -1.25 2.3 2.5
      vertex 1.25 -2.3 2.5
      vertex 1.25 2.3 2.5
    endloop
  endfacet
  facet normal 0 0 1
    outer loop
      vertex 1.25 -2.3 2.5
      vertex -1.25 2.3 2.5
      vertex -1.25 -2.3 2.5
    endloop
  endfacet
  facet normal 0 0 -1
    outer loop
      vertex -1.25 -2.3 0
      vertex 1.25 2.3 0
      vertex 1.25 -2.3 0
    endloop
  endfacet
  facet normal -0 0 -1
    outer loop
      vertex 1.25 2.3 0
      vertex -1.25 -2.3 0
      vertex -1.25 2.3 0
    endloop
  endfacet
  facet normal -1 0 0
    outer loop
      vertex -1.25 -2.3 0
      vertex -1.25 2.3 2.5
      vertex -1.25 2.3 0
    endloop
  endfacet
  facet normal -1 -0 0
    outer loop
      vertex -1.25 2.3 2.5
      vertex -1.25 -2.3 0
      vertex -1.25 -2.3 2.5
    endloop
  endfacet
  facet normal 0 1 -0
    outer loop
      vertex 1.25 2.3 0
      vertex -1.25 2.3 2.5
      vertex 1.25 2.3 2.5
    endloop
  endfacet
  facet normal 0 1 0
    outer loop
      vertex -1.25 2.3 2.5
      vertex 1.25 2.3 0
      vertex -1.25 2.3 0
    endloop
  endfacet
  facet normal 0 -1 0
    outer loop
      vertex -1.25 -2.3 0
      vertex 1.25 -2.3 2.5
      vertex -1.25 -2.3 2.5
    endloop
  endfacet
  facet normal 0 -1 -0
    outer loop
      vertex 1.25 -2.3 2.5
      vertex -1.25 -2.3 0
      vertex 1.25 -2.3 0
    endloop
  endfacet
endsolid OpenSCAD_Model
