solid OpenSCAD_Model
  facet normal -0.866025 0.5 0
    outer loop
      vertex -2 0 -0.549999
      vertex -1 1.73205 0.549999
      vertex -1 1.73205 -0.549999
    endloop
  endfacet
  facet normal -0.866025 0.5 0
    outer loop
      vertex -1 1.73205 0.549999
      vertex -2 0 -0.549999
      vertex -2 0 0.549999
    endloop
  endfacet
  facet normal -0 0 -1
    outer loop
      vertex 2 0 -0.799999
      vertex 0.997858 -0.065403 -0.799999
      vertex 1 0 -0.799999
    endloop
  endfacet
  facet normal 0 0 -1
    outer loop
      vertex 2 0 -0.799999
      vertex 0.991445 -0.130526 -0.799999
      vertex 0.997858 -0.065403 -0.799999
    endloop
  endfacet
  facet normal 0 0 -1
    outer loop
      vertex 2 0 -0.799999
      vertex 0.980784 -0.19509 -0.799999
      vertex 0.991445 -0.130526 -0.799999
    endloop
  endfacet
  facet normal 0 0 -1
    outer loop
      vertex 2 0 -0.799999
      vertex 0.965925 -0.258819 -0.799999
      vertex 0.980784 -0.19509 -0.799999
    endloop
  endfacet
  facet normal 0 0 -1
    outer loop
      vertex 2 0 -0.799999
      vertex 0.94693 -0.321439 -0.799999
      vertex 0.965925 -0.258819 -0.799999
    endloop
  endfacet
  facet normal 0 0 -1
    outer loop
      vertex 2 0 -0.799999
      vertex 0.923879 -0.382683 -0.799999
      vertex 0.94693 -0.321439 -0.799999
    endloop
  endfacet
  facet normal 0 0 -1
    outer loop
      vertex 2 0 -0.799999
      vertex 0.896873 -0.442288 -0.799999
      vertex 0.923879 -0.382683 -0.799999
    endloop
  endfacet
  facet normal 0 0 -1
    outer loop
      vertex 2 0 -0.799999
      vertex 0.866025 -0.5 -0.799999
      vertex 0.896873 -0.442288 -0.799999
    endloop
  endfacet
  facet normal 0 0 -1
    outer loop
      vertex 1 -1.73205 -0.799999
      vertex 0.83147 -0.55557 -0.799999
      vertex 0.866025 -0.5 -0.799999
    endloop
  endfacet
  facet normal 0 0 -1
    outer loop
      vertex 1 -1.73205 -0.799999
      vertex 0.793353 -0.608761 -0.799999
      vertex 0.83147 -0.55557 -0.799999
    endloop
  endfacet
  facet normal 0 0 -1
    outer loop
      vertex 1 -1.73205 -0.799999
      vertex 0.75184 -0.659346 -0.799999
      vertex 0.793353 -0.608761 -0.799999
    endloop
  endfacet
  facet normal 0 0 -1
    outer loop
      vertex 1 -1.73205 -0.799999
      vertex 0.707107 -0.707107 -0.799999
      vertex 0.75184 -0.659346 -0.799999
    endloop
  endfacet
  facet normal 0 0 -1
    outer loop
      vertex 1 -1.73205 -0.799999
      vertex 0.659346 -0.75184 -0.799999
      vertex 0.707107 -0.707107 -0.799999
    endloop
  endfacet
  facet normal 0 0 -1
    outer loop
      vertex 1 -1.73205 -0.799999
      vertex 0.608761 -0.793353 -0.799999
      vertex 0.659346 -0.75184 -0.799999
    endloop
  endfacet
  facet normal 0 0 -1
    outer loop
      vertex 1 -1.73205 -0.799999
      vertex 0.55557 -0.83147 -0.799999
      vertex 0.608761 -0.793353 -0.799999
    endloop
  endfacet
  facet normal 0 0 -1
    outer loop
      vertex 1 -1.73205 -0.799999
      vertex 0.5 -0.866025 -0.799999
      vertex 0.55557 -0.83147 -0.799999
    endloop
  endfacet
  facet normal 0 0 -1
    outer loop
      vertex 1 -1.73205 -0.799999
      vertex 0.442288 -0.896873 -0.799999
      vertex 0.5 -0.866025 -0.799999
    endloop
  endfacet
  facet normal 0 0 -1
    outer loop
      vertex 1 -1.73205 -0.799999
      vertex 0.382683 -0.923879 -0.799999
      vertex 0.442288 -0.896873 -0.799999
    endloop
  endfacet
  facet normal 0 0 -1
    outer loop
      vertex 1 -1.73205 -0.799999
      vertex 0.321439 -0.94693 -0.799999
      vertex 0.382683 -0.923879 -0.799999
    endloop
  endfacet
  facet normal 0 0 -1
    outer loop
      vertex 1 -1.73205 -0.799999
      vertex 0.258819 -0.965925 -0.799999
      vertex 0.321439 -0.94693 -0.799999
    endloop
  endfacet
  facet normal 0 0 -1
    outer loop
      vertex 1 -1.73205 -0.799999
      vertex 0.19509 -0.980784 -0.799999
      vertex 0.258819 -0.965925 -0.799999
    endloop
  endfacet
  facet normal 0 0 -1
    outer loop
      vertex 1 -1.73205 -0.799999
      vertex 0.130526 -0.991445 -0.799999
      vertex 0.19509 -0.980784 -0.799999
    endloop
  endfacet
  facet normal 0 0 -1
    outer loop
      vertex 1 -1.73205 -0.799999
      vertex 0.065403 -0.997858 -0.799999
      vertex 0.130526 -0.991445 -0.799999
    endloop
  endfacet
  facet normal 0 0 -1
    outer loop
      vertex 1 -1.73205 -0.799999
      vertex 0 -1 -0.799999
      vertex 0.065403 -0.997858 -0.799999
    endloop
  endfacet
  facet normal 0 0 -1
    outer loop
      vertex -1 -1.73205 -0.799999
      vertex 0 -1 -0.799999
      vertex 1 -1.73205 -0.799999
    endloop
  endfacet
  facet normal -0 0 -1
    outer loop
      vertex 0 -1 -0.799999
      vertex -1 -1.73205 -0.799999
      vertex -0.065403 -0.997858 -0.799999
    endloop
  endfacet
  facet normal -0 0 -1
    outer loop
      vertex -0.065403 -0.997858 -0.799999
      vertex -1 -1.73205 -0.799999
      vertex -0.130526 -0.991445 -0.799999
    endloop
  endfacet
  facet normal -0 0 -1
    outer loop
      vertex -0.130526 -0.991445 -0.799999
      vertex -1 -1.73205 -0.799999
      vertex -0.19509 -0.980784 -0.799999
    endloop
  endfacet
  facet normal -0 0 -1
    outer loop
      vertex -0.19509 -0.980784 -0.799999
      vertex -1 -1.73205 -0.799999
      vertex -0.258819 -0.965925 -0.799999
    endloop
  endfacet
  facet normal -0 0 -1
    outer loop
      vertex -0.258819 -0.965925 -0.799999
      vertex -1 -1.73205 -0.799999
      vertex -0.321439 -0.94693 -0.799999
    endloop
  endfacet
  facet normal -0 0 -1
    outer loop
      vertex -0.321439 -0.94693 -0.799999
      vertex -1 -1.73205 -0.799999
      vertex -0.382683 -0.923879 -0.799999
    endloop
  endfacet
  facet normal -0 0 -1
    outer loop
      vertex -0.382683 -0.923879 -0.799999
      vertex -1 -1.73205 -0.799999
      vertex -0.442288 -0.896873 -0.799999
    endloop
  endfacet
  facet normal -0 0 -1
    outer loop
      vertex -0.442288 -0.896873 -0.799999
      vertex -1 -1.73205 -0.799999
      vertex -0.5 -0.866025 -0.799999
    endloop
  endfacet
  facet normal 0 0 -1
    outer loop
      vertex -1 -1.73205 -0.799999
      vertex -0.55557 -0.83147 -0.799999
      vertex -0.5 -0.866025 -0.799999
    endloop
  endfacet
  facet normal 0 0 -1
    outer loop
      vertex -1 -1.73205 -0.799999
      vertex -0.608761 -0.793353 -0.799999
      vertex -0.55557 -0.83147 -0.799999
    endloop
  endfacet
  facet normal 0 0 -1
    outer loop
      vertex -1 -1.73205 -0.799999
      vertex -0.659346 -0.75184 -0.799999
      vertex -0.608761 -0.793353 -0.799999
    endloop
  endfacet
  facet normal 0 0 -1
    outer loop
      vertex -1 -1.73205 -0.799999
      vertex -0.707107 -0.707107 -0.799999
      vertex -0.659346 -0.75184 -0.799999
    endloop
  endfacet
  facet normal 0 0 -1
    outer loop
      vertex -1 -1.73205 -0.799999
      vertex -0.75184 -0.659346 -0.799999
      vertex -0.707107 -0.707107 -0.799999
    endloop
  endfacet
  facet normal 0 0 -1
    outer loop
      vertex -1 -1.73205 -0.799999
      vertex -0.793353 -0.608761 -0.799999
      vertex -0.75184 -0.659346 -0.799999
    endloop
  endfacet
  facet normal 0 0 -1
    outer loop
      vertex -1 -1.73205 -0.799999
      vertex -0.83147 -0.55557 -0.799999
      vertex -0.793353 -0.608761 -0.799999
    endloop
  endfacet
  facet normal 0 0 -1
    outer loop
      vertex -1 -1.73205 -0.799999
      vertex -0.866025 -0.5 -0.799999
      vertex -0.83147 -0.55557 -0.799999
    endloop
  endfacet
  facet normal 0 0 -1
    outer loop
      vertex -2 0 -0.799999
      vertex -0.866025 -0.5 -0.799999
      vertex -1 -1.73205 -0.799999
    endloop
  endfacet
  facet normal 0 0 -1
    outer loop
      vertex -0.866025 -0.5 -0.799999
      vertex -2 0 -0.799999
      vertex -0.896873 -0.442288 -0.799999
    endloop
  endfacet
  facet normal 0 0 -1
    outer loop
      vertex -0.896873 -0.442288 -0.799999
      vertex -2 0 -0.799999
      vertex -0.923879 -0.382683 -0.799999
    endloop
  endfacet
  facet normal 0 0 -1
    outer loop
      vertex -0.923879 -0.382683 -0.799999
      vertex -2 0 -0.799999
      vertex -0.94693 -0.321439 -0.799999
    endloop
  endfacet
  facet normal 0 0 -1
    outer loop
      vertex -0.94693 -0.321439 -0.799999
      vertex -2 0 -0.799999
      vertex -0.965925 -0.258819 -0.799999
    endloop
  endfacet
  facet normal 0 0 -1
    outer loop
      vertex -0.965925 -0.258819 -0.799999
      vertex -2 0 -0.799999
      vertex -0.980784 -0.19509 -0.799999
    endloop
  endfacet
  facet normal 0 0 -1
    outer loop
      vertex -0.980784 -0.19509 -0.799999
      vertex -2 0 -0.799999
      vertex -0.991445 -0.130526 -0.799999
    endloop
  endfacet
  facet normal 0 0 -1
    outer loop
      vertex -0.991445 -0.130526 -0.799999
      vertex -2 0 -0.799999
      vertex -0.997858 -0.065403 -0.799999
    endloop
  endfacet
  facet normal 0 0 -1
    outer loop
      vertex -0.997858 -0.065403 -0.799999
      vertex -2 0 -0.799999
      vertex -1 0 -0.799999
    endloop
  endfacet
  facet normal 0 0 -1
    outer loop
      vertex -1 0 -0.799999
      vertex -2 0 -0.799999
      vertex -1 1.73205 -0.799999
    endloop
  endfacet
  facet normal 0 0 -1
    outer loop
      vertex 0.866025 -0.5 -0.799999
      vertex 2 0 -0.799999
      vertex 1 -1.73205 -0.799999
    endloop
  endfacet
  facet normal 0 0 -1
    outer loop
      vertex 0.997858 0.065403 -0.799999
      vertex 2 0 -0.799999
      vertex 1 0 -0.799999
    endloop
  endfacet
  facet normal 0 0 -1
    outer loop
      vertex 0.991445 0.130526 -0.799999
      vertex 2 0 -0.799999
      vertex 0.997858 0.065403 -0.799999
    endloop
  endfacet
  facet normal 0 0 -1
    outer loop
      vertex 0.980784 0.19509 -0.799999
      vertex 2 0 -0.799999
      vertex 0.991445 0.130526 -0.799999
    endloop
  endfacet
  facet normal 0 0 -1
    outer loop
      vertex 0.965925 0.258819 -0.799999
      vertex 2 0 -0.799999
      vertex 0.980784 0.19509 -0.799999
    endloop
  endfacet
  facet normal 0 0 -1
    outer loop
      vertex 0.94693 0.321439 -0.799999
      vertex 2 0 -0.799999
      vertex 0.965925 0.258819 -0.799999
    endloop
  endfacet
  facet normal 0 0 -1
    outer loop
      vertex 0.923879 0.382683 -0.799999
      vertex 2 0 -0.799999
      vertex 0.94693 0.321439 -0.799999
    endloop
  endfacet
  facet normal 0 0 -1
    outer loop
      vertex 0.896873 0.442288 -0.799999
      vertex 2 0 -0.799999
      vertex 0.923879 0.382683 -0.799999
    endloop
  endfacet
  facet normal 0 0 -1
    outer loop
      vertex 0.866025 0.5 -0.799999
      vertex 2 0 -0.799999
      vertex 0.896873 0.442288 -0.799999
    endloop
  endfacet
  facet normal 0 0 -1
    outer loop
      vertex 2 0 -0.799999
      vertex 0.866025 0.5 -0.799999
      vertex 1 1.73205 -0.799999
    endloop
  endfacet
  facet normal 0 0 -1
    outer loop
      vertex 0.83147 0.55557 -0.799999
      vertex 1 1.73205 -0.799999
      vertex 0.866025 0.5 -0.799999
    endloop
  endfacet
  facet normal 0 0 -1
    outer loop
      vertex 0.793353 0.608761 -0.799999
      vertex 1 1.73205 -0.799999
      vertex 0.83147 0.55557 -0.799999
    endloop
  endfacet
  facet normal 0 0 -1
    outer loop
      vertex 0.75184 0.659346 -0.799999
      vertex 1 1.73205 -0.799999
      vertex 0.793353 0.608761 -0.799999
    endloop
  endfacet
  facet normal 0 0 -1
    outer loop
      vertex 0.707107 0.707107 -0.799999
      vertex 1 1.73205 -0.799999
      vertex 0.75184 0.659346 -0.799999
    endloop
  endfacet
  facet normal 0 0 -1
    outer loop
      vertex 0.659346 0.75184 -0.799999
      vertex 1 1.73205 -0.799999
      vertex 0.707107 0.707107 -0.799999
    endloop
  endfacet
  facet normal 0 0 -1
    outer loop
      vertex 0.608761 0.793353 -0.799999
      vertex 1 1.73205 -0.799999
      vertex 0.659346 0.75184 -0.799999
    endloop
  endfacet
  facet normal 0 0 -1
    outer loop
      vertex 0.55557 0.83147 -0.799999
      vertex 1 1.73205 -0.799999
      vertex 0.608761 0.793353 -0.799999
    endloop
  endfacet
  facet normal 0 0 -1
    outer loop
      vertex 0.5 0.866025 -0.799999
      vertex 1 1.73205 -0.799999
      vertex 0.55557 0.83147 -0.799999
    endloop
  endfacet
  facet normal 0 0 -1
    outer loop
      vertex 0.442288 0.896873 -0.799999
      vertex 1 1.73205 -0.799999
      vertex 0.5 0.866025 -0.799999
    endloop
  endfacet
  facet normal 0 0 -1
    outer loop
      vertex 0.382683 0.923879 -0.799999
      vertex 1 1.73205 -0.799999
      vertex 0.442288 0.896873 -0.799999
    endloop
  endfacet
  facet normal 0 0 -1
    outer loop
      vertex 0.321439 0.94693 -0.799999
      vertex 1 1.73205 -0.799999
      vertex 0.382683 0.923879 -0.799999
    endloop
  endfacet
  facet normal 0 0 -1
    outer loop
      vertex 0.258819 0.965925 -0.799999
      vertex 1 1.73205 -0.799999
      vertex 0.321439 0.94693 -0.799999
    endloop
  endfacet
  facet normal 0 0 -1
    outer loop
      vertex 0.19509 0.980784 -0.799999
      vertex 1 1.73205 -0.799999
      vertex 0.258819 0.965925 -0.799999
    endloop
  endfacet
  facet normal 0 0 -1
    outer loop
      vertex 0.130526 0.991445 -0.799999
      vertex 1 1.73205 -0.799999
      vertex 0.19509 0.980784 -0.799999
    endloop
  endfacet
  facet normal 0 0 -1
    outer loop
      vertex 0.065403 0.997858 -0.799999
      vertex 1 1.73205 -0.799999
      vertex 0.130526 0.991445 -0.799999
    endloop
  endfacet
  facet normal 0 0 -1
    outer loop
      vertex 0 1 -0.799999
      vertex 1 1.73205 -0.799999
      vertex 0.065403 0.997858 -0.799999
    endloop
  endfacet
  facet normal 0 0 -1
    outer loop
      vertex -1 1.73205 -0.799999
      vertex 0 1 -0.799999
      vertex -0.065403 0.997858 -0.799999
    endloop
  endfacet
  facet normal 0 0 -1
    outer loop
      vertex -1 1.73205 -0.799999
      vertex -0.065403 0.997858 -0.799999
      vertex -0.130526 0.991445 -0.799999
    endloop
  endfacet
  facet normal 0 0 -1
    outer loop
      vertex -1 1.73205 -0.799999
      vertex -0.130526 0.991445 -0.799999
      vertex -0.19509 0.980784 -0.799999
    endloop
  endfacet
  facet normal 0 0 -1
    outer loop
      vertex -1 1.73205 -0.799999
      vertex -0.19509 0.980784 -0.799999
      vertex -0.258819 0.965925 -0.799999
    endloop
  endfacet
  facet normal 0 0 -1
    outer loop
      vertex -1 1.73205 -0.799999
      vertex -0.258819 0.965925 -0.799999
      vertex -0.321439 0.94693 -0.799999
    endloop
  endfacet
  facet normal 0 0 -1
    outer loop
      vertex -1 1.73205 -0.799999
      vertex -0.321439 0.94693 -0.799999
      vertex -0.382683 0.923879 -0.799999
    endloop
  endfacet
  facet normal 0 0 -1
    outer loop
      vertex -1 1.73205 -0.799999
      vertex -0.382683 0.923879 -0.799999
      vertex -0.442288 0.896873 -0.799999
    endloop
  endfacet
  facet normal 0 0 -1
    outer loop
      vertex -1 1.73205 -0.799999
      vertex -0.442288 0.896873 -0.799999
      vertex -0.5 0.866025 -0.799999
    endloop
  endfacet
  facet normal 0 0 -1
    outer loop
      vertex 0 1 -0.799999
      vertex -1 1.73205 -0.799999
      vertex 1 1.73205 -0.799999
    endloop
  endfacet
  facet normal 0 0 -1
    outer loop
      vertex -0.55557 0.83147 -0.799999
      vertex -1 1.73205 -0.799999
      vertex -0.5 0.866025 -0.799999
    endloop
  endfacet
  facet normal 0 0 -1
    outer loop
      vertex -0.608761 0.793353 -0.799999
      vertex -1 1.73205 -0.799999
      vertex -0.55557 0.83147 -0.799999
    endloop
  endfacet
  facet normal 0 0 -1
    outer loop
      vertex -0.659346 0.75184 -0.799999
      vertex -1 1.73205 -0.799999
      vertex -0.608761 0.793353 -0.799999
    endloop
  endfacet
  facet normal 0 0 -1
    outer loop
      vertex -0.707107 0.707107 -0.799999
      vertex -1 1.73205 -0.799999
      vertex -0.659346 0.75184 -0.799999
    endloop
  endfacet
  facet normal 0 0 -1
    outer loop
      vertex -0.75184 0.659346 -0.799999
      vertex -1 1.73205 -0.799999
      vertex -0.707107 0.707107 -0.799999
    endloop
  endfacet
  facet normal 0 0 -1
    outer loop
      vertex -0.793353 0.608761 -0.799999
      vertex -1 1.73205 -0.799999
      vertex -0.75184 0.659346 -0.799999
    endloop
  endfacet
  facet normal 0 0 -1
    outer loop
      vertex -0.83147 0.55557 -0.799999
      vertex -1 1.73205 -0.799999
      vertex -0.793353 0.608761 -0.799999
    endloop
  endfacet
  facet normal 0 0 -1
    outer loop
      vertex -0.866025 0.5 -0.799999
      vertex -1 1.73205 -0.799999
      vertex -0.83147 0.55557 -0.799999
    endloop
  endfacet
  facet normal 0 0 -1
    outer loop
      vertex -0.896873 0.442288 -0.799999
      vertex -1 1.73205 -0.799999
      vertex -0.866025 0.5 -0.799999
    endloop
  endfacet
  facet normal 0 0 -1
    outer loop
      vertex -0.923879 0.382683 -0.799999
      vertex -1 1.73205 -0.799999
      vertex -0.896873 0.442288 -0.799999
    endloop
  endfacet
  facet normal 0 0 -1
    outer loop
      vertex -0.94693 0.321439 -0.799999
      vertex -1 1.73205 -0.799999
      vertex -0.923879 0.382683 -0.799999
    endloop
  endfacet
  facet normal 0 0 -1
    outer loop
      vertex -0.965925 0.258819 -0.799999
      vertex -1 1.73205 -0.799999
      vertex -0.94693 0.321439 -0.799999
    endloop
  endfacet
  facet normal 0 0 -1
    outer loop
      vertex -0.980784 0.19509 -0.799999
      vertex -1 1.73205 -0.799999
      vertex -0.965925 0.258819 -0.799999
    endloop
  endfacet
  facet normal 0 0 -1
    outer loop
      vertex -0.991445 0.130526 -0.799999
      vertex -1 1.73205 -0.799999
      vertex -0.980784 0.19509 -0.799999
    endloop
  endfacet
  facet normal 0 0 -1
    outer loop
      vertex -0.997858 0.065403 -0.799999
      vertex -1 1.73205 -0.799999
      vertex -0.991445 0.130526 -0.799999
    endloop
  endfacet
  facet normal 0 0 -1
    outer loop
      vertex -1 1.73205 -0.799999
      vertex -0.997858 0.065403 -0.799999
      vertex -1 0 -0.799999
    endloop
  endfacet
  facet normal 0.866025 -0.5 0
    outer loop
      vertex 1 -1.73205 0.549999
      vertex 2 0 -0.549999
      vertex 2 0 0.549999
    endloop
  endfacet
  facet normal 0.866025 -0.5 0
    outer loop
      vertex 2 0 -0.549999
      vertex 1 -1.73205 0.549999
      vertex 1 -1.73205 -0.549999
    endloop
  endfacet
  facet normal 0 0 1
    outer loop
      vertex 2 0 0.799999
      vertex 0.997858 0.065403 0.799999
      vertex 1 0 0.799999
    endloop
  endfacet
  facet normal 0 0 1
    outer loop
      vertex 2 0 0.799999
      vertex 0.991445 0.130526 0.799999
      vertex 0.997858 0.065403 0.799999
    endloop
  endfacet
  facet normal 0 0 1
    outer loop
      vertex 2 0 0.799999
      vertex 0.980784 0.19509 0.799999
      vertex 0.991445 0.130526 0.799999
    endloop
  endfacet
  facet normal 0 0 1
    outer loop
      vertex 2 0 0.799999
      vertex 0.965925 0.258819 0.799999
      vertex 0.980784 0.19509 0.799999
    endloop
  endfacet
  facet normal 0 0 1
    outer loop
      vertex 2 0 0.799999
      vertex 0.94693 0.321439 0.799999
      vertex 0.965925 0.258819 0.799999
    endloop
  endfacet
  facet normal 0 0 1
    outer loop
      vertex 2 0 0.799999
      vertex 0.923879 0.382683 0.799999
      vertex 0.94693 0.321439 0.799999
    endloop
  endfacet
  facet normal 0 0 1
    outer loop
      vertex 2 0 0.799999
      vertex 0.896873 0.442288 0.799999
      vertex 0.923879 0.382683 0.799999
    endloop
  endfacet
  facet normal 0 0 1
    outer loop
      vertex 2 0 0.799999
      vertex 0.866025 0.5 0.799999
      vertex 0.896873 0.442288 0.799999
    endloop
  endfacet
  facet normal 0 0 1
    outer loop
      vertex 1 1.73205 0.799999
      vertex 0.83147 0.55557 0.799999
      vertex 0.866025 0.5 0.799999
    endloop
  endfacet
  facet normal 0 0 1
    outer loop
      vertex 1 1.73205 0.799999
      vertex 0.793353 0.608761 0.799999
      vertex 0.83147 0.55557 0.799999
    endloop
  endfacet
  facet normal 0 0 1
    outer loop
      vertex 1 1.73205 0.799999
      vertex 0.75184 0.659346 0.799999
      vertex 0.793353 0.608761 0.799999
    endloop
  endfacet
  facet normal 0 0 1
    outer loop
      vertex 1 1.73205 0.799999
      vertex 0.707107 0.707107 0.799999
      vertex 0.75184 0.659346 0.799999
    endloop
  endfacet
  facet normal 0 0 1
    outer loop
      vertex 1 1.73205 0.799999
      vertex 0.659346 0.75184 0.799999
      vertex 0.707107 0.707107 0.799999
    endloop
  endfacet
  facet normal 0 0 1
    outer loop
      vertex 1 1.73205 0.799999
      vertex 0.608761 0.793353 0.799999
      vertex 0.659346 0.75184 0.799999
    endloop
  endfacet
  facet normal 0 0 1
    outer loop
      vertex 1 1.73205 0.799999
      vertex 0.55557 0.83147 0.799999
      vertex 0.608761 0.793353 0.799999
    endloop
  endfacet
  facet normal 0 0 1
    outer loop
      vertex 1 1.73205 0.799999
      vertex 0.5 0.866025 0.799999
      vertex 0.55557 0.83147 0.799999
    endloop
  endfacet
  facet normal 0 0 1
    outer loop
      vertex 1 1.73205 0.799999
      vertex 0.442288 0.896873 0.799999
      vertex 0.5 0.866025 0.799999
    endloop
  endfacet
  facet normal 0 0 1
    outer loop
      vertex 1 1.73205 0.799999
      vertex 0.382683 0.923879 0.799999
      vertex 0.442288 0.896873 0.799999
    endloop
  endfacet
  facet normal 0 0 1
    outer loop
      vertex 1 1.73205 0.799999
      vertex 0.321439 0.94693 0.799999
      vertex 0.382683 0.923879 0.799999
    endloop
  endfacet
  facet normal 0 0 1
    outer loop
      vertex 1 1.73205 0.799999
      vertex 0.258819 0.965925 0.799999
      vertex 0.321439 0.94693 0.799999
    endloop
  endfacet
  facet normal 0 0 1
    outer loop
      vertex 1 1.73205 0.799999
      vertex 0.19509 0.980784 0.799999
      vertex 0.258819 0.965925 0.799999
    endloop
  endfacet
  facet normal 0 0 1
    outer loop
      vertex 1 1.73205 0.799999
      vertex 0.130526 0.991445 0.799999
      vertex 0.19509 0.980784 0.799999
    endloop
  endfacet
  facet normal 0 0 1
    outer loop
      vertex 1 1.73205 0.799999
      vertex 0.065403 0.997858 0.799999
      vertex 0.130526 0.991445 0.799999
    endloop
  endfacet
  facet normal 0 0 1
    outer loop
      vertex 1 1.73205 0.799999
      vertex 0 1 0.799999
      vertex 0.065403 0.997858 0.799999
    endloop
  endfacet
  facet normal -0 0 1
    outer loop
      vertex -1 1.73205 0.799999
      vertex 0 1 0.799999
      vertex 1 1.73205 0.799999
    endloop
  endfacet
  facet normal 0 0 1
    outer loop
      vertex 0 1 0.799999
      vertex -1 1.73205 0.799999
      vertex -0.065403 0.997858 0.799999
    endloop
  endfacet
  facet normal 0 0 1
    outer loop
      vertex -0.065403 0.997858 0.799999
      vertex -1 1.73205 0.799999
      vertex -0.130526 0.991445 0.799999
    endloop
  endfacet
  facet normal 0 0 1
    outer loop
      vertex -0.130526 0.991445 0.799999
      vertex -1 1.73205 0.799999
      vertex -0.19509 0.980784 0.799999
    endloop
  endfacet
  facet normal 0 0 1
    outer loop
      vertex -0.19509 0.980784 0.799999
      vertex -1 1.73205 0.799999
      vertex -0.258819 0.965925 0.799999
    endloop
  endfacet
  facet normal 0 0 1
    outer loop
      vertex -0.258819 0.965925 0.799999
      vertex -1 1.73205 0.799999
      vertex -0.321439 0.94693 0.799999
    endloop
  endfacet
  facet normal 0 0 1
    outer loop
      vertex -0.321439 0.94693 0.799999
      vertex -1 1.73205 0.799999
      vertex -0.382683 0.923879 0.799999
    endloop
  endfacet
  facet normal 0 0 1
    outer loop
      vertex -0.382683 0.923879 0.799999
      vertex -1 1.73205 0.799999
      vertex -0.442288 0.896873 0.799999
    endloop
  endfacet
  facet normal 0 0 1
    outer loop
      vertex -0.442288 0.896873 0.799999
      vertex -1 1.73205 0.799999
      vertex -0.5 0.866025 0.799999
    endloop
  endfacet
  facet normal 0 0 1
    outer loop
      vertex -1 1.73205 0.799999
      vertex -0.55557 0.83147 0.799999
      vertex -0.5 0.866025 0.799999
    endloop
  endfacet
  facet normal 0 0 1
    outer loop
      vertex -1 1.73205 0.799999
      vertex -0.608761 0.793353 0.799999
      vertex -0.55557 0.83147 0.799999
    endloop
  endfacet
  facet normal 0 0 1
    outer loop
      vertex -1 1.73205 0.799999
      vertex -0.659346 0.75184 0.799999
      vertex -0.608761 0.793353 0.799999
    endloop
  endfacet
  facet normal 0 0 1
    outer loop
      vertex -1 1.73205 0.799999
      vertex -0.707107 0.707107 0.799999
      vertex -0.659346 0.75184 0.799999
    endloop
  endfacet
  facet normal 0 0 1
    outer loop
      vertex -1 1.73205 0.799999
      vertex -0.75184 0.659346 0.799999
      vertex -0.707107 0.707107 0.799999
    endloop
  endfacet
  facet normal 0 0 1
    outer loop
      vertex -1 1.73205 0.799999
      vertex -0.793353 0.608761 0.799999
      vertex -0.75184 0.659346 0.799999
    endloop
  endfacet
  facet normal 0 0 1
    outer loop
      vertex -1 1.73205 0.799999
      vertex -0.83147 0.55557 0.799999
      vertex -0.793353 0.608761 0.799999
    endloop
  endfacet
  facet normal 0 0 1
    outer loop
      vertex -1 1.73205 0.799999
      vertex -0.866025 0.5 0.799999
      vertex -0.83147 0.55557 0.799999
    endloop
  endfacet
  facet normal 0 0 1
    outer loop
      vertex -2 0 0.799999
      vertex -0.866025 0.5 0.799999
      vertex -1 1.73205 0.799999
    endloop
  endfacet
  facet normal 0 0 1
    outer loop
      vertex -0.866025 0.5 0.799999
      vertex -2 0 0.799999
      vertex -0.896873 0.442288 0.799999
    endloop
  endfacet
  facet normal 0 0 1
    outer loop
      vertex -0.896873 0.442288 0.799999
      vertex -2 0 0.799999
      vertex -0.923879 0.382683 0.799999
    endloop
  endfacet
  facet normal 0 0 1
    outer loop
      vertex -0.923879 0.382683 0.799999
      vertex -2 0 0.799999
      vertex -0.94693 0.321439 0.799999
    endloop
  endfacet
  facet normal 0 0 1
    outer loop
      vertex -0.94693 0.321439 0.799999
      vertex -2 0 0.799999
      vertex -0.965925 0.258819 0.799999
    endloop
  endfacet
  facet normal 0 0 1
    outer loop
      vertex -0.965925 0.258819 0.799999
      vertex -2 0 0.799999
      vertex -0.980784 0.19509 0.799999
    endloop
  endfacet
  facet normal 0 0 1
    outer loop
      vertex -0.980784 0.19509 0.799999
      vertex -2 0 0.799999
      vertex -0.991445 0.130526 0.799999
    endloop
  endfacet
  facet normal 0 0 1
    outer loop
      vertex -0.991445 0.130526 0.799999
      vertex -2 0 0.799999
      vertex -0.997858 0.065403 0.799999
    endloop
  endfacet
  facet normal 0 0 1
    outer loop
      vertex -0.997858 0.065403 0.799999
      vertex -2 0 0.799999
      vertex -1 0 0.799999
    endloop
  endfacet
  facet normal 0 0 1
    outer loop
      vertex -1 0 0.799999
      vertex -2 0 0.799999
      vertex -1 -1.73205 0.799999
    endloop
  endfacet
  facet normal -0 0 1
    outer loop
      vertex 0.866025 0.5 0.799999
      vertex 2 0 0.799999
      vertex 1 1.73205 0.799999
    endloop
  endfacet
  facet normal 0 0 1
    outer loop
      vertex 0.997858 -0.065403 0.799999
      vertex 2 0 0.799999
      vertex 1 0 0.799999
    endloop
  endfacet
  facet normal 0 0 1
    outer loop
      vertex 0.991445 -0.130526 0.799999
      vertex 2 0 0.799999
      vertex 0.997858 -0.065403 0.799999
    endloop
  endfacet
  facet normal 0 0 1
    outer loop
      vertex 0.980784 -0.19509 0.799999
      vertex 2 0 0.799999
      vertex 0.991445 -0.130526 0.799999
    endloop
  endfacet
  facet normal 0 0 1
    outer loop
      vertex 0.965925 -0.258819 0.799999
      vertex 2 0 0.799999
      vertex 0.980784 -0.19509 0.799999
    endloop
  endfacet
  facet normal 0 0 1
    outer loop
      vertex 0.94693 -0.321439 0.799999
      vertex 2 0 0.799999
      vertex 0.965925 -0.258819 0.799999
    endloop
  endfacet
  facet normal 0 0 1
    outer loop
      vertex 0.923879 -0.382683 0.799999
      vertex 2 0 0.799999
      vertex 0.94693 -0.321439 0.799999
    endloop
  endfacet
  facet normal 0 0 1
    outer loop
      vertex 0.896873 -0.442288 0.799999
      vertex 2 0 0.799999
      vertex 0.923879 -0.382683 0.799999
    endloop
  endfacet
  facet normal 0 0 1
    outer loop
      vertex 0.866025 -0.5 0.799999
      vertex 2 0 0.799999
      vertex 0.896873 -0.442288 0.799999
    endloop
  endfacet
  facet normal 0 0 1
    outer loop
      vertex 2 0 0.799999
      vertex 0.866025 -0.5 0.799999
      vertex 1 -1.73205 0.799999
    endloop
  endfacet
  facet normal -0 0 1
    outer loop
      vertex 0.83147 -0.55557 0.799999
      vertex 1 -1.73205 0.799999
      vertex 0.866025 -0.5 0.799999
    endloop
  endfacet
  facet normal -0 0 1
    outer loop
      vertex 0.793353 -0.608761 0.799999
      vertex 1 -1.73205 0.799999
      vertex 0.83147 -0.55557 0.799999
    endloop
  endfacet
  facet normal -0 0 1
    outer loop
      vertex 0.75184 -0.659346 0.799999
      vertex 1 -1.73205 0.799999
      vertex 0.793353 -0.608761 0.799999
    endloop
  endfacet
  facet normal -0 0 1
    outer loop
      vertex 0.707107 -0.707107 0.799999
      vertex 1 -1.73205 0.799999
      vertex 0.75184 -0.659346 0.799999
    endloop
  endfacet
  facet normal -0 0 1
    outer loop
      vertex 0.659346 -0.75184 0.799999
      vertex 1 -1.73205 0.799999
      vertex 0.707107 -0.707107 0.799999
    endloop
  endfacet
  facet normal -0 0 1
    outer loop
      vertex 0.608761 -0.793353 0.799999
      vertex 1 -1.73205 0.799999
      vertex 0.659346 -0.75184 0.799999
    endloop
  endfacet
  facet normal -0 0 1
    outer loop
      vertex 0.55557 -0.83147 0.799999
      vertex 1 -1.73205 0.799999
      vertex 0.608761 -0.793353 0.799999
    endloop
  endfacet
  facet normal -0 0 1
    outer loop
      vertex 0.5 -0.866025 0.799999
      vertex 1 -1.73205 0.799999
      vertex 0.55557 -0.83147 0.799999
    endloop
  endfacet
  facet normal -0 0 1
    outer loop
      vertex 0.442288 -0.896873 0.799999
      vertex 1 -1.73205 0.799999
      vertex 0.5 -0.866025 0.799999
    endloop
  endfacet
  facet normal -0 0 1
    outer loop
      vertex 0.382683 -0.923879 0.799999
      vertex 1 -1.73205 0.799999
      vertex 0.442288 -0.896873 0.799999
    endloop
  endfacet
  facet normal -0 0 1
    outer loop
      vertex 0.321439 -0.94693 0.799999
      vertex 1 -1.73205 0.799999
      vertex 0.382683 -0.923879 0.799999
    endloop
  endfacet
  facet normal -0 0 1
    outer loop
      vertex 0.258819 -0.965925 0.799999
      vertex 1 -1.73205 0.799999
      vertex 0.321439 -0.94693 0.799999
    endloop
  endfacet
  facet normal -0 0 1
    outer loop
      vertex 0.19509 -0.980784 0.799999
      vertex 1 -1.73205 0.799999
      vertex 0.258819 -0.965925 0.799999
    endloop
  endfacet
  facet normal -0 0 1
    outer loop
      vertex 0.130526 -0.991445 0.799999
      vertex 1 -1.73205 0.799999
      vertex 0.19509 -0.980784 0.799999
    endloop
  endfacet
  facet normal -0 0 1
    outer loop
      vertex 0.065403 -0.997858 0.799999
      vertex 1 -1.73205 0.799999
      vertex 0.130526 -0.991445 0.799999
    endloop
  endfacet
  facet normal -0 0 1
    outer loop
      vertex 0 -1 0.799999
      vertex 1 -1.73205 0.799999
      vertex 0.065403 -0.997858 0.799999
    endloop
  endfacet
  facet normal 0 0 1
    outer loop
      vertex -1 -1.73205 0.799999
      vertex 0 -1 0.799999
      vertex -0.065403 -0.997858 0.799999
    endloop
  endfacet
  facet normal 0 0 1
    outer loop
      vertex -1 -1.73205 0.799999
      vertex -0.065403 -0.997858 0.799999
      vertex -0.130526 -0.991445 0.799999
    endloop
  endfacet
  facet normal 0 0 1
    outer loop
      vertex -1 -1.73205 0.799999
      vertex -0.130526 -0.991445 0.799999
      vertex -0.19509 -0.980784 0.799999
    endloop
  endfacet
  facet normal 0 0 1
    outer loop
      vertex -1 -1.73205 0.799999
      vertex -0.19509 -0.980784 0.799999
      vertex -0.258819 -0.965925 0.799999
    endloop
  endfacet
  facet normal 0 0 1
    outer loop
      vertex -1 -1.73205 0.799999
      vertex -0.258819 -0.965925 0.799999
      vertex -0.321439 -0.94693 0.799999
    endloop
  endfacet
  facet normal 0 0 1
    outer loop
      vertex -1 -1.73205 0.799999
      vertex -0.321439 -0.94693 0.799999
      vertex -0.382683 -0.923879 0.799999
    endloop
  endfacet
  facet normal 0 0 1
    outer loop
      vertex -1 -1.73205 0.799999
      vertex -0.382683 -0.923879 0.799999
      vertex -0.442288 -0.896873 0.799999
    endloop
  endfacet
  facet normal 0 0 1
    outer loop
      vertex -1 -1.73205 0.799999
      vertex -0.442288 -0.896873 0.799999
      vertex -0.5 -0.866025 0.799999
    endloop
  endfacet
  facet normal 0 0 1
    outer loop
      vertex 0 -1 0.799999
      vertex -1 -1.73205 0.799999
      vertex 1 -1.73205 0.799999
    endloop
  endfacet
  facet normal 0 0 1
    outer loop
      vertex -0.55557 -0.83147 0.799999
      vertex -1 -1.73205 0.799999
      vertex -0.5 -0.866025 0.799999
    endloop
  endfacet
  facet normal 0 0 1
    outer loop
      vertex -0.608761 -0.793353 0.799999
      vertex -1 -1.73205 0.799999
      vertex -0.55557 -0.83147 0.799999
    endloop
  endfacet
  facet normal 0 0 1
    outer loop
      vertex -0.659346 -0.75184 0.799999
      vertex -1 -1.73205 0.799999
      vertex -0.608761 -0.793353 0.799999
    endloop
  endfacet
  facet normal 0 0 1
    outer loop
      vertex -0.707107 -0.707107 0.799999
      vertex -1 -1.73205 0.799999
      vertex -0.659346 -0.75184 0.799999
    endloop
  endfacet
  facet normal 0 0 1
    outer loop
      vertex -0.75184 -0.659346 0.799999
      vertex -1 -1.73205 0.799999
      vertex -0.707107 -0.707107 0.799999
    endloop
  endfacet
  facet normal 0 0 1
    outer loop
      vertex -0.793353 -0.608761 0.799999
      vertex -1 -1.73205 0.799999
      vertex -0.75184 -0.659346 0.799999
    endloop
  endfacet
  facet normal 0 0 1
    outer loop
      vertex -0.83147 -0.55557 0.799999
      vertex -1 -1.73205 0.799999
      vertex -0.793353 -0.608761 0.799999
    endloop
  endfacet
  facet normal 0 0 1
    outer loop
      vertex -0.866025 -0.5 0.799999
      vertex -1 -1.73205 0.799999
      vertex -0.83147 -0.55557 0.799999
    endloop
  endfacet
  facet normal 0 0 1
    outer loop
      vertex -0.896873 -0.442288 0.799999
      vertex -1 -1.73205 0.799999
      vertex -0.866025 -0.5 0.799999
    endloop
  endfacet
  facet normal 0 0 1
    outer loop
      vertex -0.923879 -0.382683 0.799999
      vertex -1 -1.73205 0.799999
      vertex -0.896873 -0.442288 0.799999
    endloop
  endfacet
  facet normal 0 0 1
    outer loop
      vertex -0.94693 -0.321439 0.799999
      vertex -1 -1.73205 0.799999
      vertex -0.923879 -0.382683 0.799999
    endloop
  endfacet
  facet normal 0 0 1
    outer loop
      vertex -0.965925 -0.258819 0.799999
      vertex -1 -1.73205 0.799999
      vertex -0.94693 -0.321439 0.799999
    endloop
  endfacet
  facet normal 0 0 1
    outer loop
      vertex -0.980784 -0.19509 0.799999
      vertex -1 -1.73205 0.799999
      vertex -0.965925 -0.258819 0.799999
    endloop
  endfacet
  facet normal 0 0 1
    outer loop
      vertex -0.991445 -0.130526 0.799999
      vertex -1 -1.73205 0.799999
      vertex -0.980784 -0.19509 0.799999
    endloop
  endfacet
  facet normal 0 0 1
    outer loop
      vertex -0.997858 -0.065403 0.799999
      vertex -1 -1.73205 0.799999
      vertex -0.991445 -0.130526 0.799999
    endloop
  endfacet
  facet normal 0 0 1
    outer loop
      vertex -1 -1.73205 0.799999
      vertex -0.997858 -0.065403 0.799999
      vertex -1 0 0.799999
    endloop
  endfacet
  facet normal 0 1 -0
    outer loop
      vertex 1 1.73205 -0.549999
      vertex -1 1.73205 0.549999
      vertex 1 1.73205 0.549999
    endloop
  endfacet
  facet normal 0 1 0
    outer loop
      vertex -1 1.73205 0.549999
      vertex 1 1.73205 -0.549999
      vertex -1 1.73205 -0.549999
    endloop
  endfacet
  facet normal -0.866025 -0.5 0
    outer loop
      vertex -1 -1.73205 -0.549999
      vertex -2 0 0.549999
      vertex -2 0 -0.549999
    endloop
  endfacet
  facet normal -0.866025 -0.5 0
    outer loop
      vertex -2 0 0.549999
      vertex -1 -1.73205 -0.549999
      vertex -1 -1.73205 0.549999
    endloop
  endfacet
  facet normal 0 -1 0
    outer loop
      vertex -1 -1.73205 -0.549999
      vertex 1 -1.73205 0.549999
      vertex -1 -1.73205 0.549999
    endloop
  endfacet
  facet normal 0 -1 -0
    outer loop
      vertex 1 -1.73205 0.549999
      vertex -1 -1.73205 -0.549999
      vertex 1 -1.73205 -0.549999
    endloop
  endfacet
  facet normal 0.866025 0.5 0
    outer loop
      vertex 2 0 0.549999
      vertex 1 1.73205 -0.549999
      vertex 1 1.73205 0.549999
    endloop
  endfacet
  facet normal 0.866025 0.5 0
    outer loop
      vertex 1 1.73205 -0.549999
      vertex 2 0 0.549999
      vertex 2 0 -0.549999
    endloop
  endfacet
  facet normal 0.446334 0.257691 0.856961
    outer loop
      vertex 2.48 0 0.549999
      vertex 1.24 2.14774 0.549999
      vertex 2 0 0.799999
    endloop
  endfacet
  facet normal -0.446334 -0.257691 0.856961
    outer loop
      vertex -2 0 0.799999
      vertex -2.48 0 0.549999
      vertex -1.24 -2.14774 0.549999
    endloop
  endfacet
  facet normal 0 0.515384 0.856959
    outer loop
      vertex 1.24 2.14774 0.549999
      vertex -1 1.73205 0.799999
      vertex 1 1.73205 0.799999
    endloop
  endfacet
  facet normal 0 0.515384 0.856959
    outer loop
      vertex -1 1.73205 0.799999
      vertex 1.24 2.14774 0.549999
      vertex -1.24 2.14774 0.549999
    endloop
  endfacet
  facet normal -0.446334 0.257691 0.85696
    outer loop
      vertex -1.24 2.14774 0.549999
      vertex -2 0 0.799999
      vertex -1 1.73205 0.799999
    endloop
  endfacet
  facet normal 0.446334 -0.257691 0.856961
    outer loop
      vertex 2 0 0.799999
      vertex 1.24 -2.14774 0.549999
      vertex 2.48 0 0.549999
    endloop
  endfacet
  facet normal -0.446334 0.257691 0.856961
    outer loop
      vertex -1.24 2.14774 0.549999
      vertex -2.48 0 0.549999
      vertex -2 0 0.799999
    endloop
  endfacet
  facet normal 0.446334 0.257691 0.85696
    outer loop
      vertex 1.24 2.14774 0.549999
      vertex 1 1.73205 0.799999
      vertex 2 0 0.799999
    endloop
  endfacet
  facet normal 0 0 -1
    outer loop
      vertex 1.24 -2.14774 0.549999
      vertex 2 0 0.549999
      vertex 2.48 0 0.549999
    endloop
  endfacet
  facet normal 0 0 -1
    outer loop
      vertex 1.24 -2.14774 0.549999
      vertex 1 -1.73205 0.549999
      vertex 2 0 0.549999
    endloop
  endfacet
  facet normal 0 0 -1
    outer loop
      vertex 1.24 -2.14774 0.549999
      vertex -1 -1.73205 0.549999
      vertex 1 -1.73205 0.549999
    endloop
  endfacet
  facet normal 0 0 -1
    outer loop
      vertex -1.24 -2.14774 0.549999
      vertex -1 -1.73205 0.549999
      vertex 1.24 -2.14774 0.549999
    endloop
  endfacet
  facet normal 0 0 -1
    outer loop
      vertex -1.24 -2.14774 0.549999
      vertex -2 0 0.549999
      vertex -1 -1.73205 0.549999
    endloop
  endfacet
  facet normal -0 -0 -1
    outer loop
      vertex -2 0 0.549999
      vertex -1.24 -2.14774 0.549999
      vertex -2.48 0 0.549999
    endloop
  endfacet
  facet normal 0 0 -1
    outer loop
      vertex 2 0 0.549999
      vertex 1.24 2.14774 0.549999
      vertex 2.48 0 0.549999
    endloop
  endfacet
  facet normal 0 0 -1
    outer loop
      vertex 1 1.73205 0.549999
      vertex 1.24 2.14774 0.549999
      vertex 2 0 0.549999
    endloop
  endfacet
  facet normal 0 0 -1
    outer loop
      vertex -1 1.73205 0.549999
      vertex 1.24 2.14774 0.549999
      vertex 1 1.73205 0.549999
    endloop
  endfacet
  facet normal 0 0 -1
    outer loop
      vertex -1 1.73205 0.549999
      vertex -1.24 2.14774 0.549999
      vertex 1.24 2.14774 0.549999
    endloop
  endfacet
  facet normal 0 0 -1
    outer loop
      vertex -2 0 0.549999
      vertex -1.24 2.14774 0.549999
      vertex -1 1.73205 0.549999
    endloop
  endfacet
  facet normal 0 0 -1
    outer loop
      vertex -1.24 2.14774 0.549999
      vertex -2 0 0.549999
      vertex -2.48 0 0.549999
    endloop
  endfacet
  facet normal -0.446334 -0.257691 0.85696
    outer loop
      vertex -1 -1.73205 0.799999
      vertex -2 0 0.799999
      vertex -1.24 -2.14774 0.549999
    endloop
  endfacet
  facet normal 0 -0.515384 0.856959
    outer loop
      vertex -1 -1.73205 0.799999
      vertex 1.24 -2.14774 0.549999
      vertex 1 -1.73205 0.799999
    endloop
  endfacet
  facet normal 0 -0.515384 0.856959
    outer loop
      vertex 1.24 -2.14774 0.549999
      vertex -1 -1.73205 0.799999
      vertex -1.24 -2.14774 0.549999
    endloop
  endfacet
  facet normal 0.446334 -0.257691 0.85696
    outer loop
      vertex 2 0 0.799999
      vertex 1 -1.73205 0.799999
      vertex 1.24 -2.14774 0.549999
    endloop
  endfacet
  facet normal 0.446334 -0.257691 -0.85696
    outer loop
      vertex 1.24 -2.14774 -0.549999
      vertex 1 -1.73205 -0.799999
      vertex 2 0 -0.799999
    endloop
  endfacet
  facet normal 0 -0.515384 -0.856959
    outer loop
      vertex 1.24 -2.14774 -0.549999
      vertex -1 -1.73205 -0.799999
      vertex 1 -1.73205 -0.799999
    endloop
  endfacet
  facet normal 0 -0.515384 -0.856959
    outer loop
      vertex -1 -1.73205 -0.799999
      vertex 1.24 -2.14774 -0.549999
      vertex -1.24 -2.14774 -0.549999
    endloop
  endfacet
  facet normal 0.446334 0.257691 -0.856961
    outer loop
      vertex 2 0 -0.799999
      vertex 1.24 2.14774 -0.549999
      vertex 2.48 0 -0.549999
    endloop
  endfacet
  facet normal 0.446334 0.257691 -0.85696
    outer loop
      vertex 2 0 -0.799999
      vertex 1 1.73205 -0.799999
      vertex 1.24 2.14774 -0.549999
    endloop
  endfacet
  facet normal 0 0 1
    outer loop
      vertex 1.24 2.14774 -0.549999
      vertex 2 0 -0.549999
      vertex 2.48 0 -0.549999
    endloop
  endfacet
  facet normal 0 0 1
    outer loop
      vertex 1.24 2.14774 -0.549999
      vertex 1 1.73205 -0.549999
      vertex 2 0 -0.549999
    endloop
  endfacet
  facet normal 0 0 1
    outer loop
      vertex 1.24 2.14774 -0.549999
      vertex -1 1.73205 -0.549999
      vertex 1 1.73205 -0.549999
    endloop
  endfacet
  facet normal -0 0 1
    outer loop
      vertex -1.24 2.14774 -0.549999
      vertex -1 1.73205 -0.549999
      vertex 1.24 2.14774 -0.549999
    endloop
  endfacet
  facet normal 0 0 1
    outer loop
      vertex -1.24 2.14774 -0.549999
      vertex -2 0 -0.549999
      vertex -1 1.73205 -0.549999
    endloop
  endfacet
  facet normal 0 -0 1
    outer loop
      vertex -2 0 -0.549999
      vertex -1.24 2.14774 -0.549999
      vertex -2.48 0 -0.549999
    endloop
  endfacet
  facet normal -0 0 1
    outer loop
      vertex 2 0 -0.549999
      vertex 1.24 -2.14774 -0.549999
      vertex 2.48 0 -0.549999
    endloop
  endfacet
  facet normal -0 0 1
    outer loop
      vertex 1 -1.73205 -0.549999
      vertex 1.24 -2.14774 -0.549999
      vertex 2 0 -0.549999
    endloop
  endfacet
  facet normal -0 0 1
    outer loop
      vertex -1 -1.73205 -0.549999
      vertex 1.24 -2.14774 -0.549999
      vertex 1 -1.73205 -0.549999
    endloop
  endfacet
  facet normal 0 0 1
    outer loop
      vertex -1 -1.73205 -0.549999
      vertex -1.24 -2.14774 -0.549999
      vertex 1.24 -2.14774 -0.549999
    endloop
  endfacet
  facet normal 0 0 1
    outer loop
      vertex -2 0 -0.549999
      vertex -1.24 -2.14774 -0.549999
      vertex -1 -1.73205 -0.549999
    endloop
  endfacet
  facet normal 0 0 1
    outer loop
      vertex -1.24 -2.14774 -0.549999
      vertex -2 0 -0.549999
      vertex -2.48 0 -0.549999
    endloop
  endfacet
  facet normal 0.446334 -0.257691 -0.856961
    outer loop
      vertex 2.48 0 -0.549999
      vertex 1.24 -2.14774 -0.549999
      vertex 2 0 -0.799999
    endloop
  endfacet
  facet normal -0.446334 0.257691 -0.856961
    outer loop
      vertex -2 0 -0.799999
      vertex -2.48 0 -0.549999
      vertex -1.24 2.14774 -0.549999
    endloop
  endfacet
  facet normal -0.446334 -0.257691 -0.856961
    outer loop
      vertex -1.24 -2.14774 -0.549999
      vertex -2.48 0 -0.549999
      vertex -2 0 -0.799999
    endloop
  endfacet
  facet normal -0.446334 -0.257691 -0.85696
    outer loop
      vertex -1.24 -2.14774 -0.549999
      vertex -2 0 -0.799999
      vertex -1 -1.73205 -0.799999
    endloop
  endfacet
  facet normal 0 0.515384 -0.856959
    outer loop
      vertex -1 1.73205 -0.799999
      vertex 1.24 2.14774 -0.549999
      vertex 1 1.73205 -0.799999
    endloop
  endfacet
  facet normal 0 0.515384 -0.856959
    outer loop
      vertex 1.24 2.14774 -0.549999
      vertex -1 1.73205 -0.799999
      vertex -1.24 2.14774 -0.549999
    endloop
  endfacet
  facet normal -0.446334 0.257691 -0.85696
    outer loop
      vertex -1 1.73205 -0.799999
      vertex -2 0 -0.799999
      vertex -1.24 2.14774 -0.549999
    endloop
  endfacet
  facet normal 0.98664 0.162917 0
    outer loop
      vertex -0.980784 -0.19509 0.799999
      vertex -0.991445 -0.130526 -0.799999
      vertex -0.991445 -0.130526 0.799999
    endloop
  endfacet
  facet normal 0.98664 0.162917 0
    outer loop
      vertex -0.991445 -0.130526 -0.799999
      vertex -0.980784 -0.19509 0.799999
      vertex -0.980784 -0.19509 -0.799999
    endloop
  endfacet
  facet normal -0.0327332 0.999464 0
    outer loop
      vertex 0.065403 -0.997858 -0.799999
      vertex 0 -1 0.799999
      vertex 0.065403 -0.997858 0.799999
    endloop
  endfacet
  facet normal -0.0327332 0.999464 0
    outer loop
      vertex 0 -1 0.799999
      vertex 0.065403 -0.997858 -0.799999
      vertex 0 -1 -0.799999
    endloop
  endfacet
  facet normal -0.4714 -0.881919 0
    outer loop
      vertex 0.442288 0.896873 -0.799999
      vertex 0.5 0.866025 0.799999
      vertex 0.442288 0.896873 0.799999
    endloop
  endfacet
  facet normal -0.4714 -0.881919 -0
    outer loop
      vertex 0.5 0.866025 0.799999
      vertex 0.442288 0.896873 -0.799999
      vertex 0.5 0.866025 -0.799999
    endloop
  endfacet
  facet normal 0.227069 0.973879 -0
    outer loop
      vertex -0.19509 -0.980784 -0.799999
      vertex -0.258819 -0.965925 0.799999
      vertex -0.19509 -0.980784 0.799999
    endloop
  endfacet
  facet normal 0.227069 0.973879 0
    outer loop
      vertex -0.258819 -0.965925 0.799999
      vertex -0.19509 -0.980784 -0.799999
      vertex -0.258819 -0.965925 -0.799999
    endloop
  endfacet
  facet normal 0.0327332 -0.999464 0
    outer loop
      vertex -0.065403 0.997858 -0.799999
      vertex 0 1 0.799999
      vertex -0.065403 0.997858 0.799999
    endloop
  endfacet
  facet normal 0.0327332 -0.999464 0
    outer loop
      vertex 0 1 0.799999
      vertex -0.065403 0.997858 -0.799999
      vertex 0 1 -0.799999
    endloop
  endfacet
  facet normal 0.849207 -0.528061 0
    outer loop
      vertex -0.866025 0.5 0.799999
      vertex -0.83147 0.55557 -0.799999
      vertex -0.83147 0.55557 0.799999
    endloop
  endfacet
  facet normal 0.849207 -0.528061 0
    outer loop
      vertex -0.83147 0.55557 -0.799999
      vertex -0.866025 0.5 0.799999
      vertex -0.866025 0.5 -0.799999
    endloop
  endfacet
  facet normal 0.956943 -0.290277 0
    outer loop
      vertex -0.965925 0.258819 0.799999
      vertex -0.94693 0.321439 -0.799999
      vertex -0.94693 0.321439 0.799999
    endloop
  endfacet
  facet normal 0.956943 -0.290277 0
    outer loop
      vertex -0.94693 0.321439 -0.799999
      vertex -0.965925 0.258819 0.799999
      vertex -0.965925 0.258819 -0.799999
    endloop
  endfacet
  facet normal 0.290277 0.956943 -0
    outer loop
      vertex -0.258819 -0.965925 -0.799999
      vertex -0.321439 -0.94693 0.799999
      vertex -0.258819 -0.965925 0.799999
    endloop
  endfacet
  facet normal 0.290277 0.956943 0
    outer loop
      vertex -0.321439 -0.94693 0.799999
      vertex -0.258819 -0.965925 -0.799999
      vertex -0.321439 -0.94693 -0.799999
    endloop
  endfacet
  facet normal -0.683592 -0.729865 0
    outer loop
      vertex 0.659346 0.75184 -0.799999
      vertex 0.707107 0.707107 0.799999
      vertex 0.659346 0.75184 0.799999
    endloop
  endfacet
  facet normal -0.683592 -0.729865 -0
    outer loop
      vertex 0.707107 0.707107 0.799999
      vertex 0.659346 0.75184 -0.799999
      vertex 0.707107 0.707107 -0.799999
    endloop
  endfacet
  facet normal -0.956943 -0.290277 0
    outer loop
      vertex 0.965925 0.258819 -0.799999
      vertex 0.94693 0.321439 0.799999
      vertex 0.94693 0.321439 -0.799999
    endloop
  endfacet
  facet normal -0.956943 -0.290277 0
    outer loop
      vertex 0.94693 0.321439 0.799999
      vertex 0.965925 0.258819 -0.799999
      vertex 0.965925 0.258819 0.799999
    endloop
  endfacet
  facet normal -0.4714 0.881919 0
    outer loop
      vertex 0.5 -0.866025 -0.799999
      vertex 0.442288 -0.896873 0.799999
      vertex 0.5 -0.866025 0.799999
    endloop
  endfacet
  facet normal -0.4714 0.881919 0
    outer loop
      vertex 0.442288 -0.896873 0.799999
      vertex 0.5 -0.866025 -0.799999
      vertex 0.442288 -0.896873 -0.799999
    endloop
  endfacet
  facet normal 0.582486 -0.81284 0
    outer loop
      vertex -0.608761 0.793353 -0.799999
      vertex -0.55557 0.83147 0.799999
      vertex -0.608761 0.793353 0.799999
    endloop
  endfacet
  facet normal 0.582486 -0.81284 0
    outer loop
      vertex -0.55557 0.83147 0.799999
      vertex -0.608761 0.793353 -0.799999
      vertex -0.55557 0.83147 -0.799999
    endloop
  endfacet
  facet normal 0.0980012 -0.995186 0
    outer loop
      vertex -0.130526 0.991445 -0.799999
      vertex -0.065403 0.997858 0.799999
      vertex -0.130526 0.991445 0.799999
    endloop
  endfacet
  facet normal 0.0980012 -0.995186 0
    outer loop
      vertex -0.065403 0.997858 0.799999
      vertex -0.130526 0.991445 -0.799999
      vertex -0.065403 0.997858 -0.799999
    endloop
  endfacet
  facet normal 0.352255 0.935904 -0
    outer loop
      vertex -0.321439 -0.94693 -0.799999
      vertex -0.382683 -0.923879 0.799999
      vertex -0.321439 -0.94693 0.799999
    endloop
  endfacet
  facet normal 0.352255 0.935904 0
    outer loop
      vertex -0.382683 -0.923879 0.799999
      vertex -0.321439 -0.94693 -0.799999
      vertex -0.382683 -0.923879 -0.799999
    endloop
  endfacet
  facet normal -0.995186 -0.0980012 0
    outer loop
      vertex 0.997858 0.065403 -0.799999
      vertex 0.991445 0.130526 0.799999
      vertex 0.991445 0.130526 -0.799999
    endloop
  endfacet
  facet normal -0.995186 -0.0980012 0
    outer loop
      vertex 0.991445 0.130526 0.799999
      vertex 0.997858 0.065403 -0.799999
      vertex 0.997858 0.065403 0.799999
    endloop
  endfacet
  facet normal -0.999464 -0.0327332 0
    outer loop
      vertex 1 0 -0.799999
      vertex 0.997858 0.065403 0.799999
      vertex 0.997858 0.065403 -0.799999
    endloop
  endfacet
  facet normal -0.999464 -0.0327332 0
    outer loop
      vertex 0.997858 0.065403 0.799999
      vertex 1 0 -0.799999
      vertex 1 0 0.799999
    endloop
  endfacet
  facet normal 0.227069 -0.973879 0
    outer loop
      vertex -0.258819 0.965925 -0.799999
      vertex -0.19509 0.980784 0.799999
      vertex -0.258819 0.965925 0.799999
    endloop
  endfacet
  facet normal 0.227069 -0.973879 0
    outer loop
      vertex -0.19509 0.980784 0.799999
      vertex -0.258819 0.965925 -0.799999
      vertex -0.19509 0.980784 -0.799999
    endloop
  endfacet
  facet normal -0.582486 0.81284 0
    outer loop
      vertex 0.608761 -0.793353 -0.799999
      vertex 0.55557 -0.83147 0.799999
      vertex 0.608761 -0.793353 0.799999
    endloop
  endfacet
  facet normal -0.582486 0.81284 0
    outer loop
      vertex 0.55557 -0.83147 0.799999
      vertex 0.608761 -0.793353 -0.799999
      vertex 0.55557 -0.83147 -0.799999
    endloop
  endfacet
  facet normal 0.528061 0.849207 -0
    outer loop
      vertex -0.5 -0.866025 -0.799999
      vertex -0.55557 -0.83147 0.799999
      vertex -0.5 -0.866025 0.799999
    endloop
  endfacet
  facet normal 0.528061 0.849207 0
    outer loop
      vertex -0.55557 -0.83147 0.799999
      vertex -0.5 -0.866025 -0.799999
      vertex -0.55557 -0.83147 -0.799999
    endloop
  endfacet
  facet normal -0.582486 -0.81284 0
    outer loop
      vertex 0.55557 0.83147 -0.799999
      vertex 0.608761 0.793353 0.799999
      vertex 0.55557 0.83147 0.799999
    endloop
  endfacet
  facet normal -0.582486 -0.81284 -0
    outer loop
      vertex 0.608761 0.793353 0.799999
      vertex 0.55557 0.83147 -0.799999
      vertex 0.608761 0.793353 -0.799999
    endloop
  endfacet
  facet normal 0.999464 0.0327332 0
    outer loop
      vertex -0.997858 -0.065403 0.799999
      vertex -1 0 -0.799999
      vertex -1 0 0.799999
    endloop
  endfacet
  facet normal 0.999464 0.0327332 0
    outer loop
      vertex -1 0 -0.799999
      vertex -0.997858 -0.065403 0.799999
      vertex -0.997858 -0.065403 -0.799999
    endloop
  endfacet
  facet normal -0.352255 0.935904 0
    outer loop
      vertex 0.382683 -0.923879 -0.799999
      vertex 0.321439 -0.94693 0.799999
      vertex 0.382683 -0.923879 0.799999
    endloop
  endfacet
  facet normal -0.352255 0.935904 0
    outer loop
      vertex 0.321439 -0.94693 0.799999
      vertex 0.382683 -0.923879 -0.799999
      vertex 0.321439 -0.94693 -0.799999
    endloop
  endfacet
  facet normal 0.634384 -0.773018 0
    outer loop
      vertex -0.659346 0.75184 -0.799999
      vertex -0.608761 0.793353 0.799999
      vertex -0.659346 0.75184 0.799999
    endloop
  endfacet
  facet normal 0.634384 -0.773018 0
    outer loop
      vertex -0.608761 0.793353 0.799999
      vertex -0.659346 0.75184 -0.799999
      vertex -0.608761 0.793353 -0.799999
    endloop
  endfacet
  facet normal 0.910868 -0.412698 0
    outer loop
      vertex -0.923879 0.382683 0.799999
      vertex -0.896873 0.442288 -0.799999
      vertex -0.896873 0.442288 0.799999
    endloop
  endfacet
  facet normal 0.910868 -0.412698 0
    outer loop
      vertex -0.896873 0.442288 -0.799999
      vertex -0.923879 0.382683 0.799999
      vertex -0.923879 0.382683 -0.799999
    endloop
  endfacet
  facet normal -0.412698 -0.910868 0
    outer loop
      vertex 0.382683 0.923879 -0.799999
      vertex 0.442288 0.896873 0.799999
      vertex 0.382683 0.923879 0.799999
    endloop
  endfacet
  facet normal -0.412698 -0.910868 -0
    outer loop
      vertex 0.442288 0.896873 0.799999
      vertex 0.382683 0.923879 -0.799999
      vertex 0.442288 0.896873 -0.799999
    endloop
  endfacet
  facet normal -0.973879 0.227069 0
    outer loop
      vertex 0.965925 -0.258819 -0.799999
      vertex 0.980784 -0.19509 0.799999
      vertex 0.980784 -0.19509 -0.799999
    endloop
  endfacet
  facet normal -0.973879 0.227069 0
    outer loop
      vertex 0.980784 -0.19509 0.799999
      vertex 0.965925 -0.258819 -0.799999
      vertex 0.965925 -0.258819 0.799999
    endloop
  endfacet
  facet normal 0.729865 0.683592 0
    outer loop
      vertex -0.707107 -0.707107 0.799999
      vertex -0.75184 -0.659346 -0.799999
      vertex -0.75184 -0.659346 0.799999
    endloop
  endfacet
  facet normal 0.729865 0.683592 0
    outer loop
      vertex -0.75184 -0.659346 -0.799999
      vertex -0.707107 -0.707107 0.799999
      vertex -0.707107 -0.707107 -0.799999
    endloop
  endfacet
  facet normal -0.773018 -0.634384 0
    outer loop
      vertex 0.793353 0.608761 -0.799999
      vertex 0.75184 0.659346 0.799999
      vertex 0.75184 0.659346 -0.799999
    endloop
  endfacet
  facet normal -0.773018 -0.634384 0
    outer loop
      vertex 0.75184 0.659346 0.799999
      vertex 0.793353 0.608761 -0.799999
      vertex 0.793353 0.608761 0.799999
    endloop
  endfacet
  facet normal 0.999464 -0.0327332 0
    outer loop
      vertex -1 0 0.799999
      vertex -0.997858 0.065403 -0.799999
      vertex -0.997858 0.065403 0.799999
    endloop
  endfacet
  facet normal 0.999464 -0.0327332 0
    outer loop
      vertex -0.997858 0.065403 -0.799999
      vertex -1 0 0.799999
      vertex -1 0 -0.799999
    endloop
  endfacet
  facet normal -0.956943 0.290277 0
    outer loop
      vertex 0.94693 -0.321439 -0.799999
      vertex 0.965925 -0.258819 0.799999
      vertex 0.965925 -0.258819 -0.799999
    endloop
  endfacet
  facet normal -0.956943 0.290277 0
    outer loop
      vertex 0.965925 -0.258819 0.799999
      vertex 0.94693 -0.321439 -0.799999
      vertex 0.94693 -0.321439 0.799999
    endloop
  endfacet
  facet normal -0.849207 0.528061 0
    outer loop
      vertex 0.83147 -0.55557 -0.799999
      vertex 0.866025 -0.5 0.799999
      vertex 0.866025 -0.5 -0.799999
    endloop
  endfacet
  facet normal -0.849207 0.528061 0
    outer loop
      vertex 0.866025 -0.5 0.799999
      vertex 0.83147 -0.55557 -0.799999
      vertex 0.83147 -0.55557 0.799999
    endloop
  endfacet
  facet normal -0.352255 -0.935904 0
    outer loop
      vertex 0.321439 0.94693 -0.799999
      vertex 0.382683 0.923879 0.799999
      vertex 0.321439 0.94693 0.799999
    endloop
  endfacet
  facet normal -0.352255 -0.935904 -0
    outer loop
      vertex 0.382683 0.923879 0.799999
      vertex 0.321439 0.94693 -0.799999
      vertex 0.382683 0.923879 -0.799999
    endloop
  endfacet
  facet normal -0.683592 0.729865 0
    outer loop
      vertex 0.707107 -0.707107 -0.799999
      vertex 0.659346 -0.75184 0.799999
      vertex 0.707107 -0.707107 0.799999
    endloop
  endfacet
  facet normal -0.683592 0.729865 0
    outer loop
      vertex 0.659346 -0.75184 0.799999
      vertex 0.707107 -0.707107 -0.799999
      vertex 0.659346 -0.75184 -0.799999
    endloop
  endfacet
  facet normal -0.290277 0.956943 0
    outer loop
      vertex 0.321439 -0.94693 -0.799999
      vertex 0.258819 -0.965925 0.799999
      vertex 0.321439 -0.94693 0.799999
    endloop
  endfacet
  facet normal -0.290277 0.956943 0
    outer loop
      vertex 0.258819 -0.965925 0.799999
      vertex 0.321439 -0.94693 -0.799999
      vertex 0.258819 -0.965925 -0.799999
    endloop
  endfacet
  facet normal -0.0980012 0.995186 0
    outer loop
      vertex 0.130526 -0.991445 -0.799999
      vertex 0.065403 -0.997858 0.799999
      vertex 0.130526 -0.991445 0.799999
    endloop
  endfacet
  facet normal -0.0980012 0.995186 0
    outer loop
      vertex 0.065403 -0.997858 0.799999
      vertex 0.130526 -0.991445 -0.799999
      vertex 0.065403 -0.997858 -0.799999
    endloop
  endfacet
  facet normal 0.352255 -0.935904 0
    outer loop
      vertex -0.382683 0.923879 -0.799999
      vertex -0.321439 0.94693 0.799999
      vertex -0.382683 0.923879 0.799999
    endloop
  endfacet
  facet normal 0.352255 -0.935904 0
    outer loop
      vertex -0.321439 0.94693 0.799999
      vertex -0.382683 0.923879 -0.799999
      vertex -0.321439 0.94693 -0.799999
    endloop
  endfacet
  facet normal -0.634384 -0.773018 0
    outer loop
      vertex 0.608761 0.793353 -0.799999
      vertex 0.659346 0.75184 0.799999
      vertex 0.608761 0.793353 0.799999
    endloop
  endfacet
  facet normal -0.634384 -0.773018 -0
    outer loop
      vertex 0.659346 0.75184 0.799999
      vertex 0.608761 0.793353 -0.799999
      vertex 0.659346 0.75184 -0.799999
    endloop
  endfacet
  facet normal -0.528061 -0.849207 0
    outer loop
      vertex 0.5 0.866025 -0.799999
      vertex 0.55557 0.83147 0.799999
      vertex 0.5 0.866025 0.799999
    endloop
  endfacet
  facet normal -0.528061 -0.849207 -0
    outer loop
      vertex 0.55557 0.83147 0.799999
      vertex 0.5 0.866025 -0.799999
      vertex 0.55557 0.83147 -0.799999
    endloop
  endfacet
  facet normal -0.935904 0.352255 0
    outer loop
      vertex 0.923879 -0.382683 -0.799999
      vertex 0.94693 -0.321439 0.799999
      vertex 0.94693 -0.321439 -0.799999
    endloop
  endfacet
  facet normal -0.935904 0.352255 0
    outer loop
      vertex 0.94693 -0.321439 0.799999
      vertex 0.923879 -0.382683 -0.799999
      vertex 0.923879 -0.382683 0.799999
    endloop
  endfacet
  facet normal -0.412698 0.910868 0
    outer loop
      vertex 0.442288 -0.896873 -0.799999
      vertex 0.382683 -0.923879 0.799999
      vertex 0.442288 -0.896873 0.799999
    endloop
  endfacet
  facet normal -0.412698 0.910868 0
    outer loop
      vertex 0.382683 -0.923879 0.799999
      vertex 0.442288 -0.896873 -0.799999
      vertex 0.382683 -0.923879 -0.799999
    endloop
  endfacet
  facet normal -0.528061 0.849207 0
    outer loop
      vertex 0.55557 -0.83147 -0.799999
      vertex 0.5 -0.866025 0.799999
      vertex 0.55557 -0.83147 0.799999
    endloop
  endfacet
  facet normal -0.528061 0.849207 0
    outer loop
      vertex 0.5 -0.866025 0.799999
      vertex 0.55557 -0.83147 -0.799999
      vertex 0.5 -0.866025 -0.799999
    endloop
  endfacet
  facet normal 0.162917 0.98664 -0
    outer loop
      vertex -0.130526 -0.991445 -0.799999
      vertex -0.19509 -0.980784 0.799999
      vertex -0.130526 -0.991445 0.799999
    endloop
  endfacet
  facet normal 0.162917 0.98664 0
    outer loop
      vertex -0.19509 -0.980784 0.799999
      vertex -0.130526 -0.991445 -0.799999
      vertex -0.19509 -0.980784 -0.799999
    endloop
  endfacet
  facet normal -0.634384 0.773018 0
    outer loop
      vertex 0.659346 -0.75184 -0.799999
      vertex 0.608761 -0.793353 0.799999
      vertex 0.659346 -0.75184 0.799999
    endloop
  endfacet
  facet normal -0.634384 0.773018 0
    outer loop
      vertex 0.608761 -0.793353 0.799999
      vertex 0.659346 -0.75184 -0.799999
      vertex 0.608761 -0.793353 -0.799999
    endloop
  endfacet
  facet normal 0.973879 0.227069 0
    outer loop
      vertex -0.965925 -0.258819 0.799999
      vertex -0.980784 -0.19509 -0.799999
      vertex -0.980784 -0.19509 0.799999
    endloop
  endfacet
  facet normal 0.973879 0.227069 0
    outer loop
      vertex -0.980784 -0.19509 -0.799999
      vertex -0.965925 -0.258819 0.799999
      vertex -0.965925 -0.258819 -0.799999
    endloop
  endfacet
  facet normal -0.881919 -0.4714 0
    outer loop
      vertex 0.896873 0.442288 -0.799999
      vertex 0.866025 0.5 0.799999
      vertex 0.866025 0.5 -0.799999
    endloop
  endfacet
  facet normal -0.881919 -0.4714 0
    outer loop
      vertex 0.866025 0.5 0.799999
      vertex 0.896873 0.442288 -0.799999
      vertex 0.896873 0.442288 0.799999
    endloop
  endfacet
  facet normal -0.729865 -0.683592 0
    outer loop
      vertex 0.75184 0.659346 -0.799999
      vertex 0.707107 0.707107 0.799999
      vertex 0.707107 0.707107 -0.799999
    endloop
  endfacet
  facet normal -0.729865 -0.683592 0
    outer loop
      vertex 0.707107 0.707107 0.799999
      vertex 0.75184 0.659346 -0.799999
      vertex 0.75184 0.659346 0.799999
    endloop
  endfacet
  facet normal 0.162917 -0.98664 0
    outer loop
      vertex -0.19509 0.980784 -0.799999
      vertex -0.130526 0.991445 0.799999
      vertex -0.19509 0.980784 0.799999
    endloop
  endfacet
  facet normal 0.162917 -0.98664 0
    outer loop
      vertex -0.130526 0.991445 0.799999
      vertex -0.19509 0.980784 -0.799999
      vertex -0.130526 0.991445 -0.799999
    endloop
  endfacet
  facet normal -0.995186 0.0980012 0
    outer loop
      vertex 0.991445 -0.130526 -0.799999
      vertex 0.997858 -0.065403 0.799999
      vertex 0.997858 -0.065403 -0.799999
    endloop
  endfacet
  facet normal -0.995186 0.0980012 0
    outer loop
      vertex 0.997858 -0.065403 0.799999
      vertex 0.991445 -0.130526 -0.799999
      vertex 0.991445 -0.130526 0.799999
    endloop
  endfacet
  facet normal 0.881919 0.4714 0
    outer loop
      vertex -0.866025 -0.5 0.799999
      vertex -0.896873 -0.442288 -0.799999
      vertex -0.896873 -0.442288 0.799999
    endloop
  endfacet
  facet normal 0.881919 0.4714 0
    outer loop
      vertex -0.896873 -0.442288 -0.799999
      vertex -0.866025 -0.5 0.799999
      vertex -0.866025 -0.5 -0.799999
    endloop
  endfacet
  facet normal 0.935904 -0.352255 0
    outer loop
      vertex -0.94693 0.321439 0.799999
      vertex -0.923879 0.382683 -0.799999
      vertex -0.923879 0.382683 0.799999
    endloop
  endfacet
  facet normal 0.935904 -0.352255 0
    outer loop
      vertex -0.923879 0.382683 -0.799999
      vertex -0.94693 0.321439 0.799999
      vertex -0.94693 0.321439 -0.799999
    endloop
  endfacet
  facet normal 0.995186 -0.0980012 0
    outer loop
      vertex -0.997858 0.065403 0.799999
      vertex -0.991445 0.130526 -0.799999
      vertex -0.991445 0.130526 0.799999
    endloop
  endfacet
  facet normal 0.995186 -0.0980012 0
    outer loop
      vertex -0.991445 0.130526 -0.799999
      vertex -0.997858 0.065403 0.799999
      vertex -0.997858 0.065403 -0.799999
    endloop
  endfacet
  facet normal -0.98664 -0.162917 0
    outer loop
      vertex 0.991445 0.130526 -0.799999
      vertex 0.980784 0.19509 0.799999
      vertex 0.980784 0.19509 -0.799999
    endloop
  endfacet
  facet normal -0.98664 -0.162917 0
    outer loop
      vertex 0.980784 0.19509 0.799999
      vertex 0.991445 0.130526 -0.799999
      vertex 0.991445 0.130526 0.799999
    endloop
  endfacet
  facet normal -0.0327332 -0.999464 0
    outer loop
      vertex 0 1 -0.799999
      vertex 0.065403 0.997858 0.799999
      vertex 0 1 0.799999
    endloop
  endfacet
  facet normal -0.0327332 -0.999464 -0
    outer loop
      vertex 0.065403 0.997858 0.799999
      vertex 0 1 -0.799999
      vertex 0.065403 0.997858 -0.799999
    endloop
  endfacet
  facet normal -0.973879 -0.227069 0
    outer loop
      vertex 0.980784 0.19509 -0.799999
      vertex 0.965925 0.258819 0.799999
      vertex 0.965925 0.258819 -0.799999
    endloop
  endfacet
  facet normal -0.973879 -0.227069 0
    outer loop
      vertex 0.965925 0.258819 0.799999
      vertex 0.980784 0.19509 -0.799999
      vertex 0.980784 0.19509 0.799999
    endloop
  endfacet
  facet normal -0.227069 0.973879 0
    outer loop
      vertex 0.258819 -0.965925 -0.799999
      vertex 0.19509 -0.980784 0.799999
      vertex 0.258819 -0.965925 0.799999
    endloop
  endfacet
  facet normal -0.227069 0.973879 0
    outer loop
      vertex 0.19509 -0.980784 0.799999
      vertex 0.258819 -0.965925 -0.799999
      vertex 0.19509 -0.980784 -0.799999
    endloop
  endfacet
  facet normal 0.290277 -0.956943 0
    outer loop
      vertex -0.321439 0.94693 -0.799999
      vertex -0.258819 0.965925 0.799999
      vertex -0.321439 0.94693 0.799999
    endloop
  endfacet
  facet normal 0.290277 -0.956943 0
    outer loop
      vertex -0.258819 0.965925 0.799999
      vertex -0.321439 0.94693 -0.799999
      vertex -0.258819 0.965925 -0.799999
    endloop
  endfacet
  facet normal -0.849207 -0.528061 0
    outer loop
      vertex 0.866025 0.5 -0.799999
      vertex 0.83147 0.55557 0.799999
      vertex 0.83147 0.55557 -0.799999
    endloop
  endfacet
  facet normal -0.849207 -0.528061 0
    outer loop
      vertex 0.83147 0.55557 0.799999
      vertex 0.866025 0.5 -0.799999
      vertex 0.866025 0.5 0.799999
    endloop
  endfacet
  facet normal -0.0980012 -0.995186 0
    outer loop
      vertex 0.065403 0.997858 -0.799999
      vertex 0.130526 0.991445 0.799999
      vertex 0.065403 0.997858 0.799999
    endloop
  endfacet
  facet normal -0.0980012 -0.995186 -0
    outer loop
      vertex 0.130526 0.991445 0.799999
      vertex 0.065403 0.997858 -0.799999
      vertex 0.130526 0.991445 -0.799999
    endloop
  endfacet
  facet normal 0.683592 -0.729865 0
    outer loop
      vertex -0.707107 0.707107 -0.799999
      vertex -0.659346 0.75184 0.799999
      vertex -0.707107 0.707107 0.799999
    endloop
  endfacet
  facet normal 0.683592 -0.729865 0
    outer loop
      vertex -0.659346 0.75184 0.799999
      vertex -0.707107 0.707107 -0.799999
      vertex -0.659346 0.75184 -0.799999
    endloop
  endfacet
  facet normal -0.162917 0.98664 0
    outer loop
      vertex 0.19509 -0.980784 -0.799999
      vertex 0.130526 -0.991445 0.799999
      vertex 0.19509 -0.980784 0.799999
    endloop
  endfacet
  facet normal -0.162917 0.98664 0
    outer loop
      vertex 0.130526 -0.991445 0.799999
      vertex 0.19509 -0.980784 -0.799999
      vertex 0.130526 -0.991445 -0.799999
    endloop
  endfacet
  facet normal 0.582486 0.81284 -0
    outer loop
      vertex -0.55557 -0.83147 -0.799999
      vertex -0.608761 -0.793353 0.799999
      vertex -0.55557 -0.83147 0.799999
    endloop
  endfacet
  facet normal 0.582486 0.81284 0
    outer loop
      vertex -0.608761 -0.793353 0.799999
      vertex -0.55557 -0.83147 -0.799999
      vertex -0.608761 -0.793353 -0.799999
    endloop
  endfacet
  facet normal 0.634384 0.773018 -0
    outer loop
      vertex -0.608761 -0.793353 -0.799999
      vertex -0.659346 -0.75184 0.799999
      vertex -0.608761 -0.793353 0.799999
    endloop
  endfacet
  facet normal 0.634384 0.773018 0
    outer loop
      vertex -0.659346 -0.75184 0.799999
      vertex -0.608761 -0.793353 -0.799999
      vertex -0.659346 -0.75184 -0.799999
    endloop
  endfacet
  facet normal 0.81284 0.582486 0
    outer loop
      vertex -0.793353 -0.608761 0.799999
      vertex -0.83147 -0.55557 -0.799999
      vertex -0.83147 -0.55557 0.799999
    endloop
  endfacet
  facet normal 0.81284 0.582486 0
    outer loop
      vertex -0.83147 -0.55557 -0.799999
      vertex -0.793353 -0.608761 0.799999
      vertex -0.793353 -0.608761 -0.799999
    endloop
  endfacet
  facet normal 0.683592 0.729865 -0
    outer loop
      vertex -0.659346 -0.75184 -0.799999
      vertex -0.707107 -0.707107 0.799999
      vertex -0.659346 -0.75184 0.799999
    endloop
  endfacet
  facet normal 0.683592 0.729865 0
    outer loop
      vertex -0.707107 -0.707107 0.799999
      vertex -0.659346 -0.75184 -0.799999
      vertex -0.707107 -0.707107 -0.799999
    endloop
  endfacet
  facet normal 0.910868 0.412698 0
    outer loop
      vertex -0.896873 -0.442288 0.799999
      vertex -0.923879 -0.382683 -0.799999
      vertex -0.923879 -0.382683 0.799999
    endloop
  endfacet
  facet normal 0.910868 0.412698 0
    outer loop
      vertex -0.923879 -0.382683 -0.799999
      vertex -0.896873 -0.442288 0.799999
      vertex -0.896873 -0.442288 -0.799999
    endloop
  endfacet
  facet normal -0.162917 -0.98664 0
    outer loop
      vertex 0.130526 0.991445 -0.799999
      vertex 0.19509 0.980784 0.799999
      vertex 0.130526 0.991445 0.799999
    endloop
  endfacet
  facet normal -0.162917 -0.98664 -0
    outer loop
      vertex 0.19509 0.980784 0.799999
      vertex 0.130526 0.991445 -0.799999
      vertex 0.19509 0.980784 -0.799999
    endloop
  endfacet
  facet normal 0.935904 0.352255 0
    outer loop
      vertex -0.923879 -0.382683 0.799999
      vertex -0.94693 -0.321439 -0.799999
      vertex -0.94693 -0.321439 0.799999
    endloop
  endfacet
  facet normal 0.935904 0.352255 0
    outer loop
      vertex -0.94693 -0.321439 -0.799999
      vertex -0.923879 -0.382683 0.799999
      vertex -0.923879 -0.382683 -0.799999
    endloop
  endfacet
  facet normal -0.999464 0.0327332 0
    outer loop
      vertex 0.997858 -0.065403 -0.799999
      vertex 1 0 0.799999
      vertex 1 0 -0.799999
    endloop
  endfacet
  facet normal -0.999464 0.0327332 0
    outer loop
      vertex 1 0 0.799999
      vertex 0.997858 -0.065403 -0.799999
      vertex 0.997858 -0.065403 0.799999
    endloop
  endfacet
  facet normal 0.729865 -0.683592 0
    outer loop
      vertex -0.75184 0.659346 0.799999
      vertex -0.707107 0.707107 -0.799999
      vertex -0.707107 0.707107 0.799999
    endloop
  endfacet
  facet normal 0.729865 -0.683592 0
    outer loop
      vertex -0.707107 0.707107 -0.799999
      vertex -0.75184 0.659346 0.799999
      vertex -0.75184 0.659346 -0.799999
    endloop
  endfacet
  facet normal 0.995186 0.0980012 0
    outer loop
      vertex -0.991445 -0.130526 0.799999
      vertex -0.997858 -0.065403 -0.799999
      vertex -0.997858 -0.065403 0.799999
    endloop
  endfacet
  facet normal 0.995186 0.0980012 0
    outer loop
      vertex -0.997858 -0.065403 -0.799999
      vertex -0.991445 -0.130526 0.799999
      vertex -0.991445 -0.130526 -0.799999
    endloop
  endfacet
  facet normal 0.773018 -0.634384 0
    outer loop
      vertex -0.793353 0.608761 0.799999
      vertex -0.75184 0.659346 -0.799999
      vertex -0.75184 0.659346 0.799999
    endloop
  endfacet
  facet normal 0.773018 -0.634384 0
    outer loop
      vertex -0.75184 0.659346 -0.799999
      vertex -0.793353 0.608761 0.799999
      vertex -0.793353 0.608761 -0.799999
    endloop
  endfacet
  facet normal -0.81284 0.582486 0
    outer loop
      vertex 0.793353 -0.608761 -0.799999
      vertex 0.83147 -0.55557 0.799999
      vertex 0.83147 -0.55557 -0.799999
    endloop
  endfacet
  facet normal -0.81284 0.582486 0
    outer loop
      vertex 0.83147 -0.55557 0.799999
      vertex 0.793353 -0.608761 -0.799999
      vertex 0.793353 -0.608761 0.799999
    endloop
  endfacet
  facet normal 0.98664 -0.162917 0
    outer loop
      vertex -0.991445 0.130526 0.799999
      vertex -0.980784 0.19509 -0.799999
      vertex -0.980784 0.19509 0.799999
    endloop
  endfacet
  facet normal 0.98664 -0.162917 0
    outer loop
      vertex -0.980784 0.19509 -0.799999
      vertex -0.991445 0.130526 0.799999
      vertex -0.991445 0.130526 -0.799999
    endloop
  endfacet
  facet normal -0.935904 -0.352255 0
    outer loop
      vertex 0.94693 0.321439 -0.799999
      vertex 0.923879 0.382683 0.799999
      vertex 0.923879 0.382683 -0.799999
    endloop
  endfacet
  facet normal -0.935904 -0.352255 0
    outer loop
      vertex 0.923879 0.382683 0.799999
      vertex 0.94693 0.321439 -0.799999
      vertex 0.94693 0.321439 0.799999
    endloop
  endfacet
  facet normal 0.412698 0.910868 -0
    outer loop
      vertex -0.382683 -0.923879 -0.799999
      vertex -0.442288 -0.896873 0.799999
      vertex -0.382683 -0.923879 0.799999
    endloop
  endfacet
  facet normal 0.412698 0.910868 0
    outer loop
      vertex -0.442288 -0.896873 0.799999
      vertex -0.382683 -0.923879 -0.799999
      vertex -0.442288 -0.896873 -0.799999
    endloop
  endfacet
  facet normal 0.412698 -0.910868 0
    outer loop
      vertex -0.442288 0.896873 -0.799999
      vertex -0.382683 0.923879 0.799999
      vertex -0.442288 0.896873 0.799999
    endloop
  endfacet
  facet normal 0.412698 -0.910868 0
    outer loop
      vertex -0.382683 0.923879 0.799999
      vertex -0.442288 0.896873 -0.799999
      vertex -0.382683 0.923879 -0.799999
    endloop
  endfacet
  facet normal 0.4714 0.881919 -0
    outer loop
      vertex -0.442288 -0.896873 -0.799999
      vertex -0.5 -0.866025 0.799999
      vertex -0.442288 -0.896873 0.799999
    endloop
  endfacet
  facet normal 0.4714 0.881919 0
    outer loop
      vertex -0.5 -0.866025 0.799999
      vertex -0.442288 -0.896873 -0.799999
      vertex -0.5 -0.866025 -0.799999
    endloop
  endfacet
  facet normal 0.4714 -0.881919 0
    outer loop
      vertex -0.5 0.866025 -0.799999
      vertex -0.442288 0.896873 0.799999
      vertex -0.5 0.866025 0.799999
    endloop
  endfacet
  facet normal 0.4714 -0.881919 0
    outer loop
      vertex -0.442288 0.896873 0.799999
      vertex -0.5 0.866025 -0.799999
      vertex -0.442288 0.896873 -0.799999
    endloop
  endfacet
  facet normal 0.528061 -0.849207 0
    outer loop
      vertex -0.55557 0.83147 -0.799999
      vertex -0.5 0.866025 0.799999
      vertex -0.55557 0.83147 0.799999
    endloop
  endfacet
  facet normal 0.528061 -0.849207 0
    outer loop
      vertex -0.5 0.866025 0.799999
      vertex -0.55557 0.83147 -0.799999
      vertex -0.5 0.866025 -0.799999
    endloop
  endfacet
  facet normal -0.773018 0.634384 0
    outer loop
      vertex 0.75184 -0.659346 -0.799999
      vertex 0.793353 -0.608761 0.799999
      vertex 0.793353 -0.608761 -0.799999
    endloop
  endfacet
  facet normal -0.773018 0.634384 0
    outer loop
      vertex 0.793353 -0.608761 0.799999
      vertex 0.75184 -0.659346 -0.799999
      vertex 0.75184 -0.659346 0.799999
    endloop
  endfacet
  facet normal -0.881919 0.4714 0
    outer loop
      vertex 0.866025 -0.5 -0.799999
      vertex 0.896873 -0.442288 0.799999
      vertex 0.896873 -0.442288 -0.799999
    endloop
  endfacet
  facet normal -0.881919 0.4714 0
    outer loop
      vertex 0.896873 -0.442288 0.799999
      vertex 0.866025 -0.5 -0.799999
      vertex 0.866025 -0.5 0.799999
    endloop
  endfacet
  facet normal 0.849207 0.528061 0
    outer loop
      vertex -0.83147 -0.55557 0.799999
      vertex -0.866025 -0.5 -0.799999
      vertex -0.866025 -0.5 0.799999
    endloop
  endfacet
  facet normal 0.849207 0.528061 0
    outer loop
      vertex -0.866025 -0.5 -0.799999
      vertex -0.83147 -0.55557 0.799999
      vertex -0.83147 -0.55557 -0.799999
    endloop
  endfacet
  facet normal 0.81284 -0.582486 0
    outer loop
      vertex -0.83147 0.55557 0.799999
      vertex -0.793353 0.608761 -0.799999
      vertex -0.793353 0.608761 0.799999
    endloop
  endfacet
  facet normal 0.81284 -0.582486 0
    outer loop
      vertex -0.793353 0.608761 -0.799999
      vertex -0.83147 0.55557 0.799999
      vertex -0.83147 0.55557 -0.799999
    endloop
  endfacet
  facet normal -0.910868 -0.412698 0
    outer loop
      vertex 0.923879 0.382683 -0.799999
      vertex 0.896873 0.442288 0.799999
      vertex 0.896873 0.442288 -0.799999
    endloop
  endfacet
  facet normal -0.910868 -0.412698 0
    outer loop
      vertex 0.896873 0.442288 0.799999
      vertex 0.923879 0.382683 -0.799999
      vertex 0.923879 0.382683 0.799999
    endloop
  endfacet
  facet normal 0.956943 0.290277 0
    outer loop
      vertex -0.94693 -0.321439 0.799999
      vertex -0.965925 -0.258819 -0.799999
      vertex -0.965925 -0.258819 0.799999
    endloop
  endfacet
  facet normal 0.956943 0.290277 0
    outer loop
      vertex -0.965925 -0.258819 -0.799999
      vertex -0.94693 -0.321439 0.799999
      vertex -0.94693 -0.321439 -0.799999
    endloop
  endfacet
  facet normal -0.910868 0.412698 0
    outer loop
      vertex 0.896873 -0.442288 -0.799999
      vertex 0.923879 -0.382683 0.799999
      vertex 0.923879 -0.382683 -0.799999
    endloop
  endfacet
  facet normal -0.910868 0.412698 0
    outer loop
      vertex 0.923879 -0.382683 0.799999
      vertex 0.896873 -0.442288 -0.799999
      vertex 0.896873 -0.442288 0.799999
    endloop
  endfacet
  facet normal 0.881919 -0.4714 0
    outer loop
      vertex -0.896873 0.442288 0.799999
      vertex -0.866025 0.5 -0.799999
      vertex -0.866025 0.5 0.799999
    endloop
  endfacet
  facet normal 0.881919 -0.4714 0
    outer loop
      vertex -0.866025 0.5 -0.799999
      vertex -0.896873 0.442288 0.799999
      vertex -0.896873 0.442288 -0.799999
    endloop
  endfacet
  facet normal 0.973879 -0.227069 0
    outer loop
      vertex -0.980784 0.19509 0.799999
      vertex -0.965925 0.258819 -0.799999
      vertex -0.965925 0.258819 0.799999
    endloop
  endfacet
  facet normal 0.973879 -0.227069 0
    outer loop
      vertex -0.965925 0.258819 -0.799999
      vertex -0.980784 0.19509 0.799999
      vertex -0.980784 0.19509 -0.799999
    endloop
  endfacet
  facet normal -0.98664 0.162917 0
    outer loop
      vertex 0.980784 -0.19509 -0.799999
      vertex 0.991445 -0.130526 0.799999
      vertex 0.991445 -0.130526 -0.799999
    endloop
  endfacet
  facet normal -0.98664 0.162917 0
    outer loop
      vertex 0.991445 -0.130526 0.799999
      vertex 0.980784 -0.19509 -0.799999
      vertex 0.980784 -0.19509 0.799999
    endloop
  endfacet
  facet normal -0.227069 -0.973879 0
    outer loop
      vertex 0.19509 0.980784 -0.799999
      vertex 0.258819 0.965925 0.799999
      vertex 0.19509 0.980784 0.799999
    endloop
  endfacet
  facet normal -0.227069 -0.973879 -0
    outer loop
      vertex 0.258819 0.965925 0.799999
      vertex 0.19509 0.980784 -0.799999
      vertex 0.258819 0.965925 -0.799999
    endloop
  endfacet
  facet normal 0.0327332 0.999464 -0
    outer loop
      vertex 0 -1 -0.799999
      vertex -0.065403 -0.997858 0.799999
      vertex 0 -1 0.799999
    endloop
  endfacet
  facet normal 0.0327332 0.999464 0
    outer loop
      vertex -0.065403 -0.997858 0.799999
      vertex 0 -1 -0.799999
      vertex -0.065403 -0.997858 -0.799999
    endloop
  endfacet
  facet normal 0.0980012 0.995186 -0
    outer loop
      vertex -0.065403 -0.997858 -0.799999
      vertex -0.130526 -0.991445 0.799999
      vertex -0.065403 -0.997858 0.799999
    endloop
  endfacet
  facet normal 0.0980012 0.995186 0
    outer loop
      vertex -0.130526 -0.991445 0.799999
      vertex -0.065403 -0.997858 -0.799999
      vertex -0.130526 -0.991445 -0.799999
    endloop
  endfacet
  facet normal -0.729865 0.683592 0
    outer loop
      vertex 0.707107 -0.707107 -0.799999
      vertex 0.75184 -0.659346 0.799999
      vertex 0.75184 -0.659346 -0.799999
    endloop
  endfacet
  facet normal -0.729865 0.683592 0
    outer loop
      vertex 0.75184 -0.659346 0.799999
      vertex 0.707107 -0.707107 -0.799999
      vertex 0.707107 -0.707107 0.799999
    endloop
  endfacet
  facet normal 0.773018 0.634384 0
    outer loop
      vertex -0.75184 -0.659346 0.799999
      vertex -0.793353 -0.608761 -0.799999
      vertex -0.793353 -0.608761 0.799999
    endloop
  endfacet
  facet normal 0.773018 0.634384 0
    outer loop
      vertex -0.793353 -0.608761 -0.799999
      vertex -0.75184 -0.659346 0.799999
      vertex -0.75184 -0.659346 -0.799999
    endloop
  endfacet
  facet normal -0.290277 -0.956943 0
    outer loop
      vertex 0.258819 0.965925 -0.799999
      vertex 0.321439 0.94693 0.799999
      vertex 0.258819 0.965925 0.799999
    endloop
  endfacet
  facet normal -0.290277 -0.956943 -0
    outer loop
      vertex 0.321439 0.94693 0.799999
      vertex 0.258819 0.965925 -0.799999
      vertex 0.321439 0.94693 -0.799999
    endloop
  endfacet
  facet normal -0.81284 -0.582486 0
    outer loop
      vertex 0.83147 0.55557 -0.799999
      vertex 0.793353 0.608761 0.799999
      vertex 0.793353 0.608761 -0.799999
    endloop
  endfacet
  facet normal -0.81284 -0.582486 0
    outer loop
      vertex 0.793353 0.608761 0.799999
      vertex 0.83147 0.55557 -0.799999
      vertex 0.83147 0.55557 0.799999
    endloop
  endfacet
endsolid OpenSCAD_Model
