solid OpenSCAD_Model
  facet normal 1 0 0
    outer loop
      vertex -2.95 2.2 10.7
      vertex -2.95 -3.2 3.5
      vertex -2.95 2.2 3.5
    endloop
  endfacet
  facet normal 1 -0 0
    outer loop
      vertex -2.95 -6.4 10.7
      vertex -2.95 -3.2 3.5
      vertex -2.95 2.2 10.7
    endloop
  endfacet
  facet normal 1 0 0
    outer loop
      vertex -2.95 -3.2 3.5
      vertex -2.95 -6.4 10.7
      vertex -2.95 -6.4 3.5
    endloop
  endfacet
  facet normal 1 -0 0
    outer loop
      vertex -2.95 -3.2 3.5
      vertex -2.95 2.2 3.4
      vertex -2.95 2.2 3.5
    endloop
  endfacet
  facet normal 1 0 0
    outer loop
      vertex -2.95 2.2 3.4
      vertex -2.95 -3.2 3.5
      vertex -2.95 -3.2 3.4
    endloop
  endfacet
  facet normal -0 0 1
    outer loop
      vertex -4.55 2.2 10.7
      vertex -2.95 -6.4 10.7
      vertex -2.95 2.2 10.7
    endloop
  endfacet
  facet normal 0 0 1
    outer loop
      vertex -2.95 -6.4 10.7
      vertex -4.55 2.2 10.7
      vertex -4.55 -6.4 10.7
    endloop
  endfacet
  facet normal -0 0 1
    outer loop
      vertex 2.95 2.2 10.7
      vertex 4.55 -6.4 10.7
      vertex 4.55 2.2 10.7
    endloop
  endfacet
  facet normal 0 0 1
    outer loop
      vertex 4.55 -6.4 10.7
      vertex 2.95 2.2 10.7
      vertex 2.95 -6.4 10.7
    endloop
  endfacet
  facet normal 0 0 1
    outer loop
      vertex 12.95 3.2 3.5
      vertex 4.55 2.2 3.5
      vertex 12.95 -3.2 3.5
    endloop
  endfacet
  facet normal 0 0 1
    outer loop
      vertex 12.95 3.2 3.5
      vertex 2.95 2.2 3.5
      vertex 4.55 2.2 3.5
    endloop
  endfacet
  facet normal 0 0 1
    outer loop
      vertex 12.95 3.2 3.5
      vertex -2.95 2.2 3.5
      vertex 2.95 2.2 3.5
    endloop
  endfacet
  facet normal -0 0 1
    outer loop
      vertex -12.95 3.2 3.5
      vertex -2.95 2.2 3.5
      vertex 12.95 3.2 3.5
    endloop
  endfacet
  facet normal 0 0 1
    outer loop
      vertex -2.95 2.2 3.5
      vertex -12.95 3.2 3.5
      vertex -4.55 2.2 3.5
    endloop
  endfacet
  facet normal 0 0 1
    outer loop
      vertex -12.95 -3.2 3.5
      vertex -4.55 2.2 3.5
      vertex -12.95 3.2 3.5
    endloop
  endfacet
  facet normal 0 0 1
    outer loop
      vertex -4.55 2.2 3.5
      vertex -12.95 -3.2 3.5
      vertex -4.55 -3.2 3.5
    endloop
  endfacet
  facet normal 0 0 1
    outer loop
      vertex 12.95 -3.2 3.5
      vertex 4.55 2.2 3.5
      vertex 4.55 -3.2 3.5
    endloop
  endfacet
  facet normal 0 0 -1
    outer loop
      vertex -4.55 -6.4 3.5
      vertex -2.95 -3.2 3.5
      vertex -2.95 -6.4 3.5
    endloop
  endfacet
  facet normal -0 0 -1
    outer loop
      vertex -2.95 -3.2 3.5
      vertex -4.55 -6.4 3.5
      vertex -4.55 -3.2 3.5
    endloop
  endfacet
  facet normal 0 0 -1
    outer loop
      vertex 2.95 -6.4 3.5
      vertex 4.55 -3.2 3.5
      vertex 4.55 -6.4 3.5
    endloop
  endfacet
  facet normal -0 0 -1
    outer loop
      vertex 4.55 -3.2 3.5
      vertex 2.95 -6.4 3.5
      vertex 2.95 -3.2 3.5
    endloop
  endfacet
  facet normal -1 0 0
    outer loop
      vertex -4.55 -3.2 3.5
      vertex -4.55 2.2 10.7
      vertex -4.55 2.2 3.5
    endloop
  endfacet
  facet normal -1 0 0
    outer loop
      vertex -4.55 -6.4 10.7
      vertex -4.55 -3.2 3.5
      vertex -4.55 -6.4 3.5
    endloop
  endfacet
  facet normal -1 0 0
    outer loop
      vertex -4.55 -3.2 3.5
      vertex -4.55 -6.4 10.7
      vertex -4.55 2.2 10.7
    endloop
  endfacet
  facet normal 0 1 -0
    outer loop
      vertex -2.95 2.2 3.5
      vertex -4.55 2.2 10.7
      vertex -2.95 2.2 10.7
    endloop
  endfacet
  facet normal 0 1 0
    outer loop
      vertex -4.55 2.2 10.7
      vertex -2.95 2.2 3.5
      vertex -4.55 2.2 3.5
    endloop
  endfacet
  facet normal 0 1 -0
    outer loop
      vertex 4.55 2.2 3.5
      vertex 2.95 2.2 10.7
      vertex 4.55 2.2 10.7
    endloop
  endfacet
  facet normal 0 1 0
    outer loop
      vertex 2.95 2.2 10.7
      vertex 4.55 2.2 3.5
      vertex 2.95 2.2 3.5
    endloop
  endfacet
  facet normal 0 -1 0
    outer loop
      vertex -4.55 -6.4 3.5
      vertex -2.95 -6.4 10.7
      vertex -4.55 -6.4 10.7
    endloop
  endfacet
  facet normal 0 -1 -0
    outer loop
      vertex -2.95 -6.4 10.7
      vertex -4.55 -6.4 3.5
      vertex -2.95 -6.4 3.5
    endloop
  endfacet
  facet normal 1 0 0
    outer loop
      vertex 4.55 2.2 10.7
      vertex 4.55 -3.2 3.5
      vertex 4.55 2.2 3.5
    endloop
  endfacet
  facet normal 1 -0 0
    outer loop
      vertex 4.55 -6.4 10.7
      vertex 4.55 -3.2 3.5
      vertex 4.55 2.2 10.7
    endloop
  endfacet
  facet normal 1 0 0
    outer loop
      vertex 4.55 -3.2 3.5
      vertex 4.55 -6.4 10.7
      vertex 4.55 -6.4 3.5
    endloop
  endfacet
  facet normal -1 0 0
    outer loop
      vertex 2.95 -3.2 3.4
      vertex 2.95 2.2 3.5
      vertex 2.95 2.2 3.4
    endloop
  endfacet
  facet normal -1 0 0
    outer loop
      vertex 2.95 -3.2 3.5
      vertex 2.95 2.2 3.5
      vertex 2.95 -3.2 3.4
    endloop
  endfacet
  facet normal -1 0 0
    outer loop
      vertex 2.95 2.2 3.5
      vertex 2.95 -3.2 3.5
      vertex 2.95 2.2 10.7
    endloop
  endfacet
  facet normal -1 0 0
    outer loop
      vertex 2.95 -6.4 10.7
      vertex 2.95 -3.2 3.5
      vertex 2.95 -6.4 3.5
    endloop
  endfacet
  facet normal -1 0 0
    outer loop
      vertex 2.95 -3.2 3.5
      vertex 2.95 -6.4 10.7
      vertex 2.95 2.2 10.7
    endloop
  endfacet
  facet normal 0 -1 0
    outer loop
      vertex 2.95 -6.4 3.5
      vertex 4.55 -6.4 10.7
      vertex 2.95 -6.4 10.7
    endloop
  endfacet
  facet normal 0 -1 -0
    outer loop
      vertex 4.55 -6.4 10.7
      vertex 2.95 -6.4 3.5
      vertex 4.55 -6.4 3.5
    endloop
  endfacet
  facet normal 1 -0 0
    outer loop
      vertex 12.95 -3.2 3.5
      vertex 12.95 3.2 0
      vertex 12.95 3.2 3.5
    endloop
  endfacet
  facet normal 1 0 0
    outer loop
      vertex 12.95 3.2 0
      vertex 12.95 -3.2 3.5
      vertex 12.95 -3.2 0
    endloop
  endfacet
  facet normal 0 0 -1
    outer loop
      vertex 12.95 -3.2 0
      vertex 9.5 0 0
      vertex 12.95 3.2 0
    endloop
  endfacet
  facet normal 0 0 -1
    outer loop
      vertex 12.95 -3.2 0
      vertex 9.49278 -0.147025 0
      vertex 9.5 0 0
    endloop
  endfacet
  facet normal 0 0 -1
    outer loop
      vertex 12.95 -3.2 0
      vertex 9.47118 -0.292635 0
      vertex 9.49278 -0.147025 0
    endloop
  endfacet
  facet normal 0 0 -1
    outer loop
      vertex 12.95 -3.2 0
      vertex 9.43541 -0.435427 0
      vertex 9.47118 -0.292635 0
    endloop
  endfacet
  facet normal 0 0 -1
    outer loop
      vertex 12.95 -3.2 0
      vertex 9.38582 -0.574024 0
      vertex 9.43541 -0.435427 0
    endloop
  endfacet
  facet normal 0 0 -1
    outer loop
      vertex 12.95 -3.2 0
      vertex 9.32288 -0.707094 0
      vertex 9.38582 -0.574024 0
    endloop
  endfacet
  facet normal 0 0 -1
    outer loop
      vertex 12.95 -3.2 0
      vertex 9.2472 -0.833355 0
      vertex 9.32288 -0.707094 0
    endloop
  endfacet
  facet normal 0 0 -1
    outer loop
      vertex 12.95 -3.2 0
      vertex 9.15952 -0.95159 0
      vertex 9.2472 -0.833355 0
    endloop
  endfacet
  facet normal 0 0 -1
    outer loop
      vertex 12.95 -3.2 0
      vertex 9.06066 -1.06066 0
      vertex 9.15952 -0.95159 0
    endloop
  endfacet
  facet normal 0 0 -1
    outer loop
      vertex 12.95 -3.2 0
      vertex 8.95159 -1.15952 0
      vertex 9.06066 -1.06066 0
    endloop
  endfacet
  facet normal 0 0 -1
    outer loop
      vertex 12.95 -3.2 0
      vertex 8.83335 -1.2472 0
      vertex 8.95159 -1.15952 0
    endloop
  endfacet
  facet normal 0 0 -1
    outer loop
      vertex 12.95 -3.2 0
      vertex 8.70709 -1.32288 0
      vertex 8.83335 -1.2472 0
    endloop
  endfacet
  facet normal 0 0 -1
    outer loop
      vertex 12.95 -3.2 0
      vertex 8.57402 -1.38582 0
      vertex 8.70709 -1.32288 0
    endloop
  endfacet
  facet normal 0 0 -1
    outer loop
      vertex 12.95 -3.2 0
      vertex 8.43543 -1.43541 0
      vertex 8.57402 -1.38582 0
    endloop
  endfacet
  facet normal 0 0 -1
    outer loop
      vertex 12.95 -3.2 0
      vertex 8.29263 -1.47118 0
      vertex 8.43543 -1.43541 0
    endloop
  endfacet
  facet normal 0 0 -1
    outer loop
      vertex 12.95 -3.2 0
      vertex 8.14703 -1.49278 0
      vertex 8.29263 -1.47118 0
    endloop
  endfacet
  facet normal 0 0 -1
    outer loop
      vertex 12.95 -3.2 0
      vertex 8 -1.5 0
      vertex 8.14703 -1.49278 0
    endloop
  endfacet
  facet normal 0 0 -1
    outer loop
      vertex 12.95 -3.2 0
      vertex 7.85297 -1.49278 0
      vertex 8 -1.5 0
    endloop
  endfacet
  facet normal 0 0 -1
    outer loop
      vertex 12.95 -3.2 0
      vertex 7.70736 -1.47118 0
      vertex 7.85297 -1.49278 0
    endloop
  endfacet
  facet normal 0 0 -1
    outer loop
      vertex -7.70736 -1.47118 0
      vertex 7.70736 -1.47118 0
      vertex 12.95 -3.2 0
    endloop
  endfacet
  facet normal 0 0 -1
    outer loop
      vertex 6.50722 -0.147025 0
      vertex -6.5 0 0
      vertex 6.5 0 0
    endloop
  endfacet
  facet normal 0 0 -1
    outer loop
      vertex -6.50722 -0.147025 0
      vertex 6.50722 -0.147025 0
      vertex 6.52882 -0.292635 0
    endloop
  endfacet
  facet normal 0 0 -1
    outer loop
      vertex -6.52882 -0.292635 0
      vertex 6.52882 -0.292635 0
      vertex 6.56459 -0.435427 0
    endloop
  endfacet
  facet normal 0 0 -1
    outer loop
      vertex -6.56459 -0.435427 0
      vertex 6.56459 -0.435427 0
      vertex 6.61418 -0.574024 0
    endloop
  endfacet
  facet normal 0 0 -1
    outer loop
      vertex -6.61418 -0.574024 0
      vertex 6.61418 -0.574024 0
      vertex 6.67712 -0.707094 0
    endloop
  endfacet
  facet normal 0 0 -1
    outer loop
      vertex -6.67712 -0.707094 0
      vertex 6.67712 -0.707094 0
      vertex 6.7528 -0.833355 0
    endloop
  endfacet
  facet normal 0 0 -1
    outer loop
      vertex -6.7528 -0.833355 0
      vertex 6.7528 -0.833355 0
      vertex 6.84048 -0.95159 0
    endloop
  endfacet
  facet normal 0 0 -1
    outer loop
      vertex -6.84048 -0.95159 0
      vertex 6.84048 -0.95159 0
      vertex 6.93934 -1.06066 0
    endloop
  endfacet
  facet normal 0 0 -1
    outer loop
      vertex -6.93934 -1.06066 0
      vertex 6.93934 -1.06066 0
      vertex 7.04841 -1.15952 0
    endloop
  endfacet
  facet normal 0 0 -1
    outer loop
      vertex -7.04841 -1.15952 0
      vertex 7.04841 -1.15952 0
      vertex 7.16664 -1.2472 0
    endloop
  endfacet
  facet normal 0 0 -1
    outer loop
      vertex -7.16664 -1.2472 0
      vertex 7.16664 -1.2472 0
      vertex 7.2929 -1.32288 0
    endloop
  endfacet
  facet normal 0 0 -1
    outer loop
      vertex -7.2929 -1.32288 0
      vertex 7.2929 -1.32288 0
      vertex 7.42597 -1.38582 0
    endloop
  endfacet
  facet normal 0 0 -1
    outer loop
      vertex -7.42597 -1.38582 0
      vertex 7.42597 -1.38582 0
      vertex 7.56457 -1.43541 0
    endloop
  endfacet
  facet normal 0 0 -1
    outer loop
      vertex 7.70736 -1.47118 0
      vertex -7.70736 -1.47118 0
      vertex 7.56457 -1.43541 0
    endloop
  endfacet
  facet normal 0 0 -1
    outer loop
      vertex 6.50722 -0.147025 0
      vertex -6.50722 -0.147025 0
      vertex -6.5 0 0
    endloop
  endfacet
  facet normal 0 0 -1
    outer loop
      vertex 6.52882 -0.292635 0
      vertex -6.52882 -0.292635 0
      vertex -6.50722 -0.147025 0
    endloop
  endfacet
  facet normal 0 0 -1
    outer loop
      vertex 6.56459 -0.435427 0
      vertex -6.56459 -0.435427 0
      vertex -6.52882 -0.292635 0
    endloop
  endfacet
  facet normal 0 0 -1
    outer loop
      vertex 6.61418 -0.574024 0
      vertex -6.61418 -0.574024 0
      vertex -6.56459 -0.435427 0
    endloop
  endfacet
  facet normal 0 0 -1
    outer loop
      vertex 6.67712 -0.707094 0
      vertex -6.67712 -0.707094 0
      vertex -6.61418 -0.574024 0
    endloop
  endfacet
  facet normal 0 0 -1
    outer loop
      vertex 6.7528 -0.833355 0
      vertex -6.7528 -0.833355 0
      vertex -6.67712 -0.707094 0
    endloop
  endfacet
  facet normal 0 0 -1
    outer loop
      vertex 6.84048 -0.95159 0
      vertex -6.84048 -0.95159 0
      vertex -6.7528 -0.833355 0
    endloop
  endfacet
  facet normal 0 0 -1
    outer loop
      vertex 6.93934 -1.06066 0
      vertex -6.93934 -1.06066 0
      vertex -6.84048 -0.95159 0
    endloop
  endfacet
  facet normal 0 0 -1
    outer loop
      vertex 7.04841 -1.15952 0
      vertex -7.04841 -1.15952 0
      vertex -6.93934 -1.06066 0
    endloop
  endfacet
  facet normal 0 0 -1
    outer loop
      vertex 7.16664 -1.2472 0
      vertex -7.16664 -1.2472 0
      vertex -7.04841 -1.15952 0
    endloop
  endfacet
  facet normal 0 0 -1
    outer loop
      vertex 7.2929 -1.32288 0
      vertex -7.2929 -1.32288 0
      vertex -7.16664 -1.2472 0
    endloop
  endfacet
  facet normal 0 0 -1
    outer loop
      vertex 7.42597 -1.38582 0
      vertex -7.42597 -1.38582 0
      vertex -7.2929 -1.32288 0
    endloop
  endfacet
  facet normal 0 0 -1
    outer loop
      vertex 7.56457 -1.43541 0
      vertex -7.56457 -1.43541 0
      vertex -7.42597 -1.38582 0
    endloop
  endfacet
  facet normal -0 0 -1
    outer loop
      vertex 7.56457 -1.43541 0
      vertex -7.70736 -1.47118 0
      vertex -7.56457 -1.43541 0
    endloop
  endfacet
  facet normal 0 0 -1
    outer loop
      vertex -12.95 -3.2 0
      vertex -7.70736 -1.47118 0
      vertex 12.95 -3.2 0
    endloop
  endfacet
  facet normal 0 0 -1
    outer loop
      vertex -7.70736 -1.47118 0
      vertex -12.95 -3.2 0
      vertex -7.85297 -1.49278 0
    endloop
  endfacet
  facet normal 0 0 -1
    outer loop
      vertex -7.85297 -1.49278 0
      vertex -12.95 -3.2 0
      vertex -8 -1.5 0
    endloop
  endfacet
  facet normal -0 0 -1
    outer loop
      vertex -9.49278 -0.147025 0
      vertex -12.95 -3.2 0
      vertex -9.5 0 0
    endloop
  endfacet
  facet normal -0 0 -1
    outer loop
      vertex -9.47118 -0.292635 0
      vertex -12.95 -3.2 0
      vertex -9.49278 -0.147025 0
    endloop
  endfacet
  facet normal -0 0 -1
    outer loop
      vertex -9.43541 -0.435427 0
      vertex -12.95 -3.2 0
      vertex -9.47118 -0.292635 0
    endloop
  endfacet
  facet normal -0 0 -1
    outer loop
      vertex -9.38582 -0.574024 0
      vertex -12.95 -3.2 0
      vertex -9.43541 -0.435427 0
    endloop
  endfacet
  facet normal -0 0 -1
    outer loop
      vertex -9.32288 -0.707094 0
      vertex -12.95 -3.2 0
      vertex -9.38582 -0.574024 0
    endloop
  endfacet
  facet normal -0 0 -1
    outer loop
      vertex -9.2472 -0.833355 0
      vertex -12.95 -3.2 0
      vertex -9.32288 -0.707094 0
    endloop
  endfacet
  facet normal -0 0 -1
    outer loop
      vertex -9.15952 -0.95159 0
      vertex -12.95 -3.2 0
      vertex -9.2472 -0.833355 0
    endloop
  endfacet
  facet normal -0 0 -1
    outer loop
      vertex -9.06066 -1.06066 0
      vertex -12.95 -3.2 0
      vertex -9.15952 -0.95159 0
    endloop
  endfacet
  facet normal -0 0 -1
    outer loop
      vertex -8.95159 -1.15952 0
      vertex -12.95 -3.2 0
      vertex -9.06066 -1.06066 0
    endloop
  endfacet
  facet normal -0 0 -1
    outer loop
      vertex -8.83335 -1.2472 0
      vertex -12.95 -3.2 0
      vertex -8.95159 -1.15952 0
    endloop
  endfacet
  facet normal -0 0 -1
    outer loop
      vertex -8.70709 -1.32288 0
      vertex -12.95 -3.2 0
      vertex -8.83335 -1.2472 0
    endloop
  endfacet
  facet normal -0 0 -1
    outer loop
      vertex -8.57402 -1.38582 0
      vertex -12.95 -3.2 0
      vertex -8.70709 -1.32288 0
    endloop
  endfacet
  facet normal -0 0 -1
    outer loop
      vertex -8.43543 -1.43541 0
      vertex -12.95 -3.2 0
      vertex -8.57402 -1.38582 0
    endloop
  endfacet
  facet normal -0 0 -1
    outer loop
      vertex -8.29263 -1.47118 0
      vertex -12.95 -3.2 0
      vertex -8.43543 -1.43541 0
    endloop
  endfacet
  facet normal -0 0 -1
    outer loop
      vertex -8.14703 -1.49278 0
      vertex -12.95 -3.2 0
      vertex -8.29263 -1.47118 0
    endloop
  endfacet
  facet normal -0 0 -1
    outer loop
      vertex -8 -1.5 0
      vertex -12.95 -3.2 0
      vertex -8.14703 -1.49278 0
    endloop
  endfacet
  facet normal 0 0 -1
    outer loop
      vertex 9.49278 0.147025 0
      vertex 12.95 3.2 0
      vertex 9.5 0 0
    endloop
  endfacet
  facet normal 0 0 -1
    outer loop
      vertex 9.47118 0.292635 0
      vertex 12.95 3.2 0
      vertex 9.49278 0.147025 0
    endloop
  endfacet
  facet normal 0 0 -1
    outer loop
      vertex 9.43541 0.435427 0
      vertex 12.95 3.2 0
      vertex 9.47118 0.292635 0
    endloop
  endfacet
  facet normal 0 0 -1
    outer loop
      vertex 9.38582 0.574024 0
      vertex 12.95 3.2 0
      vertex 9.43541 0.435427 0
    endloop
  endfacet
  facet normal 0 0 -1
    outer loop
      vertex 9.32288 0.707094 0
      vertex 12.95 3.2 0
      vertex 9.38582 0.574024 0
    endloop
  endfacet
  facet normal 0 0 -1
    outer loop
      vertex 9.2472 0.833355 0
      vertex 12.95 3.2 0
      vertex 9.32288 0.707094 0
    endloop
  endfacet
  facet normal 0 0 -1
    outer loop
      vertex 9.15952 0.95159 0
      vertex 12.95 3.2 0
      vertex 9.2472 0.833355 0
    endloop
  endfacet
  facet normal 0 0 -1
    outer loop
      vertex 9.06066 1.06066 0
      vertex 12.95 3.2 0
      vertex 9.15952 0.95159 0
    endloop
  endfacet
  facet normal 0 0 -1
    outer loop
      vertex 8.95159 1.15952 0
      vertex 12.95 3.2 0
      vertex 9.06066 1.06066 0
    endloop
  endfacet
  facet normal 0 0 -1
    outer loop
      vertex 8.83335 1.2472 0
      vertex 12.95 3.2 0
      vertex 8.95159 1.15952 0
    endloop
  endfacet
  facet normal 0 0 -1
    outer loop
      vertex 8.70709 1.32288 0
      vertex 12.95 3.2 0
      vertex 8.83335 1.2472 0
    endloop
  endfacet
  facet normal 0 0 -1
    outer loop
      vertex 8.57402 1.38582 0
      vertex 12.95 3.2 0
      vertex 8.70709 1.32288 0
    endloop
  endfacet
  facet normal 0 0 -1
    outer loop
      vertex 8.43543 1.43541 0
      vertex 12.95 3.2 0
      vertex 8.57402 1.38582 0
    endloop
  endfacet
  facet normal 0 0 -1
    outer loop
      vertex 8.29263 1.47118 0
      vertex 12.95 3.2 0
      vertex 8.43543 1.43541 0
    endloop
  endfacet
  facet normal 0 0 -1
    outer loop
      vertex 8.14703 1.49278 0
      vertex 12.95 3.2 0
      vertex 8.29263 1.47118 0
    endloop
  endfacet
  facet normal 0 0 -1
    outer loop
      vertex 8 1.5 0
      vertex 12.95 3.2 0
      vertex 8.14703 1.49278 0
    endloop
  endfacet
  facet normal 0 0 -1
    outer loop
      vertex 7.85297 1.49278 0
      vertex 12.95 3.2 0
      vertex 8 1.5 0
    endloop
  endfacet
  facet normal 0 0 -1
    outer loop
      vertex 7.70736 1.47118 0
      vertex 12.95 3.2 0
      vertex 7.85297 1.49278 0
    endloop
  endfacet
  facet normal 0 0 -1
    outer loop
      vertex -7.70736 1.47118 0
      vertex 7.70736 1.47118 0
      vertex 7.56457 1.43541 0
    endloop
  endfacet
  facet normal 0 0 -1
    outer loop
      vertex -6.5 0 0
      vertex 6.50722 0.147025 0
      vertex 6.5 0 0
    endloop
  endfacet
  facet normal 0 0 -1
    outer loop
      vertex -6.50722 0.147025 0
      vertex 6.50722 0.147025 0
      vertex -6.5 0 0
    endloop
  endfacet
  facet normal 0 0 -1
    outer loop
      vertex 6.50722 0.147025 0
      vertex -6.50722 0.147025 0
      vertex 6.52882 0.292635 0
    endloop
  endfacet
  facet normal 0 0 -1
    outer loop
      vertex -6.52882 0.292635 0
      vertex 6.52882 0.292635 0
      vertex -6.50722 0.147025 0
    endloop
  endfacet
  facet normal 0 0 -1
    outer loop
      vertex 6.52882 0.292635 0
      vertex -6.52882 0.292635 0
      vertex 6.56459 0.435427 0
    endloop
  endfacet
  facet normal 0 0 -1
    outer loop
      vertex -6.56459 0.435427 0
      vertex 6.56459 0.435427 0
      vertex -6.52882 0.292635 0
    endloop
  endfacet
  facet normal 0 0 -1
    outer loop
      vertex 6.56459 0.435427 0
      vertex -6.56459 0.435427 0
      vertex 6.61418 0.574024 0
    endloop
  endfacet
  facet normal 0 0 -1
    outer loop
      vertex -6.61418 0.574024 0
      vertex 6.61418 0.574024 0
      vertex -6.56459 0.435427 0
    endloop
  endfacet
  facet normal 0 0 -1
    outer loop
      vertex 6.61418 0.574024 0
      vertex -6.61418 0.574024 0
      vertex 6.67712 0.707094 0
    endloop
  endfacet
  facet normal 0 0 -1
    outer loop
      vertex -6.67712 0.707094 0
      vertex 6.67712 0.707094 0
      vertex -6.61418 0.574024 0
    endloop
  endfacet
  facet normal 0 0 -1
    outer loop
      vertex 6.67712 0.707094 0
      vertex -6.67712 0.707094 0
      vertex 6.7528 0.833355 0
    endloop
  endfacet
  facet normal 0 0 -1
    outer loop
      vertex -6.7528 0.833355 0
      vertex 6.7528 0.833355 0
      vertex -6.67712 0.707094 0
    endloop
  endfacet
  facet normal 0 0 -1
    outer loop
      vertex 6.7528 0.833355 0
      vertex -6.7528 0.833355 0
      vertex 6.84048 0.95159 0
    endloop
  endfacet
  facet normal 0 0 -1
    outer loop
      vertex -6.84048 0.95159 0
      vertex 6.84048 0.95159 0
      vertex -6.7528 0.833355 0
    endloop
  endfacet
  facet normal 0 0 -1
    outer loop
      vertex 6.84048 0.95159 0
      vertex -6.84048 0.95159 0
      vertex 6.93934 1.06066 0
    endloop
  endfacet
  facet normal 0 0 -1
    outer loop
      vertex -6.93934 1.06066 0
      vertex 6.93934 1.06066 0
      vertex -6.84048 0.95159 0
    endloop
  endfacet
  facet normal 0 0 -1
    outer loop
      vertex 6.93934 1.06066 0
      vertex -6.93934 1.06066 0
      vertex 7.04841 1.15952 0
    endloop
  endfacet
  facet normal 0 0 -1
    outer loop
      vertex -7.04841 1.15952 0
      vertex 7.04841 1.15952 0
      vertex -6.93934 1.06066 0
    endloop
  endfacet
  facet normal 0 0 -1
    outer loop
      vertex 7.04841 1.15952 0
      vertex -7.04841 1.15952 0
      vertex 7.16664 1.2472 0
    endloop
  endfacet
  facet normal 0 0 -1
    outer loop
      vertex -7.16664 1.2472 0
      vertex 7.16664 1.2472 0
      vertex -7.04841 1.15952 0
    endloop
  endfacet
  facet normal 0 0 -1
    outer loop
      vertex 7.16664 1.2472 0
      vertex -7.16664 1.2472 0
      vertex 7.2929 1.32288 0
    endloop
  endfacet
  facet normal 0 0 -1
    outer loop
      vertex -7.2929 1.32288 0
      vertex 7.2929 1.32288 0
      vertex -7.16664 1.2472 0
    endloop
  endfacet
  facet normal 0 0 -1
    outer loop
      vertex 7.2929 1.32288 0
      vertex -7.2929 1.32288 0
      vertex 7.42597 1.38582 0
    endloop
  endfacet
  facet normal 0 0 -1
    outer loop
      vertex -7.42597 1.38582 0
      vertex 7.42597 1.38582 0
      vertex -7.2929 1.32288 0
    endloop
  endfacet
  facet normal 0 0 -1
    outer loop
      vertex 7.42597 1.38582 0
      vertex -7.42597 1.38582 0
      vertex 7.56457 1.43541 0
    endloop
  endfacet
  facet normal 0 0 -1
    outer loop
      vertex -7.56457 1.43541 0
      vertex 7.56457 1.43541 0
      vertex -7.42597 1.38582 0
    endloop
  endfacet
  facet normal 0 0 -1
    outer loop
      vertex -7.70736 1.47118 0
      vertex 7.56457 1.43541 0
      vertex -7.56457 1.43541 0
    endloop
  endfacet
  facet normal 0 0 -1
    outer loop
      vertex 7.70736 1.47118 0
      vertex -7.70736 1.47118 0
      vertex 12.95 3.2 0
    endloop
  endfacet
  facet normal 0 0 -1
    outer loop
      vertex -12.95 3.2 0
      vertex -7.70736 1.47118 0
      vertex -7.85297 1.49278 0
    endloop
  endfacet
  facet normal 0 0 -1
    outer loop
      vertex -12.95 3.2 0
      vertex -7.85297 1.49278 0
      vertex -8 1.5 0
    endloop
  endfacet
  facet normal 0 0 -1
    outer loop
      vertex -12.95 3.2 0
      vertex -8 1.5 0
      vertex -8.14703 1.49278 0
    endloop
  endfacet
  facet normal 0 0 -1
    outer loop
      vertex -12.95 3.2 0
      vertex -9.5 0 0
      vertex -12.95 -3.2 0
    endloop
  endfacet
  facet normal 0 0 -1
    outer loop
      vertex -9.5 0 0
      vertex -12.95 3.2 0
      vertex -9.49278 0.147025 0
    endloop
  endfacet
  facet normal 0 0 -1
    outer loop
      vertex -9.49278 0.147025 0
      vertex -12.95 3.2 0
      vertex -9.47118 0.292635 0
    endloop
  endfacet
  facet normal 0 0 -1
    outer loop
      vertex -9.47118 0.292635 0
      vertex -12.95 3.2 0
      vertex -9.43541 0.435427 0
    endloop
  endfacet
  facet normal 0 0 -1
    outer loop
      vertex -9.43541 0.435427 0
      vertex -12.95 3.2 0
      vertex -9.38582 0.574024 0
    endloop
  endfacet
  facet normal 0 0 -1
    outer loop
      vertex -9.38582 0.574024 0
      vertex -12.95 3.2 0
      vertex -9.32288 0.707094 0
    endloop
  endfacet
  facet normal 0 0 -1
    outer loop
      vertex -9.32288 0.707094 0
      vertex -12.95 3.2 0
      vertex -9.2472 0.833355 0
    endloop
  endfacet
  facet normal 0 0 -1
    outer loop
      vertex -9.2472 0.833355 0
      vertex -12.95 3.2 0
      vertex -9.15952 0.95159 0
    endloop
  endfacet
  facet normal 0 0 -1
    outer loop
      vertex -7.70736 1.47118 0
      vertex -12.95 3.2 0
      vertex 12.95 3.2 0
    endloop
  endfacet
  facet normal 0 0 -1
    outer loop
      vertex -8.29263 1.47118 0
      vertex -12.95 3.2 0
      vertex -8.14703 1.49278 0
    endloop
  endfacet
  facet normal 0 0 -1
    outer loop
      vertex -8.43543 1.43541 0
      vertex -12.95 3.2 0
      vertex -8.29263 1.47118 0
    endloop
  endfacet
  facet normal 0 0 -1
    outer loop
      vertex -8.57402 1.38582 0
      vertex -12.95 3.2 0
      vertex -8.43543 1.43541 0
    endloop
  endfacet
  facet normal 0 0 -1
    outer loop
      vertex -8.70709 1.32288 0
      vertex -12.95 3.2 0
      vertex -8.57402 1.38582 0
    endloop
  endfacet
  facet normal 0 0 -1
    outer loop
      vertex -8.83335 1.2472 0
      vertex -12.95 3.2 0
      vertex -8.70709 1.32288 0
    endloop
  endfacet
  facet normal 0 0 -1
    outer loop
      vertex -8.95159 1.15952 0
      vertex -12.95 3.2 0
      vertex -8.83335 1.2472 0
    endloop
  endfacet
  facet normal 0 0 -1
    outer loop
      vertex -9.06066 1.06066 0
      vertex -12.95 3.2 0
      vertex -8.95159 1.15952 0
    endloop
  endfacet
  facet normal 0 0 -1
    outer loop
      vertex -9.15952 0.95159 0
      vertex -12.95 3.2 0
      vertex -9.06066 1.06066 0
    endloop
  endfacet
  facet normal -1 0 0
    outer loop
      vertex -12.95 -3.2 0
      vertex -12.95 3.2 3.5
      vertex -12.95 3.2 0
    endloop
  endfacet
  facet normal -1 -0 0
    outer loop
      vertex -12.95 3.2 3.5
      vertex -12.95 -3.2 0
      vertex -12.95 -3.2 3.5
    endloop
  endfacet
  facet normal 0 1 -0
    outer loop
      vertex 12.95 3.2 0
      vertex -12.95 3.2 3.5
      vertex 12.95 3.2 3.5
    endloop
  endfacet
  facet normal 0 1 0
    outer loop
      vertex -12.95 3.2 3.5
      vertex 12.95 3.2 0
      vertex -12.95 3.2 0
    endloop
  endfacet
  facet normal 0 -1 0
    outer loop
      vertex -12.95 -3.2 0
      vertex -4.55 -3.2 3.5
      vertex -12.95 -3.2 3.5
    endloop
  endfacet
  facet normal 0 -1 0
    outer loop
      vertex -4.55 -3.2 3.5
      vertex -2.95 -3.2 3.4
      vertex -2.95 -3.2 3.5
    endloop
  endfacet
  facet normal 0 -1 -0
    outer loop
      vertex -2.95 -3.2 3.4
      vertex -12.95 -3.2 0
      vertex 2.95 -3.2 3.4
    endloop
  endfacet
  facet normal 0 -1 -0
    outer loop
      vertex -4.55 -3.2 3.5
      vertex -12.95 -3.2 0
      vertex -2.95 -3.2 3.4
    endloop
  endfacet
  facet normal 0 -1 0
    outer loop
      vertex 2.95 -3.2 3.4
      vertex 4.55 -3.2 3.5
      vertex 2.95 -3.2 3.5
    endloop
  endfacet
  facet normal 0 -1 0
    outer loop
      vertex 12.95 -3.2 0
      vertex 4.55 -3.2 3.5
      vertex 2.95 -3.2 3.4
    endloop
  endfacet
  facet normal 0 -1 0
    outer loop
      vertex 12.95 -3.2 0
      vertex 2.95 -3.2 3.4
      vertex -12.95 -3.2 0
    endloop
  endfacet
  facet normal 0 -1 0
    outer loop
      vertex 4.55 -3.2 3.5
      vertex 12.95 -3.2 0
      vertex 12.95 -3.2 3.5
    endloop
  endfacet
  facet normal 0.998796 0.0490482 0
    outer loop
      vertex -9.49278 -0.147025 2.05
      vertex -9.5 0 0
      vertex -9.5 0 2.05
    endloop
  endfacet
  facet normal 0.998796 0.0490482 0
    outer loop
      vertex -9.5 0 0
      vertex -9.49278 -0.147025 2.05
      vertex -9.49278 -0.147025 0
    endloop
  endfacet
  facet normal -0.989176 -0.146736 0
    outer loop
      vertex -6.50722 0.147025 0
      vertex -6.52882 0.292635 2.05
      vertex -6.52882 0.292635 0
    endloop
  endfacet
  facet normal -0.989176 -0.146736 0
    outer loop
      vertex -6.52882 0.292635 2.05
      vertex -6.50722 0.147025 0
      vertex -6.50722 0.147025 2.05
    endloop
  endfacet
  facet normal -0.998796 -0.0490482 0
    outer loop
      vertex -6.5 0 0
      vertex -6.50722 0.147025 2.05
      vertex -6.50722 0.147025 0
    endloop
  endfacet
  facet normal -0.998796 -0.0490482 0
    outer loop
      vertex -6.50722 0.147025 2.05
      vertex -6.5 0 0
      vertex -6.5 0 2.05
    endloop
  endfacet
  facet normal -0.970027 -0.242996 0
    outer loop
      vertex -6.52882 0.292635 0
      vertex -6.56459 0.435427 2.05
      vertex -6.56459 0.435427 0
    endloop
  endfacet
  facet normal -0.970027 -0.242996 0
    outer loop
      vertex -6.56459 0.435427 2.05
      vertex -6.52882 0.292635 0
      vertex -6.52882 0.292635 2.05
    endloop
  endfacet
  facet normal -0.427569 0.903983 0
    outer loop
      vertex -7.2929 -1.32288 0
      vertex -7.42597 -1.38582 2.05
      vertex -7.2929 -1.32288 2.05
    endloop
  endfacet
  facet normal -0.427569 0.903983 0
    outer loop
      vertex -7.42597 -1.38582 2.05
      vertex -7.2929 -1.32288 0
      vertex -7.42597 -1.38582 0
    endloop
  endfacet
  facet normal -0.242999 0.970027 0
    outer loop
      vertex -7.56457 -1.43541 0
      vertex -7.70736 -1.47118 2.05
      vertex -7.56457 -1.43541 2.05
    endloop
  endfacet
  facet normal -0.242999 0.970027 0
    outer loop
      vertex -7.70736 -1.47118 2.05
      vertex -7.56457 -1.43541 0
      vertex -7.70736 -1.47118 0
    endloop
  endfacet
  facet normal -0.514116 0.857721 0
    outer loop
      vertex -7.16664 -1.2472 0
      vertex -7.2929 -1.32288 2.05
      vertex -7.16664 -1.2472 2.05
    endloop
  endfacet
  facet normal -0.514116 0.857721 0
    outer loop
      vertex -7.2929 -1.32288 2.05
      vertex -7.16664 -1.2472 0
      vertex -7.2929 -1.32288 0
    endloop
  endfacet
  facet normal -0.427569 -0.903983 0
    outer loop
      vertex -7.42597 1.38582 0
      vertex -7.2929 1.32288 2.05
      vertex -7.42597 1.38582 2.05
    endloop
  endfacet
  facet normal -0.427569 -0.903983 -0
    outer loop
      vertex -7.2929 1.32288 2.05
      vertex -7.42597 1.38582 0
      vertex -7.2929 1.32288 0
    endloop
  endfacet
  facet normal -0.0490465 -0.998796 0
    outer loop
      vertex -8 1.5 0
      vertex -7.85297 1.49278 2.05
      vertex -8 1.5 2.05
    endloop
  endfacet
  facet normal -0.0490465 -0.998796 -0
    outer loop
      vertex -7.85297 1.49278 2.05
      vertex -8 1.5 0
      vertex -7.85297 1.49278 0
    endloop
  endfacet
  facet normal -0.146736 -0.989176 0
    outer loop
      vertex -7.85297 1.49278 0
      vertex -7.70736 1.47118 2.05
      vertex -7.85297 1.49278 2.05
    endloop
  endfacet
  facet normal -0.146736 -0.989176 -0
    outer loop
      vertex -7.70736 1.47118 2.05
      vertex -7.85297 1.49278 0
      vertex -7.70736 1.47118 0
    endloop
  endfacet
  facet normal -0.242999 -0.970027 0
    outer loop
      vertex -7.70736 1.47118 0
      vertex -7.56457 1.43541 2.05
      vertex -7.70736 1.47118 2.05
    endloop
  endfacet
  facet normal -0.242999 -0.970027 -0
    outer loop
      vertex -7.56457 1.43541 2.05
      vertex -7.70736 1.47118 0
      vertex -7.56457 1.43541 0
    endloop
  endfacet
  facet normal 0.0490465 0.998796 -0
    outer loop
      vertex -8 -1.5 0
      vertex -8.14703 -1.49278 2.05
      vertex -8 -1.5 2.05
    endloop
  endfacet
  facet normal 0.0490465 0.998796 0
    outer loop
      vertex -8.14703 -1.49278 2.05
      vertex -8 -1.5 0
      vertex -8.14703 -1.49278 0
    endloop
  endfacet
  facet normal 0.989176 -0.146736 0
    outer loop
      vertex -9.49278 0.147025 2.05
      vertex -9.47118 0.292635 0
      vertex -9.47118 0.292635 2.05
    endloop
  endfacet
  facet normal 0.989176 -0.146736 0
    outer loop
      vertex -9.47118 0.292635 0
      vertex -9.49278 0.147025 2.05
      vertex -9.49278 0.147025 0
    endloop
  endfacet
  facet normal -0.595676 0.803225 0
    outer loop
      vertex -7.04841 -1.15952 0
      vertex -7.16664 -1.2472 2.05
      vertex -7.04841 -1.15952 2.05
    endloop
  endfacet
  facet normal -0.595676 0.803225 0
    outer loop
      vertex -7.16664 -1.2472 2.05
      vertex -7.04841 -1.15952 0
      vertex -7.16664 -1.2472 0
    endloop
  endfacet
  facet normal 0 0 -1
    outer loop
      vertex -6.50722 -0.147025 2.05
      vertex -6.50722 0.147025 2.05
      vertex -6.5 0 2.05
    endloop
  endfacet
  facet normal 0 0 -1
    outer loop
      vertex -6.52882 -0.292635 2.05
      vertex -6.50722 0.147025 2.05
      vertex -6.50722 -0.147025 2.05
    endloop
  endfacet
  facet normal 0 0 -1
    outer loop
      vertex -6.52882 -0.292635 2.05
      vertex -6.52882 0.292635 2.05
      vertex -6.50722 0.147025 2.05
    endloop
  endfacet
  facet normal 0 0 -1
    outer loop
      vertex -6.56459 -0.435427 2.05
      vertex -6.52882 0.292635 2.05
      vertex -6.52882 -0.292635 2.05
    endloop
  endfacet
  facet normal 0 0 -1
    outer loop
      vertex -6.56459 -0.435427 2.05
      vertex -6.56459 0.435427 2.05
      vertex -6.52882 0.292635 2.05
    endloop
  endfacet
  facet normal 0 0 -1
    outer loop
      vertex -6.61418 -0.574024 2.05
      vertex -6.56459 0.435427 2.05
      vertex -6.56459 -0.435427 2.05
    endloop
  endfacet
  facet normal 0 0 -1
    outer loop
      vertex -6.61418 -0.574024 2.05
      vertex -6.61418 0.574024 2.05
      vertex -6.56459 0.435427 2.05
    endloop
  endfacet
  facet normal 0 0 -1
    outer loop
      vertex -6.67712 -0.707094 2.05
      vertex -6.61418 0.574024 2.05
      vertex -6.61418 -0.574024 2.05
    endloop
  endfacet
  facet normal 0 0 -1
    outer loop
      vertex -6.67712 -0.707094 2.05
      vertex -6.67712 0.707094 2.05
      vertex -6.61418 0.574024 2.05
    endloop
  endfacet
  facet normal 0 0 -1
    outer loop
      vertex -6.7528 -0.833355 2.05
      vertex -6.67712 0.707094 2.05
      vertex -6.67712 -0.707094 2.05
    endloop
  endfacet
  facet normal 0 0 -1
    outer loop
      vertex -6.7528 -0.833355 2.05
      vertex -6.7528 0.833355 2.05
      vertex -6.67712 0.707094 2.05
    endloop
  endfacet
  facet normal 0 0 -1
    outer loop
      vertex -6.84048 -0.95159 2.05
      vertex -6.7528 0.833355 2.05
      vertex -6.7528 -0.833355 2.05
    endloop
  endfacet
  facet normal 0 0 -1
    outer loop
      vertex -6.84048 -0.95159 2.05
      vertex -6.84048 0.95159 2.05
      vertex -6.7528 0.833355 2.05
    endloop
  endfacet
  facet normal 0 0 -1
    outer loop
      vertex -6.93934 -1.06066 2.05
      vertex -6.84048 0.95159 2.05
      vertex -6.84048 -0.95159 2.05
    endloop
  endfacet
  facet normal 0 0 -1
    outer loop
      vertex -6.93934 -1.06066 2.05
      vertex -6.93934 1.06066 2.05
      vertex -6.84048 0.95159 2.05
    endloop
  endfacet
  facet normal 0 0 -1
    outer loop
      vertex -7.04841 -1.15952 2.05
      vertex -6.93934 1.06066 2.05
      vertex -6.93934 -1.06066 2.05
    endloop
  endfacet
  facet normal 0 0 -1
    outer loop
      vertex -7.04841 -1.15952 2.05
      vertex -7.04841 1.15952 2.05
      vertex -6.93934 1.06066 2.05
    endloop
  endfacet
  facet normal 0 0 -1
    outer loop
      vertex -7.16664 -1.2472 2.05
      vertex -7.04841 1.15952 2.05
      vertex -7.04841 -1.15952 2.05
    endloop
  endfacet
  facet normal 0 0 -1
    outer loop
      vertex -7.16664 -1.2472 2.05
      vertex -7.16664 1.2472 2.05
      vertex -7.04841 1.15952 2.05
    endloop
  endfacet
  facet normal 0 0 -1
    outer loop
      vertex -7.2929 -1.32288 2.05
      vertex -7.16664 1.2472 2.05
      vertex -7.16664 -1.2472 2.05
    endloop
  endfacet
  facet normal 0 0 -1
    outer loop
      vertex -7.2929 -1.32288 2.05
      vertex -7.2929 1.32288 2.05
      vertex -7.16664 1.2472 2.05
    endloop
  endfacet
  facet normal 0 0 -1
    outer loop
      vertex -7.42597 -1.38582 2.05
      vertex -7.2929 1.32288 2.05
      vertex -7.2929 -1.32288 2.05
    endloop
  endfacet
  facet normal 0 0 -1
    outer loop
      vertex -7.42597 -1.38582 2.05
      vertex -7.42597 1.38582 2.05
      vertex -7.2929 1.32288 2.05
    endloop
  endfacet
  facet normal 0 0 -1
    outer loop
      vertex -7.56457 -1.43541 2.05
      vertex -7.42597 1.38582 2.05
      vertex -7.42597 -1.38582 2.05
    endloop
  endfacet
  facet normal 0 0 -1
    outer loop
      vertex -7.56457 -1.43541 2.05
      vertex -7.56457 1.43541 2.05
      vertex -7.42597 1.38582 2.05
    endloop
  endfacet
  facet normal 0 0 -1
    outer loop
      vertex -7.70736 -1.47118 2.05
      vertex -7.56457 1.43541 2.05
      vertex -7.56457 -1.43541 2.05
    endloop
  endfacet
  facet normal 0 0 -1
    outer loop
      vertex -7.70736 -1.47118 2.05
      vertex -7.70736 1.47118 2.05
      vertex -7.56457 1.43541 2.05
    endloop
  endfacet
  facet normal 0 0 -1
    outer loop
      vertex -7.85297 -1.49278 2.05
      vertex -7.70736 1.47118 2.05
      vertex -7.70736 -1.47118 2.05
    endloop
  endfacet
  facet normal 0 0 -1
    outer loop
      vertex -7.85297 -1.49278 2.05
      vertex -7.85297 1.49278 2.05
      vertex -7.70736 1.47118 2.05
    endloop
  endfacet
  facet normal 0 0 -1
    outer loop
      vertex -8 -1.5 2.05
      vertex -7.85297 1.49278 2.05
      vertex -7.85297 -1.49278 2.05
    endloop
  endfacet
  facet normal 0 0 -1
    outer loop
      vertex -8 -1.5 2.05
      vertex -8 1.5 2.05
      vertex -7.85297 1.49278 2.05
    endloop
  endfacet
  facet normal 0 0 -1
    outer loop
      vertex -8.14703 -1.49278 2.05
      vertex -8 1.5 2.05
      vertex -8 -1.5 2.05
    endloop
  endfacet
  facet normal 0 0 -1
    outer loop
      vertex -8.14703 -1.49278 2.05
      vertex -8.14703 1.49278 2.05
      vertex -8 1.5 2.05
    endloop
  endfacet
  facet normal 0 0 -1
    outer loop
      vertex -8.29263 -1.47118 2.05
      vertex -8.14703 1.49278 2.05
      vertex -8.14703 -1.49278 2.05
    endloop
  endfacet
  facet normal 0 0 -1
    outer loop
      vertex -8.29263 -1.47118 2.05
      vertex -8.29263 1.47118 2.05
      vertex -8.14703 1.49278 2.05
    endloop
  endfacet
  facet normal 0 0 -1
    outer loop
      vertex -8.43543 -1.43541 2.05
      vertex -8.29263 1.47118 2.05
      vertex -8.29263 -1.47118 2.05
    endloop
  endfacet
  facet normal 0 0 -1
    outer loop
      vertex -8.43543 -1.43541 2.05
      vertex -8.43543 1.43541 2.05
      vertex -8.29263 1.47118 2.05
    endloop
  endfacet
  facet normal 0 0 -1
    outer loop
      vertex -8.57402 -1.38582 2.05
      vertex -8.43543 1.43541 2.05
      vertex -8.43543 -1.43541 2.05
    endloop
  endfacet
  facet normal 0 0 -1
    outer loop
      vertex -8.57402 -1.38582 2.05
      vertex -8.57402 1.38582 2.05
      vertex -8.43543 1.43541 2.05
    endloop
  endfacet
  facet normal 0 0 -1
    outer loop
      vertex -8.70709 -1.32288 2.05
      vertex -8.57402 1.38582 2.05
      vertex -8.57402 -1.38582 2.05
    endloop
  endfacet
  facet normal 0 0 -1
    outer loop
      vertex -8.70709 -1.32288 2.05
      vertex -8.70709 1.32288 2.05
      vertex -8.57402 1.38582 2.05
    endloop
  endfacet
  facet normal 0 0 -1
    outer loop
      vertex -8.83335 -1.2472 2.05
      vertex -8.70709 1.32288 2.05
      vertex -8.70709 -1.32288 2.05
    endloop
  endfacet
  facet normal 0 0 -1
    outer loop
      vertex -8.83335 -1.2472 2.05
      vertex -8.83335 1.2472 2.05
      vertex -8.70709 1.32288 2.05
    endloop
  endfacet
  facet normal 0 0 -1
    outer loop
      vertex -8.95159 -1.15952 2.05
      vertex -8.83335 1.2472 2.05
      vertex -8.83335 -1.2472 2.05
    endloop
  endfacet
  facet normal 0 0 -1
    outer loop
      vertex -8.95159 -1.15952 2.05
      vertex -8.95159 1.15952 2.05
      vertex -8.83335 1.2472 2.05
    endloop
  endfacet
  facet normal 0 0 -1
    outer loop
      vertex -9.06066 -1.06066 2.05
      vertex -8.95159 1.15952 2.05
      vertex -8.95159 -1.15952 2.05
    endloop
  endfacet
  facet normal 0 0 -1
    outer loop
      vertex -9.06066 -1.06066 2.05
      vertex -9.06066 1.06066 2.05
      vertex -8.95159 1.15952 2.05
    endloop
  endfacet
  facet normal 0 0 -1
    outer loop
      vertex -9.15952 -0.95159 2.05
      vertex -9.06066 1.06066 2.05
      vertex -9.06066 -1.06066 2.05
    endloop
  endfacet
  facet normal 0 0 -1
    outer loop
      vertex -9.15952 -0.95159 2.05
      vertex -9.15952 0.95159 2.05
      vertex -9.06066 1.06066 2.05
    endloop
  endfacet
  facet normal 0 0 -1
    outer loop
      vertex -9.2472 -0.833355 2.05
      vertex -9.15952 0.95159 2.05
      vertex -9.15952 -0.95159 2.05
    endloop
  endfacet
  facet normal 0 0 -1
    outer loop
      vertex -9.2472 -0.833355 2.05
      vertex -9.2472 0.833355 2.05
      vertex -9.15952 0.95159 2.05
    endloop
  endfacet
  facet normal 0 0 -1
    outer loop
      vertex -9.32288 -0.707094 2.05
      vertex -9.2472 0.833355 2.05
      vertex -9.2472 -0.833355 2.05
    endloop
  endfacet
  facet normal 0 0 -1
    outer loop
      vertex -9.32288 -0.707094 2.05
      vertex -9.32288 0.707094 2.05
      vertex -9.2472 0.833355 2.05
    endloop
  endfacet
  facet normal 0 0 -1
    outer loop
      vertex -9.38582 -0.574024 2.05
      vertex -9.32288 0.707094 2.05
      vertex -9.32288 -0.707094 2.05
    endloop
  endfacet
  facet normal 0 0 -1
    outer loop
      vertex -9.38582 -0.574024 2.05
      vertex -9.38582 0.574024 2.05
      vertex -9.32288 0.707094 2.05
    endloop
  endfacet
  facet normal 0 0 -1
    outer loop
      vertex -9.43541 -0.435427 2.05
      vertex -9.38582 0.574024 2.05
      vertex -9.38582 -0.574024 2.05
    endloop
  endfacet
  facet normal 0 0 -1
    outer loop
      vertex -9.43541 -0.435427 2.05
      vertex -9.43541 0.435427 2.05
      vertex -9.38582 0.574024 2.05
    endloop
  endfacet
  facet normal 0 0 -1
    outer loop
      vertex -9.47118 -0.292635 2.05
      vertex -9.43541 0.435427 2.05
      vertex -9.43541 -0.435427 2.05
    endloop
  endfacet
  facet normal 0 0 -1
    outer loop
      vertex -9.47118 -0.292635 2.05
      vertex -9.47118 0.292635 2.05
      vertex -9.43541 0.435427 2.05
    endloop
  endfacet
  facet normal 0 0 -1
    outer loop
      vertex -9.49278 -0.147025 2.05
      vertex -9.47118 0.292635 2.05
      vertex -9.47118 -0.292635 2.05
    endloop
  endfacet
  facet normal 0 0 -1
    outer loop
      vertex -9.49278 -0.147025 2.05
      vertex -9.49278 0.147025 2.05
      vertex -9.47118 0.292635 2.05
    endloop
  endfacet
  facet normal 0 -0 -1
    outer loop
      vertex -9.49278 0.147025 2.05
      vertex -9.49278 -0.147025 2.05
      vertex -9.5 0 2.05
    endloop
  endfacet
  facet normal -0.903983 -0.427569 0
    outer loop
      vertex -6.61418 0.574024 0
      vertex -6.67712 0.707094 2.05
      vertex -6.67712 0.707094 0
    endloop
  endfacet
  facet normal -0.903983 -0.427569 0
    outer loop
      vertex -6.67712 0.707094 2.05
      vertex -6.61418 0.574024 0
      vertex -6.61418 0.574024 2.05
    endloop
  endfacet
  facet normal -0.803237 0.59566 0
    outer loop
      vertex -6.84048 -0.95159 0
      vertex -6.7528 -0.833355 2.05
      vertex -6.7528 -0.833355 0
    endloop
  endfacet
  facet normal -0.803237 0.59566 0
    outer loop
      vertex -6.7528 -0.833355 2.05
      vertex -6.84048 -0.95159 0
      vertex -6.84048 -0.95159 2.05
    endloop
  endfacet
  facet normal 0.242983 -0.970031 0
    outer loop
      vertex -8.43543 1.43541 0
      vertex -8.29263 1.47118 2.05
      vertex -8.43543 1.43541 2.05
    endloop
  endfacet
  facet normal 0.242983 -0.970031 0
    outer loop
      vertex -8.29263 1.47118 2.05
      vertex -8.43543 1.43541 0
      vertex -8.29263 1.47118 0
    endloop
  endfacet
  facet normal -0.514116 -0.857721 0
    outer loop
      vertex -7.2929 1.32288 0
      vertex -7.16664 1.2472 2.05
      vertex -7.2929 1.32288 2.05
    endloop
  endfacet
  facet normal -0.514116 -0.857721 -0
    outer loop
      vertex -7.16664 1.2472 2.05
      vertex -7.2929 1.32288 0
      vertex -7.16664 1.2472 0
    endloop
  endfacet
  facet normal 0.514116 -0.857721 0
    outer loop
      vertex -8.83335 1.2472 0
      vertex -8.70709 1.32288 2.05
      vertex -8.83335 1.2472 2.05
    endloop
  endfacet
  facet normal 0.514116 -0.857721 0
    outer loop
      vertex -8.70709 1.32288 2.05
      vertex -8.83335 1.2472 0
      vertex -8.70709 1.32288 0
    endloop
  endfacet
  facet normal -0.803237 -0.59566 0
    outer loop
      vertex -6.7528 0.833355 0
      vertex -6.84048 0.95159 2.05
      vertex -6.84048 0.95159 0
    endloop
  endfacet
  facet normal -0.803237 -0.59566 0
    outer loop
      vertex -6.84048 0.95159 2.05
      vertex -6.7528 0.833355 0
      vertex -6.7528 0.833355 2.05
    endloop
  endfacet
  facet normal 0.740935 0.671577 0
    outer loop
      vertex -9.06066 -1.06066 2.05
      vertex -9.15952 -0.95159 0
      vertex -9.15952 -0.95159 2.05
    endloop
  endfacet
  facet normal 0.740935 0.671577 0
    outer loop
      vertex -9.15952 -0.95159 0
      vertex -9.06066 -1.06066 2.05
      vertex -9.06066 -1.06066 0
    endloop
  endfacet
  facet normal -0.998796 0.0490482 0
    outer loop
      vertex -6.50722 -0.147025 0
      vertex -6.5 0 2.05
      vertex -6.5 0 0
    endloop
  endfacet
  facet normal -0.998796 0.0490482 0
    outer loop
      vertex -6.5 0 2.05
      vertex -6.50722 -0.147025 0
      vertex -6.50722 -0.147025 2.05
    endloop
  endfacet
  facet normal 0.941546 0.336885 0
    outer loop
      vertex -9.38582 -0.574024 2.05
      vertex -9.43541 -0.435427 0
      vertex -9.43541 -0.435427 2.05
    endloop
  endfacet
  facet normal 0.941546 0.336885 0
    outer loop
      vertex -9.43541 -0.435427 0
      vertex -9.38582 -0.574024 2.05
      vertex -9.38582 -0.574024 0
    endloop
  endfacet
  facet normal -0.903983 0.427569 0
    outer loop
      vertex -6.67712 -0.707094 0
      vertex -6.61418 -0.574024 2.05
      vertex -6.61418 -0.574024 0
    endloop
  endfacet
  facet normal -0.903983 0.427569 0
    outer loop
      vertex -6.61418 -0.574024 2.05
      vertex -6.67712 -0.707094 0
      vertex -6.67712 -0.707094 2.05
    endloop
  endfacet
  facet normal 0.595643 -0.803249 0
    outer loop
      vertex -8.95159 1.15952 0
      vertex -8.83335 1.2472 2.05
      vertex -8.95159 1.15952 2.05
    endloop
  endfacet
  facet normal 0.595643 -0.803249 0
    outer loop
      vertex -8.83335 1.2472 2.05
      vertex -8.95159 1.15952 0
      vertex -8.83335 1.2472 0
    endloop
  endfacet
  facet normal 0.970027 0.242996 0
    outer loop
      vertex -9.43541 -0.435427 2.05
      vertex -9.47118 -0.292635 0
      vertex -9.47118 -0.292635 2.05
    endloop
  endfacet
  facet normal 0.970027 0.242996 0
    outer loop
      vertex -9.47118 -0.292635 0
      vertex -9.43541 -0.435427 2.05
      vertex -9.43541 -0.435427 0
    endloop
  endfacet
  facet normal 0.146746 0.989174 -0
    outer loop
      vertex -8.14703 -1.49278 0
      vertex -8.29263 -1.47118 2.05
      vertex -8.14703 -1.49278 2.05
    endloop
  endfacet
  facet normal 0.146746 0.989174 0
    outer loop
      vertex -8.29263 -1.47118 2.05
      vertex -8.14703 -1.49278 0
      vertex -8.29263 -1.47118 0
    endloop
  endfacet
  facet normal -0.941546 -0.336885 0
    outer loop
      vertex -6.56459 0.435427 0
      vertex -6.61418 0.574024 2.05
      vertex -6.61418 0.574024 0
    endloop
  endfacet
  facet normal -0.941546 -0.336885 0
    outer loop
      vertex -6.61418 0.574024 2.05
      vertex -6.56459 0.435427 0
      vertex -6.56459 0.435427 2.05
    endloop
  endfacet
  facet normal -0.740935 -0.671577 0
    outer loop
      vertex -6.84048 0.95159 0
      vertex -6.93934 1.06066 2.05
      vertex -6.93934 1.06066 0
    endloop
  endfacet
  facet normal -0.740935 -0.671577 0
    outer loop
      vertex -6.93934 1.06066 2.05
      vertex -6.84048 0.95159 0
      vertex -6.84048 0.95159 2.05
    endloop
  endfacet
  facet normal 0.0490465 -0.998796 0
    outer loop
      vertex -8.14703 1.49278 0
      vertex -8 1.5 2.05
      vertex -8.14703 1.49278 2.05
    endloop
  endfacet
  facet normal 0.0490465 -0.998796 0
    outer loop
      vertex -8 1.5 2.05
      vertex -8.14703 1.49278 0
      vertex -8 1.5 0
    endloop
  endfacet
  facet normal 0.740935 -0.671577 0
    outer loop
      vertex -9.15952 0.95159 2.05
      vertex -9.06066 1.06066 0
      vertex -9.06066 1.06066 2.05
    endloop
  endfacet
  facet normal 0.740935 -0.671577 0
    outer loop
      vertex -9.06066 1.06066 0
      vertex -9.15952 0.95159 2.05
      vertex -9.15952 0.95159 0
    endloop
  endfacet
  facet normal -0.970027 0.242996 0
    outer loop
      vertex -6.56459 -0.435427 0
      vertex -6.52882 -0.292635 2.05
      vertex -6.52882 -0.292635 0
    endloop
  endfacet
  facet normal -0.970027 0.242996 0
    outer loop
      vertex -6.52882 -0.292635 2.05
      vertex -6.56459 -0.435427 0
      vertex -6.56459 -0.435427 2.05
    endloop
  endfacet
  facet normal -0.989176 0.146736 0
    outer loop
      vertex -6.52882 -0.292635 0
      vertex -6.50722 -0.147025 2.05
      vertex -6.50722 -0.147025 0
    endloop
  endfacet
  facet normal -0.989176 0.146736 0
    outer loop
      vertex -6.50722 -0.147025 2.05
      vertex -6.52882 -0.292635 0
      vertex -6.52882 -0.292635 2.05
    endloop
  endfacet
  facet normal -0.336879 0.941548 0
    outer loop
      vertex -7.42597 -1.38582 0
      vertex -7.56457 -1.43541 2.05
      vertex -7.42597 -1.38582 2.05
    endloop
  endfacet
  facet normal -0.336879 0.941548 0
    outer loop
      vertex -7.56457 -1.43541 2.05
      vertex -7.42597 -1.38582 0
      vertex -7.56457 -1.43541 0
    endloop
  endfacet
  facet normal 0.671577 0.740935 -0
    outer loop
      vertex -8.95159 -1.15952 0
      vertex -9.06066 -1.06066 2.05
      vertex -8.95159 -1.15952 2.05
    endloop
  endfacet
  facet normal 0.671577 0.740935 0
    outer loop
      vertex -9.06066 -1.06066 2.05
      vertex -8.95159 -1.15952 0
      vertex -9.06066 -1.06066 0
    endloop
  endfacet
  facet normal 0.903983 -0.427569 0
    outer loop
      vertex -9.38582 0.574024 2.05
      vertex -9.32288 0.707094 0
      vertex -9.32288 0.707094 2.05
    endloop
  endfacet
  facet normal 0.903983 -0.427569 0
    outer loop
      vertex -9.32288 0.707094 0
      vertex -9.38582 0.574024 2.05
      vertex -9.38582 0.574024 0
    endloop
  endfacet
  facet normal 0.146746 -0.989174 0
    outer loop
      vertex -8.29263 1.47118 0
      vertex -8.14703 1.49278 2.05
      vertex -8.29263 1.47118 2.05
    endloop
  endfacet
  facet normal 0.146746 -0.989174 0
    outer loop
      vertex -8.14703 1.49278 2.05
      vertex -8.29263 1.47118 0
      vertex -8.14703 1.49278 0
    endloop
  endfacet
  facet normal -0.0490465 0.998796 0
    outer loop
      vertex -7.85297 -1.49278 0
      vertex -8 -1.5 2.05
      vertex -7.85297 -1.49278 2.05
    endloop
  endfacet
  facet normal -0.0490465 0.998796 0
    outer loop
      vertex -8 -1.5 2.05
      vertex -7.85297 -1.49278 0
      vertex -8 -1.5 0
    endloop
  endfacet
  facet normal -0.857722 0.514113 0
    outer loop
      vertex -6.7528 -0.833355 0
      vertex -6.67712 -0.707094 2.05
      vertex -6.67712 -0.707094 0
    endloop
  endfacet
  facet normal -0.857722 0.514113 0
    outer loop
      vertex -6.67712 -0.707094 2.05
      vertex -6.7528 -0.833355 0
      vertex -6.7528 -0.833355 2.05
    endloop
  endfacet
  facet normal 0.857722 -0.514113 0
    outer loop
      vertex -9.32288 0.707094 2.05
      vertex -9.2472 0.833355 0
      vertex -9.2472 0.833355 2.05
    endloop
  endfacet
  facet normal 0.857722 -0.514113 0
    outer loop
      vertex -9.2472 0.833355 0
      vertex -9.32288 0.707094 2.05
      vertex -9.32288 0.707094 0
    endloop
  endfacet
  facet normal -0.146736 0.989176 0
    outer loop
      vertex -7.70736 -1.47118 0
      vertex -7.85297 -1.49278 2.05
      vertex -7.70736 -1.47118 2.05
    endloop
  endfacet
  facet normal -0.146736 0.989176 0
    outer loop
      vertex -7.85297 -1.49278 2.05
      vertex -7.70736 -1.47118 0
      vertex -7.85297 -1.49278 0
    endloop
  endfacet
  facet normal -0.595676 -0.803225 0
    outer loop
      vertex -7.16664 1.2472 0
      vertex -7.04841 1.15952 2.05
      vertex -7.16664 1.2472 2.05
    endloop
  endfacet
  facet normal -0.595676 -0.803225 -0
    outer loop
      vertex -7.04841 1.15952 2.05
      vertex -7.16664 1.2472 0
      vertex -7.04841 1.15952 0
    endloop
  endfacet
  facet normal 0.427569 -0.903983 0
    outer loop
      vertex -8.70709 1.32288 0
      vertex -8.57402 1.38582 2.05
      vertex -8.70709 1.32288 2.05
    endloop
  endfacet
  facet normal 0.427569 -0.903983 0
    outer loop
      vertex -8.57402 1.38582 2.05
      vertex -8.70709 1.32288 0
      vertex -8.57402 1.38582 0
    endloop
  endfacet
  facet normal 0.671577 -0.740935 0
    outer loop
      vertex -9.06066 1.06066 0
      vertex -8.95159 1.15952 2.05
      vertex -9.06066 1.06066 2.05
    endloop
  endfacet
  facet normal 0.671577 -0.740935 0
    outer loop
      vertex -8.95159 1.15952 2.05
      vertex -9.06066 1.06066 0
      vertex -8.95159 1.15952 0
    endloop
  endfacet
  facet normal -0.857722 -0.514113 0
    outer loop
      vertex -6.67712 0.707094 0
      vertex -6.7528 0.833355 2.05
      vertex -6.7528 0.833355 0
    endloop
  endfacet
  facet normal -0.857722 -0.514113 0
    outer loop
      vertex -6.7528 0.833355 2.05
      vertex -6.67712 0.707094 0
      vertex -6.67712 0.707094 2.05
    endloop
  endfacet
  facet normal -0.671577 -0.740935 0
    outer loop
      vertex -7.04841 1.15952 0
      vertex -6.93934 1.06066 2.05
      vertex -7.04841 1.15952 2.05
    endloop
  endfacet
  facet normal -0.671577 -0.740935 -0
    outer loop
      vertex -6.93934 1.06066 2.05
      vertex -7.04841 1.15952 0
      vertex -6.93934 1.06066 0
    endloop
  endfacet
  facet normal 0.970027 -0.242996 0
    outer loop
      vertex -9.47118 0.292635 2.05
      vertex -9.43541 0.435427 0
      vertex -9.43541 0.435427 2.05
    endloop
  endfacet
  facet normal 0.970027 -0.242996 0
    outer loop
      vertex -9.43541 0.435427 0
      vertex -9.47118 0.292635 2.05
      vertex -9.47118 0.292635 0
    endloop
  endfacet
  facet normal -0.336879 -0.941548 0
    outer loop
      vertex -7.56457 1.43541 0
      vertex -7.42597 1.38582 2.05
      vertex -7.56457 1.43541 2.05
    endloop
  endfacet
  facet normal -0.336879 -0.941548 -0
    outer loop
      vertex -7.42597 1.38582 2.05
      vertex -7.56457 1.43541 0
      vertex -7.42597 1.38582 0
    endloop
  endfacet
  facet normal 0.3369 -0.94154 0
    outer loop
      vertex -8.57402 1.38582 0
      vertex -8.43543 1.43541 2.05
      vertex -8.57402 1.38582 2.05
    endloop
  endfacet
  facet normal 0.3369 -0.94154 0
    outer loop
      vertex -8.43543 1.43541 2.05
      vertex -8.57402 1.38582 0
      vertex -8.43543 1.43541 0
    endloop
  endfacet
  facet normal 0.857722 0.514113 0
    outer loop
      vertex -9.2472 -0.833355 2.05
      vertex -9.32288 -0.707094 0
      vertex -9.32288 -0.707094 2.05
    endloop
  endfacet
  facet normal 0.857722 0.514113 0
    outer loop
      vertex -9.32288 -0.707094 0
      vertex -9.2472 -0.833355 2.05
      vertex -9.2472 -0.833355 0
    endloop
  endfacet
  facet normal 0.514116 0.857721 -0
    outer loop
      vertex -8.70709 -1.32288 0
      vertex -8.83335 -1.2472 2.05
      vertex -8.70709 -1.32288 2.05
    endloop
  endfacet
  facet normal 0.514116 0.857721 0
    outer loop
      vertex -8.83335 -1.2472 2.05
      vertex -8.70709 -1.32288 0
      vertex -8.83335 -1.2472 0
    endloop
  endfacet
  facet normal -0.671577 0.740935 0
    outer loop
      vertex -6.93934 -1.06066 0
      vertex -7.04841 -1.15952 2.05
      vertex -6.93934 -1.06066 2.05
    endloop
  endfacet
  facet normal -0.671577 0.740935 0
    outer loop
      vertex -7.04841 -1.15952 2.05
      vertex -6.93934 -1.06066 0
      vertex -7.04841 -1.15952 0
    endloop
  endfacet
  facet normal 0.595643 0.803249 -0
    outer loop
      vertex -8.83335 -1.2472 0
      vertex -8.95159 -1.15952 2.05
      vertex -8.83335 -1.2472 2.05
    endloop
  endfacet
  facet normal 0.595643 0.803249 0
    outer loop
      vertex -8.95159 -1.15952 2.05
      vertex -8.83335 -1.2472 0
      vertex -8.95159 -1.15952 0
    endloop
  endfacet
  facet normal 0.427569 0.903983 -0
    outer loop
      vertex -8.57402 -1.38582 0
      vertex -8.70709 -1.32288 2.05
      vertex -8.57402 -1.38582 2.05
    endloop
  endfacet
  facet normal 0.427569 0.903983 0
    outer loop
      vertex -8.70709 -1.32288 2.05
      vertex -8.57402 -1.38582 0
      vertex -8.70709 -1.32288 0
    endloop
  endfacet
  facet normal 0.803237 0.59566 0
    outer loop
      vertex -9.15952 -0.95159 2.05
      vertex -9.2472 -0.833355 0
      vertex -9.2472 -0.833355 2.05
    endloop
  endfacet
  facet normal 0.803237 0.59566 0
    outer loop
      vertex -9.2472 -0.833355 0
      vertex -9.15952 -0.95159 2.05
      vertex -9.15952 -0.95159 0
    endloop
  endfacet
  facet normal 0.242983 0.970031 -0
    outer loop
      vertex -8.29263 -1.47118 0
      vertex -8.43543 -1.43541 2.05
      vertex -8.29263 -1.47118 2.05
    endloop
  endfacet
  facet normal 0.242983 0.970031 0
    outer loop
      vertex -8.43543 -1.43541 2.05
      vertex -8.29263 -1.47118 0
      vertex -8.43543 -1.43541 0
    endloop
  endfacet
  facet normal 0.3369 0.94154 -0
    outer loop
      vertex -8.43543 -1.43541 0
      vertex -8.57402 -1.38582 2.05
      vertex -8.43543 -1.43541 2.05
    endloop
  endfacet
  facet normal 0.3369 0.94154 0
    outer loop
      vertex -8.57402 -1.38582 2.05
      vertex -8.43543 -1.43541 0
      vertex -8.57402 -1.38582 0
    endloop
  endfacet
  facet normal 0.989176 0.146736 0
    outer loop
      vertex -9.47118 -0.292635 2.05
      vertex -9.49278 -0.147025 0
      vertex -9.49278 -0.147025 2.05
    endloop
  endfacet
  facet normal 0.989176 0.146736 0
    outer loop
      vertex -9.49278 -0.147025 0
      vertex -9.47118 -0.292635 2.05
      vertex -9.47118 -0.292635 0
    endloop
  endfacet
  facet normal 0.903983 0.427569 0
    outer loop
      vertex -9.32288 -0.707094 2.05
      vertex -9.38582 -0.574024 0
      vertex -9.38582 -0.574024 2.05
    endloop
  endfacet
  facet normal 0.903983 0.427569 0
    outer loop
      vertex -9.38582 -0.574024 0
      vertex -9.32288 -0.707094 2.05
      vertex -9.32288 -0.707094 0
    endloop
  endfacet
  facet normal 0.941546 -0.336885 0
    outer loop
      vertex -9.43541 0.435427 2.05
      vertex -9.38582 0.574024 0
      vertex -9.38582 0.574024 2.05
    endloop
  endfacet
  facet normal 0.941546 -0.336885 0
    outer loop
      vertex -9.38582 0.574024 0
      vertex -9.43541 0.435427 2.05
      vertex -9.43541 0.435427 0
    endloop
  endfacet
  facet normal -0.941546 0.336885 0
    outer loop
      vertex -6.61418 -0.574024 0
      vertex -6.56459 -0.435427 2.05
      vertex -6.56459 -0.435427 0
    endloop
  endfacet
  facet normal -0.941546 0.336885 0
    outer loop
      vertex -6.56459 -0.435427 2.05
      vertex -6.61418 -0.574024 0
      vertex -6.61418 -0.574024 2.05
    endloop
  endfacet
  facet normal 0.803237 -0.59566 0
    outer loop
      vertex -9.2472 0.833355 2.05
      vertex -9.15952 0.95159 0
      vertex -9.15952 0.95159 2.05
    endloop
  endfacet
  facet normal 0.803237 -0.59566 0
    outer loop
      vertex -9.15952 0.95159 0
      vertex -9.2472 0.833355 2.05
      vertex -9.2472 0.833355 0
    endloop
  endfacet
  facet normal 0.998796 -0.0490482 0
    outer loop
      vertex -9.5 0 2.05
      vertex -9.49278 0.147025 0
      vertex -9.49278 0.147025 2.05
    endloop
  endfacet
  facet normal 0.998796 -0.0490482 0
    outer loop
      vertex -9.49278 0.147025 0
      vertex -9.5 0 2.05
      vertex -9.5 0 0
    endloop
  endfacet
  facet normal -0.740935 0.671577 0
    outer loop
      vertex -6.93934 -1.06066 0
      vertex -6.84048 -0.95159 2.05
      vertex -6.84048 -0.95159 0
    endloop
  endfacet
  facet normal -0.740935 0.671577 0
    outer loop
      vertex -6.84048 -0.95159 2.05
      vertex -6.93934 -1.06066 0
      vertex -6.93934 -1.06066 2.05
    endloop
  endfacet
  facet normal -0.989176 -0.146736 0
    outer loop
      vertex 9.49278 0.147025 0
      vertex 9.47118 0.292635 2.05
      vertex 9.47118 0.292635 0
    endloop
  endfacet
  facet normal -0.989176 -0.146736 0
    outer loop
      vertex 9.47118 0.292635 2.05
      vertex 9.49278 0.147025 0
      vertex 9.49278 0.147025 2.05
    endloop
  endfacet
  facet normal -0.998796 -0.0490482 0
    outer loop
      vertex 9.5 0 0
      vertex 9.49278 0.147025 2.05
      vertex 9.49278 0.147025 0
    endloop
  endfacet
  facet normal -0.998796 -0.0490482 0
    outer loop
      vertex 9.49278 0.147025 2.05
      vertex 9.5 0 0
      vertex 9.5 0 2.05
    endloop
  endfacet
  facet normal -0.970027 -0.242996 0
    outer loop
      vertex 9.47118 0.292635 0
      vertex 9.43541 0.435427 2.05
      vertex 9.43541 0.435427 0
    endloop
  endfacet
  facet normal -0.970027 -0.242996 0
    outer loop
      vertex 9.43541 0.435427 2.05
      vertex 9.47118 0.292635 0
      vertex 9.47118 0.292635 2.05
    endloop
  endfacet
  facet normal -0.146746 -0.989174 0
    outer loop
      vertex 8.14703 1.49278 0
      vertex 8.29263 1.47118 2.05
      vertex 8.14703 1.49278 2.05
    endloop
  endfacet
  facet normal -0.146746 -0.989174 -0
    outer loop
      vertex 8.29263 1.47118 2.05
      vertex 8.14703 1.49278 0
      vertex 8.29263 1.47118 0
    endloop
  endfacet
  facet normal 0.146736 -0.989176 0
    outer loop
      vertex 7.70736 1.47118 0
      vertex 7.85297 1.49278 2.05
      vertex 7.70736 1.47118 2.05
    endloop
  endfacet
  facet normal 0.146736 -0.989176 0
    outer loop
      vertex 7.85297 1.49278 2.05
      vertex 7.70736 1.47118 0
      vertex 7.85297 1.49278 0
    endloop
  endfacet
  facet normal -0.803237 -0.59566 0
    outer loop
      vertex 9.2472 0.833355 0
      vertex 9.15952 0.95159 2.05
      vertex 9.15952 0.95159 0
    endloop
  endfacet
  facet normal -0.803237 -0.59566 0
    outer loop
      vertex 9.15952 0.95159 2.05
      vertex 9.2472 0.833355 0
      vertex 9.2472 0.833355 2.05
    endloop
  endfacet
  facet normal -0.595643 0.803249 0
    outer loop
      vertex 8.95159 -1.15952 0
      vertex 8.83335 -1.2472 2.05
      vertex 8.95159 -1.15952 2.05
    endloop
  endfacet
  facet normal -0.595643 0.803249 0
    outer loop
      vertex 8.83335 -1.2472 2.05
      vertex 8.95159 -1.15952 0
      vertex 8.83335 -1.2472 0
    endloop
  endfacet
  facet normal -0.595643 -0.803249 0
    outer loop
      vertex 8.83335 1.2472 0
      vertex 8.95159 1.15952 2.05
      vertex 8.83335 1.2472 2.05
    endloop
  endfacet
  facet normal -0.595643 -0.803249 -0
    outer loop
      vertex 8.95159 1.15952 2.05
      vertex 8.83335 1.2472 0
      vertex 8.95159 1.15952 0
    endloop
  endfacet
  facet normal -0.998796 0.0490482 0
    outer loop
      vertex 9.49278 -0.147025 0
      vertex 9.5 0 2.05
      vertex 9.5 0 0
    endloop
  endfacet
  facet normal -0.998796 0.0490482 0
    outer loop
      vertex 9.5 0 2.05
      vertex 9.49278 -0.147025 0
      vertex 9.49278 -0.147025 2.05
    endloop
  endfacet
  facet normal 0.242999 -0.970027 0
    outer loop
      vertex 7.56457 1.43541 0
      vertex 7.70736 1.47118 2.05
      vertex 7.56457 1.43541 2.05
    endloop
  endfacet
  facet normal 0.242999 -0.970027 0
    outer loop
      vertex 7.70736 1.47118 2.05
      vertex 7.56457 1.43541 0
      vertex 7.70736 1.47118 0
    endloop
  endfacet
  facet normal -0.427569 -0.903983 0
    outer loop
      vertex 8.57402 1.38582 0
      vertex 8.70709 1.32288 2.05
      vertex 8.57402 1.38582 2.05
    endloop
  endfacet
  facet normal -0.427569 -0.903983 -0
    outer loop
      vertex 8.70709 1.32288 2.05
      vertex 8.57402 1.38582 0
      vertex 8.70709 1.32288 0
    endloop
  endfacet
  facet normal 0 0 -1
    outer loop
      vertex 9.49278 -0.147025 2.05
      vertex 9.49278 0.147025 2.05
      vertex 9.5 0 2.05
    endloop
  endfacet
  facet normal 0 0 -1
    outer loop
      vertex 9.47118 -0.292635 2.05
      vertex 9.49278 0.147025 2.05
      vertex 9.49278 -0.147025 2.05
    endloop
  endfacet
  facet normal 0 0 -1
    outer loop
      vertex 9.47118 -0.292635 2.05
      vertex 9.47118 0.292635 2.05
      vertex 9.49278 0.147025 2.05
    endloop
  endfacet
  facet normal 0 0 -1
    outer loop
      vertex 9.43541 -0.435427 2.05
      vertex 9.47118 0.292635 2.05
      vertex 9.47118 -0.292635 2.05
    endloop
  endfacet
  facet normal 0 0 -1
    outer loop
      vertex 9.43541 -0.435427 2.05
      vertex 9.43541 0.435427 2.05
      vertex 9.47118 0.292635 2.05
    endloop
  endfacet
  facet normal 0 0 -1
    outer loop
      vertex 9.38582 -0.574024 2.05
      vertex 9.43541 0.435427 2.05
      vertex 9.43541 -0.435427 2.05
    endloop
  endfacet
  facet normal 0 0 -1
    outer loop
      vertex 9.38582 -0.574024 2.05
      vertex 9.38582 0.574024 2.05
      vertex 9.43541 0.435427 2.05
    endloop
  endfacet
  facet normal 0 0 -1
    outer loop
      vertex 9.32288 -0.707094 2.05
      vertex 9.38582 0.574024 2.05
      vertex 9.38582 -0.574024 2.05
    endloop
  endfacet
  facet normal 0 0 -1
    outer loop
      vertex 9.32288 -0.707094 2.05
      vertex 9.32288 0.707094 2.05
      vertex 9.38582 0.574024 2.05
    endloop
  endfacet
  facet normal 0 0 -1
    outer loop
      vertex 9.2472 -0.833355 2.05
      vertex 9.32288 0.707094 2.05
      vertex 9.32288 -0.707094 2.05
    endloop
  endfacet
  facet normal 0 0 -1
    outer loop
      vertex 9.2472 -0.833355 2.05
      vertex 9.2472 0.833355 2.05
      vertex 9.32288 0.707094 2.05
    endloop
  endfacet
  facet normal 0 0 -1
    outer loop
      vertex 9.15952 -0.95159 2.05
      vertex 9.2472 0.833355 2.05
      vertex 9.2472 -0.833355 2.05
    endloop
  endfacet
  facet normal 0 0 -1
    outer loop
      vertex 9.15952 -0.95159 2.05
      vertex 9.15952 0.95159 2.05
      vertex 9.2472 0.833355 2.05
    endloop
  endfacet
  facet normal 0 0 -1
    outer loop
      vertex 9.06066 -1.06066 2.05
      vertex 9.15952 0.95159 2.05
      vertex 9.15952 -0.95159 2.05
    endloop
  endfacet
  facet normal 0 0 -1
    outer loop
      vertex 9.06066 -1.06066 2.05
      vertex 9.06066 1.06066 2.05
      vertex 9.15952 0.95159 2.05
    endloop
  endfacet
  facet normal 0 0 -1
    outer loop
      vertex 8.95159 -1.15952 2.05
      vertex 9.06066 1.06066 2.05
      vertex 9.06066 -1.06066 2.05
    endloop
  endfacet
  facet normal 0 0 -1
    outer loop
      vertex 8.95159 -1.15952 2.05
      vertex 8.95159 1.15952 2.05
      vertex 9.06066 1.06066 2.05
    endloop
  endfacet
  facet normal 0 0 -1
    outer loop
      vertex 8.83335 -1.2472 2.05
      vertex 8.95159 1.15952 2.05
      vertex 8.95159 -1.15952 2.05
    endloop
  endfacet
  facet normal 0 0 -1
    outer loop
      vertex 8.83335 -1.2472 2.05
      vertex 8.83335 1.2472 2.05
      vertex 8.95159 1.15952 2.05
    endloop
  endfacet
  facet normal 0 0 -1
    outer loop
      vertex 8.70709 -1.32288 2.05
      vertex 8.83335 1.2472 2.05
      vertex 8.83335 -1.2472 2.05
    endloop
  endfacet
  facet normal 0 0 -1
    outer loop
      vertex 8.70709 -1.32288 2.05
      vertex 8.70709 1.32288 2.05
      vertex 8.83335 1.2472 2.05
    endloop
  endfacet
  facet normal 0 0 -1
    outer loop
      vertex 8.57402 -1.38582 2.05
      vertex 8.70709 1.32288 2.05
      vertex 8.70709 -1.32288 2.05
    endloop
  endfacet
  facet normal 0 0 -1
    outer loop
      vertex 8.57402 -1.38582 2.05
      vertex 8.57402 1.38582 2.05
      vertex 8.70709 1.32288 2.05
    endloop
  endfacet
  facet normal 0 0 -1
    outer loop
      vertex 8.43543 -1.43541 2.05
      vertex 8.57402 1.38582 2.05
      vertex 8.57402 -1.38582 2.05
    endloop
  endfacet
  facet normal 0 0 -1
    outer loop
      vertex 8.43543 -1.43541 2.05
      vertex 8.43543 1.43541 2.05
      vertex 8.57402 1.38582 2.05
    endloop
  endfacet
  facet normal 0 0 -1
    outer loop
      vertex 8.29263 -1.47118 2.05
      vertex 8.43543 1.43541 2.05
      vertex 8.43543 -1.43541 2.05
    endloop
  endfacet
  facet normal 0 0 -1
    outer loop
      vertex 8.29263 -1.47118 2.05
      vertex 8.29263 1.47118 2.05
      vertex 8.43543 1.43541 2.05
    endloop
  endfacet
  facet normal 0 0 -1
    outer loop
      vertex 8.14703 -1.49278 2.05
      vertex 8.29263 1.47118 2.05
      vertex 8.29263 -1.47118 2.05
    endloop
  endfacet
  facet normal 0 0 -1
    outer loop
      vertex 8.14703 -1.49278 2.05
      vertex 8.14703 1.49278 2.05
      vertex 8.29263 1.47118 2.05
    endloop
  endfacet
  facet normal 0 0 -1
    outer loop
      vertex 8 -1.5 2.05
      vertex 8.14703 1.49278 2.05
      vertex 8.14703 -1.49278 2.05
    endloop
  endfacet
  facet normal 0 0 -1
    outer loop
      vertex 8 -1.5 2.05
      vertex 8 1.5 2.05
      vertex 8.14703 1.49278 2.05
    endloop
  endfacet
  facet normal 0 0 -1
    outer loop
      vertex 7.85297 -1.49278 2.05
      vertex 8 1.5 2.05
      vertex 8 -1.5 2.05
    endloop
  endfacet
  facet normal 0 0 -1
    outer loop
      vertex 7.85297 -1.49278 2.05
      vertex 7.85297 1.49278 2.05
      vertex 8 1.5 2.05
    endloop
  endfacet
  facet normal 0 0 -1
    outer loop
      vertex 7.70736 -1.47118 2.05
      vertex 7.85297 1.49278 2.05
      vertex 7.85297 -1.49278 2.05
    endloop
  endfacet
  facet normal 0 0 -1
    outer loop
      vertex 7.70736 -1.47118 2.05
      vertex 7.70736 1.47118 2.05
      vertex 7.85297 1.49278 2.05
    endloop
  endfacet
  facet normal 0 0 -1
    outer loop
      vertex 7.56457 -1.43541 2.05
      vertex 7.70736 1.47118 2.05
      vertex 7.70736 -1.47118 2.05
    endloop
  endfacet
  facet normal 0 0 -1
    outer loop
      vertex 7.56457 -1.43541 2.05
      vertex 7.56457 1.43541 2.05
      vertex 7.70736 1.47118 2.05
    endloop
  endfacet
  facet normal 0 0 -1
    outer loop
      vertex 7.42597 -1.38582 2.05
      vertex 7.56457 1.43541 2.05
      vertex 7.56457 -1.43541 2.05
    endloop
  endfacet
  facet normal 0 0 -1
    outer loop
      vertex 7.42597 -1.38582 2.05
      vertex 7.42597 1.38582 2.05
      vertex 7.56457 1.43541 2.05
    endloop
  endfacet
  facet normal 0 0 -1
    outer loop
      vertex 7.2929 -1.32288 2.05
      vertex 7.42597 1.38582 2.05
      vertex 7.42597 -1.38582 2.05
    endloop
  endfacet
  facet normal 0 0 -1
    outer loop
      vertex 7.2929 -1.32288 2.05
      vertex 7.2929 1.32288 2.05
      vertex 7.42597 1.38582 2.05
    endloop
  endfacet
  facet normal 0 0 -1
    outer loop
      vertex 7.16664 -1.2472 2.05
      vertex 7.2929 1.32288 2.05
      vertex 7.2929 -1.32288 2.05
    endloop
  endfacet
  facet normal 0 0 -1
    outer loop
      vertex 7.16664 -1.2472 2.05
      vertex 7.16664 1.2472 2.05
      vertex 7.2929 1.32288 2.05
    endloop
  endfacet
  facet normal 0 0 -1
    outer loop
      vertex 7.04841 -1.15952 2.05
      vertex 7.16664 1.2472 2.05
      vertex 7.16664 -1.2472 2.05
    endloop
  endfacet
  facet normal 0 0 -1
    outer loop
      vertex 7.04841 -1.15952 2.05
      vertex 7.04841 1.15952 2.05
      vertex 7.16664 1.2472 2.05
    endloop
  endfacet
  facet normal 0 0 -1
    outer loop
      vertex 6.93934 -1.06066 2.05
      vertex 7.04841 1.15952 2.05
      vertex 7.04841 -1.15952 2.05
    endloop
  endfacet
  facet normal 0 0 -1
    outer loop
      vertex 6.93934 -1.06066 2.05
      vertex 6.93934 1.06066 2.05
      vertex 7.04841 1.15952 2.05
    endloop
  endfacet
  facet normal 0 0 -1
    outer loop
      vertex 6.84048 -0.95159 2.05
      vertex 6.93934 1.06066 2.05
      vertex 6.93934 -1.06066 2.05
    endloop
  endfacet
  facet normal 0 0 -1
    outer loop
      vertex 6.84048 -0.95159 2.05
      vertex 6.84048 0.95159 2.05
      vertex 6.93934 1.06066 2.05
    endloop
  endfacet
  facet normal 0 0 -1
    outer loop
      vertex 6.7528 -0.833355 2.05
      vertex 6.84048 0.95159 2.05
      vertex 6.84048 -0.95159 2.05
    endloop
  endfacet
  facet normal 0 0 -1
    outer loop
      vertex 6.7528 -0.833355 2.05
      vertex 6.7528 0.833355 2.05
      vertex 6.84048 0.95159 2.05
    endloop
  endfacet
  facet normal 0 0 -1
    outer loop
      vertex 6.67712 -0.707094 2.05
      vertex 6.7528 0.833355 2.05
      vertex 6.7528 -0.833355 2.05
    endloop
  endfacet
  facet normal 0 0 -1
    outer loop
      vertex 6.67712 -0.707094 2.05
      vertex 6.67712 0.707094 2.05
      vertex 6.7528 0.833355 2.05
    endloop
  endfacet
  facet normal 0 0 -1
    outer loop
      vertex 6.61418 -0.574024 2.05
      vertex 6.67712 0.707094 2.05
      vertex 6.67712 -0.707094 2.05
    endloop
  endfacet
  facet normal 0 0 -1
    outer loop
      vertex 6.61418 -0.574024 2.05
      vertex 6.61418 0.574024 2.05
      vertex 6.67712 0.707094 2.05
    endloop
  endfacet
  facet normal 0 0 -1
    outer loop
      vertex 6.56459 -0.435427 2.05
      vertex 6.61418 0.574024 2.05
      vertex 6.61418 -0.574024 2.05
    endloop
  endfacet
  facet normal 0 0 -1
    outer loop
      vertex 6.56459 -0.435427 2.05
      vertex 6.56459 0.435427 2.05
      vertex 6.61418 0.574024 2.05
    endloop
  endfacet
  facet normal 0 0 -1
    outer loop
      vertex 6.52882 -0.292635 2.05
      vertex 6.56459 0.435427 2.05
      vertex 6.56459 -0.435427 2.05
    endloop
  endfacet
  facet normal 0 0 -1
    outer loop
      vertex 6.52882 -0.292635 2.05
      vertex 6.52882 0.292635 2.05
      vertex 6.56459 0.435427 2.05
    endloop
  endfacet
  facet normal 0 0 -1
    outer loop
      vertex 6.50722 -0.147025 2.05
      vertex 6.52882 0.292635 2.05
      vertex 6.52882 -0.292635 2.05
    endloop
  endfacet
  facet normal 0 0 -1
    outer loop
      vertex 6.50722 -0.147025 2.05
      vertex 6.50722 0.147025 2.05
      vertex 6.52882 0.292635 2.05
    endloop
  endfacet
  facet normal 0 -0 -1
    outer loop
      vertex 6.50722 0.147025 2.05
      vertex 6.50722 -0.147025 2.05
      vertex 6.5 0 2.05
    endloop
  endfacet
  facet normal 0.242999 0.970027 -0
    outer loop
      vertex 7.70736 -1.47118 0
      vertex 7.56457 -1.43541 2.05
      vertex 7.70736 -1.47118 2.05
    endloop
  endfacet
  facet normal 0.242999 0.970027 0
    outer loop
      vertex 7.56457 -1.43541 2.05
      vertex 7.70736 -1.47118 0
      vertex 7.56457 -1.43541 0
    endloop
  endfacet
  facet normal 0.989176 0.146736 0
    outer loop
      vertex 6.52882 -0.292635 2.05
      vertex 6.50722 -0.147025 0
      vertex 6.50722 -0.147025 2.05
    endloop
  endfacet
  facet normal 0.989176 0.146736 0
    outer loop
      vertex 6.50722 -0.147025 0
      vertex 6.52882 -0.292635 2.05
      vertex 6.52882 -0.292635 0
    endloop
  endfacet
  facet normal 0.427569 -0.903983 0
    outer loop
      vertex 7.2929 1.32288 0
      vertex 7.42597 1.38582 2.05
      vertex 7.2929 1.32288 2.05
    endloop
  endfacet
  facet normal 0.427569 -0.903983 0
    outer loop
      vertex 7.42597 1.38582 2.05
      vertex 7.2929 1.32288 0
      vertex 7.42597 1.38582 0
    endloop
  endfacet
  facet normal -0.242983 -0.970031 0
    outer loop
      vertex 8.29263 1.47118 0
      vertex 8.43543 1.43541 2.05
      vertex 8.29263 1.47118 2.05
    endloop
  endfacet
  facet normal -0.242983 -0.970031 -0
    outer loop
      vertex 8.43543 1.43541 2.05
      vertex 8.29263 1.47118 0
      vertex 8.43543 1.43541 0
    endloop
  endfacet
  facet normal 0.514116 0.857721 -0
    outer loop
      vertex 7.2929 -1.32288 0
      vertex 7.16664 -1.2472 2.05
      vertex 7.2929 -1.32288 2.05
    endloop
  endfacet
  facet normal 0.514116 0.857721 0
    outer loop
      vertex 7.16664 -1.2472 2.05
      vertex 7.2929 -1.32288 0
      vertex 7.16664 -1.2472 0
    endloop
  endfacet
  facet normal -0.427569 0.903983 0
    outer loop
      vertex 8.70709 -1.32288 0
      vertex 8.57402 -1.38582 2.05
      vertex 8.70709 -1.32288 2.05
    endloop
  endfacet
  facet normal -0.427569 0.903983 0
    outer loop
      vertex 8.57402 -1.38582 2.05
      vertex 8.70709 -1.32288 0
      vertex 8.57402 -1.38582 0
    endloop
  endfacet
  facet normal 0.903983 -0.427569 0
    outer loop
      vertex 6.61418 0.574024 2.05
      vertex 6.67712 0.707094 0
      vertex 6.67712 0.707094 2.05
    endloop
  endfacet
  facet normal 0.903983 -0.427569 0
    outer loop
      vertex 6.67712 0.707094 0
      vertex 6.61418 0.574024 2.05
      vertex 6.61418 0.574024 0
    endloop
  endfacet
  facet normal 0.803237 0.59566 0
    outer loop
      vertex 6.84048 -0.95159 2.05
      vertex 6.7528 -0.833355 0
      vertex 6.7528 -0.833355 2.05
    endloop
  endfacet
  facet normal 0.803237 0.59566 0
    outer loop
      vertex 6.7528 -0.833355 0
      vertex 6.84048 -0.95159 2.05
      vertex 6.84048 -0.95159 0
    endloop
  endfacet
  facet normal -0.3369 0.94154 0
    outer loop
      vertex 8.57402 -1.38582 0
      vertex 8.43543 -1.43541 2.05
      vertex 8.57402 -1.38582 2.05
    endloop
  endfacet
  facet normal -0.3369 0.94154 0
    outer loop
      vertex 8.43543 -1.43541 2.05
      vertex 8.57402 -1.38582 0
      vertex 8.43543 -1.43541 0
    endloop
  endfacet
  facet normal 0.336879 0.941548 -0
    outer loop
      vertex 7.56457 -1.43541 0
      vertex 7.42597 -1.38582 2.05
      vertex 7.56457 -1.43541 2.05
    endloop
  endfacet
  facet normal 0.336879 0.941548 0
    outer loop
      vertex 7.42597 -1.38582 2.05
      vertex 7.56457 -1.43541 0
      vertex 7.42597 -1.38582 0
    endloop
  endfacet
  facet normal 0.0490465 -0.998796 0
    outer loop
      vertex 7.85297 1.49278 0
      vertex 8 1.5 2.05
      vertex 7.85297 1.49278 2.05
    endloop
  endfacet
  facet normal 0.0490465 -0.998796 0
    outer loop
      vertex 8 1.5 2.05
      vertex 7.85297 1.49278 0
      vertex 8 1.5 0
    endloop
  endfacet
  facet normal -0.803237 0.59566 0
    outer loop
      vertex 9.15952 -0.95159 0
      vertex 9.2472 -0.833355 2.05
      vertex 9.2472 -0.833355 0
    endloop
  endfacet
  facet normal -0.803237 0.59566 0
    outer loop
      vertex 9.2472 -0.833355 2.05
      vertex 9.15952 -0.95159 0
      vertex 9.15952 -0.95159 2.05
    endloop
  endfacet
  facet normal 0.514116 -0.857721 0
    outer loop
      vertex 7.16664 1.2472 0
      vertex 7.2929 1.32288 2.05
      vertex 7.16664 1.2472 2.05
    endloop
  endfacet
  facet normal 0.514116 -0.857721 0
    outer loop
      vertex 7.2929 1.32288 2.05
      vertex 7.16664 1.2472 0
      vertex 7.2929 1.32288 0
    endloop
  endfacet
  facet normal 0.427569 0.903983 -0
    outer loop
      vertex 7.42597 -1.38582 0
      vertex 7.2929 -1.32288 2.05
      vertex 7.42597 -1.38582 2.05
    endloop
  endfacet
  facet normal 0.427569 0.903983 0
    outer loop
      vertex 7.2929 -1.32288 2.05
      vertex 7.42597 -1.38582 0
      vertex 7.2929 -1.32288 0
    endloop
  endfacet
  facet normal 0.595676 0.803225 -0
    outer loop
      vertex 7.16664 -1.2472 0
      vertex 7.04841 -1.15952 2.05
      vertex 7.16664 -1.2472 2.05
    endloop
  endfacet
  facet normal 0.595676 0.803225 0
    outer loop
      vertex 7.04841 -1.15952 2.05
      vertex 7.16664 -1.2472 0
      vertex 7.04841 -1.15952 0
    endloop
  endfacet
  facet normal -0.3369 -0.94154 0
    outer loop
      vertex 8.43543 1.43541 0
      vertex 8.57402 1.38582 2.05
      vertex 8.43543 1.43541 2.05
    endloop
  endfacet
  facet normal -0.3369 -0.94154 -0
    outer loop
      vertex 8.57402 1.38582 2.05
      vertex 8.43543 1.43541 0
      vertex 8.57402 1.38582 0
    endloop
  endfacet
  facet normal -0.242983 0.970031 0
    outer loop
      vertex 8.43543 -1.43541 0
      vertex 8.29263 -1.47118 2.05
      vertex 8.43543 -1.43541 2.05
    endloop
  endfacet
  facet normal -0.242983 0.970031 0
    outer loop
      vertex 8.29263 -1.47118 2.05
      vertex 8.43543 -1.43541 0
      vertex 8.29263 -1.47118 0
    endloop
  endfacet
  facet normal 0.740935 0.671577 0
    outer loop
      vertex 6.93934 -1.06066 2.05
      vertex 6.84048 -0.95159 0
      vertex 6.84048 -0.95159 2.05
    endloop
  endfacet
  facet normal 0.740935 0.671577 0
    outer loop
      vertex 6.84048 -0.95159 0
      vertex 6.93934 -1.06066 2.05
      vertex 6.93934 -1.06066 0
    endloop
  endfacet
  facet normal -0.970027 0.242996 0
    outer loop
      vertex 9.43541 -0.435427 0
      vertex 9.47118 -0.292635 2.05
      vertex 9.47118 -0.292635 0
    endloop
  endfacet
  facet normal -0.970027 0.242996 0
    outer loop
      vertex 9.47118 -0.292635 2.05
      vertex 9.43541 -0.435427 0
      vertex 9.43541 -0.435427 2.05
    endloop
  endfacet
  facet normal 0.336879 -0.941548 0
    outer loop
      vertex 7.42597 1.38582 0
      vertex 7.56457 1.43541 2.05
      vertex 7.42597 1.38582 2.05
    endloop
  endfacet
  facet normal 0.336879 -0.941548 0
    outer loop
      vertex 7.56457 1.43541 2.05
      vertex 7.42597 1.38582 0
      vertex 7.56457 1.43541 0
    endloop
  endfacet
  facet normal 0.903983 0.427569 0
    outer loop
      vertex 6.67712 -0.707094 2.05
      vertex 6.61418 -0.574024 0
      vertex 6.61418 -0.574024 2.05
    endloop
  endfacet
  facet normal 0.903983 0.427569 0
    outer loop
      vertex 6.61418 -0.574024 0
      vertex 6.67712 -0.707094 2.05
      vertex 6.67712 -0.707094 0
    endloop
  endfacet
  facet normal 0.941546 0.336885 0
    outer loop
      vertex 6.61418 -0.574024 2.05
      vertex 6.56459 -0.435427 0
      vertex 6.56459 -0.435427 2.05
    endloop
  endfacet
  facet normal 0.941546 0.336885 0
    outer loop
      vertex 6.56459 -0.435427 0
      vertex 6.61418 -0.574024 2.05
      vertex 6.61418 -0.574024 0
    endloop
  endfacet
  facet normal -0.903983 -0.427569 0
    outer loop
      vertex 9.38582 0.574024 0
      vertex 9.32288 0.707094 2.05
      vertex 9.32288 0.707094 0
    endloop
  endfacet
  facet normal -0.903983 -0.427569 0
    outer loop
      vertex 9.32288 0.707094 2.05
      vertex 9.38582 0.574024 0
      vertex 9.38582 0.574024 2.05
    endloop
  endfacet
  facet normal 0.970027 0.242996 0
    outer loop
      vertex 6.56459 -0.435427 2.05
      vertex 6.52882 -0.292635 0
      vertex 6.52882 -0.292635 2.05
    endloop
  endfacet
  facet normal 0.970027 0.242996 0
    outer loop
      vertex 6.52882 -0.292635 0
      vertex 6.56459 -0.435427 2.05
      vertex 6.56459 -0.435427 0
    endloop
  endfacet
  facet normal 0.671577 0.740935 -0
    outer loop
      vertex 7.04841 -1.15952 0
      vertex 6.93934 -1.06066 2.05
      vertex 7.04841 -1.15952 2.05
    endloop
  endfacet
  facet normal 0.671577 0.740935 0
    outer loop
      vertex 6.93934 -1.06066 2.05
      vertex 7.04841 -1.15952 0
      vertex 6.93934 -1.06066 0
    endloop
  endfacet
  facet normal -0.671577 -0.740935 0
    outer loop
      vertex 8.95159 1.15952 0
      vertex 9.06066 1.06066 2.05
      vertex 8.95159 1.15952 2.05
    endloop
  endfacet
  facet normal -0.671577 -0.740935 -0
    outer loop
      vertex 9.06066 1.06066 2.05
      vertex 8.95159 1.15952 0
      vertex 9.06066 1.06066 0
    endloop
  endfacet
  facet normal -0.740935 0.671577 0
    outer loop
      vertex 9.06066 -1.06066 0
      vertex 9.15952 -0.95159 2.05
      vertex 9.15952 -0.95159 0
    endloop
  endfacet
  facet normal -0.740935 0.671577 0
    outer loop
      vertex 9.15952 -0.95159 2.05
      vertex 9.06066 -1.06066 0
      vertex 9.06066 -1.06066 2.05
    endloop
  endfacet
  facet normal 0.989176 -0.146736 0
    outer loop
      vertex 6.50722 0.147025 2.05
      vertex 6.52882 0.292635 0
      vertex 6.52882 0.292635 2.05
    endloop
  endfacet
  facet normal 0.989176 -0.146736 0
    outer loop
      vertex 6.52882 0.292635 0
      vertex 6.50722 0.147025 2.05
      vertex 6.50722 0.147025 0
    endloop
  endfacet
  facet normal 0.970027 -0.242996 0
    outer loop
      vertex 6.52882 0.292635 2.05
      vertex 6.56459 0.435427 0
      vertex 6.56459 0.435427 2.05
    endloop
  endfacet
  facet normal 0.970027 -0.242996 0
    outer loop
      vertex 6.56459 0.435427 0
      vertex 6.52882 0.292635 2.05
      vertex 6.52882 0.292635 0
    endloop
  endfacet
  facet normal -0.146746 0.989174 0
    outer loop
      vertex 8.29263 -1.47118 0
      vertex 8.14703 -1.49278 2.05
      vertex 8.29263 -1.47118 2.05
    endloop
  endfacet
  facet normal -0.146746 0.989174 0
    outer loop
      vertex 8.14703 -1.49278 2.05
      vertex 8.29263 -1.47118 0
      vertex 8.14703 -1.49278 0
    endloop
  endfacet
  facet normal -0.941546 -0.336885 0
    outer loop
      vertex 9.43541 0.435427 0
      vertex 9.38582 0.574024 2.05
      vertex 9.38582 0.574024 0
    endloop
  endfacet
  facet normal -0.941546 -0.336885 0
    outer loop
      vertex 9.38582 0.574024 2.05
      vertex 9.43541 0.435427 0
      vertex 9.43541 0.435427 2.05
    endloop
  endfacet
  facet normal 0.857722 -0.514113 0
    outer loop
      vertex 6.67712 0.707094 2.05
      vertex 6.7528 0.833355 0
      vertex 6.7528 0.833355 2.05
    endloop
  endfacet
  facet normal 0.857722 -0.514113 0
    outer loop
      vertex 6.7528 0.833355 0
      vertex 6.67712 0.707094 2.05
      vertex 6.67712 0.707094 0
    endloop
  endfacet
  facet normal 0.595676 -0.803225 0
    outer loop
      vertex 7.04841 1.15952 0
      vertex 7.16664 1.2472 2.05
      vertex 7.04841 1.15952 2.05
    endloop
  endfacet
  facet normal 0.595676 -0.803225 0
    outer loop
      vertex 7.16664 1.2472 2.05
      vertex 7.04841 1.15952 0
      vertex 7.16664 1.2472 0
    endloop
  endfacet
  facet normal -0.0490465 -0.998796 0
    outer loop
      vertex 8 1.5 0
      vertex 8.14703 1.49278 2.05
      vertex 8 1.5 2.05
    endloop
  endfacet
  facet normal -0.0490465 -0.998796 -0
    outer loop
      vertex 8.14703 1.49278 2.05
      vertex 8 1.5 0
      vertex 8.14703 1.49278 0
    endloop
  endfacet
  facet normal -0.514116 -0.857721 0
    outer loop
      vertex 8.70709 1.32288 0
      vertex 8.83335 1.2472 2.05
      vertex 8.70709 1.32288 2.05
    endloop
  endfacet
  facet normal -0.514116 -0.857721 -0
    outer loop
      vertex 8.83335 1.2472 2.05
      vertex 8.70709 1.32288 0
      vertex 8.83335 1.2472 0
    endloop
  endfacet
  facet normal -0.989176 0.146736 0
    outer loop
      vertex 9.47118 -0.292635 0
      vertex 9.49278 -0.147025 2.05
      vertex 9.49278 -0.147025 0
    endloop
  endfacet
  facet normal -0.989176 0.146736 0
    outer loop
      vertex 9.49278 -0.147025 2.05
      vertex 9.47118 -0.292635 0
      vertex 9.47118 -0.292635 2.05
    endloop
  endfacet
  facet normal -0.857722 -0.514113 0
    outer loop
      vertex 9.32288 0.707094 0
      vertex 9.2472 0.833355 2.05
      vertex 9.2472 0.833355 0
    endloop
  endfacet
  facet normal -0.857722 -0.514113 0
    outer loop
      vertex 9.2472 0.833355 2.05
      vertex 9.32288 0.707094 0
      vertex 9.32288 0.707094 2.05
    endloop
  endfacet
  facet normal -0.514116 0.857721 0
    outer loop
      vertex 8.83335 -1.2472 0
      vertex 8.70709 -1.32288 2.05
      vertex 8.83335 -1.2472 2.05
    endloop
  endfacet
  facet normal -0.514116 0.857721 0
    outer loop
      vertex 8.70709 -1.32288 2.05
      vertex 8.83335 -1.2472 0
      vertex 8.70709 -1.32288 0
    endloop
  endfacet
  facet normal 0.671577 -0.740935 0
    outer loop
      vertex 6.93934 1.06066 0
      vertex 7.04841 1.15952 2.05
      vertex 6.93934 1.06066 2.05
    endloop
  endfacet
  facet normal 0.671577 -0.740935 0
    outer loop
      vertex 7.04841 1.15952 2.05
      vertex 6.93934 1.06066 0
      vertex 7.04841 1.15952 0
    endloop
  endfacet
  facet normal -0.671577 0.740935 0
    outer loop
      vertex 9.06066 -1.06066 0
      vertex 8.95159 -1.15952 2.05
      vertex 9.06066 -1.06066 2.05
    endloop
  endfacet
  facet normal -0.671577 0.740935 0
    outer loop
      vertex 8.95159 -1.15952 2.05
      vertex 9.06066 -1.06066 0
      vertex 8.95159 -1.15952 0
    endloop
  endfacet
  facet normal 0.0490465 0.998796 -0
    outer loop
      vertex 8 -1.5 0
      vertex 7.85297 -1.49278 2.05
      vertex 8 -1.5 2.05
    endloop
  endfacet
  facet normal 0.0490465 0.998796 0
    outer loop
      vertex 7.85297 -1.49278 2.05
      vertex 8 -1.5 0
      vertex 7.85297 -1.49278 0
    endloop
  endfacet
  facet normal 0.740935 -0.671577 0
    outer loop
      vertex 6.84048 0.95159 2.05
      vertex 6.93934 1.06066 0
      vertex 6.93934 1.06066 2.05
    endloop
  endfacet
  facet normal 0.740935 -0.671577 0
    outer loop
      vertex 6.93934 1.06066 0
      vertex 6.84048 0.95159 2.05
      vertex 6.84048 0.95159 0
    endloop
  endfacet
  facet normal 0.941546 -0.336885 0
    outer loop
      vertex 6.56459 0.435427 2.05
      vertex 6.61418 0.574024 0
      vertex 6.61418 0.574024 2.05
    endloop
  endfacet
  facet normal 0.941546 -0.336885 0
    outer loop
      vertex 6.61418 0.574024 0
      vertex 6.56459 0.435427 2.05
      vertex 6.56459 0.435427 0
    endloop
  endfacet
  facet normal -0.903983 0.427569 0
    outer loop
      vertex 9.32288 -0.707094 0
      vertex 9.38582 -0.574024 2.05
      vertex 9.38582 -0.574024 0
    endloop
  endfacet
  facet normal -0.903983 0.427569 0
    outer loop
      vertex 9.38582 -0.574024 2.05
      vertex 9.32288 -0.707094 0
      vertex 9.32288 -0.707094 2.05
    endloop
  endfacet
  facet normal -0.0490465 0.998796 0
    outer loop
      vertex 8.14703 -1.49278 0
      vertex 8 -1.5 2.05
      vertex 8.14703 -1.49278 2.05
    endloop
  endfacet
  facet normal -0.0490465 0.998796 0
    outer loop
      vertex 8 -1.5 2.05
      vertex 8.14703 -1.49278 0
      vertex 8 -1.5 0
    endloop
  endfacet
  facet normal -0.941546 0.336885 0
    outer loop
      vertex 9.38582 -0.574024 0
      vertex 9.43541 -0.435427 2.05
      vertex 9.43541 -0.435427 0
    endloop
  endfacet
  facet normal -0.941546 0.336885 0
    outer loop
      vertex 9.43541 -0.435427 2.05
      vertex 9.38582 -0.574024 0
      vertex 9.38582 -0.574024 2.05
    endloop
  endfacet
  facet normal 0.998796 -0.0490482 0
    outer loop
      vertex 6.5 0 2.05
      vertex 6.50722 0.147025 0
      vertex 6.50722 0.147025 2.05
    endloop
  endfacet
  facet normal 0.998796 -0.0490482 0
    outer loop
      vertex 6.50722 0.147025 0
      vertex 6.5 0 2.05
      vertex 6.5 0 0
    endloop
  endfacet
  facet normal -0.740935 -0.671577 0
    outer loop
      vertex 9.15952 0.95159 0
      vertex 9.06066 1.06066 2.05
      vertex 9.06066 1.06066 0
    endloop
  endfacet
  facet normal -0.740935 -0.671577 0
    outer loop
      vertex 9.06066 1.06066 2.05
      vertex 9.15952 0.95159 0
      vertex 9.15952 0.95159 2.05
    endloop
  endfacet
  facet normal -0.857722 0.514113 0
    outer loop
      vertex 9.2472 -0.833355 0
      vertex 9.32288 -0.707094 2.05
      vertex 9.32288 -0.707094 0
    endloop
  endfacet
  facet normal -0.857722 0.514113 0
    outer loop
      vertex 9.32288 -0.707094 2.05
      vertex 9.2472 -0.833355 0
      vertex 9.2472 -0.833355 2.05
    endloop
  endfacet
  facet normal 0.857722 0.514113 0
    outer loop
      vertex 6.7528 -0.833355 2.05
      vertex 6.67712 -0.707094 0
      vertex 6.67712 -0.707094 2.05
    endloop
  endfacet
  facet normal 0.857722 0.514113 0
    outer loop
      vertex 6.67712 -0.707094 0
      vertex 6.7528 -0.833355 2.05
      vertex 6.7528 -0.833355 0
    endloop
  endfacet
  facet normal 0.998796 0.0490482 0
    outer loop
      vertex 6.50722 -0.147025 2.05
      vertex 6.5 0 0
      vertex 6.5 0 2.05
    endloop
  endfacet
  facet normal 0.998796 0.0490482 0
    outer loop
      vertex 6.5 0 0
      vertex 6.50722 -0.147025 2.05
      vertex 6.50722 -0.147025 0
    endloop
  endfacet
  facet normal 0.146736 0.989176 -0
    outer loop
      vertex 7.85297 -1.49278 0
      vertex 7.70736 -1.47118 2.05
      vertex 7.85297 -1.49278 2.05
    endloop
  endfacet
  facet normal 0.146736 0.989176 0
    outer loop
      vertex 7.70736 -1.47118 2.05
      vertex 7.85297 -1.49278 0
      vertex 7.70736 -1.47118 0
    endloop
  endfacet
  facet normal 0.803237 -0.59566 0
    outer loop
      vertex 6.7528 0.833355 2.05
      vertex 6.84048 0.95159 0
      vertex 6.84048 0.95159 2.05
    endloop
  endfacet
  facet normal 0.803237 -0.59566 0
    outer loop
      vertex 6.84048 0.95159 0
      vertex 6.7528 0.833355 2.05
      vertex 6.7528 0.833355 0
    endloop
  endfacet
  facet normal -0 0 1
    outer loop
      vertex -2.95 2.2 3.4
      vertex 2.95 -3.2 3.4
      vertex 2.95 2.2 3.4
    endloop
  endfacet
  facet normal 0 0 1
    outer loop
      vertex 2.95 -3.2 3.4
      vertex -2.95 2.2 3.4
      vertex -2.95 -3.2 3.4
    endloop
  endfacet
  facet normal 0 -1 0
    outer loop
      vertex -2.95 2.2 3.4
      vertex 2.95 2.2 3.5
      vertex -2.95 2.2 3.5
    endloop
  endfacet
  facet normal 0 -1 -0
    outer loop
      vertex 2.95 2.2 3.5
      vertex -2.95 2.2 3.4
      vertex 2.95 2.2 3.4
    endloop
  endfacet
endsolid OpenSCAD_Model
