solid OpenSCAD_Model
  facet normal 1 -0 0
    outer loop
      vertex 25 -22 11
      vertex 25 -20 10
      vertex 25 -20 11
    endloop
  endfacet
  facet normal 1 0 0
    outer loop
      vertex 25 -20 10
      vertex 25 -22 11
      vertex 25 -20 -10
    endloop
  endfacet
  facet normal 1 0 0
    outer loop
      vertex 25 -22 -11
      vertex 25 -20 -10
      vertex 25 -22 11
    endloop
  endfacet
  facet normal 1 0 0
    outer loop
      vertex 25 -20 -10
      vertex 25 -22 -11
      vertex 25 -20 -11
    endloop
  endfacet
  facet normal 1 -0 0
    outer loop
      vertex 25 -20 10
      vertex 25 20 -10
      vertex 25 20 10
    endloop
  endfacet
  facet normal 1 0 0
    outer loop
      vertex 25 20 -10
      vertex 25 -20 10
      vertex 25 -20 -10
    endloop
  endfacet
  facet normal 1 0 0
    outer loop
      vertex 25 20 10
      vertex 25 22 11
      vertex 25 20 11
    endloop
  endfacet
  facet normal 1 0 0
    outer loop
      vertex 25 22 11
      vertex 25 20 10
      vertex 25 22 -11
    endloop
  endfacet
  facet normal 1 -0 0
    outer loop
      vertex 25 20 -10
      vertex 25 22 -11
      vertex 25 20 10
    endloop
  endfacet
  facet normal 1 0 0
    outer loop
      vertex 25 22 -11
      vertex 25 20 -10
      vertex 25 20 -11
    endloop
  endfacet
  facet normal 0 0 1
    outer loop
      vertex 25 20 10
      vertex 14 0 10
      vertex 25 -20 10
    endloop
  endfacet
  facet normal 0 0 1
    outer loop
      vertex 25 20 10
      vertex 12.9635 1.42658 10
      vertex 14 0 10
    endloop
  endfacet
  facet normal -0 0 1
    outer loop
      vertex 10 5 10
      vertex 12.9635 1.42658 10
      vertex 25 20 10
    endloop
  endfacet
  facet normal 0 0 1
    outer loop
      vertex 11.2865 0.881678 10
      vertex 10 5 10
      vertex 11.2865 -0.881678 10
    endloop
  endfacet
  facet normal 0 0 1
    outer loop
      vertex 12.9635 1.42658 10
      vertex 10 5 10
      vertex 11.2865 0.881678 10
    endloop
  endfacet
  facet normal 0 0 1
    outer loop
      vertex 25 20 10
      vertex -10 5 10
      vertex 10 5 10
    endloop
  endfacet
  facet normal 0 0 1
    outer loop
      vertex -10 5 10
      vertex -11 0 10
      vertex -10 -5 10
    endloop
  endfacet
  facet normal 0 0 1
    outer loop
      vertex -10 5 10
      vertex -12.0365 1.42658 10
      vertex -11 0 10
    endloop
  endfacet
  facet normal 0 0 1
    outer loop
      vertex -10 5 10
      vertex -13.7135 0.881678 10
      vertex -12.0365 1.42658 10
    endloop
  endfacet
  facet normal 0 0 1
    outer loop
      vertex -13.7135 0.881678 10
      vertex -25 20 10
      vertex -13.7135 -0.881678 10
    endloop
  endfacet
  facet normal 0 0 1
    outer loop
      vertex -10 5 10
      vertex -25 20 10
      vertex -13.7135 0.881678 10
    endloop
  endfacet
  facet normal -0 0 1
    outer loop
      vertex -25 20 10
      vertex -10 5 10
      vertex 25 20 10
    endloop
  endfacet
  facet normal -0 0 1
    outer loop
      vertex 12.9635 -1.42658 10
      vertex 25 -20 10
      vertex 14 0 10
    endloop
  endfacet
  facet normal 0 0 1
    outer loop
      vertex 10 -5 10
      vertex 12.9635 -1.42658 10
      vertex 11.2865 -0.881678 10
    endloop
  endfacet
  facet normal 0 0 1
    outer loop
      vertex 10 -5 10
      vertex 11.2865 -0.881678 10
      vertex 10 5 10
    endloop
  endfacet
  facet normal 0 0 1
    outer loop
      vertex 12.9635 -1.42658 10
      vertex 10 -5 10
      vertex 25 -20 10
    endloop
  endfacet
  facet normal -0 0 1
    outer loop
      vertex -10 -5 10
      vertex 25 -20 10
      vertex 10 -5 10
    endloop
  endfacet
  facet normal -0 0 1
    outer loop
      vertex -12.0365 -1.42658 10
      vertex -10 -5 10
      vertex -11 0 10
    endloop
  endfacet
  facet normal 0 0 1
    outer loop
      vertex -13.7135 -0.881678 10
      vertex -10 -5 10
      vertex -12.0365 -1.42658 10
    endloop
  endfacet
  facet normal 0 0 1
    outer loop
      vertex -10 -5 10
      vertex -25 -20 10
      vertex 25 -20 10
    endloop
  endfacet
  facet normal 0 0 1
    outer loop
      vertex -13.7135 -0.881678 10
      vertex -25 -20 10
      vertex -10 -5 10
    endloop
  endfacet
  facet normal 0 0 1
    outer loop
      vertex -25 -20 10
      vertex -13.7135 -0.881678 10
      vertex -25 20 10
    endloop
  endfacet
  facet normal 0 0 -1
    outer loop
      vertex 25 -20 -10
      vertex 14 0 -10
      vertex 25 20 -10
    endloop
  endfacet
  facet normal 0 0 -1
    outer loop
      vertex 25 -20 -10
      vertex 12.9635 -1.42658 -10
      vertex 14 0 -10
    endloop
  endfacet
  facet normal 0 0 -1
    outer loop
      vertex 25 -20 -10
      vertex 11.2865 -0.881678 -10
      vertex 12.9635 -1.42658 -10
    endloop
  endfacet
  facet normal 0 0 -1
    outer loop
      vertex 11.2865 -0.881678 -10
      vertex -11 0 -10
      vertex 11.2865 0.881678 -10
    endloop
  endfacet
  facet normal 0 0 -1
    outer loop
      vertex -22.1716 -20 -10
      vertex 11.2865 -0.881678 -10
      vertex 25 -20 -10
    endloop
  endfacet
  facet normal -0 0 -1
    outer loop
      vertex 11.2865 -0.881678 -10
      vertex -12.0365 -1.42658 -10
      vertex -11 0 -10
    endloop
  endfacet
  facet normal 0 0 -1
    outer loop
      vertex 11.2865 -0.881678 -10
      vertex -22.1716 -20 -10
      vertex -12.0365 -1.42658 -10
    endloop
  endfacet
  facet normal -0 0 -1
    outer loop
      vertex -12.0365 -1.42658 -10
      vertex -22.1716 -18 -10
      vertex -13.7135 -0.881678 -10
    endloop
  endfacet
  facet normal 0 0 -1
    outer loop
      vertex -22.1716 -18 -10
      vertex -12.0365 -1.42658 -10
      vertex -22.1716 -20 -10
    endloop
  endfacet
  facet normal 0 0 -1
    outer loop
      vertex 12.9635 1.42658 -10
      vertex 25 20 -10
      vertex 14 0 -10
    endloop
  endfacet
  facet normal 0 0 -1
    outer loop
      vertex 11.2865 0.881678 -10
      vertex 25 20 -10
      vertex 12.9635 1.42658 -10
    endloop
  endfacet
  facet normal 0 0 -1
    outer loop
      vertex -12.0365 1.42658 -10
      vertex 11.2865 0.881678 -10
      vertex -11 0 -10
    endloop
  endfacet
  facet normal 0 0 -1
    outer loop
      vertex 11.2865 0.881678 -10
      vertex -12.0365 1.42658 -10
      vertex 25 20 -10
    endloop
  endfacet
  facet normal 0 0 -1
    outer loop
      vertex -25 20 -10
      vertex -12.0365 1.42658 -10
      vertex -13.7135 0.881678 -10
    endloop
  endfacet
  facet normal 0 0 -1
    outer loop
      vertex -25 -18 -10
      vertex -13.7135 -0.881678 -10
      vertex -22.1716 -18 -10
    endloop
  endfacet
  facet normal -0 0 -1
    outer loop
      vertex -13.7135 -0.881678 -10
      vertex -25 -18 -10
      vertex -13.7135 0.881678 -10
    endloop
  endfacet
  facet normal 0 0 -1
    outer loop
      vertex -12.0365 1.42658 -10
      vertex -25 20 -10
      vertex 25 20 -10
    endloop
  endfacet
  facet normal 0 0 -1
    outer loop
      vertex -25 20 -10
      vertex -13.7135 0.881678 -10
      vertex -25 -18 -10
    endloop
  endfacet
  facet normal -1 0 0
    outer loop
      vertex -25 -22 -11
      vertex -25 -20 -10
      vertex -25 -20 -11
    endloop
  endfacet
  facet normal -1 -0 0
    outer loop
      vertex -25 -20 -10
      vertex -25 -22 -11
      vertex -25 -20 10
    endloop
  endfacet
  facet normal -1 0 0
    outer loop
      vertex -25 -22 11
      vertex -25 -20 10
      vertex -25 -22 -11
    endloop
  endfacet
  facet normal -1 0 0
    outer loop
      vertex -25 -20 10
      vertex -25 -22 11
      vertex -25 -20 11
    endloop
  endfacet
  facet normal -1 0 0
    outer loop
      vertex -25 -18 -10
      vertex -25 20 10
      vertex -25 20 -10
    endloop
  endfacet
  facet normal -1 0 0
    outer loop
      vertex -25 -20 10
      vertex -25 -18 -10
      vertex -25 -20 -10
    endloop
  endfacet
  facet normal -1 0 0
    outer loop
      vertex -25 -18 -10
      vertex -25 -20 10
      vertex -25 20 10
    endloop
  endfacet
  facet normal -1 0 0
    outer loop
      vertex -25 20 -10
      vertex -25 22 -11
      vertex -25 20 -11
    endloop
  endfacet
  facet normal -1 0 0
    outer loop
      vertex -25 22 -11
      vertex -25 20 -10
      vertex -25 22 11
    endloop
  endfacet
  facet normal -1 0 0
    outer loop
      vertex -25 20 10
      vertex -25 22 11
      vertex -25 20 -10
    endloop
  endfacet
  facet normal -1 -0 0
    outer loop
      vertex -25 22 11
      vertex -25 20 10
      vertex -25 20 11
    endloop
  endfacet
  facet normal 0 -1 0
    outer loop
      vertex -25 20 10
      vertex 25 20 11
      vertex -25 20 11
    endloop
  endfacet
  facet normal 0 -1 -0
    outer loop
      vertex 25 20 11
      vertex -25 20 10
      vertex 25 20 10
    endloop
  endfacet
  facet normal 0 -1 0
    outer loop
      vertex -25 20 -11
      vertex 25 20 -10
      vertex -25 20 -10
    endloop
  endfacet
  facet normal 0 -1 -0
    outer loop
      vertex 25 20 -10
      vertex -25 20 -11
      vertex 25 20 -11
    endloop
  endfacet
  facet normal 0 1 -0
    outer loop
      vertex 25 -20 10
      vertex -25 -20 11
      vertex 25 -20 11
    endloop
  endfacet
  facet normal 0 1 0
    outer loop
      vertex -25 -20 11
      vertex 25 -20 10
      vertex -25 -20 10
    endloop
  endfacet
  facet normal 0 1 0
    outer loop
      vertex -21.1716 -20 -11
      vertex 25 -20 -10
      vertex 25 -20 -11
    endloop
  endfacet
  facet normal 0 1 0
    outer loop
      vertex 25 -20 -10
      vertex -21.1716 -20 -11
      vertex -22.1716 -20 -10
    endloop
  endfacet
  facet normal 0 1 0
    outer loop
      vertex -25 -20 -10
      vertex -24 -20 -11
      vertex -25 -20 -11
    endloop
  endfacet
  facet normal 0 -1 0
    outer loop
      vertex 10.3553 -20 -45.3553
      vertex -21.1716 -20 -11
      vertex -24 -20 -11
    endloop
  endfacet
  facet normal 0 -1 0
    outer loop
      vertex -21.1716 -20 -11
      vertex 10.3553 -20 -45.3553
      vertex 11.7696 -20 -43.9411
    endloop
  endfacet
  facet normal 1 -0 0
    outer loop
      vertex 10 -5 32
      vertex 10 5 10
      vertex 10 5 32
    endloop
  endfacet
  facet normal 1 0 0
    outer loop
      vertex 10 5 10
      vertex 10 -5 32
      vertex 10 -5 10
    endloop
  endfacet
  facet normal -0 0 1
    outer loop
      vertex -10 5 32
      vertex 10 -5 32
      vertex 10 5 32
    endloop
  endfacet
  facet normal 0 0 1
    outer loop
      vertex 10 -5 32
      vertex -10 5 32
      vertex -10 -5 32
    endloop
  endfacet
  facet normal -1 0 0
    outer loop
      vertex -10 -5 10
      vertex -10 5 32
      vertex -10 5 10
    endloop
  endfacet
  facet normal -1 -0 0
    outer loop
      vertex -10 5 32
      vertex -10 -5 10
      vertex -10 -5 32
    endloop
  endfacet
  facet normal 0 1 -0
    outer loop
      vertex 10 5 10
      vertex -10 5 32
      vertex 10 5 32
    endloop
  endfacet
  facet normal 0 1 0
    outer loop
      vertex -10 5 32
      vertex 10 5 10
      vertex -10 5 10
    endloop
  endfacet
  facet normal 0 -1 0
    outer loop
      vertex -10 -5 10
      vertex 10 -5 32
      vertex -10 -5 32
    endloop
  endfacet
  facet normal 0 -1 -0
    outer loop
      vertex 10 -5 32
      vertex -10 -5 10
      vertex 10 -5 10
    endloop
  endfacet
  facet normal -0.309023 -0.951055 0
    outer loop
      vertex -13.7135 -0.881678 10
      vertex -12.0365 -1.42658 11
      vertex -13.7135 -0.881678 11
    endloop
  endfacet
  facet normal -0.309023 -0.951055 -0
    outer loop
      vertex -12.0365 -1.42658 11
      vertex -13.7135 -0.881678 10
      vertex -12.0365 -1.42658 10
    endloop
  endfacet
  facet normal -0.309023 -0.951055 0
    outer loop
      vertex -13.7135 -0.881678 -11
      vertex -12.0365 -1.42658 -10
      vertex -13.7135 -0.881678 -10
    endloop
  endfacet
  facet normal -0.309023 -0.951055 -0
    outer loop
      vertex -12.0365 -1.42658 -10
      vertex -13.7135 -0.881678 -11
      vertex -12.0365 -1.42658 -11
    endloop
  endfacet
  facet normal 0 0 1
    outer loop
      vertex -12.0365 1.42658 11
      vertex -12.0365 -1.42658 11
      vertex -11 0 11
    endloop
  endfacet
  facet normal -0 0 1
    outer loop
      vertex -13.7135 0.881678 11
      vertex -12.0365 -1.42658 11
      vertex -12.0365 1.42658 11
    endloop
  endfacet
  facet normal 0 0 1
    outer loop
      vertex -12.0365 -1.42658 11
      vertex -13.7135 0.881678 11
      vertex -13.7135 -0.881678 11
    endloop
  endfacet
  facet normal -0.309023 0.951055 0
    outer loop
      vertex -12.0365 1.42658 10
      vertex -13.7135 0.881678 11
      vertex -12.0365 1.42658 11
    endloop
  endfacet
  facet normal -0.309023 0.951055 0
    outer loop
      vertex -13.7135 0.881678 11
      vertex -12.0365 1.42658 10
      vertex -13.7135 0.881678 10
    endloop
  endfacet
  facet normal -0.309023 0.951055 0
    outer loop
      vertex -12.0365 1.42658 -11
      vertex -13.7135 0.881678 -10
      vertex -12.0365 1.42658 -10
    endloop
  endfacet
  facet normal -0.309023 0.951055 0
    outer loop
      vertex -13.7135 0.881678 -10
      vertex -12.0365 1.42658 -11
      vertex -13.7135 0.881678 -11
    endloop
  endfacet
  facet normal 0.809009 0.587796 0
    outer loop
      vertex -11 0 -10
      vertex -12.0365 1.42658 -11
      vertex -12.0365 1.42658 -10
    endloop
  endfacet
  facet normal 0.809009 0.587796 0
    outer loop
      vertex -12.0365 1.42658 -11
      vertex -11 0 -10
      vertex -11 0 -11
    endloop
  endfacet
  facet normal 0.809009 0.587796 0
    outer loop
      vertex -11 0 11
      vertex -12.0365 1.42658 10
      vertex -12.0365 1.42658 11
    endloop
  endfacet
  facet normal 0.809009 0.587796 0
    outer loop
      vertex -12.0365 1.42658 10
      vertex -11 0 11
      vertex -11 0 10
    endloop
  endfacet
  facet normal -1 0 0
    outer loop
      vertex -13.7135 -0.881678 10
      vertex -13.7135 0.881678 11
      vertex -13.7135 0.881678 10
    endloop
  endfacet
  facet normal -1 -0 0
    outer loop
      vertex -13.7135 0.881678 11
      vertex -13.7135 -0.881678 10
      vertex -13.7135 -0.881678 11
    endloop
  endfacet
  facet normal -1 0 0
    outer loop
      vertex -13.7135 -0.881678 -11
      vertex -13.7135 0.881678 -10
      vertex -13.7135 0.881678 -11
    endloop
  endfacet
  facet normal -1 -0 0
    outer loop
      vertex -13.7135 0.881678 -10
      vertex -13.7135 -0.881678 -11
      vertex -13.7135 -0.881678 -10
    endloop
  endfacet
  facet normal 0.809009 -0.587796 0
    outer loop
      vertex -12.0365 -1.42658 11
      vertex -11 0 10
      vertex -11 0 11
    endloop
  endfacet
  facet normal 0.809009 -0.587796 0
    outer loop
      vertex -11 0 10
      vertex -12.0365 -1.42658 11
      vertex -12.0365 -1.42658 10
    endloop
  endfacet
  facet normal 0.809009 -0.587796 0
    outer loop
      vertex -12.0365 -1.42658 -10
      vertex -11 0 -11
      vertex -11 0 -10
    endloop
  endfacet
  facet normal 0.809009 -0.587796 0
    outer loop
      vertex -11 0 -11
      vertex -12.0365 -1.42658 -10
      vertex -12.0365 -1.42658 -11
    endloop
  endfacet
  facet normal 0 0 -1
    outer loop
      vertex -12.0365 -1.42658 -11
      vertex -12.0365 1.42658 -11
      vertex -11 0 -11
    endloop
  endfacet
  facet normal 0 0 -1
    outer loop
      vertex -13.7135 -0.881678 -11
      vertex -12.0365 1.42658 -11
      vertex -12.0365 -1.42658 -11
    endloop
  endfacet
  facet normal 0 0 -1
    outer loop
      vertex -12.0365 1.42658 -11
      vertex -13.7135 -0.881678 -11
      vertex -13.7135 0.881678 -11
    endloop
  endfacet
  facet normal -0.309023 -0.951055 0
    outer loop
      vertex 11.2865 -0.881678 10
      vertex 12.9635 -1.42658 11
      vertex 11.2865 -0.881678 11
    endloop
  endfacet
  facet normal -0.309023 -0.951055 -0
    outer loop
      vertex 12.9635 -1.42658 11
      vertex 11.2865 -0.881678 10
      vertex 12.9635 -1.42658 10
    endloop
  endfacet
  facet normal -0.309023 -0.951055 0
    outer loop
      vertex 11.2865 -0.881678 -11
      vertex 12.9635 -1.42658 -10
      vertex 11.2865 -0.881678 -10
    endloop
  endfacet
  facet normal -0.309023 -0.951055 -0
    outer loop
      vertex 12.9635 -1.42658 -10
      vertex 11.2865 -0.881678 -11
      vertex 12.9635 -1.42658 -11
    endloop
  endfacet
  facet normal -0.309023 0.951055 0
    outer loop
      vertex 12.9635 1.42658 -11
      vertex 11.2865 0.881678 -10
      vertex 12.9635 1.42658 -10
    endloop
  endfacet
  facet normal -0.309023 0.951055 0
    outer loop
      vertex 11.2865 0.881678 -10
      vertex 12.9635 1.42658 -11
      vertex 11.2865 0.881678 -11
    endloop
  endfacet
  facet normal -0.309023 0.951055 0
    outer loop
      vertex 12.9635 1.42658 10
      vertex 11.2865 0.881678 11
      vertex 12.9635 1.42658 11
    endloop
  endfacet
  facet normal -0.309023 0.951055 0
    outer loop
      vertex 11.2865 0.881678 11
      vertex 12.9635 1.42658 10
      vertex 11.2865 0.881678 10
    endloop
  endfacet
  facet normal 0.809009 0.587796 0
    outer loop
      vertex 14 0 -10
      vertex 12.9635 1.42658 -11
      vertex 12.9635 1.42658 -10
    endloop
  endfacet
  facet normal 0.809009 0.587796 0
    outer loop
      vertex 12.9635 1.42658 -11
      vertex 14 0 -10
      vertex 14 0 -11
    endloop
  endfacet
  facet normal 0.809009 0.587796 0
    outer loop
      vertex 14 0 11
      vertex 12.9635 1.42658 10
      vertex 12.9635 1.42658 11
    endloop
  endfacet
  facet normal 0.809009 0.587796 0
    outer loop
      vertex 12.9635 1.42658 10
      vertex 14 0 11
      vertex 14 0 10
    endloop
  endfacet
  facet normal -1 0 0
    outer loop
      vertex 11.2865 -0.881678 10
      vertex 11.2865 0.881678 11
      vertex 11.2865 0.881678 10
    endloop
  endfacet
  facet normal -1 -0 0
    outer loop
      vertex 11.2865 0.881678 11
      vertex 11.2865 -0.881678 10
      vertex 11.2865 -0.881678 11
    endloop
  endfacet
  facet normal -1 0 0
    outer loop
      vertex 11.2865 -0.881678 -11
      vertex 11.2865 0.881678 -10
      vertex 11.2865 0.881678 -11
    endloop
  endfacet
  facet normal -1 -0 0
    outer loop
      vertex 11.2865 0.881678 -10
      vertex 11.2865 -0.881678 -11
      vertex 11.2865 -0.881678 -10
    endloop
  endfacet
  facet normal 0 0 1
    outer loop
      vertex 12.9635 1.42658 11
      vertex 12.9635 -1.42658 11
      vertex 14 0 11
    endloop
  endfacet
  facet normal -0 0 1
    outer loop
      vertex 11.2865 0.881678 11
      vertex 12.9635 -1.42658 11
      vertex 12.9635 1.42658 11
    endloop
  endfacet
  facet normal 0 0 1
    outer loop
      vertex 12.9635 -1.42658 11
      vertex 11.2865 0.881678 11
      vertex 11.2865 -0.881678 11
    endloop
  endfacet
  facet normal 0.809009 -0.587796 0
    outer loop
      vertex 12.9635 -1.42658 -10
      vertex 14 0 -11
      vertex 14 0 -10
    endloop
  endfacet
  facet normal 0.809009 -0.587796 0
    outer loop
      vertex 14 0 -11
      vertex 12.9635 -1.42658 -10
      vertex 12.9635 -1.42658 -11
    endloop
  endfacet
  facet normal 0.809009 -0.587796 0
    outer loop
      vertex 12.9635 -1.42658 11
      vertex 14 0 10
      vertex 14 0 11
    endloop
  endfacet
  facet normal 0.809009 -0.587796 0
    outer loop
      vertex 14 0 10
      vertex 12.9635 -1.42658 11
      vertex 12.9635 -1.42658 10
    endloop
  endfacet
  facet normal 0 0 -1
    outer loop
      vertex 12.9635 -1.42658 -11
      vertex 12.9635 1.42658 -11
      vertex 14 0 -11
    endloop
  endfacet
  facet normal 0 0 -1
    outer loop
      vertex 11.2865 -0.881678 -11
      vertex 12.9635 1.42658 -11
      vertex 12.9635 -1.42658 -11
    endloop
  endfacet
  facet normal 0 0 -1
    outer loop
      vertex 12.9635 1.42658 -11
      vertex 11.2865 -0.881678 -11
      vertex 11.2865 0.881678 -11
    endloop
  endfacet
  facet normal -0 0 1
    outer loop
      vertex -25 22 11
      vertex 25 20 11
      vertex 25 22 11
    endloop
  endfacet
  facet normal 0 0 1
    outer loop
      vertex 25 20 11
      vertex -25 22 11
      vertex -25 20 11
    endloop
  endfacet
  facet normal 0 0 -1
    outer loop
      vertex -25 20 -11
      vertex 25 22 -11
      vertex 25 20 -11
    endloop
  endfacet
  facet normal -0 0 -1
    outer loop
      vertex 25 22 -11
      vertex -25 20 -11
      vertex -25 22 -11
    endloop
  endfacet
  facet normal 0 1 -0
    outer loop
      vertex 25 22 -11
      vertex -25 22 11
      vertex 25 22 11
    endloop
  endfacet
  facet normal 0 1 0
    outer loop
      vertex -25 22 11
      vertex 25 22 -11
      vertex -25 22 -11
    endloop
  endfacet
  facet normal -0 0 1
    outer loop
      vertex -25 -20 11
      vertex 25 -22 11
      vertex 25 -20 11
    endloop
  endfacet
  facet normal 0 0 1
    outer loop
      vertex 25 -22 11
      vertex -25 -20 11
      vertex -25 -22 11
    endloop
  endfacet
  facet normal 0 0 -1
    outer loop
      vertex 25 -22 -11
      vertex -21.1716 -20 -11
      vertex 25 -20 -11
    endloop
  endfacet
  facet normal 0 0 -1
    outer loop
      vertex -25 -22 -11
      vertex -21.1716 -20 -11
      vertex 25 -22 -11
    endloop
  endfacet
  facet normal -0 0 -1
    outer loop
      vertex -21.1716 -20 -11
      vertex -25 -22 -11
      vertex -24 -20 -11
    endloop
  endfacet
  facet normal -0 0 -1
    outer loop
      vertex -24 -20 -11
      vertex -25 -22 -11
      vertex -25 -20 -11
    endloop
  endfacet
  facet normal 0 -1 0
    outer loop
      vertex -25 -22 -11
      vertex 25 -22 11
      vertex -25 -22 11
    endloop
  endfacet
  facet normal 0 -1 -0
    outer loop
      vertex 25 -22 11
      vertex -25 -22 -11
      vertex 25 -22 -11
    endloop
  endfacet
  facet normal 0 1 -0
    outer loop
      vertex 10.3553 -18 -45.3553
      vertex -22.1716 -18 -10
      vertex 11.7696 -18 -43.9411
    endloop
  endfacet
  facet normal 0 1 0
    outer loop
      vertex -22.1716 -18 -10
      vertex 10.3553 -18 -45.3553
      vertex -25 -18 -10
    endloop
  endfacet
  facet normal 0.707107 0 0.707107
    outer loop
      vertex -21.1716 -20 -11
      vertex -22.1716 -18 -10
      vertex -22.1716 -20 -10
    endloop
  endfacet
  facet normal 0.707106 -1.04167e-06 0.707108
    outer loop
      vertex -22.1716 -18 -10
      vertex -21.1716 -20 -11
      vertex 11.7696 -18 -43.9411
    endloop
  endfacet
  facet normal 0.707106 0 0.707108
    outer loop
      vertex 11.7696 -18 -43.9411
      vertex -21.1716 -20 -11
      vertex 11.7696 -20 -43.9411
    endloop
  endfacet
  facet normal 0.707082 0 -0.707132
    outer loop
      vertex 11.7696 -20 -43.9411
      vertex 10.3553 -18 -45.3553
      vertex 11.7696 -18 -43.9411
    endloop
  endfacet
  facet normal 0.707082 0 -0.707132
    outer loop
      vertex 10.3553 -18 -45.3553
      vertex 11.7696 -20 -43.9411
      vertex 10.3553 -20 -45.3553
    endloop
  endfacet
  facet normal -0.707107 0 -0.707107
    outer loop
      vertex -24 -20 -11
      vertex 10.3553 -18 -45.3553
      vertex 10.3553 -20 -45.3553
    endloop
  endfacet
  facet normal -0.707107 0 -0.707107
    outer loop
      vertex 10.3553 -18 -45.3553
      vertex -24 -20 -11
      vertex -25 -18 -10
    endloop
  endfacet
  facet normal -0.707107 -0 -0.707107
    outer loop
      vertex -25 -18 -10
      vertex -24 -20 -11
      vertex -25 -20 -10
    endloop
  endfacet
endsolid OpenSCAD_Model
