solid OpenSCAD_Model
  facet normal 1 -0 0
    outer loop
      vertex 19.5 -1.5 2.5
      vertex 19.5 1.5 -2.5
      vertex 19.5 1.5 2.5
    endloop
  endfacet
  facet normal 1 0 0
    outer loop
      vertex 19.5 1.5 -2.5
      vertex 19.5 -1.5 2.5
      vertex 19.5 -1.5 -2.5
    endloop
  endfacet
  facet normal -0 0 1
    outer loop
      vertex 17.5 1.5 2.5
      vertex 19.5 -1.5 2.5
      vertex 19.5 1.5 2.5
    endloop
  endfacet
  facet normal 0 0 1
    outer loop
      vertex 19.5 -1.5 2.5
      vertex 17.5 1.5 2.5
      vertex 17.5 -1.5 2.5
    endloop
  endfacet
  facet normal 0 0 -1
    outer loop
      vertex 17.5 -1.5 -2.5
      vertex 19.5 1.5 -2.5
      vertex 19.5 -1.5 -2.5
    endloop
  endfacet
  facet normal -0 0 -1
    outer loop
      vertex 19.5 1.5 -2.5
      vertex 17.5 -1.5 -2.5
      vertex 17.5 1.5 -2.5
    endloop
  endfacet
  facet normal -1 0 0
    outer loop
      vertex 17.5 -1.5 -2.5
      vertex 17.5 1.5 2.5
      vertex 17.5 1.5 -2.5
    endloop
  endfacet
  facet normal -1 -0 0
    outer loop
      vertex 17.5 1.5 2.5
      vertex 17.5 -1.5 -2.5
      vertex 17.5 -1.5 2.5
    endloop
  endfacet
  facet normal 0 1 -0
    outer loop
      vertex 19.5 1.5 -2.5
      vertex 17.5 1.5 2.5
      vertex 19.5 1.5 2.5
    endloop
  endfacet
  facet normal 0 1 0
    outer loop
      vertex 17.5 1.5 2.5
      vertex 19.5 1.5 -2.5
      vertex 17.5 1.5 -2.5
    endloop
  endfacet
  facet normal 0 -1 0
    outer loop
      vertex 17.5 -1.5 -2.5
      vertex 19.5 -1.5 2.5
      vertex 17.5 -1.5 2.5
    endloop
  endfacet
  facet normal 0 -1 -0
    outer loop
      vertex 19.5 -1.5 2.5
      vertex 17.5 -1.5 -2.5
      vertex 19.5 -1.5 -2.5
    endloop
  endfacet
  facet normal 0 0 1
    outer loop
      vertex 16.1375 11.049 2.5
      vertex 15.9054 7.45096 2.5
      vertex 17.6375 8.45096 2.5
    endloop
  endfacet
  facet normal 0 -0 1
    outer loop
      vertex 15.9054 7.45096 2.5
      vertex 16.1375 11.049 2.5
      vertex 14.4054 10.049 2.5
    endloop
  endfacet
  facet normal -0.866022 -0.500005 0
    outer loop
      vertex 15.9054 7.45096 -2.5
      vertex 14.4054 10.049 2.5
      vertex 14.4054 10.049 -2.5
    endloop
  endfacet
  facet normal -0.866022 -0.500005 0
    outer loop
      vertex 14.4054 10.049 2.5
      vertex 15.9054 7.45096 -2.5
      vertex 15.9054 7.45096 2.5
    endloop
  endfacet
  facet normal -0.499989 0.866032 0
    outer loop
      vertex 16.1375 11.049 -2.5
      vertex 14.4054 10.049 2.5
      vertex 16.1375 11.049 2.5
    endloop
  endfacet
  facet normal -0.499989 0.866032 0
    outer loop
      vertex 14.4054 10.049 2.5
      vertex 16.1375 11.049 -2.5
      vertex 14.4054 10.049 -2.5
    endloop
  endfacet
  facet normal 0 0 -1
    outer loop
      vertex 15.9054 7.45096 -2.5
      vertex 16.1375 11.049 -2.5
      vertex 17.6375 8.45096 -2.5
    endloop
  endfacet
  facet normal 0 0 -1
    outer loop
      vertex 16.1375 11.049 -2.5
      vertex 15.9054 7.45096 -2.5
      vertex 14.4054 10.049 -2.5
    endloop
  endfacet
  facet normal 0.499989 -0.866032 0
    outer loop
      vertex 15.9054 7.45096 -2.5
      vertex 17.6375 8.45096 2.5
      vertex 15.9054 7.45096 2.5
    endloop
  endfacet
  facet normal 0.499989 -0.866032 0
    outer loop
      vertex 17.6375 8.45096 2.5
      vertex 15.9054 7.45096 -2.5
      vertex 17.6375 8.45096 -2.5
    endloop
  endfacet
  facet normal 0.866022 0.500005 0
    outer loop
      vertex 17.6375 8.45096 2.5
      vertex 16.1375 11.049 -2.5
      vertex 16.1375 11.049 2.5
    endloop
  endfacet
  facet normal 0.866022 0.500005 0
    outer loop
      vertex 16.1375 11.049 -2.5
      vertex 17.6375 8.45096 2.5
      vertex 17.6375 8.45096 -2.5
    endloop
  endfacet
  facet normal 0 0 1
    outer loop
      vertex 8.45096 17.6375 2.5
      vertex 10.049 14.4054 2.5
      vertex 11.049 16.1375 2.5
    endloop
  endfacet
  facet normal 0 0 1
    outer loop
      vertex 10.049 14.4054 2.5
      vertex 8.45096 17.6375 2.5
      vertex 7.45096 15.9054 2.5
    endloop
  endfacet
  facet normal -0.500005 -0.866022 0
    outer loop
      vertex 7.45096 15.9054 -2.5
      vertex 10.049 14.4054 2.5
      vertex 7.45096 15.9054 2.5
    endloop
  endfacet
  facet normal -0.500005 -0.866022 -0
    outer loop
      vertex 10.049 14.4054 2.5
      vertex 7.45096 15.9054 -2.5
      vertex 10.049 14.4054 -2.5
    endloop
  endfacet
  facet normal -0.866032 0.499989 0
    outer loop
      vertex 7.45096 15.9054 -2.5
      vertex 8.45096 17.6375 2.5
      vertex 8.45096 17.6375 -2.5
    endloop
  endfacet
  facet normal -0.866032 0.499989 0
    outer loop
      vertex 8.45096 17.6375 2.5
      vertex 7.45096 15.9054 -2.5
      vertex 7.45096 15.9054 2.5
    endloop
  endfacet
  facet normal 0 0 -1
    outer loop
      vertex 10.049 14.4054 -2.5
      vertex 8.45096 17.6375 -2.5
      vertex 11.049 16.1375 -2.5
    endloop
  endfacet
  facet normal 0 -0 -1
    outer loop
      vertex 8.45096 17.6375 -2.5
      vertex 10.049 14.4054 -2.5
      vertex 7.45096 15.9054 -2.5
    endloop
  endfacet
  facet normal 0.866032 -0.499989 0
    outer loop
      vertex 10.049 14.4054 2.5
      vertex 11.049 16.1375 -2.5
      vertex 11.049 16.1375 2.5
    endloop
  endfacet
  facet normal 0.866032 -0.499989 0
    outer loop
      vertex 11.049 16.1375 -2.5
      vertex 10.049 14.4054 2.5
      vertex 10.049 14.4054 -2.5
    endloop
  endfacet
  facet normal 0.500005 0.866022 -0
    outer loop
      vertex 11.049 16.1375 -2.5
      vertex 8.45096 17.6375 2.5
      vertex 11.049 16.1375 2.5
    endloop
  endfacet
  facet normal 0.500005 0.866022 0
    outer loop
      vertex 8.45096 17.6375 2.5
      vertex 11.049 16.1375 -2.5
      vertex 8.45096 17.6375 -2.5
    endloop
  endfacet
  facet normal -0 0 1
    outer loop
      vertex -1.5 19.5 2.5
      vertex 1.5 17.5 2.5
      vertex 1.5 19.5 2.5
    endloop
  endfacet
  facet normal 0 0 1
    outer loop
      vertex 1.5 17.5 2.5
      vertex -1.5 19.5 2.5
      vertex -1.5 17.5 2.5
    endloop
  endfacet
  facet normal 0 -1 0
    outer loop
      vertex -1.5 17.5 -2.5
      vertex 1.5 17.5 2.5
      vertex -1.5 17.5 2.5
    endloop
  endfacet
  facet normal 0 -1 -0
    outer loop
      vertex 1.5 17.5 2.5
      vertex -1.5 17.5 -2.5
      vertex 1.5 17.5 -2.5
    endloop
  endfacet
  facet normal -1 0 0
    outer loop
      vertex -1.5 17.5 -2.5
      vertex -1.5 19.5 2.5
      vertex -1.5 19.5 -2.5
    endloop
  endfacet
  facet normal -1 -0 0
    outer loop
      vertex -1.5 19.5 2.5
      vertex -1.5 17.5 -2.5
      vertex -1.5 17.5 2.5
    endloop
  endfacet
  facet normal 0 0 -1
    outer loop
      vertex -1.5 17.5 -2.5
      vertex 1.5 19.5 -2.5
      vertex 1.5 17.5 -2.5
    endloop
  endfacet
  facet normal -0 0 -1
    outer loop
      vertex 1.5 19.5 -2.5
      vertex -1.5 17.5 -2.5
      vertex -1.5 19.5 -2.5
    endloop
  endfacet
  facet normal 1 -0 0
    outer loop
      vertex 1.5 17.5 2.5
      vertex 1.5 19.5 -2.5
      vertex 1.5 19.5 2.5
    endloop
  endfacet
  facet normal 1 0 0
    outer loop
      vertex 1.5 19.5 -2.5
      vertex 1.5 17.5 2.5
      vertex 1.5 17.5 -2.5
    endloop
  endfacet
  facet normal 0 1 -0
    outer loop
      vertex 1.5 19.5 -2.5
      vertex -1.5 19.5 2.5
      vertex 1.5 19.5 2.5
    endloop
  endfacet
  facet normal 0 1 0
    outer loop
      vertex -1.5 19.5 2.5
      vertex 1.5 19.5 -2.5
      vertex -1.5 19.5 -2.5
    endloop
  endfacet
  facet normal 0 0 1
    outer loop
      vertex -8.45096 17.6375 2.5
      vertex -10.049 14.4054 2.5
      vertex -7.45096 15.9054 2.5
    endloop
  endfacet
  facet normal 0 -0 1
    outer loop
      vertex -10.049 14.4054 2.5
      vertex -8.45096 17.6375 2.5
      vertex -11.049 16.1375 2.5
    endloop
  endfacet
  facet normal 0.500005 -0.866022 0
    outer loop
      vertex -10.049 14.4054 -2.5
      vertex -7.45096 15.9054 2.5
      vertex -10.049 14.4054 2.5
    endloop
  endfacet
  facet normal 0.500005 -0.866022 0
    outer loop
      vertex -7.45096 15.9054 2.5
      vertex -10.049 14.4054 -2.5
      vertex -7.45096 15.9054 -2.5
    endloop
  endfacet
  facet normal -0.866032 -0.499989 0
    outer loop
      vertex -10.049 14.4054 -2.5
      vertex -11.049 16.1375 2.5
      vertex -11.049 16.1375 -2.5
    endloop
  endfacet
  facet normal -0.866032 -0.499989 0
    outer loop
      vertex -11.049 16.1375 2.5
      vertex -10.049 14.4054 -2.5
      vertex -10.049 14.4054 2.5
    endloop
  endfacet
  facet normal 0 0 -1
    outer loop
      vertex -10.049 14.4054 -2.5
      vertex -8.45096 17.6375 -2.5
      vertex -7.45096 15.9054 -2.5
    endloop
  endfacet
  facet normal 0 0 -1
    outer loop
      vertex -8.45096 17.6375 -2.5
      vertex -10.049 14.4054 -2.5
      vertex -11.049 16.1375 -2.5
    endloop
  endfacet
  facet normal 0.866032 0.499989 0
    outer loop
      vertex -7.45096 15.9054 2.5
      vertex -8.45096 17.6375 -2.5
      vertex -8.45096 17.6375 2.5
    endloop
  endfacet
  facet normal 0.866032 0.499989 0
    outer loop
      vertex -8.45096 17.6375 -2.5
      vertex -7.45096 15.9054 2.5
      vertex -7.45096 15.9054 -2.5
    endloop
  endfacet
  facet normal -0.500005 0.866022 0
    outer loop
      vertex -8.45096 17.6375 -2.5
      vertex -11.049 16.1375 2.5
      vertex -8.45096 17.6375 2.5
    endloop
  endfacet
  facet normal -0.500005 0.866022 0
    outer loop
      vertex -11.049 16.1375 2.5
      vertex -8.45096 17.6375 -2.5
      vertex -11.049 16.1375 -2.5
    endloop
  endfacet
  facet normal 0 0 1
    outer loop
      vertex -16.1375 11.049 2.5
      vertex -15.9054 7.45096 2.5
      vertex -14.4054 10.049 2.5
    endloop
  endfacet
  facet normal 0 0 1
    outer loop
      vertex -15.9054 7.45096 2.5
      vertex -16.1375 11.049 2.5
      vertex -17.6375 8.45096 2.5
    endloop
  endfacet
  facet normal 0.866022 -0.500005 0
    outer loop
      vertex -15.9054 7.45096 2.5
      vertex -14.4054 10.049 -2.5
      vertex -14.4054 10.049 2.5
    endloop
  endfacet
  facet normal 0.866022 -0.500005 0
    outer loop
      vertex -14.4054 10.049 -2.5
      vertex -15.9054 7.45096 2.5
      vertex -15.9054 7.45096 -2.5
    endloop
  endfacet
  facet normal -0.499989 -0.866032 0
    outer loop
      vertex -17.6375 8.45096 -2.5
      vertex -15.9054 7.45096 2.5
      vertex -17.6375 8.45096 2.5
    endloop
  endfacet
  facet normal -0.499989 -0.866032 -0
    outer loop
      vertex -15.9054 7.45096 2.5
      vertex -17.6375 8.45096 -2.5
      vertex -15.9054 7.45096 -2.5
    endloop
  endfacet
  facet normal 0 0 -1
    outer loop
      vertex -15.9054 7.45096 -2.5
      vertex -16.1375 11.049 -2.5
      vertex -14.4054 10.049 -2.5
    endloop
  endfacet
  facet normal 0 -0 -1
    outer loop
      vertex -16.1375 11.049 -2.5
      vertex -15.9054 7.45096 -2.5
      vertex -17.6375 8.45096 -2.5
    endloop
  endfacet
  facet normal 0.499989 0.866032 -0
    outer loop
      vertex -14.4054 10.049 -2.5
      vertex -16.1375 11.049 2.5
      vertex -14.4054 10.049 2.5
    endloop
  endfacet
  facet normal 0.499989 0.866032 0
    outer loop
      vertex -16.1375 11.049 2.5
      vertex -14.4054 10.049 -2.5
      vertex -16.1375 11.049 -2.5
    endloop
  endfacet
  facet normal -0.866022 0.500005 0
    outer loop
      vertex -17.6375 8.45096 -2.5
      vertex -16.1375 11.049 2.5
      vertex -16.1375 11.049 -2.5
    endloop
  endfacet
  facet normal -0.866022 0.500005 0
    outer loop
      vertex -16.1375 11.049 2.5
      vertex -17.6375 8.45096 -2.5
      vertex -17.6375 8.45096 2.5
    endloop
  endfacet
  facet normal -0 0 1
    outer loop
      vertex -19.5 1.5 2.5
      vertex -17.5 -1.5 2.5
      vertex -17.5 1.5 2.5
    endloop
  endfacet
  facet normal 0 0 1
    outer loop
      vertex -17.5 -1.5 2.5
      vertex -19.5 1.5 2.5
      vertex -19.5 -1.5 2.5
    endloop
  endfacet
  facet normal 1 -0 0
    outer loop
      vertex -17.5 -1.5 2.5
      vertex -17.5 1.5 -2.5
      vertex -17.5 1.5 2.5
    endloop
  endfacet
  facet normal 1 0 0
    outer loop
      vertex -17.5 1.5 -2.5
      vertex -17.5 -1.5 2.5
      vertex -17.5 -1.5 -2.5
    endloop
  endfacet
  facet normal 0 -1 0
    outer loop
      vertex -19.5 -1.5 -2.5
      vertex -17.5 -1.5 2.5
      vertex -19.5 -1.5 2.5
    endloop
  endfacet
  facet normal 0 -1 -0
    outer loop
      vertex -17.5 -1.5 2.5
      vertex -19.5 -1.5 -2.5
      vertex -17.5 -1.5 -2.5
    endloop
  endfacet
  facet normal 0 0 -1
    outer loop
      vertex -19.5 -1.5 -2.5
      vertex -17.5 1.5 -2.5
      vertex -17.5 -1.5 -2.5
    endloop
  endfacet
  facet normal -0 0 -1
    outer loop
      vertex -17.5 1.5 -2.5
      vertex -19.5 -1.5 -2.5
      vertex -19.5 1.5 -2.5
    endloop
  endfacet
  facet normal 0 1 -0
    outer loop
      vertex -17.5 1.5 -2.5
      vertex -19.5 1.5 2.5
      vertex -17.5 1.5 2.5
    endloop
  endfacet
  facet normal 0 1 0
    outer loop
      vertex -19.5 1.5 2.5
      vertex -17.5 1.5 -2.5
      vertex -19.5 1.5 -2.5
    endloop
  endfacet
  facet normal -1 0 0
    outer loop
      vertex -19.5 -1.5 -2.5
      vertex -19.5 1.5 2.5
      vertex -19.5 1.5 -2.5
    endloop
  endfacet
  facet normal -1 -0 0
    outer loop
      vertex -19.5 1.5 2.5
      vertex -19.5 -1.5 -2.5
      vertex -19.5 -1.5 2.5
    endloop
  endfacet
  facet normal -0.866022 -0.500005 0
    outer loop
      vertex -16.1375 -11.049 -2.5
      vertex -17.6375 -8.45096 2.5
      vertex -17.6375 -8.45096 -2.5
    endloop
  endfacet
  facet normal -0.866022 -0.500005 0
    outer loop
      vertex -17.6375 -8.45096 2.5
      vertex -16.1375 -11.049 -2.5
      vertex -16.1375 -11.049 2.5
    endloop
  endfacet
  facet normal 0 0 1
    outer loop
      vertex -15.9054 -7.45096 2.5
      vertex -16.1375 -11.049 2.5
      vertex -14.4054 -10.049 2.5
    endloop
  endfacet
  facet normal 0 -0 1
    outer loop
      vertex -16.1375 -11.049 2.5
      vertex -15.9054 -7.45096 2.5
      vertex -17.6375 -8.45096 2.5
    endloop
  endfacet
  facet normal 0 0 -1
    outer loop
      vertex -16.1375 -11.049 -2.5
      vertex -15.9054 -7.45096 -2.5
      vertex -14.4054 -10.049 -2.5
    endloop
  endfacet
  facet normal 0 0 -1
    outer loop
      vertex -15.9054 -7.45096 -2.5
      vertex -16.1375 -11.049 -2.5
      vertex -17.6375 -8.45096 -2.5
    endloop
  endfacet
  facet normal 0.866022 0.500005 0
    outer loop
      vertex -14.4054 -10.049 2.5
      vertex -15.9054 -7.45096 -2.5
      vertex -15.9054 -7.45096 2.5
    endloop
  endfacet
  facet normal 0.866022 0.500005 0
    outer loop
      vertex -15.9054 -7.45096 -2.5
      vertex -14.4054 -10.049 2.5
      vertex -14.4054 -10.049 -2.5
    endloop
  endfacet
  facet normal 0.499989 -0.866032 0
    outer loop
      vertex -16.1375 -11.049 -2.5
      vertex -14.4054 -10.049 2.5
      vertex -16.1375 -11.049 2.5
    endloop
  endfacet
  facet normal 0.499989 -0.866032 0
    outer loop
      vertex -14.4054 -10.049 2.5
      vertex -16.1375 -11.049 -2.5
      vertex -14.4054 -10.049 -2.5
    endloop
  endfacet
  facet normal -0.499989 0.866032 0
    outer loop
      vertex -15.9054 -7.45096 -2.5
      vertex -17.6375 -8.45096 2.5
      vertex -15.9054 -7.45096 2.5
    endloop
  endfacet
  facet normal -0.499989 0.866032 0
    outer loop
      vertex -17.6375 -8.45096 2.5
      vertex -15.9054 -7.45096 -2.5
      vertex -17.6375 -8.45096 -2.5
    endloop
  endfacet
  facet normal -0.500005 -0.866022 0
    outer loop
      vertex -11.049 -16.1375 -2.5
      vertex -8.45096 -17.6375 2.5
      vertex -11.049 -16.1375 2.5
    endloop
  endfacet
  facet normal -0.500005 -0.866022 -0
    outer loop
      vertex -8.45096 -17.6375 2.5
      vertex -11.049 -16.1375 -2.5
      vertex -8.45096 -17.6375 -2.5
    endloop
  endfacet
  facet normal 0 0 1
    outer loop
      vertex -10.049 -14.4054 2.5
      vertex -8.45096 -17.6375 2.5
      vertex -7.45096 -15.9054 2.5
    endloop
  endfacet
  facet normal 0 0 1
    outer loop
      vertex -8.45096 -17.6375 2.5
      vertex -10.049 -14.4054 2.5
      vertex -11.049 -16.1375 2.5
    endloop
  endfacet
  facet normal 0 0 -1
    outer loop
      vertex -8.45096 -17.6375 -2.5
      vertex -10.049 -14.4054 -2.5
      vertex -7.45096 -15.9054 -2.5
    endloop
  endfacet
  facet normal 0 -0 -1
    outer loop
      vertex -10.049 -14.4054 -2.5
      vertex -8.45096 -17.6375 -2.5
      vertex -11.049 -16.1375 -2.5
    endloop
  endfacet
  facet normal 0.500005 0.866022 -0
    outer loop
      vertex -7.45096 -15.9054 -2.5
      vertex -10.049 -14.4054 2.5
      vertex -7.45096 -15.9054 2.5
    endloop
  endfacet
  facet normal 0.500005 0.866022 0
    outer loop
      vertex -10.049 -14.4054 2.5
      vertex -7.45096 -15.9054 -2.5
      vertex -10.049 -14.4054 -2.5
    endloop
  endfacet
  facet normal 0.866032 -0.499989 0
    outer loop
      vertex -8.45096 -17.6375 2.5
      vertex -7.45096 -15.9054 -2.5
      vertex -7.45096 -15.9054 2.5
    endloop
  endfacet
  facet normal 0.866032 -0.499989 0
    outer loop
      vertex -7.45096 -15.9054 -2.5
      vertex -8.45096 -17.6375 2.5
      vertex -8.45096 -17.6375 -2.5
    endloop
  endfacet
  facet normal -0.866032 0.499989 0
    outer loop
      vertex -11.049 -16.1375 -2.5
      vertex -10.049 -14.4054 2.5
      vertex -10.049 -14.4054 -2.5
    endloop
  endfacet
  facet normal -0.866032 0.499989 0
    outer loop
      vertex -10.049 -14.4054 2.5
      vertex -11.049 -16.1375 -2.5
      vertex -11.049 -16.1375 2.5
    endloop
  endfacet
  facet normal 0 -1 0
    outer loop
      vertex -1.5 -19.5 -2.5
      vertex 1.5 -19.5 2.5
      vertex -1.5 -19.5 2.5
    endloop
  endfacet
  facet normal 0 -1 -0
    outer loop
      vertex 1.5 -19.5 2.5
      vertex -1.5 -19.5 -2.5
      vertex 1.5 -19.5 -2.5
    endloop
  endfacet
  facet normal -0 0 1
    outer loop
      vertex -1.5 -17.5 2.5
      vertex 1.5 -19.5 2.5
      vertex 1.5 -17.5 2.5
    endloop
  endfacet
  facet normal 0 0 1
    outer loop
      vertex 1.5 -19.5 2.5
      vertex -1.5 -17.5 2.5
      vertex -1.5 -19.5 2.5
    endloop
  endfacet
  facet normal 0 0 -1
    outer loop
      vertex -1.5 -19.5 -2.5
      vertex 1.5 -17.5 -2.5
      vertex 1.5 -19.5 -2.5
    endloop
  endfacet
  facet normal -0 0 -1
    outer loop
      vertex 1.5 -17.5 -2.5
      vertex -1.5 -19.5 -2.5
      vertex -1.5 -17.5 -2.5
    endloop
  endfacet
  facet normal 0 1 -0
    outer loop
      vertex 1.5 -17.5 -2.5
      vertex -1.5 -17.5 2.5
      vertex 1.5 -17.5 2.5
    endloop
  endfacet
  facet normal 0 1 0
    outer loop
      vertex -1.5 -17.5 2.5
      vertex 1.5 -17.5 -2.5
      vertex -1.5 -17.5 -2.5
    endloop
  endfacet
  facet normal 1 -0 0
    outer loop
      vertex 1.5 -19.5 2.5
      vertex 1.5 -17.5 -2.5
      vertex 1.5 -17.5 2.5
    endloop
  endfacet
  facet normal 1 0 0
    outer loop
      vertex 1.5 -17.5 -2.5
      vertex 1.5 -19.5 2.5
      vertex 1.5 -19.5 -2.5
    endloop
  endfacet
  facet normal -1 0 0
    outer loop
      vertex -1.5 -19.5 -2.5
      vertex -1.5 -17.5 2.5
      vertex -1.5 -17.5 -2.5
    endloop
  endfacet
  facet normal -1 -0 0
    outer loop
      vertex -1.5 -17.5 2.5
      vertex -1.5 -19.5 -2.5
      vertex -1.5 -19.5 2.5
    endloop
  endfacet
  facet normal 0.500005 -0.866022 0
    outer loop
      vertex 8.45096 -17.6375 -2.5
      vertex 11.049 -16.1375 2.5
      vertex 8.45096 -17.6375 2.5
    endloop
  endfacet
  facet normal 0.500005 -0.866022 0
    outer loop
      vertex 11.049 -16.1375 2.5
      vertex 8.45096 -17.6375 -2.5
      vertex 11.049 -16.1375 -2.5
    endloop
  endfacet
  facet normal 0 0 1
    outer loop
      vertex 10.049 -14.4054 2.5
      vertex 8.45096 -17.6375 2.5
      vertex 11.049 -16.1375 2.5
    endloop
  endfacet
  facet normal 0 -0 1
    outer loop
      vertex 8.45096 -17.6375 2.5
      vertex 10.049 -14.4054 2.5
      vertex 7.45096 -15.9054 2.5
    endloop
  endfacet
  facet normal 0 0 -1
    outer loop
      vertex 8.45096 -17.6375 -2.5
      vertex 10.049 -14.4054 -2.5
      vertex 11.049 -16.1375 -2.5
    endloop
  endfacet
  facet normal 0 0 -1
    outer loop
      vertex 10.049 -14.4054 -2.5
      vertex 8.45096 -17.6375 -2.5
      vertex 7.45096 -15.9054 -2.5
    endloop
  endfacet
  facet normal -0.500005 0.866022 0
    outer loop
      vertex 10.049 -14.4054 -2.5
      vertex 7.45096 -15.9054 2.5
      vertex 10.049 -14.4054 2.5
    endloop
  endfacet
  facet normal -0.500005 0.866022 0
    outer loop
      vertex 7.45096 -15.9054 2.5
      vertex 10.049 -14.4054 -2.5
      vertex 7.45096 -15.9054 -2.5
    endloop
  endfacet
  facet normal 0.866032 0.499989 0
    outer loop
      vertex 11.049 -16.1375 2.5
      vertex 10.049 -14.4054 -2.5
      vertex 10.049 -14.4054 2.5
    endloop
  endfacet
  facet normal 0.866032 0.499989 0
    outer loop
      vertex 10.049 -14.4054 -2.5
      vertex 11.049 -16.1375 2.5
      vertex 11.049 -16.1375 -2.5
    endloop
  endfacet
  facet normal -0.866032 -0.499989 0
    outer loop
      vertex 8.45096 -17.6375 -2.5
      vertex 7.45096 -15.9054 2.5
      vertex 7.45096 -15.9054 -2.5
    endloop
  endfacet
  facet normal -0.866032 -0.499989 0
    outer loop
      vertex 7.45096 -15.9054 2.5
      vertex 8.45096 -17.6375 -2.5
      vertex 8.45096 -17.6375 2.5
    endloop
  endfacet
  facet normal 0.866022 -0.500005 0
    outer loop
      vertex 16.1375 -11.049 2.5
      vertex 17.6375 -8.45096 -2.5
      vertex 17.6375 -8.45096 2.5
    endloop
  endfacet
  facet normal 0.866022 -0.500005 0
    outer loop
      vertex 17.6375 -8.45096 -2.5
      vertex 16.1375 -11.049 2.5
      vertex 16.1375 -11.049 -2.5
    endloop
  endfacet
  facet normal 0 0 1
    outer loop
      vertex 15.9054 -7.45096 2.5
      vertex 16.1375 -11.049 2.5
      vertex 17.6375 -8.45096 2.5
    endloop
  endfacet
  facet normal 0 0 1
    outer loop
      vertex 16.1375 -11.049 2.5
      vertex 15.9054 -7.45096 2.5
      vertex 14.4054 -10.049 2.5
    endloop
  endfacet
  facet normal 0 0 -1
    outer loop
      vertex 16.1375 -11.049 -2.5
      vertex 15.9054 -7.45096 -2.5
      vertex 17.6375 -8.45096 -2.5
    endloop
  endfacet
  facet normal 0 -0 -1
    outer loop
      vertex 15.9054 -7.45096 -2.5
      vertex 16.1375 -11.049 -2.5
      vertex 14.4054 -10.049 -2.5
    endloop
  endfacet
  facet normal -0.866022 0.500005 0
    outer loop
      vertex 14.4054 -10.049 -2.5
      vertex 15.9054 -7.45096 2.5
      vertex 15.9054 -7.45096 -2.5
    endloop
  endfacet
  facet normal -0.866022 0.500005 0
    outer loop
      vertex 15.9054 -7.45096 2.5
      vertex 14.4054 -10.049 -2.5
      vertex 14.4054 -10.049 2.5
    endloop
  endfacet
  facet normal 0.499989 0.866032 -0
    outer loop
      vertex 17.6375 -8.45096 -2.5
      vertex 15.9054 -7.45096 2.5
      vertex 17.6375 -8.45096 2.5
    endloop
  endfacet
  facet normal 0.499989 0.866032 0
    outer loop
      vertex 15.9054 -7.45096 2.5
      vertex 17.6375 -8.45096 -2.5
      vertex 15.9054 -7.45096 -2.5
    endloop
  endfacet
  facet normal -0.499989 -0.866032 0
    outer loop
      vertex 14.4054 -10.049 -2.5
      vertex 16.1375 -11.049 2.5
      vertex 14.4054 -10.049 2.5
    endloop
  endfacet
  facet normal -0.499989 -0.866032 -0
    outer loop
      vertex 16.1375 -11.049 2.5
      vertex 14.4054 -10.049 -2.5
      vertex 16.1375 -11.049 -2.5
    endloop
  endfacet
  facet normal 0.951059 0.309008 0
    outer loop
      vertex 16.6285 3.5345 2.5
      vertex 15.5303 6.91452 -2.5
      vertex 15.5303 6.91452 2.5
    endloop
  endfacet
  facet normal 0.951059 0.309008 0
    outer loop
      vertex 15.5303 6.91452 -2.5
      vertex 16.6285 3.5345 2.5
      vertex 16.6285 3.5345 -2.5
    endloop
  endfacet
  facet normal 0.994522 0.104531 0
    outer loop
      vertex 17 0 2.5
      vertex 16.6285 3.5345 -2.5
      vertex 16.6285 3.5345 2.5
    endloop
  endfacet
  facet normal 0.994522 0.104531 0
    outer loop
      vertex 16.6285 3.5345 -2.5
      vertex 17 0 2.5
      vertex 17 0 -2.5
    endloop
  endfacet
  facet normal 0.994522 -0.104531 0
    outer loop
      vertex 16.6285 -3.5345 2.5
      vertex 17 0 -2.5
      vertex 17 0 2.5
    endloop
  endfacet
  facet normal 0.994522 -0.104531 0
    outer loop
      vertex 17 0 -2.5
      vertex 16.6285 -3.5345 2.5
      vertex 16.6285 -3.5345 -2.5
    endloop
  endfacet
  facet normal 0.406753 0.913538 -0
    outer loop
      vertex 8.5 14.7224 -2.5
      vertex 5.25329 16.168 2.5
      vertex 8.5 14.7224 2.5
    endloop
  endfacet
  facet normal 0.406753 0.913538 0
    outer loop
      vertex 5.25329 16.168 2.5
      vertex 8.5 14.7224 -2.5
      vertex 5.25329 16.168 -2.5
    endloop
  endfacet
  facet normal 0.406753 -0.913538 0
    outer loop
      vertex 5.25329 -16.168 -2.5
      vertex 8.5 -14.7224 2.5
      vertex 5.25329 -16.168 2.5
    endloop
  endfacet
  facet normal 0.406753 -0.913538 0
    outer loop
      vertex 8.5 -14.7224 2.5
      vertex 5.25329 -16.168 -2.5
      vertex 8.5 -14.7224 -2.5
    endloop
  endfacet
  facet normal 0 -1 0
    outer loop
      vertex -1.77698 -16.9069 -2.5
      vertex 1.77698 -16.9069 2.5
      vertex -1.77698 -16.9069 2.5
    endloop
  endfacet
  facet normal 0 -1 -0
    outer loop
      vertex 1.77698 -16.9069 2.5
      vertex -1.77698 -16.9069 -2.5
      vertex 1.77698 -16.9069 -2.5
    endloop
  endfacet
  facet normal -0.587775 0.809024 0
    outer loop
      vertex -8.5 14.7224 -2.5
      vertex -11.3752 12.6335 2.5
      vertex -8.5 14.7224 2.5
    endloop
  endfacet
  facet normal -0.587775 0.809024 0
    outer loop
      vertex -11.3752 12.6335 2.5
      vertex -8.5 14.7224 -2.5
      vertex -11.3752 12.6335 -2.5
    endloop
  endfacet
  facet normal -0.207908 0.978148 0
    outer loop
      vertex -1.77698 16.9069 -2.5
      vertex -5.25329 16.168 2.5
      vertex -1.77698 16.9069 2.5
    endloop
  endfacet
  facet normal -0.207908 0.978148 0
    outer loop
      vertex -5.25329 16.168 2.5
      vertex -1.77698 16.9069 -2.5
      vertex -5.25329 16.168 -2.5
    endloop
  endfacet
  facet normal -0.743145 0.66913 0
    outer loop
      vertex -13.7533 9.99235 -2.5
      vertex -11.3752 12.6335 2.5
      vertex -11.3752 12.6335 -2.5
    endloop
  endfacet
  facet normal -0.743145 0.66913 0
    outer loop
      vertex -11.3752 12.6335 2.5
      vertex -13.7533 9.99235 -2.5
      vertex -13.7533 9.99235 2.5
    endloop
  endfacet
  facet normal -0.406753 -0.913538 0
    outer loop
      vertex -8.5 -14.7224 -2.5
      vertex -5.25329 -16.168 2.5
      vertex -8.5 -14.7224 2.5
    endloop
  endfacet
  facet normal -0.406753 -0.913538 -0
    outer loop
      vertex -5.25329 -16.168 2.5
      vertex -8.5 -14.7224 -2.5
      vertex -5.25329 -16.168 -2.5
    endloop
  endfacet
  facet normal 0 0 -1
    outer loop
      vertex 16.6285 -3.5345 -2.5
      vertex 16.6285 3.5345 -2.5
      vertex 17 0 -2.5
    endloop
  endfacet
  facet normal 0 0 -1
    outer loop
      vertex 15.5303 -6.91452 -2.5
      vertex 16.6285 3.5345 -2.5
      vertex 16.6285 -3.5345 -2.5
    endloop
  endfacet
  facet normal 0 0 -1
    outer loop
      vertex 15.5303 -6.91452 -2.5
      vertex 15.5303 6.91452 -2.5
      vertex 16.6285 3.5345 -2.5
    endloop
  endfacet
  facet normal 0 0 -1
    outer loop
      vertex 13.7533 -9.99235 -2.5
      vertex 15.5303 6.91452 -2.5
      vertex 15.5303 -6.91452 -2.5
    endloop
  endfacet
  facet normal 0 0 -1
    outer loop
      vertex 13.7533 -9.99235 -2.5
      vertex 13.7533 9.99235 -2.5
      vertex 15.5303 6.91452 -2.5
    endloop
  endfacet
  facet normal 0 0 -1
    outer loop
      vertex 11.3752 -12.6335 -2.5
      vertex 13.7533 9.99235 -2.5
      vertex 13.7533 -9.99235 -2.5
    endloop
  endfacet
  facet normal 0 0 -1
    outer loop
      vertex 11.3752 -12.6335 -2.5
      vertex 11.3752 12.6335 -2.5
      vertex 13.7533 9.99235 -2.5
    endloop
  endfacet
  facet normal 0 0 -1
    outer loop
      vertex 8.5 -14.7224 -2.5
      vertex 11.3752 12.6335 -2.5
      vertex 11.3752 -12.6335 -2.5
    endloop
  endfacet
  facet normal 0 0 -1
    outer loop
      vertex 8.5 -14.7224 -2.5
      vertex 8.5 14.7224 -2.5
      vertex 11.3752 12.6335 -2.5
    endloop
  endfacet
  facet normal 0 0 -1
    outer loop
      vertex 5.25329 -16.168 -2.5
      vertex 8.5 14.7224 -2.5
      vertex 8.5 -14.7224 -2.5
    endloop
  endfacet
  facet normal 0 0 -1
    outer loop
      vertex 5.25329 -16.168 -2.5
      vertex 5.25329 16.168 -2.5
      vertex 8.5 14.7224 -2.5
    endloop
  endfacet
  facet normal 0 0 -1
    outer loop
      vertex 1.77698 -16.9069 -2.5
      vertex 5.25329 16.168 -2.5
      vertex 5.25329 -16.168 -2.5
    endloop
  endfacet
  facet normal 0 0 -1
    outer loop
      vertex 1.77698 -16.9069 -2.5
      vertex 1.77698 16.9069 -2.5
      vertex 5.25329 16.168 -2.5
    endloop
  endfacet
  facet normal 0 0 -1
    outer loop
      vertex -1.77698 -16.9069 -2.5
      vertex 1.77698 16.9069 -2.5
      vertex 1.77698 -16.9069 -2.5
    endloop
  endfacet
  facet normal 0 0 -1
    outer loop
      vertex -1.77698 -16.9069 -2.5
      vertex -1.77698 16.9069 -2.5
      vertex 1.77698 16.9069 -2.5
    endloop
  endfacet
  facet normal 0 0 -1
    outer loop
      vertex -5.25329 -16.168 -2.5
      vertex -1.77698 16.9069 -2.5
      vertex -1.77698 -16.9069 -2.5
    endloop
  endfacet
  facet normal 0 0 -1
    outer loop
      vertex -5.25329 -16.168 -2.5
      vertex -5.25329 16.168 -2.5
      vertex -1.77698 16.9069 -2.5
    endloop
  endfacet
  facet normal 0 0 -1
    outer loop
      vertex -8.5 -14.7224 -2.5
      vertex -5.25329 16.168 -2.5
      vertex -5.25329 -16.168 -2.5
    endloop
  endfacet
  facet normal 0 0 -1
    outer loop
      vertex -8.5 -14.7224 -2.5
      vertex -8.5 14.7224 -2.5
      vertex -5.25329 16.168 -2.5
    endloop
  endfacet
  facet normal 0 0 -1
    outer loop
      vertex -11.3752 -12.6335 -2.5
      vertex -8.5 14.7224 -2.5
      vertex -8.5 -14.7224 -2.5
    endloop
  endfacet
  facet normal 0 0 -1
    outer loop
      vertex -11.3752 -12.6335 -2.5
      vertex -11.3752 12.6335 -2.5
      vertex -8.5 14.7224 -2.5
    endloop
  endfacet
  facet normal 0 0 -1
    outer loop
      vertex -13.7533 -9.99235 -2.5
      vertex -11.3752 12.6335 -2.5
      vertex -11.3752 -12.6335 -2.5
    endloop
  endfacet
  facet normal 0 0 -1
    outer loop
      vertex -13.7533 -9.99235 -2.5
      vertex -13.7533 9.99235 -2.5
      vertex -11.3752 12.6335 -2.5
    endloop
  endfacet
  facet normal 0 0 -1
    outer loop
      vertex -15.5303 -6.91452 -2.5
      vertex -13.7533 9.99235 -2.5
      vertex -13.7533 -9.99235 -2.5
    endloop
  endfacet
  facet normal 0 0 -1
    outer loop
      vertex -15.5303 -6.91452 -2.5
      vertex -15.5303 6.91452 -2.5
      vertex -13.7533 9.99235 -2.5
    endloop
  endfacet
  facet normal 0 0 -1
    outer loop
      vertex -16.6285 -3.5345 -2.5
      vertex -15.5303 6.91452 -2.5
      vertex -15.5303 -6.91452 -2.5
    endloop
  endfacet
  facet normal 0 0 -1
    outer loop
      vertex -16.6285 -3.5345 -2.5
      vertex -16.6285 3.5345 -2.5
      vertex -15.5303 6.91452 -2.5
    endloop
  endfacet
  facet normal 0 -0 -1
    outer loop
      vertex -16.6285 3.5345 -2.5
      vertex -16.6285 -3.5345 -2.5
      vertex -17 0 -2.5
    endloop
  endfacet
  facet normal -0.207908 -0.978148 0
    outer loop
      vertex -5.25329 -16.168 -2.5
      vertex -1.77698 -16.9069 2.5
      vertex -5.25329 -16.168 2.5
    endloop
  endfacet
  facet normal -0.207908 -0.978148 -0
    outer loop
      vertex -1.77698 -16.9069 2.5
      vertex -5.25329 -16.168 -2.5
      vertex -1.77698 -16.9069 -2.5
    endloop
  endfacet
  facet normal -0.951059 0.309008 0
    outer loop
      vertex -16.6285 3.5345 -2.5
      vertex -15.5303 6.91452 2.5
      vertex -15.5303 6.91452 -2.5
    endloop
  endfacet
  facet normal -0.951059 0.309008 0
    outer loop
      vertex -15.5303 6.91452 2.5
      vertex -16.6285 3.5345 -2.5
      vertex -16.6285 3.5345 2.5
    endloop
  endfacet
  facet normal 0.743145 -0.66913 0
    outer loop
      vertex 11.3752 -12.6335 2.5
      vertex 13.7533 -9.99235 -2.5
      vertex 13.7533 -9.99235 2.5
    endloop
  endfacet
  facet normal 0.743145 -0.66913 0
    outer loop
      vertex 13.7533 -9.99235 -2.5
      vertex 11.3752 -12.6335 2.5
      vertex 11.3752 -12.6335 -2.5
    endloop
  endfacet
  facet normal 0 0 1
    outer loop
      vertex 16.6285 3.5345 2.5
      vertex 16.6285 -3.5345 2.5
      vertex 17 0 2.5
    endloop
  endfacet
  facet normal 0 0 1
    outer loop
      vertex 15.5303 6.91452 2.5
      vertex 16.6285 -3.5345 2.5
      vertex 16.6285 3.5345 2.5
    endloop
  endfacet
  facet normal 0 0 1
    outer loop
      vertex 15.5303 6.91452 2.5
      vertex 15.5303 -6.91452 2.5
      vertex 16.6285 -3.5345 2.5
    endloop
  endfacet
  facet normal 0 0 1
    outer loop
      vertex 13.7533 9.99235 2.5
      vertex 15.5303 -6.91452 2.5
      vertex 15.5303 6.91452 2.5
    endloop
  endfacet
  facet normal 0 0 1
    outer loop
      vertex 13.7533 9.99235 2.5
      vertex 13.7533 -9.99235 2.5
      vertex 15.5303 -6.91452 2.5
    endloop
  endfacet
  facet normal 0 0 1
    outer loop
      vertex 11.3752 12.6335 2.5
      vertex 13.7533 -9.99235 2.5
      vertex 13.7533 9.99235 2.5
    endloop
  endfacet
  facet normal 0 0 1
    outer loop
      vertex 11.3752 12.6335 2.5
      vertex 11.3752 -12.6335 2.5
      vertex 13.7533 -9.99235 2.5
    endloop
  endfacet
  facet normal 0 0 1
    outer loop
      vertex 8.5 14.7224 2.5
      vertex 11.3752 -12.6335 2.5
      vertex 11.3752 12.6335 2.5
    endloop
  endfacet
  facet normal 0 0 1
    outer loop
      vertex 8.5 14.7224 2.5
      vertex 8.5 -14.7224 2.5
      vertex 11.3752 -12.6335 2.5
    endloop
  endfacet
  facet normal 0 0 1
    outer loop
      vertex 5.25329 16.168 2.5
      vertex 8.5 -14.7224 2.5
      vertex 8.5 14.7224 2.5
    endloop
  endfacet
  facet normal 0 0 1
    outer loop
      vertex 5.25329 16.168 2.5
      vertex 5.25329 -16.168 2.5
      vertex 8.5 -14.7224 2.5
    endloop
  endfacet
  facet normal 0 0 1
    outer loop
      vertex 1.77698 16.9069 2.5
      vertex 5.25329 -16.168 2.5
      vertex 5.25329 16.168 2.5
    endloop
  endfacet
  facet normal 0 0 1
    outer loop
      vertex 1.77698 16.9069 2.5
      vertex 1.77698 -16.9069 2.5
      vertex 5.25329 -16.168 2.5
    endloop
  endfacet
  facet normal -0 0 1
    outer loop
      vertex -1.77698 16.9069 2.5
      vertex 1.77698 -16.9069 2.5
      vertex 1.77698 16.9069 2.5
    endloop
  endfacet
  facet normal 0 0 1
    outer loop
      vertex -1.77698 16.9069 2.5
      vertex -1.77698 -16.9069 2.5
      vertex 1.77698 -16.9069 2.5
    endloop
  endfacet
  facet normal -0 0 1
    outer loop
      vertex -5.25329 16.168 2.5
      vertex -1.77698 -16.9069 2.5
      vertex -1.77698 16.9069 2.5
    endloop
  endfacet
  facet normal 0 0 1
    outer loop
      vertex -5.25329 16.168 2.5
      vertex -5.25329 -16.168 2.5
      vertex -1.77698 -16.9069 2.5
    endloop
  endfacet
  facet normal -0 0 1
    outer loop
      vertex -8.5 14.7224 2.5
      vertex -5.25329 -16.168 2.5
      vertex -5.25329 16.168 2.5
    endloop
  endfacet
  facet normal 0 0 1
    outer loop
      vertex -8.5 14.7224 2.5
      vertex -8.5 -14.7224 2.5
      vertex -5.25329 -16.168 2.5
    endloop
  endfacet
  facet normal -0 0 1
    outer loop
      vertex -11.3752 12.6335 2.5
      vertex -8.5 -14.7224 2.5
      vertex -8.5 14.7224 2.5
    endloop
  endfacet
  facet normal 0 0 1
    outer loop
      vertex -11.3752 12.6335 2.5
      vertex -11.3752 -12.6335 2.5
      vertex -8.5 -14.7224 2.5
    endloop
  endfacet
  facet normal -0 0 1
    outer loop
      vertex -13.7533 9.99235 2.5
      vertex -11.3752 -12.6335 2.5
      vertex -11.3752 12.6335 2.5
    endloop
  endfacet
  facet normal 0 0 1
    outer loop
      vertex -13.7533 9.99235 2.5
      vertex -13.7533 -9.99235 2.5
      vertex -11.3752 -12.6335 2.5
    endloop
  endfacet
  facet normal -0 0 1
    outer loop
      vertex -15.5303 6.91452 2.5
      vertex -13.7533 -9.99235 2.5
      vertex -13.7533 9.99235 2.5
    endloop
  endfacet
  facet normal 0 0 1
    outer loop
      vertex -15.5303 6.91452 2.5
      vertex -15.5303 -6.91452 2.5
      vertex -13.7533 -9.99235 2.5
    endloop
  endfacet
  facet normal -0 0 1
    outer loop
      vertex -16.6285 3.5345 2.5
      vertex -15.5303 -6.91452 2.5
      vertex -15.5303 6.91452 2.5
    endloop
  endfacet
  facet normal 0 0 1
    outer loop
      vertex -16.6285 3.5345 2.5
      vertex -16.6285 -3.5345 2.5
      vertex -15.5303 -6.91452 2.5
    endloop
  endfacet
  facet normal 0 -0 1
    outer loop
      vertex -16.6285 -3.5345 2.5
      vertex -16.6285 3.5345 2.5
      vertex -17 0 2.5
    endloop
  endfacet
  facet normal 0.866024 -0.500003 0
    outer loop
      vertex 13.7533 -9.99235 2.5
      vertex 15.5303 -6.91452 -2.5
      vertex 15.5303 -6.91452 2.5
    endloop
  endfacet
  facet normal 0.866024 -0.500003 0
    outer loop
      vertex 15.5303 -6.91452 -2.5
      vertex 13.7533 -9.99235 2.5
      vertex 13.7533 -9.99235 -2.5
    endloop
  endfacet
  facet normal 0.587775 -0.809024 0
    outer loop
      vertex 8.5 -14.7224 -2.5
      vertex 11.3752 -12.6335 2.5
      vertex 8.5 -14.7224 2.5
    endloop
  endfacet
  facet normal 0.587775 -0.809024 0
    outer loop
      vertex 11.3752 -12.6335 2.5
      vertex 8.5 -14.7224 -2.5
      vertex 11.3752 -12.6335 -2.5
    endloop
  endfacet
  facet normal 0 1 -0
    outer loop
      vertex 1.77698 16.9069 -2.5
      vertex -1.77698 16.9069 2.5
      vertex 1.77698 16.9069 2.5
    endloop
  endfacet
  facet normal 0 1 0
    outer loop
      vertex -1.77698 16.9069 2.5
      vertex 1.77698 16.9069 -2.5
      vertex -1.77698 16.9069 -2.5
    endloop
  endfacet
  facet normal 0.951059 -0.309008 0
    outer loop
      vertex 15.5303 -6.91452 2.5
      vertex 16.6285 -3.5345 -2.5
      vertex 16.6285 -3.5345 2.5
    endloop
  endfacet
  facet normal 0.951059 -0.309008 0
    outer loop
      vertex 16.6285 -3.5345 -2.5
      vertex 15.5303 -6.91452 2.5
      vertex 15.5303 -6.91452 -2.5
    endloop
  endfacet
  facet normal 0.587775 0.809024 -0
    outer loop
      vertex 11.3752 12.6335 -2.5
      vertex 8.5 14.7224 2.5
      vertex 11.3752 12.6335 2.5
    endloop
  endfacet
  facet normal 0.587775 0.809024 0
    outer loop
      vertex 8.5 14.7224 2.5
      vertex 11.3752 12.6335 -2.5
      vertex 8.5 14.7224 -2.5
    endloop
  endfacet
  facet normal -0.406753 0.913538 0
    outer loop
      vertex -5.25329 16.168 -2.5
      vertex -8.5 14.7224 2.5
      vertex -5.25329 16.168 2.5
    endloop
  endfacet
  facet normal -0.406753 0.913538 0
    outer loop
      vertex -8.5 14.7224 2.5
      vertex -5.25329 16.168 -2.5
      vertex -8.5 14.7224 -2.5
    endloop
  endfacet
  facet normal 0.743145 0.66913 0
    outer loop
      vertex 13.7533 9.99235 2.5
      vertex 11.3752 12.6335 -2.5
      vertex 11.3752 12.6335 2.5
    endloop
  endfacet
  facet normal 0.743145 0.66913 0
    outer loop
      vertex 11.3752 12.6335 -2.5
      vertex 13.7533 9.99235 2.5
      vertex 13.7533 9.99235 -2.5
    endloop
  endfacet
  facet normal 0.866024 0.500003 0
    outer loop
      vertex 15.5303 6.91452 2.5
      vertex 13.7533 9.99235 -2.5
      vertex 13.7533 9.99235 2.5
    endloop
  endfacet
  facet normal 0.866024 0.500003 0
    outer loop
      vertex 13.7533 9.99235 -2.5
      vertex 15.5303 6.91452 2.5
      vertex 15.5303 6.91452 -2.5
    endloop
  endfacet
  facet normal -0.951059 -0.309008 0
    outer loop
      vertex -15.5303 -6.91452 -2.5
      vertex -16.6285 -3.5345 2.5
      vertex -16.6285 -3.5345 -2.5
    endloop
  endfacet
  facet normal -0.951059 -0.309008 0
    outer loop
      vertex -16.6285 -3.5345 2.5
      vertex -15.5303 -6.91452 -2.5
      vertex -15.5303 -6.91452 2.5
    endloop
  endfacet
  facet normal 0.207908 -0.978148 0
    outer loop
      vertex 1.77698 -16.9069 -2.5
      vertex 5.25329 -16.168 2.5
      vertex 1.77698 -16.9069 2.5
    endloop
  endfacet
  facet normal 0.207908 -0.978148 0
    outer loop
      vertex 5.25329 -16.168 2.5
      vertex 1.77698 -16.9069 -2.5
      vertex 5.25329 -16.168 -2.5
    endloop
  endfacet
  facet normal -0.866024 -0.500003 0
    outer loop
      vertex -13.7533 -9.99235 -2.5
      vertex -15.5303 -6.91452 2.5
      vertex -15.5303 -6.91452 -2.5
    endloop
  endfacet
  facet normal -0.866024 -0.500003 0
    outer loop
      vertex -15.5303 -6.91452 2.5
      vertex -13.7533 -9.99235 -2.5
      vertex -13.7533 -9.99235 2.5
    endloop
  endfacet
  facet normal -0.994522 -0.104531 0
    outer loop
      vertex -16.6285 -3.5345 -2.5
      vertex -17 0 2.5
      vertex -17 0 -2.5
    endloop
  endfacet
  facet normal -0.994522 -0.104531 0
    outer loop
      vertex -17 0 2.5
      vertex -16.6285 -3.5345 -2.5
      vertex -16.6285 -3.5345 2.5
    endloop
  endfacet
  facet normal -0.743145 -0.66913 0
    outer loop
      vertex -11.3752 -12.6335 -2.5
      vertex -13.7533 -9.99235 2.5
      vertex -13.7533 -9.99235 -2.5
    endloop
  endfacet
  facet normal -0.743145 -0.66913 0
    outer loop
      vertex -13.7533 -9.99235 2.5
      vertex -11.3752 -12.6335 -2.5
      vertex -11.3752 -12.6335 2.5
    endloop
  endfacet
  facet normal -0.994522 0.104531 0
    outer loop
      vertex -17 0 -2.5
      vertex -16.6285 3.5345 2.5
      vertex -16.6285 3.5345 -2.5
    endloop
  endfacet
  facet normal -0.994522 0.104531 0
    outer loop
      vertex -16.6285 3.5345 2.5
      vertex -17 0 -2.5
      vertex -17 0 2.5
    endloop
  endfacet
  facet normal 0.207908 0.978148 -0
    outer loop
      vertex 5.25329 16.168 -2.5
      vertex 1.77698 16.9069 2.5
      vertex 5.25329 16.168 2.5
    endloop
  endfacet
  facet normal 0.207908 0.978148 0
    outer loop
      vertex 1.77698 16.9069 2.5
      vertex 5.25329 16.168 -2.5
      vertex 1.77698 16.9069 -2.5
    endloop
  endfacet
  facet normal -0.587775 -0.809024 0
    outer loop
      vertex -11.3752 -12.6335 -2.5
      vertex -8.5 -14.7224 2.5
      vertex -11.3752 -12.6335 2.5
    endloop
  endfacet
  facet normal -0.587775 -0.809024 -0
    outer loop
      vertex -8.5 -14.7224 2.5
      vertex -11.3752 -12.6335 -2.5
      vertex -8.5 -14.7224 -2.5
    endloop
  endfacet
  facet normal -0.866024 0.500003 0
    outer loop
      vertex -15.5303 6.91452 -2.5
      vertex -13.7533 9.99235 2.5
      vertex -13.7533 9.99235 -2.5
    endloop
  endfacet
  facet normal -0.866024 0.500003 0
    outer loop
      vertex -13.7533 9.99235 2.5
      vertex -15.5303 6.91452 -2.5
      vertex -15.5303 6.91452 2.5
    endloop
  endfacet
endsolid OpenSCAD_Model
