solid OpenSCAD_Model
  facet normal 1 -0 0
    outer loop
      vertex 900 521 590
      vertex 900 551 -590
      vertex 900 551 590
    endloop
  endfacet
  facet normal 1 0 0
    outer loop
      vertex 900 551 -590
      vertex 900 521 590
      vertex 900 521 -590
    endloop
  endfacet
  facet normal 1 0 0
    outer loop
      vertex 900 140 2030
      vertex 900 623.333 2030
      vertex 900 623.333 2150
    endloop
  endfacet
  facet normal 1 0 0
    outer loop
      vertex 900 140 2030
      vertex 900 167.658 1200
      vertex 900 167.658 1400
    endloop
  endfacet
  facet normal 1 0 0
    outer loop
      vertex 900 167.658 1200
      vertex 900 140 2030
      vertex 900 167.658 -1200
    endloop
  endfacet
  facet normal 1 0 0
    outer loop
      vertex 900 623.333 2030
      vertex 900 140 2030
      vertex 900 167.658 1400
    endloop
  endfacet
  facet normal 1 0 0
    outer loop
      vertex 900 140 2030
      vertex 900 623.333 2150
      vertex 900 140 2150
    endloop
  endfacet
  facet normal 1 0 0
    outer loop
      vertex 900 1000 -605
      vertex 900 551 590
      vertex 900 880 -605
    endloop
  endfacet
  facet normal 1 0 0
    outer loop
      vertex 900 712.342 1200
      vertex 900 521 710
      vertex 900 551 710
    endloop
  endfacet
  facet normal 1 0 0
    outer loop
      vertex 900 167.658 1200
      vertex 900 521 590
      vertex 900 521 710
    endloop
  endfacet
  facet normal 1 0 0
    outer loop
      vertex 900 521 590
      vertex 900 167.658 1200
      vertex 900 521 -590
    endloop
  endfacet
  facet normal 1 0 0
    outer loop
      vertex 900 167.658 -1200
      vertex 900 521 -590
      vertex 900 167.658 1200
    endloop
  endfacet
  facet normal 1 -0 0
    outer loop
      vertex 900 167.658 1200
      vertex 900 521 710
      vertex 900 712.342 1200
    endloop
  endfacet
  facet normal 1 0 0
    outer loop
      vertex 900 1450 2030
      vertex 900 1000 -605
      vertex 900 1450 -2030
    endloop
  endfacet
  facet normal 1 -0 0
    outer loop
      vertex 900 712.342 1200
      vertex 900 1000 -605
      vertex 900 1450 2030
    endloop
  endfacet
  facet normal 1 0 0
    outer loop
      vertex 900 551 590
      vertex 900 712.342 1200
      vertex 900 551 710
    endloop
  endfacet
  facet normal 1 0 0
    outer loop
      vertex 900 712.342 1200
      vertex 900 1450 2030
      vertex 900 712.342 1400
    endloop
  endfacet
  facet normal 1 -0 0
    outer loop
      vertex 900 623.333 2030
      vertex 900 712.342 1400
      vertex 900 1450 2030
    endloop
  endfacet
  facet normal 1 0 0
    outer loop
      vertex 900 712.342 1400
      vertex 900 623.333 2030
      vertex 900 167.658 1400
    endloop
  endfacet
  facet normal 1 -0 0
    outer loop
      vertex 900 1000 -695
      vertex 900 1450 -2030
      vertex 900 1000 -605
    endloop
  endfacet
  facet normal 1 0 0
    outer loop
      vertex 900 712.342 -1200
      vertex 900 1000 -695
      vertex 900 880 -695
    endloop
  endfacet
  facet normal 1 0 0
    outer loop
      vertex 900 712.342 1200
      vertex 900 551 590
      vertex 900 1000 -605
    endloop
  endfacet
  facet normal 1 0 0
    outer loop
      vertex 900 880 -605
      vertex 900 712.342 -1200
      vertex 900 880 -695
    endloop
  endfacet
  facet normal 1 0 0
    outer loop
      vertex 900 1000 -695
      vertex 900 712.342 -1200
      vertex 900 1450 -2030
    endloop
  endfacet
  facet normal 1 -0 0
    outer loop
      vertex 900 712.342 -1400
      vertex 900 1450 -2030
      vertex 900 712.342 -1200
    endloop
  endfacet
  facet normal 1 0 0
    outer loop
      vertex 900 712.342 -1400
      vertex 900 623.333 -2030
      vertex 900 1450 -2030
    endloop
  endfacet
  facet normal 1 -0 0
    outer loop
      vertex 900 167.658 -1400
      vertex 900 623.333 -2030
      vertex 900 712.342 -1400
    endloop
  endfacet
  facet normal 1 0 0
    outer loop
      vertex 900 140 -2030
      vertex 900 623.333 -2030
      vertex 900 167.658 -1400
    endloop
  endfacet
  facet normal 1 0 0
    outer loop
      vertex 900 140 -2030
      vertex 900 167.658 -1200
      vertex 900 140 2030
    endloop
  endfacet
  facet normal 1 0 0
    outer loop
      vertex 900 167.658 -1200
      vertex 900 140 -2030
      vertex 900 167.658 -1400
    endloop
  endfacet
  facet normal 1 0 0
    outer loop
      vertex 900 623.333 -2030
      vertex 900 140 -2030
      vertex 900 623.333 -2150
    endloop
  endfacet
  facet normal 1 0 0
    outer loop
      vertex 900 623.333 -2150
      vertex 900 140 -2030
      vertex 900 140 -2150
    endloop
  endfacet
  facet normal 1 -0 0
    outer loop
      vertex 900 551 -590
      vertex 900 880 -605
      vertex 900 551 590
    endloop
  endfacet
  facet normal 1 0 0
    outer loop
      vertex 900 551 -710
      vertex 900 880 -605
      vertex 900 551 -590
    endloop
  endfacet
  facet normal 1 0 0
    outer loop
      vertex 900 880 -605
      vertex 900 551 -710
      vertex 900 712.342 -1200
    endloop
  endfacet
  facet normal 1 -0 0
    outer loop
      vertex 900 521 -710
      vertex 900 712.342 -1200
      vertex 900 551 -710
    endloop
  endfacet
  facet normal 1 0 0
    outer loop
      vertex 900 521 -710
      vertex 900 167.658 -1200
      vertex 900 712.342 -1200
    endloop
  endfacet
  facet normal 1 0 0
    outer loop
      vertex 900 521 -590
      vertex 900 167.658 -1200
      vertex 900 521 -710
    endloop
  endfacet
  facet normal -0 0 1
    outer loop
      vertex -900 1450 2030
      vertex 900 623.333 2030
      vertex 900 1450 2030
    endloop
  endfacet
  facet normal 0 0 1
    outer loop
      vertex 900 623.333 2030
      vertex -900 1450 2030
      vertex -900 623.333 2030
    endloop
  endfacet
  facet normal 0 0 -1
    outer loop
      vertex -900 623.333 -2030
      vertex 900 1450 -2030
      vertex 900 623.333 -2030
    endloop
  endfacet
  facet normal -0 0 -1
    outer loop
      vertex 900 1450 -2030
      vertex -900 623.333 -2030
      vertex -900 1450 -2030
    endloop
  endfacet
  facet normal -1 0 0
    outer loop
      vertex -900 521 -590
      vertex -900 551 590
      vertex -900 551 -590
    endloop
  endfacet
  facet normal -1 -0 0
    outer loop
      vertex -900 551 590
      vertex -900 521 -590
      vertex -900 521 590
    endloop
  endfacet
  facet normal -1 0 0
    outer loop
      vertex -900 140 -2030
      vertex -900 623.333 -2030
      vertex -900 623.333 -2150
    endloop
  endfacet
  facet normal -1 0 0
    outer loop
      vertex -900 140 -2030
      vertex -900 167.658 -1200
      vertex -900 167.658 -1400
    endloop
  endfacet
  facet normal -1 -0 0
    outer loop
      vertex -900 167.658 -1200
      vertex -900 140 -2030
      vertex -900 167.658 1200
    endloop
  endfacet
  facet normal -1 0 0
    outer loop
      vertex -900 623.333 -2030
      vertex -900 140 -2030
      vertex -900 167.658 -1400
    endloop
  endfacet
  facet normal -1 0 0
    outer loop
      vertex -900 140 -2030
      vertex -900 623.333 -2150
      vertex -900 140 -2150
    endloop
  endfacet
  facet normal -1 0 0
    outer loop
      vertex -900 551 -590
      vertex -900 880 -605
      vertex -900 551 -710
    endloop
  endfacet
  facet normal -1 0 0
    outer loop
      vertex -900 712.342 -1200
      vertex -900 521 -710
      vertex -900 551 -710
    endloop
  endfacet
  facet normal -1 0 0
    outer loop
      vertex -900 167.658 -1200
      vertex -900 521 -590
      vertex -900 521 -710
    endloop
  endfacet
  facet normal -1 -0 0
    outer loop
      vertex -900 521 -590
      vertex -900 167.658 -1200
      vertex -900 521 590
    endloop
  endfacet
  facet normal -1 0 0
    outer loop
      vertex -900 167.658 1200
      vertex -900 521 590
      vertex -900 167.658 -1200
    endloop
  endfacet
  facet normal -1 0 0
    outer loop
      vertex -900 167.658 -1200
      vertex -900 521 -710
      vertex -900 712.342 -1200
    endloop
  endfacet
  facet normal -1 0 0
    outer loop
      vertex -900 1000 -605
      vertex -900 1450 -2030
      vertex -900 1000 -695
    endloop
  endfacet
  facet normal -1 0 0
    outer loop
      vertex -900 712.342 -1200
      vertex -900 1000 -695
      vertex -900 1450 -2030
    endloop
  endfacet
  facet normal -1 -0 0
    outer loop
      vertex -900 1000 -695
      vertex -900 712.342 -1200
      vertex -900 880 -695
    endloop
  endfacet
  facet normal -1 0 0
    outer loop
      vertex -900 712.342 -1200
      vertex -900 1450 -2030
      vertex -900 712.342 -1400
    endloop
  endfacet
  facet normal -1 0 0
    outer loop
      vertex -900 623.333 -2030
      vertex -900 712.342 -1400
      vertex -900 1450 -2030
    endloop
  endfacet
  facet normal -1 -0 0
    outer loop
      vertex -900 712.342 -1400
      vertex -900 623.333 -2030
      vertex -900 167.658 -1400
    endloop
  endfacet
  facet normal -1 0 0
    outer loop
      vertex -900 1450 -2030
      vertex -900 1000 -605
      vertex -900 1450 2030
    endloop
  endfacet
  facet normal -1 0 0
    outer loop
      vertex -900 712.342 1200
      vertex -900 1000 -605
      vertex -900 880 -605
    endloop
  endfacet
  facet normal -1 0 0
    outer loop
      vertex -900 551 -710
      vertex -900 880 -695
      vertex -900 712.342 -1200
    endloop
  endfacet
  facet normal -1 -0 0
    outer loop
      vertex -900 880 -695
      vertex -900 551 -710
      vertex -900 880 -605
    endloop
  endfacet
  facet normal -1 0 0
    outer loop
      vertex -900 1000 -605
      vertex -900 712.342 1200
      vertex -900 1450 2030
    endloop
  endfacet
  facet normal -1 0 0
    outer loop
      vertex -900 712.342 1400
      vertex -900 1450 2030
      vertex -900 712.342 1200
    endloop
  endfacet
  facet normal -1 0 0
    outer loop
      vertex -900 712.342 1400
      vertex -900 623.333 2030
      vertex -900 1450 2030
    endloop
  endfacet
  facet normal -1 0 0
    outer loop
      vertex -900 167.658 1400
      vertex -900 623.333 2030
      vertex -900 712.342 1400
    endloop
  endfacet
  facet normal -1 0 0
    outer loop
      vertex -900 140 2030
      vertex -900 623.333 2030
      vertex -900 167.658 1400
    endloop
  endfacet
  facet normal -1 0 0
    outer loop
      vertex -900 140 2030
      vertex -900 167.658 1200
      vertex -900 140 -2030
    endloop
  endfacet
  facet normal -1 0 0
    outer loop
      vertex -900 167.658 1200
      vertex -900 140 2030
      vertex -900 167.658 1400
    endloop
  endfacet
  facet normal -1 0 0
    outer loop
      vertex -900 623.333 2030
      vertex -900 140 2030
      vertex -900 623.333 2150
    endloop
  endfacet
  facet normal -1 -0 0
    outer loop
      vertex -900 623.333 2150
      vertex -900 140 2030
      vertex -900 140 2150
    endloop
  endfacet
  facet normal -1 0 0
    outer loop
      vertex -900 551 590
      vertex -900 880 -605
      vertex -900 551 -590
    endloop
  endfacet
  facet normal -1 0 0
    outer loop
      vertex -900 880 -605
      vertex -900 551 590
      vertex -900 712.342 1200
    endloop
  endfacet
  facet normal -1 0 0
    outer loop
      vertex -900 551 710
      vertex -900 712.342 1200
      vertex -900 551 590
    endloop
  endfacet
  facet normal -1 0 0
    outer loop
      vertex -900 521 710
      vertex -900 712.342 1200
      vertex -900 551 710
    endloop
  endfacet
  facet normal -1 0 0
    outer loop
      vertex -900 521 710
      vertex -900 167.658 1200
      vertex -900 712.342 1200
    endloop
  endfacet
  facet normal -1 0 0
    outer loop
      vertex -900 521 590
      vertex -900 167.658 1200
      vertex -900 521 710
    endloop
  endfacet
  facet normal 0 1 -0
    outer loop
      vertex 900 1450 -2030
      vertex -900 1450 2030
      vertex 900 1450 2030
    endloop
  endfacet
  facet normal 0 1 0
    outer loop
      vertex -900 1450 2030
      vertex 900 1450 -2030
      vertex -900 1450 -2030
    endloop
  endfacet
  facet normal 0 -1 0
    outer loop
      vertex -900 140 -2030
      vertex 900 140 2030
      vertex -900 140 2030
    endloop
  endfacet
  facet normal 0 -1 -0
    outer loop
      vertex 900 140 2030
      vertex -900 140 -2030
      vertex 900 140 -2030
    endloop
  endfacet
  facet normal 0 0 -1
    outer loop
      vertex -900 140 -2150
      vertex 900 623.333 -2150
      vertex 900 140 -2150
    endloop
  endfacet
  facet normal -0 0 -1
    outer loop
      vertex 900 623.333 -2150
      vertex -900 140 -2150
      vertex -900 623.333 -2150
    endloop
  endfacet
  facet normal 0 1 -0
    outer loop
      vertex 900 623.333 -2150
      vertex -900 623.333 -2030
      vertex 900 623.333 -2030
    endloop
  endfacet
  facet normal 0 1 0
    outer loop
      vertex -900 623.333 -2030
      vertex 900 623.333 -2150
      vertex -900 623.333 -2150
    endloop
  endfacet
  facet normal 0 -1 0
    outer loop
      vertex -900 140 -2150
      vertex 900 140 -2030
      vertex -900 140 -2030
    endloop
  endfacet
  facet normal 0 -1 -0
    outer loop
      vertex 900 140 -2030
      vertex -900 140 -2150
      vertex 900 140 -2150
    endloop
  endfacet
  facet normal -0 0 1
    outer loop
      vertex -900 623.333 2150
      vertex 900 140 2150
      vertex 900 623.333 2150
    endloop
  endfacet
  facet normal 0 0 1
    outer loop
      vertex 900 140 2150
      vertex -900 623.333 2150
      vertex -900 140 2150
    endloop
  endfacet
  facet normal 0 1 -0
    outer loop
      vertex 900 623.333 2030
      vertex -900 623.333 2150
      vertex 900 623.333 2150
    endloop
  endfacet
  facet normal 0 1 0
    outer loop
      vertex -900 623.333 2150
      vertex 900 623.333 2030
      vertex -900 623.333 2030
    endloop
  endfacet
  facet normal 0 -1 0
    outer loop
      vertex -900 140 2030
      vertex 900 140 2150
      vertex -900 140 2150
    endloop
  endfacet
  facet normal 0 -1 -0
    outer loop
      vertex 900 140 2150
      vertex -900 140 2030
      vertex 900 140 2030
    endloop
  endfacet
  facet normal -0 0 1
    outer loop
      vertex -1080 1000 -605
      vertex -900 880 -605
      vertex -900 1000 -605
    endloop
  endfacet
  facet normal 0 0 1
    outer loop
      vertex -900 880 -605
      vertex -1080 1000 -605
      vertex -1080 880 -605
    endloop
  endfacet
  facet normal 0 0 -1
    outer loop
      vertex -1080 880 -695
      vertex -900 1000 -695
      vertex -900 880 -695
    endloop
  endfacet
  facet normal -0 0 -1
    outer loop
      vertex -900 1000 -695
      vertex -1080 880 -695
      vertex -1080 1000 -695
    endloop
  endfacet
  facet normal -1 0 0
    outer loop
      vertex -1080 880 -695
      vertex -1080 1000 -605
      vertex -1080 1000 -695
    endloop
  endfacet
  facet normal -1 -0 0
    outer loop
      vertex -1080 1000 -605
      vertex -1080 880 -695
      vertex -1080 880 -605
    endloop
  endfacet
  facet normal 0 1 -0
    outer loop
      vertex -900 1000 -695
      vertex -1080 1000 -605
      vertex -900 1000 -605
    endloop
  endfacet
  facet normal 0 1 0
    outer loop
      vertex -1080 1000 -605
      vertex -900 1000 -695
      vertex -1080 1000 -695
    endloop
  endfacet
  facet normal 0 -1 0
    outer loop
      vertex -1080 880 -695
      vertex -900 880 -605
      vertex -1080 880 -605
    endloop
  endfacet
  facet normal 0 -1 -0
    outer loop
      vertex -900 880 -605
      vertex -1080 880 -695
      vertex -900 880 -695
    endloop
  endfacet
  facet normal 1 -0 0
    outer loop
      vertex 1080 880 -605
      vertex 1080 1000 -695
      vertex 1080 1000 -605
    endloop
  endfacet
  facet normal 1 0 0
    outer loop
      vertex 1080 1000 -695
      vertex 1080 880 -605
      vertex 1080 880 -695
    endloop
  endfacet
  facet normal -0 0 1
    outer loop
      vertex 900 1000 -605
      vertex 1080 880 -605
      vertex 1080 1000 -605
    endloop
  endfacet
  facet normal 0 0 1
    outer loop
      vertex 1080 880 -605
      vertex 900 1000 -605
      vertex 900 880 -605
    endloop
  endfacet
  facet normal 0 0 -1
    outer loop
      vertex 900 880 -695
      vertex 1080 1000 -695
      vertex 1080 880 -695
    endloop
  endfacet
  facet normal -0 0 -1
    outer loop
      vertex 1080 1000 -695
      vertex 900 880 -695
      vertex 900 1000 -695
    endloop
  endfacet
  facet normal 0 1 -0
    outer loop
      vertex 1080 1000 -695
      vertex 900 1000 -605
      vertex 1080 1000 -605
    endloop
  endfacet
  facet normal 0 1 0
    outer loop
      vertex 900 1000 -605
      vertex 1080 1000 -695
      vertex 900 1000 -695
    endloop
  endfacet
  facet normal 0 -1 0
    outer loop
      vertex 900 880 -695
      vertex 1080 880 -605
      vertex 900 880 -605
    endloop
  endfacet
  facet normal 0 -1 -0
    outer loop
      vertex 1080 880 -605
      vertex 900 880 -695
      vertex 1080 880 -695
    endloop
  endfacet
  facet normal -0 0 1
    outer loop
      vertex -920 551 -590
      vertex -900 521 -590
      vertex -900 551 -590
    endloop
  endfacet
  facet normal 0 0 1
    outer loop
      vertex -900 521 -590
      vertex -920 551 -590
      vertex -920 521 -590
    endloop
  endfacet
  facet normal 0 0 -1
    outer loop
      vertex -920 521 -710
      vertex -900 551 -710
      vertex -900 521 -710
    endloop
  endfacet
  facet normal -0 0 -1
    outer loop
      vertex -900 551 -710
      vertex -920 521 -710
      vertex -920 551 -710
    endloop
  endfacet
  facet normal -1 0 0
    outer loop
      vertex -920 521 -710
      vertex -920 551 -590
      vertex -920 551 -710
    endloop
  endfacet
  facet normal -1 -0 0
    outer loop
      vertex -920 551 -590
      vertex -920 521 -710
      vertex -920 521 -590
    endloop
  endfacet
  facet normal 0 1 -0
    outer loop
      vertex -900 551 -710
      vertex -920 551 -590
      vertex -900 551 -590
    endloop
  endfacet
  facet normal 0 1 0
    outer loop
      vertex -920 551 -590
      vertex -900 551 -710
      vertex -920 551 -710
    endloop
  endfacet
  facet normal 0 -1 0
    outer loop
      vertex -920 521 -710
      vertex -900 521 -590
      vertex -920 521 -590
    endloop
  endfacet
  facet normal 0 -1 -0
    outer loop
      vertex -900 521 -590
      vertex -920 521 -710
      vertex -900 521 -710
    endloop
  endfacet
  facet normal 1 -0 0
    outer loop
      vertex 920 521 -590
      vertex 920 551 -710
      vertex 920 551 -590
    endloop
  endfacet
  facet normal 1 0 0
    outer loop
      vertex 920 551 -710
      vertex 920 521 -590
      vertex 920 521 -710
    endloop
  endfacet
  facet normal -0 0 1
    outer loop
      vertex 900 551 -590
      vertex 920 521 -590
      vertex 920 551 -590
    endloop
  endfacet
  facet normal 0 0 1
    outer loop
      vertex 920 521 -590
      vertex 900 551 -590
      vertex 900 521 -590
    endloop
  endfacet
  facet normal 0 0 -1
    outer loop
      vertex 900 521 -710
      vertex 920 551 -710
      vertex 920 521 -710
    endloop
  endfacet
  facet normal -0 0 -1
    outer loop
      vertex 920 551 -710
      vertex 900 521 -710
      vertex 900 551 -710
    endloop
  endfacet
  facet normal 0 1 -0
    outer loop
      vertex 920 551 -710
      vertex 900 551 -590
      vertex 920 551 -590
    endloop
  endfacet
  facet normal 0 1 0
    outer loop
      vertex 900 551 -590
      vertex 920 551 -710
      vertex 900 551 -710
    endloop
  endfacet
  facet normal 0 -1 0
    outer loop
      vertex 900 521 -710
      vertex 920 521 -590
      vertex 900 521 -590
    endloop
  endfacet
  facet normal 0 -1 -0
    outer loop
      vertex 920 521 -590
      vertex 900 521 -710
      vertex 920 521 -710
    endloop
  endfacet
  facet normal -0 0 1
    outer loop
      vertex -920 551 710
      vertex -900 521 710
      vertex -900 551 710
    endloop
  endfacet
  facet normal 0 0 1
    outer loop
      vertex -900 521 710
      vertex -920 551 710
      vertex -920 521 710
    endloop
  endfacet
  facet normal 0 0 -1
    outer loop
      vertex -920 521 590
      vertex -900 551 590
      vertex -900 521 590
    endloop
  endfacet
  facet normal -0 0 -1
    outer loop
      vertex -900 551 590
      vertex -920 521 590
      vertex -920 551 590
    endloop
  endfacet
  facet normal -1 0 0
    outer loop
      vertex -920 521 590
      vertex -920 551 710
      vertex -920 551 590
    endloop
  endfacet
  facet normal -1 -0 0
    outer loop
      vertex -920 551 710
      vertex -920 521 590
      vertex -920 521 710
    endloop
  endfacet
  facet normal 0 1 -0
    outer loop
      vertex -900 551 590
      vertex -920 551 710
      vertex -900 551 710
    endloop
  endfacet
  facet normal 0 1 0
    outer loop
      vertex -920 551 710
      vertex -900 551 590
      vertex -920 551 590
    endloop
  endfacet
  facet normal 0 -1 0
    outer loop
      vertex -920 521 590
      vertex -900 521 710
      vertex -920 521 710
    endloop
  endfacet
  facet normal 0 -1 -0
    outer loop
      vertex -900 521 710
      vertex -920 521 590
      vertex -900 521 590
    endloop
  endfacet
  facet normal 1 -0 0
    outer loop
      vertex 920 521 710
      vertex 920 551 590
      vertex 920 551 710
    endloop
  endfacet
  facet normal 1 0 0
    outer loop
      vertex 920 551 590
      vertex 920 521 710
      vertex 920 521 590
    endloop
  endfacet
  facet normal -0 0 1
    outer loop
      vertex 900 551 710
      vertex 920 521 710
      vertex 920 551 710
    endloop
  endfacet
  facet normal 0 0 1
    outer loop
      vertex 920 521 710
      vertex 900 551 710
      vertex 900 521 710
    endloop
  endfacet
  facet normal 0 0 -1
    outer loop
      vertex 900 521 590
      vertex 920 551 590
      vertex 920 521 590
    endloop
  endfacet
  facet normal -0 0 -1
    outer loop
      vertex 920 551 590
      vertex 900 521 590
      vertex 900 551 590
    endloop
  endfacet
  facet normal 0 1 -0
    outer loop
      vertex 920 551 590
      vertex 900 551 710
      vertex 920 551 710
    endloop
  endfacet
  facet normal 0 1 0
    outer loop
      vertex 900 551 710
      vertex 920 551 590
      vertex 900 551 590
    endloop
  endfacet
  facet normal 0 -1 0
    outer loop
      vertex 900 521 590
      vertex 920 521 710
      vertex 900 521 710
    endloop
  endfacet
  facet normal 0 -1 -0
    outer loop
      vertex 920 521 710
      vertex 900 521 590
      vertex 920 521 590
    endloop
  endfacet
  facet normal 0 0 -1
    outer loop
      vertex -941.671 190.559 -1400
      vertex -900 167.658 -1400
      vertex -916.419 175.424 -1400
    endloop
  endfacet
  facet normal 0 0 -1
    outer loop
      vertex -900 167.658 -1400
      vertex -941.671 190.559 -1400
      vertex -900 712.342 -1400
    endloop
  endfacet
  facet normal 0 0 -1
    outer loop
      vertex -941.671 689.441 -1400
      vertex -900 712.342 -1400
      vertex -941.671 190.559 -1400
    endloop
  endfacet
  facet normal 0 0 -1
    outer loop
      vertex -900 712.342 -1400
      vertex -941.671 689.441 -1400
      vertex -916.419 704.576 -1400
    endloop
  endfacet
  facet normal 0 0 -1
    outer loop
      vertex -965.318 208.097 -1400
      vertex -941.671 689.441 -1400
      vertex -941.671 190.559 -1400
    endloop
  endfacet
  facet normal 0 0 -1
    outer loop
      vertex -965.318 208.097 -1400
      vertex -965.318 671.903 -1400
      vertex -941.671 689.441 -1400
    endloop
  endfacet
  facet normal 0 0 -1
    outer loop
      vertex -987.132 227.868 -1400
      vertex -965.318 671.903 -1400
      vertex -965.318 208.097 -1400
    endloop
  endfacet
  facet normal 0 0 -1
    outer loop
      vertex -987.132 227.868 -1400
      vertex -987.132 652.132 -1400
      vertex -965.318 671.903 -1400
    endloop
  endfacet
  facet normal 0 0 -1
    outer loop
      vertex -1006.9 249.682 -1400
      vertex -987.132 652.132 -1400
      vertex -987.132 227.868 -1400
    endloop
  endfacet
  facet normal 0 0 -1
    outer loop
      vertex -1006.9 249.682 -1400
      vertex -1006.9 630.318 -1400
      vertex -987.132 652.132 -1400
    endloop
  endfacet
  facet normal 0 0 -1
    outer loop
      vertex -1024.44 273.329 -1400
      vertex -1006.9 630.318 -1400
      vertex -1006.9 249.682 -1400
    endloop
  endfacet
  facet normal 0 0 -1
    outer loop
      vertex -1024.44 273.329 -1400
      vertex -1024.44 606.671 -1400
      vertex -1006.9 630.318 -1400
    endloop
  endfacet
  facet normal 0 0 -1
    outer loop
      vertex -1039.58 298.581 -1400
      vertex -1024.44 606.671 -1400
      vertex -1024.44 273.329 -1400
    endloop
  endfacet
  facet normal 0 0 -1
    outer loop
      vertex -1039.58 298.581 -1400
      vertex -1039.58 581.419 -1400
      vertex -1024.44 606.671 -1400
    endloop
  endfacet
  facet normal 0 0 -1
    outer loop
      vertex -1052.16 325.195 -1400
      vertex -1039.58 581.419 -1400
      vertex -1039.58 298.581 -1400
    endloop
  endfacet
  facet normal 0 0 -1
    outer loop
      vertex -1052.16 325.195 -1400
      vertex -1052.16 554.805 -1400
      vertex -1039.58 581.419 -1400
    endloop
  endfacet
  facet normal 0 0 -1
    outer loop
      vertex -1062.08 352.915 -1400
      vertex -1052.16 554.805 -1400
      vertex -1052.16 325.195 -1400
    endloop
  endfacet
  facet normal 0 0 -1
    outer loop
      vertex -1062.08 352.915 -1400
      vertex -1062.08 527.085 -1400
      vertex -1052.16 554.805 -1400
    endloop
  endfacet
  facet normal 0 0 -1
    outer loop
      vertex -1069.24 381.473 -1400
      vertex -1062.08 527.085 -1400
      vertex -1062.08 352.915 -1400
    endloop
  endfacet
  facet normal 0 0 -1
    outer loop
      vertex -1069.24 381.473 -1400
      vertex -1069.24 498.527 -1400
      vertex -1062.08 527.085 -1400
    endloop
  endfacet
  facet normal 0 0 -1
    outer loop
      vertex -1073.56 410.595 -1400
      vertex -1069.24 498.527 -1400
      vertex -1069.24 381.473 -1400
    endloop
  endfacet
  facet normal 0 0 -1
    outer loop
      vertex -1073.56 410.595 -1400
      vertex -1073.56 469.405 -1400
      vertex -1069.24 498.527 -1400
    endloop
  endfacet
  facet normal 0 -0 -1
    outer loop
      vertex -1073.56 469.405 -1400
      vertex -1073.56 410.595 -1400
      vertex -1075 440 -1400
    endloop
  endfacet
  facet normal -0.969978 -0.243191 0
    outer loop
      vertex -1062.08 352.915 -1400
      vertex -1069.24 381.473 -1200
      vertex -1069.24 381.473 -1400
    endloop
  endfacet
  facet normal -0.969978 -0.243191 0
    outer loop
      vertex -1069.24 381.473 -1200
      vertex -1062.08 352.915 -1400
      vertex -1062.08 352.915 -1200
    endloop
  endfacet
  facet normal -0.941527 0.336939 0
    outer loop
      vertex -1062.08 527.085 -1400
      vertex -1052.16 554.805 -1200
      vertex -1052.16 554.805 -1400
    endloop
  endfacet
  facet normal -0.941527 0.336939 0
    outer loop
      vertex -1052.16 554.805 -1200
      vertex -1062.08 527.085 -1400
      vertex -1062.08 527.085 -1200
    endloop
  endfacet
  facet normal -0.857661 -0.514216 0
    outer loop
      vertex -1024.44 273.329 -1400
      vertex -1039.58 298.581 -1200
      vertex -1039.58 298.581 -1400
    endloop
  endfacet
  facet normal -0.857661 -0.514216 0
    outer loop
      vertex -1039.58 298.581 -1200
      vertex -1024.44 273.329 -1400
      vertex -1024.44 273.329 -1200
    endloop
  endfacet
  facet normal 0 0 1
    outer loop
      vertex -941.671 689.441 -1200
      vertex -900 712.342 -1200
      vertex -916.419 704.576 -1200
    endloop
  endfacet
  facet normal 0 0 1
    outer loop
      vertex -900 712.342 -1200
      vertex -941.671 689.441 -1200
      vertex -900 167.658 -1200
    endloop
  endfacet
  facet normal -0 0 1
    outer loop
      vertex -941.671 190.559 -1200
      vertex -900 167.658 -1200
      vertex -941.671 689.441 -1200
    endloop
  endfacet
  facet normal 0 0 1
    outer loop
      vertex -900 167.658 -1200
      vertex -941.671 190.559 -1200
      vertex -916.419 175.424 -1200
    endloop
  endfacet
  facet normal -0 0 1
    outer loop
      vertex -965.318 671.903 -1200
      vertex -941.671 190.559 -1200
      vertex -941.671 689.441 -1200
    endloop
  endfacet
  facet normal 0 0 1
    outer loop
      vertex -965.318 671.903 -1200
      vertex -965.318 208.097 -1200
      vertex -941.671 190.559 -1200
    endloop
  endfacet
  facet normal -0 0 1
    outer loop
      vertex -987.132 652.132 -1200
      vertex -965.318 208.097 -1200
      vertex -965.318 671.903 -1200
    endloop
  endfacet
  facet normal 0 0 1
    outer loop
      vertex -987.132 652.132 -1200
      vertex -987.132 227.868 -1200
      vertex -965.318 208.097 -1200
    endloop
  endfacet
  facet normal -0 0 1
    outer loop
      vertex -1006.9 630.318 -1200
      vertex -987.132 227.868 -1200
      vertex -987.132 652.132 -1200
    endloop
  endfacet
  facet normal 0 0 1
    outer loop
      vertex -1006.9 630.318 -1200
      vertex -1006.9 249.682 -1200
      vertex -987.132 227.868 -1200
    endloop
  endfacet
  facet normal -0 0 1
    outer loop
      vertex -1024.44 606.671 -1200
      vertex -1006.9 249.682 -1200
      vertex -1006.9 630.318 -1200
    endloop
  endfacet
  facet normal 0 0 1
    outer loop
      vertex -1024.44 606.671 -1200
      vertex -1024.44 273.329 -1200
      vertex -1006.9 249.682 -1200
    endloop
  endfacet
  facet normal -0 0 1
    outer loop
      vertex -1039.58 581.419 -1200
      vertex -1024.44 273.329 -1200
      vertex -1024.44 606.671 -1200
    endloop
  endfacet
  facet normal 0 0 1
    outer loop
      vertex -1039.58 581.419 -1200
      vertex -1039.58 298.581 -1200
      vertex -1024.44 273.329 -1200
    endloop
  endfacet
  facet normal -0 0 1
    outer loop
      vertex -1052.16 554.805 -1200
      vertex -1039.58 298.581 -1200
      vertex -1039.58 581.419 -1200
    endloop
  endfacet
  facet normal 0 0 1
    outer loop
      vertex -1052.16 554.805 -1200
      vertex -1052.16 325.195 -1200
      vertex -1039.58 298.581 -1200
    endloop
  endfacet
  facet normal -0 0 1
    outer loop
      vertex -1062.08 527.085 -1200
      vertex -1052.16 325.195 -1200
      vertex -1052.16 554.805 -1200
    endloop
  endfacet
  facet normal 0 0 1
    outer loop
      vertex -1062.08 527.085 -1200
      vertex -1062.08 352.915 -1200
      vertex -1052.16 325.195 -1200
    endloop
  endfacet
  facet normal -0 0 1
    outer loop
      vertex -1069.24 498.527 -1200
      vertex -1062.08 352.915 -1200
      vertex -1062.08 527.085 -1200
    endloop
  endfacet
  facet normal 0 0 1
    outer loop
      vertex -1069.24 498.527 -1200
      vertex -1069.24 381.473 -1200
      vertex -1062.08 352.915 -1200
    endloop
  endfacet
  facet normal -0 0 1
    outer loop
      vertex -1073.56 469.405 -1200
      vertex -1069.24 381.473 -1200
      vertex -1069.24 498.527 -1200
    endloop
  endfacet
  facet normal 0 0 1
    outer loop
      vertex -1073.56 469.405 -1200
      vertex -1073.56 410.595 -1200
      vertex -1069.24 381.473 -1200
    endloop
  endfacet
  facet normal 0 -0 1
    outer loop
      vertex -1073.56 410.595 -1200
      vertex -1073.56 469.405 -1200
      vertex -1075 440 -1200
    endloop
  endfacet
  facet normal -0.514091 -0.857736 0
    outer loop
      vertex -941.671 190.559 -1400
      vertex -916.419 175.424 -1200
      vertex -941.671 190.559 -1200
    endloop
  endfacet
  facet normal -0.514091 -0.857736 -0
    outer loop
      vertex -916.419 175.424 -1200
      vertex -941.671 190.559 -1400
      vertex -916.419 175.424 -1400
    endloop
  endfacet
  facet normal -0.671558 -0.740952 0
    outer loop
      vertex -987.132 227.868 -1400
      vertex -965.318 208.097 -1200
      vertex -987.132 227.868 -1200
    endloop
  endfacet
  facet normal -0.671558 -0.740952 -0
    outer loop
      vertex -965.318 208.097 -1200
      vertex -987.132 227.868 -1400
      vertex -965.318 208.097 -1400
    endloop
  endfacet
  facet normal -0.989176 0.146736 0
    outer loop
      vertex -1073.56 469.405 -1400
      vertex -1069.24 498.527 -1200
      vertex -1069.24 498.527 -1400
    endloop
  endfacet
  facet normal -0.989176 0.146736 0
    outer loop
      vertex -1069.24 498.527 -1200
      vertex -1073.56 469.405 -1400
      vertex -1073.56 469.405 -1200
    endloop
  endfacet
  facet normal -0.803172 -0.595747 0
    outer loop
      vertex -1006.9 249.682 -1400
      vertex -1024.44 273.329 -1200
      vertex -1024.44 273.329 -1400
    endloop
  endfacet
  facet normal -0.803172 -0.595747 0
    outer loop
      vertex -1024.44 273.329 -1200
      vertex -1006.9 249.682 -1400
      vertex -1006.9 249.682 -1200
    endloop
  endfacet
  facet normal -0.595703 -0.803204 0
    outer loop
      vertex -965.318 208.097 -1400
      vertex -941.671 190.559 -1200
      vertex -965.318 208.097 -1200
    endloop
  endfacet
  facet normal -0.595703 -0.803204 -0
    outer loop
      vertex -941.671 190.559 -1200
      vertex -965.318 208.097 -1400
      vertex -941.671 190.559 -1400
    endloop
  endfacet
  facet normal -0.904088 0.427347 0
    outer loop
      vertex -1052.16 554.805 -1400
      vertex -1039.58 581.419 -1200
      vertex -1039.58 581.419 -1400
    endloop
  endfacet
  facet normal -0.904088 0.427347 0
    outer loop
      vertex -1039.58 581.419 -1200
      vertex -1052.16 554.805 -1400
      vertex -1052.16 554.805 -1200
    endloop
  endfacet
  facet normal -0.998803 -0.0489126 0
    outer loop
      vertex -1073.56 410.595 -1400
      vertex -1075 440 -1200
      vertex -1075 440 -1400
    endloop
  endfacet
  facet normal -0.998803 -0.0489126 0
    outer loop
      vertex -1075 440 -1200
      vertex -1073.56 410.595 -1400
      vertex -1073.56 410.595 -1200
    endloop
  endfacet
  facet normal -0.741003 0.671502 0
    outer loop
      vertex -1006.9 630.318 -1400
      vertex -987.132 652.132 -1200
      vertex -987.132 652.132 -1400
    endloop
  endfacet
  facet normal -0.741003 0.671502 0
    outer loop
      vertex -987.132 652.132 -1200
      vertex -1006.9 630.318 -1400
      vertex -1006.9 630.318 -1200
    endloop
  endfacet
  facet normal -0.904088 -0.427347 0
    outer loop
      vertex -1039.58 298.581 -1400
      vertex -1052.16 325.195 -1200
      vertex -1052.16 325.195 -1400
    endloop
  endfacet
  facet normal -0.904088 -0.427347 0
    outer loop
      vertex -1052.16 325.195 -1200
      vertex -1039.58 298.581 -1400
      vertex -1039.58 298.581 -1200
    endloop
  endfacet
  facet normal -0.741003 -0.671502 0
    outer loop
      vertex -987.132 227.868 -1400
      vertex -1006.9 249.682 -1200
      vertex -1006.9 249.682 -1400
    endloop
  endfacet
  facet normal -0.741003 -0.671502 0
    outer loop
      vertex -1006.9 249.682 -1200
      vertex -987.132 227.868 -1400
      vertex -987.132 227.868 -1200
    endloop
  endfacet
  facet normal -0.941527 -0.336939 0
    outer loop
      vertex -1052.16 325.195 -1400
      vertex -1062.08 352.915 -1200
      vertex -1062.08 352.915 -1400
    endloop
  endfacet
  facet normal -0.941527 -0.336939 0
    outer loop
      vertex -1062.08 352.915 -1200
      vertex -1052.16 325.195 -1400
      vertex -1052.16 325.195 -1200
    endloop
  endfacet
  facet normal -0.595703 0.803204 0
    outer loop
      vertex -941.671 689.441 -1400
      vertex -965.318 671.903 -1200
      vertex -941.671 689.441 -1200
    endloop
  endfacet
  facet normal -0.595703 0.803204 0
    outer loop
      vertex -965.318 671.903 -1200
      vertex -941.671 689.441 -1400
      vertex -965.318 671.903 -1400
    endloop
  endfacet
  facet normal -0.514091 0.857736 0
    outer loop
      vertex -916.419 704.576 -1400
      vertex -941.671 689.441 -1200
      vertex -916.419 704.576 -1200
    endloop
  endfacet
  facet normal -0.514091 0.857736 0
    outer loop
      vertex -941.671 689.441 -1200
      vertex -916.419 704.576 -1400
      vertex -941.671 689.441 -1400
    endloop
  endfacet
  facet normal -0.803172 0.595747 0
    outer loop
      vertex -1024.44 606.671 -1400
      vertex -1006.9 630.318 -1200
      vertex -1006.9 630.318 -1400
    endloop
  endfacet
  facet normal -0.803172 0.595747 0
    outer loop
      vertex -1006.9 630.318 -1200
      vertex -1024.44 606.671 -1400
      vertex -1024.44 606.671 -1200
    endloop
  endfacet
  facet normal -0.857661 0.514216 0
    outer loop
      vertex -1039.58 581.419 -1400
      vertex -1024.44 606.671 -1200
      vertex -1024.44 606.671 -1400
    endloop
  endfacet
  facet normal -0.857661 0.514216 0
    outer loop
      vertex -1024.44 606.671 -1200
      vertex -1039.58 581.419 -1400
      vertex -1039.58 581.419 -1200
    endloop
  endfacet
  facet normal -0.989176 -0.146736 0
    outer loop
      vertex -1069.24 381.473 -1400
      vertex -1073.56 410.595 -1200
      vertex -1073.56 410.595 -1400
    endloop
  endfacet
  facet normal -0.989176 -0.146736 0
    outer loop
      vertex -1073.56 410.595 -1200
      vertex -1069.24 381.473 -1400
      vertex -1069.24 381.473 -1200
    endloop
  endfacet
  facet normal -0.671558 0.740952 0
    outer loop
      vertex -965.318 671.903 -1400
      vertex -987.132 652.132 -1200
      vertex -965.318 671.903 -1200
    endloop
  endfacet
  facet normal -0.671558 0.740952 0
    outer loop
      vertex -987.132 652.132 -1200
      vertex -965.318 671.903 -1400
      vertex -987.132 652.132 -1400
    endloop
  endfacet
  facet normal -0.998803 0.0489126 0
    outer loop
      vertex -1075 440 -1400
      vertex -1073.56 469.405 -1200
      vertex -1073.56 469.405 -1400
    endloop
  endfacet
  facet normal -0.998803 0.0489126 0
    outer loop
      vertex -1073.56 469.405 -1200
      vertex -1075 440 -1400
      vertex -1075 440 -1200
    endloop
  endfacet
  facet normal -0.427573 0.903981 0
    outer loop
      vertex -900 712.342 -1400
      vertex -916.419 704.576 -1200
      vertex -900 712.342 -1200
    endloop
  endfacet
  facet normal -0.427573 0.903981 0
    outer loop
      vertex -916.419 704.576 -1200
      vertex -900 712.342 -1400
      vertex -916.419 704.576 -1400
    endloop
  endfacet
  facet normal -0.427573 -0.903981 0
    outer loop
      vertex -916.419 175.424 -1400
      vertex -900 167.658 -1200
      vertex -916.419 175.424 -1200
    endloop
  endfacet
  facet normal -0.427573 -0.903981 -0
    outer loop
      vertex -900 167.658 -1200
      vertex -916.419 175.424 -1400
      vertex -900 167.658 -1400
    endloop
  endfacet
  facet normal -0.969978 0.243191 0
    outer loop
      vertex -1069.24 498.527 -1400
      vertex -1062.08 527.085 -1200
      vertex -1062.08 527.085 -1400
    endloop
  endfacet
  facet normal -0.969978 0.243191 0
    outer loop
      vertex -1062.08 527.085 -1200
      vertex -1069.24 498.527 -1400
      vertex -1069.24 498.527 -1200
    endloop
  endfacet
  facet normal 0.969978 0.243191 0
    outer loop
      vertex 1069.24 498.527 -1200
      vertex 1062.08 527.085 -1400
      vertex 1062.08 527.085 -1200
    endloop
  endfacet
  facet normal 0.969978 0.243191 0
    outer loop
      vertex 1062.08 527.085 -1400
      vertex 1069.24 498.527 -1200
      vertex 1069.24 498.527 -1400
    endloop
  endfacet
  facet normal 0.857661 0.514216 0
    outer loop
      vertex 1039.58 581.419 -1200
      vertex 1024.44 606.671 -1400
      vertex 1024.44 606.671 -1200
    endloop
  endfacet
  facet normal 0.857661 0.514216 0
    outer loop
      vertex 1024.44 606.671 -1400
      vertex 1039.58 581.419 -1200
      vertex 1039.58 581.419 -1400
    endloop
  endfacet
  facet normal 0.595703 0.803204 -0
    outer loop
      vertex 965.318 671.903 -1400
      vertex 941.671 689.441 -1200
      vertex 965.318 671.903 -1200
    endloop
  endfacet
  facet normal 0.595703 0.803204 0
    outer loop
      vertex 941.671 689.441 -1200
      vertex 965.318 671.903 -1400
      vertex 941.671 689.441 -1400
    endloop
  endfacet
  facet normal 0.904088 0.427347 0
    outer loop
      vertex 1052.16 554.805 -1200
      vertex 1039.58 581.419 -1400
      vertex 1039.58 581.419 -1200
    endloop
  endfacet
  facet normal 0.904088 0.427347 0
    outer loop
      vertex 1039.58 581.419 -1400
      vertex 1052.16 554.805 -1200
      vertex 1052.16 554.805 -1400
    endloop
  endfacet
  facet normal 0.904088 -0.427347 0
    outer loop
      vertex 1039.58 298.581 -1200
      vertex 1052.16 325.195 -1400
      vertex 1052.16 325.195 -1200
    endloop
  endfacet
  facet normal 0.904088 -0.427347 0
    outer loop
      vertex 1052.16 325.195 -1400
      vertex 1039.58 298.581 -1200
      vertex 1039.58 298.581 -1400
    endloop
  endfacet
  facet normal 0.998803 -0.0489126 0
    outer loop
      vertex 1073.56 410.595 -1200
      vertex 1075 440 -1400
      vertex 1075 440 -1200
    endloop
  endfacet
  facet normal 0.998803 -0.0489126 0
    outer loop
      vertex 1075 440 -1400
      vertex 1073.56 410.595 -1200
      vertex 1073.56 410.595 -1400
    endloop
  endfacet
  facet normal 0.998803 0.0489126 0
    outer loop
      vertex 1075 440 -1200
      vertex 1073.56 469.405 -1400
      vertex 1073.56 469.405 -1200
    endloop
  endfacet
  facet normal 0.998803 0.0489126 0
    outer loop
      vertex 1073.56 469.405 -1400
      vertex 1075 440 -1200
      vertex 1075 440 -1400
    endloop
  endfacet
  facet normal 0.989176 0.146736 0
    outer loop
      vertex 1073.56 469.405 -1200
      vertex 1069.24 498.527 -1400
      vertex 1069.24 498.527 -1200
    endloop
  endfacet
  facet normal 0.989176 0.146736 0
    outer loop
      vertex 1069.24 498.527 -1400
      vertex 1073.56 469.405 -1200
      vertex 1073.56 469.405 -1400
    endloop
  endfacet
  facet normal 0.941527 0.336939 0
    outer loop
      vertex 1062.08 527.085 -1200
      vertex 1052.16 554.805 -1400
      vertex 1052.16 554.805 -1200
    endloop
  endfacet
  facet normal 0.941527 0.336939 0
    outer loop
      vertex 1052.16 554.805 -1400
      vertex 1062.08 527.085 -1200
      vertex 1062.08 527.085 -1400
    endloop
  endfacet
  facet normal 0.989176 -0.146736 0
    outer loop
      vertex 1069.24 381.473 -1200
      vertex 1073.56 410.595 -1400
      vertex 1073.56 410.595 -1200
    endloop
  endfacet
  facet normal 0.989176 -0.146736 0
    outer loop
      vertex 1073.56 410.595 -1400
      vertex 1069.24 381.473 -1200
      vertex 1069.24 381.473 -1400
    endloop
  endfacet
  facet normal 0.741003 -0.671502 0
    outer loop
      vertex 987.132 227.868 -1200
      vertex 1006.9 249.682 -1400
      vertex 1006.9 249.682 -1200
    endloop
  endfacet
  facet normal 0.741003 -0.671502 0
    outer loop
      vertex 1006.9 249.682 -1400
      vertex 987.132 227.868 -1200
      vertex 987.132 227.868 -1400
    endloop
  endfacet
  facet normal 0.803172 0.595747 0
    outer loop
      vertex 1024.44 606.671 -1200
      vertex 1006.9 630.318 -1400
      vertex 1006.9 630.318 -1200
    endloop
  endfacet
  facet normal 0.803172 0.595747 0
    outer loop
      vertex 1006.9 630.318 -1400
      vertex 1024.44 606.671 -1200
      vertex 1024.44 606.671 -1400
    endloop
  endfacet
  facet normal 0.514091 0.857736 -0
    outer loop
      vertex 941.671 689.441 -1400
      vertex 916.419 704.576 -1200
      vertex 941.671 689.441 -1200
    endloop
  endfacet
  facet normal 0.514091 0.857736 0
    outer loop
      vertex 916.419 704.576 -1200
      vertex 941.671 689.441 -1400
      vertex 916.419 704.576 -1400
    endloop
  endfacet
  facet normal 0.514091 -0.857736 0
    outer loop
      vertex 916.419 175.424 -1400
      vertex 941.671 190.559 -1200
      vertex 916.419 175.424 -1200
    endloop
  endfacet
  facet normal 0.514091 -0.857736 0
    outer loop
      vertex 941.671 190.559 -1200
      vertex 916.419 175.424 -1400
      vertex 941.671 190.559 -1400
    endloop
  endfacet
  facet normal 0.595703 -0.803204 0
    outer loop
      vertex 941.671 190.559 -1400
      vertex 965.318 208.097 -1200
      vertex 941.671 190.559 -1200
    endloop
  endfacet
  facet normal 0.595703 -0.803204 0
    outer loop
      vertex 965.318 208.097 -1200
      vertex 941.671 190.559 -1400
      vertex 965.318 208.097 -1400
    endloop
  endfacet
  facet normal 0.671558 0.740952 -0
    outer loop
      vertex 987.132 652.132 -1400
      vertex 965.318 671.903 -1200
      vertex 987.132 652.132 -1200
    endloop
  endfacet
  facet normal 0.671558 0.740952 0
    outer loop
      vertex 965.318 671.903 -1200
      vertex 987.132 652.132 -1400
      vertex 965.318 671.903 -1400
    endloop
  endfacet
  facet normal 0.671558 -0.740952 0
    outer loop
      vertex 965.318 208.097 -1400
      vertex 987.132 227.868 -1200
      vertex 965.318 208.097 -1200
    endloop
  endfacet
  facet normal 0.671558 -0.740952 0
    outer loop
      vertex 987.132 227.868 -1200
      vertex 965.318 208.097 -1400
      vertex 987.132 227.868 -1400
    endloop
  endfacet
  facet normal 0.941527 -0.336939 0
    outer loop
      vertex 1052.16 325.195 -1200
      vertex 1062.08 352.915 -1400
      vertex 1062.08 352.915 -1200
    endloop
  endfacet
  facet normal 0.941527 -0.336939 0
    outer loop
      vertex 1062.08 352.915 -1400
      vertex 1052.16 325.195 -1200
      vertex 1052.16 325.195 -1400
    endloop
  endfacet
  facet normal 0 0 -1
    outer loop
      vertex 1073.56 410.595 -1400
      vertex 1073.56 469.405 -1400
      vertex 1075 440 -1400
    endloop
  endfacet
  facet normal 0 0 -1
    outer loop
      vertex 1069.24 381.473 -1400
      vertex 1073.56 469.405 -1400
      vertex 1073.56 410.595 -1400
    endloop
  endfacet
  facet normal 0 0 -1
    outer loop
      vertex 1069.24 381.473 -1400
      vertex 1069.24 498.527 -1400
      vertex 1073.56 469.405 -1400
    endloop
  endfacet
  facet normal 0 0 -1
    outer loop
      vertex 1062.08 352.915 -1400
      vertex 1069.24 498.527 -1400
      vertex 1069.24 381.473 -1400
    endloop
  endfacet
  facet normal 0 0 -1
    outer loop
      vertex 1062.08 352.915 -1400
      vertex 1062.08 527.085 -1400
      vertex 1069.24 498.527 -1400
    endloop
  endfacet
  facet normal 0 0 -1
    outer loop
      vertex 1052.16 325.195 -1400
      vertex 1062.08 527.085 -1400
      vertex 1062.08 352.915 -1400
    endloop
  endfacet
  facet normal 0 0 -1
    outer loop
      vertex 1052.16 325.195 -1400
      vertex 1052.16 554.805 -1400
      vertex 1062.08 527.085 -1400
    endloop
  endfacet
  facet normal 0 0 -1
    outer loop
      vertex 1039.58 298.581 -1400
      vertex 1052.16 554.805 -1400
      vertex 1052.16 325.195 -1400
    endloop
  endfacet
  facet normal 0 0 -1
    outer loop
      vertex 1039.58 298.581 -1400
      vertex 1039.58 581.419 -1400
      vertex 1052.16 554.805 -1400
    endloop
  endfacet
  facet normal 0 0 -1
    outer loop
      vertex 1024.44 273.329 -1400
      vertex 1039.58 581.419 -1400
      vertex 1039.58 298.581 -1400
    endloop
  endfacet
  facet normal 0 0 -1
    outer loop
      vertex 1024.44 273.329 -1400
      vertex 1024.44 606.671 -1400
      vertex 1039.58 581.419 -1400
    endloop
  endfacet
  facet normal 0 0 -1
    outer loop
      vertex 1006.9 249.682 -1400
      vertex 1024.44 606.671 -1400
      vertex 1024.44 273.329 -1400
    endloop
  endfacet
  facet normal 0 0 -1
    outer loop
      vertex 1006.9 249.682 -1400
      vertex 1006.9 630.318 -1400
      vertex 1024.44 606.671 -1400
    endloop
  endfacet
  facet normal 0 0 -1
    outer loop
      vertex 987.132 227.868 -1400
      vertex 1006.9 630.318 -1400
      vertex 1006.9 249.682 -1400
    endloop
  endfacet
  facet normal 0 0 -1
    outer loop
      vertex 987.132 227.868 -1400
      vertex 987.132 652.132 -1400
      vertex 1006.9 630.318 -1400
    endloop
  endfacet
  facet normal 0 0 -1
    outer loop
      vertex 965.318 208.097 -1400
      vertex 987.132 652.132 -1400
      vertex 987.132 227.868 -1400
    endloop
  endfacet
  facet normal 0 0 -1
    outer loop
      vertex 965.318 208.097 -1400
      vertex 965.318 671.903 -1400
      vertex 987.132 652.132 -1400
    endloop
  endfacet
  facet normal 0 0 -1
    outer loop
      vertex 941.671 190.559 -1400
      vertex 965.318 671.903 -1400
      vertex 965.318 208.097 -1400
    endloop
  endfacet
  facet normal 0 0 -1
    outer loop
      vertex 941.671 190.559 -1400
      vertex 941.671 689.441 -1400
      vertex 965.318 671.903 -1400
    endloop
  endfacet
  facet normal 0 0 -1
    outer loop
      vertex 900 167.658 -1400
      vertex 941.671 190.559 -1400
      vertex 916.419 175.424 -1400
    endloop
  endfacet
  facet normal -0 0 -1
    outer loop
      vertex 941.671 190.559 -1400
      vertex 900 167.658 -1400
      vertex 941.671 689.441 -1400
    endloop
  endfacet
  facet normal 0 0 -1
    outer loop
      vertex 900 712.342 -1400
      vertex 941.671 689.441 -1400
      vertex 900 167.658 -1400
    endloop
  endfacet
  facet normal 0 0 -1
    outer loop
      vertex 941.671 689.441 -1400
      vertex 900 712.342 -1400
      vertex 916.419 704.576 -1400
    endloop
  endfacet
  facet normal 0.741003 0.671502 0
    outer loop
      vertex 1006.9 630.318 -1200
      vertex 987.132 652.132 -1400
      vertex 987.132 652.132 -1200
    endloop
  endfacet
  facet normal 0.741003 0.671502 0
    outer loop
      vertex 987.132 652.132 -1400
      vertex 1006.9 630.318 -1200
      vertex 1006.9 630.318 -1400
    endloop
  endfacet
  facet normal 0.969978 -0.243191 0
    outer loop
      vertex 1062.08 352.915 -1200
      vertex 1069.24 381.473 -1400
      vertex 1069.24 381.473 -1200
    endloop
  endfacet
  facet normal 0.969978 -0.243191 0
    outer loop
      vertex 1069.24 381.473 -1400
      vertex 1062.08 352.915 -1200
      vertex 1062.08 352.915 -1400
    endloop
  endfacet
  facet normal 0.803172 -0.595747 0
    outer loop
      vertex 1006.9 249.682 -1200
      vertex 1024.44 273.329 -1400
      vertex 1024.44 273.329 -1200
    endloop
  endfacet
  facet normal 0.803172 -0.595747 0
    outer loop
      vertex 1024.44 273.329 -1400
      vertex 1006.9 249.682 -1200
      vertex 1006.9 249.682 -1400
    endloop
  endfacet
  facet normal 0.427573 0.903981 -0
    outer loop
      vertex 916.419 704.576 -1400
      vertex 900 712.342 -1200
      vertex 916.419 704.576 -1200
    endloop
  endfacet
  facet normal 0.427573 0.903981 0
    outer loop
      vertex 900 712.342 -1200
      vertex 916.419 704.576 -1400
      vertex 900 712.342 -1400
    endloop
  endfacet
  facet normal 0.427573 -0.903981 0
    outer loop
      vertex 900 167.658 -1400
      vertex 916.419 175.424 -1200
      vertex 900 167.658 -1200
    endloop
  endfacet
  facet normal 0.427573 -0.903981 0
    outer loop
      vertex 916.419 175.424 -1200
      vertex 900 167.658 -1400
      vertex 916.419 175.424 -1400
    endloop
  endfacet
  facet normal 0 0 1
    outer loop
      vertex 1073.56 469.405 -1200
      vertex 1073.56 410.595 -1200
      vertex 1075 440 -1200
    endloop
  endfacet
  facet normal 0 0 1
    outer loop
      vertex 1069.24 498.527 -1200
      vertex 1073.56 410.595 -1200
      vertex 1073.56 469.405 -1200
    endloop
  endfacet
  facet normal 0 0 1
    outer loop
      vertex 1069.24 498.527 -1200
      vertex 1069.24 381.473 -1200
      vertex 1073.56 410.595 -1200
    endloop
  endfacet
  facet normal 0 0 1
    outer loop
      vertex 1062.08 527.085 -1200
      vertex 1069.24 381.473 -1200
      vertex 1069.24 498.527 -1200
    endloop
  endfacet
  facet normal 0 0 1
    outer loop
      vertex 1062.08 527.085 -1200
      vertex 1062.08 352.915 -1200
      vertex 1069.24 381.473 -1200
    endloop
  endfacet
  facet normal 0 0 1
    outer loop
      vertex 1052.16 554.805 -1200
      vertex 1062.08 352.915 -1200
      vertex 1062.08 527.085 -1200
    endloop
  endfacet
  facet normal 0 0 1
    outer loop
      vertex 1052.16 554.805 -1200
      vertex 1052.16 325.195 -1200
      vertex 1062.08 352.915 -1200
    endloop
  endfacet
  facet normal 0 0 1
    outer loop
      vertex 1039.58 581.419 -1200
      vertex 1052.16 325.195 -1200
      vertex 1052.16 554.805 -1200
    endloop
  endfacet
  facet normal 0 0 1
    outer loop
      vertex 1039.58 581.419 -1200
      vertex 1039.58 298.581 -1200
      vertex 1052.16 325.195 -1200
    endloop
  endfacet
  facet normal 0 0 1
    outer loop
      vertex 1024.44 606.671 -1200
      vertex 1039.58 298.581 -1200
      vertex 1039.58 581.419 -1200
    endloop
  endfacet
  facet normal 0 0 1
    outer loop
      vertex 1024.44 606.671 -1200
      vertex 1024.44 273.329 -1200
      vertex 1039.58 298.581 -1200
    endloop
  endfacet
  facet normal 0 0 1
    outer loop
      vertex 1006.9 630.318 -1200
      vertex 1024.44 273.329 -1200
      vertex 1024.44 606.671 -1200
    endloop
  endfacet
  facet normal 0 0 1
    outer loop
      vertex 1006.9 630.318 -1200
      vertex 1006.9 249.682 -1200
      vertex 1024.44 273.329 -1200
    endloop
  endfacet
  facet normal 0 0 1
    outer loop
      vertex 987.132 652.132 -1200
      vertex 1006.9 249.682 -1200
      vertex 1006.9 630.318 -1200
    endloop
  endfacet
  facet normal 0 0 1
    outer loop
      vertex 987.132 652.132 -1200
      vertex 987.132 227.868 -1200
      vertex 1006.9 249.682 -1200
    endloop
  endfacet
  facet normal 0 0 1
    outer loop
      vertex 965.318 671.903 -1200
      vertex 987.132 227.868 -1200
      vertex 987.132 652.132 -1200
    endloop
  endfacet
  facet normal 0 0 1
    outer loop
      vertex 965.318 671.903 -1200
      vertex 965.318 208.097 -1200
      vertex 987.132 227.868 -1200
    endloop
  endfacet
  facet normal 0 0 1
    outer loop
      vertex 941.671 689.441 -1200
      vertex 965.318 208.097 -1200
      vertex 965.318 671.903 -1200
    endloop
  endfacet
  facet normal 0 0 1
    outer loop
      vertex 941.671 689.441 -1200
      vertex 941.671 190.559 -1200
      vertex 965.318 208.097 -1200
    endloop
  endfacet
  facet normal 0 0 1
    outer loop
      vertex 900 712.342 -1200
      vertex 941.671 689.441 -1200
      vertex 916.419 704.576 -1200
    endloop
  endfacet
  facet normal 0 0 1
    outer loop
      vertex 941.671 689.441 -1200
      vertex 900 712.342 -1200
      vertex 941.671 190.559 -1200
    endloop
  endfacet
  facet normal 0 0 1
    outer loop
      vertex 900 167.658 -1200
      vertex 941.671 190.559 -1200
      vertex 900 712.342 -1200
    endloop
  endfacet
  facet normal 0 0 1
    outer loop
      vertex 941.671 190.559 -1200
      vertex 900 167.658 -1200
      vertex 916.419 175.424 -1200
    endloop
  endfacet
  facet normal 0.857661 -0.514216 0
    outer loop
      vertex 1024.44 273.329 -1200
      vertex 1039.58 298.581 -1400
      vertex 1039.58 298.581 -1200
    endloop
  endfacet
  facet normal 0.857661 -0.514216 0
    outer loop
      vertex 1039.58 298.581 -1400
      vertex 1024.44 273.329 -1200
      vertex 1024.44 273.329 -1400
    endloop
  endfacet
  facet normal 0 0 -1
    outer loop
      vertex -941.671 190.559 1200
      vertex -900 167.658 1200
      vertex -916.419 175.424 1200
    endloop
  endfacet
  facet normal 0 0 -1
    outer loop
      vertex -900 167.658 1200
      vertex -941.671 190.559 1200
      vertex -900 712.342 1200
    endloop
  endfacet
  facet normal 0 0 -1
    outer loop
      vertex -941.671 689.441 1200
      vertex -900 712.342 1200
      vertex -941.671 190.559 1200
    endloop
  endfacet
  facet normal 0 0 -1
    outer loop
      vertex -900 712.342 1200
      vertex -941.671 689.441 1200
      vertex -916.419 704.576 1200
    endloop
  endfacet
  facet normal 0 0 -1
    outer loop
      vertex -965.318 208.097 1200
      vertex -941.671 689.441 1200
      vertex -941.671 190.559 1200
    endloop
  endfacet
  facet normal 0 0 -1
    outer loop
      vertex -965.318 208.097 1200
      vertex -965.318 671.903 1200
      vertex -941.671 689.441 1200
    endloop
  endfacet
  facet normal 0 0 -1
    outer loop
      vertex -987.132 227.868 1200
      vertex -965.318 671.903 1200
      vertex -965.318 208.097 1200
    endloop
  endfacet
  facet normal 0 0 -1
    outer loop
      vertex -987.132 227.868 1200
      vertex -987.132 652.132 1200
      vertex -965.318 671.903 1200
    endloop
  endfacet
  facet normal 0 0 -1
    outer loop
      vertex -1006.9 249.682 1200
      vertex -987.132 652.132 1200
      vertex -987.132 227.868 1200
    endloop
  endfacet
  facet normal 0 0 -1
    outer loop
      vertex -1006.9 249.682 1200
      vertex -1006.9 630.318 1200
      vertex -987.132 652.132 1200
    endloop
  endfacet
  facet normal 0 0 -1
    outer loop
      vertex -1024.44 273.329 1200
      vertex -1006.9 630.318 1200
      vertex -1006.9 249.682 1200
    endloop
  endfacet
  facet normal 0 0 -1
    outer loop
      vertex -1024.44 273.329 1200
      vertex -1024.44 606.671 1200
      vertex -1006.9 630.318 1200
    endloop
  endfacet
  facet normal 0 0 -1
    outer loop
      vertex -1039.58 298.581 1200
      vertex -1024.44 606.671 1200
      vertex -1024.44 273.329 1200
    endloop
  endfacet
  facet normal 0 0 -1
    outer loop
      vertex -1039.58 298.581 1200
      vertex -1039.58 581.419 1200
      vertex -1024.44 606.671 1200
    endloop
  endfacet
  facet normal 0 0 -1
    outer loop
      vertex -1052.16 325.195 1200
      vertex -1039.58 581.419 1200
      vertex -1039.58 298.581 1200
    endloop
  endfacet
  facet normal 0 0 -1
    outer loop
      vertex -1052.16 325.195 1200
      vertex -1052.16 554.805 1200
      vertex -1039.58 581.419 1200
    endloop
  endfacet
  facet normal 0 0 -1
    outer loop
      vertex -1062.08 352.915 1200
      vertex -1052.16 554.805 1200
      vertex -1052.16 325.195 1200
    endloop
  endfacet
  facet normal 0 0 -1
    outer loop
      vertex -1062.08 352.915 1200
      vertex -1062.08 527.085 1200
      vertex -1052.16 554.805 1200
    endloop
  endfacet
  facet normal 0 0 -1
    outer loop
      vertex -1069.24 381.473 1200
      vertex -1062.08 527.085 1200
      vertex -1062.08 352.915 1200
    endloop
  endfacet
  facet normal 0 0 -1
    outer loop
      vertex -1069.24 381.473 1200
      vertex -1069.24 498.527 1200
      vertex -1062.08 527.085 1200
    endloop
  endfacet
  facet normal 0 0 -1
    outer loop
      vertex -1073.56 410.595 1200
      vertex -1069.24 498.527 1200
      vertex -1069.24 381.473 1200
    endloop
  endfacet
  facet normal 0 0 -1
    outer loop
      vertex -1073.56 410.595 1200
      vertex -1073.56 469.405 1200
      vertex -1069.24 498.527 1200
    endloop
  endfacet
  facet normal 0 -0 -1
    outer loop
      vertex -1073.56 469.405 1200
      vertex -1073.56 410.595 1200
      vertex -1075 440 1200
    endloop
  endfacet
  facet normal -0.969978 -0.243191 0
    outer loop
      vertex -1062.08 352.915 1200
      vertex -1069.24 381.473 1400
      vertex -1069.24 381.473 1200
    endloop
  endfacet
  facet normal -0.969978 -0.243191 0
    outer loop
      vertex -1069.24 381.473 1400
      vertex -1062.08 352.915 1200
      vertex -1062.08 352.915 1400
    endloop
  endfacet
  facet normal -0.941527 0.336939 0
    outer loop
      vertex -1062.08 527.085 1200
      vertex -1052.16 554.805 1400
      vertex -1052.16 554.805 1200
    endloop
  endfacet
  facet normal -0.941527 0.336939 0
    outer loop
      vertex -1052.16 554.805 1400
      vertex -1062.08 527.085 1200
      vertex -1062.08 527.085 1400
    endloop
  endfacet
  facet normal -0.857661 -0.514216 0
    outer loop
      vertex -1024.44 273.329 1200
      vertex -1039.58 298.581 1400
      vertex -1039.58 298.581 1200
    endloop
  endfacet
  facet normal -0.857661 -0.514216 0
    outer loop
      vertex -1039.58 298.581 1400
      vertex -1024.44 273.329 1200
      vertex -1024.44 273.329 1400
    endloop
  endfacet
  facet normal 0 0 1
    outer loop
      vertex -941.671 689.441 1400
      vertex -900 712.342 1400
      vertex -916.419 704.576 1400
    endloop
  endfacet
  facet normal 0 0 1
    outer loop
      vertex -900 712.342 1400
      vertex -941.671 689.441 1400
      vertex -900 167.658 1400
    endloop
  endfacet
  facet normal -0 0 1
    outer loop
      vertex -941.671 190.559 1400
      vertex -900 167.658 1400
      vertex -941.671 689.441 1400
    endloop
  endfacet
  facet normal 0 0 1
    outer loop
      vertex -900 167.658 1400
      vertex -941.671 190.559 1400
      vertex -916.419 175.424 1400
    endloop
  endfacet
  facet normal -0 0 1
    outer loop
      vertex -965.318 671.903 1400
      vertex -941.671 190.559 1400
      vertex -941.671 689.441 1400
    endloop
  endfacet
  facet normal 0 0 1
    outer loop
      vertex -965.318 671.903 1400
      vertex -965.318 208.097 1400
      vertex -941.671 190.559 1400
    endloop
  endfacet
  facet normal -0 0 1
    outer loop
      vertex -987.132 652.132 1400
      vertex -965.318 208.097 1400
      vertex -965.318 671.903 1400
    endloop
  endfacet
  facet normal 0 0 1
    outer loop
      vertex -987.132 652.132 1400
      vertex -987.132 227.868 1400
      vertex -965.318 208.097 1400
    endloop
  endfacet
  facet normal -0 0 1
    outer loop
      vertex -1006.9 630.318 1400
      vertex -987.132 227.868 1400
      vertex -987.132 652.132 1400
    endloop
  endfacet
  facet normal 0 0 1
    outer loop
      vertex -1006.9 630.318 1400
      vertex -1006.9 249.682 1400
      vertex -987.132 227.868 1400
    endloop
  endfacet
  facet normal -0 0 1
    outer loop
      vertex -1024.44 606.671 1400
      vertex -1006.9 249.682 1400
      vertex -1006.9 630.318 1400
    endloop
  endfacet
  facet normal 0 0 1
    outer loop
      vertex -1024.44 606.671 1400
      vertex -1024.44 273.329 1400
      vertex -1006.9 249.682 1400
    endloop
  endfacet
  facet normal -0 0 1
    outer loop
      vertex -1039.58 581.419 1400
      vertex -1024.44 273.329 1400
      vertex -1024.44 606.671 1400
    endloop
  endfacet
  facet normal 0 0 1
    outer loop
      vertex -1039.58 581.419 1400
      vertex -1039.58 298.581 1400
      vertex -1024.44 273.329 1400
    endloop
  endfacet
  facet normal -0 0 1
    outer loop
      vertex -1052.16 554.805 1400
      vertex -1039.58 298.581 1400
      vertex -1039.58 581.419 1400
    endloop
  endfacet
  facet normal 0 0 1
    outer loop
      vertex -1052.16 554.805 1400
      vertex -1052.16 325.195 1400
      vertex -1039.58 298.581 1400
    endloop
  endfacet
  facet normal -0 0 1
    outer loop
      vertex -1062.08 527.085 1400
      vertex -1052.16 325.195 1400
      vertex -1052.16 554.805 1400
    endloop
  endfacet
  facet normal 0 0 1
    outer loop
      vertex -1062.08 527.085 1400
      vertex -1062.08 352.915 1400
      vertex -1052.16 325.195 1400
    endloop
  endfacet
  facet normal -0 0 1
    outer loop
      vertex -1069.24 498.527 1400
      vertex -1062.08 352.915 1400
      vertex -1062.08 527.085 1400
    endloop
  endfacet
  facet normal 0 0 1
    outer loop
      vertex -1069.24 498.527 1400
      vertex -1069.24 381.473 1400
      vertex -1062.08 352.915 1400
    endloop
  endfacet
  facet normal -0 0 1
    outer loop
      vertex -1073.56 469.405 1400
      vertex -1069.24 381.473 1400
      vertex -1069.24 498.527 1400
    endloop
  endfacet
  facet normal 0 0 1
    outer loop
      vertex -1073.56 469.405 1400
      vertex -1073.56 410.595 1400
      vertex -1069.24 381.473 1400
    endloop
  endfacet
  facet normal 0 -0 1
    outer loop
      vertex -1073.56 410.595 1400
      vertex -1073.56 469.405 1400
      vertex -1075 440 1400
    endloop
  endfacet
  facet normal -0.514091 -0.857736 0
    outer loop
      vertex -941.671 190.559 1200
      vertex -916.419 175.424 1400
      vertex -941.671 190.559 1400
    endloop
  endfacet
  facet normal -0.514091 -0.857736 -0
    outer loop
      vertex -916.419 175.424 1400
      vertex -941.671 190.559 1200
      vertex -916.419 175.424 1200
    endloop
  endfacet
  facet normal -0.671558 -0.740952 0
    outer loop
      vertex -987.132 227.868 1200
      vertex -965.318 208.097 1400
      vertex -987.132 227.868 1400
    endloop
  endfacet
  facet normal -0.671558 -0.740952 -0
    outer loop
      vertex -965.318 208.097 1400
      vertex -987.132 227.868 1200
      vertex -965.318 208.097 1200
    endloop
  endfacet
  facet normal -0.989176 0.146736 0
    outer loop
      vertex -1073.56 469.405 1200
      vertex -1069.24 498.527 1400
      vertex -1069.24 498.527 1200
    endloop
  endfacet
  facet normal -0.989176 0.146736 0
    outer loop
      vertex -1069.24 498.527 1400
      vertex -1073.56 469.405 1200
      vertex -1073.56 469.405 1400
    endloop
  endfacet
  facet normal -0.803172 -0.595747 0
    outer loop
      vertex -1006.9 249.682 1200
      vertex -1024.44 273.329 1400
      vertex -1024.44 273.329 1200
    endloop
  endfacet
  facet normal -0.803172 -0.595747 0
    outer loop
      vertex -1024.44 273.329 1400
      vertex -1006.9 249.682 1200
      vertex -1006.9 249.682 1400
    endloop
  endfacet
  facet normal -0.595703 -0.803204 0
    outer loop
      vertex -965.318 208.097 1200
      vertex -941.671 190.559 1400
      vertex -965.318 208.097 1400
    endloop
  endfacet
  facet normal -0.595703 -0.803204 -0
    outer loop
      vertex -941.671 190.559 1400
      vertex -965.318 208.097 1200
      vertex -941.671 190.559 1200
    endloop
  endfacet
  facet normal -0.904088 0.427347 0
    outer loop
      vertex -1052.16 554.805 1200
      vertex -1039.58 581.419 1400
      vertex -1039.58 581.419 1200
    endloop
  endfacet
  facet normal -0.904088 0.427347 0
    outer loop
      vertex -1039.58 581.419 1400
      vertex -1052.16 554.805 1200
      vertex -1052.16 554.805 1400
    endloop
  endfacet
  facet normal -0.998803 -0.0489126 0
    outer loop
      vertex -1073.56 410.595 1200
      vertex -1075 440 1400
      vertex -1075 440 1200
    endloop
  endfacet
  facet normal -0.998803 -0.0489126 0
    outer loop
      vertex -1075 440 1400
      vertex -1073.56 410.595 1200
      vertex -1073.56 410.595 1400
    endloop
  endfacet
  facet normal -0.741003 0.671502 0
    outer loop
      vertex -1006.9 630.318 1200
      vertex -987.132 652.132 1400
      vertex -987.132 652.132 1200
    endloop
  endfacet
  facet normal -0.741003 0.671502 0
    outer loop
      vertex -987.132 652.132 1400
      vertex -1006.9 630.318 1200
      vertex -1006.9 630.318 1400
    endloop
  endfacet
  facet normal -0.741003 -0.671502 0
    outer loop
      vertex -987.132 227.868 1200
      vertex -1006.9 249.682 1400
      vertex -1006.9 249.682 1200
    endloop
  endfacet
  facet normal -0.741003 -0.671502 0
    outer loop
      vertex -1006.9 249.682 1400
      vertex -987.132 227.868 1200
      vertex -987.132 227.868 1400
    endloop
  endfacet
  facet normal -0.941527 -0.336939 0
    outer loop
      vertex -1052.16 325.195 1200
      vertex -1062.08 352.915 1400
      vertex -1062.08 352.915 1200
    endloop
  endfacet
  facet normal -0.941527 -0.336939 0
    outer loop
      vertex -1062.08 352.915 1400
      vertex -1052.16 325.195 1200
      vertex -1052.16 325.195 1400
    endloop
  endfacet
  facet normal -0.595703 0.803204 0
    outer loop
      vertex -941.671 689.441 1200
      vertex -965.318 671.903 1400
      vertex -941.671 689.441 1400
    endloop
  endfacet
  facet normal -0.595703 0.803204 0
    outer loop
      vertex -965.318 671.903 1400
      vertex -941.671 689.441 1200
      vertex -965.318 671.903 1200
    endloop
  endfacet
  facet normal -0.803172 0.595747 0
    outer loop
      vertex -1024.44 606.671 1200
      vertex -1006.9 630.318 1400
      vertex -1006.9 630.318 1200
    endloop
  endfacet
  facet normal -0.803172 0.595747 0
    outer loop
      vertex -1006.9 630.318 1400
      vertex -1024.44 606.671 1200
      vertex -1024.44 606.671 1400
    endloop
  endfacet
  facet normal -0.857661 0.514216 0
    outer loop
      vertex -1039.58 581.419 1200
      vertex -1024.44 606.671 1400
      vertex -1024.44 606.671 1200
    endloop
  endfacet
  facet normal -0.857661 0.514216 0
    outer loop
      vertex -1024.44 606.671 1400
      vertex -1039.58 581.419 1200
      vertex -1039.58 581.419 1400
    endloop
  endfacet
  facet normal -0.989176 -0.146736 0
    outer loop
      vertex -1069.24 381.473 1200
      vertex -1073.56 410.595 1400
      vertex -1073.56 410.595 1200
    endloop
  endfacet
  facet normal -0.989176 -0.146736 0
    outer loop
      vertex -1073.56 410.595 1400
      vertex -1069.24 381.473 1200
      vertex -1069.24 381.473 1400
    endloop
  endfacet
  facet normal -0.671558 0.740952 0
    outer loop
      vertex -965.318 671.903 1200
      vertex -987.132 652.132 1400
      vertex -965.318 671.903 1400
    endloop
  endfacet
  facet normal -0.671558 0.740952 0
    outer loop
      vertex -987.132 652.132 1400
      vertex -965.318 671.903 1200
      vertex -987.132 652.132 1200
    endloop
  endfacet
  facet normal -0.998803 0.0489126 0
    outer loop
      vertex -1075 440 1200
      vertex -1073.56 469.405 1400
      vertex -1073.56 469.405 1200
    endloop
  endfacet
  facet normal -0.998803 0.0489126 0
    outer loop
      vertex -1073.56 469.405 1400
      vertex -1075 440 1200
      vertex -1075 440 1400
    endloop
  endfacet
  facet normal -0.427573 0.903981 0
    outer loop
      vertex -900 712.342 1200
      vertex -916.419 704.576 1400
      vertex -900 712.342 1400
    endloop
  endfacet
  facet normal -0.427573 0.903981 0
    outer loop
      vertex -916.419 704.576 1400
      vertex -900 712.342 1200
      vertex -916.419 704.576 1200
    endloop
  endfacet
  facet normal -0.514091 0.857736 0
    outer loop
      vertex -916.419 704.576 1200
      vertex -941.671 689.441 1400
      vertex -916.419 704.576 1400
    endloop
  endfacet
  facet normal -0.514091 0.857736 0
    outer loop
      vertex -941.671 689.441 1400
      vertex -916.419 704.576 1200
      vertex -941.671 689.441 1200
    endloop
  endfacet
  facet normal -0.427573 -0.903981 0
    outer loop
      vertex -916.419 175.424 1200
      vertex -900 167.658 1400
      vertex -916.419 175.424 1400
    endloop
  endfacet
  facet normal -0.427573 -0.903981 -0
    outer loop
      vertex -900 167.658 1400
      vertex -916.419 175.424 1200
      vertex -900 167.658 1200
    endloop
  endfacet
  facet normal -0.904088 -0.427347 0
    outer loop
      vertex -1039.58 298.581 1200
      vertex -1052.16 325.195 1400
      vertex -1052.16 325.195 1200
    endloop
  endfacet
  facet normal -0.904088 -0.427347 0
    outer loop
      vertex -1052.16 325.195 1400
      vertex -1039.58 298.581 1200
      vertex -1039.58 298.581 1400
    endloop
  endfacet
  facet normal -0.969978 0.243191 0
    outer loop
      vertex -1069.24 498.527 1200
      vertex -1062.08 527.085 1400
      vertex -1062.08 527.085 1200
    endloop
  endfacet
  facet normal -0.969978 0.243191 0
    outer loop
      vertex -1062.08 527.085 1400
      vertex -1069.24 498.527 1200
      vertex -1069.24 498.527 1400
    endloop
  endfacet
  facet normal 0.969978 0.243191 0
    outer loop
      vertex 1069.24 498.527 1400
      vertex 1062.08 527.085 1200
      vertex 1062.08 527.085 1400
    endloop
  endfacet
  facet normal 0.969978 0.243191 0
    outer loop
      vertex 1062.08 527.085 1200
      vertex 1069.24 498.527 1400
      vertex 1069.24 498.527 1200
    endloop
  endfacet
  facet normal 0.857661 0.514216 0
    outer loop
      vertex 1039.58 581.419 1400
      vertex 1024.44 606.671 1200
      vertex 1024.44 606.671 1400
    endloop
  endfacet
  facet normal 0.857661 0.514216 0
    outer loop
      vertex 1024.44 606.671 1200
      vertex 1039.58 581.419 1400
      vertex 1039.58 581.419 1200
    endloop
  endfacet
  facet normal 0.595703 0.803204 -0
    outer loop
      vertex 965.318 671.903 1200
      vertex 941.671 689.441 1400
      vertex 965.318 671.903 1400
    endloop
  endfacet
  facet normal 0.595703 0.803204 0
    outer loop
      vertex 941.671 689.441 1400
      vertex 965.318 671.903 1200
      vertex 941.671 689.441 1200
    endloop
  endfacet
  facet normal 0.904088 0.427347 0
    outer loop
      vertex 1052.16 554.805 1400
      vertex 1039.58 581.419 1200
      vertex 1039.58 581.419 1400
    endloop
  endfacet
  facet normal 0.904088 0.427347 0
    outer loop
      vertex 1039.58 581.419 1200
      vertex 1052.16 554.805 1400
      vertex 1052.16 554.805 1200
    endloop
  endfacet
  facet normal 0.904088 -0.427347 0
    outer loop
      vertex 1039.58 298.581 1400
      vertex 1052.16 325.195 1200
      vertex 1052.16 325.195 1400
    endloop
  endfacet
  facet normal 0.904088 -0.427347 0
    outer loop
      vertex 1052.16 325.195 1200
      vertex 1039.58 298.581 1400
      vertex 1039.58 298.581 1200
    endloop
  endfacet
  facet normal 0.998803 -0.0489126 0
    outer loop
      vertex 1073.56 410.595 1400
      vertex 1075 440 1200
      vertex 1075 440 1400
    endloop
  endfacet
  facet normal 0.998803 -0.0489126 0
    outer loop
      vertex 1075 440 1200
      vertex 1073.56 410.595 1400
      vertex 1073.56 410.595 1200
    endloop
  endfacet
  facet normal 0.998803 0.0489126 0
    outer loop
      vertex 1075 440 1400
      vertex 1073.56 469.405 1200
      vertex 1073.56 469.405 1400
    endloop
  endfacet
  facet normal 0.998803 0.0489126 0
    outer loop
      vertex 1073.56 469.405 1200
      vertex 1075 440 1400
      vertex 1075 440 1200
    endloop
  endfacet
  facet normal 0.989176 0.146736 0
    outer loop
      vertex 1073.56 469.405 1400
      vertex 1069.24 498.527 1200
      vertex 1069.24 498.527 1400
    endloop
  endfacet
  facet normal 0.989176 0.146736 0
    outer loop
      vertex 1069.24 498.527 1200
      vertex 1073.56 469.405 1400
      vertex 1073.56 469.405 1200
    endloop
  endfacet
  facet normal 0.941527 0.336939 0
    outer loop
      vertex 1062.08 527.085 1400
      vertex 1052.16 554.805 1200
      vertex 1052.16 554.805 1400
    endloop
  endfacet
  facet normal 0.941527 0.336939 0
    outer loop
      vertex 1052.16 554.805 1200
      vertex 1062.08 527.085 1400
      vertex 1062.08 527.085 1200
    endloop
  endfacet
  facet normal 0.989176 -0.146736 0
    outer loop
      vertex 1069.24 381.473 1400
      vertex 1073.56 410.595 1200
      vertex 1073.56 410.595 1400
    endloop
  endfacet
  facet normal 0.989176 -0.146736 0
    outer loop
      vertex 1073.56 410.595 1200
      vertex 1069.24 381.473 1400
      vertex 1069.24 381.473 1200
    endloop
  endfacet
  facet normal 0.803172 0.595747 0
    outer loop
      vertex 1024.44 606.671 1400
      vertex 1006.9 630.318 1200
      vertex 1006.9 630.318 1400
    endloop
  endfacet
  facet normal 0.803172 0.595747 0
    outer loop
      vertex 1006.9 630.318 1200
      vertex 1024.44 606.671 1400
      vertex 1024.44 606.671 1200
    endloop
  endfacet
  facet normal 0.514091 0.857736 -0
    outer loop
      vertex 941.671 689.441 1200
      vertex 916.419 704.576 1400
      vertex 941.671 689.441 1400
    endloop
  endfacet
  facet normal 0.514091 0.857736 0
    outer loop
      vertex 916.419 704.576 1400
      vertex 941.671 689.441 1200
      vertex 916.419 704.576 1200
    endloop
  endfacet
  facet normal 0.514091 -0.857736 0
    outer loop
      vertex 916.419 175.424 1200
      vertex 941.671 190.559 1400
      vertex 916.419 175.424 1400
    endloop
  endfacet
  facet normal 0.514091 -0.857736 0
    outer loop
      vertex 941.671 190.559 1400
      vertex 916.419 175.424 1200
      vertex 941.671 190.559 1200
    endloop
  endfacet
  facet normal 0.595703 -0.803204 0
    outer loop
      vertex 941.671 190.559 1200
      vertex 965.318 208.097 1400
      vertex 941.671 190.559 1400
    endloop
  endfacet
  facet normal 0.595703 -0.803204 0
    outer loop
      vertex 965.318 208.097 1400
      vertex 941.671 190.559 1200
      vertex 965.318 208.097 1200
    endloop
  endfacet
  facet normal 0.671558 0.740952 -0
    outer loop
      vertex 987.132 652.132 1200
      vertex 965.318 671.903 1400
      vertex 987.132 652.132 1400
    endloop
  endfacet
  facet normal 0.671558 0.740952 0
    outer loop
      vertex 965.318 671.903 1400
      vertex 987.132 652.132 1200
      vertex 965.318 671.903 1200
    endloop
  endfacet
  facet normal 0.671558 -0.740952 0
    outer loop
      vertex 965.318 208.097 1200
      vertex 987.132 227.868 1400
      vertex 965.318 208.097 1400
    endloop
  endfacet
  facet normal 0.671558 -0.740952 0
    outer loop
      vertex 987.132 227.868 1400
      vertex 965.318 208.097 1200
      vertex 987.132 227.868 1200
    endloop
  endfacet
  facet normal 0.941527 -0.336939 0
    outer loop
      vertex 1052.16 325.195 1400
      vertex 1062.08 352.915 1200
      vertex 1062.08 352.915 1400
    endloop
  endfacet
  facet normal 0.941527 -0.336939 0
    outer loop
      vertex 1062.08 352.915 1200
      vertex 1052.16 325.195 1400
      vertex 1052.16 325.195 1200
    endloop
  endfacet
  facet normal 0 0 -1
    outer loop
      vertex 1073.56 410.595 1200
      vertex 1073.56 469.405 1200
      vertex 1075 440 1200
    endloop
  endfacet
  facet normal 0 0 -1
    outer loop
      vertex 1069.24 381.473 1200
      vertex 1073.56 469.405 1200
      vertex 1073.56 410.595 1200
    endloop
  endfacet
  facet normal 0 0 -1
    outer loop
      vertex 1069.24 381.473 1200
      vertex 1069.24 498.527 1200
      vertex 1073.56 469.405 1200
    endloop
  endfacet
  facet normal 0 0 -1
    outer loop
      vertex 1062.08 352.915 1200
      vertex 1069.24 498.527 1200
      vertex 1069.24 381.473 1200
    endloop
  endfacet
  facet normal 0 0 -1
    outer loop
      vertex 1062.08 352.915 1200
      vertex 1062.08 527.085 1200
      vertex 1069.24 498.527 1200
    endloop
  endfacet
  facet normal 0 0 -1
    outer loop
      vertex 1052.16 325.195 1200
      vertex 1062.08 527.085 1200
      vertex 1062.08 352.915 1200
    endloop
  endfacet
  facet normal 0 0 -1
    outer loop
      vertex 1052.16 325.195 1200
      vertex 1052.16 554.805 1200
      vertex 1062.08 527.085 1200
    endloop
  endfacet
  facet normal 0 0 -1
    outer loop
      vertex 1039.58 298.581 1200
      vertex 1052.16 554.805 1200
      vertex 1052.16 325.195 1200
    endloop
  endfacet
  facet normal 0 0 -1
    outer loop
      vertex 1039.58 298.581 1200
      vertex 1039.58 581.419 1200
      vertex 1052.16 554.805 1200
    endloop
  endfacet
  facet normal 0 0 -1
    outer loop
      vertex 1024.44 273.329 1200
      vertex 1039.58 581.419 1200
      vertex 1039.58 298.581 1200
    endloop
  endfacet
  facet normal 0 0 -1
    outer loop
      vertex 1024.44 273.329 1200
      vertex 1024.44 606.671 1200
      vertex 1039.58 581.419 1200
    endloop
  endfacet
  facet normal 0 0 -1
    outer loop
      vertex 1006.9 249.682 1200
      vertex 1024.44 606.671 1200
      vertex 1024.44 273.329 1200
    endloop
  endfacet
  facet normal 0 0 -1
    outer loop
      vertex 1006.9 249.682 1200
      vertex 1006.9 630.318 1200
      vertex 1024.44 606.671 1200
    endloop
  endfacet
  facet normal 0 0 -1
    outer loop
      vertex 987.132 227.868 1200
      vertex 1006.9 630.318 1200
      vertex 1006.9 249.682 1200
    endloop
  endfacet
  facet normal 0 0 -1
    outer loop
      vertex 987.132 227.868 1200
      vertex 987.132 652.132 1200
      vertex 1006.9 630.318 1200
    endloop
  endfacet
  facet normal 0 0 -1
    outer loop
      vertex 965.318 208.097 1200
      vertex 987.132 652.132 1200
      vertex 987.132 227.868 1200
    endloop
  endfacet
  facet normal 0 0 -1
    outer loop
      vertex 965.318 208.097 1200
      vertex 965.318 671.903 1200
      vertex 987.132 652.132 1200
    endloop
  endfacet
  facet normal 0 0 -1
    outer loop
      vertex 941.671 190.559 1200
      vertex 965.318 671.903 1200
      vertex 965.318 208.097 1200
    endloop
  endfacet
  facet normal 0 0 -1
    outer loop
      vertex 941.671 190.559 1200
      vertex 941.671 689.441 1200
      vertex 965.318 671.903 1200
    endloop
  endfacet
  facet normal 0 0 -1
    outer loop
      vertex 900 167.658 1200
      vertex 941.671 190.559 1200
      vertex 916.419 175.424 1200
    endloop
  endfacet
  facet normal -0 0 -1
    outer loop
      vertex 941.671 190.559 1200
      vertex 900 167.658 1200
      vertex 941.671 689.441 1200
    endloop
  endfacet
  facet normal 0 0 -1
    outer loop
      vertex 900 712.342 1200
      vertex 941.671 689.441 1200
      vertex 900 167.658 1200
    endloop
  endfacet
  facet normal 0 0 -1
    outer loop
      vertex 941.671 689.441 1200
      vertex 900 712.342 1200
      vertex 916.419 704.576 1200
    endloop
  endfacet
  facet normal 0.741003 0.671502 0
    outer loop
      vertex 1006.9 630.318 1400
      vertex 987.132 652.132 1200
      vertex 987.132 652.132 1400
    endloop
  endfacet
  facet normal 0.741003 0.671502 0
    outer loop
      vertex 987.132 652.132 1200
      vertex 1006.9 630.318 1400
      vertex 1006.9 630.318 1200
    endloop
  endfacet
  facet normal 0.969978 -0.243191 0
    outer loop
      vertex 1062.08 352.915 1400
      vertex 1069.24 381.473 1200
      vertex 1069.24 381.473 1400
    endloop
  endfacet
  facet normal 0.969978 -0.243191 0
    outer loop
      vertex 1069.24 381.473 1200
      vertex 1062.08 352.915 1400
      vertex 1062.08 352.915 1200
    endloop
  endfacet
  facet normal 0.803172 -0.595747 0
    outer loop
      vertex 1006.9 249.682 1400
      vertex 1024.44 273.329 1200
      vertex 1024.44 273.329 1400
    endloop
  endfacet
  facet normal 0.803172 -0.595747 0
    outer loop
      vertex 1024.44 273.329 1200
      vertex 1006.9 249.682 1400
      vertex 1006.9 249.682 1200
    endloop
  endfacet
  facet normal 0.427573 0.903981 -0
    outer loop
      vertex 916.419 704.576 1200
      vertex 900 712.342 1400
      vertex 916.419 704.576 1400
    endloop
  endfacet
  facet normal 0.427573 0.903981 0
    outer loop
      vertex 900 712.342 1400
      vertex 916.419 704.576 1200
      vertex 900 712.342 1200
    endloop
  endfacet
  facet normal 0.741003 -0.671502 0
    outer loop
      vertex 987.132 227.868 1400
      vertex 1006.9 249.682 1200
      vertex 1006.9 249.682 1400
    endloop
  endfacet
  facet normal 0.741003 -0.671502 0
    outer loop
      vertex 1006.9 249.682 1200
      vertex 987.132 227.868 1400
      vertex 987.132 227.868 1200
    endloop
  endfacet
  facet normal 0.427573 -0.903981 0
    outer loop
      vertex 900 167.658 1200
      vertex 916.419 175.424 1400
      vertex 900 167.658 1400
    endloop
  endfacet
  facet normal 0.427573 -0.903981 0
    outer loop
      vertex 916.419 175.424 1400
      vertex 900 167.658 1200
      vertex 916.419 175.424 1200
    endloop
  endfacet
  facet normal 0 0 1
    outer loop
      vertex 1073.56 469.405 1400
      vertex 1073.56 410.595 1400
      vertex 1075 440 1400
    endloop
  endfacet
  facet normal 0 0 1
    outer loop
      vertex 1069.24 498.527 1400
      vertex 1073.56 410.595 1400
      vertex 1073.56 469.405 1400
    endloop
  endfacet
  facet normal 0 0 1
    outer loop
      vertex 1069.24 498.527 1400
      vertex 1069.24 381.473 1400
      vertex 1073.56 410.595 1400
    endloop
  endfacet
  facet normal 0 0 1
    outer loop
      vertex 1062.08 527.085 1400
      vertex 1069.24 381.473 1400
      vertex 1069.24 498.527 1400
    endloop
  endfacet
  facet normal 0 0 1
    outer loop
      vertex 1062.08 527.085 1400
      vertex 1062.08 352.915 1400
      vertex 1069.24 381.473 1400
    endloop
  endfacet
  facet normal 0 0 1
    outer loop
      vertex 1052.16 554.805 1400
      vertex 1062.08 352.915 1400
      vertex 1062.08 527.085 1400
    endloop
  endfacet
  facet normal 0 0 1
    outer loop
      vertex 1052.16 554.805 1400
      vertex 1052.16 325.195 1400
      vertex 1062.08 352.915 1400
    endloop
  endfacet
  facet normal 0 0 1
    outer loop
      vertex 1039.58 581.419 1400
      vertex 1052.16 325.195 1400
      vertex 1052.16 554.805 1400
    endloop
  endfacet
  facet normal 0 0 1
    outer loop
      vertex 1039.58 581.419 1400
      vertex 1039.58 298.581 1400
      vertex 1052.16 325.195 1400
    endloop
  endfacet
  facet normal 0 0 1
    outer loop
      vertex 1024.44 606.671 1400
      vertex 1039.58 298.581 1400
      vertex 1039.58 581.419 1400
    endloop
  endfacet
  facet normal 0 0 1
    outer loop
      vertex 1024.44 606.671 1400
      vertex 1024.44 273.329 1400
      vertex 1039.58 298.581 1400
    endloop
  endfacet
  facet normal 0 0 1
    outer loop
      vertex 1006.9 630.318 1400
      vertex 1024.44 273.329 1400
      vertex 1024.44 606.671 1400
    endloop
  endfacet
  facet normal 0 0 1
    outer loop
      vertex 1006.9 630.318 1400
      vertex 1006.9 249.682 1400
      vertex 1024.44 273.329 1400
    endloop
  endfacet
  facet normal 0 0 1
    outer loop
      vertex 987.132 652.132 1400
      vertex 1006.9 249.682 1400
      vertex 1006.9 630.318 1400
    endloop
  endfacet
  facet normal 0 0 1
    outer loop
      vertex 987.132 652.132 1400
      vertex 987.132 227.868 1400
      vertex 1006.9 249.682 1400
    endloop
  endfacet
  facet normal 0 0 1
    outer loop
      vertex 965.318 671.903 1400
      vertex 987.132 227.868 1400
      vertex 987.132 652.132 1400
    endloop
  endfacet
  facet normal 0 0 1
    outer loop
      vertex 965.318 671.903 1400
      vertex 965.318 208.097 1400
      vertex 987.132 227.868 1400
    endloop
  endfacet
  facet normal 0 0 1
    outer loop
      vertex 941.671 689.441 1400
      vertex 965.318 208.097 1400
      vertex 965.318 671.903 1400
    endloop
  endfacet
  facet normal 0 0 1
    outer loop
      vertex 941.671 689.441 1400
      vertex 941.671 190.559 1400
      vertex 965.318 208.097 1400
    endloop
  endfacet
  facet normal 0 0 1
    outer loop
      vertex 900 712.342 1400
      vertex 941.671 689.441 1400
      vertex 916.419 704.576 1400
    endloop
  endfacet
  facet normal 0 0 1
    outer loop
      vertex 941.671 689.441 1400
      vertex 900 712.342 1400
      vertex 941.671 190.559 1400
    endloop
  endfacet
  facet normal 0 0 1
    outer loop
      vertex 900 167.658 1400
      vertex 941.671 190.559 1400
      vertex 900 712.342 1400
    endloop
  endfacet
  facet normal 0 0 1
    outer loop
      vertex 941.671 190.559 1400
      vertex 900 167.658 1400
      vertex 916.419 175.424 1400
    endloop
  endfacet
  facet normal 0.857661 -0.514216 0
    outer loop
      vertex 1024.44 273.329 1400
      vertex 1039.58 298.581 1200
      vertex 1039.58 298.581 1400
    endloop
  endfacet
  facet normal 0.857661 -0.514216 0
    outer loop
      vertex 1039.58 298.581 1200
      vertex 1024.44 273.329 1400
      vertex 1024.44 273.329 1200
    endloop
  endfacet
endsolid OpenSCAD_Model
