solid OpenSCAD_Model
  facet normal -0.866025 0.500001 0
    outer loop
      vertex -6.5 0 0
      vertex -3.25 5.62915 5.3
      vertex -3.25 5.62915 0
    endloop
  endfacet
  facet normal -0.866025 0.500001 0
    outer loop
      vertex -3.25 5.62915 5.3
      vertex -6.5 0 0
      vertex -6.5 0 5.3
    endloop
  endfacet
  facet normal 0 0 -1
    outer loop
      vertex 3.25 -5.62915 0
      vertex 3.25 5.62915 0
      vertex 6.5 0 0
    endloop
  endfacet
  facet normal 0 0 -1
    outer loop
      vertex -3.25 -5.62915 0
      vertex 3.25 5.62915 0
      vertex 3.25 -5.62915 0
    endloop
  endfacet
  facet normal 0 0 -1
    outer loop
      vertex -3.25 -5.62915 0
      vertex -3.25 5.62915 0
      vertex 3.25 5.62915 0
    endloop
  endfacet
  facet normal 0 -0 -1
    outer loop
      vertex -3.25 5.62915 0
      vertex -3.25 -5.62915 0
      vertex -6.5 0 0
    endloop
  endfacet
  facet normal 0.866025 -0.500001 0
    outer loop
      vertex 3.25 -5.62915 5.3
      vertex 6.5 0 0
      vertex 6.5 0 5.3
    endloop
  endfacet
  facet normal 0.866025 -0.500001 0
    outer loop
      vertex 6.5 0 0
      vertex 3.25 -5.62915 5.3
      vertex 3.25 -5.62915 0
    endloop
  endfacet
  facet normal 0 0 1
    outer loop
      vertex 6.5 0 5.3
      vertex 3.98074 0.392068 5.3
      vertex 4 0 5.3
    endloop
  endfacet
  facet normal 0 0 1
    outer loop
      vertex 6.5 0 5.3
      vertex 3.92314 0.780361 5.3
      vertex 3.98074 0.392068 5.3
    endloop
  endfacet
  facet normal 0 0 1
    outer loop
      vertex 6.5 0 5.3
      vertex 3.82776 1.16114 5.3
      vertex 3.92314 0.780361 5.3
    endloop
  endfacet
  facet normal 0 0 1
    outer loop
      vertex 6.5 0 5.3
      vertex 3.69552 1.53073 5.3
      vertex 3.82776 1.16114 5.3
    endloop
  endfacet
  facet normal 0 0 1
    outer loop
      vertex 6.5 0 5.3
      vertex 3.52768 1.88559 5.3
      vertex 3.69552 1.53073 5.3
    endloop
  endfacet
  facet normal 0 0 1
    outer loop
      vertex 3.25 5.62915 5.3
      vertex 3.52768 1.88559 5.3
      vertex 6.5 0 5.3
    endloop
  endfacet
  facet normal 0 0 1
    outer loop
      vertex 3.52768 1.88559 5.3
      vertex 3.25 5.62915 5.3
      vertex 3.32588 2.22228 5.3
    endloop
  endfacet
  facet normal 0 0 1
    outer loop
      vertex 3.25 5.62915 5.3
      vertex 3.09204 2.53757 5.3
      vertex 3.32588 2.22228 5.3
    endloop
  endfacet
  facet normal 0 0 1
    outer loop
      vertex 3.25 5.62915 5.3
      vertex 2.82843 2.82843 5.3
      vertex 3.09204 2.53757 5.3
    endloop
  endfacet
  facet normal 0 0 1
    outer loop
      vertex 3.25 5.62915 5.3
      vertex 2.53757 3.09204 5.3
      vertex 2.82843 2.82843 5.3
    endloop
  endfacet
  facet normal 0 0 1
    outer loop
      vertex 3.25 5.62915 5.3
      vertex 2.22228 3.32588 5.3
      vertex 2.53757 3.09204 5.3
    endloop
  endfacet
  facet normal 0 0 1
    outer loop
      vertex 3.25 5.62915 5.3
      vertex 1.88559 3.52768 5.3
      vertex 2.22228 3.32588 5.3
    endloop
  endfacet
  facet normal 0 0 1
    outer loop
      vertex 3.25 5.62915 5.3
      vertex 1.53073 3.69552 5.3
      vertex 1.88559 3.52768 5.3
    endloop
  endfacet
  facet normal 0 0 1
    outer loop
      vertex 3.25 5.62915 5.3
      vertex 1.16114 3.82776 5.3
      vertex 1.53073 3.69552 5.3
    endloop
  endfacet
  facet normal 0 0 1
    outer loop
      vertex 3.25 5.62915 5.3
      vertex 0.780361 3.92314 5.3
      vertex 1.16114 3.82776 5.3
    endloop
  endfacet
  facet normal 0 0 1
    outer loop
      vertex 3.25 5.62915 5.3
      vertex 0.392068 3.98074 5.3
      vertex 0.780361 3.92314 5.3
    endloop
  endfacet
  facet normal 0 0 1
    outer loop
      vertex 3.25 5.62915 5.3
      vertex 0 4 5.3
      vertex 0.392068 3.98074 5.3
    endloop
  endfacet
  facet normal -0 0 1
    outer loop
      vertex -3.25 5.62915 5.3
      vertex 0 4 5.3
      vertex 3.25 5.62915 5.3
    endloop
  endfacet
  facet normal 0 0 1
    outer loop
      vertex 0 4 5.3
      vertex -3.25 5.62915 5.3
      vertex -0.392068 3.98074 5.3
    endloop
  endfacet
  facet normal 0 0 1
    outer loop
      vertex -0.392068 3.98074 5.3
      vertex -3.25 5.62915 5.3
      vertex -0.780361 3.92314 5.3
    endloop
  endfacet
  facet normal 0 0 1
    outer loop
      vertex -0.780361 3.92314 5.3
      vertex -3.25 5.62915 5.3
      vertex -1.16114 3.82776 5.3
    endloop
  endfacet
  facet normal 0 0 1
    outer loop
      vertex -1.16114 3.82776 5.3
      vertex -3.25 5.62915 5.3
      vertex -1.53073 3.69552 5.3
    endloop
  endfacet
  facet normal 0 0 1
    outer loop
      vertex -3.25 5.62915 5.3
      vertex -1.88559 3.52768 5.3
      vertex -1.53073 3.69552 5.3
    endloop
  endfacet
  facet normal 0 0 1
    outer loop
      vertex -3.25 5.62915 5.3
      vertex -2.22228 3.32588 5.3
      vertex -1.88559 3.52768 5.3
    endloop
  endfacet
  facet normal 0 0 1
    outer loop
      vertex -3.25 5.62915 5.3
      vertex -2.53757 3.09204 5.3
      vertex -2.22228 3.32588 5.3
    endloop
  endfacet
  facet normal 0 0 1
    outer loop
      vertex -3.25 5.62915 5.3
      vertex -2.82843 2.82843 5.3
      vertex -2.53757 3.09204 5.3
    endloop
  endfacet
  facet normal 0 0 1
    outer loop
      vertex -3.25 5.62915 5.3
      vertex -3.09204 2.53757 5.3
      vertex -2.82843 2.82843 5.3
    endloop
  endfacet
  facet normal 0 0 1
    outer loop
      vertex -3.25 5.62915 5.3
      vertex -3.32588 2.22228 5.3
      vertex -3.09204 2.53757 5.3
    endloop
  endfacet
  facet normal 0 0 1
    outer loop
      vertex -3.25 5.62915 5.3
      vertex -3.52768 1.88559 5.3
      vertex -3.32588 2.22228 5.3
    endloop
  endfacet
  facet normal 0 0 1
    outer loop
      vertex -6.5 0 5.3
      vertex -3.52768 1.88559 5.3
      vertex -3.25 5.62915 5.3
    endloop
  endfacet
  facet normal 0 0 1
    outer loop
      vertex -3.52768 1.88559 5.3
      vertex -6.5 0 5.3
      vertex -3.69552 1.53073 5.3
    endloop
  endfacet
  facet normal 0 0 1
    outer loop
      vertex -3.69552 1.53073 5.3
      vertex -6.5 0 5.3
      vertex -3.82776 1.16114 5.3
    endloop
  endfacet
  facet normal 0 0 1
    outer loop
      vertex -3.82776 1.16114 5.3
      vertex -6.5 0 5.3
      vertex -3.92314 0.780361 5.3
    endloop
  endfacet
  facet normal 0 0 1
    outer loop
      vertex -3.98074 0.392068 5.3
      vertex -6.5 0 5.3
      vertex -4 0 5.3
    endloop
  endfacet
  facet normal 0 0 1
    outer loop
      vertex -3.92314 0.780361 5.3
      vertex -6.5 0 5.3
      vertex -3.98074 0.392068 5.3
    endloop
  endfacet
  facet normal 0 0 1
    outer loop
      vertex 3.98074 -0.392068 5.3
      vertex 6.5 0 5.3
      vertex 4 0 5.3
    endloop
  endfacet
  facet normal 0 0 1
    outer loop
      vertex 3.92314 -0.780361 5.3
      vertex 6.5 0 5.3
      vertex 3.98074 -0.392068 5.3
    endloop
  endfacet
  facet normal 0 0 1
    outer loop
      vertex 3.82776 -1.16114 5.3
      vertex 6.5 0 5.3
      vertex 3.92314 -0.780361 5.3
    endloop
  endfacet
  facet normal 0 0 1
    outer loop
      vertex 3.69552 -1.53073 5.3
      vertex 6.5 0 5.3
      vertex 3.82776 -1.16114 5.3
    endloop
  endfacet
  facet normal 0 0 1
    outer loop
      vertex 3.52768 -1.88559 5.3
      vertex 6.5 0 5.3
      vertex 3.69552 -1.53073 5.3
    endloop
  endfacet
  facet normal 0 0 1
    outer loop
      vertex 3.25 -5.62915 5.3
      vertex 3.52768 -1.88559 5.3
      vertex 3.32588 -2.22228 5.3
    endloop
  endfacet
  facet normal -0 0 1
    outer loop
      vertex 3.52768 -1.88559 5.3
      vertex 3.25 -5.62915 5.3
      vertex 6.5 0 5.3
    endloop
  endfacet
  facet normal -0 0 1
    outer loop
      vertex 3.09204 -2.53757 5.3
      vertex 3.25 -5.62915 5.3
      vertex 3.32588 -2.22228 5.3
    endloop
  endfacet
  facet normal -0 0 1
    outer loop
      vertex 2.82843 -2.82843 5.3
      vertex 3.25 -5.62915 5.3
      vertex 3.09204 -2.53757 5.3
    endloop
  endfacet
  facet normal -0 0 1
    outer loop
      vertex 2.53757 -3.09204 5.3
      vertex 3.25 -5.62915 5.3
      vertex 2.82843 -2.82843 5.3
    endloop
  endfacet
  facet normal -0 0 1
    outer loop
      vertex 2.22228 -3.32588 5.3
      vertex 3.25 -5.62915 5.3
      vertex 2.53757 -3.09204 5.3
    endloop
  endfacet
  facet normal -0 0 1
    outer loop
      vertex 1.88559 -3.52768 5.3
      vertex 3.25 -5.62915 5.3
      vertex 2.22228 -3.32588 5.3
    endloop
  endfacet
  facet normal -0 0 1
    outer loop
      vertex 1.53073 -3.69552 5.3
      vertex 3.25 -5.62915 5.3
      vertex 1.88559 -3.52768 5.3
    endloop
  endfacet
  facet normal -0 0 1
    outer loop
      vertex 1.16114 -3.82776 5.3
      vertex 3.25 -5.62915 5.3
      vertex 1.53073 -3.69552 5.3
    endloop
  endfacet
  facet normal -0 0 1
    outer loop
      vertex 0.780361 -3.92314 5.3
      vertex 3.25 -5.62915 5.3
      vertex 1.16114 -3.82776 5.3
    endloop
  endfacet
  facet normal -0 0 1
    outer loop
      vertex 0.392068 -3.98074 5.3
      vertex 3.25 -5.62915 5.3
      vertex 0.780361 -3.92314 5.3
    endloop
  endfacet
  facet normal -0 0 1
    outer loop
      vertex 0 -4 5.3
      vertex 3.25 -5.62915 5.3
      vertex 0.392068 -3.98074 5.3
    endloop
  endfacet
  facet normal 0 0 1
    outer loop
      vertex -3.25 -5.62915 5.3
      vertex 0 -4 5.3
      vertex -0.392068 -3.98074 5.3
    endloop
  endfacet
  facet normal 0 0 1
    outer loop
      vertex -3.25 -5.62915 5.3
      vertex -0.392068 -3.98074 5.3
      vertex -0.780361 -3.92314 5.3
    endloop
  endfacet
  facet normal 0 0 1
    outer loop
      vertex -3.25 -5.62915 5.3
      vertex -0.780361 -3.92314 5.3
      vertex -1.16114 -3.82776 5.3
    endloop
  endfacet
  facet normal 0 0 1
    outer loop
      vertex -3.25 -5.62915 5.3
      vertex -1.16114 -3.82776 5.3
      vertex -1.53073 -3.69552 5.3
    endloop
  endfacet
  facet normal 0 0 1
    outer loop
      vertex 0 -4 5.3
      vertex -3.25 -5.62915 5.3
      vertex 3.25 -5.62915 5.3
    endloop
  endfacet
  facet normal 0 0 1
    outer loop
      vertex -1.88559 -3.52768 5.3
      vertex -3.25 -5.62915 5.3
      vertex -1.53073 -3.69552 5.3
    endloop
  endfacet
  facet normal 0 0 1
    outer loop
      vertex -2.22228 -3.32588 5.3
      vertex -3.25 -5.62915 5.3
      vertex -1.88559 -3.52768 5.3
    endloop
  endfacet
  facet normal 0 0 1
    outer loop
      vertex -2.53757 -3.09204 5.3
      vertex -3.25 -5.62915 5.3
      vertex -2.22228 -3.32588 5.3
    endloop
  endfacet
  facet normal 0 0 1
    outer loop
      vertex -2.82843 -2.82843 5.3
      vertex -3.25 -5.62915 5.3
      vertex -2.53757 -3.09204 5.3
    endloop
  endfacet
  facet normal 0 0 1
    outer loop
      vertex -3.09204 -2.53757 5.3
      vertex -3.25 -5.62915 5.3
      vertex -2.82843 -2.82843 5.3
    endloop
  endfacet
  facet normal 0 0 1
    outer loop
      vertex -3.32588 -2.22228 5.3
      vertex -3.25 -5.62915 5.3
      vertex -3.09204 -2.53757 5.3
    endloop
  endfacet
  facet normal 0 0 1
    outer loop
      vertex -3.52768 -1.88559 5.3
      vertex -3.25 -5.62915 5.3
      vertex -3.32588 -2.22228 5.3
    endloop
  endfacet
  facet normal 0 0 1
    outer loop
      vertex -6.5 0 5.3
      vertex -3.52768 -1.88559 5.3
      vertex -3.69552 -1.53073 5.3
    endloop
  endfacet
  facet normal 0 0 1
    outer loop
      vertex -6.5 0 5.3
      vertex -3.69552 -1.53073 5.3
      vertex -3.82776 -1.16114 5.3
    endloop
  endfacet
  facet normal 0 0 1
    outer loop
      vertex -6.5 0 5.3
      vertex -3.82776 -1.16114 5.3
      vertex -3.92314 -0.780361 5.3
    endloop
  endfacet
  facet normal 0 0 1
    outer loop
      vertex -6.5 0 5.3
      vertex -3.92314 -0.780361 5.3
      vertex -3.98074 -0.392068 5.3
    endloop
  endfacet
  facet normal 0 0 1
    outer loop
      vertex -3.52768 -1.88559 5.3
      vertex -6.5 0 5.3
      vertex -3.25 -5.62915 5.3
    endloop
  endfacet
  facet normal -0 0 1
    outer loop
      vertex -6.5 0 5.3
      vertex -3.98074 -0.392068 5.3
      vertex -4 0 5.3
    endloop
  endfacet
  facet normal 0 1 -0
    outer loop
      vertex 3.25 5.62915 0
      vertex -3.25 5.62915 5.3
      vertex 3.25 5.62915 5.3
    endloop
  endfacet
  facet normal 0 1 0
    outer loop
      vertex -3.25 5.62915 5.3
      vertex 3.25 5.62915 0
      vertex -3.25 5.62915 0
    endloop
  endfacet
  facet normal -0.866025 -0.500001 0
    outer loop
      vertex -3.25 -5.62915 0
      vertex -6.5 0 5.3
      vertex -6.5 0 0
    endloop
  endfacet
  facet normal -0.866025 -0.500001 0
    outer loop
      vertex -6.5 0 5.3
      vertex -3.25 -5.62915 0
      vertex -3.25 -5.62915 5.3
    endloop
  endfacet
  facet normal 0 -1 0
    outer loop
      vertex -3.25 -5.62915 0
      vertex 3.25 -5.62915 5.3
      vertex -3.25 -5.62915 5.3
    endloop
  endfacet
  facet normal 0 -1 -0
    outer loop
      vertex 3.25 -5.62915 5.3
      vertex -3.25 -5.62915 0
      vertex 3.25 -5.62915 0
    endloop
  endfacet
  facet normal 0.866025 0.500001 0
    outer loop
      vertex 6.5 0 5.3
      vertex 3.25 5.62915 0
      vertex 3.25 5.62915 5.3
    endloop
  endfacet
  facet normal 0.866025 0.500001 0
    outer loop
      vertex 3.25 5.62915 0
      vertex 6.5 0 5.3
      vertex 6.5 0 0
    endloop
  endfacet
  facet normal -0.427563 -0.903986 0
    outer loop
      vertex -1.88559 -3.52768 5.3
      vertex -1.53073 -3.69552 45.3
      vertex -1.88559 -3.52768 45.3
    endloop
  endfacet
  facet normal -0.427563 -0.903986 -0
    outer loop
      vertex -1.53073 -3.69552 45.3
      vertex -1.88559 -3.52768 5.3
      vertex -1.53073 -3.69552 5.3
    endloop
  endfacet
  facet normal 0.989176 0.146736 0
    outer loop
      vertex 3.98074 0.392068 45.3
      vertex 3.92314 0.780361 5.3
      vertex 3.92314 0.780361 45.3
    endloop
  endfacet
  facet normal 0.989176 0.146736 0
    outer loop
      vertex 3.92314 0.780361 5.3
      vertex 3.98074 0.392068 45.3
      vertex 3.98074 0.392068 5.3
    endloop
  endfacet
  facet normal 0.998796 0.049065 0
    outer loop
      vertex 4 0 45.3
      vertex 3.98074 0.392068 5.3
      vertex 3.98074 0.392068 45.3
    endloop
  endfacet
  facet normal 0.998796 0.049065 0
    outer loop
      vertex 3.98074 0.392068 5.3
      vertex 4 0 45.3
      vertex 4 0 5.3
    endloop
  endfacet
  facet normal 0.970031 0.24298 0
    outer loop
      vertex 3.92314 0.780361 45.3
      vertex 3.82776 1.16114 5.3
      vertex 3.82776 1.16114 45.3
    endloop
  endfacet
  facet normal 0.970031 0.24298 0
    outer loop
      vertex 3.82776 1.16114 5.3
      vertex 3.92314 0.780361 45.3
      vertex 3.92314 0.780361 5.3
    endloop
  endfacet
  facet normal 0.427563 -0.903986 0
    outer loop
      vertex 1.53073 -3.69552 5.3
      vertex 1.88559 -3.52768 45.3
      vertex 1.53073 -3.69552 45.3
    endloop
  endfacet
  facet normal 0.427563 -0.903986 0
    outer loop
      vertex 1.88559 -3.52768 45.3
      vertex 1.53073 -3.69552 5.3
      vertex 1.88559 -3.52768 5.3
    endloop
  endfacet
  facet normal -0.671545 0.740964 0
    outer loop
      vertex -2.53757 3.09204 5.3
      vertex -2.82843 2.82843 45.3
      vertex -2.53757 3.09204 45.3
    endloop
  endfacet
  facet normal -0.671545 0.740964 0
    outer loop
      vertex -2.82843 2.82843 45.3
      vertex -2.53757 3.09204 5.3
      vertex -2.82843 2.82843 5.3
    endloop
  endfacet
  facet normal -0.970031 -0.24298 0
    outer loop
      vertex -3.82776 -1.16114 5.3
      vertex -3.92314 -0.780361 45.3
      vertex -3.92314 -0.780361 5.3
    endloop
  endfacet
  facet normal -0.970031 -0.24298 0
    outer loop
      vertex -3.92314 -0.780361 45.3
      vertex -3.82776 -1.16114 5.3
      vertex -3.82776 -1.16114 45.3
    endloop
  endfacet
  facet normal 0.427563 0.903986 -0
    outer loop
      vertex 1.88559 3.52768 5.3
      vertex 1.53073 3.69552 45.3
      vertex 1.88559 3.52768 45.3
    endloop
  endfacet
  facet normal 0.427563 0.903986 0
    outer loop
      vertex 1.53073 3.69552 45.3
      vertex 1.88559 3.52768 5.3
      vertex 1.53073 3.69552 5.3
    endloop
  endfacet
  facet normal -0.989176 0.146736 0
    outer loop
      vertex -3.98074 0.392068 5.3
      vertex -3.92314 0.780361 45.3
      vertex -3.92314 0.780361 5.3
    endloop
  endfacet
  facet normal -0.989176 0.146736 0
    outer loop
      vertex -3.92314 0.780361 45.3
      vertex -3.98074 0.392068 5.3
      vertex -3.98074 0.392068 45.3
    endloop
  endfacet
  facet normal -0.146736 -0.989176 0
    outer loop
      vertex -0.780361 -3.92314 5.3
      vertex -0.392068 -3.98074 45.3
      vertex -0.780361 -3.92314 45.3
    endloop
  endfacet
  facet normal -0.146736 -0.989176 -0
    outer loop
      vertex -0.392068 -3.98074 45.3
      vertex -0.780361 -3.92314 5.3
      vertex -0.392068 -3.98074 5.3
    endloop
  endfacet
  facet normal 0.24298 0.970031 -0
    outer loop
      vertex 1.16114 3.82776 5.3
      vertex 0.780361 3.92314 45.3
      vertex 1.16114 3.82776 45.3
    endloop
  endfacet
  facet normal 0.24298 0.970031 0
    outer loop
      vertex 0.780361 3.92314 45.3
      vertex 1.16114 3.82776 5.3
      vertex 0.780361 3.92314 5.3
    endloop
  endfacet
  facet normal -0.740964 0.671545 0
    outer loop
      vertex -3.09204 2.53757 5.3
      vertex -2.82843 2.82843 45.3
      vertex -2.82843 2.82843 5.3
    endloop
  endfacet
  facet normal -0.740964 0.671545 0
    outer loop
      vertex -2.82843 2.82843 45.3
      vertex -3.09204 2.53757 5.3
      vertex -3.09204 2.53757 45.3
    endloop
  endfacet
  facet normal 0.514095 -0.857733 0
    outer loop
      vertex 1.88559 -3.52768 5.3
      vertex 2.22228 -3.32588 45.3
      vertex 1.88559 -3.52768 45.3
    endloop
  endfacet
  facet normal 0.514095 -0.857733 0
    outer loop
      vertex 2.22228 -3.32588 45.3
      vertex 1.88559 -3.52768 5.3
      vertex 2.22228 -3.32588 5.3
    endloop
  endfacet
  facet normal -0.24298 -0.970031 0
    outer loop
      vertex -1.16114 -3.82776 5.3
      vertex -0.780361 -3.92314 45.3
      vertex -1.16114 -3.82776 45.3
    endloop
  endfacet
  facet normal -0.24298 -0.970031 -0
    outer loop
      vertex -0.780361 -3.92314 45.3
      vertex -1.16114 -3.82776 5.3
      vertex -0.780361 -3.92314 5.3
    endloop
  endfacet
  facet normal -0.336887 0.941545 0
    outer loop
      vertex -1.16114 3.82776 5.3
      vertex -1.53073 3.69552 45.3
      vertex -1.16114 3.82776 45.3
    endloop
  endfacet
  facet normal -0.336887 0.941545 0
    outer loop
      vertex -1.53073 3.69552 45.3
      vertex -1.16114 3.82776 5.3
      vertex -1.53073 3.69552 5.3
    endloop
  endfacet
  facet normal 0.049065 -0.998796 0
    outer loop
      vertex 0 -4 5.3
      vertex 0.392068 -3.98074 45.3
      vertex 0 -4 45.3
    endloop
  endfacet
  facet normal 0.049065 -0.998796 0
    outer loop
      vertex 0.392068 -3.98074 45.3
      vertex 0 -4 5.3
      vertex 0.392068 -3.98074 5.3
    endloop
  endfacet
  facet normal 0.146736 -0.989176 0
    outer loop
      vertex 0.392068 -3.98074 5.3
      vertex 0.780361 -3.92314 45.3
      vertex 0.392068 -3.98074 45.3
    endloop
  endfacet
  facet normal 0.146736 -0.989176 0
    outer loop
      vertex 0.780361 -3.92314 45.3
      vertex 0.392068 -3.98074 5.3
      vertex 0.780361 -3.92314 5.3
    endloop
  endfacet
  facet normal -0.049065 0.998796 0
    outer loop
      vertex 0 4 5.3
      vertex -0.392068 3.98074 45.3
      vertex 0 4 45.3
    endloop
  endfacet
  facet normal -0.049065 0.998796 0
    outer loop
      vertex -0.392068 3.98074 45.3
      vertex 0 4 5.3
      vertex -0.392068 3.98074 5.3
    endloop
  endfacet
  facet normal -0.595708 -0.803201 0
    outer loop
      vertex -2.53757 -3.09204 5.3
      vertex -2.22228 -3.32588 45.3
      vertex -2.53757 -3.09204 45.3
    endloop
  endfacet
  facet normal -0.595708 -0.803201 -0
    outer loop
      vertex -2.22228 -3.32588 45.3
      vertex -2.53757 -3.09204 5.3
      vertex -2.22228 -3.32588 5.3
    endloop
  endfacet
  facet normal -0.903986 -0.427563 0
    outer loop
      vertex -3.52768 -1.88559 5.3
      vertex -3.69552 -1.53073 45.3
      vertex -3.69552 -1.53073 5.3
    endloop
  endfacet
  facet normal -0.903986 -0.427563 0
    outer loop
      vertex -3.69552 -1.53073 45.3
      vertex -3.52768 -1.88559 5.3
      vertex -3.52768 -1.88559 45.3
    endloop
  endfacet
  facet normal -0.146736 0.989176 0
    outer loop
      vertex -0.392068 3.98074 5.3
      vertex -0.780361 3.92314 45.3
      vertex -0.392068 3.98074 45.3
    endloop
  endfacet
  facet normal -0.146736 0.989176 0
    outer loop
      vertex -0.780361 3.92314 45.3
      vertex -0.392068 3.98074 5.3
      vertex -0.780361 3.92314 5.3
    endloop
  endfacet
  facet normal 0.595708 -0.803201 0
    outer loop
      vertex 2.22228 -3.32588 5.3
      vertex 2.53757 -3.09204 45.3
      vertex 2.22228 -3.32588 45.3
    endloop
  endfacet
  facet normal 0.595708 -0.803201 0
    outer loop
      vertex 2.53757 -3.09204 45.3
      vertex 2.22228 -3.32588 5.3
      vertex 2.53757 -3.09204 5.3
    endloop
  endfacet
  facet normal 0.049065 0.998796 -0
    outer loop
      vertex 0.392068 3.98074 5.3
      vertex 0 4 45.3
      vertex 0.392068 3.98074 45.3
    endloop
  endfacet
  facet normal 0.049065 0.998796 0
    outer loop
      vertex 0 4 45.3
      vertex 0.392068 3.98074 5.3
      vertex 0 4 5.3
    endloop
  endfacet
  facet normal 0.514095 0.857733 -0
    outer loop
      vertex 2.22228 3.32588 5.3
      vertex 1.88559 3.52768 45.3
      vertex 2.22228 3.32588 45.3
    endloop
  endfacet
  facet normal 0.514095 0.857733 0
    outer loop
      vertex 1.88559 3.52768 45.3
      vertex 2.22228 3.32588 5.3
      vertex 1.88559 3.52768 5.3
    endloop
  endfacet
  facet normal -0.998796 -0.049065 0
    outer loop
      vertex -3.98074 -0.392068 5.3
      vertex -4 0 45.3
      vertex -4 0 5.3
    endloop
  endfacet
  facet normal -0.998796 -0.049065 0
    outer loop
      vertex -4 0 45.3
      vertex -3.98074 -0.392068 5.3
      vertex -3.98074 -0.392068 45.3
    endloop
  endfacet
  facet normal 0.970031 -0.24298 0
    outer loop
      vertex 3.82776 -1.16114 45.3
      vertex 3.92314 -0.780361 5.3
      vertex 3.92314 -0.780361 45.3
    endloop
  endfacet
  facet normal 0.970031 -0.24298 0
    outer loop
      vertex 3.92314 -0.780361 5.3
      vertex 3.82776 -1.16114 45.3
      vertex 3.82776 -1.16114 5.3
    endloop
  endfacet
  facet normal 0.740964 0.671545 0
    outer loop
      vertex 3.09204 2.53757 45.3
      vertex 2.82843 2.82843 5.3
      vertex 2.82843 2.82843 45.3
    endloop
  endfacet
  facet normal 0.740964 0.671545 0
    outer loop
      vertex 2.82843 2.82843 5.3
      vertex 3.09204 2.53757 45.3
      vertex 3.09204 2.53757 5.3
    endloop
  endfacet
  facet normal 0.595708 0.803201 -0
    outer loop
      vertex 2.53757 3.09204 5.3
      vertex 2.22228 3.32588 45.3
      vertex 2.53757 3.09204 45.3
    endloop
  endfacet
  facet normal 0.595708 0.803201 0
    outer loop
      vertex 2.22228 3.32588 45.3
      vertex 2.53757 3.09204 5.3
      vertex 2.22228 3.32588 5.3
    endloop
  endfacet
  facet normal -0.595708 0.803201 0
    outer loop
      vertex -2.22228 3.32588 5.3
      vertex -2.53757 3.09204 45.3
      vertex -2.22228 3.32588 45.3
    endloop
  endfacet
  facet normal -0.595708 0.803201 0
    outer loop
      vertex -2.53757 3.09204 45.3
      vertex -2.22228 3.32588 5.3
      vertex -2.53757 3.09204 5.3
    endloop
  endfacet
  facet normal 0.803201 0.595708 0
    outer loop
      vertex 3.32588 2.22228 45.3
      vertex 3.09204 2.53757 5.3
      vertex 3.09204 2.53757 45.3
    endloop
  endfacet
  facet normal 0.803201 0.595708 0
    outer loop
      vertex 3.09204 2.53757 5.3
      vertex 3.32588 2.22228 45.3
      vertex 3.32588 2.22228 5.3
    endloop
  endfacet
  facet normal 0.989176 -0.146736 0
    outer loop
      vertex 3.92314 -0.780361 45.3
      vertex 3.98074 -0.392068 5.3
      vertex 3.98074 -0.392068 45.3
    endloop
  endfacet
  facet normal 0.989176 -0.146736 0
    outer loop
      vertex 3.98074 -0.392068 5.3
      vertex 3.92314 -0.780361 45.3
      vertex 3.92314 -0.780361 5.3
    endloop
  endfacet
  facet normal -0.941545 0.336887 0
    outer loop
      vertex -3.82776 1.16114 5.3
      vertex -3.69552 1.53073 45.3
      vertex -3.69552 1.53073 5.3
    endloop
  endfacet
  facet normal -0.941545 0.336887 0
    outer loop
      vertex -3.69552 1.53073 45.3
      vertex -3.82776 1.16114 5.3
      vertex -3.82776 1.16114 45.3
    endloop
  endfacet
  facet normal 0.903986 -0.427563 0
    outer loop
      vertex 3.52768 -1.88559 45.3
      vertex 3.69552 -1.53073 5.3
      vertex 3.69552 -1.53073 45.3
    endloop
  endfacet
  facet normal 0.903986 -0.427563 0
    outer loop
      vertex 3.69552 -1.53073 5.3
      vertex 3.52768 -1.88559 45.3
      vertex 3.52768 -1.88559 5.3
    endloop
  endfacet
  facet normal 0.336887 0.941545 -0
    outer loop
      vertex 1.53073 3.69552 5.3
      vertex 1.16114 3.82776 45.3
      vertex 1.53073 3.69552 45.3
    endloop
  endfacet
  facet normal 0.336887 0.941545 0
    outer loop
      vertex 1.16114 3.82776 45.3
      vertex 1.53073 3.69552 5.3
      vertex 1.16114 3.82776 5.3
    endloop
  endfacet
  facet normal 0.998796 -0.049065 0
    outer loop
      vertex 3.98074 -0.392068 45.3
      vertex 4 0 5.3
      vertex 4 0 45.3
    endloop
  endfacet
  facet normal 0.998796 -0.049065 0
    outer loop
      vertex 4 0 5.3
      vertex 3.98074 -0.392068 45.3
      vertex 3.98074 -0.392068 5.3
    endloop
  endfacet
  facet normal 0.336887 -0.941545 0
    outer loop
      vertex 1.16114 -3.82776 5.3
      vertex 1.53073 -3.69552 45.3
      vertex 1.16114 -3.82776 45.3
    endloop
  endfacet
  facet normal 0.336887 -0.941545 0
    outer loop
      vertex 1.53073 -3.69552 45.3
      vertex 1.16114 -3.82776 5.3
      vertex 1.53073 -3.69552 5.3
    endloop
  endfacet
  facet normal 0.941545 0.336887 0
    outer loop
      vertex 3.82776 1.16114 45.3
      vertex 3.69552 1.53073 5.3
      vertex 3.69552 1.53073 45.3
    endloop
  endfacet
  facet normal 0.941545 0.336887 0
    outer loop
      vertex 3.69552 1.53073 5.3
      vertex 3.82776 1.16114 45.3
      vertex 3.82776 1.16114 5.3
    endloop
  endfacet
  facet normal 0.803201 -0.595708 0
    outer loop
      vertex 3.09204 -2.53757 45.3
      vertex 3.32588 -2.22228 5.3
      vertex 3.32588 -2.22228 45.3
    endloop
  endfacet
  facet normal 0.803201 -0.595708 0
    outer loop
      vertex 3.32588 -2.22228 5.3
      vertex 3.09204 -2.53757 45.3
      vertex 3.09204 -2.53757 5.3
    endloop
  endfacet
  facet normal 0.857733 -0.514095 0
    outer loop
      vertex 3.32588 -2.22228 45.3
      vertex 3.52768 -1.88559 5.3
      vertex 3.52768 -1.88559 45.3
    endloop
  endfacet
  facet normal 0.857733 -0.514095 0
    outer loop
      vertex 3.52768 -1.88559 5.3
      vertex 3.32588 -2.22228 45.3
      vertex 3.32588 -2.22228 5.3
    endloop
  endfacet
  facet normal 0.941545 -0.336887 0
    outer loop
      vertex 3.69552 -1.53073 45.3
      vertex 3.82776 -1.16114 5.3
      vertex 3.82776 -1.16114 45.3
    endloop
  endfacet
  facet normal 0.941545 -0.336887 0
    outer loop
      vertex 3.82776 -1.16114 5.3
      vertex 3.69552 -1.53073 45.3
      vertex 3.69552 -1.53073 5.3
    endloop
  endfacet
  facet normal -0.903986 0.427563 0
    outer loop
      vertex -3.69552 1.53073 5.3
      vertex -3.52768 1.88559 45.3
      vertex -3.52768 1.88559 5.3
    endloop
  endfacet
  facet normal -0.903986 0.427563 0
    outer loop
      vertex -3.52768 1.88559 45.3
      vertex -3.69552 1.53073 5.3
      vertex -3.69552 1.53073 45.3
    endloop
  endfacet
  facet normal -0.24298 0.970031 0
    outer loop
      vertex -0.780361 3.92314 5.3
      vertex -1.16114 3.82776 45.3
      vertex -0.780361 3.92314 45.3
    endloop
  endfacet
  facet normal -0.24298 0.970031 0
    outer loop
      vertex -1.16114 3.82776 45.3
      vertex -0.780361 3.92314 5.3
      vertex -1.16114 3.82776 5.3
    endloop
  endfacet
  facet normal 0.903986 0.427563 0
    outer loop
      vertex 3.69552 1.53073 45.3
      vertex 3.52768 1.88559 5.3
      vertex 3.52768 1.88559 45.3
    endloop
  endfacet
  facet normal 0.903986 0.427563 0
    outer loop
      vertex 3.52768 1.88559 5.3
      vertex 3.69552 1.53073 45.3
      vertex 3.69552 1.53073 5.3
    endloop
  endfacet
  facet normal 0.146736 0.989176 -0
    outer loop
      vertex 0.780361 3.92314 5.3
      vertex 0.392068 3.98074 45.3
      vertex 0.780361 3.92314 45.3
    endloop
  endfacet
  facet normal 0.146736 0.989176 0
    outer loop
      vertex 0.392068 3.98074 45.3
      vertex 0.780361 3.92314 5.3
      vertex 0.392068 3.98074 5.3
    endloop
  endfacet
  facet normal -0.857733 -0.514095 0
    outer loop
      vertex -3.32588 -2.22228 5.3
      vertex -3.52768 -1.88559 45.3
      vertex -3.52768 -1.88559 5.3
    endloop
  endfacet
  facet normal -0.857733 -0.514095 0
    outer loop
      vertex -3.52768 -1.88559 45.3
      vertex -3.32588 -2.22228 5.3
      vertex -3.32588 -2.22228 45.3
    endloop
  endfacet
  facet normal 0.857733 0.514095 0
    outer loop
      vertex 3.52768 1.88559 45.3
      vertex 3.32588 2.22228 5.3
      vertex 3.32588 2.22228 45.3
    endloop
  endfacet
  facet normal 0.857733 0.514095 0
    outer loop
      vertex 3.32588 2.22228 5.3
      vertex 3.52768 1.88559 45.3
      vertex 3.52768 1.88559 5.3
    endloop
  endfacet
  facet normal -0.740964 -0.671545 0
    outer loop
      vertex -2.82843 -2.82843 5.3
      vertex -3.09204 -2.53757 45.3
      vertex -3.09204 -2.53757 5.3
    endloop
  endfacet
  facet normal -0.740964 -0.671545 0
    outer loop
      vertex -3.09204 -2.53757 45.3
      vertex -2.82843 -2.82843 5.3
      vertex -2.82843 -2.82843 45.3
    endloop
  endfacet
  facet normal 0.24298 -0.970031 0
    outer loop
      vertex 0.780361 -3.92314 5.3
      vertex 1.16114 -3.82776 45.3
      vertex 0.780361 -3.92314 45.3
    endloop
  endfacet
  facet normal 0.24298 -0.970031 0
    outer loop
      vertex 1.16114 -3.82776 45.3
      vertex 0.780361 -3.92314 5.3
      vertex 1.16114 -3.82776 5.3
    endloop
  endfacet
  facet normal -0.514095 0.857733 0
    outer loop
      vertex -1.88559 3.52768 5.3
      vertex -2.22228 3.32588 45.3
      vertex -1.88559 3.52768 45.3
    endloop
  endfacet
  facet normal -0.514095 0.857733 0
    outer loop
      vertex -2.22228 3.32588 45.3
      vertex -1.88559 3.52768 5.3
      vertex -2.22228 3.32588 5.3
    endloop
  endfacet
  facet normal -0.427563 0.903986 0
    outer loop
      vertex -1.53073 3.69552 5.3
      vertex -1.88559 3.52768 45.3
      vertex -1.53073 3.69552 45.3
    endloop
  endfacet
  facet normal -0.427563 0.903986 0
    outer loop
      vertex -1.88559 3.52768 45.3
      vertex -1.53073 3.69552 5.3
      vertex -1.88559 3.52768 5.3
    endloop
  endfacet
  facet normal -0.941545 -0.336887 0
    outer loop
      vertex -3.69552 -1.53073 5.3
      vertex -3.82776 -1.16114 45.3
      vertex -3.82776 -1.16114 5.3
    endloop
  endfacet
  facet normal -0.941545 -0.336887 0
    outer loop
      vertex -3.82776 -1.16114 45.3
      vertex -3.69552 -1.53073 5.3
      vertex -3.69552 -1.53073 45.3
    endloop
  endfacet
  facet normal -0.514095 -0.857733 0
    outer loop
      vertex -2.22228 -3.32588 5.3
      vertex -1.88559 -3.52768 45.3
      vertex -2.22228 -3.32588 45.3
    endloop
  endfacet
  facet normal -0.514095 -0.857733 -0
    outer loop
      vertex -1.88559 -3.52768 45.3
      vertex -2.22228 -3.32588 5.3
      vertex -1.88559 -3.52768 5.3
    endloop
  endfacet
  facet normal 0.671545 0.740964 -0
    outer loop
      vertex 2.82843 2.82843 5.3
      vertex 2.53757 3.09204 45.3
      vertex 2.82843 2.82843 45.3
    endloop
  endfacet
  facet normal 0.671545 0.740964 0
    outer loop
      vertex 2.53757 3.09204 45.3
      vertex 2.82843 2.82843 5.3
      vertex 2.53757 3.09204 5.3
    endloop
  endfacet
  facet normal -0.970031 0.24298 0
    outer loop
      vertex -3.92314 0.780361 5.3
      vertex -3.82776 1.16114 45.3
      vertex -3.82776 1.16114 5.3
    endloop
  endfacet
  facet normal -0.970031 0.24298 0
    outer loop
      vertex -3.82776 1.16114 45.3
      vertex -3.92314 0.780361 5.3
      vertex -3.92314 0.780361 45.3
    endloop
  endfacet
  facet normal -0.803201 -0.595708 0
    outer loop
      vertex -3.09204 -2.53757 5.3
      vertex -3.32588 -2.22228 45.3
      vertex -3.32588 -2.22228 5.3
    endloop
  endfacet
  facet normal -0.803201 -0.595708 0
    outer loop
      vertex -3.32588 -2.22228 45.3
      vertex -3.09204 -2.53757 5.3
      vertex -3.09204 -2.53757 45.3
    endloop
  endfacet
  facet normal -0.989176 -0.146736 0
    outer loop
      vertex -3.92314 -0.780361 5.3
      vertex -3.98074 -0.392068 45.3
      vertex -3.98074 -0.392068 5.3
    endloop
  endfacet
  facet normal -0.989176 -0.146736 0
    outer loop
      vertex -3.98074 -0.392068 45.3
      vertex -3.92314 -0.780361 5.3
      vertex -3.92314 -0.780361 45.3
    endloop
  endfacet
  facet normal -0.671545 -0.740964 0
    outer loop
      vertex -2.82843 -2.82843 5.3
      vertex -2.53757 -3.09204 45.3
      vertex -2.82843 -2.82843 45.3
    endloop
  endfacet
  facet normal -0.671545 -0.740964 -0
    outer loop
      vertex -2.53757 -3.09204 45.3
      vertex -2.82843 -2.82843 5.3
      vertex -2.53757 -3.09204 5.3
    endloop
  endfacet
  facet normal -0.803201 0.595708 0
    outer loop
      vertex -3.32588 2.22228 5.3
      vertex -3.09204 2.53757 45.3
      vertex -3.09204 2.53757 5.3
    endloop
  endfacet
  facet normal -0.803201 0.595708 0
    outer loop
      vertex -3.09204 2.53757 45.3
      vertex -3.32588 2.22228 5.3
      vertex -3.32588 2.22228 45.3
    endloop
  endfacet
  facet normal -0.857733 0.514095 0
    outer loop
      vertex -3.52768 1.88559 5.3
      vertex -3.32588 2.22228 45.3
      vertex -3.32588 2.22228 5.3
    endloop
  endfacet
  facet normal -0.857733 0.514095 0
    outer loop
      vertex -3.32588 2.22228 45.3
      vertex -3.52768 1.88559 5.3
      vertex -3.52768 1.88559 45.3
    endloop
  endfacet
  facet normal -0.049065 -0.998796 0
    outer loop
      vertex -0.392068 -3.98074 5.3
      vertex 0 -4 45.3
      vertex -0.392068 -3.98074 45.3
    endloop
  endfacet
  facet normal -0.049065 -0.998796 -0
    outer loop
      vertex 0 -4 45.3
      vertex -0.392068 -3.98074 5.3
      vertex 0 -4 5.3
    endloop
  endfacet
  facet normal -0.998796 0.049065 0
    outer loop
      vertex -4 0 5.3
      vertex -3.98074 0.392068 45.3
      vertex -3.98074 0.392068 5.3
    endloop
  endfacet
  facet normal -0.998796 0.049065 0
    outer loop
      vertex -3.98074 0.392068 45.3
      vertex -4 0 5.3
      vertex -4 0 45.3
    endloop
  endfacet
  facet normal -0.336887 -0.941545 0
    outer loop
      vertex -1.53073 -3.69552 5.3
      vertex -1.16114 -3.82776 45.3
      vertex -1.53073 -3.69552 45.3
    endloop
  endfacet
  facet normal -0.336887 -0.941545 -0
    outer loop
      vertex -1.16114 -3.82776 45.3
      vertex -1.53073 -3.69552 5.3
      vertex -1.16114 -3.82776 5.3
    endloop
  endfacet
  facet normal 0.740964 -0.671545 0
    outer loop
      vertex 2.82843 -2.82843 45.3
      vertex 3.09204 -2.53757 5.3
      vertex 3.09204 -2.53757 45.3
    endloop
  endfacet
  facet normal 0.740964 -0.671545 0
    outer loop
      vertex 3.09204 -2.53757 5.3
      vertex 2.82843 -2.82843 45.3
      vertex 2.82843 -2.82843 5.3
    endloop
  endfacet
  facet normal 0.671545 -0.740964 0
    outer loop
      vertex 2.53757 -3.09204 5.3
      vertex 2.82843 -2.82843 45.3
      vertex 2.53757 -3.09204 45.3
    endloop
  endfacet
  facet normal 0.671545 -0.740964 0
    outer loop
      vertex 2.82843 -2.82843 45.3
      vertex 2.53757 -3.09204 5.3
      vertex 2.82843 -2.82843 5.3
    endloop
  endfacet
  facet normal 0 0 1
    outer loop
      vertex 3.98074 0.392068 45.3
      vertex 3.98074 -0.392068 45.3
      vertex 4 0 45.3
    endloop
  endfacet
  facet normal 0 0 1
    outer loop
      vertex 3.92314 0.780361 45.3
      vertex 3.98074 -0.392068 45.3
      vertex 3.98074 0.392068 45.3
    endloop
  endfacet
  facet normal 0 0 1
    outer loop
      vertex 3.92314 0.780361 45.3
      vertex 3.92314 -0.780361 45.3
      vertex 3.98074 -0.392068 45.3
    endloop
  endfacet
  facet normal 0 0 1
    outer loop
      vertex 3.82776 1.16114 45.3
      vertex 3.92314 -0.780361 45.3
      vertex 3.92314 0.780361 45.3
    endloop
  endfacet
  facet normal 0 0 1
    outer loop
      vertex 3.82776 1.16114 45.3
      vertex 3.82776 -1.16114 45.3
      vertex 3.92314 -0.780361 45.3
    endloop
  endfacet
  facet normal 0 0 1
    outer loop
      vertex 3.69552 1.53073 45.3
      vertex 3.82776 -1.16114 45.3
      vertex 3.82776 1.16114 45.3
    endloop
  endfacet
  facet normal 0 0 1
    outer loop
      vertex 3.69552 1.53073 45.3
      vertex 3.69552 -1.53073 45.3
      vertex 3.82776 -1.16114 45.3
    endloop
  endfacet
  facet normal 0 0 1
    outer loop
      vertex 3.52768 1.88559 45.3
      vertex 3.69552 -1.53073 45.3
      vertex 3.69552 1.53073 45.3
    endloop
  endfacet
  facet normal 0 0 1
    outer loop
      vertex 3.52768 1.88559 45.3
      vertex 3.52768 -1.88559 45.3
      vertex 3.69552 -1.53073 45.3
    endloop
  endfacet
  facet normal 0 0 1
    outer loop
      vertex 3.32588 2.22228 45.3
      vertex 3.52768 -1.88559 45.3
      vertex 3.52768 1.88559 45.3
    endloop
  endfacet
  facet normal 0 0 1
    outer loop
      vertex 3.32588 2.22228 45.3
      vertex 3.32588 -2.22228 45.3
      vertex 3.52768 -1.88559 45.3
    endloop
  endfacet
  facet normal 0 0 1
    outer loop
      vertex 3.09204 2.53757 45.3
      vertex 3.32588 -2.22228 45.3
      vertex 3.32588 2.22228 45.3
    endloop
  endfacet
  facet normal 0 0 1
    outer loop
      vertex 3.09204 2.53757 45.3
      vertex 3.09204 -2.53757 45.3
      vertex 3.32588 -2.22228 45.3
    endloop
  endfacet
  facet normal 0 0 1
    outer loop
      vertex 2.82843 2.82843 45.3
      vertex 3.09204 -2.53757 45.3
      vertex 3.09204 2.53757 45.3
    endloop
  endfacet
  facet normal 0 0 1
    outer loop
      vertex 2.82843 2.82843 45.3
      vertex 2.82843 -2.82843 45.3
      vertex 3.09204 -2.53757 45.3
    endloop
  endfacet
  facet normal 0 0 1
    outer loop
      vertex 2.53757 3.09204 45.3
      vertex 2.82843 -2.82843 45.3
      vertex 2.82843 2.82843 45.3
    endloop
  endfacet
  facet normal 0 0 1
    outer loop
      vertex 2.53757 3.09204 45.3
      vertex 2.53757 -3.09204 45.3
      vertex 2.82843 -2.82843 45.3
    endloop
  endfacet
  facet normal 0 0 1
    outer loop
      vertex 2.22228 3.32588 45.3
      vertex 2.53757 -3.09204 45.3
      vertex 2.53757 3.09204 45.3
    endloop
  endfacet
  facet normal 0 0 1
    outer loop
      vertex 2.22228 3.32588 45.3
      vertex 2.22228 -3.32588 45.3
      vertex 2.53757 -3.09204 45.3
    endloop
  endfacet
  facet normal 0 0 1
    outer loop
      vertex 1.88559 3.52768 45.3
      vertex 2.22228 -3.32588 45.3
      vertex 2.22228 3.32588 45.3
    endloop
  endfacet
  facet normal 0 0 1
    outer loop
      vertex 1.88559 3.52768 45.3
      vertex 1.88559 -3.52768 45.3
      vertex 2.22228 -3.32588 45.3
    endloop
  endfacet
  facet normal 0 0 1
    outer loop
      vertex 1.53073 3.69552 45.3
      vertex 1.88559 -3.52768 45.3
      vertex 1.88559 3.52768 45.3
    endloop
  endfacet
  facet normal 0 0 1
    outer loop
      vertex 1.53073 3.69552 45.3
      vertex 1.53073 -3.69552 45.3
      vertex 1.88559 -3.52768 45.3
    endloop
  endfacet
  facet normal 0 0 1
    outer loop
      vertex 1.16114 3.82776 45.3
      vertex 1.53073 -3.69552 45.3
      vertex 1.53073 3.69552 45.3
    endloop
  endfacet
  facet normal 0 0 1
    outer loop
      vertex 1.16114 3.82776 45.3
      vertex 1.16114 -3.82776 45.3
      vertex 1.53073 -3.69552 45.3
    endloop
  endfacet
  facet normal 0 0 1
    outer loop
      vertex 0.780361 3.92314 45.3
      vertex 1.16114 -3.82776 45.3
      vertex 1.16114 3.82776 45.3
    endloop
  endfacet
  facet normal 0 0 1
    outer loop
      vertex 0.780361 3.92314 45.3
      vertex 0.780361 -3.92314 45.3
      vertex 1.16114 -3.82776 45.3
    endloop
  endfacet
  facet normal 0 0 1
    outer loop
      vertex 0.392068 3.98074 45.3
      vertex 0.780361 -3.92314 45.3
      vertex 0.780361 3.92314 45.3
    endloop
  endfacet
  facet normal 0 0 1
    outer loop
      vertex 0.392068 3.98074 45.3
      vertex 0.392068 -3.98074 45.3
      vertex 0.780361 -3.92314 45.3
    endloop
  endfacet
  facet normal 0 0 1
    outer loop
      vertex 0 4 45.3
      vertex 0.392068 -3.98074 45.3
      vertex 0.392068 3.98074 45.3
    endloop
  endfacet
  facet normal 0 0 1
    outer loop
      vertex 0 4 45.3
      vertex 0 -4 45.3
      vertex 0.392068 -3.98074 45.3
    endloop
  endfacet
  facet normal -0 0 1
    outer loop
      vertex -0.392068 3.98074 45.3
      vertex 0 -4 45.3
      vertex 0 4 45.3
    endloop
  endfacet
  facet normal 0 0 1
    outer loop
      vertex -0.392068 3.98074 45.3
      vertex -0.392068 -3.98074 45.3
      vertex 0 -4 45.3
    endloop
  endfacet
  facet normal -0 0 1
    outer loop
      vertex -0.780361 3.92314 45.3
      vertex -0.392068 -3.98074 45.3
      vertex -0.392068 3.98074 45.3
    endloop
  endfacet
  facet normal 0 0 1
    outer loop
      vertex -0.780361 3.92314 45.3
      vertex -0.780361 -3.92314 45.3
      vertex -0.392068 -3.98074 45.3
    endloop
  endfacet
  facet normal -0 0 1
    outer loop
      vertex -1.16114 3.82776 45.3
      vertex -0.780361 -3.92314 45.3
      vertex -0.780361 3.92314 45.3
    endloop
  endfacet
  facet normal 0 0 1
    outer loop
      vertex -1.16114 3.82776 45.3
      vertex -1.16114 -3.82776 45.3
      vertex -0.780361 -3.92314 45.3
    endloop
  endfacet
  facet normal -0 0 1
    outer loop
      vertex -1.53073 3.69552 45.3
      vertex -1.16114 -3.82776 45.3
      vertex -1.16114 3.82776 45.3
    endloop
  endfacet
  facet normal 0 0 1
    outer loop
      vertex -1.53073 3.69552 45.3
      vertex -1.53073 -3.69552 45.3
      vertex -1.16114 -3.82776 45.3
    endloop
  endfacet
  facet normal -0 0 1
    outer loop
      vertex -1.88559 3.52768 45.3
      vertex -1.53073 -3.69552 45.3
      vertex -1.53073 3.69552 45.3
    endloop
  endfacet
  facet normal 0 0 1
    outer loop
      vertex -1.88559 3.52768 45.3
      vertex -1.88559 -3.52768 45.3
      vertex -1.53073 -3.69552 45.3
    endloop
  endfacet
  facet normal -0 0 1
    outer loop
      vertex -2.22228 3.32588 45.3
      vertex -1.88559 -3.52768 45.3
      vertex -1.88559 3.52768 45.3
    endloop
  endfacet
  facet normal 0 0 1
    outer loop
      vertex -2.22228 3.32588 45.3
      vertex -2.22228 -3.32588 45.3
      vertex -1.88559 -3.52768 45.3
    endloop
  endfacet
  facet normal -0 0 1
    outer loop
      vertex -2.53757 3.09204 45.3
      vertex -2.22228 -3.32588 45.3
      vertex -2.22228 3.32588 45.3
    endloop
  endfacet
  facet normal 0 0 1
    outer loop
      vertex -2.53757 3.09204 45.3
      vertex -2.53757 -3.09204 45.3
      vertex -2.22228 -3.32588 45.3
    endloop
  endfacet
  facet normal -0 0 1
    outer loop
      vertex -2.82843 2.82843 45.3
      vertex -2.53757 -3.09204 45.3
      vertex -2.53757 3.09204 45.3
    endloop
  endfacet
  facet normal 0 0 1
    outer loop
      vertex -2.82843 2.82843 45.3
      vertex -2.82843 -2.82843 45.3
      vertex -2.53757 -3.09204 45.3
    endloop
  endfacet
  facet normal -0 0 1
    outer loop
      vertex -3.09204 2.53757 45.3
      vertex -2.82843 -2.82843 45.3
      vertex -2.82843 2.82843 45.3
    endloop
  endfacet
  facet normal 0 0 1
    outer loop
      vertex -3.09204 2.53757 45.3
      vertex -3.09204 -2.53757 45.3
      vertex -2.82843 -2.82843 45.3
    endloop
  endfacet
  facet normal -0 0 1
    outer loop
      vertex -3.32588 2.22228 45.3
      vertex -3.09204 -2.53757 45.3
      vertex -3.09204 2.53757 45.3
    endloop
  endfacet
  facet normal 0 0 1
    outer loop
      vertex -3.32588 2.22228 45.3
      vertex -3.32588 -2.22228 45.3
      vertex -3.09204 -2.53757 45.3
    endloop
  endfacet
  facet normal -0 0 1
    outer loop
      vertex -3.52768 1.88559 45.3
      vertex -3.32588 -2.22228 45.3
      vertex -3.32588 2.22228 45.3
    endloop
  endfacet
  facet normal 0 0 1
    outer loop
      vertex -3.52768 1.88559 45.3
      vertex -3.52768 -1.88559 45.3
      vertex -3.32588 -2.22228 45.3
    endloop
  endfacet
  facet normal -0 0 1
    outer loop
      vertex -3.69552 1.53073 45.3
      vertex -3.52768 -1.88559 45.3
      vertex -3.52768 1.88559 45.3
    endloop
  endfacet
  facet normal 0 0 1
    outer loop
      vertex -3.69552 1.53073 45.3
      vertex -3.69552 -1.53073 45.3
      vertex -3.52768 -1.88559 45.3
    endloop
  endfacet
  facet normal -0 0 1
    outer loop
      vertex -3.82776 1.16114 45.3
      vertex -3.69552 -1.53073 45.3
      vertex -3.69552 1.53073 45.3
    endloop
  endfacet
  facet normal 0 0 1
    outer loop
      vertex -3.82776 1.16114 45.3
      vertex -3.82776 -1.16114 45.3
      vertex -3.69552 -1.53073 45.3
    endloop
  endfacet
  facet normal -0 0 1
    outer loop
      vertex -3.92314 0.780361 45.3
      vertex -3.82776 -1.16114 45.3
      vertex -3.82776 1.16114 45.3
    endloop
  endfacet
  facet normal 0 0 1
    outer loop
      vertex -3.92314 0.780361 45.3
      vertex -3.92314 -0.780361 45.3
      vertex -3.82776 -1.16114 45.3
    endloop
  endfacet
  facet normal -0 0 1
    outer loop
      vertex -3.98074 0.392068 45.3
      vertex -3.92314 -0.780361 45.3
      vertex -3.92314 0.780361 45.3
    endloop
  endfacet
  facet normal 0 0 1
    outer loop
      vertex -3.98074 0.392068 45.3
      vertex -3.98074 -0.392068 45.3
      vertex -3.92314 -0.780361 45.3
    endloop
  endfacet
  facet normal 0 -0 1
    outer loop
      vertex -3.98074 -0.392068 45.3
      vertex -3.98074 0.392068 45.3
      vertex -4 0 45.3
    endloop
  endfacet
endsolid OpenSCAD_Model
