solid OpenSCAD_Model
  facet normal 0.890501 0.0935992 0.44525
    outer loop
      vertex 48.6628 10.3436 -49.5
      vertex 0 0 50
      vertex 49.75 0 -49.5
    endloop
  endfacet
  facet normal -0.364195 0.817994 0.445251
    outer loop
      vertex -15.3736 47.3151 -49.5
      vertex -24.875 43.0848 -49.5
      vertex 0 0 50
    endloop
  endfacet
  facet normal 0.364195 -0.817994 0.445251
    outer loop
      vertex 24.875 -43.0848 -49.5
      vertex 0 0 50
      vertex 15.3736 -47.3151 -49.5
    endloop
  endfacet
  facet normal 0 0.895406 0.445251
    outer loop
      vertex 5.20029 49.4775 -49.5
      vertex -5.20029 49.4775 -49.5
      vertex 0 0 50
    endloop
  endfacet
  facet normal -0.775445 0.447702 0.44525
    outer loop
      vertex -40.2486 29.2423 -49.5
      vertex -45.4489 20.2351 -49.5
      vertex 0 0 50
    endloop
  endfacet
  facet normal 0 -0.895406 0.445251
    outer loop
      vertex 0 0 50
      vertex -5.20029 -49.4775 -49.5
      vertex 5.20029 -49.4775 -49.5
    endloop
  endfacet
  facet normal 0.526308 0.724398 0.445251
    outer loop
      vertex 24.875 43.0848 -49.5
      vertex 0 0 50
      vertex 33.2892 36.9715 -49.5
    endloop
  endfacet
  facet normal -0.890501 0.0935992 0.44525
    outer loop
      vertex -48.6628 10.3436 -49.5
      vertex -49.75 0 -49.5
      vertex 0 0 50
    endloop
  endfacet
  facet normal 0.526308 -0.724398 0.445251
    outer loop
      vertex 33.2892 -36.9715 -49.5
      vertex 0 0 50
      vertex 24.875 -43.0848 -49.5
    endloop
  endfacet
  facet normal -0.665417 0.599143 0.44525
    outer loop
      vertex -33.2892 36.9715 -49.5
      vertex -40.2486 29.2423 -49.5
      vertex 0 0 50
    endloop
  endfacet
  facet normal -0.526308 0.724398 0.445251
    outer loop
      vertex -24.875 43.0848 -49.5
      vertex -33.2892 36.9715 -49.5
      vertex 0 0 50
    endloop
  endfacet
  facet normal -0.775445 -0.447702 0.44525
    outer loop
      vertex 0 0 50
      vertex -45.4489 -20.2351 -49.5
      vertex -40.2486 -29.2423 -49.5
    endloop
  endfacet
  facet normal 0.665417 -0.599143 0.44525
    outer loop
      vertex 40.2486 -29.2423 -49.5
      vertex 0 0 50
      vertex 33.2892 -36.9715 -49.5
    endloop
  endfacet
  facet normal 0.851583 -0.276692 0.44525
    outer loop
      vertex 48.6628 -10.3436 -49.5
      vertex 0 0 50
      vertex 45.4489 -20.2351 -49.5
    endloop
  endfacet
  facet normal -0.851583 -0.276692 0.44525
    outer loop
      vertex 0 0 50
      vertex -48.6628 -10.3436 -49.5
      vertex -45.4489 -20.2351 -49.5
    endloop
  endfacet
  facet normal -0.851583 0.276692 0.44525
    outer loop
      vertex -45.4489 20.2351 -49.5
      vertex -48.6628 10.3436 -49.5
      vertex 0 0 50
    endloop
  endfacet
  facet normal 0.186165 -0.875839 0.445251
    outer loop
      vertex 15.3736 -47.3151 -49.5
      vertex 0 0 50
      vertex 5.20029 -49.4775 -49.5
    endloop
  endfacet
  facet normal -0.186165 0.875839 0.445251
    outer loop
      vertex -5.20029 49.4775 -49.5
      vertex -15.3736 47.3151 -49.5
      vertex 0 0 50
    endloop
  endfacet
  facet normal -0.526308 -0.724398 0.445251
    outer loop
      vertex 0 0 50
      vertex -33.2892 -36.9715 -49.5
      vertex -24.875 -43.0848 -49.5
    endloop
  endfacet
  facet normal 0.186165 0.875839 0.445251
    outer loop
      vertex 5.20029 49.4775 -49.5
      vertex 0 0 50
      vertex 15.3736 47.3151 -49.5
    endloop
  endfacet
  facet normal 0.364195 0.817994 0.445251
    outer loop
      vertex 15.3736 47.3151 -49.5
      vertex 0 0 50
      vertex 24.875 43.0848 -49.5
    endloop
  endfacet
  facet normal -0.665417 -0.599143 0.44525
    outer loop
      vertex 0 0 50
      vertex -40.2486 -29.2423 -49.5
      vertex -33.2892 -36.9715 -49.5
    endloop
  endfacet
  facet normal -0.186165 -0.875839 0.445251
    outer loop
      vertex 0 0 50
      vertex -15.3736 -47.3151 -49.5
      vertex -5.20029 -49.4775 -49.5
    endloop
  endfacet
  facet normal 0.775445 -0.447702 0.44525
    outer loop
      vertex 45.4489 -20.2351 -49.5
      vertex 0 0 50
      vertex 40.2486 -29.2423 -49.5
    endloop
  endfacet
  facet normal 0.665417 0.599143 0.44525
    outer loop
      vertex 33.2892 36.9715 -49.5
      vertex 0 0 50
      vertex 40.2486 29.2423 -49.5
    endloop
  endfacet
  facet normal 0.890501 -0.0935992 0.44525
    outer loop
      vertex 49.75 0 -49.5
      vertex 0 0 50
      vertex 48.6628 -10.3436 -49.5
    endloop
  endfacet
  facet normal 0.775445 0.447702 0.44525
    outer loop
      vertex 40.2486 29.2423 -49.5
      vertex 0 0 50
      vertex 45.4489 20.2351 -49.5
    endloop
  endfacet
  facet normal 0.851583 0.276692 0.44525
    outer loop
      vertex 45.4489 20.2351 -49.5
      vertex 0 0 50
      vertex 48.6628 10.3436 -49.5
    endloop
  endfacet
  facet normal -0.364195 -0.817994 0.445251
    outer loop
      vertex 0 0 50
      vertex -24.875 -43.0848 -49.5
      vertex -15.3736 -47.3151 -49.5
    endloop
  endfacet
  facet normal -0.890501 -0.0935992 0.44525
    outer loop
      vertex 0 0 50
      vertex -49.75 0 -49.5
      vertex -48.6628 -10.3436 -49.5
    endloop
  endfacet
  facet normal -0.40673 -0.913548 0
    outer loop
      vertex -25 -43.3013 -50.5
      vertex -15.4508 -47.5528 -49.5
      vertex -25 -43.3013 -49.5
    endloop
  endfacet
  facet normal -0.40673 -0.913548 -0
    outer loop
      vertex -15.4508 -47.5528 -49.5
      vertex -25 -43.3013 -50.5
      vertex -15.4508 -47.5528 -50.5
    endloop
  endfacet
  facet normal -0.951056 -0.309018 0
    outer loop
      vertex -45.6773 -20.3368 -50.5
      vertex -48.9074 -10.3956 -49.5
      vertex -48.9074 -10.3956 -50.5
    endloop
  endfacet
  facet normal -0.951056 -0.309018 0
    outer loop
      vertex -48.9074 -10.3956 -49.5
      vertex -45.6773 -20.3368 -50.5
      vertex -45.6773 -20.3368 -49.5
    endloop
  endfacet
  facet normal 0.951056 0.309018 0
    outer loop
      vertex 48.9074 10.3956 -49.5
      vertex 45.6773 20.3368 -50.5
      vertex 45.6773 20.3368 -49.5
    endloop
  endfacet
  facet normal 0.951056 0.309018 0
    outer loop
      vertex 45.6773 20.3368 -50.5
      vertex 48.9074 10.3956 -49.5
      vertex 48.9074 10.3956 -50.5
    endloop
  endfacet
  facet normal 0.994522 0.104526 0
    outer loop
      vertex 50 0 -49.5
      vertex 48.9074 10.3956 -50.5
      vertex 48.9074 10.3956 -49.5
    endloop
  endfacet
  facet normal 0.994522 0.104526 0
    outer loop
      vertex 48.9074 10.3956 -50.5
      vertex 50 0 -49.5
      vertex 50 0 -50.5
    endloop
  endfacet
  facet normal 0.866028 0.499995 0
    outer loop
      vertex 45.6773 20.3368 -49.5
      vertex 40.4509 29.3893 -50.5
      vertex 40.4509 29.3893 -49.5
    endloop
  endfacet
  facet normal 0.866028 0.499995 0
    outer loop
      vertex 40.4509 29.3893 -50.5
      vertex 45.6773 20.3368 -49.5
      vertex 45.6773 20.3368 -50.5
    endloop
  endfacet
  facet normal 0.587791 -0.809013 0
    outer loop
      vertex 25 -43.3013 -50.5
      vertex 33.4565 -37.1572 -49.5
      vertex 25 -43.3013 -49.5
    endloop
  endfacet
  facet normal 0.587791 -0.809013 0
    outer loop
      vertex 33.4565 -37.1572 -49.5
      vertex 25 -43.3013 -50.5
      vertex 33.4565 -37.1572 -50.5
    endloop
  endfacet
  facet normal 0.40673 0.913548 -0
    outer loop
      vertex 25 43.3013 -50.5
      vertex 15.4508 47.5528 -49.5
      vertex 25 43.3013 -49.5
    endloop
  endfacet
  facet normal 0.40673 0.913548 0
    outer loop
      vertex 15.4508 47.5528 -49.5
      vertex 25 43.3013 -50.5
      vertex 15.4508 47.5528 -50.5
    endloop
  endfacet
  facet normal 0.994522 -0.104526 0
    outer loop
      vertex 48.9074 -10.3956 -49.5
      vertex 50 0 -50.5
      vertex 50 0 -49.5
    endloop
  endfacet
  facet normal 0.994522 -0.104526 0
    outer loop
      vertex 50 0 -50.5
      vertex 48.9074 -10.3956 -49.5
      vertex 48.9074 -10.3956 -50.5
    endloop
  endfacet
  facet normal 0.743138 0.669139 0
    outer loop
      vertex 40.4509 29.3893 -49.5
      vertex 33.4565 37.1572 -50.5
      vertex 33.4565 37.1572 -49.5
    endloop
  endfacet
  facet normal 0.743138 0.669139 0
    outer loop
      vertex 33.4565 37.1572 -50.5
      vertex 40.4509 29.3893 -49.5
      vertex 40.4509 29.3893 -50.5
    endloop
  endfacet
  facet normal -0.866028 0.499995 0
    outer loop
      vertex -45.6773 20.3368 -50.5
      vertex -40.4509 29.3893 -49.5
      vertex -40.4509 29.3893 -50.5
    endloop
  endfacet
  facet normal -0.866028 0.499995 0
    outer loop
      vertex -40.4509 29.3893 -49.5
      vertex -45.6773 20.3368 -50.5
      vertex -45.6773 20.3368 -49.5
    endloop
  endfacet
  facet normal 0.743138 -0.669139 0
    outer loop
      vertex 33.4565 -37.1572 -49.5
      vertex 40.4509 -29.3893 -50.5
      vertex 40.4509 -29.3893 -49.5
    endloop
  endfacet
  facet normal 0.743138 -0.669139 0
    outer loop
      vertex 40.4509 -29.3893 -50.5
      vertex 33.4565 -37.1572 -49.5
      vertex 33.4565 -37.1572 -50.5
    endloop
  endfacet
  facet normal -0.743138 0.669139 0
    outer loop
      vertex -40.4509 29.3893 -50.5
      vertex -33.4565 37.1572 -49.5
      vertex -33.4565 37.1572 -50.5
    endloop
  endfacet
  facet normal -0.743138 0.669139 0
    outer loop
      vertex -33.4565 37.1572 -49.5
      vertex -40.4509 29.3893 -50.5
      vertex -40.4509 29.3893 -49.5
    endloop
  endfacet
  facet normal 0.866028 -0.499995 0
    outer loop
      vertex 40.4509 -29.3893 -49.5
      vertex 45.6773 -20.3368 -50.5
      vertex 45.6773 -20.3368 -49.5
    endloop
  endfacet
  facet normal 0.866028 -0.499995 0
    outer loop
      vertex 45.6773 -20.3368 -50.5
      vertex 40.4509 -29.3893 -49.5
      vertex 40.4509 -29.3893 -50.5
    endloop
  endfacet
  facet normal -0.587791 0.809013 0
    outer loop
      vertex -25 43.3013 -50.5
      vertex -33.4565 37.1572 -49.5
      vertex -25 43.3013 -49.5
    endloop
  endfacet
  facet normal -0.587791 0.809013 0
    outer loop
      vertex -33.4565 37.1572 -49.5
      vertex -25 43.3013 -50.5
      vertex -33.4565 37.1572 -50.5
    endloop
  endfacet
  facet normal 0 0 1
    outer loop
      vertex 48.9074 10.3956 -49.5
      vertex 49.75 0 -49.5
      vertex 50 0 -49.5
    endloop
  endfacet
  facet normal 0 0 1
    outer loop
      vertex 48.9074 10.3956 -49.5
      vertex 48.6628 10.3436 -49.5
      vertex 49.75 0 -49.5
    endloop
  endfacet
  facet normal 0 0 1
    outer loop
      vertex 45.6773 20.3368 -49.5
      vertex 48.6628 10.3436 -49.5
      vertex 48.9074 10.3956 -49.5
    endloop
  endfacet
  facet normal 0 0 1
    outer loop
      vertex 45.6773 20.3368 -49.5
      vertex 45.4489 20.2351 -49.5
      vertex 48.6628 10.3436 -49.5
    endloop
  endfacet
  facet normal 0 0 1
    outer loop
      vertex 40.4509 29.3893 -49.5
      vertex 45.4489 20.2351 -49.5
      vertex 45.6773 20.3368 -49.5
    endloop
  endfacet
  facet normal 0 0 1
    outer loop
      vertex 40.4509 29.3893 -49.5
      vertex 40.2486 29.2423 -49.5
      vertex 45.4489 20.2351 -49.5
    endloop
  endfacet
  facet normal 0 0 1
    outer loop
      vertex 33.4565 37.1572 -49.5
      vertex 40.2486 29.2423 -49.5
      vertex 40.4509 29.3893 -49.5
    endloop
  endfacet
  facet normal 0 0 1
    outer loop
      vertex 33.4565 37.1572 -49.5
      vertex 33.2892 36.9715 -49.5
      vertex 40.2486 29.2423 -49.5
    endloop
  endfacet
  facet normal 0 0 1
    outer loop
      vertex 25 43.3013 -49.5
      vertex 33.2892 36.9715 -49.5
      vertex 33.4565 37.1572 -49.5
    endloop
  endfacet
  facet normal 0 0 1
    outer loop
      vertex 25 43.3013 -49.5
      vertex 24.875 43.0848 -49.5
      vertex 33.2892 36.9715 -49.5
    endloop
  endfacet
  facet normal 0 0 1
    outer loop
      vertex 15.4508 47.5528 -49.5
      vertex 24.875 43.0848 -49.5
      vertex 25 43.3013 -49.5
    endloop
  endfacet
  facet normal 0 0 1
    outer loop
      vertex 15.4508 47.5528 -49.5
      vertex 15.3736 47.3151 -49.5
      vertex 24.875 43.0848 -49.5
    endloop
  endfacet
  facet normal 0 0 1
    outer loop
      vertex 5.22642 49.7261 -49.5
      vertex 15.3736 47.3151 -49.5
      vertex 15.4508 47.5528 -49.5
    endloop
  endfacet
  facet normal 0 0 1
    outer loop
      vertex 5.22642 49.7261 -49.5
      vertex 5.20029 49.4775 -49.5
      vertex 15.3736 47.3151 -49.5
    endloop
  endfacet
  facet normal 0 0 1
    outer loop
      vertex 5.22642 49.7261 -49.5
      vertex -5.20029 49.4775 -49.5
      vertex 5.20029 49.4775 -49.5
    endloop
  endfacet
  facet normal -0 0 1
    outer loop
      vertex -5.22642 49.7261 -49.5
      vertex -5.20029 49.4775 -49.5
      vertex 5.22642 49.7261 -49.5
    endloop
  endfacet
  facet normal 0 0 1
    outer loop
      vertex -5.22642 49.7261 -49.5
      vertex -15.3736 47.3151 -49.5
      vertex -5.20029 49.4775 -49.5
    endloop
  endfacet
  facet normal -0 0 1
    outer loop
      vertex -15.4508 47.5528 -49.5
      vertex -15.3736 47.3151 -49.5
      vertex -5.22642 49.7261 -49.5
    endloop
  endfacet
  facet normal 0 0 1
    outer loop
      vertex -15.4508 47.5528 -49.5
      vertex -24.875 43.0848 -49.5
      vertex -15.3736 47.3151 -49.5
    endloop
  endfacet
  facet normal -0 0 1
    outer loop
      vertex -25 43.3013 -49.5
      vertex -24.875 43.0848 -49.5
      vertex -15.4508 47.5528 -49.5
    endloop
  endfacet
  facet normal 0 0 1
    outer loop
      vertex -25 43.3013 -49.5
      vertex -33.2892 36.9715 -49.5
      vertex -24.875 43.0848 -49.5
    endloop
  endfacet
  facet normal -0 0 1
    outer loop
      vertex -33.4565 37.1572 -49.5
      vertex -33.2892 36.9715 -49.5
      vertex -25 43.3013 -49.5
    endloop
  endfacet
  facet normal 0 0 1
    outer loop
      vertex -33.4565 37.1572 -49.5
      vertex -40.2486 29.2423 -49.5
      vertex -33.2892 36.9715 -49.5
    endloop
  endfacet
  facet normal -0 0 1
    outer loop
      vertex -40.4509 29.3893 -49.5
      vertex -40.2486 29.2423 -49.5
      vertex -33.4565 37.1572 -49.5
    endloop
  endfacet
  facet normal 0 0 1
    outer loop
      vertex -40.4509 29.3893 -49.5
      vertex -45.4489 20.2351 -49.5
      vertex -40.2486 29.2423 -49.5
    endloop
  endfacet
  facet normal -0 0 1
    outer loop
      vertex -45.6773 20.3368 -49.5
      vertex -45.4489 20.2351 -49.5
      vertex -40.4509 29.3893 -49.5
    endloop
  endfacet
  facet normal 0 0 1
    outer loop
      vertex -45.6773 20.3368 -49.5
      vertex -48.6628 10.3436 -49.5
      vertex -45.4489 20.2351 -49.5
    endloop
  endfacet
  facet normal -0 0 1
    outer loop
      vertex -48.9074 10.3956 -49.5
      vertex -48.6628 10.3436 -49.5
      vertex -45.6773 20.3368 -49.5
    endloop
  endfacet
  facet normal 0 0 1
    outer loop
      vertex -48.9074 10.3956 -49.5
      vertex -49.75 0 -49.5
      vertex -48.6628 10.3436 -49.5
    endloop
  endfacet
  facet normal 0 -0 1
    outer loop
      vertex -49.75 0 -49.5
      vertex -48.9074 10.3956 -49.5
      vertex -50 0 -49.5
    endloop
  endfacet
  facet normal -0 0 1
    outer loop
      vertex 49.75 0 -49.5
      vertex 48.9074 -10.3956 -49.5
      vertex 50 0 -49.5
    endloop
  endfacet
  facet normal -0 0 1
    outer loop
      vertex 48.6628 -10.3436 -49.5
      vertex 48.9074 -10.3956 -49.5
      vertex 49.75 0 -49.5
    endloop
  endfacet
  facet normal 0 0 1
    outer loop
      vertex 48.6628 -10.3436 -49.5
      vertex 45.6773 -20.3368 -49.5
      vertex 48.9074 -10.3956 -49.5
    endloop
  endfacet
  facet normal -0 0 1
    outer loop
      vertex 45.4489 -20.2351 -49.5
      vertex 45.6773 -20.3368 -49.5
      vertex 48.6628 -10.3436 -49.5
    endloop
  endfacet
  facet normal 0 0 1
    outer loop
      vertex 45.4489 -20.2351 -49.5
      vertex 40.4509 -29.3893 -49.5
      vertex 45.6773 -20.3368 -49.5
    endloop
  endfacet
  facet normal -0 0 1
    outer loop
      vertex 40.2486 -29.2423 -49.5
      vertex 40.4509 -29.3893 -49.5
      vertex 45.4489 -20.2351 -49.5
    endloop
  endfacet
  facet normal 0 0 1
    outer loop
      vertex 40.2486 -29.2423 -49.5
      vertex 33.4565 -37.1572 -49.5
      vertex 40.4509 -29.3893 -49.5
    endloop
  endfacet
  facet normal -0 0 1
    outer loop
      vertex 33.2892 -36.9715 -49.5
      vertex 33.4565 -37.1572 -49.5
      vertex 40.2486 -29.2423 -49.5
    endloop
  endfacet
  facet normal 0 0 1
    outer loop
      vertex 33.2892 -36.9715 -49.5
      vertex 25 -43.3013 -49.5
      vertex 33.4565 -37.1572 -49.5
    endloop
  endfacet
  facet normal -0 0 1
    outer loop
      vertex 24.875 -43.0848 -49.5
      vertex 25 -43.3013 -49.5
      vertex 33.2892 -36.9715 -49.5
    endloop
  endfacet
  facet normal 0 0 1
    outer loop
      vertex 24.875 -43.0848 -49.5
      vertex 15.4508 -47.5528 -49.5
      vertex 25 -43.3013 -49.5
    endloop
  endfacet
  facet normal -0 0 1
    outer loop
      vertex 15.3736 -47.3151 -49.5
      vertex 15.4508 -47.5528 -49.5
      vertex 24.875 -43.0848 -49.5
    endloop
  endfacet
  facet normal 0 0 1
    outer loop
      vertex 15.3736 -47.3151 -49.5
      vertex 5.22642 -49.7261 -49.5
      vertex 15.4508 -47.5528 -49.5
    endloop
  endfacet
  facet normal -0 0 1
    outer loop
      vertex 5.20029 -49.4775 -49.5
      vertex 5.22642 -49.7261 -49.5
      vertex 15.3736 -47.3151 -49.5
    endloop
  endfacet
  facet normal -0 0 1
    outer loop
      vertex -5.20029 -49.4775 -49.5
      vertex 5.22642 -49.7261 -49.5
      vertex 5.20029 -49.4775 -49.5
    endloop
  endfacet
  facet normal 0 0 1
    outer loop
      vertex -5.20029 -49.4775 -49.5
      vertex -5.22642 -49.7261 -49.5
      vertex 5.22642 -49.7261 -49.5
    endloop
  endfacet
  facet normal 0 0 1
    outer loop
      vertex -15.3736 -47.3151 -49.5
      vertex -5.22642 -49.7261 -49.5
      vertex -5.20029 -49.4775 -49.5
    endloop
  endfacet
  facet normal 0 0 1
    outer loop
      vertex -15.3736 -47.3151 -49.5
      vertex -15.4508 -47.5528 -49.5
      vertex -5.22642 -49.7261 -49.5
    endloop
  endfacet
  facet normal 0 0 1
    outer loop
      vertex -24.875 -43.0848 -49.5
      vertex -15.4508 -47.5528 -49.5
      vertex -15.3736 -47.3151 -49.5
    endloop
  endfacet
  facet normal 0 0 1
    outer loop
      vertex -24.875 -43.0848 -49.5
      vertex -25 -43.3013 -49.5
      vertex -15.4508 -47.5528 -49.5
    endloop
  endfacet
  facet normal 0 0 1
    outer loop
      vertex -33.2892 -36.9715 -49.5
      vertex -25 -43.3013 -49.5
      vertex -24.875 -43.0848 -49.5
    endloop
  endfacet
  facet normal 0 0 1
    outer loop
      vertex -33.2892 -36.9715 -49.5
      vertex -33.4565 -37.1572 -49.5
      vertex -25 -43.3013 -49.5
    endloop
  endfacet
  facet normal 0 0 1
    outer loop
      vertex -40.2486 -29.2423 -49.5
      vertex -33.4565 -37.1572 -49.5
      vertex -33.2892 -36.9715 -49.5
    endloop
  endfacet
  facet normal 0 0 1
    outer loop
      vertex -40.2486 -29.2423 -49.5
      vertex -40.4509 -29.3893 -49.5
      vertex -33.4565 -37.1572 -49.5
    endloop
  endfacet
  facet normal 0 0 1
    outer loop
      vertex -45.4489 -20.2351 -49.5
      vertex -40.4509 -29.3893 -49.5
      vertex -40.2486 -29.2423 -49.5
    endloop
  endfacet
  facet normal 0 0 1
    outer loop
      vertex -45.4489 -20.2351 -49.5
      vertex -45.6773 -20.3368 -49.5
      vertex -40.4509 -29.3893 -49.5
    endloop
  endfacet
  facet normal 0 0 1
    outer loop
      vertex -48.6628 -10.3436 -49.5
      vertex -45.6773 -20.3368 -49.5
      vertex -45.4489 -20.2351 -49.5
    endloop
  endfacet
  facet normal 0 0 1
    outer loop
      vertex -48.6628 -10.3436 -49.5
      vertex -48.9074 -10.3956 -49.5
      vertex -45.6773 -20.3368 -49.5
    endloop
  endfacet
  facet normal 0 0 1
    outer loop
      vertex -49.75 0 -49.5
      vertex -48.9074 -10.3956 -49.5
      vertex -48.6628 -10.3436 -49.5
    endloop
  endfacet
  facet normal 0 0 1
    outer loop
      vertex -48.9074 -10.3956 -49.5
      vertex -49.75 0 -49.5
      vertex -50 0 -49.5
    endloop
  endfacet
  facet normal 0.951056 -0.309018 0
    outer loop
      vertex 45.6773 -20.3368 -49.5
      vertex 48.9074 -10.3956 -50.5
      vertex 48.9074 -10.3956 -49.5
    endloop
  endfacet
  facet normal 0.951056 -0.309018 0
    outer loop
      vertex 48.9074 -10.3956 -50.5
      vertex 45.6773 -20.3368 -49.5
      vertex 45.6773 -20.3368 -50.5
    endloop
  endfacet
  facet normal 0 1 -0
    outer loop
      vertex 5.22642 49.7261 -50.5
      vertex -5.22642 49.7261 -49.5
      vertex 5.22642 49.7261 -49.5
    endloop
  endfacet
  facet normal 0 1 0
    outer loop
      vertex -5.22642 49.7261 -49.5
      vertex 5.22642 49.7261 -50.5
      vertex -5.22642 49.7261 -50.5
    endloop
  endfacet
  facet normal -0.587791 -0.809013 0
    outer loop
      vertex -33.4565 -37.1572 -50.5
      vertex -25 -43.3013 -49.5
      vertex -33.4565 -37.1572 -49.5
    endloop
  endfacet
  facet normal -0.587791 -0.809013 -0
    outer loop
      vertex -25 -43.3013 -49.5
      vertex -33.4565 -37.1572 -50.5
      vertex -25 -43.3013 -50.5
    endloop
  endfacet
  facet normal 0 0 -1
    outer loop
      vertex 48.9074 -10.3956 -50.5
      vertex 48.9074 10.3956 -50.5
      vertex 50 0 -50.5
    endloop
  endfacet
  facet normal 0 0 -1
    outer loop
      vertex 45.6773 -20.3368 -50.5
      vertex 48.9074 10.3956 -50.5
      vertex 48.9074 -10.3956 -50.5
    endloop
  endfacet
  facet normal 0 0 -1
    outer loop
      vertex 45.6773 -20.3368 -50.5
      vertex 45.6773 20.3368 -50.5
      vertex 48.9074 10.3956 -50.5
    endloop
  endfacet
  facet normal 0 0 -1
    outer loop
      vertex 40.4509 -29.3893 -50.5
      vertex 45.6773 20.3368 -50.5
      vertex 45.6773 -20.3368 -50.5
    endloop
  endfacet
  facet normal 0 0 -1
    outer loop
      vertex 40.4509 -29.3893 -50.5
      vertex 40.4509 29.3893 -50.5
      vertex 45.6773 20.3368 -50.5
    endloop
  endfacet
  facet normal 0 0 -1
    outer loop
      vertex 33.4565 -37.1572 -50.5
      vertex 40.4509 29.3893 -50.5
      vertex 40.4509 -29.3893 -50.5
    endloop
  endfacet
  facet normal 0 0 -1
    outer loop
      vertex 33.4565 -37.1572 -50.5
      vertex 33.4565 37.1572 -50.5
      vertex 40.4509 29.3893 -50.5
    endloop
  endfacet
  facet normal 0 0 -1
    outer loop
      vertex 25 -43.3013 -50.5
      vertex 33.4565 37.1572 -50.5
      vertex 33.4565 -37.1572 -50.5
    endloop
  endfacet
  facet normal 0 0 -1
    outer loop
      vertex 25 -43.3013 -50.5
      vertex 25 43.3013 -50.5
      vertex 33.4565 37.1572 -50.5
    endloop
  endfacet
  facet normal 0 0 -1
    outer loop
      vertex 15.4508 -47.5528 -50.5
      vertex 25 43.3013 -50.5
      vertex 25 -43.3013 -50.5
    endloop
  endfacet
  facet normal 0 0 -1
    outer loop
      vertex 15.4508 -47.5528 -50.5
      vertex 15.4508 47.5528 -50.5
      vertex 25 43.3013 -50.5
    endloop
  endfacet
  facet normal 0 0 -1
    outer loop
      vertex 5.22642 -49.7261 -50.5
      vertex 15.4508 47.5528 -50.5
      vertex 15.4508 -47.5528 -50.5
    endloop
  endfacet
  facet normal 0 0 -1
    outer loop
      vertex 5.22642 -49.7261 -50.5
      vertex 5.22642 49.7261 -50.5
      vertex 15.4508 47.5528 -50.5
    endloop
  endfacet
  facet normal 0 0 -1
    outer loop
      vertex -5.22642 -49.7261 -50.5
      vertex 5.22642 49.7261 -50.5
      vertex 5.22642 -49.7261 -50.5
    endloop
  endfacet
  facet normal 0 0 -1
    outer loop
      vertex -5.22642 -49.7261 -50.5
      vertex -5.22642 49.7261 -50.5
      vertex 5.22642 49.7261 -50.5
    endloop
  endfacet
  facet normal 0 0 -1
    outer loop
      vertex -15.4508 -47.5528 -50.5
      vertex -5.22642 49.7261 -50.5
      vertex -5.22642 -49.7261 -50.5
    endloop
  endfacet
  facet normal 0 0 -1
    outer loop
      vertex -15.4508 -47.5528 -50.5
      vertex -15.4508 47.5528 -50.5
      vertex -5.22642 49.7261 -50.5
    endloop
  endfacet
  facet normal 0 0 -1
    outer loop
      vertex -25 -43.3013 -50.5
      vertex -15.4508 47.5528 -50.5
      vertex -15.4508 -47.5528 -50.5
    endloop
  endfacet
  facet normal 0 0 -1
    outer loop
      vertex -25 -43.3013 -50.5
      vertex -25 43.3013 -50.5
      vertex -15.4508 47.5528 -50.5
    endloop
  endfacet
  facet normal 0 0 -1
    outer loop
      vertex -33.4565 -37.1572 -50.5
      vertex -25 43.3013 -50.5
      vertex -25 -43.3013 -50.5
    endloop
  endfacet
  facet normal 0 0 -1
    outer loop
      vertex -33.4565 -37.1572 -50.5
      vertex -33.4565 37.1572 -50.5
      vertex -25 43.3013 -50.5
    endloop
  endfacet
  facet normal 0 0 -1
    outer loop
      vertex -40.4509 -29.3893 -50.5
      vertex -33.4565 37.1572 -50.5
      vertex -33.4565 -37.1572 -50.5
    endloop
  endfacet
  facet normal 0 0 -1
    outer loop
      vertex -40.4509 -29.3893 -50.5
      vertex -40.4509 29.3893 -50.5
      vertex -33.4565 37.1572 -50.5
    endloop
  endfacet
  facet normal 0 0 -1
    outer loop
      vertex -45.6773 -20.3368 -50.5
      vertex -40.4509 29.3893 -50.5
      vertex -40.4509 -29.3893 -50.5
    endloop
  endfacet
  facet normal 0 0 -1
    outer loop
      vertex -45.6773 -20.3368 -50.5
      vertex -45.6773 20.3368 -50.5
      vertex -40.4509 29.3893 -50.5
    endloop
  endfacet
  facet normal 0 0 -1
    outer loop
      vertex -48.9074 -10.3956 -50.5
      vertex -45.6773 20.3368 -50.5
      vertex -45.6773 -20.3368 -50.5
    endloop
  endfacet
  facet normal 0 0 -1
    outer loop
      vertex -48.9074 -10.3956 -50.5
      vertex -48.9074 10.3956 -50.5
      vertex -45.6773 20.3368 -50.5
    endloop
  endfacet
  facet normal 0 -0 -1
    outer loop
      vertex -48.9074 10.3956 -50.5
      vertex -48.9074 -10.3956 -50.5
      vertex -50 0 -50.5
    endloop
  endfacet
  facet normal -0.40673 0.913548 0
    outer loop
      vertex -15.4508 47.5528 -50.5
      vertex -25 43.3013 -49.5
      vertex -15.4508 47.5528 -49.5
    endloop
  endfacet
  facet normal -0.40673 0.913548 0
    outer loop
      vertex -25 43.3013 -49.5
      vertex -15.4508 47.5528 -50.5
      vertex -25 43.3013 -50.5
    endloop
  endfacet
  facet normal -0.994522 -0.104526 0
    outer loop
      vertex -48.9074 -10.3956 -50.5
      vertex -50 0 -49.5
      vertex -50 0 -50.5
    endloop
  endfacet
  facet normal -0.994522 -0.104526 0
    outer loop
      vertex -50 0 -49.5
      vertex -48.9074 -10.3956 -50.5
      vertex -48.9074 -10.3956 -49.5
    endloop
  endfacet
  facet normal -0.743138 -0.669139 0
    outer loop
      vertex -33.4565 -37.1572 -50.5
      vertex -40.4509 -29.3893 -49.5
      vertex -40.4509 -29.3893 -50.5
    endloop
  endfacet
  facet normal -0.743138 -0.669139 0
    outer loop
      vertex -40.4509 -29.3893 -49.5
      vertex -33.4565 -37.1572 -50.5
      vertex -33.4565 -37.1572 -49.5
    endloop
  endfacet
  facet normal -0.866028 -0.499995 0
    outer loop
      vertex -40.4509 -29.3893 -50.5
      vertex -45.6773 -20.3368 -49.5
      vertex -45.6773 -20.3368 -50.5
    endloop
  endfacet
  facet normal -0.866028 -0.499995 0
    outer loop
      vertex -45.6773 -20.3368 -49.5
      vertex -40.4509 -29.3893 -50.5
      vertex -40.4509 -29.3893 -49.5
    endloop
  endfacet
  facet normal 0.207915 -0.978147 0
    outer loop
      vertex 5.22642 -49.7261 -50.5
      vertex 15.4508 -47.5528 -49.5
      vertex 5.22642 -49.7261 -49.5
    endloop
  endfacet
  facet normal 0.207915 -0.978147 0
    outer loop
      vertex 15.4508 -47.5528 -49.5
      vertex 5.22642 -49.7261 -50.5
      vertex 15.4508 -47.5528 -50.5
    endloop
  endfacet
  facet normal -0.994522 0.104526 0
    outer loop
      vertex -50 0 -50.5
      vertex -48.9074 10.3956 -49.5
      vertex -48.9074 10.3956 -50.5
    endloop
  endfacet
  facet normal -0.994522 0.104526 0
    outer loop
      vertex -48.9074 10.3956 -49.5
      vertex -50 0 -50.5
      vertex -50 0 -49.5
    endloop
  endfacet
  facet normal 0.207915 0.978147 -0
    outer loop
      vertex 15.4508 47.5528 -50.5
      vertex 5.22642 49.7261 -49.5
      vertex 15.4508 47.5528 -49.5
    endloop
  endfacet
  facet normal 0.207915 0.978147 0
    outer loop
      vertex 5.22642 49.7261 -49.5
      vertex 15.4508 47.5528 -50.5
      vertex 5.22642 49.7261 -50.5
    endloop
  endfacet
  facet normal 0.587791 0.809013 -0
    outer loop
      vertex 33.4565 37.1572 -50.5
      vertex 25 43.3013 -49.5
      vertex 33.4565 37.1572 -49.5
    endloop
  endfacet
  facet normal 0.587791 0.809013 0
    outer loop
      vertex 25 43.3013 -49.5
      vertex 33.4565 37.1572 -50.5
      vertex 25 43.3013 -50.5
    endloop
  endfacet
  facet normal -0.207915 0.978147 0
    outer loop
      vertex -5.22642 49.7261 -50.5
      vertex -15.4508 47.5528 -49.5
      vertex -5.22642 49.7261 -49.5
    endloop
  endfacet
  facet normal -0.207915 0.978147 0
    outer loop
      vertex -15.4508 47.5528 -49.5
      vertex -5.22642 49.7261 -50.5
      vertex -15.4508 47.5528 -50.5
    endloop
  endfacet
  facet normal 0.40673 -0.913548 0
    outer loop
      vertex 15.4508 -47.5528 -50.5
      vertex 25 -43.3013 -49.5
      vertex 15.4508 -47.5528 -49.5
    endloop
  endfacet
  facet normal 0.40673 -0.913548 0
    outer loop
      vertex 25 -43.3013 -49.5
      vertex 15.4508 -47.5528 -50.5
      vertex 25 -43.3013 -50.5
    endloop
  endfacet
  facet normal 0 -1 0
    outer loop
      vertex -5.22642 -49.7261 -50.5
      vertex 5.22642 -49.7261 -49.5
      vertex -5.22642 -49.7261 -49.5
    endloop
  endfacet
  facet normal 0 -1 -0
    outer loop
      vertex 5.22642 -49.7261 -49.5
      vertex -5.22642 -49.7261 -50.5
      vertex 5.22642 -49.7261 -50.5
    endloop
  endfacet
  facet normal -0.207915 -0.978147 0
    outer loop
      vertex -15.4508 -47.5528 -50.5
      vertex -5.22642 -49.7261 -49.5
      vertex -15.4508 -47.5528 -49.5
    endloop
  endfacet
  facet normal -0.207915 -0.978147 -0
    outer loop
      vertex -5.22642 -49.7261 -49.5
      vertex -15.4508 -47.5528 -50.5
      vertex -5.22642 -49.7261 -50.5
    endloop
  endfacet
  facet normal -0.951056 0.309018 0
    outer loop
      vertex -48.9074 10.3956 -50.5
      vertex -45.6773 20.3368 -49.5
      vertex -45.6773 20.3368 -50.5
    endloop
  endfacet
  facet normal -0.951056 0.309018 0
    outer loop
      vertex -45.6773 20.3368 -49.5
      vertex -48.9074 10.3956 -50.5
      vertex -48.9074 10.3956 -49.5
    endloop
  endfacet
endsolid OpenSCAD_Model
