solid OpenSCAD_Model
  facet normal 1 -0 0
    outer loop
      vertex 80 0 10
      vertex 80 100 0
      vertex 80 100 10
    endloop
  endfacet
  facet normal 1 0 0
    outer loop
      vertex 80 100 0
      vertex 80 0 10
      vertex 80 0 0
    endloop
  endfacet
  facet normal 0 0 1
    outer loop
      vertex 80 100 10
      vertex 45 57.5 10
      vertex 80 0 10
    endloop
  endfacet
  facet normal 0 0 1
    outer loop
      vertex 80 100 10
      vertex 35 57.5 10
      vertex 45 57.5 10
    endloop
  endfacet
  facet normal 0 0 1
    outer loop
      vertex 35 57.5 10
      vertex 0 100 10
      vertex 35 42.5 10
    endloop
  endfacet
  facet normal -0 0 1
    outer loop
      vertex 0 100 10
      vertex 35 57.5 10
      vertex 80 100 10
    endloop
  endfacet
  facet normal -0 0 1
    outer loop
      vertex 45 42.5 10
      vertex 80 0 10
      vertex 45 57.5 10
    endloop
  endfacet
  facet normal -0 0 1
    outer loop
      vertex 35 42.5 10
      vertex 80 0 10
      vertex 45 42.5 10
    endloop
  endfacet
  facet normal 0 0 1
    outer loop
      vertex 35 42.5 10
      vertex 0 0 10
      vertex 80 0 10
    endloop
  endfacet
  facet normal 0 0 1
    outer loop
      vertex 0 0 10
      vertex 35 42.5 10
      vertex 0 100 10
    endloop
  endfacet
  facet normal 0 0 -1
    outer loop
      vertex 0 0 0
      vertex 80 100 0
      vertex 80 0 0
    endloop
  endfacet
  facet normal -0 0 -1
    outer loop
      vertex 80 100 0
      vertex 0 0 0
      vertex 0 100 0
    endloop
  endfacet
  facet normal -1 0 0
    outer loop
      vertex 0 0 0
      vertex 0 100 10
      vertex 0 100 0
    endloop
  endfacet
  facet normal -1 -0 0
    outer loop
      vertex 0 100 10
      vertex 0 0 0
      vertex 0 0 10
    endloop
  endfacet
  facet normal 0 1 -0
    outer loop
      vertex 80 100 0
      vertex 0 100 10
      vertex 80 100 10
    endloop
  endfacet
  facet normal 0 1 0
    outer loop
      vertex 0 100 10
      vertex 80 100 0
      vertex 0 100 0
    endloop
  endfacet
  facet normal 0 -1 0
    outer loop
      vertex 0 0 0
      vertex 80 0 10
      vertex 0 0 10
    endloop
  endfacet
  facet normal 0 -1 -0
    outer loop
      vertex 80 0 10
      vertex 0 0 0
      vertex 80 0 0
    endloop
  endfacet
  facet normal 1 -0 0
    outer loop
      vertex 45 42.5 59
      vertex 45 57.5 10
      vertex 45 57.5 59
    endloop
  endfacet
  facet normal 1 0 0
    outer loop
      vertex 45 57.5 10
      vertex 45 42.5 59
      vertex 45 42.5 10
    endloop
  endfacet
  facet normal -0 0 1
    outer loop
      vertex 35 57.5 59
      vertex 45 42.5 59
      vertex 45 57.5 59
    endloop
  endfacet
  facet normal 0 0 1
    outer loop
      vertex 45 42.5 59
      vertex 35 57.5 59
      vertex 35 42.5 59
    endloop
  endfacet
  facet normal -1 0 0
    outer loop
      vertex 35 42.5 10
      vertex 35 57.5 59
      vertex 35 57.5 10
    endloop
  endfacet
  facet normal -1 -0 0
    outer loop
      vertex 35 57.5 59
      vertex 35 42.5 10
      vertex 35 42.5 59
    endloop
  endfacet
  facet normal 0 1 -0
    outer loop
      vertex 45 57.5 10
      vertex 35 57.5 59
      vertex 45 57.5 59
    endloop
  endfacet
  facet normal 0 1 0
    outer loop
      vertex 35 57.5 59
      vertex 45 57.5 10
      vertex 35 57.5 10
    endloop
  endfacet
  facet normal 0 -1 0
    outer loop
      vertex 35 42.5 10
      vertex 45 42.5 59
      vertex 35 42.5 59
    endloop
  endfacet
  facet normal 0 -1 -0
    outer loop
      vertex 45 42.5 59
      vertex 35 42.5 10
      vertex 45 42.5 10
    endloop
  endfacet
  facet normal 0 0.866039 0.499977
    outer loop
      vertex 80 -20.6699 64.8013
      vertex 0 -21.3397 65.9615
      vertex 80 -21.3397 65.9615
    endloop
  endfacet
  facet normal 0 0.866039 0.499977
    outer loop
      vertex 0 -21.3397 65.9615
      vertex 80 -20.6699 64.8013
      vertex 0 -20.6699 64.8013
    endloop
  endfacet
  facet normal 0 -0.499998 0.866027
    outer loop
      vertex 0 -21.3397 65.9615
      vertex 80 -30 60.9615
      vertex 80 -21.3397 65.9615
    endloop
  endfacet
  facet normal 0 -0.499998 0.866027
    outer loop
      vertex 80 -30 60.9615
      vertex 0 -21.3397 65.9615
      vertex 0 -30 60.9615
    endloop
  endfacet
  facet normal 1 0 0
    outer loop
      vertex 80 -21.3397 65.9615
      vertex 80 -30 60.9615
      vertex 80 -29.3301 59.8013
    endloop
  endfacet
  facet normal 1 -0 0
    outer loop
      vertex 80 -20.6699 64.8013
      vertex 80 6.49519 22.75
      vertex 80 -18.5048 66.0513
    endloop
  endfacet
  facet normal 1 0 0
    outer loop
      vertex 80 6.49519 22.75
      vertex 80 -20.6699 64.8013
      vertex 80 -6.49519 15.25
    endloop
  endfacet
  facet normal 1 0 0
    outer loop
      vertex 80 -29.3301 59.8013
      vertex 80 -20.6699 64.8013
      vertex 80 -21.3397 65.9615
    endloop
  endfacet
  facet normal 1 0 0
    outer loop
      vertex 80 -20.6699 64.8013
      vertex 80 -29.3301 59.8013
      vertex 80 -6.49519 15.25
    endloop
  endfacet
  facet normal 1 0 0
    outer loop
      vertex 80 -6.49519 15.25
      vertex 80 -29.3301 59.8013
      vertex 80 -31.4952 58.5513
    endloop
  endfacet
  facet normal -1 0 0
    outer loop
      vertex 0 -20.6699 64.8013
      vertex 0 6.49519 22.75
      vertex 0 -6.49519 15.25
    endloop
  endfacet
  facet normal -1 0 0
    outer loop
      vertex 0 6.49519 22.75
      vertex 0 -20.6699 64.8013
      vertex 0 -18.5048 66.0513
    endloop
  endfacet
  facet normal -1 0 0
    outer loop
      vertex 0 -29.3301 59.8013
      vertex 0 -20.6699 64.8013
      vertex 0 -6.49519 15.25
    endloop
  endfacet
  facet normal -1 -0 0
    outer loop
      vertex 0 -20.6699 64.8013
      vertex 0 -29.3301 59.8013
      vertex 0 -21.3397 65.9615
    endloop
  endfacet
  facet normal -1 0 -0
    outer loop
      vertex 0 -29.3301 59.8013
      vertex 0 -6.49519 15.25
      vertex 0 -31.4952 58.5513
    endloop
  endfacet
  facet normal -1 0 0
    outer loop
      vertex 0 -21.3397 65.9615
      vertex 0 -29.3301 59.8013
      vertex 0 -30 60.9615
    endloop
  endfacet
  facet normal 0 -0.866007 -0.500033
    outer loop
      vertex 0 -29.3301 59.8013
      vertex 80 -30 60.9615
      vertex 0 -30 60.9615
    endloop
  endfacet
  facet normal 0 -0.866007 -0.500033
    outer loop
      vertex 80 -30 60.9615
      vertex 0 -29.3301 59.8013
      vertex 80 -29.3301 59.8013
    endloop
  endfacet
  facet normal 0 0.5 -0.866025
    outer loop
      vertex 0 -6.49519 15.25
      vertex 80 6.49519 22.75
      vertex 80 -6.49519 15.25
    endloop
  endfacet
  facet normal 0 0.5 -0.866025
    outer loop
      vertex 80 6.49519 22.75
      vertex 0 -6.49519 15.25
      vertex 0 6.49519 22.75
    endloop
  endfacet
  facet normal 0 0.866026 0.5
    outer loop
      vertex 80 6.49519 22.75
      vertex 0 -18.5048 66.0513
      vertex 80 -18.5048 66.0513
    endloop
  endfacet
  facet normal 0 0.866026 0.5
    outer loop
      vertex 0 -18.5048 66.0513
      vertex 80 6.49519 22.75
      vertex 0 6.49519 22.75
    endloop
  endfacet
  facet normal 0 -0.499994 0.866029
    outer loop
      vertex 0 -18.5048 66.0513
      vertex 80 -20.6699 64.8013
      vertex 80 -18.5048 66.0513
    endloop
  endfacet
  facet normal 0 -0.499994 0.866029
    outer loop
      vertex 80 -20.6699 64.8013
      vertex 0 -18.5048 66.0513
      vertex 0 -20.6699 64.8013
    endloop
  endfacet
  facet normal 0 -0.499994 0.866029
    outer loop
      vertex 0 -29.3301 59.8013
      vertex 80 -31.4952 58.5513
      vertex 80 -29.3301 59.8013
    endloop
  endfacet
  facet normal 0 -0.499994 0.866029
    outer loop
      vertex 80 -31.4952 58.5513
      vertex 0 -29.3301 59.8013
      vertex 0 -31.4952 58.5513
    endloop
  endfacet
  facet normal 0 -0.866025 -0.5
    outer loop
      vertex 0 -6.49519 15.25
      vertex 80 -31.4952 58.5513
      vertex 0 -31.4952 58.5513
    endloop
  endfacet
  facet normal 0 -0.866025 -0.5
    outer loop
      vertex 80 -31.4952 58.5513
      vertex 0 -6.49519 15.25
      vertex 80 -6.49519 15.25
    endloop
  endfacet
endsolid OpenSCAD_Model
