solid OpenSCAD_Model
  facet normal 0.969007 0.101849 0.22506
    outer loop
      vertex 35.2133 7.48482 0
      vertex 0 0 155
      vertex 36 0 0
    endloop
  endfacet
  facet normal 0.926656 0.301093 0.22506
    outer loop
      vertex 32.8876 14.6425 0
      vertex 0 0 155
      vertex 35.2133 7.48482 0
    endloop
  endfacet
  facet normal 0.843811 0.487167 0.22506
    outer loop
      vertex 29.1246 21.1603 0
      vertex 0 0 155
      vertex 32.8876 14.6425 0
    endloop
  endfacet
  facet normal 0.724077 0.651966 0.22506
    outer loop
      vertex 24.0887 26.7532 0
      vertex 0 0 155
      vertex 29.1246 21.1603 0
    endloop
  endfacet
  facet normal 0.572706 0.788262 0.22506
    outer loop
      vertex 18 31.1769 0
      vertex 0 0 155
      vertex 24.0887 26.7532 0
    endloop
  endfacet
  facet normal 0.396299 0.89011 0.22506
    outer loop
      vertex 11.1246 34.238 0
      vertex 0 0 155
      vertex 18 31.1769 0
    endloop
  endfacet
  facet normal 0.202584 0.953052 0.22506
    outer loop
      vertex 3.76302 35.8028 0
      vertex 0 0 155
      vertex 11.1246 34.238 0
    endloop
  endfacet
  facet normal -0 0.974345 0.22506
    outer loop
      vertex -3.76302 35.8028 0
      vertex 0 0 155
      vertex 3.76302 35.8028 0
    endloop
  endfacet
  facet normal -0.202584 0.953052 0.22506
    outer loop
      vertex -11.1246 34.238 0
      vertex 0 0 155
      vertex -3.76302 35.8028 0
    endloop
  endfacet
  facet normal -0.396299 0.89011 0.22506
    outer loop
      vertex -18 31.1769 0
      vertex 0 0 155
      vertex -11.1246 34.238 0
    endloop
  endfacet
  facet normal -0.572706 0.788262 0.22506
    outer loop
      vertex -24.0887 26.7532 0
      vertex 0 0 155
      vertex -18 31.1769 0
    endloop
  endfacet
  facet normal -0.724077 0.651966 0.22506
    outer loop
      vertex -29.1246 21.1603 0
      vertex 0 0 155
      vertex -24.0887 26.7532 0
    endloop
  endfacet
  facet normal -0.843811 0.487167 0.22506
    outer loop
      vertex -32.8876 14.6425 0
      vertex 0 0 155
      vertex -29.1246 21.1603 0
    endloop
  endfacet
  facet normal -0.926656 0.301093 0.22506
    outer loop
      vertex -35.2133 7.48482 0
      vertex 0 0 155
      vertex -32.8876 14.6425 0
    endloop
  endfacet
  facet normal -0.969007 0.101849 0.22506
    outer loop
      vertex -36 -0 0
      vertex 0 0 155
      vertex -35.2133 7.48482 0
    endloop
  endfacet
  facet normal -0.969007 -0.101849 0.22506
    outer loop
      vertex -35.2133 -7.48482 0
      vertex 0 0 155
      vertex -36 -0 0
    endloop
  endfacet
  facet normal -0.926656 -0.301093 0.22506
    outer loop
      vertex -32.8876 -14.6425 0
      vertex 0 0 155
      vertex -35.2133 -7.48482 0
    endloop
  endfacet
  facet normal -0.843811 -0.487167 0.22506
    outer loop
      vertex -29.1246 -21.1603 0
      vertex 0 0 155
      vertex -32.8876 -14.6425 0
    endloop
  endfacet
  facet normal -0.724077 -0.651966 0.22506
    outer loop
      vertex -24.0887 -26.7532 0
      vertex 0 0 155
      vertex -29.1246 -21.1603 0
    endloop
  endfacet
  facet normal -0.572706 -0.788262 0.22506
    outer loop
      vertex -18 -31.1769 0
      vertex 0 0 155
      vertex -24.0887 -26.7532 0
    endloop
  endfacet
  facet normal -0.396299 -0.89011 0.22506
    outer loop
      vertex -11.1246 -34.238 0
      vertex 0 0 155
      vertex -18 -31.1769 0
    endloop
  endfacet
  facet normal -0.202584 -0.953052 0.22506
    outer loop
      vertex -3.76302 -35.8028 0
      vertex 0 0 155
      vertex -11.1246 -34.238 0
    endloop
  endfacet
  facet normal 0 -0.974345 0.22506
    outer loop
      vertex 3.76302 -35.8028 0
      vertex 0 0 155
      vertex -3.76302 -35.8028 0
    endloop
  endfacet
  facet normal 0.202584 -0.953052 0.22506
    outer loop
      vertex 11.1246 -34.238 0
      vertex 0 0 155
      vertex 3.76302 -35.8028 0
    endloop
  endfacet
  facet normal 0.396299 -0.89011 0.22506
    outer loop
      vertex 18 -31.1769 0
      vertex 0 0 155
      vertex 11.1246 -34.238 0
    endloop
  endfacet
  facet normal 0.572706 -0.788262 0.22506
    outer loop
      vertex 24.0887 -26.7532 0
      vertex 0 0 155
      vertex 18 -31.1769 0
    endloop
  endfacet
  facet normal 0.724077 -0.651966 0.22506
    outer loop
      vertex 29.1246 -21.1603 0
      vertex 0 0 155
      vertex 24.0887 -26.7532 0
    endloop
  endfacet
  facet normal 0.843811 -0.487167 0.22506
    outer loop
      vertex 32.8876 -14.6425 0
      vertex 0 0 155
      vertex 29.1246 -21.1603 0
    endloop
  endfacet
  facet normal 0.926656 -0.301093 0.22506
    outer loop
      vertex 35.2133 -7.48482 0
      vertex 0 0 155
      vertex 32.8876 -14.6425 0
    endloop
  endfacet
  facet normal 0.969007 -0.101849 0.22506
    outer loop
      vertex 36 0 0
      vertex 0 0 155
      vertex 35.2133 -7.48482 0
    endloop
  endfacet
  facet normal 0 0 -1
    outer loop
      vertex 35.2133 -7.48482 0
      vertex 35.2133 7.48482 0
      vertex 36 0 0
    endloop
  endfacet
  facet normal 0 0 -1
    outer loop
      vertex 32.8876 -14.6425 0
      vertex 35.2133 7.48482 0
      vertex 35.2133 -7.48482 0
    endloop
  endfacet
  facet normal 0 0 -1
    outer loop
      vertex 32.8876 -14.6425 0
      vertex 32.8876 14.6425 0
      vertex 35.2133 7.48482 0
    endloop
  endfacet
  facet normal 0 0 -1
    outer loop
      vertex 29.1246 -21.1603 0
      vertex 32.8876 14.6425 0
      vertex 32.8876 -14.6425 0
    endloop
  endfacet
  facet normal 0 0 -1
    outer loop
      vertex 29.1246 -21.1603 0
      vertex 29.1246 21.1603 0
      vertex 32.8876 14.6425 0
    endloop
  endfacet
  facet normal 0 0 -1
    outer loop
      vertex 24.0887 -26.7532 0
      vertex 29.1246 21.1603 0
      vertex 29.1246 -21.1603 0
    endloop
  endfacet
  facet normal 0 0 -1
    outer loop
      vertex 24.0887 -26.7532 0
      vertex 24.0887 26.7532 0
      vertex 29.1246 21.1603 0
    endloop
  endfacet
  facet normal 0 0 -1
    outer loop
      vertex 18 -31.1769 0
      vertex 24.0887 26.7532 0
      vertex 24.0887 -26.7532 0
    endloop
  endfacet
  facet normal 0 0 -1
    outer loop
      vertex 18 -31.1769 0
      vertex 18 31.1769 0
      vertex 24.0887 26.7532 0
    endloop
  endfacet
  facet normal 0 0 -1
    outer loop
      vertex 11.1246 -34.238 0
      vertex 18 31.1769 0
      vertex 18 -31.1769 0
    endloop
  endfacet
  facet normal 0 0 -1
    outer loop
      vertex 11.1246 -34.238 0
      vertex 11.1246 34.238 0
      vertex 18 31.1769 0
    endloop
  endfacet
  facet normal 0 0 -1
    outer loop
      vertex 3.76302 -35.8028 0
      vertex 11.1246 34.238 0
      vertex 11.1246 -34.238 0
    endloop
  endfacet
  facet normal 0 0 -1
    outer loop
      vertex 3.76302 -35.8028 0
      vertex 3.76302 35.8028 0
      vertex 11.1246 34.238 0
    endloop
  endfacet
  facet normal 0 0 -1
    outer loop
      vertex -3.76302 -35.8028 0
      vertex 3.76302 35.8028 0
      vertex 3.76302 -35.8028 0
    endloop
  endfacet
  facet normal 0 0 -1
    outer loop
      vertex -3.76302 -35.8028 0
      vertex -3.76302 35.8028 0
      vertex 3.76302 35.8028 0
    endloop
  endfacet
  facet normal 0 0 -1
    outer loop
      vertex -11.1246 -34.238 0
      vertex -3.76302 35.8028 0
      vertex -3.76302 -35.8028 0
    endloop
  endfacet
  facet normal 0 0 -1
    outer loop
      vertex -11.1246 -34.238 0
      vertex -11.1246 34.238 0
      vertex -3.76302 35.8028 0
    endloop
  endfacet
  facet normal 0 0 -1
    outer loop
      vertex -18 -31.1769 0
      vertex -11.1246 34.238 0
      vertex -11.1246 -34.238 0
    endloop
  endfacet
  facet normal 0 0 -1
    outer loop
      vertex -18 -31.1769 0
      vertex -18 31.1769 0
      vertex -11.1246 34.238 0
    endloop
  endfacet
  facet normal 0 0 -1
    outer loop
      vertex -24.0887 -26.7532 0
      vertex -18 31.1769 0
      vertex -18 -31.1769 0
    endloop
  endfacet
  facet normal 0 0 -1
    outer loop
      vertex -24.0887 -26.7532 0
      vertex -24.0887 26.7532 0
      vertex -18 31.1769 0
    endloop
  endfacet
  facet normal 0 0 -1
    outer loop
      vertex -29.1246 -21.1603 0
      vertex -24.0887 26.7532 0
      vertex -24.0887 -26.7532 0
    endloop
  endfacet
  facet normal 0 0 -1
    outer loop
      vertex -29.1246 -21.1603 0
      vertex -29.1246 21.1603 0
      vertex -24.0887 26.7532 0
    endloop
  endfacet
  facet normal 0 0 -1
    outer loop
      vertex -32.8876 -14.6425 0
      vertex -29.1246 21.1603 0
      vertex -29.1246 -21.1603 0
    endloop
  endfacet
  facet normal 0 0 -1
    outer loop
      vertex -32.8876 -14.6425 0
      vertex -32.8876 14.6425 0
      vertex -29.1246 21.1603 0
    endloop
  endfacet
  facet normal 0 0 -1
    outer loop
      vertex -35.2133 -7.48482 0
      vertex -32.8876 14.6425 0
      vertex -32.8876 -14.6425 0
    endloop
  endfacet
  facet normal 0 0 -1
    outer loop
      vertex -35.2133 -7.48482 0
      vertex -35.2133 7.48482 0
      vertex -32.8876 14.6425 0
    endloop
  endfacet
  facet normal 0 -0 -1
    outer loop
      vertex -35.2133 7.48482 0
      vertex -35.2133 -7.48482 0
      vertex -36 -0 0
    endloop
  endfacet
endsolid OpenSCAD_Model
