solid OpenSCAD_Model
  facet normal 1 -0 0
    outer loop
      vertex 26 -26 2.5
      vertex 26 26 0
      vertex 26 26 2.5
    endloop
  endfacet
  facet normal 1 0 0
    outer loop
      vertex 26 26 0
      vertex 26 -26 2.5
      vertex 26 -26 0
    endloop
  endfacet
  facet normal 0 0 1
    outer loop
      vertex -6.71645 1.97213 2.5
      vertex -16.8 14.6144 2.5
      vertex -7 0 2.5
    endloop
  endfacet
  facet normal 0 0 1
    outer loop
      vertex -7 0 2.5
      vertex -15.2 -14.6144 2.5
      vertex -14.4 -16 2.5
    endloop
  endfacet
  facet normal 0 0 1
    outer loop
      vertex -16.8 -14.6144 2.5
      vertex -7 0 2.5
      vertex -16.8 14.6144 2.5
    endloop
  endfacet
  facet normal 0 0 1
    outer loop
      vertex -7 0 2.5
      vertex -16.8 -14.6144 2.5
      vertex -15.2 -14.6144 2.5
    endloop
  endfacet
  facet normal 0 0 1
    outer loop
      vertex -17.6 16 2.5
      vertex -16.8 -14.6144 2.5
      vertex -16.8 14.6144 2.5
    endloop
  endfacet
  facet normal 0 0 1
    outer loop
      vertex -16.8 -14.6144 2.5
      vertex -17.6 16 2.5
      vertex -17.6 -16 2.5
    endloop
  endfacet
  facet normal -0 0 1
    outer loop
      vertex 16.8 14.6144 2.5
      vertex 17.6 -16 2.5
      vertex 17.6 16 2.5
    endloop
  endfacet
  facet normal 0 0 1
    outer loop
      vertex 16.8 14.6144 2.5
      vertex 16.8 -14.6144 2.5
      vertex 17.6 -16 2.5
    endloop
  endfacet
  facet normal 0 0 1
    outer loop
      vertex 6.71645 1.97213 2.5
      vertex 16.8 14.6144 2.5
      vertex 15.2 14.6144 2.5
    endloop
  endfacet
  facet normal 0 0 1
    outer loop
      vertex 16.8 14.6144 2.5
      vertex 7 0 2.5
      vertex 16.8 -14.6144 2.5
    endloop
  endfacet
  facet normal 0 0 1
    outer loop
      vertex 4.58402 5.29025 2.5
      vertex 15.2 14.6144 2.5
      vertex 14.4 16 2.5
    endloop
  endfacet
  facet normal -0 0 1
    outer loop
      vertex 6.71645 -1.97213 2.5
      vertex 16.8 -14.6144 2.5
      vertex 7 0 2.5
    endloop
  endfacet
  facet normal 0 0 1
    outer loop
      vertex 26 26 2.5
      vertex 17.6 16 2.5
      vertex 26 -26 2.5
    endloop
  endfacet
  facet normal 0 0 1
    outer loop
      vertex 26 26 2.5
      vertex 16.8 17.3856 2.5
      vertex 17.6 16 2.5
    endloop
  endfacet
  facet normal 0 0 1
    outer loop
      vertex 26 26 2.5
      vertex 15.2 17.3856 2.5
      vertex 16.8 17.3856 2.5
    endloop
  endfacet
  facet normal 0 0 1
    outer loop
      vertex 16.8 -14.6144 2.5
      vertex 6.71645 -1.97213 2.5
      vertex 15.2 -14.6144 2.5
    endloop
  endfacet
  facet normal 0 0 1
    outer loop
      vertex 16.8 14.6144 2.5
      vertex 6.71645 1.97213 2.5
      vertex 7 0 2.5
    endloop
  endfacet
  facet normal 0 0 1
    outer loop
      vertex 15.2 14.6144 2.5
      vertex 5.88877 3.78448 2.5
      vertex 6.71645 1.97213 2.5
    endloop
  endfacet
  facet normal 0 0 1
    outer loop
      vertex -14.4 16 2.5
      vertex 14.4 16 2.5
      vertex 15.2 17.3856 2.5
    endloop
  endfacet
  facet normal 0 0 1
    outer loop
      vertex 15.2 14.6144 2.5
      vertex 4.58402 5.29025 2.5
      vertex 5.88877 3.78448 2.5
    endloop
  endfacet
  facet normal 0 0 1
    outer loop
      vertex 14.4 16 2.5
      vertex 2.9079 6.36742 2.5
      vertex 4.58402 5.29025 2.5
    endloop
  endfacet
  facet normal 0 0 1
    outer loop
      vertex 14.4 16 2.5
      vertex 0.996203 6.92875 2.5
      vertex 2.9079 6.36742 2.5
    endloop
  endfacet
  facet normal 0 0 1
    outer loop
      vertex -15.2 17.3856 2.5
      vertex 15.2 17.3856 2.5
      vertex 26 26 2.5
    endloop
  endfacet
  facet normal 0 -0 1
    outer loop
      vertex -14.4 16 2.5
      vertex 15.2 17.3856 2.5
      vertex -15.2 17.3856 2.5
    endloop
  endfacet
  facet normal 0 0 1
    outer loop
      vertex 14.4 16 2.5
      vertex -14.4 16 2.5
      vertex 0.996203 6.92875 2.5
    endloop
  endfacet
  facet normal 0 0 1
    outer loop
      vertex -0.996203 6.92875 2.5
      vertex -14.4 16 2.5
      vertex -2.9079 6.36742 2.5
    endloop
  endfacet
  facet normal 0 0 1
    outer loop
      vertex -5.88877 3.78448 2.5
      vertex -15.2 14.6144 2.5
      vertex -6.71645 1.97213 2.5
    endloop
  endfacet
  facet normal 0 0 1
    outer loop
      vertex -4.58402 5.29025 2.5
      vertex -15.2 14.6144 2.5
      vertex -5.88877 3.78448 2.5
    endloop
  endfacet
  facet normal -0 0 1
    outer loop
      vertex -15.2 14.6144 2.5
      vertex -4.58402 5.29025 2.5
      vertex -14.4 16 2.5
    endloop
  endfacet
  facet normal 0 0 1
    outer loop
      vertex -2.9079 6.36742 2.5
      vertex -14.4 16 2.5
      vertex -4.58402 5.29025 2.5
    endloop
  endfacet
  facet normal 0 0 1
    outer loop
      vertex 0.996203 6.92875 2.5
      vertex -14.4 16 2.5
      vertex -0.996203 6.92875 2.5
    endloop
  endfacet
  facet normal -0 0 1
    outer loop
      vertex -26 26 2.5
      vertex -15.2 17.3856 2.5
      vertex 26 26 2.5
    endloop
  endfacet
  facet normal 0 0 1
    outer loop
      vertex -17.6 16 2.5
      vertex -26 26 2.5
      vertex -17.6 -16 2.5
    endloop
  endfacet
  facet normal 0 0 1
    outer loop
      vertex -16.8 17.3856 2.5
      vertex -26 26 2.5
      vertex -17.6 16 2.5
    endloop
  endfacet
  facet normal 0 0 1
    outer loop
      vertex -15.2 17.3856 2.5
      vertex -26 26 2.5
      vertex -16.8 17.3856 2.5
    endloop
  endfacet
  facet normal -0 0 1
    outer loop
      vertex 17.6 -16 2.5
      vertex 26 -26 2.5
      vertex 17.6 16 2.5
    endloop
  endfacet
  facet normal -0 0 1
    outer loop
      vertex 16.8 -17.3856 2.5
      vertex 26 -26 2.5
      vertex 17.6 -16 2.5
    endloop
  endfacet
  facet normal -0 0 1
    outer loop
      vertex 15.2 -17.3856 2.5
      vertex 26 -26 2.5
      vertex 16.8 -17.3856 2.5
    endloop
  endfacet
  facet normal -0 0 1
    outer loop
      vertex 5.88877 -3.78448 2.5
      vertex 15.2 -14.6144 2.5
      vertex 6.71645 -1.97213 2.5
    endloop
  endfacet
  facet normal -0 0 1
    outer loop
      vertex 4.58402 -5.29025 2.5
      vertex 15.2 -14.6144 2.5
      vertex 5.88877 -3.78448 2.5
    endloop
  endfacet
  facet normal 0 0 1
    outer loop
      vertex 15.2 -14.6144 2.5
      vertex 4.58402 -5.29025 2.5
      vertex 14.4 -16 2.5
    endloop
  endfacet
  facet normal -0 0 1
    outer loop
      vertex 2.9079 -6.36742 2.5
      vertex 14.4 -16 2.5
      vertex 4.58402 -5.29025 2.5
    endloop
  endfacet
  facet normal -0 0 1
    outer loop
      vertex 0.996203 -6.92875 2.5
      vertex 14.4 -16 2.5
      vertex 2.9079 -6.36742 2.5
    endloop
  endfacet
  facet normal 0 0 1
    outer loop
      vertex -14.4 -16 2.5
      vertex 14.4 -16 2.5
      vertex 0.996203 -6.92875 2.5
    endloop
  endfacet
  facet normal 0 0 1
    outer loop
      vertex 14.4 -16 2.5
      vertex -14.4 -16 2.5
      vertex 15.2 -17.3856 2.5
    endloop
  endfacet
  facet normal 0 0 1
    outer loop
      vertex -14.4 -16 2.5
      vertex 0.996203 -6.92875 2.5
      vertex -0.996203 -6.92875 2.5
    endloop
  endfacet
  facet normal 0 0 1
    outer loop
      vertex -14.4 -16 2.5
      vertex -0.996203 -6.92875 2.5
      vertex -2.9079 -6.36742 2.5
    endloop
  endfacet
  facet normal 0 0 1
    outer loop
      vertex -14.4 -16 2.5
      vertex -2.9079 -6.36742 2.5
      vertex -4.58402 -5.29025 2.5
    endloop
  endfacet
  facet normal -0 0 1
    outer loop
      vertex -16.8 14.6144 2.5
      vertex -6.71645 1.97213 2.5
      vertex -15.2 14.6144 2.5
    endloop
  endfacet
  facet normal 0 0 1
    outer loop
      vertex -7 0 2.5
      vertex -14.4 -16 2.5
      vertex -6.71645 -1.97213 2.5
    endloop
  endfacet
  facet normal 0 0 1
    outer loop
      vertex -14.4 -16 2.5
      vertex -5.88877 -3.78448 2.5
      vertex -6.71645 -1.97213 2.5
    endloop
  endfacet
  facet normal 0 0 1
    outer loop
      vertex -14.4 -16 2.5
      vertex -4.58402 -5.29025 2.5
      vertex -5.88877 -3.78448 2.5
    endloop
  endfacet
  facet normal 0 0 1
    outer loop
      vertex 15.2 -17.3856 2.5
      vertex -14.4 -16 2.5
      vertex -15.2 -17.3856 2.5
    endloop
  endfacet
  facet normal 0 0 1
    outer loop
      vertex 15.2 -17.3856 2.5
      vertex -15.2 -17.3856 2.5
      vertex 26 -26 2.5
    endloop
  endfacet
  facet normal 0 0 1
    outer loop
      vertex -26 -26 2.5
      vertex -15.2 -17.3856 2.5
      vertex -16.8 -17.3856 2.5
    endloop
  endfacet
  facet normal 0 0 1
    outer loop
      vertex -15.2 -17.3856 2.5
      vertex -26 -26 2.5
      vertex 26 -26 2.5
    endloop
  endfacet
  facet normal 0 0 1
    outer loop
      vertex -17.6 -16 2.5
      vertex -26 -26 2.5
      vertex -16.8 -17.3856 2.5
    endloop
  endfacet
  facet normal 0 0 1
    outer loop
      vertex -26 -26 2.5
      vertex -17.6 -16 2.5
      vertex -26 26 2.5
    endloop
  endfacet
  facet normal 0 0 -1
    outer loop
      vertex 26 -26 0
      vertex 21.5 -20 0
      vertex 26 26 0
    endloop
  endfacet
  facet normal 0 0 -1
    outer loop
      vertex 26 -26 0
      vertex 20.4635 -21.4266 0
      vertex 21.5 -20 0
    endloop
  endfacet
  facet normal 0 0 -1
    outer loop
      vertex 26 -26 0
      vertex -19.5365 -21.4266 0
      vertex 20.4635 -21.4266 0
    endloop
  endfacet
  facet normal -0 0 -1
    outer loop
      vertex -21.2135 -20.8817 0
      vertex -26 -26 0
      vertex -21.2135 20.8817 0
    endloop
  endfacet
  facet normal -0 0 -1
    outer loop
      vertex -19.5365 -21.4266 0
      vertex -26 -26 0
      vertex -21.2135 -20.8817 0
    endloop
  endfacet
  facet normal 0 0 -1
    outer loop
      vertex -26 -26 0
      vertex -19.5365 -21.4266 0
      vertex 26 -26 0
    endloop
  endfacet
  facet normal 0 0 -1
    outer loop
      vertex 21.5 20 0
      vertex 26 26 0
      vertex 21.5 -20 0
    endloop
  endfacet
  facet normal 0 0 -1
    outer loop
      vertex 20.4635 21.4266 0
      vertex 26 26 0
      vertex 21.5 20 0
    endloop
  endfacet
  facet normal 0 0 -1
    outer loop
      vertex -19.5365 21.4266 0
      vertex 26 26 0
      vertex 20.4635 21.4266 0
    endloop
  endfacet
  facet normal 0 0 -1
    outer loop
      vertex -19.5365 21.4266 0
      vertex -26 26 0
      vertex 26 26 0
    endloop
  endfacet
  facet normal 0 0 -1
    outer loop
      vertex -21.2135 20.8817 0
      vertex -26 26 0
      vertex -19.5365 21.4266 0
    endloop
  endfacet
  facet normal 0 0 -1
    outer loop
      vertex -26 26 0
      vertex -21.2135 20.8817 0
      vertex -26 -26 0
    endloop
  endfacet
  facet normal -1 0 0
    outer loop
      vertex -26 -26 0
      vertex -26 26 2.5
      vertex -26 26 0
    endloop
  endfacet
  facet normal -1 -0 0
    outer loop
      vertex -26 26 2.5
      vertex -26 -26 0
      vertex -26 -26 2.5
    endloop
  endfacet
  facet normal 0 1 -0
    outer loop
      vertex 26 26 0
      vertex -26 26 2.5
      vertex 26 26 2.5
    endloop
  endfacet
  facet normal 0 1 0
    outer loop
      vertex -26 26 2.5
      vertex 26 26 0
      vertex -26 26 0
    endloop
  endfacet
  facet normal 0 -1 0
    outer loop
      vertex -26 -26 0
      vertex 26 -26 2.5
      vertex -26 -26 2.5
    endloop
  endfacet
  facet normal 0 -1 -0
    outer loop
      vertex 26 -26 2.5
      vertex -26 -26 0
      vertex 26 -26 0
    endloop
  endfacet
  facet normal 0 1 -0
    outer loop
      vertex 16.8 17.3856 2.5
      vertex 15.2 17.3856 3.5
      vertex 16.8 17.3856 3.5
    endloop
  endfacet
  facet normal 0 1 0
    outer loop
      vertex 15.2 17.3856 3.5
      vertex 16.8 17.3856 2.5
      vertex 15.2 17.3856 2.5
    endloop
  endfacet
  facet normal 0.866019 0.500011 0
    outer loop
      vertex 17.6 16 3.5
      vertex 16.8 17.3856 2.5
      vertex 16.8 17.3856 3.5
    endloop
  endfacet
  facet normal 0.866019 0.500011 0
    outer loop
      vertex 16.8 17.3856 2.5
      vertex 17.6 16 3.5
      vertex 17.6 16 2.5
    endloop
  endfacet
  facet normal -0.866019 0.500011 0
    outer loop
      vertex 14.4 16 2.5
      vertex 15.2 17.3856 3.5
      vertex 15.2 17.3856 2.5
    endloop
  endfacet
  facet normal -0.866019 0.500011 0
    outer loop
      vertex 15.2 17.3856 3.5
      vertex 14.4 16 2.5
      vertex 14.4 16 3.5
    endloop
  endfacet
  facet normal -0.866019 -0.500011 0
    outer loop
      vertex 15.2 14.6144 2.5
      vertex 14.4 16 3.5
      vertex 14.4 16 2.5
    endloop
  endfacet
  facet normal -0.866019 -0.500011 0
    outer loop
      vertex 14.4 16 3.5
      vertex 15.2 14.6144 2.5
      vertex 15.2 14.6144 3.5
    endloop
  endfacet
  facet normal 0.866019 -0.500011 0
    outer loop
      vertex 16.8 14.6144 3.5
      vertex 17.6 16 2.5
      vertex 17.6 16 3.5
    endloop
  endfacet
  facet normal 0.866019 -0.500011 0
    outer loop
      vertex 17.6 16 2.5
      vertex 16.8 14.6144 3.5
      vertex 16.8 14.6144 2.5
    endloop
  endfacet
  facet normal 0 -1 0
    outer loop
      vertex 15.2 14.6144 2.5
      vertex 16.8 14.6144 3.5
      vertex 15.2 14.6144 3.5
    endloop
  endfacet
  facet normal 0 -1 -0
    outer loop
      vertex 16.8 14.6144 3.5
      vertex 15.2 14.6144 2.5
      vertex 16.8 14.6144 2.5
    endloop
  endfacet
  facet normal 0 1 -0
    outer loop
      vertex -15.2 17.3856 2.5
      vertex -16.8 17.3856 3.5
      vertex -15.2 17.3856 3.5
    endloop
  endfacet
  facet normal 0 1 0
    outer loop
      vertex -16.8 17.3856 3.5
      vertex -15.2 17.3856 2.5
      vertex -16.8 17.3856 2.5
    endloop
  endfacet
  facet normal 0.866019 0.500011 0
    outer loop
      vertex -14.4 16 3.5
      vertex -15.2 17.3856 2.5
      vertex -15.2 17.3856 3.5
    endloop
  endfacet
  facet normal 0.866019 0.500011 0
    outer loop
      vertex -15.2 17.3856 2.5
      vertex -14.4 16 3.5
      vertex -14.4 16 2.5
    endloop
  endfacet
  facet normal -0.866019 0.500011 0
    outer loop
      vertex -17.6 16 2.5
      vertex -16.8 17.3856 3.5
      vertex -16.8 17.3856 2.5
    endloop
  endfacet
  facet normal -0.866019 0.500011 0
    outer loop
      vertex -16.8 17.3856 3.5
      vertex -17.6 16 2.5
      vertex -17.6 16 3.5
    endloop
  endfacet
  facet normal -0.866019 -0.500011 0
    outer loop
      vertex -16.8 14.6144 2.5
      vertex -17.6 16 3.5
      vertex -17.6 16 2.5
    endloop
  endfacet
  facet normal -0.866019 -0.500011 0
    outer loop
      vertex -17.6 16 3.5
      vertex -16.8 14.6144 2.5
      vertex -16.8 14.6144 3.5
    endloop
  endfacet
  facet normal 0.866019 -0.500011 0
    outer loop
      vertex -15.2 14.6144 3.5
      vertex -14.4 16 2.5
      vertex -14.4 16 3.5
    endloop
  endfacet
  facet normal 0.866019 -0.500011 0
    outer loop
      vertex -14.4 16 2.5
      vertex -15.2 14.6144 3.5
      vertex -15.2 14.6144 2.5
    endloop
  endfacet
  facet normal 0 -1 0
    outer loop
      vertex -16.8 14.6144 2.5
      vertex -15.2 14.6144 3.5
      vertex -16.8 14.6144 3.5
    endloop
  endfacet
  facet normal 0 -1 -0
    outer loop
      vertex -15.2 14.6144 3.5
      vertex -16.8 14.6144 2.5
      vertex -15.2 14.6144 2.5
    endloop
  endfacet
  facet normal 0 -1 0
    outer loop
      vertex -16.8 -17.3856 2.5
      vertex -15.2 -17.3856 3.5
      vertex -16.8 -17.3856 3.5
    endloop
  endfacet
  facet normal 0 -1 -0
    outer loop
      vertex -15.2 -17.3856 3.5
      vertex -16.8 -17.3856 2.5
      vertex -15.2 -17.3856 2.5
    endloop
  endfacet
  facet normal 0.866019 -0.500011 0
    outer loop
      vertex -15.2 -17.3856 3.5
      vertex -14.4 -16 2.5
      vertex -14.4 -16 3.5
    endloop
  endfacet
  facet normal 0.866019 -0.500011 0
    outer loop
      vertex -14.4 -16 2.5
      vertex -15.2 -17.3856 3.5
      vertex -15.2 -17.3856 2.5
    endloop
  endfacet
  facet normal 0 1 -0
    outer loop
      vertex -15.2 -14.6144 2.5
      vertex -16.8 -14.6144 3.5
      vertex -15.2 -14.6144 3.5
    endloop
  endfacet
  facet normal 0 1 0
    outer loop
      vertex -16.8 -14.6144 3.5
      vertex -15.2 -14.6144 2.5
      vertex -16.8 -14.6144 2.5
    endloop
  endfacet
  facet normal 0.866019 0.500011 0
    outer loop
      vertex -14.4 -16 3.5
      vertex -15.2 -14.6144 2.5
      vertex -15.2 -14.6144 3.5
    endloop
  endfacet
  facet normal 0.866019 0.500011 0
    outer loop
      vertex -15.2 -14.6144 2.5
      vertex -14.4 -16 3.5
      vertex -14.4 -16 2.5
    endloop
  endfacet
  facet normal -0.866019 0.500011 0
    outer loop
      vertex -17.6 -16 2.5
      vertex -16.8 -14.6144 3.5
      vertex -16.8 -14.6144 2.5
    endloop
  endfacet
  facet normal -0.866019 0.500011 0
    outer loop
      vertex -16.8 -14.6144 3.5
      vertex -17.6 -16 2.5
      vertex -17.6 -16 3.5
    endloop
  endfacet
  facet normal -0.866019 -0.500011 0
    outer loop
      vertex -16.8 -17.3856 2.5
      vertex -17.6 -16 3.5
      vertex -17.6 -16 2.5
    endloop
  endfacet
  facet normal -0.866019 -0.500011 0
    outer loop
      vertex -17.6 -16 3.5
      vertex -16.8 -17.3856 2.5
      vertex -16.8 -17.3856 3.5
    endloop
  endfacet
  facet normal 0 -1 0
    outer loop
      vertex 15.2 -17.3856 2.5
      vertex 16.8 -17.3856 3.5
      vertex 15.2 -17.3856 3.5
    endloop
  endfacet
  facet normal 0 -1 -0
    outer loop
      vertex 16.8 -17.3856 3.5
      vertex 15.2 -17.3856 2.5
      vertex 16.8 -17.3856 2.5
    endloop
  endfacet
  facet normal 0.866019 -0.500011 0
    outer loop
      vertex 16.8 -17.3856 3.5
      vertex 17.6 -16 2.5
      vertex 17.6 -16 3.5
    endloop
  endfacet
  facet normal 0.866019 -0.500011 0
    outer loop
      vertex 17.6 -16 2.5
      vertex 16.8 -17.3856 3.5
      vertex 16.8 -17.3856 2.5
    endloop
  endfacet
  facet normal 0 1 -0
    outer loop
      vertex 16.8 -14.6144 2.5
      vertex 15.2 -14.6144 3.5
      vertex 16.8 -14.6144 3.5
    endloop
  endfacet
  facet normal 0 1 0
    outer loop
      vertex 15.2 -14.6144 3.5
      vertex 16.8 -14.6144 2.5
      vertex 15.2 -14.6144 2.5
    endloop
  endfacet
  facet normal 0.866019 0.500011 0
    outer loop
      vertex 17.6 -16 3.5
      vertex 16.8 -14.6144 2.5
      vertex 16.8 -14.6144 3.5
    endloop
  endfacet
  facet normal 0.866019 0.500011 0
    outer loop
      vertex 16.8 -14.6144 2.5
      vertex 17.6 -16 3.5
      vertex 17.6 -16 2.5
    endloop
  endfacet
  facet normal -0.866019 0.500011 0
    outer loop
      vertex 14.4 -16 2.5
      vertex 15.2 -14.6144 3.5
      vertex 15.2 -14.6144 2.5
    endloop
  endfacet
  facet normal -0.866019 0.500011 0
    outer loop
      vertex 15.2 -14.6144 3.5
      vertex 14.4 -16 2.5
      vertex 14.4 -16 3.5
    endloop
  endfacet
  facet normal -0.866019 -0.500011 0
    outer loop
      vertex 15.2 -17.3856 2.5
      vertex 14.4 -16 3.5
      vertex 14.4 -16 2.5
    endloop
  endfacet
  facet normal -0.866019 -0.500011 0
    outer loop
      vertex 14.4 -16 3.5
      vertex 15.2 -17.3856 2.5
      vertex 15.2 -17.3856 3.5
    endloop
  endfacet
  facet normal 0.866019 0 -0.500011
    outer loop
      vertex 21.5 -20 -40
      vertex 20.75 20 -41.299
      vertex 21.5 20 -40
    endloop
  endfacet
  facet normal 0.866019 0 -0.500011
    outer loop
      vertex 20.75 20 -41.299
      vertex 21.5 -20 -40
      vertex 20.75 -20 -41.299
    endloop
  endfacet
  facet normal 0 0.876543 -0.481323
    outer loop
      vertex 20.2318 20.7133 -41.299
      vertex -19.5365 21.4266 -40
      vertex 20.4635 21.4266 -40
    endloop
  endfacet
  facet normal 0 0.876543 -0.481323
    outer loop
      vertex -19.5365 21.4266 -40
      vertex 20.2318 20.7133 -41.299
      vertex -19.7682 20.7133 -41.299
    endloop
  endfacet
  facet normal 1 -0 0
    outer loop
      vertex 21.5 -20 0
      vertex 21.5 20 -40
      vertex 21.5 20 0
    endloop
  endfacet
  facet normal 1 0 0
    outer loop
      vertex 21.5 20 -40
      vertex 21.5 -20 0
      vertex 21.5 -20 -40
    endloop
  endfacet
  facet normal -0.309022 0.951055 0
    outer loop
      vertex -19.5365 21.4266 -40
      vertex -21.2135 20.8817 0
      vertex -19.5365 21.4266 0
    endloop
  endfacet
  facet normal -0.309022 0.951055 0
    outer loop
      vertex -21.2135 20.8817 0
      vertex -19.5365 21.4266 -40
      vertex -21.2135 20.8817 -40
    endloop
  endfacet
  facet normal 0.809013 0.587791 0
    outer loop
      vertex 21.5 20 0
      vertex 20.4635 21.4266 -40
      vertex 20.4635 21.4266 0
    endloop
  endfacet
  facet normal 0.809013 0.587791 0
    outer loop
      vertex 20.4635 21.4266 -40
      vertex 21.5 20 0
      vertex 21.5 20 -40
    endloop
  endfacet
  facet normal -0 -0.876543 -0.481323
    outer loop
      vertex 20.2318 -20.7133 -41.299
      vertex -19.5365 -21.4266 -40
      vertex -19.7682 -20.7133 -41.299
    endloop
  endfacet
  facet normal 0 -0.876543 -0.481323
    outer loop
      vertex -19.5365 -21.4266 -40
      vertex 20.2318 -20.7133 -41.299
      vertex 20.4635 -21.4266 -40
    endloop
  endfacet
  facet normal 0.73303 -0.532534 -0.423171
    outer loop
      vertex 20.4635 -21.4266 -40
      vertex 20.2318 -20.7133 -41.299
      vertex 20.75 -20 -41.299
    endloop
  endfacet
  facet normal 0 -1 0
    outer loop
      vertex -19.5365 -21.4266 -40
      vertex 20.4635 -21.4266 0
      vertex -19.5365 -21.4266 0
    endloop
  endfacet
  facet normal 0 -1 -0
    outer loop
      vertex 20.4635 -21.4266 0
      vertex -19.5365 -21.4266 -40
      vertex 20.4635 -21.4266 -40
    endloop
  endfacet
  facet normal -0.309022 -0.951055 0
    outer loop
      vertex -21.2135 -20.8817 -40
      vertex -19.5365 -21.4266 0
      vertex -21.2135 -20.8817 0
    endloop
  endfacet
  facet normal -0.309022 -0.951055 -0
    outer loop
      vertex -19.5365 -21.4266 0
      vertex -21.2135 -20.8817 -40
      vertex -19.5365 -21.4266 -40
    endloop
  endfacet
  facet normal -0.279996 -0.861669 -0.423236
    outer loop
      vertex -19.7682 -20.7133 -41.299
      vertex -21.2135 -20.8817 -40
      vertex -20.6068 -20.4408 -41.299
    endloop
  endfacet
  facet normal -0.279982 0.861681 -0.423222
    outer loop
      vertex -19.7682 20.7133 -41.299
      vertex -21.2135 20.8817 -40
      vertex -19.5365 21.4266 -40
    endloop
  endfacet
  facet normal 0.732993 -0.532558 -0.423206
    outer loop
      vertex 21.5 -20 -40
      vertex 20.4635 -21.4266 -40
      vertex 20.75 -20 -41.299
    endloop
  endfacet
  facet normal 0 1 -0
    outer loop
      vertex 20.4635 21.4266 -40
      vertex -19.5365 21.4266 0
      vertex 20.4635 21.4266 0
    endloop
  endfacet
  facet normal 0 1 0
    outer loop
      vertex -19.5365 21.4266 0
      vertex 20.4635 21.4266 -40
      vertex -19.5365 21.4266 -40
    endloop
  endfacet
  facet normal 0.732993 0.532558 -0.423206
    outer loop
      vertex 20.75 20 -41.299
      vertex 20.4635 21.4266 -40
      vertex 21.5 20 -40
    endloop
  endfacet
  facet normal -1 0 0
    outer loop
      vertex -21.2135 -20.8817 -40
      vertex -21.2135 20.8817 0
      vertex -21.2135 20.8817 -40
    endloop
  endfacet
  facet normal -1 -0 0
    outer loop
      vertex -21.2135 20.8817 0
      vertex -21.2135 -20.8817 -40
      vertex -21.2135 -20.8817 0
    endloop
  endfacet
  facet normal -0.279982 -0.861681 -0.423222
    outer loop
      vertex -19.5365 -21.4266 -40
      vertex -21.2135 -20.8817 -40
      vertex -19.7682 -20.7133 -41.299
    endloop
  endfacet
  facet normal 0.809013 -0.587791 0
    outer loop
      vertex 20.4635 -21.4266 0
      vertex 21.5 -20 -40
      vertex 21.5 -20 0
    endloop
  endfacet
  facet normal 0.809013 -0.587791 0
    outer loop
      vertex 21.5 -20 -40
      vertex 20.4635 -21.4266 0
      vertex 20.4635 -21.4266 -40
    endloop
  endfacet
  facet normal 0.73303 0.532534 -0.423171
    outer loop
      vertex 20.75 20 -41.299
      vertex 20.2318 20.7133 -41.299
      vertex 20.4635 21.4266 -40
    endloop
  endfacet
  facet normal -0.906049 0 -0.423172
    outer loop
      vertex -20.6068 -20.4408 -41.299
      vertex -21.2135 20.8817 -40
      vertex -20.6068 20.4408 -41.299
    endloop
  endfacet
  facet normal -0.906049 -0 -0.423172
    outer loop
      vertex -21.2135 20.8817 -40
      vertex -20.6068 -20.4408 -41.299
      vertex -21.2135 -20.8817 -40
    endloop
  endfacet
  facet normal 0 0 -1
    outer loop
      vertex -19.7682 -20.7133 -41.299
      vertex 20.75 -20 -41.299
      vertex 20.2318 -20.7133 -41.299
    endloop
  endfacet
  facet normal -0 0 -1
    outer loop
      vertex 20.75 -20 -41.299
      vertex -19.7682 -20.7133 -41.299
      vertex 20.75 20 -41.299
    endloop
  endfacet
  facet normal 0 0 -1
    outer loop
      vertex -19.7682 20.7133 -41.299
      vertex 20.75 20 -41.299
      vertex -19.7682 -20.7133 -41.299
    endloop
  endfacet
  facet normal 0 0 -1
    outer loop
      vertex 20.75 20 -41.299
      vertex -19.7682 20.7133 -41.299
      vertex 20.2318 20.7133 -41.299
    endloop
  endfacet
  facet normal 0 0 -1
    outer loop
      vertex -20.6068 -20.4408 -41.299
      vertex -19.7682 20.7133 -41.299
      vertex -19.7682 -20.7133 -41.299
    endloop
  endfacet
  facet normal 0 0 -1
    outer loop
      vertex -19.7682 20.7133 -41.299
      vertex -20.6068 -20.4408 -41.299
      vertex -20.6068 20.4408 -41.299
    endloop
  endfacet
  facet normal -0.279996 0.861669 -0.423236
    outer loop
      vertex -20.6068 20.4408 -41.299
      vertex -21.2135 20.8817 -40
      vertex -19.7682 20.7133 -41.299
    endloop
  endfacet
  facet normal 0.909631 0.415418 0
    outer loop
      vertex 6.71645 1.97213 6.5
      vertex 5.88877 3.78448 2.5
      vertex 5.88877 3.78448 6.5
    endloop
  endfacet
  facet normal 0.909631 0.415418 0
    outer loop
      vertex 5.88877 3.78448 2.5
      vertex 6.71645 1.97213 6.5
      vertex 6.71645 1.97213 2.5
    endloop
  endfacet
  facet normal 0.989821 0.142315 0
    outer loop
      vertex 7 0 6.5
      vertex 6.71645 1.97213 2.5
      vertex 6.71645 1.97213 6.5
    endloop
  endfacet
  facet normal 0.989821 0.142315 0
    outer loop
      vertex 6.71645 1.97213 2.5
      vertex 7 0 6.5
      vertex 7 0 2.5
    endloop
  endfacet
  facet normal 0.755751 0.654859 0
    outer loop
      vertex 5.88877 3.78448 6.5
      vertex 4.58402 5.29025 2.5
      vertex 4.58402 5.29025 6.5
    endloop
  endfacet
  facet normal 0.755751 0.654859 0
    outer loop
      vertex 4.58402 5.29025 2.5
      vertex 5.88877 3.78448 6.5
      vertex 5.88877 3.78448 2.5
    endloop
  endfacet
  facet normal 0.755751 -0.654859 0
    outer loop
      vertex 4.58402 -5.29025 6.5
      vertex 5.88877 -3.78448 2.5
      vertex 5.88877 -3.78448 6.5
    endloop
  endfacet
  facet normal 0.755751 -0.654859 0
    outer loop
      vertex 5.88877 -3.78448 2.5
      vertex 4.58402 -5.29025 6.5
      vertex 4.58402 -5.29025 2.5
    endloop
  endfacet
  facet normal -0.540638 0.841255 0
    outer loop
      vertex -2.9079 6.36742 2.5
      vertex -4.58402 5.29025 6.5
      vertex -2.9079 6.36742 6.5
    endloop
  endfacet
  facet normal -0.540638 0.841255 0
    outer loop
      vertex -4.58402 5.29025 6.5
      vertex -2.9079 6.36742 2.5
      vertex -4.58402 5.29025 2.5
    endloop
  endfacet
  facet normal 0.540638 -0.841255 0
    outer loop
      vertex 2.9079 -6.36742 2.5
      vertex 4.58402 -5.29025 6.5
      vertex 2.9079 -6.36742 6.5
    endloop
  endfacet
  facet normal 0.540638 -0.841255 0
    outer loop
      vertex 4.58402 -5.29025 6.5
      vertex 2.9079 -6.36742 2.5
      vertex 4.58402 -5.29025 2.5
    endloop
  endfacet
  facet normal 0.909631 -0.415418 0
    outer loop
      vertex 5.88877 -3.78448 6.5
      vertex 6.71645 -1.97213 2.5
      vertex 6.71645 -1.97213 6.5
    endloop
  endfacet
  facet normal 0.909631 -0.415418 0
    outer loop
      vertex 6.71645 -1.97213 2.5
      vertex 5.88877 -3.78448 6.5
      vertex 5.88877 -3.78448 2.5
    endloop
  endfacet
  facet normal 0.540638 0.841255 -0
    outer loop
      vertex 4.58402 5.29025 2.5
      vertex 2.9079 6.36742 6.5
      vertex 4.58402 5.29025 6.5
    endloop
  endfacet
  facet normal 0.540638 0.841255 0
    outer loop
      vertex 2.9079 6.36742 6.5
      vertex 4.58402 5.29025 2.5
      vertex 2.9079 6.36742 2.5
    endloop
  endfacet
  facet normal -0.281735 -0.959492 0
    outer loop
      vertex -2.9079 -6.36742 2.5
      vertex -0.996203 -6.92875 6.5
      vertex -2.9079 -6.36742 6.5
    endloop
  endfacet
  facet normal -0.281735 -0.959492 -0
    outer loop
      vertex -0.996203 -6.92875 6.5
      vertex -2.9079 -6.36742 2.5
      vertex -0.996203 -6.92875 2.5
    endloop
  endfacet
  facet normal 0 0 1
    outer loop
      vertex 3 0 6.5
      vertex 7 0 6.5
      vertex 6.71645 1.97213 6.5
    endloop
  endfacet
  facet normal 0 0 1
    outer loop
      vertex 2.42705 1.76336 6.5
      vertex 6.71645 1.97213 6.5
      vertex 5.88877 3.78448 6.5
    endloop
  endfacet
  facet normal 0 0 1
    outer loop
      vertex 7 0 6.5
      vertex 3 0 6.5
      vertex 6.71645 -1.97213 6.5
    endloop
  endfacet
  facet normal 0 0 1
    outer loop
      vertex 2.42705 1.76336 6.5
      vertex 5.88877 3.78448 6.5
      vertex 4.58402 5.29025 6.5
    endloop
  endfacet
  facet normal -0 0 1
    outer loop
      vertex 2.42705 -1.76336 6.5
      vertex 6.71645 -1.97213 6.5
      vertex 3 0 6.5
    endloop
  endfacet
  facet normal 0 0 1
    outer loop
      vertex 6.71645 -1.97213 6.5
      vertex 2.42705 -1.76336 6.5
      vertex 5.88877 -3.78448 6.5
    endloop
  endfacet
  facet normal 0 0 1
    outer loop
      vertex 0.927051 2.85317 6.5
      vertex 4.58402 5.29025 6.5
      vertex 2.9079 6.36742 6.5
    endloop
  endfacet
  facet normal 0 0 1
    outer loop
      vertex 6.71645 1.97213 6.5
      vertex 2.42705 1.76336 6.5
      vertex 3 0 6.5
    endloop
  endfacet
  facet normal 0 0 1
    outer loop
      vertex 0.927051 2.85317 6.5
      vertex 2.9079 6.36742 6.5
      vertex 0.996203 6.92875 6.5
    endloop
  endfacet
  facet normal 0 0 1
    outer loop
      vertex 4.58402 5.29025 6.5
      vertex 0.927051 2.85317 6.5
      vertex 2.42705 1.76336 6.5
    endloop
  endfacet
  facet normal 0 0 1
    outer loop
      vertex 0.996203 6.92875 6.5
      vertex -0.927051 2.85317 6.5
      vertex 0.927051 2.85317 6.5
    endloop
  endfacet
  facet normal -0 0 1
    outer loop
      vertex -0.996203 6.92875 6.5
      vertex -0.927051 2.85317 6.5
      vertex 0.996203 6.92875 6.5
    endloop
  endfacet
  facet normal -0 0 1
    outer loop
      vertex -2.9079 6.36742 6.5
      vertex -0.927051 2.85317 6.5
      vertex -0.996203 6.92875 6.5
    endloop
  endfacet
  facet normal -0 0 1
    outer loop
      vertex -4.58402 5.29025 6.5
      vertex -0.927051 2.85317 6.5
      vertex -2.9079 6.36742 6.5
    endloop
  endfacet
  facet normal 0 0 1
    outer loop
      vertex -0.927051 2.85317 6.5
      vertex -4.58402 5.29025 6.5
      vertex -2.42705 1.76336 6.5
    endloop
  endfacet
  facet normal -0 0 1
    outer loop
      vertex -5.88877 3.78448 6.5
      vertex -2.42705 1.76336 6.5
      vertex -4.58402 5.29025 6.5
    endloop
  endfacet
  facet normal 0 0 1
    outer loop
      vertex 5.88877 -3.78448 6.5
      vertex 2.42705 -1.76336 6.5
      vertex 4.58402 -5.29025 6.5
    endloop
  endfacet
  facet normal -0 0 1
    outer loop
      vertex 0.927051 -2.85317 6.5
      vertex 4.58402 -5.29025 6.5
      vertex 2.42705 -1.76336 6.5
    endloop
  endfacet
  facet normal 0 0 1
    outer loop
      vertex 4.58402 -5.29025 6.5
      vertex 0.927051 -2.85317 6.5
      vertex 2.9079 -6.36742 6.5
    endloop
  endfacet
  facet normal 0 0 1
    outer loop
      vertex 2.9079 -6.36742 6.5
      vertex 0.927051 -2.85317 6.5
      vertex 0.996203 -6.92875 6.5
    endloop
  endfacet
  facet normal -0 0 1
    outer loop
      vertex -0.927051 -2.85317 6.5
      vertex 0.996203 -6.92875 6.5
      vertex 0.927051 -2.85317 6.5
    endloop
  endfacet
  facet normal 0 0 1
    outer loop
      vertex -0.927051 -2.85317 6.5
      vertex -0.996203 -6.92875 6.5
      vertex 0.996203 -6.92875 6.5
    endloop
  endfacet
  facet normal 0 0 1
    outer loop
      vertex -4.58402 -5.29025 6.5
      vertex -0.927051 -2.85317 6.5
      vertex -2.42705 -1.76336 6.5
    endloop
  endfacet
  facet normal 0 0 1
    outer loop
      vertex -0.927051 -2.85317 6.5
      vertex -2.9079 -6.36742 6.5
      vertex -0.996203 -6.92875 6.5
    endloop
  endfacet
  facet normal 0 0 1
    outer loop
      vertex -6.71645 -1.97213 6.5
      vertex -2.42705 -1.76336 6.5
      vertex -3 0 6.5
    endloop
  endfacet
  facet normal -0 0 1
    outer loop
      vertex -6.71645 1.97213 6.5
      vertex -2.42705 1.76336 6.5
      vertex -5.88877 3.78448 6.5
    endloop
  endfacet
  facet normal 0 0 1
    outer loop
      vertex -0.927051 -2.85317 6.5
      vertex -4.58402 -5.29025 6.5
      vertex -2.9079 -6.36742 6.5
    endloop
  endfacet
  facet normal 0 0 1
    outer loop
      vertex -2.42705 1.76336 6.5
      vertex -6.71645 1.97213 6.5
      vertex -3 0 6.5
    endloop
  endfacet
  facet normal 0 0 1
    outer loop
      vertex -2.42705 -1.76336 6.5
      vertex -5.88877 -3.78448 6.5
      vertex -4.58402 -5.29025 6.5
    endloop
  endfacet
  facet normal 0 0 1
    outer loop
      vertex -7 0 6.5
      vertex -3 0 6.5
      vertex -6.71645 1.97213 6.5
    endloop
  endfacet
  facet normal 0 0 1
    outer loop
      vertex -2.42705 -1.76336 6.5
      vertex -6.71645 -1.97213 6.5
      vertex -5.88877 -3.78448 6.5
    endloop
  endfacet
  facet normal 0 0 1
    outer loop
      vertex -3 0 6.5
      vertex -7 0 6.5
      vertex -6.71645 -1.97213 6.5
    endloop
  endfacet
  facet normal 0.281735 -0.959492 0
    outer loop
      vertex 0.996203 -6.92875 2.5
      vertex 2.9079 -6.36742 6.5
      vertex 0.996203 -6.92875 6.5
    endloop
  endfacet
  facet normal 0.281735 -0.959492 0
    outer loop
      vertex 2.9079 -6.36742 6.5
      vertex 0.996203 -6.92875 2.5
      vertex 2.9079 -6.36742 2.5
    endloop
  endfacet
  facet normal 0.989821 -0.142315 0
    outer loop
      vertex 6.71645 -1.97213 6.5
      vertex 7 0 2.5
      vertex 7 0 6.5
    endloop
  endfacet
  facet normal 0.989821 -0.142315 0
    outer loop
      vertex 7 0 2.5
      vertex 6.71645 -1.97213 6.5
      vertex 6.71645 -1.97213 2.5
    endloop
  endfacet
  facet normal 0 1 -0
    outer loop
      vertex 0.996203 6.92875 2.5
      vertex -0.996203 6.92875 6.5
      vertex 0.996203 6.92875 6.5
    endloop
  endfacet
  facet normal 0 1 0
    outer loop
      vertex -0.996203 6.92875 6.5
      vertex 0.996203 6.92875 2.5
      vertex -0.996203 6.92875 2.5
    endloop
  endfacet
  facet normal -0.281735 0.959492 0
    outer loop
      vertex -0.996203 6.92875 2.5
      vertex -2.9079 6.36742 6.5
      vertex -0.996203 6.92875 6.5
    endloop
  endfacet
  facet normal -0.281735 0.959492 0
    outer loop
      vertex -2.9079 6.36742 6.5
      vertex -0.996203 6.92875 2.5
      vertex -2.9079 6.36742 2.5
    endloop
  endfacet
  facet normal -0.755751 0.654859 0
    outer loop
      vertex -5.88877 3.78448 2.5
      vertex -4.58402 5.29025 6.5
      vertex -4.58402 5.29025 2.5
    endloop
  endfacet
  facet normal -0.755751 0.654859 0
    outer loop
      vertex -4.58402 5.29025 6.5
      vertex -5.88877 3.78448 2.5
      vertex -5.88877 3.78448 6.5
    endloop
  endfacet
  facet normal 0 -1 0
    outer loop
      vertex -0.996203 -6.92875 2.5
      vertex 0.996203 -6.92875 6.5
      vertex -0.996203 -6.92875 6.5
    endloop
  endfacet
  facet normal 0 -1 -0
    outer loop
      vertex 0.996203 -6.92875 6.5
      vertex -0.996203 -6.92875 2.5
      vertex 0.996203 -6.92875 2.5
    endloop
  endfacet
  facet normal -0.909631 0.415418 0
    outer loop
      vertex -6.71645 1.97213 2.5
      vertex -5.88877 3.78448 6.5
      vertex -5.88877 3.78448 2.5
    endloop
  endfacet
  facet normal -0.909631 0.415418 0
    outer loop
      vertex -5.88877 3.78448 6.5
      vertex -6.71645 1.97213 2.5
      vertex -6.71645 1.97213 6.5
    endloop
  endfacet
  facet normal -0.989821 -0.142315 0
    outer loop
      vertex -6.71645 -1.97213 2.5
      vertex -7 0 6.5
      vertex -7 0 2.5
    endloop
  endfacet
  facet normal -0.989821 -0.142315 0
    outer loop
      vertex -7 0 6.5
      vertex -6.71645 -1.97213 2.5
      vertex -6.71645 -1.97213 6.5
    endloop
  endfacet
  facet normal -0.989821 0.142315 0
    outer loop
      vertex -7 0 2.5
      vertex -6.71645 1.97213 6.5
      vertex -6.71645 1.97213 2.5
    endloop
  endfacet
  facet normal -0.989821 0.142315 0
    outer loop
      vertex -6.71645 1.97213 6.5
      vertex -7 0 2.5
      vertex -7 0 6.5
    endloop
  endfacet
  facet normal 0.281735 0.959492 -0
    outer loop
      vertex 2.9079 6.36742 2.5
      vertex 0.996203 6.92875 6.5
      vertex 2.9079 6.36742 6.5
    endloop
  endfacet
  facet normal 0.281735 0.959492 0
    outer loop
      vertex 0.996203 6.92875 6.5
      vertex 2.9079 6.36742 2.5
      vertex 0.996203 6.92875 2.5
    endloop
  endfacet
  facet normal -0.755751 -0.654859 0
    outer loop
      vertex -4.58402 -5.29025 2.5
      vertex -5.88877 -3.78448 6.5
      vertex -5.88877 -3.78448 2.5
    endloop
  endfacet
  facet normal -0.755751 -0.654859 0
    outer loop
      vertex -5.88877 -3.78448 6.5
      vertex -4.58402 -5.29025 2.5
      vertex -4.58402 -5.29025 6.5
    endloop
  endfacet
  facet normal -0.909631 -0.415418 0
    outer loop
      vertex -5.88877 -3.78448 2.5
      vertex -6.71645 -1.97213 6.5
      vertex -6.71645 -1.97213 2.5
    endloop
  endfacet
  facet normal -0.909631 -0.415418 0
    outer loop
      vertex -6.71645 -1.97213 6.5
      vertex -5.88877 -3.78448 2.5
      vertex -5.88877 -3.78448 6.5
    endloop
  endfacet
  facet normal -0.540638 -0.841255 0
    outer loop
      vertex -4.58402 -5.29025 2.5
      vertex -2.9079 -6.36742 6.5
      vertex -4.58402 -5.29025 6.5
    endloop
  endfacet
  facet normal -0.540638 -0.841255 -0
    outer loop
      vertex -2.9079 -6.36742 6.5
      vertex -4.58402 -5.29025 2.5
      vertex -2.9079 -6.36742 2.5
    endloop
  endfacet
  facet normal -0.951057 -0.309017 0
    outer loop
      vertex -2.42705 -1.76336 6.5
      vertex -3 0 14.5
      vertex -3 0 6.5
    endloop
  endfacet
  facet normal -0.951057 -0.309017 0
    outer loop
      vertex -3 0 14.5
      vertex -2.42705 -1.76336 6.5
      vertex -2.42705 -1.76336 14.5
    endloop
  endfacet
  facet normal 0.587784 0.809018 -0
    outer loop
      vertex 2.42705 1.76336 6.5
      vertex 0.927051 2.85317 14.5
      vertex 2.42705 1.76336 14.5
    endloop
  endfacet
  facet normal 0.587784 0.809018 0
    outer loop
      vertex 0.927051 2.85317 14.5
      vertex 2.42705 1.76336 6.5
      vertex 0.927051 2.85317 6.5
    endloop
  endfacet
  facet normal 0.951057 0.309017 0
    outer loop
      vertex 3 0 14.5
      vertex 2.42705 1.76336 6.5
      vertex 2.42705 1.76336 14.5
    endloop
  endfacet
  facet normal 0.951057 0.309017 0
    outer loop
      vertex 2.42705 1.76336 6.5
      vertex 3 0 14.5
      vertex 3 0 6.5
    endloop
  endfacet
  facet normal 0 1 -0
    outer loop
      vertex 0.927051 2.85317 6.5
      vertex -0.927051 2.85317 14.5
      vertex 0.927051 2.85317 14.5
    endloop
  endfacet
  facet normal 0 1 0
    outer loop
      vertex -0.927051 2.85317 14.5
      vertex 0.927051 2.85317 6.5
      vertex -0.927051 2.85317 6.5
    endloop
  endfacet
  facet normal 0 0 1
    outer loop
      vertex 2.42705 1.76336 14.5
      vertex 2.42705 -1.76336 14.5
      vertex 3 0 14.5
    endloop
  endfacet
  facet normal 0 0 1
    outer loop
      vertex 0.927051 2.85317 14.5
      vertex 2.42705 -1.76336 14.5
      vertex 2.42705 1.76336 14.5
    endloop
  endfacet
  facet normal 0 0 1
    outer loop
      vertex 0.927051 2.85317 14.5
      vertex 0.927051 -2.85317 14.5
      vertex 2.42705 -1.76336 14.5
    endloop
  endfacet
  facet normal -0 0 1
    outer loop
      vertex -0.927051 2.85317 14.5
      vertex 0.927051 -2.85317 14.5
      vertex 0.927051 2.85317 14.5
    endloop
  endfacet
  facet normal 0 0 1
    outer loop
      vertex -0.927051 2.85317 14.5
      vertex -0.927051 -2.85317 14.5
      vertex 0.927051 -2.85317 14.5
    endloop
  endfacet
  facet normal -0 0 1
    outer loop
      vertex -2.42705 1.76336 14.5
      vertex -0.927051 -2.85317 14.5
      vertex -0.927051 2.85317 14.5
    endloop
  endfacet
  facet normal 0 0 1
    outer loop
      vertex -2.42705 1.76336 14.5
      vertex -2.42705 -1.76336 14.5
      vertex -0.927051 -2.85317 14.5
    endloop
  endfacet
  facet normal 0 -0 1
    outer loop
      vertex -2.42705 -1.76336 14.5
      vertex -2.42705 1.76336 14.5
      vertex -3 0 14.5
    endloop
  endfacet
  facet normal -0.587784 -0.809018 0
    outer loop
      vertex -2.42705 -1.76336 6.5
      vertex -0.927051 -2.85317 14.5
      vertex -2.42705 -1.76336 14.5
    endloop
  endfacet
  facet normal -0.587784 -0.809018 -0
    outer loop
      vertex -0.927051 -2.85317 14.5
      vertex -2.42705 -1.76336 6.5
      vertex -0.927051 -2.85317 6.5
    endloop
  endfacet
  facet normal 0.951057 -0.309017 0
    outer loop
      vertex 2.42705 -1.76336 14.5
      vertex 3 0 6.5
      vertex 3 0 14.5
    endloop
  endfacet
  facet normal 0.951057 -0.309017 0
    outer loop
      vertex 3 0 6.5
      vertex 2.42705 -1.76336 14.5
      vertex 2.42705 -1.76336 6.5
    endloop
  endfacet
  facet normal -0.587784 0.809018 0
    outer loop
      vertex -0.927051 2.85317 6.5
      vertex -2.42705 1.76336 14.5
      vertex -0.927051 2.85317 14.5
    endloop
  endfacet
  facet normal -0.587784 0.809018 0
    outer loop
      vertex -2.42705 1.76336 14.5
      vertex -0.927051 2.85317 6.5
      vertex -2.42705 1.76336 6.5
    endloop
  endfacet
  facet normal 0 -1 0
    outer loop
      vertex -0.927051 -2.85317 6.5
      vertex 0.927051 -2.85317 14.5
      vertex -0.927051 -2.85317 14.5
    endloop
  endfacet
  facet normal 0 -1 -0
    outer loop
      vertex 0.927051 -2.85317 14.5
      vertex -0.927051 -2.85317 6.5
      vertex 0.927051 -2.85317 6.5
    endloop
  endfacet
  facet normal 0.587784 -0.809018 0
    outer loop
      vertex 0.927051 -2.85317 6.5
      vertex 2.42705 -1.76336 14.5
      vertex 0.927051 -2.85317 14.5
    endloop
  endfacet
  facet normal 0.587784 -0.809018 0
    outer loop
      vertex 2.42705 -1.76336 14.5
      vertex 0.927051 -2.85317 6.5
      vertex 2.42705 -1.76336 6.5
    endloop
  endfacet
  facet normal -0.951057 0.309017 0
    outer loop
      vertex -3 0 6.5
      vertex -2.42705 1.76336 14.5
      vertex -2.42705 1.76336 6.5
    endloop
  endfacet
  facet normal -0.951057 0.309017 0
    outer loop
      vertex -2.42705 1.76336 14.5
      vertex -3 0 6.5
      vertex -3 0 14.5
    endloop
  endfacet
  facet normal 0 0 1
    outer loop
      vertex 16.8 17.3856 3.5
      vertex 16.8 14.6144 3.5
      vertex 17.6 16 3.5
    endloop
  endfacet
  facet normal -0 0 1
    outer loop
      vertex 15.2 17.3856 3.5
      vertex 16.8 14.6144 3.5
      vertex 16.8 17.3856 3.5
    endloop
  endfacet
  facet normal 0 0 1
    outer loop
      vertex 15.2 17.3856 3.5
      vertex 15.2 14.6144 3.5
      vertex 16.8 14.6144 3.5
    endloop
  endfacet
  facet normal 0 -0 1
    outer loop
      vertex 15.2 14.6144 3.5
      vertex 15.2 17.3856 3.5
      vertex 14.4 16 3.5
    endloop
  endfacet
  facet normal 0 0 1
    outer loop
      vertex -15.2 17.3856 3.5
      vertex -15.2 14.6144 3.5
      vertex -14.4 16 3.5
    endloop
  endfacet
  facet normal -0 0 1
    outer loop
      vertex -16.8 17.3856 3.5
      vertex -15.2 14.6144 3.5
      vertex -15.2 17.3856 3.5
    endloop
  endfacet
  facet normal 0 0 1
    outer loop
      vertex -16.8 17.3856 3.5
      vertex -16.8 14.6144 3.5
      vertex -15.2 14.6144 3.5
    endloop
  endfacet
  facet normal 0 -0 1
    outer loop
      vertex -16.8 14.6144 3.5
      vertex -16.8 17.3856 3.5
      vertex -17.6 16 3.5
    endloop
  endfacet
  facet normal 0 0 1
    outer loop
      vertex -15.2 -14.6144 3.5
      vertex -15.2 -17.3856 3.5
      vertex -14.4 -16 3.5
    endloop
  endfacet
  facet normal -0 0 1
    outer loop
      vertex -16.8 -14.6144 3.5
      vertex -15.2 -17.3856 3.5
      vertex -15.2 -14.6144 3.5
    endloop
  endfacet
  facet normal 0 0 1
    outer loop
      vertex -16.8 -14.6144 3.5
      vertex -16.8 -17.3856 3.5
      vertex -15.2 -17.3856 3.5
    endloop
  endfacet
  facet normal 0 -0 1
    outer loop
      vertex -16.8 -17.3856 3.5
      vertex -16.8 -14.6144 3.5
      vertex -17.6 -16 3.5
    endloop
  endfacet
  facet normal 0 0 1
    outer loop
      vertex 16.8 -14.6144 3.5
      vertex 16.8 -17.3856 3.5
      vertex 17.6 -16 3.5
    endloop
  endfacet
  facet normal -0 0 1
    outer loop
      vertex 15.2 -14.6144 3.5
      vertex 16.8 -17.3856 3.5
      vertex 16.8 -14.6144 3.5
    endloop
  endfacet
  facet normal 0 0 1
    outer loop
      vertex 15.2 -14.6144 3.5
      vertex 15.2 -17.3856 3.5
      vertex 16.8 -17.3856 3.5
    endloop
  endfacet
  facet normal 0 -0 1
    outer loop
      vertex 15.2 -17.3856 3.5
      vertex 15.2 -14.6144 3.5
      vertex 14.4 -16 3.5
    endloop
  endfacet
endsolid OpenSCAD_Model
