solid OpenSCAD_Model
  facet normal 1 -0 0
    outer loop
      vertex 60 0 2
      vertex 60 25 0
      vertex 60 25 2
    endloop
  endfacet
  facet normal 1 0 0
    outer loop
      vertex 60 25 0
      vertex 60 0 2
      vertex 60 0 0
    endloop
  endfacet
  facet normal 0 0 1
    outer loop
      vertex 2.7 12.5 2
      vertex 60 25 2
      vertex 2.7 20 2
    endloop
  endfacet
  facet normal -0 0 1
    outer loop
      vertex 1.5 25 2
      vertex 2.7 20 2
      vertex 60 25 2
    endloop
  endfacet
  facet normal 0 0 1
    outer loop
      vertex 2.7 20 2
      vertex 1.5 25 2
      vertex 1.5 20 2
    endloop
  endfacet
  facet normal 0 0 1
    outer loop
      vertex 60 25 2
      vertex 2.7 12.5 2
      vertex 60 0 2
    endloop
  endfacet
  facet normal -0 0 1
    outer loop
      vertex 2.7 5 2
      vertex 60 0 2
      vertex 2.7 12.5 2
    endloop
  endfacet
  facet normal 0 0 1
    outer loop
      vertex 1.5 0 2
      vertex 2.7 5 2
      vertex 1.5 5 2
    endloop
  endfacet
  facet normal 0 0 1
    outer loop
      vertex 2.7 5 2
      vertex 1.5 0 2
      vertex 60 0 2
    endloop
  endfacet
  facet normal -0 0 1
    outer loop
      vertex 1.5 20 2
      vertex 2.7 12.5 2
      vertex 2.7 20 2
    endloop
  endfacet
  facet normal 0 0 1
    outer loop
      vertex 1.5 5 2
      vertex 2.7 12.5 2
      vertex 1.5 20 2
    endloop
  endfacet
  facet normal 0 0 1
    outer loop
      vertex 2.7 12.5 2
      vertex 1.5 5 2
      vertex 2.7 5 2
    endloop
  endfacet
  facet normal 0 0 -1
    outer loop
      vertex 0 0 0
      vertex 60 25 0
      vertex 60 0 0
    endloop
  endfacet
  facet normal -0 0 -1
    outer loop
      vertex 60 25 0
      vertex 0 0 0
      vertex 0 25 0
    endloop
  endfacet
  facet normal -1 0 0
    outer loop
      vertex 0 15.4856 5.29405
      vertex 0 25 0
      vertex 0 15.5 5
    endloop
  endfacet
  facet normal -1 0 0
    outer loop
      vertex 0 25 0
      vertex 0 15.4856 4.70595
      vertex 0 15.5 5
    endloop
  endfacet
  facet normal -1 0 0
    outer loop
      vertex 0 25 0
      vertex 0 15.4424 4.41473
      vertex 0 15.4856 4.70595
    endloop
  endfacet
  facet normal -1 0 0
    outer loop
      vertex 0 25 0
      vertex 0 15.3708 4.12915
      vertex 0 15.4424 4.41473
    endloop
  endfacet
  facet normal -1 0 0
    outer loop
      vertex 0 25 0
      vertex 0 15.2716 3.85195
      vertex 0 15.3708 4.12915
    endloop
  endfacet
  facet normal -1 0 0
    outer loop
      vertex 0 25 0
      vertex 0 15.1458 3.58581
      vertex 0 15.2716 3.85195
    endloop
  endfacet
  facet normal -1 0 0
    outer loop
      vertex 0 25 0
      vertex 0 14.9944 3.33329
      vertex 0 15.1458 3.58581
    endloop
  endfacet
  facet normal -1 0 0
    outer loop
      vertex 0 25 0
      vertex 0 14.819 3.09682
      vertex 0 14.9944 3.33329
    endloop
  endfacet
  facet normal -1 0 0
    outer loop
      vertex 0 25 0
      vertex 0 14.6213 2.87868
      vertex 0 14.819 3.09682
    endloop
  endfacet
  facet normal -1 0 0
    outer loop
      vertex 0 25 0
      vertex 0 14.4032 2.68097
      vertex 0 14.6213 2.87868
    endloop
  endfacet
  facet normal -1 0 0
    outer loop
      vertex 0 25 0
      vertex 0 14.1667 2.50559
      vertex 0 14.4032 2.68097
    endloop
  endfacet
  facet normal -1 0 0
    outer loop
      vertex 0 25 0
      vertex 0 13.9142 2.35424
      vertex 0 14.1667 2.50559
    endloop
  endfacet
  facet normal -1 0 0
    outer loop
      vertex 0 25 0
      vertex 0 13.648 2.22836
      vertex 0 13.9142 2.35424
    endloop
  endfacet
  facet normal -1 0 0
    outer loop
      vertex 0 25 0
      vertex 0 13.3709 2.12918
      vertex 0 13.648 2.22836
    endloop
  endfacet
  facet normal -1 0 0
    outer loop
      vertex 0 25 0
      vertex 0 13.0853 2.05764
      vertex 0 13.3709 2.12918
    endloop
  endfacet
  facet normal -1 0 0
    outer loop
      vertex 0 25 0
      vertex 0 12.7941 2.01445
      vertex 0 13.0853 2.05764
    endloop
  endfacet
  facet normal -1 0 0
    outer loop
      vertex 0 25 0
      vertex 0 12.5 2
      vertex 0 12.7941 2.01445
    endloop
  endfacet
  facet normal -1 0 0
    outer loop
      vertex 0 0 0
      vertex 0 12.5 2
      vertex 0 25 0
    endloop
  endfacet
  facet normal -1 -0 0
    outer loop
      vertex 0 12.5 2
      vertex 0 0 0
      vertex 0 12.2059 2.01445
    endloop
  endfacet
  facet normal -1 -0 0
    outer loop
      vertex 0 9.51445 4.70595
      vertex 0 0 0
      vertex 0 9.5 5
    endloop
  endfacet
  facet normal -1 -0 0
    outer loop
      vertex 0 9.55764 4.41473
      vertex 0 0 0
      vertex 0 9.51445 4.70595
    endloop
  endfacet
  facet normal -1 -0 0
    outer loop
      vertex 0 9.62918 4.12915
      vertex 0 0 0
      vertex 0 9.55764 4.41473
    endloop
  endfacet
  facet normal -1 -0 0
    outer loop
      vertex 0 9.72836 3.85195
      vertex 0 0 0
      vertex 0 9.62918 4.12915
    endloop
  endfacet
  facet normal -1 -0 0
    outer loop
      vertex 0 9.85424 3.58581
      vertex 0 0 0
      vertex 0 9.72836 3.85195
    endloop
  endfacet
  facet normal -1 -0 0
    outer loop
      vertex 0 10.0056 3.33329
      vertex 0 0 0
      vertex 0 9.85424 3.58581
    endloop
  endfacet
  facet normal -1 -0 0
    outer loop
      vertex 0 10.181 3.09682
      vertex 0 0 0
      vertex 0 10.0056 3.33329
    endloop
  endfacet
  facet normal -1 -0 0
    outer loop
      vertex 0 10.3787 2.87868
      vertex 0 0 0
      vertex 0 10.181 3.09682
    endloop
  endfacet
  facet normal -1 -0 0
    outer loop
      vertex 0 10.5968 2.68097
      vertex 0 0 0
      vertex 0 10.3787 2.87868
    endloop
  endfacet
  facet normal -1 -0 0
    outer loop
      vertex 0 10.8333 2.50559
      vertex 0 0 0
      vertex 0 10.5968 2.68097
    endloop
  endfacet
  facet normal -1 -0 0
    outer loop
      vertex 0 11.0858 2.35424
      vertex 0 0 0
      vertex 0 10.8333 2.50559
    endloop
  endfacet
  facet normal -1 -0 0
    outer loop
      vertex 0 11.3519 2.22836
      vertex 0 0 0
      vertex 0 11.0858 2.35424
    endloop
  endfacet
  facet normal -1 -0 0
    outer loop
      vertex 0 11.6291 2.12918
      vertex 0 0 0
      vertex 0 11.3519 2.22836
    endloop
  endfacet
  facet normal -1 -0 0
    outer loop
      vertex 0 11.9147 2.05764
      vertex 0 0 0
      vertex 0 11.6291 2.12918
    endloop
  endfacet
  facet normal -1 -0 0
    outer loop
      vertex 0 12.2059 2.01445
      vertex 0 0 0
      vertex 0 11.9147 2.05764
    endloop
  endfacet
  facet normal -1 0 0
    outer loop
      vertex 0 15.4424 5.58527
      vertex 0 25 0
      vertex 0 15.4856 5.29405
    endloop
  endfacet
  facet normal -1 0 0
    outer loop
      vertex 0 15.3708 5.87085
      vertex 0 25 0
      vertex 0 15.4424 5.58527
    endloop
  endfacet
  facet normal -1 0 0
    outer loop
      vertex 0 15.2716 6.14805
      vertex 0 25 0
      vertex 0 15.3708 5.87085
    endloop
  endfacet
  facet normal -1 0 0
    outer loop
      vertex 0 15.1458 6.41419
      vertex 0 25 0
      vertex 0 15.2716 6.14805
    endloop
  endfacet
  facet normal -1 0 0
    outer loop
      vertex 0 14.9944 6.66671
      vertex 0 25 0
      vertex 0 15.1458 6.41419
    endloop
  endfacet
  facet normal -1 0 0
    outer loop
      vertex 0 14.819 6.90318
      vertex 0 25 0
      vertex 0 14.9944 6.66671
    endloop
  endfacet
  facet normal -1 0 0
    outer loop
      vertex 0 25 0
      vertex 0 14.819 6.90318
      vertex 0 25 37
    endloop
  endfacet
  facet normal -1 0 0
    outer loop
      vertex 0 14.6213 7.12132
      vertex 0 25 37
      vertex 0 14.819 6.90318
    endloop
  endfacet
  facet normal -1 0 0
    outer loop
      vertex 0 14.4032 7.31903
      vertex 0 25 37
      vertex 0 14.6213 7.12132
    endloop
  endfacet
  facet normal -1 0 0
    outer loop
      vertex 0 14.1667 7.49441
      vertex 0 25 37
      vertex 0 14.4032 7.31903
    endloop
  endfacet
  facet normal -1 0 0
    outer loop
      vertex 0 13.9142 7.64576
      vertex 0 25 37
      vertex 0 14.1667 7.49441
    endloop
  endfacet
  facet normal -1 0 0
    outer loop
      vertex 0 13.648 7.77164
      vertex 0 25 37
      vertex 0 13.9142 7.64576
    endloop
  endfacet
  facet normal -1 0 0
    outer loop
      vertex 0 13.3709 7.87082
      vertex 0 25 37
      vertex 0 13.648 7.77164
    endloop
  endfacet
  facet normal -1 0 0
    outer loop
      vertex 0 13.0853 7.94236
      vertex 0 25 37
      vertex 0 13.3709 7.87082
    endloop
  endfacet
  facet normal -1 0 0
    outer loop
      vertex 0 12.7941 7.98555
      vertex 0 25 37
      vertex 0 13.0853 7.94236
    endloop
  endfacet
  facet normal -1 0 0
    outer loop
      vertex 0 12.5 8
      vertex 0 25 37
      vertex 0 12.7941 7.98555
    endloop
  endfacet
  facet normal -1 0 0
    outer loop
      vertex 0 0 37
      vertex 0 12.5 8
      vertex 0 12.2059 7.98555
    endloop
  endfacet
  facet normal -1 0 0
    outer loop
      vertex 0 0 37
      vertex 0 12.2059 7.98555
      vertex 0 11.9147 7.94236
    endloop
  endfacet
  facet normal -1 0 0
    outer loop
      vertex 0 0 37
      vertex 0 11.9147 7.94236
      vertex 0 11.6291 7.87082
    endloop
  endfacet
  facet normal -1 0 0
    outer loop
      vertex 0 0 37
      vertex 0 11.6291 7.87082
      vertex 0 11.3519 7.77164
    endloop
  endfacet
  facet normal -1 0 0
    outer loop
      vertex 0 0 37
      vertex 0 11.3519 7.77164
      vertex 0 11.0858 7.64576
    endloop
  endfacet
  facet normal -1 0 0
    outer loop
      vertex 0 0 37
      vertex 0 11.0858 7.64576
      vertex 0 10.8333 7.49441
    endloop
  endfacet
  facet normal -1 0 0
    outer loop
      vertex 0 0 37
      vertex 0 10.8333 7.49441
      vertex 0 10.5968 7.31903
    endloop
  endfacet
  facet normal -1 0 0
    outer loop
      vertex 0 0 37
      vertex 0 10.5968 7.31903
      vertex 0 10.3787 7.12132
    endloop
  endfacet
  facet normal -1 0 0
    outer loop
      vertex 0 0 37
      vertex 0 10.3787 7.12132
      vertex 0 10.181 6.90318
    endloop
  endfacet
  facet normal -1 0 0
    outer loop
      vertex 0 0 0
      vertex 0 10.181 6.90318
      vertex 0 10.0056 6.66671
    endloop
  endfacet
  facet normal -1 0 0
    outer loop
      vertex 0 0 0
      vertex 0 10.0056 6.66671
      vertex 0 9.85424 6.41419
    endloop
  endfacet
  facet normal -1 0 0
    outer loop
      vertex 0 0 0
      vertex 0 9.51445 5.29405
      vertex 0 9.5 5
    endloop
  endfacet
  facet normal -1 0 0
    outer loop
      vertex 0 0 0
      vertex 0 9.55764 5.58527
      vertex 0 9.51445 5.29405
    endloop
  endfacet
  facet normal -1 0 0
    outer loop
      vertex 0 0 0
      vertex 0 9.62918 5.87085
      vertex 0 9.55764 5.58527
    endloop
  endfacet
  facet normal -1 0 0
    outer loop
      vertex 0 0 0
      vertex 0 9.72836 6.14805
      vertex 0 9.62918 5.87085
    endloop
  endfacet
  facet normal -1 0 0
    outer loop
      vertex 0 0 0
      vertex 0 9.85424 6.41419
      vertex 0 9.72836 6.14805
    endloop
  endfacet
  facet normal -1 -0 0
    outer loop
      vertex 0 10.181 6.90318
      vertex 0 0 0
      vertex 0 0 37
    endloop
  endfacet
  facet normal -1 0 0
    outer loop
      vertex 0 12.5 8
      vertex 0 0 37
      vertex 0 25 37
    endloop
  endfacet
  facet normal 0 1 0
    outer loop
      vertex 60 25 2
      vertex 60 25 0
      vertex 1.5 25 2
    endloop
  endfacet
  facet normal 0 1 -0
    outer loop
      vertex 1.5 25 2
      vertex 0 25 37
      vertex 1.5 25 37
    endloop
  endfacet
  facet normal 0 1 0
    outer loop
      vertex 1.5 25 2
      vertex 0 25 0
      vertex 0 25 37
    endloop
  endfacet
  facet normal 0 1 0
    outer loop
      vertex 0 25 0
      vertex 1.5 25 2
      vertex 60 25 0
    endloop
  endfacet
  facet normal 0 -1 0
    outer loop
      vertex 0 0 37
      vertex 1.5 0 2
      vertex 1.5 0 37
    endloop
  endfacet
  facet normal 0 -1 0
    outer loop
      vertex 0 0 0
      vertex 1.5 0 2
      vertex 0 0 37
    endloop
  endfacet
  facet normal 0 -1 0
    outer loop
      vertex 60 0 0
      vertex 1.5 0 2
      vertex 0 0 0
    endloop
  endfacet
  facet normal 0 -1 0
    outer loop
      vertex 1.5 0 2
      vertex 60 0 0
      vertex 60 0 2
    endloop
  endfacet
  facet normal 1 -0 0
    outer loop
      vertex 1.5 20 37
      vertex 1.5 25 2
      vertex 1.5 25 37
    endloop
  endfacet
  facet normal 1 0 0
    outer loop
      vertex 1.5 25 2
      vertex 1.5 20 37
      vertex 1.5 20 2
    endloop
  endfacet
  facet normal 1 -0 0
    outer loop
      vertex 1.5 0 37
      vertex 1.5 5 2
      vertex 1.5 5 37
    endloop
  endfacet
  facet normal 1 0 0
    outer loop
      vertex 1.5 5 2
      vertex 1.5 0 37
      vertex 1.5 0 2
    endloop
  endfacet
  facet normal 1 -0 0
    outer loop
      vertex 1.5 5 37
      vertex 1.5 20 2
      vertex 1.5 20 37
    endloop
  endfacet
  facet normal 1 0 0
    outer loop
      vertex 1.5 20 2
      vertex 1.5 5 37
      vertex 1.5 5 2
    endloop
  endfacet
  facet normal -0 0 1
    outer loop
      vertex 0 25 37
      vertex 1.5 20 37
      vertex 1.5 25 37
    endloop
  endfacet
  facet normal 0 0 1
    outer loop
      vertex 1.5 20 37
      vertex 0 25 37
      vertex 1.5 5 37
    endloop
  endfacet
  facet normal 0 0 1
    outer loop
      vertex 0 0 37
      vertex 1.5 5 37
      vertex 0 25 37
    endloop
  endfacet
  facet normal 0 0 1
    outer loop
      vertex 1.5 5 37
      vertex 0 0 37
      vertex 1.5 0 37
    endloop
  endfacet
  facet normal 0 0.242983 -0.970031
    outer loop
      vertex 2.7 13.0853 2.05764
      vertex 31.5 13.3709 2.12918
      vertex 31.5 13.0853 2.05764
    endloop
  endfacet
  facet normal 0 0.242983 -0.970031
    outer loop
      vertex 31.5 13.3709 2.12918
      vertex 2.7 13.0853 2.05764
      vertex 2.7 13.3709 2.12918
    endloop
  endfacet
  facet normal 0 0.242983 -0.970031
    outer loop
      vertex -28.5 13.0853 2.05764
      vertex 0 13.3709 2.12918
      vertex 0 13.0853 2.05764
    endloop
  endfacet
  facet normal 0 0.242983 -0.970031
    outer loop
      vertex 0 13.3709 2.12918
      vertex -28.5 13.0853 2.05764
      vertex -28.5 13.3709 2.12918
    endloop
  endfacet
  facet normal -0 0.514121 0.857718
    outer loop
      vertex -28.5 14.1667 7.49441
      vertex 0 13.9142 7.64576
      vertex 0 14.1667 7.49441
    endloop
  endfacet
  facet normal 0 0.514121 0.857718
    outer loop
      vertex 0 13.9142 7.64576
      vertex -28.5 14.1667 7.49441
      vertex -28.5 13.9142 7.64576
    endloop
  endfacet
  facet normal -0 0.514121 0.857718
    outer loop
      vertex 2.7 14.1667 7.49441
      vertex 31.5 13.9142 7.64576
      vertex 31.5 14.1667 7.49441
    endloop
  endfacet
  facet normal 0 0.514121 0.857718
    outer loop
      vertex 31.5 13.9142 7.64576
      vertex 2.7 14.1667 7.49441
      vertex 2.7 13.9142 7.64576
    endloop
  endfacet
  facet normal -0 0.242983 0.970031
    outer loop
      vertex -28.5 13.3709 7.87082
      vertex 0 13.0853 7.94236
      vertex 0 13.3709 7.87082
    endloop
  endfacet
  facet normal 0 0.242983 0.970031
    outer loop
      vertex 0 13.0853 7.94236
      vertex -28.5 13.3709 7.87082
      vertex -28.5 13.0853 7.94236
    endloop
  endfacet
  facet normal -0 0.242983 0.970031
    outer loop
      vertex 2.7 13.3709 7.87082
      vertex 31.5 13.0853 7.94236
      vertex 31.5 13.3709 7.87082
    endloop
  endfacet
  facet normal 0 0.242983 0.970031
    outer loop
      vertex 31.5 13.0853 7.94236
      vertex 2.7 13.3709 7.87082
      vertex 2.7 13.0853 7.94236
    endloop
  endfacet
  facet normal 0 -0.146712 -0.989179
    outer loop
      vertex -28.5 11.9147 2.05764
      vertex 0 12.2059 2.01445
      vertex 0 11.9147 2.05764
    endloop
  endfacet
  facet normal -0 -0.146712 -0.989179
    outer loop
      vertex 0 12.2059 2.01445
      vertex -28.5 11.9147 2.05764
      vertex -28.5 12.2059 2.01445
    endloop
  endfacet
  facet normal 0 -0.146712 -0.989179
    outer loop
      vertex 2.7 11.9147 2.05764
      vertex 31.5 12.2059 2.01445
      vertex 31.5 11.9147 2.05764
    endloop
  endfacet
  facet normal -0 -0.146712 -0.989179
    outer loop
      vertex 31.5 12.2059 2.01445
      vertex 2.7 11.9147 2.05764
      vertex 2.7 12.2059 2.01445
    endloop
  endfacet
  facet normal 0 -0.336879 -0.941548
    outer loop
      vertex 2.7 11.3519 2.22836
      vertex 31.5 11.6291 2.12918
      vertex 31.5 11.3519 2.22836
    endloop
  endfacet
  facet normal -0 -0.336879 -0.941548
    outer loop
      vertex 31.5 11.6291 2.12918
      vertex 2.7 11.3519 2.22836
      vertex 2.7 11.6291 2.12918
    endloop
  endfacet
  facet normal 0 -0.336879 -0.941548
    outer loop
      vertex -28.5 11.3519 2.22836
      vertex 0 11.6291 2.12918
      vertex 0 11.3519 2.22836
    endloop
  endfacet
  facet normal -0 -0.336879 -0.941548
    outer loop
      vertex 0 11.6291 2.12918
      vertex -28.5 11.3519 2.22836
      vertex -28.5 11.6291 2.12918
    endloop
  endfacet
  facet normal 0 -0.941548 -0.336879
    outer loop
      vertex -28.5 9.72836 3.85195
      vertex 0 9.62918 4.12915
      vertex -28.5 9.62918 4.12915
    endloop
  endfacet
  facet normal 0 -0.941548 -0.336879
    outer loop
      vertex 0 9.62918 4.12915
      vertex -28.5 9.72836 3.85195
      vertex 0 9.72836 3.85195
    endloop
  endfacet
  facet normal 0 -0.941548 -0.336879
    outer loop
      vertex 2.7 9.72836 3.85195
      vertex 31.5 9.62918 4.12915
      vertex 2.7 9.62918 4.12915
    endloop
  endfacet
  facet normal 0 -0.941548 -0.336879
    outer loop
      vertex 31.5 9.62918 4.12915
      vertex 2.7 9.72836 3.85195
      vertex 31.5 9.72836 3.85195
    endloop
  endfacet
  facet normal 0 0.514121 -0.857718
    outer loop
      vertex 2.7 13.9142 2.35424
      vertex 31.5 14.1667 2.50559
      vertex 31.5 13.9142 2.35424
    endloop
  endfacet
  facet normal 0 0.514121 -0.857718
    outer loop
      vertex 31.5 14.1667 2.50559
      vertex 2.7 13.9142 2.35424
      vertex 2.7 14.1667 2.50559
    endloop
  endfacet
  facet normal 0 0.514121 -0.857718
    outer loop
      vertex -28.5 13.9142 2.35424
      vertex 0 14.1667 2.50559
      vertex 0 13.9142 2.35424
    endloop
  endfacet
  facet normal 0 0.514121 -0.857718
    outer loop
      vertex 0 14.1667 2.50559
      vertex -28.5 13.9142 2.35424
      vertex -28.5 14.1667 2.50559
    endloop
  endfacet
  facet normal -0 0.671625 0.740891
    outer loop
      vertex 2.7 14.6213 7.12132
      vertex 31.5 14.4032 7.31903
      vertex 31.5 14.6213 7.12132
    endloop
  endfacet
  facet normal 0 0.671625 0.740891
    outer loop
      vertex 31.5 14.4032 7.31903
      vertex 2.7 14.6213 7.12132
      vertex 2.7 14.4032 7.31903
    endloop
  endfacet
  facet normal -0 0.671625 0.740891
    outer loop
      vertex -28.5 14.6213 7.12132
      vertex 0 14.4032 7.31903
      vertex 0 14.6213 7.12132
    endloop
  endfacet
  facet normal 0 0.671625 0.740891
    outer loop
      vertex 0 14.4032 7.31903
      vertex -28.5 14.6213 7.12132
      vertex -28.5 14.4032 7.31903
    endloop
  endfacet
  facet normal 0 0.0490738 -0.998795
    outer loop
      vertex -28.5 12.5 2
      vertex 0 12.7941 2.01445
      vertex 0 12.5 2
    endloop
  endfacet
  facet normal 0 0.0490738 -0.998795
    outer loop
      vertex 0 12.7941 2.01445
      vertex -28.5 12.5 2
      vertex -28.5 12.7941 2.01445
    endloop
  endfacet
  facet normal 0 0.0490738 -0.998795
    outer loop
      vertex 2.7 12.5 2
      vertex 31.5 12.7941 2.01445
      vertex 31.5 12.5 2
    endloop
  endfacet
  facet normal 0 0.0490738 -0.998795
    outer loop
      vertex 31.5 12.7941 2.01445
      vertex 2.7 12.5 2
      vertex 2.7 12.7941 2.01445
    endloop
  endfacet
  facet normal 0 -0.514121 -0.857718
    outer loop
      vertex -28.5 10.8333 2.50559
      vertex 0 11.0858 2.35424
      vertex 0 10.8333 2.50559
    endloop
  endfacet
  facet normal -0 -0.514121 -0.857718
    outer loop
      vertex 0 11.0858 2.35424
      vertex -28.5 10.8333 2.50559
      vertex -28.5 11.0858 2.35424
    endloop
  endfacet
  facet normal 0 -0.514121 -0.857718
    outer loop
      vertex 2.7 10.8333 2.50559
      vertex 31.5 11.0858 2.35424
      vertex 31.5 10.8333 2.50559
    endloop
  endfacet
  facet normal -0 -0.514121 -0.857718
    outer loop
      vertex 31.5 11.0858 2.35424
      vertex 2.7 10.8333 2.50559
      vertex 2.7 11.0858 2.35424
    endloop
  endfacet
  facet normal 0 -0.989181 -0.146703
    outer loop
      vertex -28.5 9.55764 4.41473
      vertex 0 9.51445 4.70595
      vertex -28.5 9.51445 4.70595
    endloop
  endfacet
  facet normal 0 -0.989181 -0.146703
    outer loop
      vertex 0 9.51445 4.70595
      vertex -28.5 9.55764 4.41473
      vertex 0 9.55764 4.41473
    endloop
  endfacet
  facet normal 0 -0.989181 -0.146703
    outer loop
      vertex 2.7 9.55764 4.41473
      vertex 31.5 9.51445 4.70595
      vertex 2.7 9.51445 4.70595
    endloop
  endfacet
  facet normal 0 -0.989181 -0.146703
    outer loop
      vertex 31.5 9.51445 4.70595
      vertex 2.7 9.55764 4.41473
      vertex 31.5 9.55764 4.41473
    endloop
  endfacet
  facet normal 0 -0.998795 0.0490821
    outer loop
      vertex 2.7 9.5 5
      vertex 31.5 9.51445 5.29405
      vertex 2.7 9.51445 5.29405
    endloop
  endfacet
  facet normal 0 -0.998795 0.0490821
    outer loop
      vertex 31.5 9.51445 5.29405
      vertex 2.7 9.5 5
      vertex 31.5 9.5 5
    endloop
  endfacet
  facet normal 0 -0.998795 0.0490821
    outer loop
      vertex -28.5 9.5 5
      vertex 0 9.51445 5.29405
      vertex -28.5 9.51445 5.29405
    endloop
  endfacet
  facet normal 0 -0.998795 0.0490821
    outer loop
      vertex 0 9.51445 5.29405
      vertex -28.5 9.5 5
      vertex 0 9.5 5
    endloop
  endfacet
  facet normal 0 -0.514121 0.857718
    outer loop
      vertex -28.5 11.0858 7.64576
      vertex 0 10.8333 7.49441
      vertex 0 11.0858 7.64576
    endloop
  endfacet
  facet normal 0 -0.514121 0.857718
    outer loop
      vertex 0 10.8333 7.49441
      vertex -28.5 11.0858 7.64576
      vertex -28.5 10.8333 7.49441
    endloop
  endfacet
  facet normal 0 -0.514121 0.857718
    outer loop
      vertex 2.7 11.0858 7.64576
      vertex 31.5 10.8333 7.49441
      vertex 31.5 11.0858 7.64576
    endloop
  endfacet
  facet normal 0 -0.514121 0.857718
    outer loop
      vertex 31.5 10.8333 7.49441
      vertex 2.7 11.0858 7.64576
      vertex 2.7 10.8333 7.49441
    endloop
  endfacet
  facet normal 0 -0.0490738 -0.998795
    outer loop
      vertex -28.5 12.2059 2.01445
      vertex 0 12.5 2
      vertex 0 12.2059 2.01445
    endloop
  endfacet
  facet normal -0 -0.0490738 -0.998795
    outer loop
      vertex 0 12.5 2
      vertex -28.5 12.2059 2.01445
      vertex -28.5 12.5 2
    endloop
  endfacet
  facet normal 0 -0.0490738 -0.998795
    outer loop
      vertex 2.7 12.2059 2.01445
      vertex 31.5 12.5 2
      vertex 31.5 12.2059 2.01445
    endloop
  endfacet
  facet normal -0 -0.0490738 -0.998795
    outer loop
      vertex 31.5 12.5 2
      vertex 2.7 12.2059 2.01445
      vertex 2.7 12.5 2
    endloop
  endfacet
  facet normal 0 -0.740969 0.671539
    outer loop
      vertex 2.7 10.181 6.90318
      vertex 31.5 10.3787 7.12132
      vertex 2.7 10.3787 7.12132
    endloop
  endfacet
  facet normal 0 -0.740969 0.671539
    outer loop
      vertex 31.5 10.3787 7.12132
      vertex 2.7 10.181 6.90318
      vertex 31.5 10.181 6.90318
    endloop
  endfacet
  facet normal 0 -0.740969 0.671539
    outer loop
      vertex -28.5 10.181 6.90318
      vertex 0 10.3787 7.12132
      vertex -28.5 10.3787 7.12132
    endloop
  endfacet
  facet normal 0 -0.740969 0.671539
    outer loop
      vertex 0 10.3787 7.12132
      vertex -28.5 10.181 6.90318
      vertex 0 10.181 6.90318
    endloop
  endfacet
  facet normal 0 0.671625 -0.740891
    outer loop
      vertex 2.7 14.4032 2.68097
      vertex 31.5 14.6213 2.87868
      vertex 31.5 14.4032 2.68097
    endloop
  endfacet
  facet normal 0 0.671625 -0.740891
    outer loop
      vertex 31.5 14.6213 2.87868
      vertex 2.7 14.4032 2.68097
      vertex 2.7 14.6213 2.87868
    endloop
  endfacet
  facet normal 0 0.671625 -0.740891
    outer loop
      vertex -28.5 14.4032 2.68097
      vertex 0 14.6213 2.87868
      vertex 0 14.4032 2.68097
    endloop
  endfacet
  facet normal 0 0.671625 -0.740891
    outer loop
      vertex 0 14.6213 2.87868
      vertex -28.5 14.4032 2.68097
      vertex -28.5 14.6213 2.87868
    endloop
  endfacet
  facet normal 0 -0.970027 0.242999
    outer loop
      vertex -28.5 9.55764 5.58527
      vertex 0 9.62918 5.87085
      vertex -28.5 9.62918 5.87085
    endloop
  endfacet
  facet normal 0 -0.970027 0.242999
    outer loop
      vertex 0 9.62918 5.87085
      vertex -28.5 9.55764 5.58527
      vertex 0 9.55764 5.58527
    endloop
  endfacet
  facet normal 0 -0.970027 0.242999
    outer loop
      vertex 2.7 9.55764 5.58527
      vertex 31.5 9.62918 5.87085
      vertex 2.7 9.62918 5.87085
    endloop
  endfacet
  facet normal 0 -0.970027 0.242999
    outer loop
      vertex 31.5 9.62918 5.87085
      vertex 2.7 9.55764 5.58527
      vertex 31.5 9.55764 5.58527
    endloop
  endfacet
  facet normal 0 -0.427622 -0.903958
    outer loop
      vertex 2.7 11.0858 2.35424
      vertex 31.5 11.3519 2.22836
      vertex 31.5 11.0858 2.35424
    endloop
  endfacet
  facet normal -0 -0.427622 -0.903958
    outer loop
      vertex 31.5 11.3519 2.22836
      vertex 2.7 11.0858 2.35424
      vertex 2.7 11.3519 2.22836
    endloop
  endfacet
  facet normal 0 -0.427622 -0.903958
    outer loop
      vertex -28.5 11.0858 2.35424
      vertex 0 11.3519 2.22836
      vertex 0 11.0858 2.35424
    endloop
  endfacet
  facet normal -0 -0.427622 -0.903958
    outer loop
      vertex 0 11.3519 2.22836
      vertex -28.5 11.0858 2.35424
      vertex -28.5 11.3519 2.22836
    endloop
  endfacet
  facet normal 0 -0.242983 -0.970031
    outer loop
      vertex -28.5 11.6291 2.12918
      vertex 0 11.9147 2.05764
      vertex 0 11.6291 2.12918
    endloop
  endfacet
  facet normal -0 -0.242983 -0.970031
    outer loop
      vertex 0 11.9147 2.05764
      vertex -28.5 11.6291 2.12918
      vertex -28.5 11.9147 2.05764
    endloop
  endfacet
  facet normal 0 -0.242983 -0.970031
    outer loop
      vertex 2.7 11.6291 2.12918
      vertex 31.5 11.9147 2.05764
      vertex 31.5 11.6291 2.12918
    endloop
  endfacet
  facet normal -0 -0.242983 -0.970031
    outer loop
      vertex 31.5 11.9147 2.05764
      vertex 2.7 11.6291 2.12918
      vertex 2.7 11.9147 2.05764
    endloop
  endfacet
  facet normal 0 0.427491 -0.90402
    outer loop
      vertex 2.7 13.648 2.22836
      vertex 31.5 13.9142 2.35424
      vertex 31.5 13.648 2.22836
    endloop
  endfacet
  facet normal 0 0.427491 -0.90402
    outer loop
      vertex 31.5 13.9142 2.35424
      vertex 2.7 13.648 2.22836
      vertex 2.7 13.9142 2.35424
    endloop
  endfacet
  facet normal 0 0.427491 -0.90402
    outer loop
      vertex -28.5 13.648 2.22836
      vertex 0 13.9142 2.35424
      vertex 0 13.648 2.22836
    endloop
  endfacet
  facet normal 0 0.427491 -0.90402
    outer loop
      vertex 0 13.9142 2.35424
      vertex -28.5 13.648 2.22836
      vertex -28.5 13.9142 2.35424
    endloop
  endfacet
  facet normal -0 0.595655 0.803241
    outer loop
      vertex -28.5 14.4032 7.31903
      vertex 0 14.1667 7.49441
      vertex 0 14.4032 7.31903
    endloop
  endfacet
  facet normal 0 0.595655 0.803241
    outer loop
      vertex 0 14.1667 7.49441
      vertex -28.5 14.4032 7.31903
      vertex -28.5 14.1667 7.49441
    endloop
  endfacet
  facet normal -0 0.595655 0.803241
    outer loop
      vertex 2.7 14.4032 7.31903
      vertex 31.5 14.1667 7.49441
      vertex 31.5 14.4032 7.31903
    endloop
  endfacet
  facet normal 0 0.595655 0.803241
    outer loop
      vertex 31.5 14.1667 7.49441
      vertex 2.7 14.4032 7.31903
      vertex 2.7 14.1667 7.49441
    endloop
  endfacet
  facet normal 0 -0.857721 0.514116
    outer loop
      vertex 2.7 9.85424 6.41419
      vertex 31.5 10.0056 6.66671
      vertex 2.7 10.0056 6.66671
    endloop
  endfacet
  facet normal 0 -0.857721 0.514116
    outer loop
      vertex 31.5 10.0056 6.66671
      vertex 2.7 9.85424 6.41419
      vertex 31.5 9.85424 6.41419
    endloop
  endfacet
  facet normal 0 -0.857721 0.514116
    outer loop
      vertex -28.5 9.85424 6.41419
      vertex 0 10.0056 6.66671
      vertex -28.5 10.0056 6.66671
    endloop
  endfacet
  facet normal 0 -0.857721 0.514116
    outer loop
      vertex 0 10.0056 6.66671
      vertex -28.5 9.85424 6.41419
      vertex 0 9.85424 6.41419
    endloop
  endfacet
  facet normal 0 0.740969 -0.671539
    outer loop
      vertex 31.5 14.6213 2.87868
      vertex 2.7 14.819 3.09682
      vertex 31.5 14.819 3.09682
    endloop
  endfacet
  facet normal 0 0.740969 -0.671539
    outer loop
      vertex 2.7 14.819 3.09682
      vertex 31.5 14.6213 2.87868
      vertex 2.7 14.6213 2.87868
    endloop
  endfacet
  facet normal 0 0.740969 -0.671539
    outer loop
      vertex 0 14.6213 2.87868
      vertex -28.5 14.819 3.09682
      vertex 0 14.819 3.09682
    endloop
  endfacet
  facet normal 0 0.740969 -0.671539
    outer loop
      vertex -28.5 14.819 3.09682
      vertex 0 14.6213 2.87868
      vertex -28.5 14.6213 2.87868
    endloop
  endfacet
  facet normal 0 0.941527 0.336939
    outer loop
      vertex 31.5 15.3708 5.87085
      vertex 2.7 15.2716 6.14805
      vertex 31.5 15.2716 6.14805
    endloop
  endfacet
  facet normal 0 0.941527 0.336939
    outer loop
      vertex 2.7 15.2716 6.14805
      vertex 31.5 15.3708 5.87085
      vertex 2.7 15.3708 5.87085
    endloop
  endfacet
  facet normal 0 0.941527 0.336939
    outer loop
      vertex 0 15.3708 5.87085
      vertex -28.5 15.2716 6.14805
      vertex 0 15.2716 6.14805
    endloop
  endfacet
  facet normal 0 0.941527 0.336939
    outer loop
      vertex -28.5 15.2716 6.14805
      vertex 0 15.3708 5.87085
      vertex -28.5 15.3708 5.87085
    endloop
  endfacet
  facet normal 0 0.146712 -0.989179
    outer loop
      vertex -28.5 12.7941 2.01445
      vertex 0 13.0853 2.05764
      vertex 0 12.7941 2.01445
    endloop
  endfacet
  facet normal 0 0.146712 -0.989179
    outer loop
      vertex 0 13.0853 2.05764
      vertex -28.5 12.7941 2.01445
      vertex -28.5 13.0853 2.05764
    endloop
  endfacet
  facet normal 0 0.146712 -0.989179
    outer loop
      vertex 2.7 12.7941 2.01445
      vertex 31.5 13.0853 2.05764
      vertex 31.5 12.7941 2.01445
    endloop
  endfacet
  facet normal 0 0.146712 -0.989179
    outer loop
      vertex 31.5 13.0853 2.05764
      vertex 2.7 12.7941 2.01445
      vertex 2.7 13.0853 2.05764
    endloop
  endfacet
  facet normal 0 0.989176 -0.146736
    outer loop
      vertex 31.5 15.4424 4.41473
      vertex 2.7 15.4856 4.70595
      vertex 31.5 15.4856 4.70595
    endloop
  endfacet
  facet normal 0 0.989176 -0.146736
    outer loop
      vertex 2.7 15.4856 4.70595
      vertex 31.5 15.4424 4.41473
      vertex 2.7 15.4424 4.41473
    endloop
  endfacet
  facet normal 0 0.989176 -0.146736
    outer loop
      vertex 0 15.4424 4.41473
      vertex -28.5 15.4856 4.70595
      vertex 0 15.4856 4.70595
    endloop
  endfacet
  facet normal 0 0.989176 -0.146736
    outer loop
      vertex -28.5 15.4856 4.70595
      vertex 0 15.4424 4.41473
      vertex -28.5 15.4424 4.41473
    endloop
  endfacet
  facet normal 0 0.803172 0.595747
    outer loop
      vertex 31.5 14.9944 6.66671
      vertex 2.7 14.819 6.90318
      vertex 31.5 14.819 6.90318
    endloop
  endfacet
  facet normal 0 0.803172 0.595747
    outer loop
      vertex 2.7 14.819 6.90318
      vertex 31.5 14.9944 6.66671
      vertex 2.7 14.9944 6.66671
    endloop
  endfacet
  facet normal 0 0.803172 0.595747
    outer loop
      vertex 0 14.9944 6.66671
      vertex -28.5 14.819 6.90318
      vertex 0 14.819 6.90318
    endloop
  endfacet
  facet normal 0 0.803172 0.595747
    outer loop
      vertex -28.5 14.819 6.90318
      vertex 0 14.9944 6.66671
      vertex -28.5 14.9944 6.66671
    endloop
  endfacet
  facet normal 0 0.740969 0.671539
    outer loop
      vertex 31.5 14.819 6.90318
      vertex 2.7 14.6213 7.12132
      vertex 31.5 14.6213 7.12132
    endloop
  endfacet
  facet normal 0 0.740969 0.671539
    outer loop
      vertex 2.7 14.6213 7.12132
      vertex 31.5 14.819 6.90318
      vertex 2.7 14.819 6.90318
    endloop
  endfacet
  facet normal 0 0.740969 0.671539
    outer loop
      vertex 0 14.819 6.90318
      vertex -28.5 14.6213 7.12132
      vertex 0 14.6213 7.12132
    endloop
  endfacet
  facet normal 0 0.740969 0.671539
    outer loop
      vertex -28.5 14.6213 7.12132
      vertex 0 14.819 6.90318
      vertex -28.5 14.819 6.90318
    endloop
  endfacet
  facet normal 0 0.336986 -0.94151
    outer loop
      vertex 2.7 13.3709 2.12918
      vertex 31.5 13.648 2.22836
      vertex 31.5 13.3709 2.12918
    endloop
  endfacet
  facet normal 0 0.336986 -0.94151
    outer loop
      vertex 31.5 13.648 2.22836
      vertex 2.7 13.3709 2.12918
      vertex 2.7 13.648 2.22836
    endloop
  endfacet
  facet normal 0 0.336986 -0.94151
    outer loop
      vertex -28.5 13.3709 2.12918
      vertex 0 13.648 2.22836
      vertex 0 13.3709 2.12918
    endloop
  endfacet
  facet normal 0 0.336986 -0.94151
    outer loop
      vertex 0 13.648 2.22836
      vertex -28.5 13.3709 2.12918
      vertex -28.5 13.648 2.22836
    endloop
  endfacet
  facet normal 0 -0.242983 0.970031
    outer loop
      vertex 2.7 11.9147 7.94236
      vertex 31.5 11.6291 7.87082
      vertex 31.5 11.9147 7.94236
    endloop
  endfacet
  facet normal 0 -0.242983 0.970031
    outer loop
      vertex 31.5 11.6291 7.87082
      vertex 2.7 11.9147 7.94236
      vertex 2.7 11.6291 7.87082
    endloop
  endfacet
  facet normal 0 -0.242983 0.970031
    outer loop
      vertex -28.5 11.9147 7.94236
      vertex 0 11.6291 7.87082
      vertex 0 11.9147 7.94236
    endloop
  endfacet
  facet normal 0 -0.242983 0.970031
    outer loop
      vertex 0 11.6291 7.87082
      vertex -28.5 11.9147 7.94236
      vertex -28.5 11.6291 7.87082
    endloop
  endfacet
  facet normal 0 -0.146712 0.989179
    outer loop
      vertex 2.7 12.2059 7.98555
      vertex 31.5 11.9147 7.94236
      vertex 31.5 12.2059 7.98555
    endloop
  endfacet
  facet normal 0 -0.146712 0.989179
    outer loop
      vertex 31.5 11.9147 7.94236
      vertex 2.7 12.2059 7.98555
      vertex 2.7 11.9147 7.94236
    endloop
  endfacet
  facet normal 0 -0.146712 0.989179
    outer loop
      vertex -28.5 12.2059 7.98555
      vertex 0 11.9147 7.94236
      vertex 0 12.2059 7.98555
    endloop
  endfacet
  facet normal 0 -0.146712 0.989179
    outer loop
      vertex 0 11.9147 7.94236
      vertex -28.5 12.2059 7.98555
      vertex -28.5 11.9147 7.94236
    endloop
  endfacet
  facet normal 0 0.857661 -0.514216
    outer loop
      vertex 31.5 14.9944 3.33329
      vertex 2.7 15.1458 3.58581
      vertex 31.5 15.1458 3.58581
    endloop
  endfacet
  facet normal 0 0.857661 -0.514216
    outer loop
      vertex 2.7 15.1458 3.58581
      vertex 31.5 14.9944 3.33329
      vertex 2.7 14.9944 3.33329
    endloop
  endfacet
  facet normal 0 0.857661 -0.514216
    outer loop
      vertex 0 14.9944 3.33329
      vertex -28.5 15.1458 3.58581
      vertex 0 15.1458 3.58581
    endloop
  endfacet
  facet normal 0 0.857661 -0.514216
    outer loop
      vertex -28.5 15.1458 3.58581
      vertex 0 14.9944 3.33329
      vertex -28.5 14.9944 3.33329
    endloop
  endfacet
  facet normal 0 -0.595655 -0.803241
    outer loop
      vertex 2.7 10.5968 2.68097
      vertex 31.5 10.8333 2.50559
      vertex 31.5 10.5968 2.68097
    endloop
  endfacet
  facet normal -0 -0.595655 -0.803241
    outer loop
      vertex 31.5 10.8333 2.50559
      vertex 2.7 10.5968 2.68097
      vertex 2.7 10.8333 2.50559
    endloop
  endfacet
  facet normal 0 -0.595655 -0.803241
    outer loop
      vertex -28.5 10.5968 2.68097
      vertex 0 10.8333 2.50559
      vertex 0 10.5968 2.68097
    endloop
  endfacet
  facet normal -0 -0.595655 -0.803241
    outer loop
      vertex 0 10.8333 2.50559
      vertex -28.5 10.5968 2.68097
      vertex -28.5 10.8333 2.50559
    endloop
  endfacet
  facet normal 0 -0.0490738 0.998795
    outer loop
      vertex 6 12.5 8
      vertex 31.5 12.2059 7.98555
      vertex 31.5 12.5 8
    endloop
  endfacet
  facet normal 0 -0.0490738 0.998795
    outer loop
      vertex 2.7 12.2059 7.98555
      vertex 6 12.5 8
      vertex 4.5 12.5 8
    endloop
  endfacet
  facet normal 0 -0.0490738 0.998795
    outer loop
      vertex 2.7 12.2059 7.98555
      vertex 4.5 12.5 8
      vertex 2.7 12.5 8
    endloop
  endfacet
  facet normal 0 -0.0490738 0.998795
    outer loop
      vertex 6 12.5 8
      vertex 2.7 12.2059 7.98555
      vertex 31.5 12.2059 7.98555
    endloop
  endfacet
  facet normal 0 -0.0490738 0.998795
    outer loop
      vertex -28.5 12.5 8
      vertex 0 12.2059 7.98555
      vertex 0 12.5 8
    endloop
  endfacet
  facet normal 0 -0.0490738 0.998795
    outer loop
      vertex 0 12.2059 7.98555
      vertex -28.5 12.5 8
      vertex -28.5 12.2059 7.98555
    endloop
  endfacet
  facet normal 0 -0.903983 -0.427569
    outer loop
      vertex -28.5 9.85424 3.58581
      vertex 0 9.72836 3.85195
      vertex -28.5 9.72836 3.85195
    endloop
  endfacet
  facet normal 0 -0.903983 -0.427569
    outer loop
      vertex 0 9.72836 3.85195
      vertex -28.5 9.85424 3.58581
      vertex 0 9.85424 3.58581
    endloop
  endfacet
  facet normal 0 -0.903983 -0.427569
    outer loop
      vertex 2.7 9.85424 3.58581
      vertex 31.5 9.72836 3.85195
      vertex 2.7 9.72836 3.85195
    endloop
  endfacet
  facet normal 0 -0.903983 -0.427569
    outer loop
      vertex 31.5 9.72836 3.85195
      vertex 2.7 9.85424 3.58581
      vertex 31.5 9.85424 3.58581
    endloop
  endfacet
  facet normal -0 0.336986 0.94151
    outer loop
      vertex -28.5 13.648 7.77164
      vertex 0 13.3709 7.87082
      vertex 0 13.648 7.77164
    endloop
  endfacet
  facet normal 0 0.336986 0.94151
    outer loop
      vertex 0 13.3709 7.87082
      vertex -28.5 13.648 7.77164
      vertex -28.5 13.3709 7.87082
    endloop
  endfacet
  facet normal -0 0.336986 0.94151
    outer loop
      vertex 2.7 13.648 7.77164
      vertex 31.5 13.3709 7.87082
      vertex 31.5 13.648 7.77164
    endloop
  endfacet
  facet normal 0 0.336986 0.94151
    outer loop
      vertex 31.5 13.3709 7.87082
      vertex 2.7 13.648 7.77164
      vertex 2.7 13.3709 7.87082
    endloop
  endfacet
  facet normal 0 -0.427622 0.903958
    outer loop
      vertex 2.7 11.3519 7.77164
      vertex 31.5 11.0858 7.64576
      vertex 31.5 11.3519 7.77164
    endloop
  endfacet
  facet normal 0 -0.427622 0.903958
    outer loop
      vertex 31.5 11.0858 7.64576
      vertex 2.7 11.3519 7.77164
      vertex 2.7 11.0858 7.64576
    endloop
  endfacet
  facet normal 0 -0.427622 0.903958
    outer loop
      vertex -28.5 11.3519 7.77164
      vertex 0 11.0858 7.64576
      vertex 0 11.3519 7.77164
    endloop
  endfacet
  facet normal 0 -0.427622 0.903958
    outer loop
      vertex 0 11.0858 7.64576
      vertex -28.5 11.3519 7.77164
      vertex -28.5 11.0858 7.64576
    endloop
  endfacet
  facet normal 0 0.904088 -0.427347
    outer loop
      vertex 0 15.1458 3.58581
      vertex -28.5 15.2716 3.85195
      vertex 0 15.2716 3.85195
    endloop
  endfacet
  facet normal 0 0.904088 -0.427347
    outer loop
      vertex -28.5 15.2716 3.85195
      vertex 0 15.1458 3.58581
      vertex -28.5 15.1458 3.58581
    endloop
  endfacet
  facet normal 0 0.904088 -0.427347
    outer loop
      vertex 31.5 15.1458 3.58581
      vertex 2.7 15.2716 3.85195
      vertex 31.5 15.2716 3.85195
    endloop
  endfacet
  facet normal 0 0.904088 -0.427347
    outer loop
      vertex 2.7 15.2716 3.85195
      vertex 31.5 15.1458 3.58581
      vertex 2.7 15.1458 3.58581
    endloop
  endfacet
  facet normal -0 0.146712 0.989179
    outer loop
      vertex -28.5 13.0853 7.94236
      vertex 0 12.7941 7.98555
      vertex 0 13.0853 7.94236
    endloop
  endfacet
  facet normal 0 0.146712 0.989179
    outer loop
      vertex 0 12.7941 7.98555
      vertex -28.5 13.0853 7.94236
      vertex -28.5 12.7941 7.98555
    endloop
  endfacet
  facet normal -0 0.146712 0.989179
    outer loop
      vertex 2.7 13.0853 7.94236
      vertex 31.5 12.7941 7.98555
      vertex 31.5 13.0853 7.94236
    endloop
  endfacet
  facet normal 0 0.146712 0.989179
    outer loop
      vertex 31.5 12.7941 7.98555
      vertex 2.7 13.0853 7.94236
      vertex 2.7 12.7941 7.98555
    endloop
  endfacet
  facet normal 0 -0.336879 0.941548
    outer loop
      vertex 2.7 11.6291 7.87082
      vertex 31.5 11.3519 7.77164
      vertex 31.5 11.6291 7.87082
    endloop
  endfacet
  facet normal 0 -0.336879 0.941548
    outer loop
      vertex 31.5 11.3519 7.77164
      vertex 2.7 11.6291 7.87082
      vertex 2.7 11.3519 7.77164
    endloop
  endfacet
  facet normal 0 -0.336879 0.941548
    outer loop
      vertex -28.5 11.6291 7.87082
      vertex 0 11.3519 7.77164
      vertex 0 11.6291 7.87082
    endloop
  endfacet
  facet normal 0 -0.336879 0.941548
    outer loop
      vertex 0 11.3519 7.77164
      vertex -28.5 11.6291 7.87082
      vertex -28.5 11.3519 7.77164
    endloop
  endfacet
  facet normal 0 0.595655 -0.803241
    outer loop
      vertex 2.7 14.1667 2.50559
      vertex 31.5 14.4032 2.68097
      vertex 31.5 14.1667 2.50559
    endloop
  endfacet
  facet normal 0 0.595655 -0.803241
    outer loop
      vertex 31.5 14.4032 2.68097
      vertex 2.7 14.1667 2.50559
      vertex 2.7 14.4032 2.68097
    endloop
  endfacet
  facet normal 0 0.595655 -0.803241
    outer loop
      vertex -28.5 14.1667 2.50559
      vertex 0 14.4032 2.68097
      vertex 0 14.1667 2.50559
    endloop
  endfacet
  facet normal 0 0.595655 -0.803241
    outer loop
      vertex 0 14.4032 2.68097
      vertex -28.5 14.1667 2.50559
      vertex -28.5 14.4032 2.68097
    endloop
  endfacet
  facet normal 0 0.803172 -0.595747
    outer loop
      vertex 31.5 14.819 3.09682
      vertex 2.7 14.9944 3.33329
      vertex 31.5 14.9944 3.33329
    endloop
  endfacet
  facet normal 0 0.803172 -0.595747
    outer loop
      vertex 2.7 14.9944 3.33329
      vertex 31.5 14.819 3.09682
      vertex 2.7 14.819 3.09682
    endloop
  endfacet
  facet normal 0 0.803172 -0.595747
    outer loop
      vertex 0 14.819 3.09682
      vertex -28.5 14.9944 3.33329
      vertex 0 14.9944 3.33329
    endloop
  endfacet
  facet normal 0 0.803172 -0.595747
    outer loop
      vertex -28.5 14.9944 3.33329
      vertex 0 14.819 3.09682
      vertex -28.5 14.819 3.09682
    endloop
  endfacet
  facet normal 0 -0.903983 0.427569
    outer loop
      vertex -28.5 9.72836 6.14805
      vertex 0 9.85424 6.41419
      vertex -28.5 9.85424 6.41419
    endloop
  endfacet
  facet normal 0 -0.903983 0.427569
    outer loop
      vertex 0 9.85424 6.41419
      vertex -28.5 9.72836 6.14805
      vertex 0 9.72836 6.14805
    endloop
  endfacet
  facet normal 0 -0.903983 0.427569
    outer loop
      vertex 2.7 9.72836 6.14805
      vertex 31.5 9.85424 6.41419
      vertex 2.7 9.85424 6.41419
    endloop
  endfacet
  facet normal 0 -0.903983 0.427569
    outer loop
      vertex 31.5 9.85424 6.41419
      vertex 2.7 9.72836 6.14805
      vertex 31.5 9.72836 6.14805
    endloop
  endfacet
  facet normal 0 -0.671625 0.740891
    outer loop
      vertex -28.5 10.5968 7.31903
      vertex 0 10.3787 7.12132
      vertex 0 10.5968 7.31903
    endloop
  endfacet
  facet normal 0 -0.671625 0.740891
    outer loop
      vertex 0 10.3787 7.12132
      vertex -28.5 10.5968 7.31903
      vertex -28.5 10.3787 7.12132
    endloop
  endfacet
  facet normal 0 -0.671625 0.740891
    outer loop
      vertex 2.7 10.5968 7.31903
      vertex 31.5 10.3787 7.12132
      vertex 31.5 10.5968 7.31903
    endloop
  endfacet
  facet normal 0 -0.671625 0.740891
    outer loop
      vertex 31.5 10.3787 7.12132
      vertex 2.7 10.5968 7.31903
      vertex 2.7 10.3787 7.12132
    endloop
  endfacet
  facet normal 0 -0.803172 -0.595747
    outer loop
      vertex 2.7 10.181 3.09682
      vertex 31.5 10.0056 3.33329
      vertex 2.7 10.0056 3.33329
    endloop
  endfacet
  facet normal 0 -0.803172 -0.595747
    outer loop
      vertex 31.5 10.0056 3.33329
      vertex 2.7 10.181 3.09682
      vertex 31.5 10.181 3.09682
    endloop
  endfacet
  facet normal 0 -0.803172 -0.595747
    outer loop
      vertex -28.5 10.181 3.09682
      vertex 0 10.0056 3.33329
      vertex -28.5 10.0056 3.33329
    endloop
  endfacet
  facet normal 0 -0.803172 -0.595747
    outer loop
      vertex 0 10.0056 3.33329
      vertex -28.5 10.181 3.09682
      vertex 0 10.181 3.09682
    endloop
  endfacet
  facet normal 0 0.989176 0.146736
    outer loop
      vertex 31.5 15.4856 5.29405
      vertex 2.7 15.4424 5.58527
      vertex 31.5 15.4424 5.58527
    endloop
  endfacet
  facet normal 0 0.989176 0.146736
    outer loop
      vertex 2.7 15.4424 5.58527
      vertex 31.5 15.4856 5.29405
      vertex 2.7 15.4856 5.29405
    endloop
  endfacet
  facet normal 0 0.989176 0.146736
    outer loop
      vertex 0 15.4856 5.29405
      vertex -28.5 15.4424 5.58527
      vertex 0 15.4424 5.58527
    endloop
  endfacet
  facet normal 0 0.989176 0.146736
    outer loop
      vertex -28.5 15.4424 5.58527
      vertex 0 15.4856 5.29405
      vertex -28.5 15.4856 5.29405
    endloop
  endfacet
  facet normal 0 -0.740969 -0.671539
    outer loop
      vertex 2.7 10.3787 2.87868
      vertex 31.5 10.181 3.09682
      vertex 2.7 10.181 3.09682
    endloop
  endfacet
  facet normal 0 -0.740969 -0.671539
    outer loop
      vertex 31.5 10.181 3.09682
      vertex 2.7 10.3787 2.87868
      vertex 31.5 10.3787 2.87868
    endloop
  endfacet
  facet normal 0 -0.740969 -0.671539
    outer loop
      vertex -28.5 10.3787 2.87868
      vertex 0 10.181 3.09682
      vertex -28.5 10.181 3.09682
    endloop
  endfacet
  facet normal 0 -0.740969 -0.671539
    outer loop
      vertex 0 10.181 3.09682
      vertex -28.5 10.3787 2.87868
      vertex 0 10.3787 2.87868
    endloop
  endfacet
  facet normal 0 0.998803 0.0489126
    outer loop
      vertex 31.5 15.5 5
      vertex 2.7 15.4856 5.29405
      vertex 31.5 15.4856 5.29405
    endloop
  endfacet
  facet normal 0 0.998803 0.0489126
    outer loop
      vertex 2.7 15.4856 5.29405
      vertex 31.5 15.5 5
      vertex 2.7 15.5 5
    endloop
  endfacet
  facet normal 0 0.998803 0.0489126
    outer loop
      vertex 0 15.5 5
      vertex -28.5 15.4856 5.29405
      vertex 0 15.4856 5.29405
    endloop
  endfacet
  facet normal 0 0.998803 0.0489126
    outer loop
      vertex -28.5 15.4856 5.29405
      vertex 0 15.5 5
      vertex -28.5 15.5 5
    endloop
  endfacet
  facet normal 0 -0.970027 -0.242999
    outer loop
      vertex 2.7 9.62918 4.12915
      vertex 31.5 9.55764 4.41473
      vertex 2.7 9.55764 4.41473
    endloop
  endfacet
  facet normal 0 -0.970027 -0.242999
    outer loop
      vertex 31.5 9.55764 4.41473
      vertex 2.7 9.62918 4.12915
      vertex 31.5 9.62918 4.12915
    endloop
  endfacet
  facet normal 0 -0.970027 -0.242999
    outer loop
      vertex -28.5 9.62918 4.12915
      vertex 0 9.55764 4.41473
      vertex -28.5 9.55764 4.41473
    endloop
  endfacet
  facet normal 0 -0.970027 -0.242999
    outer loop
      vertex 0 9.55764 4.41473
      vertex -28.5 9.62918 4.12915
      vertex 0 9.62918 4.12915
    endloop
  endfacet
  facet normal 0 0.969978 0.243191
    outer loop
      vertex 31.5 15.4424 5.58527
      vertex 2.7 15.3708 5.87085
      vertex 31.5 15.3708 5.87085
    endloop
  endfacet
  facet normal 0 0.969978 0.243191
    outer loop
      vertex 2.7 15.3708 5.87085
      vertex 31.5 15.4424 5.58527
      vertex 2.7 15.4424 5.58527
    endloop
  endfacet
  facet normal 0 0.969978 0.243191
    outer loop
      vertex 0 15.4424 5.58527
      vertex -28.5 15.3708 5.87085
      vertex 0 15.3708 5.87085
    endloop
  endfacet
  facet normal 0 0.969978 0.243191
    outer loop
      vertex -28.5 15.3708 5.87085
      vertex 0 15.4424 5.58527
      vertex -28.5 15.4424 5.58527
    endloop
  endfacet
  facet normal 0 -0.989181 0.146703
    outer loop
      vertex 2.7 9.51445 5.29405
      vertex 31.5 9.55764 5.58527
      vertex 2.7 9.55764 5.58527
    endloop
  endfacet
  facet normal 0 -0.989181 0.146703
    outer loop
      vertex 31.5 9.55764 5.58527
      vertex 2.7 9.51445 5.29405
      vertex 31.5 9.51445 5.29405
    endloop
  endfacet
  facet normal 0 -0.989181 0.146703
    outer loop
      vertex -28.5 9.51445 5.29405
      vertex 0 9.55764 5.58527
      vertex -28.5 9.55764 5.58527
    endloop
  endfacet
  facet normal 0 -0.989181 0.146703
    outer loop
      vertex 0 9.55764 5.58527
      vertex -28.5 9.51445 5.29405
      vertex 0 9.51445 5.29405
    endloop
  endfacet
  facet normal 0 0.857661 0.514216
    outer loop
      vertex 31.5 15.1458 6.41419
      vertex 2.7 14.9944 6.66671
      vertex 31.5 14.9944 6.66671
    endloop
  endfacet
  facet normal 0 0.857661 0.514216
    outer loop
      vertex 2.7 14.9944 6.66671
      vertex 31.5 15.1458 6.41419
      vertex 2.7 15.1458 6.41419
    endloop
  endfacet
  facet normal 0 0.857661 0.514216
    outer loop
      vertex 0 15.1458 6.41419
      vertex -28.5 14.9944 6.66671
      vertex 0 14.9944 6.66671
    endloop
  endfacet
  facet normal 0 0.857661 0.514216
    outer loop
      vertex -28.5 14.9944 6.66671
      vertex 0 15.1458 6.41419
      vertex -28.5 15.1458 6.41419
    endloop
  endfacet
  facet normal 0 -0.998795 -0.0490821
    outer loop
      vertex -28.5 9.51445 4.70595
      vertex 0 9.5 5
      vertex -28.5 9.5 5
    endloop
  endfacet
  facet normal 0 -0.998795 -0.0490821
    outer loop
      vertex 0 9.5 5
      vertex -28.5 9.51445 4.70595
      vertex 0 9.51445 4.70595
    endloop
  endfacet
  facet normal 0 -0.998795 -0.0490821
    outer loop
      vertex 2.7 9.51445 4.70595
      vertex 31.5 9.5 5
      vertex 2.7 9.5 5
    endloop
  endfacet
  facet normal 0 -0.998795 -0.0490821
    outer loop
      vertex 31.5 9.5 5
      vertex 2.7 9.51445 4.70595
      vertex 31.5 9.51445 4.70595
    endloop
  endfacet
  facet normal 0 -0.595655 0.803241
    outer loop
      vertex -28.5 10.8333 7.49441
      vertex 0 10.5968 7.31903
      vertex 0 10.8333 7.49441
    endloop
  endfacet
  facet normal 0 -0.595655 0.803241
    outer loop
      vertex 0 10.5968 7.31903
      vertex -28.5 10.8333 7.49441
      vertex -28.5 10.5968 7.31903
    endloop
  endfacet
  facet normal 0 -0.595655 0.803241
    outer loop
      vertex 2.7 10.8333 7.49441
      vertex 31.5 10.5968 7.31903
      vertex 31.5 10.8333 7.49441
    endloop
  endfacet
  facet normal 0 -0.595655 0.803241
    outer loop
      vertex 31.5 10.5968 7.31903
      vertex 2.7 10.8333 7.49441
      vertex 2.7 10.5968 7.31903
    endloop
  endfacet
  facet normal 0 0.904088 0.427347
    outer loop
      vertex 0 15.2716 6.14805
      vertex -28.5 15.1458 6.41419
      vertex 0 15.1458 6.41419
    endloop
  endfacet
  facet normal 0 0.904088 0.427347
    outer loop
      vertex -28.5 15.1458 6.41419
      vertex 0 15.2716 6.14805
      vertex -28.5 15.2716 6.14805
    endloop
  endfacet
  facet normal 0 0.904088 0.427347
    outer loop
      vertex 31.5 15.2716 6.14805
      vertex 2.7 15.1458 6.41419
      vertex 31.5 15.1458 6.41419
    endloop
  endfacet
  facet normal 0 0.904088 0.427347
    outer loop
      vertex 2.7 15.1458 6.41419
      vertex 31.5 15.2716 6.14805
      vertex 2.7 15.2716 6.14805
    endloop
  endfacet
  facet normal 0 0.998803 -0.0489126
    outer loop
      vertex 31.5 15.4856 4.70595
      vertex 2.7 15.5 5
      vertex 31.5 15.5 5
    endloop
  endfacet
  facet normal 0 0.998803 -0.0489126
    outer loop
      vertex 2.7 15.5 5
      vertex 31.5 15.4856 4.70595
      vertex 2.7 15.4856 4.70595
    endloop
  endfacet
  facet normal 0 0.998803 -0.0489126
    outer loop
      vertex 0 15.4856 4.70595
      vertex -28.5 15.5 5
      vertex 0 15.5 5
    endloop
  endfacet
  facet normal 0 0.998803 -0.0489126
    outer loop
      vertex -28.5 15.5 5
      vertex 0 15.4856 4.70595
      vertex -28.5 15.4856 4.70595
    endloop
  endfacet
  facet normal -1 0 0
    outer loop
      vertex -28.5 15.4856 4.70595
      vertex -28.5 15.4856 5.29405
      vertex -28.5 15.5 5
    endloop
  endfacet
  facet normal -1 0 0
    outer loop
      vertex -28.5 15.4424 4.41473
      vertex -28.5 15.4856 5.29405
      vertex -28.5 15.4856 4.70595
    endloop
  endfacet
  facet normal -1 0 0
    outer loop
      vertex -28.5 15.4424 4.41473
      vertex -28.5 15.4424 5.58527
      vertex -28.5 15.4856 5.29405
    endloop
  endfacet
  facet normal -1 0 0
    outer loop
      vertex -28.5 15.3708 4.12915
      vertex -28.5 15.4424 5.58527
      vertex -28.5 15.4424 4.41473
    endloop
  endfacet
  facet normal -1 0 0
    outer loop
      vertex -28.5 15.3708 4.12915
      vertex -28.5 15.3708 5.87085
      vertex -28.5 15.4424 5.58527
    endloop
  endfacet
  facet normal -1 0 0
    outer loop
      vertex -28.5 15.2716 3.85195
      vertex -28.5 15.3708 5.87085
      vertex -28.5 15.3708 4.12915
    endloop
  endfacet
  facet normal -1 0 0
    outer loop
      vertex -28.5 15.2716 3.85195
      vertex -28.5 15.2716 6.14805
      vertex -28.5 15.3708 5.87085
    endloop
  endfacet
  facet normal -1 0 0
    outer loop
      vertex -28.5 15.1458 3.58581
      vertex -28.5 15.2716 6.14805
      vertex -28.5 15.2716 3.85195
    endloop
  endfacet
  facet normal -1 0 0
    outer loop
      vertex -28.5 15.1458 3.58581
      vertex -28.5 15.1458 6.41419
      vertex -28.5 15.2716 6.14805
    endloop
  endfacet
  facet normal -1 0 0
    outer loop
      vertex -28.5 14.9944 3.33329
      vertex -28.5 15.1458 6.41419
      vertex -28.5 15.1458 3.58581
    endloop
  endfacet
  facet normal -1 0 0
    outer loop
      vertex -28.5 14.9944 3.33329
      vertex -28.5 14.9944 6.66671
      vertex -28.5 15.1458 6.41419
    endloop
  endfacet
  facet normal -1 0 0
    outer loop
      vertex -28.5 14.819 3.09682
      vertex -28.5 14.9944 6.66671
      vertex -28.5 14.9944 3.33329
    endloop
  endfacet
  facet normal -1 0 0
    outer loop
      vertex -28.5 14.819 3.09682
      vertex -28.5 14.819 6.90318
      vertex -28.5 14.9944 6.66671
    endloop
  endfacet
  facet normal -1 0 0
    outer loop
      vertex -28.5 14.6213 2.87868
      vertex -28.5 14.819 6.90318
      vertex -28.5 14.819 3.09682
    endloop
  endfacet
  facet normal -1 0 0
    outer loop
      vertex -28.5 14.6213 2.87868
      vertex -28.5 14.6213 7.12132
      vertex -28.5 14.819 6.90318
    endloop
  endfacet
  facet normal -1 0 0
    outer loop
      vertex -28.5 14.4032 2.68097
      vertex -28.5 14.6213 7.12132
      vertex -28.5 14.6213 2.87868
    endloop
  endfacet
  facet normal -1 0 0
    outer loop
      vertex -28.5 14.4032 2.68097
      vertex -28.5 14.4032 7.31903
      vertex -28.5 14.6213 7.12132
    endloop
  endfacet
  facet normal -1 0 0
    outer loop
      vertex -28.5 14.1667 2.50559
      vertex -28.5 14.4032 7.31903
      vertex -28.5 14.4032 2.68097
    endloop
  endfacet
  facet normal -1 0 0
    outer loop
      vertex -28.5 14.1667 2.50559
      vertex -28.5 14.1667 7.49441
      vertex -28.5 14.4032 7.31903
    endloop
  endfacet
  facet normal -1 0 0
    outer loop
      vertex -28.5 13.9142 2.35424
      vertex -28.5 14.1667 7.49441
      vertex -28.5 14.1667 2.50559
    endloop
  endfacet
  facet normal -1 0 0
    outer loop
      vertex -28.5 13.9142 2.35424
      vertex -28.5 13.9142 7.64576
      vertex -28.5 14.1667 7.49441
    endloop
  endfacet
  facet normal -1 0 0
    outer loop
      vertex -28.5 13.648 2.22836
      vertex -28.5 13.9142 7.64576
      vertex -28.5 13.9142 2.35424
    endloop
  endfacet
  facet normal -1 0 0
    outer loop
      vertex -28.5 13.648 2.22836
      vertex -28.5 13.648 7.77164
      vertex -28.5 13.9142 7.64576
    endloop
  endfacet
  facet normal -1 0 0
    outer loop
      vertex -28.5 13.3709 2.12918
      vertex -28.5 13.648 7.77164
      vertex -28.5 13.648 2.22836
    endloop
  endfacet
  facet normal -1 0 0
    outer loop
      vertex -28.5 13.3709 2.12918
      vertex -28.5 13.3709 7.87082
      vertex -28.5 13.648 7.77164
    endloop
  endfacet
  facet normal -1 0 0
    outer loop
      vertex -28.5 13.0853 2.05764
      vertex -28.5 13.3709 7.87082
      vertex -28.5 13.3709 2.12918
    endloop
  endfacet
  facet normal -1 0 0
    outer loop
      vertex -28.5 13.0853 2.05764
      vertex -28.5 13.0853 7.94236
      vertex -28.5 13.3709 7.87082
    endloop
  endfacet
  facet normal -1 0 0
    outer loop
      vertex -28.5 12.7941 2.01445
      vertex -28.5 13.0853 7.94236
      vertex -28.5 13.0853 2.05764
    endloop
  endfacet
  facet normal -1 0 0
    outer loop
      vertex -28.5 12.7941 2.01445
      vertex -28.5 12.7941 7.98555
      vertex -28.5 13.0853 7.94236
    endloop
  endfacet
  facet normal -1 0 0
    outer loop
      vertex -28.5 12.5 2
      vertex -28.5 12.7941 7.98555
      vertex -28.5 12.7941 2.01445
    endloop
  endfacet
  facet normal -1 0 0
    outer loop
      vertex -28.5 12.5 2
      vertex -28.5 12.5 8
      vertex -28.5 12.7941 7.98555
    endloop
  endfacet
  facet normal -1 0 0
    outer loop
      vertex -28.5 12.2059 2.01445
      vertex -28.5 12.5 8
      vertex -28.5 12.5 2
    endloop
  endfacet
  facet normal -1 0 0
    outer loop
      vertex -28.5 12.2059 2.01445
      vertex -28.5 12.2059 7.98555
      vertex -28.5 12.5 8
    endloop
  endfacet
  facet normal -1 0 0
    outer loop
      vertex -28.5 11.9147 2.05764
      vertex -28.5 12.2059 7.98555
      vertex -28.5 12.2059 2.01445
    endloop
  endfacet
  facet normal -1 0 0
    outer loop
      vertex -28.5 11.9147 2.05764
      vertex -28.5 11.9147 7.94236
      vertex -28.5 12.2059 7.98555
    endloop
  endfacet
  facet normal -1 0 0
    outer loop
      vertex -28.5 11.6291 2.12918
      vertex -28.5 11.9147 7.94236
      vertex -28.5 11.9147 2.05764
    endloop
  endfacet
  facet normal -1 0 0
    outer loop
      vertex -28.5 11.6291 2.12918
      vertex -28.5 11.6291 7.87082
      vertex -28.5 11.9147 7.94236
    endloop
  endfacet
  facet normal -1 0 0
    outer loop
      vertex -28.5 11.3519 2.22836
      vertex -28.5 11.6291 7.87082
      vertex -28.5 11.6291 2.12918
    endloop
  endfacet
  facet normal -1 0 0
    outer loop
      vertex -28.5 11.3519 2.22836
      vertex -28.5 11.3519 7.77164
      vertex -28.5 11.6291 7.87082
    endloop
  endfacet
  facet normal -1 0 0
    outer loop
      vertex -28.5 11.0858 2.35424
      vertex -28.5 11.3519 7.77164
      vertex -28.5 11.3519 2.22836
    endloop
  endfacet
  facet normal -1 0 0
    outer loop
      vertex -28.5 11.0858 2.35424
      vertex -28.5 11.0858 7.64576
      vertex -28.5 11.3519 7.77164
    endloop
  endfacet
  facet normal -1 0 0
    outer loop
      vertex -28.5 10.8333 2.50559
      vertex -28.5 11.0858 7.64576
      vertex -28.5 11.0858 2.35424
    endloop
  endfacet
  facet normal -1 0 0
    outer loop
      vertex -28.5 10.8333 2.50559
      vertex -28.5 10.8333 7.49441
      vertex -28.5 11.0858 7.64576
    endloop
  endfacet
  facet normal -1 0 0
    outer loop
      vertex -28.5 10.5968 2.68097
      vertex -28.5 10.8333 7.49441
      vertex -28.5 10.8333 2.50559
    endloop
  endfacet
  facet normal -1 0 0
    outer loop
      vertex -28.5 10.5968 2.68097
      vertex -28.5 10.5968 7.31903
      vertex -28.5 10.8333 7.49441
    endloop
  endfacet
  facet normal -1 0 0
    outer loop
      vertex -28.5 10.3787 2.87868
      vertex -28.5 10.5968 7.31903
      vertex -28.5 10.5968 2.68097
    endloop
  endfacet
  facet normal -1 0 0
    outer loop
      vertex -28.5 10.3787 2.87868
      vertex -28.5 10.3787 7.12132
      vertex -28.5 10.5968 7.31903
    endloop
  endfacet
  facet normal -1 0 0
    outer loop
      vertex -28.5 10.181 3.09682
      vertex -28.5 10.3787 7.12132
      vertex -28.5 10.3787 2.87868
    endloop
  endfacet
  facet normal -1 0 0
    outer loop
      vertex -28.5 10.181 3.09682
      vertex -28.5 10.181 6.90318
      vertex -28.5 10.3787 7.12132
    endloop
  endfacet
  facet normal -1 0 0
    outer loop
      vertex -28.5 10.0056 3.33329
      vertex -28.5 10.181 6.90318
      vertex -28.5 10.181 3.09682
    endloop
  endfacet
  facet normal -1 0 0
    outer loop
      vertex -28.5 10.0056 3.33329
      vertex -28.5 10.0056 6.66671
      vertex -28.5 10.181 6.90318
    endloop
  endfacet
  facet normal -1 0 0
    outer loop
      vertex -28.5 9.85424 3.58581
      vertex -28.5 10.0056 6.66671
      vertex -28.5 10.0056 3.33329
    endloop
  endfacet
  facet normal -1 0 0
    outer loop
      vertex -28.5 9.85424 3.58581
      vertex -28.5 9.85424 6.41419
      vertex -28.5 10.0056 6.66671
    endloop
  endfacet
  facet normal -1 0 0
    outer loop
      vertex -28.5 9.72836 3.85195
      vertex -28.5 9.85424 6.41419
      vertex -28.5 9.85424 3.58581
    endloop
  endfacet
  facet normal -1 0 0
    outer loop
      vertex -28.5 9.72836 3.85195
      vertex -28.5 9.72836 6.14805
      vertex -28.5 9.85424 6.41419
    endloop
  endfacet
  facet normal -1 0 0
    outer loop
      vertex -28.5 9.62918 4.12915
      vertex -28.5 9.72836 6.14805
      vertex -28.5 9.72836 3.85195
    endloop
  endfacet
  facet normal -1 0 0
    outer loop
      vertex -28.5 9.62918 4.12915
      vertex -28.5 9.62918 5.87085
      vertex -28.5 9.72836 6.14805
    endloop
  endfacet
  facet normal -1 0 0
    outer loop
      vertex -28.5 9.55764 4.41473
      vertex -28.5 9.62918 5.87085
      vertex -28.5 9.62918 4.12915
    endloop
  endfacet
  facet normal -1 0 0
    outer loop
      vertex -28.5 9.55764 4.41473
      vertex -28.5 9.55764 5.58527
      vertex -28.5 9.62918 5.87085
    endloop
  endfacet
  facet normal -1 0 0
    outer loop
      vertex -28.5 9.51445 4.70595
      vertex -28.5 9.55764 5.58527
      vertex -28.5 9.55764 4.41473
    endloop
  endfacet
  facet normal -1 0 0
    outer loop
      vertex -28.5 9.51445 4.70595
      vertex -28.5 9.51445 5.29405
      vertex -28.5 9.55764 5.58527
    endloop
  endfacet
  facet normal -1 0 -0
    outer loop
      vertex -28.5 9.51445 5.29405
      vertex -28.5 9.51445 4.70595
      vertex -28.5 9.5 5
    endloop
  endfacet
  facet normal 0 -0.857721 -0.514116
    outer loop
      vertex 2.7 10.0056 3.33329
      vertex 31.5 9.85424 3.58581
      vertex 2.7 9.85424 3.58581
    endloop
  endfacet
  facet normal 0 -0.857721 -0.514116
    outer loop
      vertex 31.5 9.85424 3.58581
      vertex 2.7 10.0056 3.33329
      vertex 31.5 10.0056 3.33329
    endloop
  endfacet
  facet normal 0 -0.857721 -0.514116
    outer loop
      vertex -28.5 10.0056 3.33329
      vertex 0 9.85424 3.58581
      vertex -28.5 9.85424 3.58581
    endloop
  endfacet
  facet normal 0 -0.857721 -0.514116
    outer loop
      vertex 0 9.85424 3.58581
      vertex -28.5 10.0056 3.33329
      vertex 0 10.0056 3.33329
    endloop
  endfacet
  facet normal 0 -0.803172 0.595747
    outer loop
      vertex 2.7 10.0056 6.66671
      vertex 31.5 10.181 6.90318
      vertex 2.7 10.181 6.90318
    endloop
  endfacet
  facet normal 0 -0.803172 0.595747
    outer loop
      vertex 31.5 10.181 6.90318
      vertex 2.7 10.0056 6.66671
      vertex 31.5 10.0056 6.66671
    endloop
  endfacet
  facet normal 0 -0.803172 0.595747
    outer loop
      vertex -28.5 10.0056 6.66671
      vertex 0 10.181 6.90318
      vertex -28.5 10.181 6.90318
    endloop
  endfacet
  facet normal 0 -0.803172 0.595747
    outer loop
      vertex 0 10.181 6.90318
      vertex -28.5 10.0056 6.66671
      vertex 0 10.0056 6.66671
    endloop
  endfacet
  facet normal 0 -0.941548 0.336879
    outer loop
      vertex -28.5 9.62918 5.87085
      vertex 0 9.72836 6.14805
      vertex -28.5 9.72836 6.14805
    endloop
  endfacet
  facet normal 0 -0.941548 0.336879
    outer loop
      vertex 0 9.72836 6.14805
      vertex -28.5 9.62918 5.87085
      vertex 0 9.62918 5.87085
    endloop
  endfacet
  facet normal 0 -0.941548 0.336879
    outer loop
      vertex 2.7 9.62918 5.87085
      vertex 31.5 9.72836 6.14805
      vertex 2.7 9.72836 6.14805
    endloop
  endfacet
  facet normal 0 -0.941548 0.336879
    outer loop
      vertex 31.5 9.72836 6.14805
      vertex 2.7 9.62918 5.87085
      vertex 31.5 9.62918 5.87085
    endloop
  endfacet
  facet normal 0 -0.671625 -0.740891
    outer loop
      vertex 2.7 10.3787 2.87868
      vertex 31.5 10.5968 2.68097
      vertex 31.5 10.3787 2.87868
    endloop
  endfacet
  facet normal -0 -0.671625 -0.740891
    outer loop
      vertex 31.5 10.5968 2.68097
      vertex 2.7 10.3787 2.87868
      vertex 2.7 10.5968 2.68097
    endloop
  endfacet
  facet normal 0 -0.671625 -0.740891
    outer loop
      vertex -28.5 10.3787 2.87868
      vertex 0 10.5968 2.68097
      vertex 0 10.3787 2.87868
    endloop
  endfacet
  facet normal -0 -0.671625 -0.740891
    outer loop
      vertex 0 10.5968 2.68097
      vertex -28.5 10.3787 2.87868
      vertex -28.5 10.5968 2.68097
    endloop
  endfacet
  facet normal 0 0.941527 -0.336939
    outer loop
      vertex 0 15.2716 3.85195
      vertex -28.5 15.3708 4.12915
      vertex 0 15.3708 4.12915
    endloop
  endfacet
  facet normal 0 0.941527 -0.336939
    outer loop
      vertex -28.5 15.3708 4.12915
      vertex 0 15.2716 3.85195
      vertex -28.5 15.2716 3.85195
    endloop
  endfacet
  facet normal 0 0.941527 -0.336939
    outer loop
      vertex 31.5 15.2716 3.85195
      vertex 2.7 15.3708 4.12915
      vertex 31.5 15.3708 4.12915
    endloop
  endfacet
  facet normal 0 0.941527 -0.336939
    outer loop
      vertex 2.7 15.3708 4.12915
      vertex 31.5 15.2716 3.85195
      vertex 2.7 15.2716 3.85195
    endloop
  endfacet
  facet normal 0 0.0490738 0.998795
    outer loop
      vertex 31.5 12.7941 7.98555
      vertex 6 12.5 8
      vertex 31.5 12.5 8
    endloop
  endfacet
  facet normal -0 0.0490738 0.998795
    outer loop
      vertex 2.7 12.7941 7.98555
      vertex 6 12.5 8
      vertex 31.5 12.7941 7.98555
    endloop
  endfacet
  facet normal 0 0.0490738 0.998795
    outer loop
      vertex 6 12.5 8
      vertex 2.7 12.7941 7.98555
      vertex 4.5 12.5 8
    endloop
  endfacet
  facet normal 0 0.0490738 0.998795
    outer loop
      vertex 4.5 12.5 8
      vertex 2.7 12.7941 7.98555
      vertex 2.7 12.5 8
    endloop
  endfacet
  facet normal -0 0.0490738 0.998795
    outer loop
      vertex -28.5 12.7941 7.98555
      vertex 0 12.5 8
      vertex 0 12.7941 7.98555
    endloop
  endfacet
  facet normal 0 0.0490738 0.998795
    outer loop
      vertex 0 12.5 8
      vertex -28.5 12.7941 7.98555
      vertex -28.5 12.5 8
    endloop
  endfacet
  facet normal 1 0 0
    outer loop
      vertex 31.5 15.4856 5.29405
      vertex 31.5 15.4856 4.70595
      vertex 31.5 15.5 5
    endloop
  endfacet
  facet normal 1 0 0
    outer loop
      vertex 31.5 15.4424 5.58527
      vertex 31.5 15.4856 4.70595
      vertex 31.5 15.4856 5.29405
    endloop
  endfacet
  facet normal 1 0 0
    outer loop
      vertex 31.5 15.4424 5.58527
      vertex 31.5 15.4424 4.41473
      vertex 31.5 15.4856 4.70595
    endloop
  endfacet
  facet normal 1 0 0
    outer loop
      vertex 31.5 15.3708 5.87085
      vertex 31.5 15.4424 4.41473
      vertex 31.5 15.4424 5.58527
    endloop
  endfacet
  facet normal 1 0 0
    outer loop
      vertex 31.5 15.3708 5.87085
      vertex 31.5 15.3708 4.12915
      vertex 31.5 15.4424 4.41473
    endloop
  endfacet
  facet normal 1 0 0
    outer loop
      vertex 31.5 15.2716 6.14805
      vertex 31.5 15.3708 4.12915
      vertex 31.5 15.3708 5.87085
    endloop
  endfacet
  facet normal 1 0 0
    outer loop
      vertex 31.5 15.2716 6.14805
      vertex 31.5 15.2716 3.85195
      vertex 31.5 15.3708 4.12915
    endloop
  endfacet
  facet normal 1 0 0
    outer loop
      vertex 31.5 15.1458 6.41419
      vertex 31.5 15.2716 3.85195
      vertex 31.5 15.2716 6.14805
    endloop
  endfacet
  facet normal 1 0 0
    outer loop
      vertex 31.5 15.1458 6.41419
      vertex 31.5 15.1458 3.58581
      vertex 31.5 15.2716 3.85195
    endloop
  endfacet
  facet normal 1 0 0
    outer loop
      vertex 31.5 14.9944 6.66671
      vertex 31.5 15.1458 3.58581
      vertex 31.5 15.1458 6.41419
    endloop
  endfacet
  facet normal 1 0 0
    outer loop
      vertex 31.5 14.9944 6.66671
      vertex 31.5 14.9944 3.33329
      vertex 31.5 15.1458 3.58581
    endloop
  endfacet
  facet normal 1 0 0
    outer loop
      vertex 31.5 14.819 6.90318
      vertex 31.5 14.9944 3.33329
      vertex 31.5 14.9944 6.66671
    endloop
  endfacet
  facet normal 1 0 0
    outer loop
      vertex 31.5 14.819 6.90318
      vertex 31.5 14.819 3.09682
      vertex 31.5 14.9944 3.33329
    endloop
  endfacet
  facet normal 1 0 0
    outer loop
      vertex 31.5 14.6213 7.12132
      vertex 31.5 14.819 3.09682
      vertex 31.5 14.819 6.90318
    endloop
  endfacet
  facet normal 1 0 0
    outer loop
      vertex 31.5 14.6213 7.12132
      vertex 31.5 14.6213 2.87868
      vertex 31.5 14.819 3.09682
    endloop
  endfacet
  facet normal 1 0 0
    outer loop
      vertex 31.5 14.4032 7.31903
      vertex 31.5 14.6213 2.87868
      vertex 31.5 14.6213 7.12132
    endloop
  endfacet
  facet normal 1 0 0
    outer loop
      vertex 31.5 14.4032 7.31903
      vertex 31.5 14.4032 2.68097
      vertex 31.5 14.6213 2.87868
    endloop
  endfacet
  facet normal 1 0 0
    outer loop
      vertex 31.5 14.1667 7.49441
      vertex 31.5 14.4032 2.68097
      vertex 31.5 14.4032 7.31903
    endloop
  endfacet
  facet normal 1 0 0
    outer loop
      vertex 31.5 14.1667 7.49441
      vertex 31.5 14.1667 2.50559
      vertex 31.5 14.4032 2.68097
    endloop
  endfacet
  facet normal 1 0 0
    outer loop
      vertex 31.5 13.9142 7.64576
      vertex 31.5 14.1667 2.50559
      vertex 31.5 14.1667 7.49441
    endloop
  endfacet
  facet normal 1 0 0
    outer loop
      vertex 31.5 13.9142 7.64576
      vertex 31.5 13.9142 2.35424
      vertex 31.5 14.1667 2.50559
    endloop
  endfacet
  facet normal 1 0 0
    outer loop
      vertex 31.5 13.648 7.77164
      vertex 31.5 13.9142 2.35424
      vertex 31.5 13.9142 7.64576
    endloop
  endfacet
  facet normal 1 0 0
    outer loop
      vertex 31.5 13.648 7.77164
      vertex 31.5 13.648 2.22836
      vertex 31.5 13.9142 2.35424
    endloop
  endfacet
  facet normal 1 0 0
    outer loop
      vertex 31.5 13.3709 7.87082
      vertex 31.5 13.648 2.22836
      vertex 31.5 13.648 7.77164
    endloop
  endfacet
  facet normal 1 0 0
    outer loop
      vertex 31.5 13.3709 7.87082
      vertex 31.5 13.3709 2.12918
      vertex 31.5 13.648 2.22836
    endloop
  endfacet
  facet normal 1 0 0
    outer loop
      vertex 31.5 13.0853 7.94236
      vertex 31.5 13.3709 2.12918
      vertex 31.5 13.3709 7.87082
    endloop
  endfacet
  facet normal 1 0 0
    outer loop
      vertex 31.5 13.0853 7.94236
      vertex 31.5 13.0853 2.05764
      vertex 31.5 13.3709 2.12918
    endloop
  endfacet
  facet normal 1 0 0
    outer loop
      vertex 31.5 12.7941 7.98555
      vertex 31.5 13.0853 2.05764
      vertex 31.5 13.0853 7.94236
    endloop
  endfacet
  facet normal 1 0 0
    outer loop
      vertex 31.5 12.7941 7.98555
      vertex 31.5 12.7941 2.01445
      vertex 31.5 13.0853 2.05764
    endloop
  endfacet
  facet normal 1 0 0
    outer loop
      vertex 31.5 12.5 8
      vertex 31.5 12.7941 2.01445
      vertex 31.5 12.7941 7.98555
    endloop
  endfacet
  facet normal 1 0 0
    outer loop
      vertex 31.5 12.5 8
      vertex 31.5 12.5 2
      vertex 31.5 12.7941 2.01445
    endloop
  endfacet
  facet normal 1 -0 0
    outer loop
      vertex 31.5 12.2059 7.98555
      vertex 31.5 12.5 2
      vertex 31.5 12.5 8
    endloop
  endfacet
  facet normal 1 0 0
    outer loop
      vertex 31.5 12.2059 7.98555
      vertex 31.5 12.2059 2.01445
      vertex 31.5 12.5 2
    endloop
  endfacet
  facet normal 1 -0 0
    outer loop
      vertex 31.5 11.9147 7.94236
      vertex 31.5 12.2059 2.01445
      vertex 31.5 12.2059 7.98555
    endloop
  endfacet
  facet normal 1 0 0
    outer loop
      vertex 31.5 11.9147 7.94236
      vertex 31.5 11.9147 2.05764
      vertex 31.5 12.2059 2.01445
    endloop
  endfacet
  facet normal 1 -0 0
    outer loop
      vertex 31.5 11.6291 7.87082
      vertex 31.5 11.9147 2.05764
      vertex 31.5 11.9147 7.94236
    endloop
  endfacet
  facet normal 1 0 0
    outer loop
      vertex 31.5 11.6291 7.87082
      vertex 31.5 11.6291 2.12918
      vertex 31.5 11.9147 2.05764
    endloop
  endfacet
  facet normal 1 -0 0
    outer loop
      vertex 31.5 11.3519 7.77164
      vertex 31.5 11.6291 2.12918
      vertex 31.5 11.6291 7.87082
    endloop
  endfacet
  facet normal 1 0 0
    outer loop
      vertex 31.5 11.3519 7.77164
      vertex 31.5 11.3519 2.22836
      vertex 31.5 11.6291 2.12918
    endloop
  endfacet
  facet normal 1 -0 0
    outer loop
      vertex 31.5 11.0858 7.64576
      vertex 31.5 11.3519 2.22836
      vertex 31.5 11.3519 7.77164
    endloop
  endfacet
  facet normal 1 0 0
    outer loop
      vertex 31.5 11.0858 7.64576
      vertex 31.5 11.0858 2.35424
      vertex 31.5 11.3519 2.22836
    endloop
  endfacet
  facet normal 1 -0 0
    outer loop
      vertex 31.5 10.8333 7.49441
      vertex 31.5 11.0858 2.35424
      vertex 31.5 11.0858 7.64576
    endloop
  endfacet
  facet normal 1 0 0
    outer loop
      vertex 31.5 10.8333 7.49441
      vertex 31.5 10.8333 2.50559
      vertex 31.5 11.0858 2.35424
    endloop
  endfacet
  facet normal 1 -0 0
    outer loop
      vertex 31.5 10.5968 7.31903
      vertex 31.5 10.8333 2.50559
      vertex 31.5 10.8333 7.49441
    endloop
  endfacet
  facet normal 1 0 0
    outer loop
      vertex 31.5 10.5968 7.31903
      vertex 31.5 10.5968 2.68097
      vertex 31.5 10.8333 2.50559
    endloop
  endfacet
  facet normal 1 -0 0
    outer loop
      vertex 31.5 10.3787 7.12132
      vertex 31.5 10.5968 2.68097
      vertex 31.5 10.5968 7.31903
    endloop
  endfacet
  facet normal 1 0 0
    outer loop
      vertex 31.5 10.3787 7.12132
      vertex 31.5 10.3787 2.87868
      vertex 31.5 10.5968 2.68097
    endloop
  endfacet
  facet normal 1 -0 0
    outer loop
      vertex 31.5 10.181 6.90318
      vertex 31.5 10.3787 2.87868
      vertex 31.5 10.3787 7.12132
    endloop
  endfacet
  facet normal 1 0 0
    outer loop
      vertex 31.5 10.181 6.90318
      vertex 31.5 10.181 3.09682
      vertex 31.5 10.3787 2.87868
    endloop
  endfacet
  facet normal 1 -0 0
    outer loop
      vertex 31.5 10.0056 6.66671
      vertex 31.5 10.181 3.09682
      vertex 31.5 10.181 6.90318
    endloop
  endfacet
  facet normal 1 0 0
    outer loop
      vertex 31.5 10.0056 6.66671
      vertex 31.5 10.0056 3.33329
      vertex 31.5 10.181 3.09682
    endloop
  endfacet
  facet normal 1 -0 0
    outer loop
      vertex 31.5 9.85424 6.41419
      vertex 31.5 10.0056 3.33329
      vertex 31.5 10.0056 6.66671
    endloop
  endfacet
  facet normal 1 0 0
    outer loop
      vertex 31.5 9.85424 6.41419
      vertex 31.5 9.85424 3.58581
      vertex 31.5 10.0056 3.33329
    endloop
  endfacet
  facet normal 1 -0 0
    outer loop
      vertex 31.5 9.72836 6.14805
      vertex 31.5 9.85424 3.58581
      vertex 31.5 9.85424 6.41419
    endloop
  endfacet
  facet normal 1 0 0
    outer loop
      vertex 31.5 9.72836 6.14805
      vertex 31.5 9.72836 3.85195
      vertex 31.5 9.85424 3.58581
    endloop
  endfacet
  facet normal 1 -0 0
    outer loop
      vertex 31.5 9.62918 5.87085
      vertex 31.5 9.72836 3.85195
      vertex 31.5 9.72836 6.14805
    endloop
  endfacet
  facet normal 1 0 0
    outer loop
      vertex 31.5 9.62918 5.87085
      vertex 31.5 9.62918 4.12915
      vertex 31.5 9.72836 3.85195
    endloop
  endfacet
  facet normal 1 -0 0
    outer loop
      vertex 31.5 9.55764 5.58527
      vertex 31.5 9.62918 4.12915
      vertex 31.5 9.62918 5.87085
    endloop
  endfacet
  facet normal 1 0 0
    outer loop
      vertex 31.5 9.55764 5.58527
      vertex 31.5 9.55764 4.41473
      vertex 31.5 9.62918 4.12915
    endloop
  endfacet
  facet normal 1 -0 0
    outer loop
      vertex 31.5 9.51445 5.29405
      vertex 31.5 9.55764 4.41473
      vertex 31.5 9.55764 5.58527
    endloop
  endfacet
  facet normal 1 0 0
    outer loop
      vertex 31.5 9.51445 5.29405
      vertex 31.5 9.51445 4.70595
      vertex 31.5 9.55764 4.41473
    endloop
  endfacet
  facet normal 1 0 -0
    outer loop
      vertex 31.5 9.51445 4.70595
      vertex 31.5 9.51445 5.29405
      vertex 31.5 9.5 5
    endloop
  endfacet
  facet normal -0 0.427491 0.90402
    outer loop
      vertex -28.5 13.9142 7.64576
      vertex 0 13.648 7.77164
      vertex 0 13.9142 7.64576
    endloop
  endfacet
  facet normal 0 0.427491 0.90402
    outer loop
      vertex 0 13.648 7.77164
      vertex -28.5 13.9142 7.64576
      vertex -28.5 13.648 7.77164
    endloop
  endfacet
  facet normal -0 0.427491 0.90402
    outer loop
      vertex 2.7 13.9142 7.64576
      vertex 31.5 13.648 7.77164
      vertex 31.5 13.9142 7.64576
    endloop
  endfacet
  facet normal 0 0.427491 0.90402
    outer loop
      vertex 31.5 13.648 7.77164
      vertex 2.7 13.9142 7.64576
      vertex 2.7 13.648 7.77164
    endloop
  endfacet
  facet normal 0 0.969978 -0.243191
    outer loop
      vertex 0 15.3708 4.12915
      vertex -28.5 15.4424 4.41473
      vertex 0 15.4424 4.41473
    endloop
  endfacet
  facet normal 0 0.969978 -0.243191
    outer loop
      vertex -28.5 15.4424 4.41473
      vertex 0 15.3708 4.12915
      vertex -28.5 15.3708 4.12915
    endloop
  endfacet
  facet normal 0 0.969978 -0.243191
    outer loop
      vertex 31.5 15.3708 4.12915
      vertex 2.7 15.4424 4.41473
      vertex 31.5 15.4424 4.41473
    endloop
  endfacet
  facet normal 0 0.969978 -0.243191
    outer loop
      vertex 2.7 15.4424 4.41473
      vertex 31.5 15.3708 4.12915
      vertex 2.7 15.3708 4.12915
    endloop
  endfacet
  facet normal 1 0 0
    outer loop
      vertex 6 25 31
      vertex 6 12.5 8
      vertex 6 25 8
    endloop
  endfacet
  facet normal 1 -0 0
    outer loop
      vertex 6 0 31
      vertex 6 12.5 8
      vertex 6 25 31
    endloop
  endfacet
  facet normal 1 0 0
    outer loop
      vertex 6 12.5 8
      vertex 6 0 31
      vertex 6 0 8
    endloop
  endfacet
  facet normal 0 0 -1
    outer loop
      vertex 4.5 12.5 8
      vertex 6 25 8
      vertex 6 12.5 8
    endloop
  endfacet
  facet normal -0 0 -1
    outer loop
      vertex 6 25 8
      vertex 4.5 12.5 8
      vertex 4.5 25 8
    endloop
  endfacet
  facet normal 0 0 -1
    outer loop
      vertex 4.5 0 8
      vertex 6 12.5 8
      vertex 6 0 8
    endloop
  endfacet
  facet normal -0 0 -1
    outer loop
      vertex 6 12.5 8
      vertex 4.5 0 8
      vertex 4.5 12.5 8
    endloop
  endfacet
  facet normal -1 0 0
    outer loop
      vertex 4.5 12.5 8
      vertex 4.5 25 31
      vertex 4.5 25 8
    endloop
  endfacet
  facet normal -1 0 0
    outer loop
      vertex 4.5 0 31
      vertex 4.5 12.5 8
      vertex 4.5 0 8
    endloop
  endfacet
  facet normal -1 0 0
    outer loop
      vertex 4.5 12.5 8
      vertex 4.5 0 31
      vertex 4.5 25 31
    endloop
  endfacet
  facet normal 0 1 -0
    outer loop
      vertex 6 25 8
      vertex 4.5 25 31
      vertex 6 25 31
    endloop
  endfacet
  facet normal 0 1 0
    outer loop
      vertex 4.5 25 31
      vertex 6 25 8
      vertex 4.5 25 8
    endloop
  endfacet
  facet normal 0 -1 0
    outer loop
      vertex 4.5 0 8
      vertex 6 0 31
      vertex 4.5 0 31
    endloop
  endfacet
  facet normal 0 -1 -0
    outer loop
      vertex 6 0 31
      vertex 4.5 0 8
      vertex 6 0 8
    endloop
  endfacet
  facet normal -0 0 1
    outer loop
      vertex 4.5 25 31
      vertex 6 0 31
      vertex 6 25 31
    endloop
  endfacet
  facet normal 0 0 1
    outer loop
      vertex 6 0 31
      vertex 4.5 25 31
      vertex 4.5 0 31
    endloop
  endfacet
  facet normal -1 0 0
    outer loop
      vertex 2.7 15.4856 4.70595
      vertex 2.7 15.4856 5.29405
      vertex 2.7 15.5 5
    endloop
  endfacet
  facet normal -1 0 0
    outer loop
      vertex 2.7 15.4424 4.41473
      vertex 2.7 15.4856 5.29405
      vertex 2.7 15.4856 4.70595
    endloop
  endfacet
  facet normal -1 0 0
    outer loop
      vertex 2.7 15.4424 4.41473
      vertex 2.7 15.4424 5.58527
      vertex 2.7 15.4856 5.29405
    endloop
  endfacet
  facet normal -1 0 0
    outer loop
      vertex 2.7 15.3708 4.12915
      vertex 2.7 15.4424 5.58527
      vertex 2.7 15.4424 4.41473
    endloop
  endfacet
  facet normal -1 0 0
    outer loop
      vertex 2.7 15.3708 4.12915
      vertex 2.7 15.3708 5.87085
      vertex 2.7 15.4424 5.58527
    endloop
  endfacet
  facet normal -1 0 0
    outer loop
      vertex 2.7 15.2716 3.85195
      vertex 2.7 15.3708 5.87085
      vertex 2.7 15.3708 4.12915
    endloop
  endfacet
  facet normal -1 0 0
    outer loop
      vertex 2.7 15.2716 3.85195
      vertex 2.7 15.2716 6.14805
      vertex 2.7 15.3708 5.87085
    endloop
  endfacet
  facet normal -1 0 0
    outer loop
      vertex 2.7 15.1458 3.58581
      vertex 2.7 15.2716 6.14805
      vertex 2.7 15.2716 3.85195
    endloop
  endfacet
  facet normal -1 0 0
    outer loop
      vertex 2.7 15.1458 3.58581
      vertex 2.7 15.1458 6.41419
      vertex 2.7 15.2716 6.14805
    endloop
  endfacet
  facet normal -1 0 0
    outer loop
      vertex 2.7 14.9944 3.33329
      vertex 2.7 15.1458 6.41419
      vertex 2.7 15.1458 3.58581
    endloop
  endfacet
  facet normal -1 0 0
    outer loop
      vertex 2.7 14.9944 3.33329
      vertex 2.7 14.9944 6.66671
      vertex 2.7 15.1458 6.41419
    endloop
  endfacet
  facet normal -1 0 0
    outer loop
      vertex 2.7 14.819 3.09682
      vertex 2.7 14.9944 6.66671
      vertex 2.7 14.9944 3.33329
    endloop
  endfacet
  facet normal -1 0 0
    outer loop
      vertex 2.7 14.819 3.09682
      vertex 2.7 14.819 6.90318
      vertex 2.7 14.9944 6.66671
    endloop
  endfacet
  facet normal -1 0 0
    outer loop
      vertex 2.7 14.6213 2.87868
      vertex 2.7 14.819 6.90318
      vertex 2.7 14.819 3.09682
    endloop
  endfacet
  facet normal -1 0 0
    outer loop
      vertex 2.7 14.6213 2.87868
      vertex 2.7 14.6213 7.12132
      vertex 2.7 14.819 6.90318
    endloop
  endfacet
  facet normal -1 0 0
    outer loop
      vertex 2.7 14.4032 2.68097
      vertex 2.7 14.6213 7.12132
      vertex 2.7 14.6213 2.87868
    endloop
  endfacet
  facet normal -1 0 0
    outer loop
      vertex 2.7 14.4032 2.68097
      vertex 2.7 14.4032 7.31903
      vertex 2.7 14.6213 7.12132
    endloop
  endfacet
  facet normal -1 0 0
    outer loop
      vertex 2.7 14.1667 2.50559
      vertex 2.7 14.4032 7.31903
      vertex 2.7 14.4032 2.68097
    endloop
  endfacet
  facet normal -1 0 0
    outer loop
      vertex 2.7 14.1667 2.50559
      vertex 2.7 14.1667 7.49441
      vertex 2.7 14.4032 7.31903
    endloop
  endfacet
  facet normal -1 0 0
    outer loop
      vertex 2.7 13.9142 2.35424
      vertex 2.7 14.1667 7.49441
      vertex 2.7 14.1667 2.50559
    endloop
  endfacet
  facet normal -1 0 0
    outer loop
      vertex 2.7 13.9142 2.35424
      vertex 2.7 13.9142 7.64576
      vertex 2.7 14.1667 7.49441
    endloop
  endfacet
  facet normal -1 0 0
    outer loop
      vertex 2.7 13.648 2.22836
      vertex 2.7 13.9142 7.64576
      vertex 2.7 13.9142 2.35424
    endloop
  endfacet
  facet normal -1 0 0
    outer loop
      vertex 2.7 13.648 2.22836
      vertex 2.7 13.648 7.77164
      vertex 2.7 13.9142 7.64576
    endloop
  endfacet
  facet normal -1 0 0
    outer loop
      vertex 2.7 13.3709 2.12918
      vertex 2.7 13.648 7.77164
      vertex 2.7 13.648 2.22836
    endloop
  endfacet
  facet normal -1 0 0
    outer loop
      vertex 2.7 13.3709 2.12918
      vertex 2.7 13.3709 7.87082
      vertex 2.7 13.648 7.77164
    endloop
  endfacet
  facet normal -1 0 0
    outer loop
      vertex 2.7 13.0853 2.05764
      vertex 2.7 13.3709 7.87082
      vertex 2.7 13.3709 2.12918
    endloop
  endfacet
  facet normal -1 0 0
    outer loop
      vertex 2.7 13.0853 2.05764
      vertex 2.7 13.0853 7.94236
      vertex 2.7 13.3709 7.87082
    endloop
  endfacet
  facet normal -1 0 0
    outer loop
      vertex 2.7 12.7941 2.01445
      vertex 2.7 13.0853 7.94236
      vertex 2.7 13.0853 2.05764
    endloop
  endfacet
  facet normal -1 0 0
    outer loop
      vertex 2.7 12.7941 2.01445
      vertex 2.7 12.7941 7.98555
      vertex 2.7 13.0853 7.94236
    endloop
  endfacet
  facet normal -1 0 0
    outer loop
      vertex 2.7 12.5 2
      vertex 2.7 12.7941 7.98555
      vertex 2.7 12.7941 2.01445
    endloop
  endfacet
  facet normal -1 0 0
    outer loop
      vertex 2.7 12.5 2
      vertex 2.7 12.5 8
      vertex 2.7 12.7941 7.98555
    endloop
  endfacet
  facet normal -1 0 0
    outer loop
      vertex 2.7 12.2059 2.01445
      vertex 2.7 12.5 8
      vertex 2.7 12.5 2
    endloop
  endfacet
  facet normal -1 0 0
    outer loop
      vertex 2.7 12.2059 2.01445
      vertex 2.7 12.2059 7.98555
      vertex 2.7 12.5 8
    endloop
  endfacet
  facet normal -1 0 0
    outer loop
      vertex 2.7 11.9147 2.05764
      vertex 2.7 12.2059 7.98555
      vertex 2.7 12.2059 2.01445
    endloop
  endfacet
  facet normal -1 0 0
    outer loop
      vertex 2.7 11.9147 2.05764
      vertex 2.7 11.9147 7.94236
      vertex 2.7 12.2059 7.98555
    endloop
  endfacet
  facet normal -1 0 0
    outer loop
      vertex 2.7 11.6291 2.12918
      vertex 2.7 11.9147 7.94236
      vertex 2.7 11.9147 2.05764
    endloop
  endfacet
  facet normal -1 0 0
    outer loop
      vertex 2.7 11.6291 2.12918
      vertex 2.7 11.6291 7.87082
      vertex 2.7 11.9147 7.94236
    endloop
  endfacet
  facet normal -1 0 0
    outer loop
      vertex 2.7 11.3519 2.22836
      vertex 2.7 11.6291 7.87082
      vertex 2.7 11.6291 2.12918
    endloop
  endfacet
  facet normal -1 0 0
    outer loop
      vertex 2.7 11.3519 2.22836
      vertex 2.7 11.3519 7.77164
      vertex 2.7 11.6291 7.87082
    endloop
  endfacet
  facet normal -1 0 0
    outer loop
      vertex 2.7 11.0858 2.35424
      vertex 2.7 11.3519 7.77164
      vertex 2.7 11.3519 2.22836
    endloop
  endfacet
  facet normal -1 0 0
    outer loop
      vertex 2.7 11.0858 2.35424
      vertex 2.7 11.0858 7.64576
      vertex 2.7 11.3519 7.77164
    endloop
  endfacet
  facet normal -1 0 0
    outer loop
      vertex 2.7 10.8333 2.50559
      vertex 2.7 11.0858 7.64576
      vertex 2.7 11.0858 2.35424
    endloop
  endfacet
  facet normal -1 0 0
    outer loop
      vertex 2.7 10.8333 2.50559
      vertex 2.7 10.8333 7.49441
      vertex 2.7 11.0858 7.64576
    endloop
  endfacet
  facet normal -1 0 0
    outer loop
      vertex 2.7 10.5968 2.68097
      vertex 2.7 10.8333 7.49441
      vertex 2.7 10.8333 2.50559
    endloop
  endfacet
  facet normal -1 0 0
    outer loop
      vertex 2.7 10.5968 2.68097
      vertex 2.7 10.5968 7.31903
      vertex 2.7 10.8333 7.49441
    endloop
  endfacet
  facet normal -1 0 0
    outer loop
      vertex 2.7 10.3787 2.87868
      vertex 2.7 10.5968 7.31903
      vertex 2.7 10.5968 2.68097
    endloop
  endfacet
  facet normal -1 0 0
    outer loop
      vertex 2.7 10.3787 2.87868
      vertex 2.7 10.3787 7.12132
      vertex 2.7 10.5968 7.31903
    endloop
  endfacet
  facet normal -1 0 0
    outer loop
      vertex 2.7 10.181 3.09682
      vertex 2.7 10.3787 7.12132
      vertex 2.7 10.3787 2.87868
    endloop
  endfacet
  facet normal -1 0 0
    outer loop
      vertex 2.7 10.181 3.09682
      vertex 2.7 10.181 6.90318
      vertex 2.7 10.3787 7.12132
    endloop
  endfacet
  facet normal -1 0 0
    outer loop
      vertex 2.7 10.0056 3.33329
      vertex 2.7 10.181 6.90318
      vertex 2.7 10.181 3.09682
    endloop
  endfacet
  facet normal -1 0 0
    outer loop
      vertex 2.7 10.0056 3.33329
      vertex 2.7 10.0056 6.66671
      vertex 2.7 10.181 6.90318
    endloop
  endfacet
  facet normal -1 0 0
    outer loop
      vertex 2.7 9.85424 3.58581
      vertex 2.7 10.0056 6.66671
      vertex 2.7 10.0056 3.33329
    endloop
  endfacet
  facet normal -1 0 0
    outer loop
      vertex 2.7 9.85424 3.58581
      vertex 2.7 9.85424 6.41419
      vertex 2.7 10.0056 6.66671
    endloop
  endfacet
  facet normal -1 0 0
    outer loop
      vertex 2.7 9.72836 3.85195
      vertex 2.7 9.85424 6.41419
      vertex 2.7 9.85424 3.58581
    endloop
  endfacet
  facet normal -1 0 0
    outer loop
      vertex 2.7 9.72836 3.85195
      vertex 2.7 9.72836 6.14805
      vertex 2.7 9.85424 6.41419
    endloop
  endfacet
  facet normal -1 0 0
    outer loop
      vertex 2.7 9.62918 4.12915
      vertex 2.7 9.72836 6.14805
      vertex 2.7 9.72836 3.85195
    endloop
  endfacet
  facet normal -1 0 0
    outer loop
      vertex 2.7 9.62918 4.12915
      vertex 2.7 9.62918 5.87085
      vertex 2.7 9.72836 6.14805
    endloop
  endfacet
  facet normal -1 0 0
    outer loop
      vertex 2.7 9.55764 4.41473
      vertex 2.7 9.62918 5.87085
      vertex 2.7 9.62918 4.12915
    endloop
  endfacet
  facet normal -1 0 0
    outer loop
      vertex 2.7 9.55764 4.41473
      vertex 2.7 9.55764 5.58527
      vertex 2.7 9.62918 5.87085
    endloop
  endfacet
  facet normal -1 0 0
    outer loop
      vertex 2.7 9.51445 4.70595
      vertex 2.7 9.55764 5.58527
      vertex 2.7 9.55764 4.41473
    endloop
  endfacet
  facet normal -1 0 0
    outer loop
      vertex 2.7 9.51445 4.70595
      vertex 2.7 9.51445 5.29405
      vertex 2.7 9.55764 5.58527
    endloop
  endfacet
  facet normal -1 0 -0
    outer loop
      vertex 2.7 9.51445 5.29405
      vertex 2.7 9.51445 4.70595
      vertex 2.7 9.5 5
    endloop
  endfacet
endsolid OpenSCAD_Model
