solid OpenSCAD_Model
  facet normal 1 -0 0
    outer loop
      vertex -215 -240 -26
      vertex -215 -215 -714
      vertex -215 -215 -26
    endloop
  endfacet
  facet normal 1 0 0
    outer loop
      vertex -215 -215 -714
      vertex -215 -240 -26
      vertex -215 -240 -714
    endloop
  endfacet
  facet normal 0 0 -1
    outer loop
      vertex -240 -240 -714
      vertex -215 -215 -714
      vertex -215 -240 -714
    endloop
  endfacet
  facet normal -0 0 -1
    outer loop
      vertex -215 -215 -714
      vertex -240 -240 -714
      vertex -240 -215 -714
    endloop
  endfacet
  facet normal -1 0 0
    outer loop
      vertex -240 -240 -714
      vertex -240 -215 -26
      vertex -240 -215 -714
    endloop
  endfacet
  facet normal -1 -0 0
    outer loop
      vertex -240 -215 -26
      vertex -240 -240 -714
      vertex -240 -240 -26
    endloop
  endfacet
  facet normal 0 1 -0
    outer loop
      vertex -215 -215 -714
      vertex -240 -215 -26
      vertex -215 -215 -26
    endloop
  endfacet
  facet normal 0 1 0
    outer loop
      vertex -240 -215 -26
      vertex -215 -215 -714
      vertex -240 -215 -714
    endloop
  endfacet
  facet normal 0 -1 0
    outer loop
      vertex -240 -240 -714
      vertex -215 -240 -26
      vertex -240 -240 -26
    endloop
  endfacet
  facet normal 0 -1 -0
    outer loop
      vertex -215 -240 -26
      vertex -240 -240 -714
      vertex -215 -240 -714
    endloop
  endfacet
  facet normal 1 -0 0
    outer loop
      vertex -200 -255 -15
      vertex -200 -200 -26
      vertex -200 -200 -15
    endloop
  endfacet
  facet normal 1 0 0
    outer loop
      vertex -200 -200 -26
      vertex -200 -255 -15
      vertex -200 -255 -26
    endloop
  endfacet
  facet normal 0 0 -1
    outer loop
      vertex -200 -255 -26
      vertex -215 -240 -26
      vertex -200 -200 -26
    endloop
  endfacet
  facet normal 0 0 -1
    outer loop
      vertex -200 -255 -26
      vertex -240 -240 -26
      vertex -215 -240 -26
    endloop
  endfacet
  facet normal -0 0 -1
    outer loop
      vertex -240 -240 -26
      vertex -255 -255 -26
      vertex -240 -215 -26
    endloop
  endfacet
  facet normal 0 0 -1
    outer loop
      vertex -255 -255 -26
      vertex -240 -240 -26
      vertex -200 -255 -26
    endloop
  endfacet
  facet normal 0 0 -1
    outer loop
      vertex -215 -215 -26
      vertex -200 -200 -26
      vertex -215 -240 -26
    endloop
  endfacet
  facet normal 0 0 -1
    outer loop
      vertex -240 -215 -26
      vertex -200 -200 -26
      vertex -215 -215 -26
    endloop
  endfacet
  facet normal 0 0 -1
    outer loop
      vertex -240 -215 -26
      vertex -255 -200 -26
      vertex -200 -200 -26
    endloop
  endfacet
  facet normal 0 0 -1
    outer loop
      vertex -255 -200 -26
      vertex -240 -215 -26
      vertex -255 -255 -26
    endloop
  endfacet
  facet normal -1 0 0
    outer loop
      vertex -255 -255 -26
      vertex -255 -200 -15
      vertex -255 -200 -26
    endloop
  endfacet
  facet normal -1 -0 0
    outer loop
      vertex -255 -200 -15
      vertex -255 -255 -26
      vertex -255 -255 -15
    endloop
  endfacet
  facet normal 0 1 -0
    outer loop
      vertex -200 -200 -26
      vertex -255 -200 -15
      vertex -200 -200 -15
    endloop
  endfacet
  facet normal 0 1 0
    outer loop
      vertex -255 -200 -15
      vertex -200 -200 -26
      vertex -255 -200 -26
    endloop
  endfacet
  facet normal 0 -1 0
    outer loop
      vertex -255 -255 -26
      vertex -200 -255 -15
      vertex -255 -255 -15
    endloop
  endfacet
  facet normal 0 -1 -0
    outer loop
      vertex -200 -255 -15
      vertex -255 -255 -26
      vertex -200 -255 -26
    endloop
  endfacet
  facet normal 1 -0 0
    outer loop
      vertex -215 215 -26
      vertex -215 240 -714
      vertex -215 240 -26
    endloop
  endfacet
  facet normal 1 0 0
    outer loop
      vertex -215 240 -714
      vertex -215 215 -26
      vertex -215 215 -714
    endloop
  endfacet
  facet normal 0 0 -1
    outer loop
      vertex -240 215 -714
      vertex -215 240 -714
      vertex -215 215 -714
    endloop
  endfacet
  facet normal -0 0 -1
    outer loop
      vertex -215 240 -714
      vertex -240 215 -714
      vertex -240 240 -714
    endloop
  endfacet
  facet normal -1 0 0
    outer loop
      vertex -240 215 -714
      vertex -240 240 -26
      vertex -240 240 -714
    endloop
  endfacet
  facet normal -1 -0 0
    outer loop
      vertex -240 240 -26
      vertex -240 215 -714
      vertex -240 215 -26
    endloop
  endfacet
  facet normal 0 1 -0
    outer loop
      vertex -215 240 -714
      vertex -240 240 -26
      vertex -215 240 -26
    endloop
  endfacet
  facet normal 0 1 0
    outer loop
      vertex -240 240 -26
      vertex -215 240 -714
      vertex -240 240 -714
    endloop
  endfacet
  facet normal 0 -1 0
    outer loop
      vertex -240 215 -714
      vertex -215 215 -26
      vertex -240 215 -26
    endloop
  endfacet
  facet normal 0 -1 -0
    outer loop
      vertex -215 215 -26
      vertex -240 215 -714
      vertex -215 215 -714
    endloop
  endfacet
  facet normal 1 -0 0
    outer loop
      vertex -200 200 -15
      vertex -200 255 -26
      vertex -200 255 -15
    endloop
  endfacet
  facet normal 1 0 0
    outer loop
      vertex -200 255 -26
      vertex -200 200 -15
      vertex -200 200 -26
    endloop
  endfacet
  facet normal 0 0 -1
    outer loop
      vertex -200 200 -26
      vertex -215 215 -26
      vertex -200 255 -26
    endloop
  endfacet
  facet normal 0 0 -1
    outer loop
      vertex -200 200 -26
      vertex -240 215 -26
      vertex -215 215 -26
    endloop
  endfacet
  facet normal -0 0 -1
    outer loop
      vertex -240 215 -26
      vertex -255 200 -26
      vertex -240 240 -26
    endloop
  endfacet
  facet normal 0 0 -1
    outer loop
      vertex -255 200 -26
      vertex -240 215 -26
      vertex -200 200 -26
    endloop
  endfacet
  facet normal 0 0 -1
    outer loop
      vertex -215 240 -26
      vertex -200 255 -26
      vertex -215 215 -26
    endloop
  endfacet
  facet normal 0 0 -1
    outer loop
      vertex -240 240 -26
      vertex -200 255 -26
      vertex -215 240 -26
    endloop
  endfacet
  facet normal 0 0 -1
    outer loop
      vertex -240 240 -26
      vertex -255 255 -26
      vertex -200 255 -26
    endloop
  endfacet
  facet normal 0 0 -1
    outer loop
      vertex -255 255 -26
      vertex -240 240 -26
      vertex -255 200 -26
    endloop
  endfacet
  facet normal -1 0 0
    outer loop
      vertex -255 200 -26
      vertex -255 255 -15
      vertex -255 255 -26
    endloop
  endfacet
  facet normal -1 -0 0
    outer loop
      vertex -255 255 -15
      vertex -255 200 -26
      vertex -255 200 -15
    endloop
  endfacet
  facet normal 0 1 -0
    outer loop
      vertex -200 255 -26
      vertex -255 255 -15
      vertex -200 255 -15
    endloop
  endfacet
  facet normal 0 1 0
    outer loop
      vertex -255 255 -15
      vertex -200 255 -26
      vertex -255 255 -26
    endloop
  endfacet
  facet normal 0 -1 0
    outer loop
      vertex -255 200 -26
      vertex -200 200 -15
      vertex -255 200 -15
    endloop
  endfacet
  facet normal 0 -1 -0
    outer loop
      vertex -200 200 -15
      vertex -255 200 -26
      vertex -200 200 -26
    endloop
  endfacet
  facet normal 1 -0 0
    outer loop
      vertex 240 -240 -26
      vertex 240 -215 -714
      vertex 240 -215 -26
    endloop
  endfacet
  facet normal 1 0 0
    outer loop
      vertex 240 -215 -714
      vertex 240 -240 -26
      vertex 240 -240 -714
    endloop
  endfacet
  facet normal 0 0 -1
    outer loop
      vertex 215 -240 -714
      vertex 240 -215 -714
      vertex 240 -240 -714
    endloop
  endfacet
  facet normal -0 0 -1
    outer loop
      vertex 240 -215 -714
      vertex 215 -240 -714
      vertex 215 -215 -714
    endloop
  endfacet
  facet normal -1 0 0
    outer loop
      vertex 215 -240 -714
      vertex 215 -215 -26
      vertex 215 -215 -714
    endloop
  endfacet
  facet normal -1 -0 0
    outer loop
      vertex 215 -215 -26
      vertex 215 -240 -714
      vertex 215 -240 -26
    endloop
  endfacet
  facet normal 0 1 -0
    outer loop
      vertex 240 -215 -714
      vertex 215 -215 -26
      vertex 240 -215 -26
    endloop
  endfacet
  facet normal 0 1 0
    outer loop
      vertex 215 -215 -26
      vertex 240 -215 -714
      vertex 215 -215 -714
    endloop
  endfacet
  facet normal 0 -1 0
    outer loop
      vertex 215 -240 -714
      vertex 240 -240 -26
      vertex 215 -240 -26
    endloop
  endfacet
  facet normal 0 -1 -0
    outer loop
      vertex 240 -240 -26
      vertex 215 -240 -714
      vertex 240 -240 -714
    endloop
  endfacet
  facet normal 1 -0 0
    outer loop
      vertex 255 -255 -15
      vertex 255 -200 -26
      vertex 255 -200 -15
    endloop
  endfacet
  facet normal 1 0 0
    outer loop
      vertex 255 -200 -26
      vertex 255 -255 -15
      vertex 255 -255 -26
    endloop
  endfacet
  facet normal 0 0 -1
    outer loop
      vertex 255 -255 -26
      vertex 240 -240 -26
      vertex 255 -200 -26
    endloop
  endfacet
  facet normal 0 0 -1
    outer loop
      vertex 255 -255 -26
      vertex 215 -240 -26
      vertex 240 -240 -26
    endloop
  endfacet
  facet normal -0 0 -1
    outer loop
      vertex 215 -240 -26
      vertex 200 -255 -26
      vertex 215 -215 -26
    endloop
  endfacet
  facet normal 0 0 -1
    outer loop
      vertex 200 -255 -26
      vertex 215 -240 -26
      vertex 255 -255 -26
    endloop
  endfacet
  facet normal 0 0 -1
    outer loop
      vertex 240 -215 -26
      vertex 255 -200 -26
      vertex 240 -240 -26
    endloop
  endfacet
  facet normal 0 0 -1
    outer loop
      vertex 215 -215 -26
      vertex 255 -200 -26
      vertex 240 -215 -26
    endloop
  endfacet
  facet normal 0 0 -1
    outer loop
      vertex 215 -215 -26
      vertex 200 -200 -26
      vertex 255 -200 -26
    endloop
  endfacet
  facet normal 0 0 -1
    outer loop
      vertex 200 -200 -26
      vertex 215 -215 -26
      vertex 200 -255 -26
    endloop
  endfacet
  facet normal -1 0 0
    outer loop
      vertex 200 -255 -26
      vertex 200 -200 -15
      vertex 200 -200 -26
    endloop
  endfacet
  facet normal -1 -0 0
    outer loop
      vertex 200 -200 -15
      vertex 200 -255 -26
      vertex 200 -255 -15
    endloop
  endfacet
  facet normal 0 1 -0
    outer loop
      vertex 255 -200 -26
      vertex 200 -200 -15
      vertex 255 -200 -15
    endloop
  endfacet
  facet normal 0 1 0
    outer loop
      vertex 200 -200 -15
      vertex 255 -200 -26
      vertex 200 -200 -26
    endloop
  endfacet
  facet normal 0 -1 0
    outer loop
      vertex 200 -255 -26
      vertex 255 -255 -15
      vertex 200 -255 -15
    endloop
  endfacet
  facet normal 0 -1 -0
    outer loop
      vertex 255 -255 -15
      vertex 200 -255 -26
      vertex 255 -255 -26
    endloop
  endfacet
  facet normal 1 -0 0
    outer loop
      vertex 240 215 -26
      vertex 240 240 -714
      vertex 240 240 -26
    endloop
  endfacet
  facet normal 1 0 0
    outer loop
      vertex 240 240 -714
      vertex 240 215 -26
      vertex 240 215 -714
    endloop
  endfacet
  facet normal 0 0 -1
    outer loop
      vertex 215 215 -714
      vertex 240 240 -714
      vertex 240 215 -714
    endloop
  endfacet
  facet normal -0 0 -1
    outer loop
      vertex 240 240 -714
      vertex 215 215 -714
      vertex 215 240 -714
    endloop
  endfacet
  facet normal -1 0 0
    outer loop
      vertex 215 215 -714
      vertex 215 240 -26
      vertex 215 240 -714
    endloop
  endfacet
  facet normal -1 -0 0
    outer loop
      vertex 215 240 -26
      vertex 215 215 -714
      vertex 215 215 -26
    endloop
  endfacet
  facet normal 0 1 -0
    outer loop
      vertex 240 240 -714
      vertex 215 240 -26
      vertex 240 240 -26
    endloop
  endfacet
  facet normal 0 1 0
    outer loop
      vertex 215 240 -26
      vertex 240 240 -714
      vertex 215 240 -714
    endloop
  endfacet
  facet normal 0 -1 0
    outer loop
      vertex 215 215 -714
      vertex 240 215 -26
      vertex 215 215 -26
    endloop
  endfacet
  facet normal 0 -1 -0
    outer loop
      vertex 240 215 -26
      vertex 215 215 -714
      vertex 240 215 -714
    endloop
  endfacet
  facet normal 1 -0 0
    outer loop
      vertex 255 200 -15
      vertex 255 255 -26
      vertex 255 255 -15
    endloop
  endfacet
  facet normal 1 0 0
    outer loop
      vertex 255 255 -26
      vertex 255 200 -15
      vertex 255 200 -26
    endloop
  endfacet
  facet normal 0 0 -1
    outer loop
      vertex 255 200 -26
      vertex 240 215 -26
      vertex 255 255 -26
    endloop
  endfacet
  facet normal 0 0 -1
    outer loop
      vertex 255 200 -26
      vertex 215 215 -26
      vertex 240 215 -26
    endloop
  endfacet
  facet normal -0 0 -1
    outer loop
      vertex 215 215 -26
      vertex 200 200 -26
      vertex 215 240 -26
    endloop
  endfacet
  facet normal 0 0 -1
    outer loop
      vertex 200 200 -26
      vertex 215 215 -26
      vertex 255 200 -26
    endloop
  endfacet
  facet normal 0 0 -1
    outer loop
      vertex 240 240 -26
      vertex 255 255 -26
      vertex 240 215 -26
    endloop
  endfacet
  facet normal 0 0 -1
    outer loop
      vertex 215 240 -26
      vertex 255 255 -26
      vertex 240 240 -26
    endloop
  endfacet
  facet normal 0 0 -1
    outer loop
      vertex 215 240 -26
      vertex 200 255 -26
      vertex 255 255 -26
    endloop
  endfacet
  facet normal 0 0 -1
    outer loop
      vertex 200 255 -26
      vertex 215 240 -26
      vertex 200 200 -26
    endloop
  endfacet
  facet normal -1 0 0
    outer loop
      vertex 200 200 -26
      vertex 200 255 -15
      vertex 200 255 -26
    endloop
  endfacet
  facet normal -1 -0 0
    outer loop
      vertex 200 255 -15
      vertex 200 200 -26
      vertex 200 200 -15
    endloop
  endfacet
  facet normal 0 1 -0
    outer loop
      vertex 255 255 -26
      vertex 200 255 -15
      vertex 255 255 -15
    endloop
  endfacet
  facet normal 0 1 0
    outer loop
      vertex 200 255 -15
      vertex 255 255 -26
      vertex 200 255 -26
    endloop
  endfacet
  facet normal 0 -1 0
    outer loop
      vertex 200 200 -26
      vertex 255 200 -15
      vertex 200 200 -15
    endloop
  endfacet
  facet normal 0 -1 -0
    outer loop
      vertex 255 200 -15
      vertex 200 200 -26
      vertex 255 200 -26
    endloop
  endfacet
  facet normal 1 -0 0
    outer loop
      vertex 12.5 -12.5 -26
      vertex 12.5 12.5 -714
      vertex 12.5 12.5 -26
    endloop
  endfacet
  facet normal 1 0 0
    outer loop
      vertex 12.5 12.5 -714
      vertex 12.5 -12.5 -26
      vertex 12.5 -12.5 -714
    endloop
  endfacet
  facet normal 0 0 -1
    outer loop
      vertex -12.5 -12.5 -714
      vertex 12.5 12.5 -714
      vertex 12.5 -12.5 -714
    endloop
  endfacet
  facet normal -0 0 -1
    outer loop
      vertex 12.5 12.5 -714
      vertex -12.5 -12.5 -714
      vertex -12.5 12.5 -714
    endloop
  endfacet
  facet normal -1 0 0
    outer loop
      vertex -12.5 -12.5 -714
      vertex -12.5 12.5 -26
      vertex -12.5 12.5 -714
    endloop
  endfacet
  facet normal -1 -0 0
    outer loop
      vertex -12.5 12.5 -26
      vertex -12.5 -12.5 -714
      vertex -12.5 -12.5 -26
    endloop
  endfacet
  facet normal 0 1 -0
    outer loop
      vertex 12.5 12.5 -714
      vertex -12.5 12.5 -26
      vertex 12.5 12.5 -26
    endloop
  endfacet
  facet normal 0 1 0
    outer loop
      vertex -12.5 12.5 -26
      vertex 12.5 12.5 -714
      vertex -12.5 12.5 -714
    endloop
  endfacet
  facet normal 0 -1 0
    outer loop
      vertex -12.5 -12.5 -714
      vertex 12.5 -12.5 -26
      vertex -12.5 -12.5 -26
    endloop
  endfacet
  facet normal 0 -1 -0
    outer loop
      vertex 12.5 -12.5 -26
      vertex -12.5 -12.5 -714
      vertex 12.5 -12.5 -714
    endloop
  endfacet
  facet normal 1 -0 0
    outer loop
      vertex 27.5 -27.5 -15
      vertex 27.5 27.5 -26
      vertex 27.5 27.5 -15
    endloop
  endfacet
  facet normal 1 0 0
    outer loop
      vertex 27.5 27.5 -26
      vertex 27.5 -27.5 -15
      vertex 27.5 -27.5 -26
    endloop
  endfacet
  facet normal 0 0 -1
    outer loop
      vertex 27.5 -27.5 -26
      vertex 12.5 -12.5 -26
      vertex 27.5 27.5 -26
    endloop
  endfacet
  facet normal 0 0 -1
    outer loop
      vertex 27.5 -27.5 -26
      vertex -12.5 -12.5 -26
      vertex 12.5 -12.5 -26
    endloop
  endfacet
  facet normal -0 0 -1
    outer loop
      vertex -12.5 -12.5 -26
      vertex -27.5 -27.5 -26
      vertex -12.5 12.5 -26
    endloop
  endfacet
  facet normal 0 0 -1
    outer loop
      vertex -27.5 -27.5 -26
      vertex -12.5 -12.5 -26
      vertex 27.5 -27.5 -26
    endloop
  endfacet
  facet normal 0 0 -1
    outer loop
      vertex 12.5 12.5 -26
      vertex 27.5 27.5 -26
      vertex 12.5 -12.5 -26
    endloop
  endfacet
  facet normal 0 0 -1
    outer loop
      vertex -12.5 12.5 -26
      vertex 27.5 27.5 -26
      vertex 12.5 12.5 -26
    endloop
  endfacet
  facet normal 0 0 -1
    outer loop
      vertex -12.5 12.5 -26
      vertex -27.5 27.5 -26
      vertex 27.5 27.5 -26
    endloop
  endfacet
  facet normal 0 0 -1
    outer loop
      vertex -27.5 27.5 -26
      vertex -12.5 12.5 -26
      vertex -27.5 -27.5 -26
    endloop
  endfacet
  facet normal -1 0 0
    outer loop
      vertex -27.5 -27.5 -26
      vertex -27.5 27.5 -15
      vertex -27.5 27.5 -26
    endloop
  endfacet
  facet normal -1 -0 0
    outer loop
      vertex -27.5 27.5 -15
      vertex -27.5 -27.5 -26
      vertex -27.5 -27.5 -15
    endloop
  endfacet
  facet normal 0 1 -0
    outer loop
      vertex 27.5 27.5 -26
      vertex -27.5 27.5 -15
      vertex 27.5 27.5 -15
    endloop
  endfacet
  facet normal 0 1 0
    outer loop
      vertex -27.5 27.5 -15
      vertex 27.5 27.5 -26
      vertex -27.5 27.5 -26
    endloop
  endfacet
  facet normal 0 -1 0
    outer loop
      vertex -27.5 -27.5 -26
      vertex 27.5 -27.5 -15
      vertex -27.5 -27.5 -15
    endloop
  endfacet
  facet normal 0 -1 -0
    outer loop
      vertex 27.5 -27.5 -15
      vertex -27.5 -27.5 -26
      vertex 27.5 -27.5 -26
    endloop
  endfacet
  facet normal 1 -0 0
    outer loop
      vertex 300 -300 15
      vertex 300 300 -15
      vertex 300 300 15
    endloop
  endfacet
  facet normal 1 0 0
    outer loop
      vertex 300 300 -15
      vertex 300 -300 15
      vertex 300 -300 -15
    endloop
  endfacet
  facet normal -0 0 1
    outer loop
      vertex -300 300 15
      vertex 300 -300 15
      vertex 300 300 15
    endloop
  endfacet
  facet normal 0 0 1
    outer loop
      vertex 300 -300 15
      vertex -300 300 15
      vertex -300 -300 15
    endloop
  endfacet
  facet normal 0 0 -1
    outer loop
      vertex -255 -200 -15
      vertex -200 200 -15
      vertex -200 -200 -15
    endloop
  endfacet
  facet normal -0 0 -1
    outer loop
      vertex -200 200 -15
      vertex -255 -200 -15
      vertex -255 200 -15
    endloop
  endfacet
  facet normal 0 0 -1
    outer loop
      vertex 200 -200 -15
      vertex 255 200 -15
      vertex 255 -200 -15
    endloop
  endfacet
  facet normal -0 0 -1
    outer loop
      vertex 255 200 -15
      vertex 200 -200 -15
      vertex 200 200 -15
    endloop
  endfacet
  facet normal 0 0 -1
    outer loop
      vertex 255 -200 -15
      vertex 300 -300 -15
      vertex 255 -255 -15
    endloop
  endfacet
  facet normal 0 0 -1
    outer loop
      vertex 300 -300 -15
      vertex 200 -255 -15
      vertex 255 -255 -15
    endloop
  endfacet
  facet normal 0 0 -1
    outer loop
      vertex 27.5 -27.5 -15
      vertex 200 -200 -15
      vertex 200 -255 -15
    endloop
  endfacet
  facet normal 0 0 -1
    outer loop
      vertex 200 -200 -15
      vertex 27.5 -27.5 -15
      vertex 200 200 -15
    endloop
  endfacet
  facet normal 0 0 -1
    outer loop
      vertex 27.5 27.5 -15
      vertex 200 200 -15
      vertex 27.5 -27.5 -15
    endloop
  endfacet
  facet normal 0 0 -1
    outer loop
      vertex 200 -255 -15
      vertex -27.5 -27.5 -15
      vertex 27.5 -27.5 -15
    endloop
  endfacet
  facet normal 0 0 -1
    outer loop
      vertex -200 -200 -15
      vertex -27.5 -27.5 -15
      vertex -200 -255 -15
    endloop
  endfacet
  facet normal 0 0 -1
    outer loop
      vertex 200 -255 -15
      vertex -200 -255 -15
      vertex -27.5 -27.5 -15
    endloop
  endfacet
  facet normal 0 0 -1
    outer loop
      vertex 300 -300 -15
      vertex -200 -255 -15
      vertex 200 -255 -15
    endloop
  endfacet
  facet normal 0 0 -1
    outer loop
      vertex -300 -300 -15
      vertex -200 -255 -15
      vertex 300 -300 -15
    endloop
  endfacet
  facet normal 0 0 -1
    outer loop
      vertex -300 -300 -15
      vertex -255 -200 -15
      vertex -255 -255 -15
    endloop
  endfacet
  facet normal -0 0 -1
    outer loop
      vertex -255 -200 -15
      vertex -300 -300 -15
      vertex -255 200 -15
    endloop
  endfacet
  facet normal 0 0 -1
    outer loop
      vertex -300 300 -15
      vertex -255 200 -15
      vertex -300 -300 -15
    endloop
  endfacet
  facet normal -0 0 -1
    outer loop
      vertex -200 -255 -15
      vertex -300 -300 -15
      vertex -255 -255 -15
    endloop
  endfacet
  facet normal 0 0 -1
    outer loop
      vertex 300 -300 -15
      vertex 255 -200 -15
      vertex 300 300 -15
    endloop
  endfacet
  facet normal 0 0 -1
    outer loop
      vertex 255 200 -15
      vertex 300 300 -15
      vertex 255 -200 -15
    endloop
  endfacet
  facet normal 0 0 -1
    outer loop
      vertex 255 255 -15
      vertex 300 300 -15
      vertex 255 200 -15
    endloop
  endfacet
  facet normal 0 0 -1
    outer loop
      vertex 200 255 -15
      vertex 300 300 -15
      vertex 255 255 -15
    endloop
  endfacet
  facet normal -0 0 -1
    outer loop
      vertex 200 200 -15
      vertex 27.5 27.5 -15
      vertex 200 255 -15
    endloop
  endfacet
  facet normal 0 0 -1
    outer loop
      vertex -27.5 27.5 -15
      vertex 200 255 -15
      vertex 27.5 27.5 -15
    endloop
  endfacet
  facet normal -0 0 -1
    outer loop
      vertex -27.5 -27.5 -15
      vertex -200 -200 -15
      vertex -27.5 27.5 -15
    endloop
  endfacet
  facet normal 0 0 -1
    outer loop
      vertex -200 200 -15
      vertex -27.5 27.5 -15
      vertex -200 -200 -15
    endloop
  endfacet
  facet normal 0 0 -1
    outer loop
      vertex -200 200 -15
      vertex 200 255 -15
      vertex -27.5 27.5 -15
    endloop
  endfacet
  facet normal 0 0 -1
    outer loop
      vertex -200 255 -15
      vertex 200 255 -15
      vertex -200 200 -15
    endloop
  endfacet
  facet normal 0 0 -1
    outer loop
      vertex 200 255 -15
      vertex -200 255 -15
      vertex 300 300 -15
    endloop
  endfacet
  facet normal 0 0 -1
    outer loop
      vertex -300 300 -15
      vertex -200 255 -15
      vertex -255 255 -15
    endloop
  endfacet
  facet normal 0 0 -1
    outer loop
      vertex -200 255 -15
      vertex -300 300 -15
      vertex 300 300 -15
    endloop
  endfacet
  facet normal 0 0 -1
    outer loop
      vertex -255 200 -15
      vertex -300 300 -15
      vertex -255 255 -15
    endloop
  endfacet
  facet normal -1 0 0
    outer loop
      vertex -300 -300 -15
      vertex -300 300 15
      vertex -300 300 -15
    endloop
  endfacet
  facet normal -1 -0 0
    outer loop
      vertex -300 300 15
      vertex -300 -300 -15
      vertex -300 -300 15
    endloop
  endfacet
  facet normal 0 1 -0
    outer loop
      vertex 300 300 -15
      vertex -300 300 15
      vertex 300 300 15
    endloop
  endfacet
  facet normal 0 1 0
    outer loop
      vertex -300 300 15
      vertex 300 300 -15
      vertex -300 300 -15
    endloop
  endfacet
  facet normal 0 -1 0
    outer loop
      vertex -300 -300 -15
      vertex 300 -300 15
      vertex -300 -300 15
    endloop
  endfacet
  facet normal 0 -1 -0
    outer loop
      vertex 300 -300 15
      vertex -300 -300 -15
      vertex 300 -300 -15
    endloop
  endfacet
endsolid OpenSCAD_Model
