solid OpenSCAD_Model
  facet normal 1 -0 0
    outer loop
      vertex 15 -15 5
      vertex 15 15 -5
      vertex 15 15 5
    endloop
  endfacet
  facet normal 1 0 0
    outer loop
      vertex 15 15 -5
      vertex 15 -15 5
      vertex 15 -15 -5
    endloop
  endfacet
  facet normal 0 0 1
    outer loop
      vertex 15 15 5
      vertex 5 0 5
      vertex 15 -15 5
    endloop
  endfacet
  facet normal 0 0 1
    outer loop
      vertex 15 15 5
      vertex 4.97592 0.490086 5
      vertex 5 0 5
    endloop
  endfacet
  facet normal 0 0 1
    outer loop
      vertex 15 15 5
      vertex 4.90393 0.975451 5
      vertex 4.97592 0.490086 5
    endloop
  endfacet
  facet normal 0 0 1
    outer loop
      vertex 15 15 5
      vertex 4.7847 1.45142 5
      vertex 4.90393 0.975451 5
    endloop
  endfacet
  facet normal 0 0 1
    outer loop
      vertex 15 15 5
      vertex 4.6194 1.91342 5
      vertex 4.7847 1.45142 5
    endloop
  endfacet
  facet normal 0 0 1
    outer loop
      vertex 15 15 5
      vertex 4.40961 2.35698 5
      vertex 4.6194 1.91342 5
    endloop
  endfacet
  facet normal 0 0 1
    outer loop
      vertex 15 15 5
      vertex 4.15735 2.77785 5
      vertex 4.40961 2.35698 5
    endloop
  endfacet
  facet normal 0 0 1
    outer loop
      vertex 15 15 5
      vertex 3.86505 3.17197 5
      vertex 4.15735 2.77785 5
    endloop
  endfacet
  facet normal 0 0 1
    outer loop
      vertex 15 15 5
      vertex 3.53553 3.53553 5
      vertex 3.86505 3.17197 5
    endloop
  endfacet
  facet normal 0 0 1
    outer loop
      vertex 15 15 5
      vertex 3.17197 3.86505 5
      vertex 3.53553 3.53553 5
    endloop
  endfacet
  facet normal 0 0 1
    outer loop
      vertex 15 15 5
      vertex 2.77785 4.15735 5
      vertex 3.17197 3.86505 5
    endloop
  endfacet
  facet normal 0 0 1
    outer loop
      vertex 15 15 5
      vertex 2.35698 4.40961 5
      vertex 2.77785 4.15735 5
    endloop
  endfacet
  facet normal 0 0 1
    outer loop
      vertex 15 15 5
      vertex 1.91342 4.6194 5
      vertex 2.35698 4.40961 5
    endloop
  endfacet
  facet normal 0 0 1
    outer loop
      vertex 15 15 5
      vertex 1.45142 4.7847 5
      vertex 1.91342 4.6194 5
    endloop
  endfacet
  facet normal 0 0 1
    outer loop
      vertex 15 15 5
      vertex 0.975451 4.90393 5
      vertex 1.45142 4.7847 5
    endloop
  endfacet
  facet normal 0 0 1
    outer loop
      vertex 15 15 5
      vertex 0.490086 4.97592 5
      vertex 0.975451 4.90393 5
    endloop
  endfacet
  facet normal 0 0 1
    outer loop
      vertex 15 15 5
      vertex 0 5 5
      vertex 0.490086 4.97592 5
    endloop
  endfacet
  facet normal -0 0 1
    outer loop
      vertex -15 15 5
      vertex 0 5 5
      vertex 15 15 5
    endloop
  endfacet
  facet normal 0 0 1
    outer loop
      vertex 0 5 5
      vertex -15 15 5
      vertex -0.490086 4.97592 5
    endloop
  endfacet
  facet normal 0 0 1
    outer loop
      vertex -0.490086 4.97592 5
      vertex -15 15 5
      vertex -0.975451 4.90393 5
    endloop
  endfacet
  facet normal 0 0 1
    outer loop
      vertex -0.975451 4.90393 5
      vertex -15 15 5
      vertex -1.45142 4.7847 5
    endloop
  endfacet
  facet normal 0 0 1
    outer loop
      vertex -1.45142 4.7847 5
      vertex -15 15 5
      vertex -1.91342 4.6194 5
    endloop
  endfacet
  facet normal 0 0 1
    outer loop
      vertex -1.91342 4.6194 5
      vertex -15 15 5
      vertex -2.35698 4.40961 5
    endloop
  endfacet
  facet normal 0 0 1
    outer loop
      vertex -4.97592 0.490086 5
      vertex -15 15 5
      vertex -5 0 5
    endloop
  endfacet
  facet normal 0 0 1
    outer loop
      vertex -4.90393 0.975451 5
      vertex -15 15 5
      vertex -4.97592 0.490086 5
    endloop
  endfacet
  facet normal 0 0 1
    outer loop
      vertex -4.7847 1.45142 5
      vertex -15 15 5
      vertex -4.90393 0.975451 5
    endloop
  endfacet
  facet normal 0 0 1
    outer loop
      vertex -4.6194 1.91342 5
      vertex -15 15 5
      vertex -4.7847 1.45142 5
    endloop
  endfacet
  facet normal 0 0 1
    outer loop
      vertex -4.40961 2.35698 5
      vertex -15 15 5
      vertex -4.6194 1.91342 5
    endloop
  endfacet
  facet normal 0 0 1
    outer loop
      vertex -4.15735 2.77785 5
      vertex -15 15 5
      vertex -4.40961 2.35698 5
    endloop
  endfacet
  facet normal 0 0 1
    outer loop
      vertex -3.86505 3.17197 5
      vertex -15 15 5
      vertex -4.15735 2.77785 5
    endloop
  endfacet
  facet normal 0 0 1
    outer loop
      vertex -3.53553 3.53553 5
      vertex -15 15 5
      vertex -3.86505 3.17197 5
    endloop
  endfacet
  facet normal 0 0 1
    outer loop
      vertex -3.17197 3.86505 5
      vertex -15 15 5
      vertex -3.53553 3.53553 5
    endloop
  endfacet
  facet normal 0 0 1
    outer loop
      vertex -2.77785 4.15735 5
      vertex -15 15 5
      vertex -3.17197 3.86505 5
    endloop
  endfacet
  facet normal 0 0 1
    outer loop
      vertex -2.35698 4.40961 5
      vertex -15 15 5
      vertex -2.77785 4.15735 5
    endloop
  endfacet
  facet normal -0 0 1
    outer loop
      vertex 4.97592 -0.490086 5
      vertex 15 -15 5
      vertex 5 0 5
    endloop
  endfacet
  facet normal -0 0 1
    outer loop
      vertex 4.90393 -0.975451 5
      vertex 15 -15 5
      vertex 4.97592 -0.490086 5
    endloop
  endfacet
  facet normal -0 0 1
    outer loop
      vertex 4.7847 -1.45142 5
      vertex 15 -15 5
      vertex 4.90393 -0.975451 5
    endloop
  endfacet
  facet normal -0 0 1
    outer loop
      vertex 4.6194 -1.91342 5
      vertex 15 -15 5
      vertex 4.7847 -1.45142 5
    endloop
  endfacet
  facet normal -0 0 1
    outer loop
      vertex 4.40961 -2.35698 5
      vertex 15 -15 5
      vertex 4.6194 -1.91342 5
    endloop
  endfacet
  facet normal -0 0 1
    outer loop
      vertex 4.15735 -2.77785 5
      vertex 15 -15 5
      vertex 4.40961 -2.35698 5
    endloop
  endfacet
  facet normal -0 0 1
    outer loop
      vertex 3.86505 -3.17197 5
      vertex 15 -15 5
      vertex 4.15735 -2.77785 5
    endloop
  endfacet
  facet normal -0 0 1
    outer loop
      vertex 3.53553 -3.53553 5
      vertex 15 -15 5
      vertex 3.86505 -3.17197 5
    endloop
  endfacet
  facet normal -0 0 1
    outer loop
      vertex 3.17197 -3.86505 5
      vertex 15 -15 5
      vertex 3.53553 -3.53553 5
    endloop
  endfacet
  facet normal -0 0 1
    outer loop
      vertex 2.77785 -4.15735 5
      vertex 15 -15 5
      vertex 3.17197 -3.86505 5
    endloop
  endfacet
  facet normal -0 0 1
    outer loop
      vertex 2.35698 -4.40961 5
      vertex 15 -15 5
      vertex 2.77785 -4.15735 5
    endloop
  endfacet
  facet normal -0 0 1
    outer loop
      vertex 1.91342 -4.6194 5
      vertex 15 -15 5
      vertex 2.35698 -4.40961 5
    endloop
  endfacet
  facet normal -0 0 1
    outer loop
      vertex 1.45142 -4.7847 5
      vertex 15 -15 5
      vertex 1.91342 -4.6194 5
    endloop
  endfacet
  facet normal -0 0 1
    outer loop
      vertex 0.975451 -4.90393 5
      vertex 15 -15 5
      vertex 1.45142 -4.7847 5
    endloop
  endfacet
  facet normal -0 0 1
    outer loop
      vertex 0.490086 -4.97592 5
      vertex 15 -15 5
      vertex 0.975451 -4.90393 5
    endloop
  endfacet
  facet normal -0 0 1
    outer loop
      vertex 0 -5 5
      vertex 15 -15 5
      vertex 0.490086 -4.97592 5
    endloop
  endfacet
  facet normal 0 0 1
    outer loop
      vertex -15 -15 5
      vertex 0 -5 5
      vertex -0.490086 -4.97592 5
    endloop
  endfacet
  facet normal 0 0 1
    outer loop
      vertex -15 -15 5
      vertex -0.490086 -4.97592 5
      vertex -0.975451 -4.90393 5
    endloop
  endfacet
  facet normal 0 0 1
    outer loop
      vertex -15 -15 5
      vertex -0.975451 -4.90393 5
      vertex -1.45142 -4.7847 5
    endloop
  endfacet
  facet normal 0 0 1
    outer loop
      vertex -15 -15 5
      vertex -1.45142 -4.7847 5
      vertex -1.91342 -4.6194 5
    endloop
  endfacet
  facet normal 0 0 1
    outer loop
      vertex -15 -15 5
      vertex -1.91342 -4.6194 5
      vertex -2.35698 -4.40961 5
    endloop
  endfacet
  facet normal 0 0 1
    outer loop
      vertex -15 -15 5
      vertex -2.35698 -4.40961 5
      vertex -2.77785 -4.15735 5
    endloop
  endfacet
  facet normal 0 0 1
    outer loop
      vertex -15 -15 5
      vertex -5 0 5
      vertex -15 15 5
    endloop
  endfacet
  facet normal 0 0 1
    outer loop
      vertex -5 0 5
      vertex -15 -15 5
      vertex -4.97592 -0.490086 5
    endloop
  endfacet
  facet normal 0 0 1
    outer loop
      vertex -4.97592 -0.490086 5
      vertex -15 -15 5
      vertex -4.90393 -0.975451 5
    endloop
  endfacet
  facet normal 0 0 1
    outer loop
      vertex -4.90393 -0.975451 5
      vertex -15 -15 5
      vertex -4.7847 -1.45142 5
    endloop
  endfacet
  facet normal 0 0 1
    outer loop
      vertex -4.7847 -1.45142 5
      vertex -15 -15 5
      vertex -4.6194 -1.91342 5
    endloop
  endfacet
  facet normal 0 0 1
    outer loop
      vertex -4.6194 -1.91342 5
      vertex -15 -15 5
      vertex -4.40961 -2.35698 5
    endloop
  endfacet
  facet normal 0 0 1
    outer loop
      vertex 0 -5 5
      vertex -15 -15 5
      vertex 15 -15 5
    endloop
  endfacet
  facet normal 0 0 1
    outer loop
      vertex -3.17197 -3.86505 5
      vertex -15 -15 5
      vertex -2.77785 -4.15735 5
    endloop
  endfacet
  facet normal 0 0 1
    outer loop
      vertex -3.53553 -3.53553 5
      vertex -15 -15 5
      vertex -3.17197 -3.86505 5
    endloop
  endfacet
  facet normal 0 0 1
    outer loop
      vertex -3.86505 -3.17197 5
      vertex -15 -15 5
      vertex -3.53553 -3.53553 5
    endloop
  endfacet
  facet normal 0 0 1
    outer loop
      vertex -4.15735 -2.77785 5
      vertex -15 -15 5
      vertex -3.86505 -3.17197 5
    endloop
  endfacet
  facet normal 0 0 1
    outer loop
      vertex -4.40961 -2.35698 5
      vertex -15 -15 5
      vertex -4.15735 -2.77785 5
    endloop
  endfacet
  facet normal 0 0 -1
    outer loop
      vertex -15 -15 -5
      vertex 15 15 -5
      vertex 15 -15 -5
    endloop
  endfacet
  facet normal -0 0 -1
    outer loop
      vertex 15 15 -5
      vertex -15 -15 -5
      vertex -15 15 -5
    endloop
  endfacet
  facet normal -1 0 0
    outer loop
      vertex -15 -17.2 -1
      vertex -15 -15 0
      vertex -15 -15 -1
    endloop
  endfacet
  facet normal -1 -0 0
    outer loop
      vertex -15 -15 0
      vertex -15 -17.2 -1
      vertex -15 -17.2 0
    endloop
  endfacet
  facet normal -1 0 0
    outer loop
      vertex -15 -15 -1
      vertex -15 15 -5
      vertex -15 -15 -5
    endloop
  endfacet
  facet normal -1 0 0
    outer loop
      vertex -15 -15 0
      vertex -15 15 -5
      vertex -15 -15 -1
    endloop
  endfacet
  facet normal -1 0 0
    outer loop
      vertex -15 15 -5
      vertex -15 -15 0
      vertex -15 15 5
    endloop
  endfacet
  facet normal -1 -0 0
    outer loop
      vertex -15 15 5
      vertex -15 -15 0
      vertex -15 -15 5
    endloop
  endfacet
  facet normal 0 1 -0
    outer loop
      vertex 15 15 -5
      vertex -15 15 5
      vertex 15 15 5
    endloop
  endfacet
  facet normal 0 1 0
    outer loop
      vertex -15 15 5
      vertex 15 15 -5
      vertex -15 15 -5
    endloop
  endfacet
  facet normal 0 -1 0
    outer loop
      vertex -15 -15 -1
      vertex -15 -15 -5
      vertex 0 -15 -1
    endloop
  endfacet
  facet normal 0 -1 0
    outer loop
      vertex 0 -15 0
      vertex -15 -15 5
      vertex -15 -15 0
    endloop
  endfacet
  facet normal 0 -1 0
    outer loop
      vertex -15 -15 5
      vertex 0 -15 0
      vertex 15 -15 5
    endloop
  endfacet
  facet normal 0 -1 0
    outer loop
      vertex 15 -15 -5
      vertex 0 -15 0
      vertex 0 -15 -1
    endloop
  endfacet
  facet normal 0 -1 0
    outer loop
      vertex 0 -15 0
      vertex 15 -15 -5
      vertex 15 -15 5
    endloop
  endfacet
  facet normal 0 -1 0
    outer loop
      vertex 15 -15 -5
      vertex 0 -15 -1
      vertex -15 -15 -5
    endloop
  endfacet
  facet normal -0.146716 -0.989179 0
    outer loop
      vertex 0.490086 4.97592 0
      vertex 0.975451 4.90393 5
      vertex 0.490086 4.97592 5
    endloop
  endfacet
  facet normal -0.146716 -0.989179 -0
    outer loop
      vertex 0.975451 4.90393 5
      vertex 0.490086 4.97592 0
      vertex 0.975451 4.90393 0
    endloop
  endfacet
  facet normal -0.989179 -0.146716 0
    outer loop
      vertex 4.97592 0.490086 0
      vertex 4.90393 0.975451 5
      vertex 4.90393 0.975451 0
    endloop
  endfacet
  facet normal -0.989179 -0.146716 0
    outer loop
      vertex 4.90393 0.975451 5
      vertex 4.97592 0.490086 0
      vertex 4.97592 0.490086 5
    endloop
  endfacet
  facet normal -0.998795 -0.049075 0
    outer loop
      vertex 5 0 0
      vertex 4.97592 0.490086 5
      vertex 4.97592 0.490086 0
    endloop
  endfacet
  facet normal -0.998795 -0.049075 0
    outer loop
      vertex 4.97592 0.490086 5
      vertex 5 0 0
      vertex 5 0 5
    endloop
  endfacet
  facet normal -0.970028 -0.242992 0
    outer loop
      vertex 4.90393 0.975451 0
      vertex 4.7847 1.45142 5
      vertex 4.7847 1.45142 0
    endloop
  endfacet
  facet normal -0.970028 -0.242992 0
    outer loop
      vertex 4.7847 1.45142 5
      vertex 4.90393 0.975451 0
      vertex 4.90393 0.975451 5
    endloop
  endfacet
  facet normal -0.336879 0.941548 0
    outer loop
      vertex 1.91342 -4.6194 0
      vertex 1.45142 -4.7847 5
      vertex 1.91342 -4.6194 5
    endloop
  endfacet
  facet normal -0.336879 0.941548 0
    outer loop
      vertex 1.45142 -4.7847 5
      vertex 1.91342 -4.6194 0
      vertex 1.45142 -4.7847 0
    endloop
  endfacet
  facet normal -0.857728 -0.514103 0
    outer loop
      vertex 4.40961 2.35698 0
      vertex 4.15735 2.77785 5
      vertex 4.15735 2.77785 0
    endloop
  endfacet
  facet normal -0.857728 -0.514103 0
    outer loop
      vertex 4.15735 2.77785 5
      vertex 4.40961 2.35698 0
      vertex 4.40961 2.35698 5
    endloop
  endfacet
  facet normal -0.903988 0.427558 0
    outer loop
      vertex 4.40961 -2.35698 0
      vertex 4.6194 -1.91342 5
      vertex 4.6194 -1.91342 0
    endloop
  endfacet
  facet normal -0.903988 0.427558 0
    outer loop
      vertex 4.6194 -1.91342 5
      vertex 4.40961 -2.35698 0
      vertex 4.40961 -2.35698 5
    endloop
  endfacet
  facet normal -0.336879 -0.941548 0
    outer loop
      vertex 1.45142 4.7847 0
      vertex 1.91342 4.6194 5
      vertex 1.45142 4.7847 5
    endloop
  endfacet
  facet normal -0.336879 -0.941548 -0
    outer loop
      vertex 1.91342 4.6194 5
      vertex 1.45142 4.7847 0
      vertex 1.91342 4.6194 0
    endloop
  endfacet
  facet normal 0.242992 0.970028 -0
    outer loop
      vertex -0.975451 -4.90393 0
      vertex -1.45142 -4.7847 5
      vertex -0.975451 -4.90393 5
    endloop
  endfacet
  facet normal 0.242992 0.970028 0
    outer loop
      vertex -1.45142 -4.7847 5
      vertex -0.975451 -4.90393 0
      vertex -1.45142 -4.7847 0
    endloop
  endfacet
  facet normal 0.427558 0.903988 -0
    outer loop
      vertex -1.91342 -4.6194 0
      vertex -2.35698 -4.40961 5
      vertex -1.91342 -4.6194 5
    endloop
  endfacet
  facet normal 0.427558 0.903988 0
    outer loop
      vertex -2.35698 -4.40961 5
      vertex -1.91342 -4.6194 0
      vertex -2.35698 -4.40961 0
    endloop
  endfacet
  facet normal -0.049075 0.998795 0
    outer loop
      vertex 0.490086 -4.97592 0
      vertex 0 -5 5
      vertex 0.490086 -4.97592 5
    endloop
  endfacet
  facet normal -0.049075 0.998795 0
    outer loop
      vertex 0 -5 5
      vertex 0.490086 -4.97592 0
      vertex 0 -5 0
    endloop
  endfacet
  facet normal -0.427558 -0.903988 0
    outer loop
      vertex 1.91342 4.6194 0
      vertex 2.35698 4.40961 5
      vertex 1.91342 4.6194 5
    endloop
  endfacet
  facet normal -0.427558 -0.903988 -0
    outer loop
      vertex 2.35698 4.40961 5
      vertex 1.91342 4.6194 0
      vertex 2.35698 4.40961 0
    endloop
  endfacet
  facet normal -0.049075 -0.998795 0
    outer loop
      vertex 0 5 0
      vertex 0.490086 4.97592 5
      vertex 0 5 5
    endloop
  endfacet
  facet normal -0.049075 -0.998795 -0
    outer loop
      vertex 0.490086 4.97592 5
      vertex 0 5 0
      vertex 0.490086 4.97592 0
    endloop
  endfacet
  facet normal -0.857728 0.514103 0
    outer loop
      vertex 4.15735 -2.77785 0
      vertex 4.40961 -2.35698 5
      vertex 4.40961 -2.35698 0
    endloop
  endfacet
  facet normal -0.857728 0.514103 0
    outer loop
      vertex 4.40961 -2.35698 5
      vertex 4.15735 -2.77785 0
      vertex 4.15735 -2.77785 5
    endloop
  endfacet
  facet normal -0.671568 -0.740943 0
    outer loop
      vertex 3.17197 3.86505 0
      vertex 3.53553 3.53553 5
      vertex 3.17197 3.86505 5
    endloop
  endfacet
  facet normal -0.671568 -0.740943 -0
    outer loop
      vertex 3.53553 3.53553 5
      vertex 3.17197 3.86505 0
      vertex 3.53553 3.53553 0
    endloop
  endfacet
  facet normal 0.5957 0.803207 -0
    outer loop
      vertex -2.77785 -4.15735 0
      vertex -3.17197 -3.86505 5
      vertex -2.77785 -4.15735 5
    endloop
  endfacet
  facet normal 0.5957 0.803207 0
    outer loop
      vertex -3.17197 -3.86505 5
      vertex -2.77785 -4.15735 0
      vertex -3.17197 -3.86505 0
    endloop
  endfacet
  facet normal 0.857728 -0.514103 0
    outer loop
      vertex -4.40961 2.35698 5
      vertex -4.15735 2.77785 0
      vertex -4.15735 2.77785 5
    endloop
  endfacet
  facet normal 0.857728 -0.514103 0
    outer loop
      vertex -4.15735 2.77785 0
      vertex -4.40961 2.35698 5
      vertex -4.40961 2.35698 0
    endloop
  endfacet
  facet normal -0.242992 0.970028 0
    outer loop
      vertex 1.45142 -4.7847 0
      vertex 0.975451 -4.90393 5
      vertex 1.45142 -4.7847 5
    endloop
  endfacet
  facet normal -0.242992 0.970028 0
    outer loop
      vertex 0.975451 -4.90393 5
      vertex 1.45142 -4.7847 0
      vertex 0.975451 -4.90393 0
    endloop
  endfacet
  facet normal -0.989179 0.146716 0
    outer loop
      vertex 4.90393 -0.975451 0
      vertex 4.97592 -0.490086 5
      vertex 4.97592 -0.490086 0
    endloop
  endfacet
  facet normal -0.989179 0.146716 0
    outer loop
      vertex 4.97592 -0.490086 5
      vertex 4.90393 -0.975451 0
      vertex 4.90393 -0.975451 5
    endloop
  endfacet
  facet normal 0.146716 0.989179 -0
    outer loop
      vertex -0.490086 -4.97592 0
      vertex -0.975451 -4.90393 5
      vertex -0.490086 -4.97592 5
    endloop
  endfacet
  facet normal 0.146716 0.989179 0
    outer loop
      vertex -0.975451 -4.90393 5
      vertex -0.490086 -4.97592 0
      vertex -0.975451 -4.90393 0
    endloop
  endfacet
  facet normal 0.5957 -0.803207 0
    outer loop
      vertex -3.17197 3.86505 0
      vertex -2.77785 4.15735 5
      vertex -3.17197 3.86505 5
    endloop
  endfacet
  facet normal 0.5957 -0.803207 0
    outer loop
      vertex -2.77785 4.15735 5
      vertex -3.17197 3.86505 0
      vertex -2.77785 4.15735 0
    endloop
  endfacet
  facet normal 0.998795 0.049075 0
    outer loop
      vertex -4.97592 -0.490086 5
      vertex -5 0 0
      vertex -5 0 5
    endloop
  endfacet
  facet normal 0.998795 0.049075 0
    outer loop
      vertex -5 0 0
      vertex -4.97592 -0.490086 5
      vertex -4.97592 -0.490086 0
    endloop
  endfacet
  facet normal 0.970028 0.242992 0
    outer loop
      vertex -4.7847 -1.45142 5
      vertex -4.90393 -0.975451 0
      vertex -4.90393 -0.975451 5
    endloop
  endfacet
  facet normal 0.970028 0.242992 0
    outer loop
      vertex -4.90393 -0.975451 0
      vertex -4.7847 -1.45142 5
      vertex -4.7847 -1.45142 0
    endloop
  endfacet
  facet normal -0.970028 0.242992 0
    outer loop
      vertex 4.7847 -1.45142 0
      vertex 4.90393 -0.975451 5
      vertex 4.90393 -0.975451 0
    endloop
  endfacet
  facet normal -0.970028 0.242992 0
    outer loop
      vertex 4.90393 -0.975451 5
      vertex 4.7847 -1.45142 0
      vertex 4.7847 -1.45142 5
    endloop
  endfacet
  facet normal 0.970028 -0.242992 0
    outer loop
      vertex -4.90393 0.975451 5
      vertex -4.7847 1.45142 0
      vertex -4.7847 1.45142 5
    endloop
  endfacet
  facet normal 0.970028 -0.242992 0
    outer loop
      vertex -4.7847 1.45142 0
      vertex -4.90393 0.975451 5
      vertex -4.90393 0.975451 0
    endloop
  endfacet
  facet normal -0.5957 -0.803207 0
    outer loop
      vertex 2.77785 4.15735 0
      vertex 3.17197 3.86505 5
      vertex 2.77785 4.15735 5
    endloop
  endfacet
  facet normal -0.5957 -0.803207 -0
    outer loop
      vertex 3.17197 3.86505 5
      vertex 2.77785 4.15735 0
      vertex 3.17197 3.86505 0
    endloop
  endfacet
  facet normal 0.049075 -0.998795 0
    outer loop
      vertex -0.490086 4.97592 0
      vertex 0 5 5
      vertex -0.490086 4.97592 5
    endloop
  endfacet
  facet normal 0.049075 -0.998795 0
    outer loop
      vertex 0 5 5
      vertex -0.490086 4.97592 0
      vertex 0 5 0
    endloop
  endfacet
  facet normal -0.803207 -0.5957 0
    outer loop
      vertex 4.15735 2.77785 0
      vertex 3.86505 3.17197 5
      vertex 3.86505 3.17197 0
    endloop
  endfacet
  facet normal -0.803207 -0.5957 0
    outer loop
      vertex 3.86505 3.17197 5
      vertex 4.15735 2.77785 0
      vertex 4.15735 2.77785 5
    endloop
  endfacet
  facet normal -0.514103 -0.857728 0
    outer loop
      vertex 2.35698 4.40961 0
      vertex 2.77785 4.15735 5
      vertex 2.35698 4.40961 5
    endloop
  endfacet
  facet normal -0.514103 -0.857728 -0
    outer loop
      vertex 2.77785 4.15735 5
      vertex 2.35698 4.40961 0
      vertex 2.77785 4.15735 0
    endloop
  endfacet
  facet normal -0.427558 0.903988 0
    outer loop
      vertex 2.35698 -4.40961 0
      vertex 1.91342 -4.6194 5
      vertex 2.35698 -4.40961 5
    endloop
  endfacet
  facet normal -0.427558 0.903988 0
    outer loop
      vertex 1.91342 -4.6194 5
      vertex 2.35698 -4.40961 0
      vertex 1.91342 -4.6194 0
    endloop
  endfacet
  facet normal 0.941548 0.336879 0
    outer loop
      vertex -4.6194 -1.91342 5
      vertex -4.7847 -1.45142 0
      vertex -4.7847 -1.45142 5
    endloop
  endfacet
  facet normal 0.941548 0.336879 0
    outer loop
      vertex -4.7847 -1.45142 0
      vertex -4.6194 -1.91342 5
      vertex -4.6194 -1.91342 0
    endloop
  endfacet
  facet normal 0 0 1
    outer loop
      vertex 4.97592 0.490086 0
      vertex 4.97592 -0.490086 0
      vertex 5 0 0
    endloop
  endfacet
  facet normal 0 0 1
    outer loop
      vertex 4.90393 0.975451 0
      vertex 4.97592 -0.490086 0
      vertex 4.97592 0.490086 0
    endloop
  endfacet
  facet normal 0 0 1
    outer loop
      vertex 4.90393 0.975451 0
      vertex 4.90393 -0.975451 0
      vertex 4.97592 -0.490086 0
    endloop
  endfacet
  facet normal 0 0 1
    outer loop
      vertex 4.7847 1.45142 0
      vertex 4.90393 -0.975451 0
      vertex 4.90393 0.975451 0
    endloop
  endfacet
  facet normal 0 0 1
    outer loop
      vertex 4.7847 1.45142 0
      vertex 4.7847 -1.45142 0
      vertex 4.90393 -0.975451 0
    endloop
  endfacet
  facet normal 0 0 1
    outer loop
      vertex 4.6194 1.91342 0
      vertex 4.7847 -1.45142 0
      vertex 4.7847 1.45142 0
    endloop
  endfacet
  facet normal 0 0 1
    outer loop
      vertex 4.6194 1.91342 0
      vertex 4.6194 -1.91342 0
      vertex 4.7847 -1.45142 0
    endloop
  endfacet
  facet normal 0 0 1
    outer loop
      vertex 4.40961 2.35698 0
      vertex 4.6194 -1.91342 0
      vertex 4.6194 1.91342 0
    endloop
  endfacet
  facet normal 0 0 1
    outer loop
      vertex 4.40961 2.35698 0
      vertex 4.40961 -2.35698 0
      vertex 4.6194 -1.91342 0
    endloop
  endfacet
  facet normal 0 0 1
    outer loop
      vertex 4.15735 2.77785 0
      vertex 4.40961 -2.35698 0
      vertex 4.40961 2.35698 0
    endloop
  endfacet
  facet normal 0 0 1
    outer loop
      vertex 4.15735 2.77785 0
      vertex 4.15735 -2.77785 0
      vertex 4.40961 -2.35698 0
    endloop
  endfacet
  facet normal 0 0 1
    outer loop
      vertex 3.86505 3.17197 0
      vertex 4.15735 -2.77785 0
      vertex 4.15735 2.77785 0
    endloop
  endfacet
  facet normal 0 0 1
    outer loop
      vertex 3.86505 3.17197 0
      vertex 3.86505 -3.17197 0
      vertex 4.15735 -2.77785 0
    endloop
  endfacet
  facet normal 0 0 1
    outer loop
      vertex 3.53553 3.53553 0
      vertex 3.86505 -3.17197 0
      vertex 3.86505 3.17197 0
    endloop
  endfacet
  facet normal 0 0 1
    outer loop
      vertex 3.53553 3.53553 0
      vertex 3.53553 -3.53553 0
      vertex 3.86505 -3.17197 0
    endloop
  endfacet
  facet normal 0 0 1
    outer loop
      vertex 3.17197 3.86505 0
      vertex 3.53553 -3.53553 0
      vertex 3.53553 3.53553 0
    endloop
  endfacet
  facet normal 0 0 1
    outer loop
      vertex 3.17197 3.86505 0
      vertex 3.17197 -3.86505 0
      vertex 3.53553 -3.53553 0
    endloop
  endfacet
  facet normal 0 0 1
    outer loop
      vertex 2.77785 4.15735 0
      vertex 3.17197 -3.86505 0
      vertex 3.17197 3.86505 0
    endloop
  endfacet
  facet normal 0 0 1
    outer loop
      vertex 2.77785 4.15735 0
      vertex 2.77785 -4.15735 0
      vertex 3.17197 -3.86505 0
    endloop
  endfacet
  facet normal 0 0 1
    outer loop
      vertex 2.35698 4.40961 0
      vertex 2.77785 -4.15735 0
      vertex 2.77785 4.15735 0
    endloop
  endfacet
  facet normal 0 0 1
    outer loop
      vertex 2.35698 4.40961 0
      vertex 2.35698 -4.40961 0
      vertex 2.77785 -4.15735 0
    endloop
  endfacet
  facet normal 0 0 1
    outer loop
      vertex 1.91342 4.6194 0
      vertex 2.35698 -4.40961 0
      vertex 2.35698 4.40961 0
    endloop
  endfacet
  facet normal 0 0 1
    outer loop
      vertex 1.91342 4.6194 0
      vertex 1.91342 -4.6194 0
      vertex 2.35698 -4.40961 0
    endloop
  endfacet
  facet normal 0 0 1
    outer loop
      vertex 1.45142 4.7847 0
      vertex 1.91342 -4.6194 0
      vertex 1.91342 4.6194 0
    endloop
  endfacet
  facet normal 0 0 1
    outer loop
      vertex 1.45142 4.7847 0
      vertex 1.45142 -4.7847 0
      vertex 1.91342 -4.6194 0
    endloop
  endfacet
  facet normal 0 0 1
    outer loop
      vertex 0.975451 4.90393 0
      vertex 1.45142 -4.7847 0
      vertex 1.45142 4.7847 0
    endloop
  endfacet
  facet normal 0 0 1
    outer loop
      vertex 0.975451 4.90393 0
      vertex 0.975451 -4.90393 0
      vertex 1.45142 -4.7847 0
    endloop
  endfacet
  facet normal 0 0 1
    outer loop
      vertex 0.490086 4.97592 0
      vertex 0.975451 -4.90393 0
      vertex 0.975451 4.90393 0
    endloop
  endfacet
  facet normal 0 0 1
    outer loop
      vertex 0.490086 4.97592 0
      vertex 0.490086 -4.97592 0
      vertex 0.975451 -4.90393 0
    endloop
  endfacet
  facet normal 0 0 1
    outer loop
      vertex 0 5 0
      vertex 0.490086 -4.97592 0
      vertex 0.490086 4.97592 0
    endloop
  endfacet
  facet normal 0 0 1
    outer loop
      vertex 0 5 0
      vertex 0 -5 0
      vertex 0.490086 -4.97592 0
    endloop
  endfacet
  facet normal -0 0 1
    outer loop
      vertex -0.490086 4.97592 0
      vertex 0 -5 0
      vertex 0 5 0
    endloop
  endfacet
  facet normal 0 0 1
    outer loop
      vertex -0.490086 4.97592 0
      vertex -0.490086 -4.97592 0
      vertex 0 -5 0
    endloop
  endfacet
  facet normal -0 0 1
    outer loop
      vertex -0.975451 4.90393 0
      vertex -0.490086 -4.97592 0
      vertex -0.490086 4.97592 0
    endloop
  endfacet
  facet normal 0 0 1
    outer loop
      vertex -0.975451 4.90393 0
      vertex -0.975451 -4.90393 0
      vertex -0.490086 -4.97592 0
    endloop
  endfacet
  facet normal -0 0 1
    outer loop
      vertex -1.45142 4.7847 0
      vertex -0.975451 -4.90393 0
      vertex -0.975451 4.90393 0
    endloop
  endfacet
  facet normal 0 0 1
    outer loop
      vertex -1.45142 4.7847 0
      vertex -1.45142 -4.7847 0
      vertex -0.975451 -4.90393 0
    endloop
  endfacet
  facet normal -0 0 1
    outer loop
      vertex -1.91342 4.6194 0
      vertex -1.45142 -4.7847 0
      vertex -1.45142 4.7847 0
    endloop
  endfacet
  facet normal 0 0 1
    outer loop
      vertex -1.91342 4.6194 0
      vertex -1.91342 -4.6194 0
      vertex -1.45142 -4.7847 0
    endloop
  endfacet
  facet normal -0 0 1
    outer loop
      vertex -2.35698 4.40961 0
      vertex -1.91342 -4.6194 0
      vertex -1.91342 4.6194 0
    endloop
  endfacet
  facet normal 0 0 1
    outer loop
      vertex -2.35698 4.40961 0
      vertex -2.35698 -4.40961 0
      vertex -1.91342 -4.6194 0
    endloop
  endfacet
  facet normal -0 0 1
    outer loop
      vertex -2.77785 4.15735 0
      vertex -2.35698 -4.40961 0
      vertex -2.35698 4.40961 0
    endloop
  endfacet
  facet normal 0 0 1
    outer loop
      vertex -2.77785 4.15735 0
      vertex -2.77785 -4.15735 0
      vertex -2.35698 -4.40961 0
    endloop
  endfacet
  facet normal -0 0 1
    outer loop
      vertex -3.17197 3.86505 0
      vertex -2.77785 -4.15735 0
      vertex -2.77785 4.15735 0
    endloop
  endfacet
  facet normal 0 0 1
    outer loop
      vertex -3.17197 3.86505 0
      vertex -3.17197 -3.86505 0
      vertex -2.77785 -4.15735 0
    endloop
  endfacet
  facet normal -0 0 1
    outer loop
      vertex -3.53553 3.53553 0
      vertex -3.17197 -3.86505 0
      vertex -3.17197 3.86505 0
    endloop
  endfacet
  facet normal 0 0 1
    outer loop
      vertex -3.53553 3.53553 0
      vertex -3.53553 -3.53553 0
      vertex -3.17197 -3.86505 0
    endloop
  endfacet
  facet normal -0 0 1
    outer loop
      vertex -3.86505 3.17197 0
      vertex -3.53553 -3.53553 0
      vertex -3.53553 3.53553 0
    endloop
  endfacet
  facet normal 0 0 1
    outer loop
      vertex -3.86505 3.17197 0
      vertex -3.86505 -3.17197 0
      vertex -3.53553 -3.53553 0
    endloop
  endfacet
  facet normal -0 0 1
    outer loop
      vertex -4.15735 2.77785 0
      vertex -3.86505 -3.17197 0
      vertex -3.86505 3.17197 0
    endloop
  endfacet
  facet normal 0 0 1
    outer loop
      vertex -4.15735 2.77785 0
      vertex -4.15735 -2.77785 0
      vertex -3.86505 -3.17197 0
    endloop
  endfacet
  facet normal -0 0 1
    outer loop
      vertex -4.40961 2.35698 0
      vertex -4.15735 -2.77785 0
      vertex -4.15735 2.77785 0
    endloop
  endfacet
  facet normal 0 0 1
    outer loop
      vertex -4.40961 2.35698 0
      vertex -4.40961 -2.35698 0
      vertex -4.15735 -2.77785 0
    endloop
  endfacet
  facet normal -0 0 1
    outer loop
      vertex -4.6194 1.91342 0
      vertex -4.40961 -2.35698 0
      vertex -4.40961 2.35698 0
    endloop
  endfacet
  facet normal 0 0 1
    outer loop
      vertex -4.6194 1.91342 0
      vertex -4.6194 -1.91342 0
      vertex -4.40961 -2.35698 0
    endloop
  endfacet
  facet normal -0 0 1
    outer loop
      vertex -4.7847 1.45142 0
      vertex -4.6194 -1.91342 0
      vertex -4.6194 1.91342 0
    endloop
  endfacet
  facet normal 0 0 1
    outer loop
      vertex -4.7847 1.45142 0
      vertex -4.7847 -1.45142 0
      vertex -4.6194 -1.91342 0
    endloop
  endfacet
  facet normal -0 0 1
    outer loop
      vertex -4.90393 0.975451 0
      vertex -4.7847 -1.45142 0
      vertex -4.7847 1.45142 0
    endloop
  endfacet
  facet normal 0 0 1
    outer loop
      vertex -4.90393 0.975451 0
      vertex -4.90393 -0.975451 0
      vertex -4.7847 -1.45142 0
    endloop
  endfacet
  facet normal -0 0 1
    outer loop
      vertex -4.97592 0.490086 0
      vertex -4.90393 -0.975451 0
      vertex -4.90393 0.975451 0
    endloop
  endfacet
  facet normal 0 0 1
    outer loop
      vertex -4.97592 0.490086 0
      vertex -4.97592 -0.490086 0
      vertex -4.90393 -0.975451 0
    endloop
  endfacet
  facet normal 0 -0 1
    outer loop
      vertex -4.97592 -0.490086 0
      vertex -4.97592 0.490086 0
      vertex -5 0 0
    endloop
  endfacet
  facet normal -0.242992 -0.970028 0
    outer loop
      vertex 0.975451 4.90393 0
      vertex 1.45142 4.7847 5
      vertex 0.975451 4.90393 5
    endloop
  endfacet
  facet normal -0.242992 -0.970028 -0
    outer loop
      vertex 1.45142 4.7847 5
      vertex 0.975451 4.90393 0
      vertex 1.45142 4.7847 0
    endloop
  endfacet
  facet normal 0.740943 -0.671568 0
    outer loop
      vertex -3.86505 3.17197 5
      vertex -3.53553 3.53553 0
      vertex -3.53553 3.53553 5
    endloop
  endfacet
  facet normal 0.740943 -0.671568 0
    outer loop
      vertex -3.53553 3.53553 0
      vertex -3.86505 3.17197 5
      vertex -3.86505 3.17197 0
    endloop
  endfacet
  facet normal -0.998795 0.049075 0
    outer loop
      vertex 4.97592 -0.490086 0
      vertex 5 0 5
      vertex 5 0 0
    endloop
  endfacet
  facet normal -0.998795 0.049075 0
    outer loop
      vertex 5 0 5
      vertex 4.97592 -0.490086 0
      vertex 4.97592 -0.490086 5
    endloop
  endfacet
  facet normal 0.146716 -0.989179 0
    outer loop
      vertex -0.975451 4.90393 0
      vertex -0.490086 4.97592 5
      vertex -0.975451 4.90393 5
    endloop
  endfacet
  facet normal 0.146716 -0.989179 0
    outer loop
      vertex -0.490086 4.97592 5
      vertex -0.975451 4.90393 0
      vertex -0.490086 4.97592 0
    endloop
  endfacet
  facet normal 0.427558 -0.903988 0
    outer loop
      vertex -2.35698 4.40961 0
      vertex -1.91342 4.6194 5
      vertex -2.35698 4.40961 5
    endloop
  endfacet
  facet normal 0.427558 -0.903988 0
    outer loop
      vertex -1.91342 4.6194 5
      vertex -2.35698 4.40961 0
      vertex -1.91342 4.6194 0
    endloop
  endfacet
  facet normal 0.989179 -0.146716 0
    outer loop
      vertex -4.97592 0.490086 5
      vertex -4.90393 0.975451 0
      vertex -4.90393 0.975451 5
    endloop
  endfacet
  facet normal 0.989179 -0.146716 0
    outer loop
      vertex -4.90393 0.975451 0
      vertex -4.97592 0.490086 5
      vertex -4.97592 0.490086 0
    endloop
  endfacet
  facet normal -0.146716 0.989179 0
    outer loop
      vertex 0.975451 -4.90393 0
      vertex 0.490086 -4.97592 5
      vertex 0.975451 -4.90393 5
    endloop
  endfacet
  facet normal -0.146716 0.989179 0
    outer loop
      vertex 0.490086 -4.97592 5
      vertex 0.975451 -4.90393 0
      vertex 0.490086 -4.97592 0
    endloop
  endfacet
  facet normal -0.941548 -0.336879 0
    outer loop
      vertex 4.7847 1.45142 0
      vertex 4.6194 1.91342 5
      vertex 4.6194 1.91342 0
    endloop
  endfacet
  facet normal -0.941548 -0.336879 0
    outer loop
      vertex 4.6194 1.91342 5
      vertex 4.7847 1.45142 0
      vertex 4.7847 1.45142 5
    endloop
  endfacet
  facet normal -0.740943 0.671568 0
    outer loop
      vertex 3.53553 -3.53553 0
      vertex 3.86505 -3.17197 5
      vertex 3.86505 -3.17197 0
    endloop
  endfacet
  facet normal -0.740943 0.671568 0
    outer loop
      vertex 3.86505 -3.17197 5
      vertex 3.53553 -3.53553 0
      vertex 3.53553 -3.53553 5
    endloop
  endfacet
  facet normal -0.803207 0.5957 0
    outer loop
      vertex 3.86505 -3.17197 0
      vertex 4.15735 -2.77785 5
      vertex 4.15735 -2.77785 0
    endloop
  endfacet
  facet normal -0.803207 0.5957 0
    outer loop
      vertex 4.15735 -2.77785 5
      vertex 3.86505 -3.17197 0
      vertex 3.86505 -3.17197 5
    endloop
  endfacet
  facet normal -0.941548 0.336879 0
    outer loop
      vertex 4.6194 -1.91342 0
      vertex 4.7847 -1.45142 5
      vertex 4.7847 -1.45142 0
    endloop
  endfacet
  facet normal -0.941548 0.336879 0
    outer loop
      vertex 4.7847 -1.45142 5
      vertex 4.6194 -1.91342 0
      vertex 4.6194 -1.91342 5
    endloop
  endfacet
  facet normal 0.242992 -0.970028 0
    outer loop
      vertex -1.45142 4.7847 0
      vertex -0.975451 4.90393 5
      vertex -1.45142 4.7847 5
    endloop
  endfacet
  facet normal 0.242992 -0.970028 0
    outer loop
      vertex -0.975451 4.90393 5
      vertex -1.45142 4.7847 0
      vertex -0.975451 4.90393 0
    endloop
  endfacet
  facet normal 0.903988 0.427558 0
    outer loop
      vertex -4.40961 -2.35698 5
      vertex -4.6194 -1.91342 0
      vertex -4.6194 -1.91342 5
    endloop
  endfacet
  facet normal 0.903988 0.427558 0
    outer loop
      vertex -4.6194 -1.91342 0
      vertex -4.40961 -2.35698 5
      vertex -4.40961 -2.35698 0
    endloop
  endfacet
  facet normal -0.903988 -0.427558 0
    outer loop
      vertex 4.6194 1.91342 0
      vertex 4.40961 2.35698 5
      vertex 4.40961 2.35698 0
    endloop
  endfacet
  facet normal -0.903988 -0.427558 0
    outer loop
      vertex 4.40961 2.35698 5
      vertex 4.6194 1.91342 0
      vertex 4.6194 1.91342 5
    endloop
  endfacet
  facet normal 0.671568 -0.740943 0
    outer loop
      vertex -3.53553 3.53553 0
      vertex -3.17197 3.86505 5
      vertex -3.53553 3.53553 5
    endloop
  endfacet
  facet normal 0.671568 -0.740943 0
    outer loop
      vertex -3.17197 3.86505 5
      vertex -3.53553 3.53553 0
      vertex -3.17197 3.86505 0
    endloop
  endfacet
  facet normal 0.740943 0.671568 0
    outer loop
      vertex -3.53553 -3.53553 5
      vertex -3.86505 -3.17197 0
      vertex -3.86505 -3.17197 5
    endloop
  endfacet
  facet normal 0.740943 0.671568 0
    outer loop
      vertex -3.86505 -3.17197 0
      vertex -3.53553 -3.53553 5
      vertex -3.53553 -3.53553 0
    endloop
  endfacet
  facet normal 0.857728 0.514103 0
    outer loop
      vertex -4.15735 -2.77785 5
      vertex -4.40961 -2.35698 0
      vertex -4.40961 -2.35698 5
    endloop
  endfacet
  facet normal 0.857728 0.514103 0
    outer loop
      vertex -4.40961 -2.35698 0
      vertex -4.15735 -2.77785 5
      vertex -4.15735 -2.77785 0
    endloop
  endfacet
  facet normal 0.336879 -0.941548 0
    outer loop
      vertex -1.91342 4.6194 0
      vertex -1.45142 4.7847 5
      vertex -1.91342 4.6194 5
    endloop
  endfacet
  facet normal 0.336879 -0.941548 0
    outer loop
      vertex -1.45142 4.7847 5
      vertex -1.91342 4.6194 0
      vertex -1.45142 4.7847 0
    endloop
  endfacet
  facet normal 0.514103 0.857728 -0
    outer loop
      vertex -2.35698 -4.40961 0
      vertex -2.77785 -4.15735 5
      vertex -2.35698 -4.40961 5
    endloop
  endfacet
  facet normal 0.514103 0.857728 0
    outer loop
      vertex -2.77785 -4.15735 5
      vertex -2.35698 -4.40961 0
      vertex -2.77785 -4.15735 0
    endloop
  endfacet
  facet normal 0.941548 -0.336879 0
    outer loop
      vertex -4.7847 1.45142 5
      vertex -4.6194 1.91342 0
      vertex -4.6194 1.91342 5
    endloop
  endfacet
  facet normal 0.941548 -0.336879 0
    outer loop
      vertex -4.6194 1.91342 0
      vertex -4.7847 1.45142 5
      vertex -4.7847 1.45142 0
    endloop
  endfacet
  facet normal -0.5957 0.803207 0
    outer loop
      vertex 3.17197 -3.86505 0
      vertex 2.77785 -4.15735 5
      vertex 3.17197 -3.86505 5
    endloop
  endfacet
  facet normal -0.5957 0.803207 0
    outer loop
      vertex 2.77785 -4.15735 5
      vertex 3.17197 -3.86505 0
      vertex 2.77785 -4.15735 0
    endloop
  endfacet
  facet normal -0.740943 -0.671568 0
    outer loop
      vertex 3.86505 3.17197 0
      vertex 3.53553 3.53553 5
      vertex 3.53553 3.53553 0
    endloop
  endfacet
  facet normal -0.740943 -0.671568 0
    outer loop
      vertex 3.53553 3.53553 5
      vertex 3.86505 3.17197 0
      vertex 3.86505 3.17197 5
    endloop
  endfacet
  facet normal 0.803207 0.5957 0
    outer loop
      vertex -3.86505 -3.17197 5
      vertex -4.15735 -2.77785 0
      vertex -4.15735 -2.77785 5
    endloop
  endfacet
  facet normal 0.803207 0.5957 0
    outer loop
      vertex -4.15735 -2.77785 0
      vertex -3.86505 -3.17197 5
      vertex -3.86505 -3.17197 0
    endloop
  endfacet
  facet normal 0.514103 -0.857728 0
    outer loop
      vertex -2.77785 4.15735 0
      vertex -2.35698 4.40961 5
      vertex -2.77785 4.15735 5
    endloop
  endfacet
  facet normal 0.514103 -0.857728 0
    outer loop
      vertex -2.35698 4.40961 5
      vertex -2.77785 4.15735 0
      vertex -2.35698 4.40961 0
    endloop
  endfacet
  facet normal 0.989179 0.146716 0
    outer loop
      vertex -4.90393 -0.975451 5
      vertex -4.97592 -0.490086 0
      vertex -4.97592 -0.490086 5
    endloop
  endfacet
  facet normal 0.989179 0.146716 0
    outer loop
      vertex -4.97592 -0.490086 0
      vertex -4.90393 -0.975451 5
      vertex -4.90393 -0.975451 0
    endloop
  endfacet
  facet normal 0.903988 -0.427558 0
    outer loop
      vertex -4.6194 1.91342 5
      vertex -4.40961 2.35698 0
      vertex -4.40961 2.35698 5
    endloop
  endfacet
  facet normal 0.903988 -0.427558 0
    outer loop
      vertex -4.40961 2.35698 0
      vertex -4.6194 1.91342 5
      vertex -4.6194 1.91342 0
    endloop
  endfacet
  facet normal -0.514103 0.857728 0
    outer loop
      vertex 2.77785 -4.15735 0
      vertex 2.35698 -4.40961 5
      vertex 2.77785 -4.15735 5
    endloop
  endfacet
  facet normal -0.514103 0.857728 0
    outer loop
      vertex 2.35698 -4.40961 5
      vertex 2.77785 -4.15735 0
      vertex 2.35698 -4.40961 0
    endloop
  endfacet
  facet normal 0.671568 0.740943 -0
    outer loop
      vertex -3.17197 -3.86505 0
      vertex -3.53553 -3.53553 5
      vertex -3.17197 -3.86505 5
    endloop
  endfacet
  facet normal 0.671568 0.740943 0
    outer loop
      vertex -3.53553 -3.53553 5
      vertex -3.17197 -3.86505 0
      vertex -3.53553 -3.53553 0
    endloop
  endfacet
  facet normal 0.803207 -0.5957 0
    outer loop
      vertex -4.15735 2.77785 5
      vertex -3.86505 3.17197 0
      vertex -3.86505 3.17197 5
    endloop
  endfacet
  facet normal 0.803207 -0.5957 0
    outer loop
      vertex -3.86505 3.17197 0
      vertex -4.15735 2.77785 5
      vertex -4.15735 2.77785 0
    endloop
  endfacet
  facet normal 0.049075 0.998795 -0
    outer loop
      vertex 0 -5 0
      vertex -0.490086 -4.97592 5
      vertex 0 -5 5
    endloop
  endfacet
  facet normal 0.049075 0.998795 0
    outer loop
      vertex -0.490086 -4.97592 5
      vertex 0 -5 0
      vertex -0.490086 -4.97592 0
    endloop
  endfacet
  facet normal 0.998795 -0.049075 0
    outer loop
      vertex -5 0 5
      vertex -4.97592 0.490086 0
      vertex -4.97592 0.490086 5
    endloop
  endfacet
  facet normal 0.998795 -0.049075 0
    outer loop
      vertex -4.97592 0.490086 0
      vertex -5 0 5
      vertex -5 0 0
    endloop
  endfacet
  facet normal 0.336879 0.941548 -0
    outer loop
      vertex -1.45142 -4.7847 0
      vertex -1.91342 -4.6194 5
      vertex -1.45142 -4.7847 5
    endloop
  endfacet
  facet normal 0.336879 0.941548 0
    outer loop
      vertex -1.91342 -4.6194 5
      vertex -1.45142 -4.7847 0
      vertex -1.91342 -4.6194 0
    endloop
  endfacet
  facet normal -0.671568 0.740943 0
    outer loop
      vertex 3.53553 -3.53553 0
      vertex 3.17197 -3.86505 5
      vertex 3.53553 -3.53553 5
    endloop
  endfacet
  facet normal -0.671568 0.740943 0
    outer loop
      vertex 3.17197 -3.86505 5
      vertex 3.53553 -3.53553 0
      vertex 3.17197 -3.86505 0
    endloop
  endfacet
  facet normal 1 -0 0
    outer loop
      vertex 0 -17.2 0
      vertex 0 -15 -1
      vertex 0 -15 0
    endloop
  endfacet
  facet normal 1 0 0
    outer loop
      vertex 0 -15 -1
      vertex 0 -17.2 0
      vertex 0 -17.2 -1
    endloop
  endfacet
  facet normal -0 0 1
    outer loop
      vertex -15 -15 0
      vertex 0 -17.2 0
      vertex 0 -15 0
    endloop
  endfacet
  facet normal 0 0 1
    outer loop
      vertex 0 -17.2 0
      vertex -15 -15 0
      vertex -15 -17.2 0
    endloop
  endfacet
  facet normal 0 0 -1
    outer loop
      vertex -15 -17.2 -1
      vertex 0 -15 -1
      vertex 0 -17.2 -1
    endloop
  endfacet
  facet normal -0 0 -1
    outer loop
      vertex 0 -15 -1
      vertex -15 -17.2 -1
      vertex -15 -15 -1
    endloop
  endfacet
  facet normal 0 -1 0
    outer loop
      vertex -15 -17.2 -1
      vertex 0 -17.2 0
      vertex -15 -17.2 0
    endloop
  endfacet
  facet normal 0 -1 -0
    outer loop
      vertex 0 -17.2 0
      vertex -15 -17.2 -1
      vertex 0 -17.2 -1
    endloop
  endfacet
endsolid OpenSCAD_Model
