solid OpenSCAD_Model
  facet normal 0.989176 0.146736 0
    outer loop
      vertex 3.15971 0.311204 6.35
      vertex 3.11399 0.619411 0
      vertex 3.11399 0.619411 6.35
    endloop
  endfacet
  facet normal 0.989176 0.146736 0
    outer loop
      vertex 3.11399 0.619411 0
      vertex 3.15971 0.311204 6.35
      vertex 3.15971 0.311204 0
    endloop
  endfacet
  facet normal 0.998795 0.0490726 0
    outer loop
      vertex 3.175 0 6.35
      vertex 3.15971 0.311204 0
      vertex 3.15971 0.311204 6.35
    endloop
  endfacet
  facet normal 0.998795 0.0490726 0
    outer loop
      vertex 3.15971 0.311204 0
      vertex 3.175 0 6.35
      vertex 3.175 0 0
    endloop
  endfacet
  facet normal 0.970037 0.242956 0
    outer loop
      vertex 3.11399 0.619411 6.35
      vertex 3.03829 0.921654 0
      vertex 3.03829 0.921654 6.35
    endloop
  endfacet
  facet normal 0.970037 0.242956 0
    outer loop
      vertex 3.03829 0.921654 0
      vertex 3.11399 0.619411 6.35
      vertex 3.11399 0.619411 0
    endloop
  endfacet
  facet normal 0.803201 -0.595709 0
    outer loop
      vertex 2.45431 -2.0142 6.35
      vertex 2.63992 -1.76394 0
      vertex 2.63992 -1.76394 6.35
    endloop
  endfacet
  facet normal 0.803201 -0.595709 0
    outer loop
      vertex 2.63992 -1.76394 0
      vertex 2.45431 -2.0142 6.35
      vertex 2.45431 -2.0142 0
    endloop
  endfacet
  facet normal 0.0490726 -0.998795 0
    outer loop
      vertex 0 -3.175 0
      vertex 0.311204 -3.15971 6.35
      vertex 0 -3.175 6.35
    endloop
  endfacet
  facet normal 0.0490726 -0.998795 0
    outer loop
      vertex 0.311204 -3.15971 6.35
      vertex 0 -3.175 0
      vertex 0.311204 -3.15971 0
    endloop
  endfacet
  facet normal 0.51408 -0.857742 0
    outer loop
      vertex 1.49668 -2.8001 0
      vertex 1.76394 -2.63992 6.35
      vertex 1.49668 -2.8001 6.35
    endloop
  endfacet
  facet normal 0.51408 -0.857742 0
    outer loop
      vertex 1.76394 -2.63992 6.35
      vertex 1.49668 -2.8001 0
      vertex 1.76394 -2.63992 0
    endloop
  endfacet
  facet normal -0.427568 0.903983 0
    outer loop
      vertex -1.21502 2.93332 0
      vertex -1.49668 2.8001 6.35
      vertex -1.21502 2.93332 6.35
    endloop
  endfacet
  facet normal -0.427568 0.903983 0
    outer loop
      vertex -1.49668 2.8001 6.35
      vertex -1.21502 2.93332 0
      vertex -1.49668 2.8001 0
    endloop
  endfacet
  facet normal 0.51408 0.857742 -0
    outer loop
      vertex 1.76394 2.63992 0
      vertex 1.49668 2.8001 6.35
      vertex 1.76394 2.63992 6.35
    endloop
  endfacet
  facet normal 0.51408 0.857742 0
    outer loop
      vertex 1.49668 2.8001 6.35
      vertex 1.76394 2.63992 0
      vertex 1.49668 2.8001 0
    endloop
  endfacet
  facet normal -0.857742 -0.51408 0
    outer loop
      vertex -2.63992 -1.76394 0
      vertex -2.8001 -1.49668 6.35
      vertex -2.8001 -1.49668 0
    endloop
  endfacet
  facet normal -0.857742 -0.51408 0
    outer loop
      vertex -2.8001 -1.49668 6.35
      vertex -2.63992 -1.76394 0
      vertex -2.63992 -1.76394 6.35
    endloop
  endfacet
  facet normal -0.803201 -0.595709 0
    outer loop
      vertex -2.45431 -2.0142 0
      vertex -2.63992 -1.76394 6.35
      vertex -2.63992 -1.76394 0
    endloop
  endfacet
  facet normal -0.803201 -0.595709 0
    outer loop
      vertex -2.63992 -1.76394 6.35
      vertex -2.45431 -2.0142 0
      vertex -2.45431 -2.0142 6.35
    endloop
  endfacet
  facet normal 0.941542 0.336895 0
    outer loop
      vertex 3.03829 0.921654 6.35
      vertex 2.93332 1.21502 0
      vertex 2.93332 1.21502 6.35
    endloop
  endfacet
  facet normal 0.941542 0.336895 0
    outer loop
      vertex 2.93332 1.21502 0
      vertex 3.03829 0.921654 6.35
      vertex 3.03829 0.921654 0
    endloop
  endfacet
  facet normal 0.941542 -0.336895 0
    outer loop
      vertex 2.93332 -1.21502 6.35
      vertex 3.03829 -0.921654 0
      vertex 3.03829 -0.921654 6.35
    endloop
  endfacet
  facet normal 0.941542 -0.336895 0
    outer loop
      vertex 3.03829 -0.921654 0
      vertex 2.93332 -1.21502 6.35
      vertex 2.93332 -1.21502 0
    endloop
  endfacet
  facet normal -0.0490726 -0.998795 0
    outer loop
      vertex -0.311204 -3.15971 0
      vertex 0 -3.175 6.35
      vertex -0.311204 -3.15971 6.35
    endloop
  endfacet
  facet normal -0.0490726 -0.998795 -0
    outer loop
      vertex 0 -3.175 6.35
      vertex -0.311204 -3.15971 0
      vertex 0 -3.175 0
    endloop
  endfacet
  facet normal 0.998795 -0.0490726 0
    outer loop
      vertex 3.15971 -0.311204 6.35
      vertex 3.175 0 0
      vertex 3.175 0 6.35
    endloop
  endfacet
  facet normal 0.998795 -0.0490726 0
    outer loop
      vertex 3.175 0 0
      vertex 3.15971 -0.311204 6.35
      vertex 3.15971 -0.311204 0
    endloop
  endfacet
  facet normal -0.989176 -0.146736 0
    outer loop
      vertex -3.11399 -0.619411 0
      vertex -3.15971 -0.311204 6.35
      vertex -3.15971 -0.311204 0
    endloop
  endfacet
  facet normal -0.989176 -0.146736 0
    outer loop
      vertex -3.15971 -0.311204 6.35
      vertex -3.11399 -0.619411 0
      vertex -3.11399 -0.619411 6.35
    endloop
  endfacet
  facet normal -0.903983 0.427568 0
    outer loop
      vertex -2.93332 1.21502 0
      vertex -2.8001 1.49668 6.35
      vertex -2.8001 1.49668 0
    endloop
  endfacet
  facet normal -0.903983 0.427568 0
    outer loop
      vertex -2.8001 1.49668 6.35
      vertex -2.93332 1.21502 0
      vertex -2.93332 1.21502 6.35
    endloop
  endfacet
  facet normal -0.671578 -0.740934 0
    outer loop
      vertex -2.24506 -2.24506 0
      vertex -2.0142 -2.45431 6.35
      vertex -2.24506 -2.24506 6.35
    endloop
  endfacet
  facet normal -0.671578 -0.740934 -0
    outer loop
      vertex -2.0142 -2.45431 6.35
      vertex -2.24506 -2.24506 0
      vertex -2.0142 -2.45431 0
    endloop
  endfacet
  facet normal -0.595709 0.803201 0
    outer loop
      vertex -1.76394 2.63992 0
      vertex -2.0142 2.45431 6.35
      vertex -1.76394 2.63992 6.35
    endloop
  endfacet
  facet normal -0.595709 0.803201 0
    outer loop
      vertex -2.0142 2.45431 6.35
      vertex -1.76394 2.63992 0
      vertex -2.0142 2.45431 0
    endloop
  endfacet
  facet normal 0.595709 0.803201 -0
    outer loop
      vertex 2.0142 2.45431 0
      vertex 1.76394 2.63992 6.35
      vertex 2.0142 2.45431 6.35
    endloop
  endfacet
  facet normal 0.595709 0.803201 0
    outer loop
      vertex 1.76394 2.63992 6.35
      vertex 2.0142 2.45431 0
      vertex 1.76394 2.63992 0
    endloop
  endfacet
  facet normal 0.740934 -0.671578 0
    outer loop
      vertex 2.24506 -2.24506 6.35
      vertex 2.45431 -2.0142 0
      vertex 2.45431 -2.0142 6.35
    endloop
  endfacet
  facet normal 0.740934 -0.671578 0
    outer loop
      vertex 2.45431 -2.0142 0
      vertex 2.24506 -2.24506 6.35
      vertex 2.24506 -2.24506 0
    endloop
  endfacet
  facet normal -0.941542 -0.336895 0
    outer loop
      vertex -2.93332 -1.21502 0
      vertex -3.03829 -0.921654 6.35
      vertex -3.03829 -0.921654 0
    endloop
  endfacet
  facet normal -0.941542 -0.336895 0
    outer loop
      vertex -3.03829 -0.921654 6.35
      vertex -2.93332 -1.21502 0
      vertex -2.93332 -1.21502 6.35
    endloop
  endfacet
  facet normal 0.989176 -0.146736 0
    outer loop
      vertex 3.11399 -0.619411 6.35
      vertex 3.15971 -0.311204 0
      vertex 3.15971 -0.311204 6.35
    endloop
  endfacet
  facet normal 0.989176 -0.146736 0
    outer loop
      vertex 3.15971 -0.311204 0
      vertex 3.11399 -0.619411 6.35
      vertex 3.11399 -0.619411 0
    endloop
  endfacet
  facet normal -0.336895 -0.941542 0
    outer loop
      vertex -1.21502 -2.93332 0
      vertex -0.921654 -3.03829 6.35
      vertex -1.21502 -2.93332 6.35
    endloop
  endfacet
  facet normal -0.336895 -0.941542 -0
    outer loop
      vertex -0.921654 -3.03829 6.35
      vertex -1.21502 -2.93332 0
      vertex -0.921654 -3.03829 0
    endloop
  endfacet
  facet normal 0.970037 -0.242956 0
    outer loop
      vertex 3.03829 -0.921654 6.35
      vertex 3.11399 -0.619411 0
      vertex 3.11399 -0.619411 6.35
    endloop
  endfacet
  facet normal 0.970037 -0.242956 0
    outer loop
      vertex 3.11399 -0.619411 0
      vertex 3.03829 -0.921654 6.35
      vertex 3.03829 -0.921654 0
    endloop
  endfacet
  facet normal 0 0 1
    outer loop
      vertex 1.5875 0 6.35
      vertex 3.175 0 6.35
      vertex 3.15971 0.311204 6.35
    endloop
  endfacet
  facet normal 0 0 1
    outer loop
      vertex 1.57985 0.155602 6.35
      vertex 3.15971 0.311204 6.35
      vertex 3.11399 0.619411 6.35
    endloop
  endfacet
  facet normal 0 0 1
    outer loop
      vertex 3.175 0 6.35
      vertex 1.5875 0 6.35
      vertex 3.15971 -0.311204 6.35
    endloop
  endfacet
  facet normal 0 0 1
    outer loop
      vertex 1.557 0.309706 6.35
      vertex 3.11399 0.619411 6.35
      vertex 3.03829 0.921654 6.35
    endloop
  endfacet
  facet normal -0 0 1
    outer loop
      vertex 1.57985 -0.155602 6.35
      vertex 3.15971 -0.311204 6.35
      vertex 1.5875 0 6.35
    endloop
  endfacet
  facet normal 0 0 1
    outer loop
      vertex 1.51914 0.460827 6.35
      vertex 3.03829 0.921654 6.35
      vertex 2.93332 1.21502 6.35
    endloop
  endfacet
  facet normal 0 0 1
    outer loop
      vertex 3.15971 -0.311204 6.35
      vertex 1.57985 -0.155602 6.35
      vertex 3.11399 -0.619411 6.35
    endloop
  endfacet
  facet normal 0 0 1
    outer loop
      vertex 1.46666 0.60751 6.35
      vertex 2.93332 1.21502 6.35
      vertex 2.8001 1.49668 6.35
    endloop
  endfacet
  facet normal -0 0 1
    outer loop
      vertex 1.557 -0.309706 6.35
      vertex 3.11399 -0.619411 6.35
      vertex 1.57985 -0.155602 6.35
    endloop
  endfacet
  facet normal 0 0 1
    outer loop
      vertex 1.40005 0.748342 6.35
      vertex 2.8001 1.49668 6.35
      vertex 2.63992 1.76394 6.35
    endloop
  endfacet
  facet normal 0 0 1
    outer loop
      vertex 3.11399 -0.619411 6.35
      vertex 1.557 -0.309706 6.35
      vertex 3.03829 -0.921654 6.35
    endloop
  endfacet
  facet normal 0 0 1
    outer loop
      vertex 1.31996 0.881968 6.35
      vertex 2.63992 1.76394 6.35
      vertex 2.45431 2.0142 6.35
    endloop
  endfacet
  facet normal -0 0 1
    outer loop
      vertex 1.51914 -0.460827 6.35
      vertex 3.03829 -0.921654 6.35
      vertex 1.557 -0.309706 6.35
    endloop
  endfacet
  facet normal 0 0 1
    outer loop
      vertex 1.22715 1.0071 6.35
      vertex 2.45431 2.0142 6.35
      vertex 2.24506 2.24506 6.35
    endloop
  endfacet
  facet normal 0 0 1
    outer loop
      vertex 3.03829 -0.921654 6.35
      vertex 1.51914 -0.460827 6.35
      vertex 2.93332 -1.21502 6.35
    endloop
  endfacet
  facet normal 0 0 1
    outer loop
      vertex 1.12253 1.12253 6.35
      vertex 2.24506 2.24506 6.35
      vertex 2.0142 2.45431 6.35
    endloop
  endfacet
  facet normal -0 0 1
    outer loop
      vertex 1.46666 -0.60751 6.35
      vertex 2.93332 -1.21502 6.35
      vertex 1.51914 -0.460827 6.35
    endloop
  endfacet
  facet normal 0 0 1
    outer loop
      vertex 1.0071 1.22715 6.35
      vertex 2.0142 2.45431 6.35
      vertex 1.76394 2.63992 6.35
    endloop
  endfacet
  facet normal 0 0 1
    outer loop
      vertex 2.93332 -1.21502 6.35
      vertex 1.46666 -0.60751 6.35
      vertex 2.8001 -1.49668 6.35
    endloop
  endfacet
  facet normal -0 0 1
    outer loop
      vertex 1.40005 -0.748342 6.35
      vertex 2.8001 -1.49668 6.35
      vertex 1.46666 -0.60751 6.35
    endloop
  endfacet
  facet normal 0 0 1
    outer loop
      vertex 3.15971 0.311204 6.35
      vertex 1.57985 0.155602 6.35
      vertex 1.5875 0 6.35
    endloop
  endfacet
  facet normal 0 0 1
    outer loop
      vertex 3.11399 0.619411 6.35
      vertex 1.557 0.309706 6.35
      vertex 1.57985 0.155602 6.35
    endloop
  endfacet
  facet normal 0 0 1
    outer loop
      vertex 3.03829 0.921654 6.35
      vertex 1.51914 0.460827 6.35
      vertex 1.557 0.309706 6.35
    endloop
  endfacet
  facet normal 0 0 1
    outer loop
      vertex 0.881968 1.31996 6.35
      vertex 1.76394 2.63992 6.35
      vertex 1.49668 2.8001 6.35
    endloop
  endfacet
  facet normal 0 0 1
    outer loop
      vertex 2.93332 1.21502 6.35
      vertex 1.46666 0.60751 6.35
      vertex 1.51914 0.460827 6.35
    endloop
  endfacet
  facet normal 0 0 1
    outer loop
      vertex 2.8001 1.49668 6.35
      vertex 1.40005 0.748342 6.35
      vertex 1.46666 0.60751 6.35
    endloop
  endfacet
  facet normal 0 0 1
    outer loop
      vertex 2.63992 1.76394 6.35
      vertex 1.31996 0.881968 6.35
      vertex 1.40005 0.748342 6.35
    endloop
  endfacet
  facet normal 0 0 1
    outer loop
      vertex 2.45431 2.0142 6.35
      vertex 1.22715 1.0071 6.35
      vertex 1.31996 0.881968 6.35
    endloop
  endfacet
  facet normal 0 0 1
    outer loop
      vertex 0.748342 1.40005 6.35
      vertex 1.49668 2.8001 6.35
      vertex 1.21502 2.93332 6.35
    endloop
  endfacet
  facet normal 0 0 1
    outer loop
      vertex 2.24506 2.24506 6.35
      vertex 1.12253 1.12253 6.35
      vertex 1.22715 1.0071 6.35
    endloop
  endfacet
  facet normal 0 0 1
    outer loop
      vertex 2.0142 2.45431 6.35
      vertex 1.0071 1.22715 6.35
      vertex 1.12253 1.12253 6.35
    endloop
  endfacet
  facet normal 0 0 1
    outer loop
      vertex 0.60751 1.46666 6.35
      vertex 1.21502 2.93332 6.35
      vertex 0.921654 3.03829 6.35
    endloop
  endfacet
  facet normal 0 0 1
    outer loop
      vertex 1.76394 2.63992 6.35
      vertex 0.881968 1.31996 6.35
      vertex 1.0071 1.22715 6.35
    endloop
  endfacet
  facet normal 0 0 1
    outer loop
      vertex 1.49668 2.8001 6.35
      vertex 0.748342 1.40005 6.35
      vertex 0.881968 1.31996 6.35
    endloop
  endfacet
  facet normal 0 0 1
    outer loop
      vertex 0.460827 1.51914 6.35
      vertex 0.921654 3.03829 6.35
      vertex 0.619411 3.11399 6.35
    endloop
  endfacet
  facet normal 0 0 1
    outer loop
      vertex 1.21502 2.93332 6.35
      vertex 0.60751 1.46666 6.35
      vertex 0.748342 1.40005 6.35
    endloop
  endfacet
  facet normal 0 0 1
    outer loop
      vertex 0.921654 3.03829 6.35
      vertex 0.460827 1.51914 6.35
      vertex 0.60751 1.46666 6.35
    endloop
  endfacet
  facet normal 0 0 1
    outer loop
      vertex 0.309706 1.557 6.35
      vertex 0.619411 3.11399 6.35
      vertex 0.311204 3.15971 6.35
    endloop
  endfacet
  facet normal 0 0 1
    outer loop
      vertex 0.619411 3.11399 6.35
      vertex 0.309706 1.557 6.35
      vertex 0.460827 1.51914 6.35
    endloop
  endfacet
  facet normal 0 0 1
    outer loop
      vertex 0.311204 3.15971 6.35
      vertex 0.155602 1.57985 6.35
      vertex 0.309706 1.557 6.35
    endloop
  endfacet
  facet normal 0 0 1
    outer loop
      vertex 0 3.175 6.35
      vertex 0.155602 1.57985 6.35
      vertex 0.311204 3.15971 6.35
    endloop
  endfacet
  facet normal 0 0 1
    outer loop
      vertex 0 3.175 6.35
      vertex 0 1.5875 6.35
      vertex 0.155602 1.57985 6.35
    endloop
  endfacet
  facet normal 0 0 1
    outer loop
      vertex 0 3.175 6.35
      vertex -0.155602 1.57985 6.35
      vertex 0 1.5875 6.35
    endloop
  endfacet
  facet normal -0 0 1
    outer loop
      vertex -0.311204 3.15971 6.35
      vertex -0.155602 1.57985 6.35
      vertex 0 3.175 6.35
    endloop
  endfacet
  facet normal 0 0 1
    outer loop
      vertex -0.155602 1.57985 6.35
      vertex -0.311204 3.15971 6.35
      vertex -0.309706 1.557 6.35
    endloop
  endfacet
  facet normal -0 0 1
    outer loop
      vertex -0.619411 3.11399 6.35
      vertex -0.309706 1.557 6.35
      vertex -0.311204 3.15971 6.35
    endloop
  endfacet
  facet normal 0 0 1
    outer loop
      vertex -0.309706 1.557 6.35
      vertex -0.619411 3.11399 6.35
      vertex -0.460827 1.51914 6.35
    endloop
  endfacet
  facet normal -0 0 1
    outer loop
      vertex -0.921654 3.03829 6.35
      vertex -0.460827 1.51914 6.35
      vertex -0.619411 3.11399 6.35
    endloop
  endfacet
  facet normal 0 0 1
    outer loop
      vertex -0.460827 1.51914 6.35
      vertex -0.921654 3.03829 6.35
      vertex -0.60751 1.46666 6.35
    endloop
  endfacet
  facet normal -0 0 1
    outer loop
      vertex -1.21502 2.93332 6.35
      vertex -0.60751 1.46666 6.35
      vertex -0.921654 3.03829 6.35
    endloop
  endfacet
  facet normal 0 0 1
    outer loop
      vertex -0.60751 1.46666 6.35
      vertex -1.21502 2.93332 6.35
      vertex -0.748342 1.40005 6.35
    endloop
  endfacet
  facet normal -0 0 1
    outer loop
      vertex -1.49668 2.8001 6.35
      vertex -0.748342 1.40005 6.35
      vertex -1.21502 2.93332 6.35
    endloop
  endfacet
  facet normal 0 0 1
    outer loop
      vertex -0.748342 1.40005 6.35
      vertex -1.49668 2.8001 6.35
      vertex -0.881968 1.31996 6.35
    endloop
  endfacet
  facet normal -0 0 1
    outer loop
      vertex -1.76394 2.63992 6.35
      vertex -0.881968 1.31996 6.35
      vertex -1.49668 2.8001 6.35
    endloop
  endfacet
  facet normal 0 0 1
    outer loop
      vertex -0.881968 1.31996 6.35
      vertex -1.76394 2.63992 6.35
      vertex -1.0071 1.22715 6.35
    endloop
  endfacet
  facet normal -0 0 1
    outer loop
      vertex -2.0142 2.45431 6.35
      vertex -1.0071 1.22715 6.35
      vertex -1.76394 2.63992 6.35
    endloop
  endfacet
  facet normal 0 0 1
    outer loop
      vertex -1.0071 1.22715 6.35
      vertex -2.0142 2.45431 6.35
      vertex -1.12253 1.12253 6.35
    endloop
  endfacet
  facet normal -0 0 1
    outer loop
      vertex -2.24506 2.24506 6.35
      vertex -1.12253 1.12253 6.35
      vertex -2.0142 2.45431 6.35
    endloop
  endfacet
  facet normal 0 0 1
    outer loop
      vertex -1.12253 1.12253 6.35
      vertex -2.24506 2.24506 6.35
      vertex -1.22715 1.0071 6.35
    endloop
  endfacet
  facet normal -0 0 1
    outer loop
      vertex -2.45431 2.0142 6.35
      vertex -1.22715 1.0071 6.35
      vertex -2.24506 2.24506 6.35
    endloop
  endfacet
  facet normal 0 0 1
    outer loop
      vertex -1.22715 1.0071 6.35
      vertex -2.45431 2.0142 6.35
      vertex -1.31996 0.881968 6.35
    endloop
  endfacet
  facet normal -0 0 1
    outer loop
      vertex -2.63992 1.76394 6.35
      vertex -1.31996 0.881968 6.35
      vertex -2.45431 2.0142 6.35
    endloop
  endfacet
  facet normal 0 0 1
    outer loop
      vertex -1.31996 0.881968 6.35
      vertex -2.63992 1.76394 6.35
      vertex -1.40005 0.748342 6.35
    endloop
  endfacet
  facet normal -0 0 1
    outer loop
      vertex -2.8001 1.49668 6.35
      vertex -1.40005 0.748342 6.35
      vertex -2.63992 1.76394 6.35
    endloop
  endfacet
  facet normal 0 0 1
    outer loop
      vertex 2.8001 -1.49668 6.35
      vertex 1.40005 -0.748342 6.35
      vertex 2.63992 -1.76394 6.35
    endloop
  endfacet
  facet normal -0 0 1
    outer loop
      vertex 1.31996 -0.881968 6.35
      vertex 2.63992 -1.76394 6.35
      vertex 1.40005 -0.748342 6.35
    endloop
  endfacet
  facet normal 0 0 1
    outer loop
      vertex 2.63992 -1.76394 6.35
      vertex 1.31996 -0.881968 6.35
      vertex 2.45431 -2.0142 6.35
    endloop
  endfacet
  facet normal -0 0 1
    outer loop
      vertex 1.22715 -1.0071 6.35
      vertex 2.45431 -2.0142 6.35
      vertex 1.31996 -0.881968 6.35
    endloop
  endfacet
  facet normal 0 0 1
    outer loop
      vertex 2.45431 -2.0142 6.35
      vertex 1.22715 -1.0071 6.35
      vertex 2.24506 -2.24506 6.35
    endloop
  endfacet
  facet normal -0 0 1
    outer loop
      vertex 1.12253 -1.12253 6.35
      vertex 2.24506 -2.24506 6.35
      vertex 1.22715 -1.0071 6.35
    endloop
  endfacet
  facet normal 0 0 1
    outer loop
      vertex 2.24506 -2.24506 6.35
      vertex 1.12253 -1.12253 6.35
      vertex 2.0142 -2.45431 6.35
    endloop
  endfacet
  facet normal -0 0 1
    outer loop
      vertex 1.0071 -1.22715 6.35
      vertex 2.0142 -2.45431 6.35
      vertex 1.12253 -1.12253 6.35
    endloop
  endfacet
  facet normal 0 0 1
    outer loop
      vertex 2.0142 -2.45431 6.35
      vertex 1.0071 -1.22715 6.35
      vertex 1.76394 -2.63992 6.35
    endloop
  endfacet
  facet normal -0 0 1
    outer loop
      vertex 0.881968 -1.31996 6.35
      vertex 1.76394 -2.63992 6.35
      vertex 1.0071 -1.22715 6.35
    endloop
  endfacet
  facet normal 0 0 1
    outer loop
      vertex 1.76394 -2.63992 6.35
      vertex 0.881968 -1.31996 6.35
      vertex 1.49668 -2.8001 6.35
    endloop
  endfacet
  facet normal -0 0 1
    outer loop
      vertex 0.748342 -1.40005 6.35
      vertex 1.49668 -2.8001 6.35
      vertex 0.881968 -1.31996 6.35
    endloop
  endfacet
  facet normal 0 0 1
    outer loop
      vertex 1.49668 -2.8001 6.35
      vertex 0.748342 -1.40005 6.35
      vertex 1.21502 -2.93332 6.35
    endloop
  endfacet
  facet normal -0 0 1
    outer loop
      vertex 0.60751 -1.46666 6.35
      vertex 1.21502 -2.93332 6.35
      vertex 0.748342 -1.40005 6.35
    endloop
  endfacet
  facet normal 0 0 1
    outer loop
      vertex 1.21502 -2.93332 6.35
      vertex 0.60751 -1.46666 6.35
      vertex 0.921654 -3.03829 6.35
    endloop
  endfacet
  facet normal -0 0 1
    outer loop
      vertex 0.460827 -1.51914 6.35
      vertex 0.921654 -3.03829 6.35
      vertex 0.60751 -1.46666 6.35
    endloop
  endfacet
  facet normal 0 0 1
    outer loop
      vertex 0.921654 -3.03829 6.35
      vertex 0.460827 -1.51914 6.35
      vertex 0.619411 -3.11399 6.35
    endloop
  endfacet
  facet normal -0 0 1
    outer loop
      vertex 0.309706 -1.557 6.35
      vertex 0.619411 -3.11399 6.35
      vertex 0.460827 -1.51914 6.35
    endloop
  endfacet
  facet normal 0 0 1
    outer loop
      vertex 0.619411 -3.11399 6.35
      vertex 0.309706 -1.557 6.35
      vertex 0.311204 -3.15971 6.35
    endloop
  endfacet
  facet normal -0 0 1
    outer loop
      vertex 0.155602 -1.57985 6.35
      vertex 0.311204 -3.15971 6.35
      vertex 0.309706 -1.557 6.35
    endloop
  endfacet
  facet normal -0 0 1
    outer loop
      vertex 0 -1.5875 6.35
      vertex 0.311204 -3.15971 6.35
      vertex 0.155602 -1.57985 6.35
    endloop
  endfacet
  facet normal 0 0 1
    outer loop
      vertex 0 -1.5875 6.35
      vertex 0 -3.175 6.35
      vertex 0.311204 -3.15971 6.35
    endloop
  endfacet
  facet normal 0 0 1
    outer loop
      vertex -0.155602 -1.57985 6.35
      vertex 0 -3.175 6.35
      vertex 0 -1.5875 6.35
    endloop
  endfacet
  facet normal 0 0 1
    outer loop
      vertex -0.311204 -3.15971 6.35
      vertex -0.155602 -1.57985 6.35
      vertex -0.309706 -1.557 6.35
    endloop
  endfacet
  facet normal 0 0 1
    outer loop
      vertex -0.155602 -1.57985 6.35
      vertex -0.311204 -3.15971 6.35
      vertex 0 -3.175 6.35
    endloop
  endfacet
  facet normal 0 0 1
    outer loop
      vertex -0.619411 -3.11399 6.35
      vertex -0.309706 -1.557 6.35
      vertex -0.460827 -1.51914 6.35
    endloop
  endfacet
  facet normal 0 0 1
    outer loop
      vertex -0.921654 -3.03829 6.35
      vertex -0.460827 -1.51914 6.35
      vertex -0.60751 -1.46666 6.35
    endloop
  endfacet
  facet normal 0 0 1
    outer loop
      vertex -0.309706 -1.557 6.35
      vertex -0.619411 -3.11399 6.35
      vertex -0.311204 -3.15971 6.35
    endloop
  endfacet
  facet normal 0 0 1
    outer loop
      vertex -1.21502 -2.93332 6.35
      vertex -0.60751 -1.46666 6.35
      vertex -0.748342 -1.40005 6.35
    endloop
  endfacet
  facet normal 0 0 1
    outer loop
      vertex -1.49668 -2.8001 6.35
      vertex -0.748342 -1.40005 6.35
      vertex -0.881968 -1.31996 6.35
    endloop
  endfacet
  facet normal 0 0 1
    outer loop
      vertex -0.460827 -1.51914 6.35
      vertex -0.921654 -3.03829 6.35
      vertex -0.619411 -3.11399 6.35
    endloop
  endfacet
  facet normal 0 0 1
    outer loop
      vertex -1.76394 -2.63992 6.35
      vertex -0.881968 -1.31996 6.35
      vertex -1.0071 -1.22715 6.35
    endloop
  endfacet
  facet normal 0 0 1
    outer loop
      vertex -2.0142 -2.45431 6.35
      vertex -1.0071 -1.22715 6.35
      vertex -1.12253 -1.12253 6.35
    endloop
  endfacet
  facet normal 0 0 1
    outer loop
      vertex -0.60751 -1.46666 6.35
      vertex -1.21502 -2.93332 6.35
      vertex -0.921654 -3.03829 6.35
    endloop
  endfacet
  facet normal 0 0 1
    outer loop
      vertex -2.24506 -2.24506 6.35
      vertex -1.12253 -1.12253 6.35
      vertex -1.22715 -1.0071 6.35
    endloop
  endfacet
  facet normal 0 0 1
    outer loop
      vertex -2.45431 -2.0142 6.35
      vertex -1.22715 -1.0071 6.35
      vertex -1.31996 -0.881968 6.35
    endloop
  endfacet
  facet normal 0 0 1
    outer loop
      vertex -2.63992 -1.76394 6.35
      vertex -1.31996 -0.881968 6.35
      vertex -1.40005 -0.748342 6.35
    endloop
  endfacet
  facet normal 0 0 1
    outer loop
      vertex -2.8001 -1.49668 6.35
      vertex -1.40005 -0.748342 6.35
      vertex -1.46666 -0.60751 6.35
    endloop
  endfacet
  facet normal 0 0 1
    outer loop
      vertex -0.748342 -1.40005 6.35
      vertex -1.49668 -2.8001 6.35
      vertex -1.21502 -2.93332 6.35
    endloop
  endfacet
  facet normal 0 0 1
    outer loop
      vertex -2.93332 -1.21502 6.35
      vertex -1.46666 -0.60751 6.35
      vertex -1.51914 -0.460827 6.35
    endloop
  endfacet
  facet normal 0 0 1
    outer loop
      vertex -3.03829 -0.921654 6.35
      vertex -1.51914 -0.460827 6.35
      vertex -1.557 -0.309706 6.35
    endloop
  endfacet
  facet normal 0 0 1
    outer loop
      vertex -3.11399 -0.619411 6.35
      vertex -1.557 -0.309706 6.35
      vertex -1.57985 -0.155602 6.35
    endloop
  endfacet
  facet normal 0 0 1
    outer loop
      vertex -3.15971 -0.311204 6.35
      vertex -1.57985 -0.155602 6.35
      vertex -1.5875 0 6.35
    endloop
  endfacet
  facet normal 0 0 1
    outer loop
      vertex -1.40005 0.748342 6.35
      vertex -2.8001 1.49668 6.35
      vertex -1.46666 0.60751 6.35
    endloop
  endfacet
  facet normal 0 0 1
    outer loop
      vertex -0.881968 -1.31996 6.35
      vertex -1.76394 -2.63992 6.35
      vertex -1.49668 -2.8001 6.35
    endloop
  endfacet
  facet normal -0 0 1
    outer loop
      vertex -2.93332 1.21502 6.35
      vertex -1.46666 0.60751 6.35
      vertex -2.8001 1.49668 6.35
    endloop
  endfacet
  facet normal 0 0 1
    outer loop
      vertex -1.0071 -1.22715 6.35
      vertex -2.0142 -2.45431 6.35
      vertex -1.76394 -2.63992 6.35
    endloop
  endfacet
  facet normal 0 0 1
    outer loop
      vertex -1.46666 0.60751 6.35
      vertex -2.93332 1.21502 6.35
      vertex -1.51914 0.460827 6.35
    endloop
  endfacet
  facet normal 0 0 1
    outer loop
      vertex -1.12253 -1.12253 6.35
      vertex -2.24506 -2.24506 6.35
      vertex -2.0142 -2.45431 6.35
    endloop
  endfacet
  facet normal -0 0 1
    outer loop
      vertex -3.03829 0.921654 6.35
      vertex -1.51914 0.460827 6.35
      vertex -2.93332 1.21502 6.35
    endloop
  endfacet
  facet normal 0 0 1
    outer loop
      vertex -1.22715 -1.0071 6.35
      vertex -2.45431 -2.0142 6.35
      vertex -2.24506 -2.24506 6.35
    endloop
  endfacet
  facet normal 0 0 1
    outer loop
      vertex -1.51914 0.460827 6.35
      vertex -3.03829 0.921654 6.35
      vertex -1.557 0.309706 6.35
    endloop
  endfacet
  facet normal 0 0 1
    outer loop
      vertex -1.31996 -0.881968 6.35
      vertex -2.63992 -1.76394 6.35
      vertex -2.45431 -2.0142 6.35
    endloop
  endfacet
  facet normal -0 0 1
    outer loop
      vertex -3.11399 0.619411 6.35
      vertex -1.557 0.309706 6.35
      vertex -3.03829 0.921654 6.35
    endloop
  endfacet
  facet normal 0 0 1
    outer loop
      vertex -1.40005 -0.748342 6.35
      vertex -2.8001 -1.49668 6.35
      vertex -2.63992 -1.76394 6.35
    endloop
  endfacet
  facet normal 0 0 1
    outer loop
      vertex -1.557 0.309706 6.35
      vertex -3.11399 0.619411 6.35
      vertex -1.57985 0.155602 6.35
    endloop
  endfacet
  facet normal 0 0 1
    outer loop
      vertex -1.46666 -0.60751 6.35
      vertex -2.93332 -1.21502 6.35
      vertex -2.8001 -1.49668 6.35
    endloop
  endfacet
  facet normal -0 0 1
    outer loop
      vertex -3.15971 0.311204 6.35
      vertex -1.57985 0.155602 6.35
      vertex -3.11399 0.619411 6.35
    endloop
  endfacet
  facet normal 0 0 1
    outer loop
      vertex -1.51914 -0.460827 6.35
      vertex -3.03829 -0.921654 6.35
      vertex -2.93332 -1.21502 6.35
    endloop
  endfacet
  facet normal 0 0 1
    outer loop
      vertex -1.57985 0.155602 6.35
      vertex -3.15971 0.311204 6.35
      vertex -1.5875 0 6.35
    endloop
  endfacet
  facet normal 0 0 1
    outer loop
      vertex -1.557 -0.309706 6.35
      vertex -3.11399 -0.619411 6.35
      vertex -3.03829 -0.921654 6.35
    endloop
  endfacet
  facet normal 0 0 1
    outer loop
      vertex -3.175 0 6.35
      vertex -1.5875 0 6.35
      vertex -3.15971 0.311204 6.35
    endloop
  endfacet
  facet normal 0 0 1
    outer loop
      vertex -1.57985 -0.155602 6.35
      vertex -3.15971 -0.311204 6.35
      vertex -3.11399 -0.619411 6.35
    endloop
  endfacet
  facet normal 0 0 1
    outer loop
      vertex -1.5875 0 6.35
      vertex -3.175 0 6.35
      vertex -3.15971 -0.311204 6.35
    endloop
  endfacet
  facet normal -0.903983 -0.427568 0
    outer loop
      vertex -2.8001 -1.49668 0
      vertex -2.93332 -1.21502 6.35
      vertex -2.93332 -1.21502 0
    endloop
  endfacet
  facet normal -0.903983 -0.427568 0
    outer loop
      vertex -2.93332 -1.21502 6.35
      vertex -2.8001 -1.49668 0
      vertex -2.8001 -1.49668 6.35
    endloop
  endfacet
  facet normal -0.242956 -0.970037 0
    outer loop
      vertex -0.921654 -3.03829 0
      vertex -0.619411 -3.11399 6.35
      vertex -0.921654 -3.03829 6.35
    endloop
  endfacet
  facet normal -0.242956 -0.970037 -0
    outer loop
      vertex -0.619411 -3.11399 6.35
      vertex -0.921654 -3.03829 0
      vertex -0.619411 -3.11399 0
    endloop
  endfacet
  facet normal 0.146736 0.989176 -0
    outer loop
      vertex 0.619411 3.11399 0
      vertex 0.311204 3.15971 6.35
      vertex 0.619411 3.11399 6.35
    endloop
  endfacet
  facet normal 0.146736 0.989176 0
    outer loop
      vertex 0.311204 3.15971 6.35
      vertex 0.619411 3.11399 0
      vertex 0.311204 3.15971 0
    endloop
  endfacet
  facet normal -0.336895 0.941542 0
    outer loop
      vertex -0.921654 3.03829 0
      vertex -1.21502 2.93332 6.35
      vertex -0.921654 3.03829 6.35
    endloop
  endfacet
  facet normal -0.336895 0.941542 0
    outer loop
      vertex -1.21502 2.93332 6.35
      vertex -0.921654 3.03829 0
      vertex -1.21502 2.93332 0
    endloop
  endfacet
  facet normal 0.427568 0.903983 -0
    outer loop
      vertex 1.49668 2.8001 0
      vertex 1.21502 2.93332 6.35
      vertex 1.49668 2.8001 6.35
    endloop
  endfacet
  facet normal 0.427568 0.903983 0
    outer loop
      vertex 1.21502 2.93332 6.35
      vertex 1.49668 2.8001 0
      vertex 1.21502 2.93332 0
    endloop
  endfacet
  facet normal -0.427568 -0.903983 0
    outer loop
      vertex -1.49668 -2.8001 0
      vertex -1.21502 -2.93332 6.35
      vertex -1.49668 -2.8001 6.35
    endloop
  endfacet
  facet normal -0.427568 -0.903983 -0
    outer loop
      vertex -1.21502 -2.93332 6.35
      vertex -1.49668 -2.8001 0
      vertex -1.21502 -2.93332 0
    endloop
  endfacet
  facet normal -0.803201 0.595709 0
    outer loop
      vertex -2.63992 1.76394 0
      vertex -2.45431 2.0142 6.35
      vertex -2.45431 2.0142 0
    endloop
  endfacet
  facet normal -0.803201 0.595709 0
    outer loop
      vertex -2.45431 2.0142 6.35
      vertex -2.63992 1.76394 0
      vertex -2.63992 1.76394 6.35
    endloop
  endfacet
  facet normal -0.970037 0.242956 0
    outer loop
      vertex -3.11399 0.619411 0
      vertex -3.03829 0.921654 6.35
      vertex -3.03829 0.921654 0
    endloop
  endfacet
  facet normal -0.970037 0.242956 0
    outer loop
      vertex -3.03829 0.921654 6.35
      vertex -3.11399 0.619411 0
      vertex -3.11399 0.619411 6.35
    endloop
  endfacet
  facet normal 0.803201 0.595709 0
    outer loop
      vertex 2.63992 1.76394 6.35
      vertex 2.45431 2.0142 0
      vertex 2.45431 2.0142 6.35
    endloop
  endfacet
  facet normal 0.803201 0.595709 0
    outer loop
      vertex 2.45431 2.0142 0
      vertex 2.63992 1.76394 6.35
      vertex 2.63992 1.76394 0
    endloop
  endfacet
  facet normal -0.671578 0.740934 0
    outer loop
      vertex -2.0142 2.45431 0
      vertex -2.24506 2.24506 6.35
      vertex -2.0142 2.45431 6.35
    endloop
  endfacet
  facet normal -0.671578 0.740934 0
    outer loop
      vertex -2.24506 2.24506 6.35
      vertex -2.0142 2.45431 0
      vertex -2.24506 2.24506 0
    endloop
  endfacet
  facet normal 0.336895 -0.941542 0
    outer loop
      vertex 0.921654 -3.03829 0
      vertex 1.21502 -2.93332 6.35
      vertex 0.921654 -3.03829 6.35
    endloop
  endfacet
  facet normal 0.336895 -0.941542 0
    outer loop
      vertex 1.21502 -2.93332 6.35
      vertex 0.921654 -3.03829 0
      vertex 1.21502 -2.93332 0
    endloop
  endfacet
  facet normal 0.242956 0.970037 -0
    outer loop
      vertex 0.921654 3.03829 0
      vertex 0.619411 3.11399 6.35
      vertex 0.921654 3.03829 6.35
    endloop
  endfacet
  facet normal 0.242956 0.970037 0
    outer loop
      vertex 0.619411 3.11399 6.35
      vertex 0.921654 3.03829 0
      vertex 0.619411 3.11399 0
    endloop
  endfacet
  facet normal 0.0490726 0.998795 -0
    outer loop
      vertex 0.311204 3.15971 0
      vertex 0 3.175 6.35
      vertex 0.311204 3.15971 6.35
    endloop
  endfacet
  facet normal 0.0490726 0.998795 0
    outer loop
      vertex 0 3.175 6.35
      vertex 0.311204 3.15971 0
      vertex 0 3.175 0
    endloop
  endfacet
  facet normal 0.903983 0.427568 0
    outer loop
      vertex 2.93332 1.21502 6.35
      vertex 2.8001 1.49668 0
      vertex 2.8001 1.49668 6.35
    endloop
  endfacet
  facet normal 0.903983 0.427568 0
    outer loop
      vertex 2.8001 1.49668 0
      vertex 2.93332 1.21502 6.35
      vertex 2.93332 1.21502 0
    endloop
  endfacet
  facet normal 0.857742 -0.51408 0
    outer loop
      vertex 2.63992 -1.76394 6.35
      vertex 2.8001 -1.49668 0
      vertex 2.8001 -1.49668 6.35
    endloop
  endfacet
  facet normal 0.857742 -0.51408 0
    outer loop
      vertex 2.8001 -1.49668 0
      vertex 2.63992 -1.76394 6.35
      vertex 2.63992 -1.76394 0
    endloop
  endfacet
  facet normal 0.336895 0.941542 -0
    outer loop
      vertex 1.21502 2.93332 0
      vertex 0.921654 3.03829 6.35
      vertex 1.21502 2.93332 6.35
    endloop
  endfacet
  facet normal 0.336895 0.941542 0
    outer loop
      vertex 0.921654 3.03829 6.35
      vertex 1.21502 2.93332 0
      vertex 0.921654 3.03829 0
    endloop
  endfacet
  facet normal 0.427568 -0.903983 0
    outer loop
      vertex 1.21502 -2.93332 0
      vertex 1.49668 -2.8001 6.35
      vertex 1.21502 -2.93332 6.35
    endloop
  endfacet
  facet normal 0.427568 -0.903983 0
    outer loop
      vertex 1.49668 -2.8001 6.35
      vertex 1.21502 -2.93332 0
      vertex 1.49668 -2.8001 0
    endloop
  endfacet
  facet normal 0.671578 0.740934 -0
    outer loop
      vertex 2.24506 2.24506 0
      vertex 2.0142 2.45431 6.35
      vertex 2.24506 2.24506 6.35
    endloop
  endfacet
  facet normal 0.671578 0.740934 0
    outer loop
      vertex 2.0142 2.45431 6.35
      vertex 2.24506 2.24506 0
      vertex 2.0142 2.45431 0
    endloop
  endfacet
  facet normal -0.242956 0.970037 0
    outer loop
      vertex -0.619411 3.11399 0
      vertex -0.921654 3.03829 6.35
      vertex -0.619411 3.11399 6.35
    endloop
  endfacet
  facet normal -0.242956 0.970037 0
    outer loop
      vertex -0.921654 3.03829 6.35
      vertex -0.619411 3.11399 0
      vertex -0.921654 3.03829 0
    endloop
  endfacet
  facet normal -0.740934 0.671578 0
    outer loop
      vertex -2.45431 2.0142 0
      vertex -2.24506 2.24506 6.35
      vertex -2.24506 2.24506 0
    endloop
  endfacet
  facet normal -0.740934 0.671578 0
    outer loop
      vertex -2.24506 2.24506 6.35
      vertex -2.45431 2.0142 0
      vertex -2.45431 2.0142 6.35
    endloop
  endfacet
  facet normal -0.941542 0.336895 0
    outer loop
      vertex -3.03829 0.921654 0
      vertex -2.93332 1.21502 6.35
      vertex -2.93332 1.21502 0
    endloop
  endfacet
  facet normal -0.941542 0.336895 0
    outer loop
      vertex -2.93332 1.21502 6.35
      vertex -3.03829 0.921654 0
      vertex -3.03829 0.921654 6.35
    endloop
  endfacet
  facet normal -0.51408 0.857742 0
    outer loop
      vertex -1.49668 2.8001 0
      vertex -1.76394 2.63992 6.35
      vertex -1.49668 2.8001 6.35
    endloop
  endfacet
  facet normal -0.51408 0.857742 0
    outer loop
      vertex -1.76394 2.63992 6.35
      vertex -1.49668 2.8001 0
      vertex -1.76394 2.63992 0
    endloop
  endfacet
  facet normal 0.857742 0.51408 0
    outer loop
      vertex 2.8001 1.49668 6.35
      vertex 2.63992 1.76394 0
      vertex 2.63992 1.76394 6.35
    endloop
  endfacet
  facet normal 0.857742 0.51408 0
    outer loop
      vertex 2.63992 1.76394 0
      vertex 2.8001 1.49668 6.35
      vertex 2.8001 1.49668 0
    endloop
  endfacet
  facet normal -0.595709 -0.803201 0
    outer loop
      vertex -2.0142 -2.45431 0
      vertex -1.76394 -2.63992 6.35
      vertex -2.0142 -2.45431 6.35
    endloop
  endfacet
  facet normal -0.595709 -0.803201 -0
    outer loop
      vertex -1.76394 -2.63992 6.35
      vertex -2.0142 -2.45431 0
      vertex -1.76394 -2.63992 0
    endloop
  endfacet
  facet normal -0.998795 0.0490726 0
    outer loop
      vertex -3.175 0 0
      vertex -3.15971 0.311204 6.35
      vertex -3.15971 0.311204 0
    endloop
  endfacet
  facet normal -0.998795 0.0490726 0
    outer loop
      vertex -3.15971 0.311204 6.35
      vertex -3.175 0 0
      vertex -3.175 0 6.35
    endloop
  endfacet
  facet normal 0.740934 0.671578 0
    outer loop
      vertex 2.45431 2.0142 6.35
      vertex 2.24506 2.24506 0
      vertex 2.24506 2.24506 6.35
    endloop
  endfacet
  facet normal 0.740934 0.671578 0
    outer loop
      vertex 2.24506 2.24506 0
      vertex 2.45431 2.0142 6.35
      vertex 2.45431 2.0142 0
    endloop
  endfacet
  facet normal -0.146736 0.989176 0
    outer loop
      vertex -0.311204 3.15971 0
      vertex -0.619411 3.11399 6.35
      vertex -0.311204 3.15971 6.35
    endloop
  endfacet
  facet normal -0.146736 0.989176 0
    outer loop
      vertex -0.619411 3.11399 6.35
      vertex -0.311204 3.15971 0
      vertex -0.619411 3.11399 0
    endloop
  endfacet
  facet normal -0.989176 0.146736 0
    outer loop
      vertex -3.15971 0.311204 0
      vertex -3.11399 0.619411 6.35
      vertex -3.11399 0.619411 0
    endloop
  endfacet
  facet normal -0.989176 0.146736 0
    outer loop
      vertex -3.11399 0.619411 6.35
      vertex -3.15971 0.311204 0
      vertex -3.15971 0.311204 6.35
    endloop
  endfacet
  facet normal 0.146736 -0.989176 0
    outer loop
      vertex 0.311204 -3.15971 0
      vertex 0.619411 -3.11399 6.35
      vertex 0.311204 -3.15971 6.35
    endloop
  endfacet
  facet normal 0.146736 -0.989176 0
    outer loop
      vertex 0.619411 -3.11399 6.35
      vertex 0.311204 -3.15971 0
      vertex 0.619411 -3.11399 0
    endloop
  endfacet
  facet normal -0.970037 -0.242956 0
    outer loop
      vertex -3.03829 -0.921654 0
      vertex -3.11399 -0.619411 6.35
      vertex -3.11399 -0.619411 0
    endloop
  endfacet
  facet normal -0.970037 -0.242956 0
    outer loop
      vertex -3.11399 -0.619411 6.35
      vertex -3.03829 -0.921654 0
      vertex -3.03829 -0.921654 6.35
    endloop
  endfacet
  facet normal 0.242956 -0.970037 0
    outer loop
      vertex 0.619411 -3.11399 0
      vertex 0.921654 -3.03829 6.35
      vertex 0.619411 -3.11399 6.35
    endloop
  endfacet
  facet normal 0.242956 -0.970037 0
    outer loop
      vertex 0.921654 -3.03829 6.35
      vertex 0.619411 -3.11399 0
      vertex 0.921654 -3.03829 0
    endloop
  endfacet
  facet normal -0.740934 -0.671578 0
    outer loop
      vertex -2.24506 -2.24506 0
      vertex -2.45431 -2.0142 6.35
      vertex -2.45431 -2.0142 0
    endloop
  endfacet
  facet normal -0.740934 -0.671578 0
    outer loop
      vertex -2.45431 -2.0142 6.35
      vertex -2.24506 -2.24506 0
      vertex -2.24506 -2.24506 6.35
    endloop
  endfacet
  facet normal -0.0490726 0.998795 0
    outer loop
      vertex 0 3.175 0
      vertex -0.311204 3.15971 6.35
      vertex 0 3.175 6.35
    endloop
  endfacet
  facet normal -0.0490726 0.998795 0
    outer loop
      vertex -0.311204 3.15971 6.35
      vertex 0 3.175 0
      vertex -0.311204 3.15971 0
    endloop
  endfacet
  facet normal -0.998795 -0.0490726 0
    outer loop
      vertex -3.15971 -0.311204 0
      vertex -3.175 0 6.35
      vertex -3.175 0 0
    endloop
  endfacet
  facet normal -0.998795 -0.0490726 0
    outer loop
      vertex -3.175 0 6.35
      vertex -3.15971 -0.311204 0
      vertex -3.15971 -0.311204 6.35
    endloop
  endfacet
  facet normal 0.595709 -0.803201 0
    outer loop
      vertex 1.76394 -2.63992 0
      vertex 2.0142 -2.45431 6.35
      vertex 1.76394 -2.63992 6.35
    endloop
  endfacet
  facet normal 0.595709 -0.803201 0
    outer loop
      vertex 2.0142 -2.45431 6.35
      vertex 1.76394 -2.63992 0
      vertex 2.0142 -2.45431 0
    endloop
  endfacet
  facet normal -0.51408 -0.857742 0
    outer loop
      vertex -1.76394 -2.63992 0
      vertex -1.49668 -2.8001 6.35
      vertex -1.76394 -2.63992 6.35
    endloop
  endfacet
  facet normal -0.51408 -0.857742 -0
    outer loop
      vertex -1.49668 -2.8001 6.35
      vertex -1.76394 -2.63992 0
      vertex -1.49668 -2.8001 0
    endloop
  endfacet
  facet normal -0.857742 0.51408 0
    outer loop
      vertex -2.8001 1.49668 0
      vertex -2.63992 1.76394 6.35
      vertex -2.63992 1.76394 0
    endloop
  endfacet
  facet normal -0.857742 0.51408 0
    outer loop
      vertex -2.63992 1.76394 6.35
      vertex -2.8001 1.49668 0
      vertex -2.8001 1.49668 6.35
    endloop
  endfacet
  facet normal 0.903983 -0.427568 0
    outer loop
      vertex 2.8001 -1.49668 6.35
      vertex 2.93332 -1.21502 0
      vertex 2.93332 -1.21502 6.35
    endloop
  endfacet
  facet normal 0.903983 -0.427568 0
    outer loop
      vertex 2.93332 -1.21502 0
      vertex 2.8001 -1.49668 6.35
      vertex 2.8001 -1.49668 0
    endloop
  endfacet
  facet normal 0.671578 -0.740934 0
    outer loop
      vertex 2.0142 -2.45431 0
      vertex 2.24506 -2.24506 6.35
      vertex 2.0142 -2.45431 6.35
    endloop
  endfacet
  facet normal 0.671578 -0.740934 0
    outer loop
      vertex 2.24506 -2.24506 6.35
      vertex 2.0142 -2.45431 0
      vertex 2.24506 -2.24506 0
    endloop
  endfacet
  facet normal -0.146736 -0.989176 0
    outer loop
      vertex -0.619411 -3.11399 0
      vertex -0.311204 -3.15971 6.35
      vertex -0.619411 -3.11399 6.35
    endloop
  endfacet
  facet normal -0.146736 -0.989176 -0
    outer loop
      vertex -0.311204 -3.15971 6.35
      vertex -0.619411 -3.11399 0
      vertex -0.311204 -3.15971 0
    endloop
  endfacet
  facet normal 0 0 -1
    outer loop
      vertex 1.5875 0 0
      vertex 3.175 0 0
      vertex 3.15971 -0.311204 0
    endloop
  endfacet
  facet normal 0 0 -1
    outer loop
      vertex 1.57985 -0.155602 0
      vertex 3.15971 -0.311204 0
      vertex 3.11399 -0.619411 0
    endloop
  endfacet
  facet normal 0 0 -1
    outer loop
      vertex 3.175 0 0
      vertex 1.5875 0 0
      vertex 3.15971 0.311204 0
    endloop
  endfacet
  facet normal 0 0 -1
    outer loop
      vertex 1.557 -0.309706 0
      vertex 3.11399 -0.619411 0
      vertex 3.03829 -0.921654 0
    endloop
  endfacet
  facet normal 0 0 -1
    outer loop
      vertex 1.57985 0.155602 0
      vertex 3.15971 0.311204 0
      vertex 1.5875 0 0
    endloop
  endfacet
  facet normal 0 0 -1
    outer loop
      vertex 1.51914 -0.460827 0
      vertex 3.03829 -0.921654 0
      vertex 2.93332 -1.21502 0
    endloop
  endfacet
  facet normal -0 0 -1
    outer loop
      vertex 3.15971 0.311204 0
      vertex 1.57985 0.155602 0
      vertex 3.11399 0.619411 0
    endloop
  endfacet
  facet normal 0 0 -1
    outer loop
      vertex 1.46666 -0.60751 0
      vertex 2.93332 -1.21502 0
      vertex 2.8001 -1.49668 0
    endloop
  endfacet
  facet normal 0 0 -1
    outer loop
      vertex 1.557 0.309706 0
      vertex 3.11399 0.619411 0
      vertex 1.57985 0.155602 0
    endloop
  endfacet
  facet normal 0 0 -1
    outer loop
      vertex 1.40005 -0.748342 0
      vertex 2.8001 -1.49668 0
      vertex 2.63992 -1.76394 0
    endloop
  endfacet
  facet normal -0 0 -1
    outer loop
      vertex 3.11399 0.619411 0
      vertex 1.557 0.309706 0
      vertex 3.03829 0.921654 0
    endloop
  endfacet
  facet normal 0 0 -1
    outer loop
      vertex 1.31996 -0.881968 0
      vertex 2.63992 -1.76394 0
      vertex 2.45431 -2.0142 0
    endloop
  endfacet
  facet normal 0 0 -1
    outer loop
      vertex 1.51914 0.460827 0
      vertex 3.03829 0.921654 0
      vertex 1.557 0.309706 0
    endloop
  endfacet
  facet normal 0 0 -1
    outer loop
      vertex 1.22715 -1.0071 0
      vertex 2.45431 -2.0142 0
      vertex 2.24506 -2.24506 0
    endloop
  endfacet
  facet normal -0 0 -1
    outer loop
      vertex 3.03829 0.921654 0
      vertex 1.51914 0.460827 0
      vertex 2.93332 1.21502 0
    endloop
  endfacet
  facet normal 0 0 -1
    outer loop
      vertex 1.12253 -1.12253 0
      vertex 2.24506 -2.24506 0
      vertex 2.0142 -2.45431 0
    endloop
  endfacet
  facet normal 0 0 -1
    outer loop
      vertex 1.46666 0.60751 0
      vertex 2.93332 1.21502 0
      vertex 1.51914 0.460827 0
    endloop
  endfacet
  facet normal 0 0 -1
    outer loop
      vertex 1.0071 -1.22715 0
      vertex 2.0142 -2.45431 0
      vertex 1.76394 -2.63992 0
    endloop
  endfacet
  facet normal -0 0 -1
    outer loop
      vertex 2.93332 1.21502 0
      vertex 1.46666 0.60751 0
      vertex 2.8001 1.49668 0
    endloop
  endfacet
  facet normal 0 0 -1
    outer loop
      vertex 1.40005 0.748342 0
      vertex 2.8001 1.49668 0
      vertex 1.46666 0.60751 0
    endloop
  endfacet
  facet normal 0 0 -1
    outer loop
      vertex 3.15971 -0.311204 0
      vertex 1.57985 -0.155602 0
      vertex 1.5875 0 0
    endloop
  endfacet
  facet normal 0 0 -1
    outer loop
      vertex 3.11399 -0.619411 0
      vertex 1.557 -0.309706 0
      vertex 1.57985 -0.155602 0
    endloop
  endfacet
  facet normal 0 0 -1
    outer loop
      vertex 3.03829 -0.921654 0
      vertex 1.51914 -0.460827 0
      vertex 1.557 -0.309706 0
    endloop
  endfacet
  facet normal 0 0 -1
    outer loop
      vertex 0.881968 -1.31996 0
      vertex 1.76394 -2.63992 0
      vertex 1.49668 -2.8001 0
    endloop
  endfacet
  facet normal 0 0 -1
    outer loop
      vertex 2.93332 -1.21502 0
      vertex 1.46666 -0.60751 0
      vertex 1.51914 -0.460827 0
    endloop
  endfacet
  facet normal 0 0 -1
    outer loop
      vertex 2.8001 -1.49668 0
      vertex 1.40005 -0.748342 0
      vertex 1.46666 -0.60751 0
    endloop
  endfacet
  facet normal 0 0 -1
    outer loop
      vertex 2.63992 -1.76394 0
      vertex 1.31996 -0.881968 0
      vertex 1.40005 -0.748342 0
    endloop
  endfacet
  facet normal 0 0 -1
    outer loop
      vertex 2.45431 -2.0142 0
      vertex 1.22715 -1.0071 0
      vertex 1.31996 -0.881968 0
    endloop
  endfacet
  facet normal 0 0 -1
    outer loop
      vertex 0.748342 -1.40005 0
      vertex 1.49668 -2.8001 0
      vertex 1.21502 -2.93332 0
    endloop
  endfacet
  facet normal 0 0 -1
    outer loop
      vertex 2.24506 -2.24506 0
      vertex 1.12253 -1.12253 0
      vertex 1.22715 -1.0071 0
    endloop
  endfacet
  facet normal 0 0 -1
    outer loop
      vertex 2.0142 -2.45431 0
      vertex 1.0071 -1.22715 0
      vertex 1.12253 -1.12253 0
    endloop
  endfacet
  facet normal 0 0 -1
    outer loop
      vertex 0.60751 -1.46666 0
      vertex 1.21502 -2.93332 0
      vertex 0.921654 -3.03829 0
    endloop
  endfacet
  facet normal 0 0 -1
    outer loop
      vertex 1.76394 -2.63992 0
      vertex 0.881968 -1.31996 0
      vertex 1.0071 -1.22715 0
    endloop
  endfacet
  facet normal 0 0 -1
    outer loop
      vertex 1.49668 -2.8001 0
      vertex 0.748342 -1.40005 0
      vertex 0.881968 -1.31996 0
    endloop
  endfacet
  facet normal 0 0 -1
    outer loop
      vertex 0.460827 -1.51914 0
      vertex 0.921654 -3.03829 0
      vertex 0.619411 -3.11399 0
    endloop
  endfacet
  facet normal 0 0 -1
    outer loop
      vertex 1.21502 -2.93332 0
      vertex 0.60751 -1.46666 0
      vertex 0.748342 -1.40005 0
    endloop
  endfacet
  facet normal 0 0 -1
    outer loop
      vertex 0.921654 -3.03829 0
      vertex 0.460827 -1.51914 0
      vertex 0.60751 -1.46666 0
    endloop
  endfacet
  facet normal 0 0 -1
    outer loop
      vertex 0.309706 -1.557 0
      vertex 0.619411 -3.11399 0
      vertex 0.311204 -3.15971 0
    endloop
  endfacet
  facet normal 0 0 -1
    outer loop
      vertex 0.619411 -3.11399 0
      vertex 0.309706 -1.557 0
      vertex 0.460827 -1.51914 0
    endloop
  endfacet
  facet normal 0 0 -1
    outer loop
      vertex 0.311204 -3.15971 0
      vertex 0.155602 -1.57985 0
      vertex 0.309706 -1.557 0
    endloop
  endfacet
  facet normal 0 0 -1
    outer loop
      vertex 0 -3.175 0
      vertex 0.155602 -1.57985 0
      vertex 0.311204 -3.15971 0
    endloop
  endfacet
  facet normal 0 0 -1
    outer loop
      vertex 0 -3.175 0
      vertex 0 -1.5875 0
      vertex 0.155602 -1.57985 0
    endloop
  endfacet
  facet normal 0 0 -1
    outer loop
      vertex 0 -3.175 0
      vertex -0.155602 -1.57985 0
      vertex 0 -1.5875 0
    endloop
  endfacet
  facet normal 0 0 -1
    outer loop
      vertex -0.311204 -3.15971 0
      vertex -0.155602 -1.57985 0
      vertex 0 -3.175 0
    endloop
  endfacet
  facet normal -0 0 -1
    outer loop
      vertex -0.155602 -1.57985 0
      vertex -0.311204 -3.15971 0
      vertex -0.309706 -1.557 0
    endloop
  endfacet
  facet normal 0 0 -1
    outer loop
      vertex -0.619411 -3.11399 0
      vertex -0.309706 -1.557 0
      vertex -0.311204 -3.15971 0
    endloop
  endfacet
  facet normal -0 0 -1
    outer loop
      vertex -0.309706 -1.557 0
      vertex -0.619411 -3.11399 0
      vertex -0.460827 -1.51914 0
    endloop
  endfacet
  facet normal 0 0 -1
    outer loop
      vertex -0.921654 -3.03829 0
      vertex -0.460827 -1.51914 0
      vertex -0.619411 -3.11399 0
    endloop
  endfacet
  facet normal -0 0 -1
    outer loop
      vertex -0.460827 -1.51914 0
      vertex -0.921654 -3.03829 0
      vertex -0.60751 -1.46666 0
    endloop
  endfacet
  facet normal 0 0 -1
    outer loop
      vertex -1.21502 -2.93332 0
      vertex -0.60751 -1.46666 0
      vertex -0.921654 -3.03829 0
    endloop
  endfacet
  facet normal -0 0 -1
    outer loop
      vertex -0.60751 -1.46666 0
      vertex -1.21502 -2.93332 0
      vertex -0.748342 -1.40005 0
    endloop
  endfacet
  facet normal 0 0 -1
    outer loop
      vertex -1.49668 -2.8001 0
      vertex -0.748342 -1.40005 0
      vertex -1.21502 -2.93332 0
    endloop
  endfacet
  facet normal -0 0 -1
    outer loop
      vertex -0.748342 -1.40005 0
      vertex -1.49668 -2.8001 0
      vertex -0.881968 -1.31996 0
    endloop
  endfacet
  facet normal 0 0 -1
    outer loop
      vertex -1.76394 -2.63992 0
      vertex -0.881968 -1.31996 0
      vertex -1.49668 -2.8001 0
    endloop
  endfacet
  facet normal -0 0 -1
    outer loop
      vertex -0.881968 -1.31996 0
      vertex -1.76394 -2.63992 0
      vertex -1.0071 -1.22715 0
    endloop
  endfacet
  facet normal 0 0 -1
    outer loop
      vertex -2.0142 -2.45431 0
      vertex -1.0071 -1.22715 0
      vertex -1.76394 -2.63992 0
    endloop
  endfacet
  facet normal -0 0 -1
    outer loop
      vertex -1.0071 -1.22715 0
      vertex -2.0142 -2.45431 0
      vertex -1.12253 -1.12253 0
    endloop
  endfacet
  facet normal 0 0 -1
    outer loop
      vertex -2.24506 -2.24506 0
      vertex -1.12253 -1.12253 0
      vertex -2.0142 -2.45431 0
    endloop
  endfacet
  facet normal -0 0 -1
    outer loop
      vertex -1.12253 -1.12253 0
      vertex -2.24506 -2.24506 0
      vertex -1.22715 -1.0071 0
    endloop
  endfacet
  facet normal 0 0 -1
    outer loop
      vertex -2.45431 -2.0142 0
      vertex -1.22715 -1.0071 0
      vertex -2.24506 -2.24506 0
    endloop
  endfacet
  facet normal -0 0 -1
    outer loop
      vertex -1.22715 -1.0071 0
      vertex -2.45431 -2.0142 0
      vertex -1.31996 -0.881968 0
    endloop
  endfacet
  facet normal 0 0 -1
    outer loop
      vertex -2.63992 -1.76394 0
      vertex -1.31996 -0.881968 0
      vertex -2.45431 -2.0142 0
    endloop
  endfacet
  facet normal -0 0 -1
    outer loop
      vertex -1.31996 -0.881968 0
      vertex -2.63992 -1.76394 0
      vertex -1.40005 -0.748342 0
    endloop
  endfacet
  facet normal 0 0 -1
    outer loop
      vertex -2.8001 -1.49668 0
      vertex -1.40005 -0.748342 0
      vertex -2.63992 -1.76394 0
    endloop
  endfacet
  facet normal -0 0 -1
    outer loop
      vertex 2.8001 1.49668 0
      vertex 1.40005 0.748342 0
      vertex 2.63992 1.76394 0
    endloop
  endfacet
  facet normal 0 0 -1
    outer loop
      vertex 1.31996 0.881968 0
      vertex 2.63992 1.76394 0
      vertex 1.40005 0.748342 0
    endloop
  endfacet
  facet normal -0 0 -1
    outer loop
      vertex 2.63992 1.76394 0
      vertex 1.31996 0.881968 0
      vertex 2.45431 2.0142 0
    endloop
  endfacet
  facet normal 0 0 -1
    outer loop
      vertex 1.22715 1.0071 0
      vertex 2.45431 2.0142 0
      vertex 1.31996 0.881968 0
    endloop
  endfacet
  facet normal -0 0 -1
    outer loop
      vertex 2.45431 2.0142 0
      vertex 1.22715 1.0071 0
      vertex 2.24506 2.24506 0
    endloop
  endfacet
  facet normal 0 0 -1
    outer loop
      vertex 1.12253 1.12253 0
      vertex 2.24506 2.24506 0
      vertex 1.22715 1.0071 0
    endloop
  endfacet
  facet normal -0 0 -1
    outer loop
      vertex 2.24506 2.24506 0
      vertex 1.12253 1.12253 0
      vertex 2.0142 2.45431 0
    endloop
  endfacet
  facet normal 0 0 -1
    outer loop
      vertex 1.0071 1.22715 0
      vertex 2.0142 2.45431 0
      vertex 1.12253 1.12253 0
    endloop
  endfacet
  facet normal -0 0 -1
    outer loop
      vertex 2.0142 2.45431 0
      vertex 1.0071 1.22715 0
      vertex 1.76394 2.63992 0
    endloop
  endfacet
  facet normal 0 0 -1
    outer loop
      vertex 0.881968 1.31996 0
      vertex 1.76394 2.63992 0
      vertex 1.0071 1.22715 0
    endloop
  endfacet
  facet normal -0 0 -1
    outer loop
      vertex 1.76394 2.63992 0
      vertex 0.881968 1.31996 0
      vertex 1.49668 2.8001 0
    endloop
  endfacet
  facet normal 0 0 -1
    outer loop
      vertex 0.748342 1.40005 0
      vertex 1.49668 2.8001 0
      vertex 0.881968 1.31996 0
    endloop
  endfacet
  facet normal -0 0 -1
    outer loop
      vertex 1.49668 2.8001 0
      vertex 0.748342 1.40005 0
      vertex 1.21502 2.93332 0
    endloop
  endfacet
  facet normal 0 0 -1
    outer loop
      vertex 0.60751 1.46666 0
      vertex 1.21502 2.93332 0
      vertex 0.748342 1.40005 0
    endloop
  endfacet
  facet normal -0 0 -1
    outer loop
      vertex 1.21502 2.93332 0
      vertex 0.60751 1.46666 0
      vertex 0.921654 3.03829 0
    endloop
  endfacet
  facet normal 0 0 -1
    outer loop
      vertex 0.460827 1.51914 0
      vertex 0.921654 3.03829 0
      vertex 0.60751 1.46666 0
    endloop
  endfacet
  facet normal -0 0 -1
    outer loop
      vertex 0.921654 3.03829 0
      vertex 0.460827 1.51914 0
      vertex 0.619411 3.11399 0
    endloop
  endfacet
  facet normal 0 0 -1
    outer loop
      vertex 0.309706 1.557 0
      vertex 0.619411 3.11399 0
      vertex 0.460827 1.51914 0
    endloop
  endfacet
  facet normal -0 0 -1
    outer loop
      vertex 0.619411 3.11399 0
      vertex 0.309706 1.557 0
      vertex 0.311204 3.15971 0
    endloop
  endfacet
  facet normal 0 0 -1
    outer loop
      vertex 0.155602 1.57985 0
      vertex 0.311204 3.15971 0
      vertex 0.309706 1.557 0
    endloop
  endfacet
  facet normal 0 0 -1
    outer loop
      vertex 0 1.5875 0
      vertex 0.311204 3.15971 0
      vertex 0.155602 1.57985 0
    endloop
  endfacet
  facet normal 0 0 -1
    outer loop
      vertex 0 1.5875 0
      vertex 0 3.175 0
      vertex 0.311204 3.15971 0
    endloop
  endfacet
  facet normal 0 0 -1
    outer loop
      vertex -0.155602 1.57985 0
      vertex 0 3.175 0
      vertex 0 1.5875 0
    endloop
  endfacet
  facet normal 0 0 -1
    outer loop
      vertex -0.311204 3.15971 0
      vertex -0.155602 1.57985 0
      vertex -0.309706 1.557 0
    endloop
  endfacet
  facet normal 0 0 -1
    outer loop
      vertex -0.155602 1.57985 0
      vertex -0.311204 3.15971 0
      vertex 0 3.175 0
    endloop
  endfacet
  facet normal 0 0 -1
    outer loop
      vertex -0.619411 3.11399 0
      vertex -0.309706 1.557 0
      vertex -0.460827 1.51914 0
    endloop
  endfacet
  facet normal 0 0 -1
    outer loop
      vertex -0.921654 3.03829 0
      vertex -0.460827 1.51914 0
      vertex -0.60751 1.46666 0
    endloop
  endfacet
  facet normal 0 0 -1
    outer loop
      vertex -0.309706 1.557 0
      vertex -0.619411 3.11399 0
      vertex -0.311204 3.15971 0
    endloop
  endfacet
  facet normal 0 0 -1
    outer loop
      vertex -1.21502 2.93332 0
      vertex -0.60751 1.46666 0
      vertex -0.748342 1.40005 0
    endloop
  endfacet
  facet normal 0 0 -1
    outer loop
      vertex -1.49668 2.8001 0
      vertex -0.748342 1.40005 0
      vertex -0.881968 1.31996 0
    endloop
  endfacet
  facet normal 0 0 -1
    outer loop
      vertex -0.460827 1.51914 0
      vertex -0.921654 3.03829 0
      vertex -0.619411 3.11399 0
    endloop
  endfacet
  facet normal 0 0 -1
    outer loop
      vertex -1.76394 2.63992 0
      vertex -0.881968 1.31996 0
      vertex -1.0071 1.22715 0
    endloop
  endfacet
  facet normal 0 0 -1
    outer loop
      vertex -2.0142 2.45431 0
      vertex -1.0071 1.22715 0
      vertex -1.12253 1.12253 0
    endloop
  endfacet
  facet normal 0 0 -1
    outer loop
      vertex -0.60751 1.46666 0
      vertex -1.21502 2.93332 0
      vertex -0.921654 3.03829 0
    endloop
  endfacet
  facet normal 0 0 -1
    outer loop
      vertex -2.24506 2.24506 0
      vertex -1.12253 1.12253 0
      vertex -1.22715 1.0071 0
    endloop
  endfacet
  facet normal 0 0 -1
    outer loop
      vertex -2.45431 2.0142 0
      vertex -1.22715 1.0071 0
      vertex -1.31996 0.881968 0
    endloop
  endfacet
  facet normal 0 0 -1
    outer loop
      vertex -2.63992 1.76394 0
      vertex -1.31996 0.881968 0
      vertex -1.40005 0.748342 0
    endloop
  endfacet
  facet normal 0 0 -1
    outer loop
      vertex -2.8001 1.49668 0
      vertex -1.40005 0.748342 0
      vertex -1.46666 0.60751 0
    endloop
  endfacet
  facet normal 0 0 -1
    outer loop
      vertex -0.748342 1.40005 0
      vertex -1.49668 2.8001 0
      vertex -1.21502 2.93332 0
    endloop
  endfacet
  facet normal 0 0 -1
    outer loop
      vertex -2.93332 1.21502 0
      vertex -1.46666 0.60751 0
      vertex -1.51914 0.460827 0
    endloop
  endfacet
  facet normal 0 0 -1
    outer loop
      vertex -3.03829 0.921654 0
      vertex -1.51914 0.460827 0
      vertex -1.557 0.309706 0
    endloop
  endfacet
  facet normal 0 0 -1
    outer loop
      vertex -3.11399 0.619411 0
      vertex -1.557 0.309706 0
      vertex -1.57985 0.155602 0
    endloop
  endfacet
  facet normal 0 0 -1
    outer loop
      vertex -3.15971 0.311204 0
      vertex -1.57985 0.155602 0
      vertex -1.5875 0 0
    endloop
  endfacet
  facet normal -0 0 -1
    outer loop
      vertex -1.40005 -0.748342 0
      vertex -2.8001 -1.49668 0
      vertex -1.46666 -0.60751 0
    endloop
  endfacet
  facet normal 0 0 -1
    outer loop
      vertex -0.881968 1.31996 0
      vertex -1.76394 2.63992 0
      vertex -1.49668 2.8001 0
    endloop
  endfacet
  facet normal 0 0 -1
    outer loop
      vertex -2.93332 -1.21502 0
      vertex -1.46666 -0.60751 0
      vertex -2.8001 -1.49668 0
    endloop
  endfacet
  facet normal 0 0 -1
    outer loop
      vertex -1.0071 1.22715 0
      vertex -2.0142 2.45431 0
      vertex -1.76394 2.63992 0
    endloop
  endfacet
  facet normal -0 0 -1
    outer loop
      vertex -1.46666 -0.60751 0
      vertex -2.93332 -1.21502 0
      vertex -1.51914 -0.460827 0
    endloop
  endfacet
  facet normal 0 0 -1
    outer loop
      vertex -1.12253 1.12253 0
      vertex -2.24506 2.24506 0
      vertex -2.0142 2.45431 0
    endloop
  endfacet
  facet normal 0 0 -1
    outer loop
      vertex -3.03829 -0.921654 0
      vertex -1.51914 -0.460827 0
      vertex -2.93332 -1.21502 0
    endloop
  endfacet
  facet normal 0 0 -1
    outer loop
      vertex -1.22715 1.0071 0
      vertex -2.45431 2.0142 0
      vertex -2.24506 2.24506 0
    endloop
  endfacet
  facet normal -0 0 -1
    outer loop
      vertex -1.51914 -0.460827 0
      vertex -3.03829 -0.921654 0
      vertex -1.557 -0.309706 0
    endloop
  endfacet
  facet normal 0 0 -1
    outer loop
      vertex -1.31996 0.881968 0
      vertex -2.63992 1.76394 0
      vertex -2.45431 2.0142 0
    endloop
  endfacet
  facet normal 0 0 -1
    outer loop
      vertex -3.11399 -0.619411 0
      vertex -1.557 -0.309706 0
      vertex -3.03829 -0.921654 0
    endloop
  endfacet
  facet normal 0 0 -1
    outer loop
      vertex -1.40005 0.748342 0
      vertex -2.8001 1.49668 0
      vertex -2.63992 1.76394 0
    endloop
  endfacet
  facet normal -0 0 -1
    outer loop
      vertex -1.557 -0.309706 0
      vertex -3.11399 -0.619411 0
      vertex -1.57985 -0.155602 0
    endloop
  endfacet
  facet normal 0 0 -1
    outer loop
      vertex -1.46666 0.60751 0
      vertex -2.93332 1.21502 0
      vertex -2.8001 1.49668 0
    endloop
  endfacet
  facet normal 0 0 -1
    outer loop
      vertex -3.15971 -0.311204 0
      vertex -1.57985 -0.155602 0
      vertex -3.11399 -0.619411 0
    endloop
  endfacet
  facet normal 0 0 -1
    outer loop
      vertex -1.51914 0.460827 0
      vertex -3.03829 0.921654 0
      vertex -2.93332 1.21502 0
    endloop
  endfacet
  facet normal -0 0 -1
    outer loop
      vertex -1.57985 -0.155602 0
      vertex -3.15971 -0.311204 0
      vertex -1.5875 0 0
    endloop
  endfacet
  facet normal 0 0 -1
    outer loop
      vertex -1.557 0.309706 0
      vertex -3.11399 0.619411 0
      vertex -3.03829 0.921654 0
    endloop
  endfacet
  facet normal 0 0 -1
    outer loop
      vertex -3.175 0 0
      vertex -1.5875 0 0
      vertex -3.15971 -0.311204 0
    endloop
  endfacet
  facet normal 0 0 -1
    outer loop
      vertex -1.57985 0.155602 0
      vertex -3.15971 0.311204 0
      vertex -3.11399 0.619411 0
    endloop
  endfacet
  facet normal 0 0 -1
    outer loop
      vertex -1.5875 0 0
      vertex -3.175 0 0
      vertex -3.15971 0.311204 0
    endloop
  endfacet
  facet normal 0.67156 0.74095 -0
    outer loop
      vertex -1.0071 -1.22715 0
      vertex -1.12253 -1.12253 6.35
      vertex -1.0071 -1.22715 6.35
    endloop
  endfacet
  facet normal 0.67156 0.74095 0
    outer loop
      vertex -1.12253 -1.12253 6.35
      vertex -1.0071 -1.22715 0
      vertex -1.12253 -1.12253 0
    endloop
  endfacet
  facet normal 0.941552 -0.336867 0
    outer loop
      vertex -1.51914 0.460827 6.35
      vertex -1.46666 0.60751 0
      vertex -1.46666 0.60751 6.35
    endloop
  endfacet
  facet normal 0.941552 -0.336867 0
    outer loop
      vertex -1.46666 0.60751 0
      vertex -1.51914 0.460827 6.35
      vertex -1.51914 0.460827 0
    endloop
  endfacet
  facet normal -0.989185 -0.146673 0
    outer loop
      vertex 1.57985 0.155602 0
      vertex 1.557 0.309706 6.35
      vertex 1.557 0.309706 0
    endloop
  endfacet
  facet normal -0.989185 -0.146673 0
    outer loop
      vertex 1.557 0.309706 6.35
      vertex 1.57985 0.155602 0
      vertex 1.57985 0.155602 6.35
    endloop
  endfacet
  facet normal -0.998794 -0.0491046 0
    outer loop
      vertex 1.5875 0 0
      vertex 1.57985 0.155602 6.35
      vertex 1.57985 0.155602 0
    endloop
  endfacet
  facet normal -0.998794 -0.0491046 0
    outer loop
      vertex 1.57985 0.155602 6.35
      vertex 1.5875 0 0
      vertex 1.5875 0 6.35
    endloop
  endfacet
  facet normal 0.514092 0.857735 -0
    outer loop
      vertex -0.748342 -1.40005 0
      vertex -0.881968 -1.31996 6.35
      vertex -0.748342 -1.40005 6.35
    endloop
  endfacet
  facet normal 0.514092 0.857735 0
    outer loop
      vertex -0.881968 -1.31996 6.35
      vertex -0.748342 -1.40005 0
      vertex -0.881968 -1.31996 0
    endloop
  endfacet
  facet normal -0.67156 -0.74095 0
    outer loop
      vertex 1.0071 1.22715 0
      vertex 1.12253 1.12253 6.35
      vertex 1.0071 1.22715 6.35
    endloop
  endfacet
  facet normal -0.67156 -0.74095 -0
    outer loop
      vertex 1.12253 1.12253 6.35
      vertex 1.0071 1.22715 0
      vertex 1.12253 1.12253 0
    endloop
  endfacet
  facet normal 0.146673 0.989185 -0
    outer loop
      vertex -0.155602 -1.57985 0
      vertex -0.309706 -1.557 6.35
      vertex -0.155602 -1.57985 6.35
    endloop
  endfacet
  facet normal 0.146673 0.989185 0
    outer loop
      vertex -0.309706 -1.557 6.35
      vertex -0.155602 -1.57985 0
      vertex -0.309706 -1.557 0
    endloop
  endfacet
  facet normal -0.74095 -0.67156 0
    outer loop
      vertex 1.22715 1.0071 0
      vertex 1.12253 1.12253 6.35
      vertex 1.12253 1.12253 0
    endloop
  endfacet
  facet normal -0.74095 -0.67156 0
    outer loop
      vertex 1.12253 1.12253 6.35
      vertex 1.22715 1.0071 0
      vertex 1.22715 1.0071 6.35
    endloop
  endfacet
  facet normal -0.427563 -0.903986 0
    outer loop
      vertex 0.60751 1.46666 0
      vertex 0.748342 1.40005 6.35
      vertex 0.60751 1.46666 6.35
    endloop
  endfacet
  facet normal -0.427563 -0.903986 -0
    outer loop
      vertex 0.748342 1.40005 6.35
      vertex 0.60751 1.46666 0
      vertex 0.748342 1.40005 0
    endloop
  endfacet
  facet normal -0.0491046 0.998794 0
    outer loop
      vertex 0.155602 -1.57985 0
      vertex 0 -1.5875 6.35
      vertex 0.155602 -1.57985 6.35
    endloop
  endfacet
  facet normal -0.0491046 0.998794 0
    outer loop
      vertex 0 -1.5875 6.35
      vertex 0.155602 -1.57985 0
      vertex 0 -1.5875 0
    endloop
  endfacet
  facet normal -0.989185 0.146673 0
    outer loop
      vertex 1.557 -0.309706 0
      vertex 1.57985 -0.155602 6.35
      vertex 1.57985 -0.155602 0
    endloop
  endfacet
  facet normal -0.989185 0.146673 0
    outer loop
      vertex 1.57985 -0.155602 6.35
      vertex 1.557 -0.309706 0
      vertex 1.557 -0.309706 6.35
    endloop
  endfacet
  facet normal -0.903986 -0.427563 0
    outer loop
      vertex 1.46666 0.60751 0
      vertex 1.40005 0.748342 6.35
      vertex 1.40005 0.748342 0
    endloop
  endfacet
  facet normal -0.903986 -0.427563 0
    outer loop
      vertex 1.40005 0.748342 6.35
      vertex 1.46666 0.60751 0
      vertex 1.46666 0.60751 6.35
    endloop
  endfacet
  facet normal 0.243017 -0.970022 0
    outer loop
      vertex -0.460827 1.51914 0
      vertex -0.309706 1.557 6.35
      vertex -0.460827 1.51914 6.35
    endloop
  endfacet
  facet normal 0.243017 -0.970022 0
    outer loop
      vertex -0.309706 1.557 6.35
      vertex -0.460827 1.51914 0
      vertex -0.309706 1.557 0
    endloop
  endfacet
  facet normal 0.80319 -0.595723 0
    outer loop
      vertex -1.31996 0.881968 6.35
      vertex -1.22715 1.0071 0
      vertex -1.22715 1.0071 6.35
    endloop
  endfacet
  facet normal 0.80319 -0.595723 0
    outer loop
      vertex -1.22715 1.0071 0
      vertex -1.31996 0.881968 6.35
      vertex -1.31996 0.881968 0
    endloop
  endfacet
  facet normal -0.243017 -0.970022 0
    outer loop
      vertex 0.309706 1.557 0
      vertex 0.460827 1.51914 6.35
      vertex 0.309706 1.557 6.35
    endloop
  endfacet
  facet normal -0.243017 -0.970022 -0
    outer loop
      vertex 0.460827 1.51914 6.35
      vertex 0.309706 1.557 0
      vertex 0.460827 1.51914 0
    endloop
  endfacet
  facet normal -0.336867 -0.941552 0
    outer loop
      vertex 0.460827 1.51914 0
      vertex 0.60751 1.46666 6.35
      vertex 0.460827 1.51914 6.35
    endloop
  endfacet
  facet normal -0.336867 -0.941552 -0
    outer loop
      vertex 0.60751 1.46666 6.35
      vertex 0.460827 1.51914 0
      vertex 0.60751 1.46666 0
    endloop
  endfacet
  facet normal -0.941552 -0.336867 0
    outer loop
      vertex 1.51914 0.460827 0
      vertex 1.46666 0.60751 6.35
      vertex 1.46666 0.60751 0
    endloop
  endfacet
  facet normal -0.941552 -0.336867 0
    outer loop
      vertex 1.46666 0.60751 6.35
      vertex 1.51914 0.460827 0
      vertex 1.51914 0.460827 6.35
    endloop
  endfacet
  facet normal -0.595723 -0.80319 0
    outer loop
      vertex 0.881968 1.31996 0
      vertex 1.0071 1.22715 6.35
      vertex 0.881968 1.31996 6.35
    endloop
  endfacet
  facet normal -0.595723 -0.80319 -0
    outer loop
      vertex 1.0071 1.22715 6.35
      vertex 0.881968 1.31996 0
      vertex 1.0071 1.22715 0
    endloop
  endfacet
  facet normal 0.857735 0.514092 0
    outer loop
      vertex -1.31996 -0.881968 6.35
      vertex -1.40005 -0.748342 0
      vertex -1.40005 -0.748342 6.35
    endloop
  endfacet
  facet normal 0.857735 0.514092 0
    outer loop
      vertex -1.40005 -0.748342 0
      vertex -1.31996 -0.881968 6.35
      vertex -1.31996 -0.881968 0
    endloop
  endfacet
  facet normal -0.514092 -0.857735 0
    outer loop
      vertex 0.748342 1.40005 0
      vertex 0.881968 1.31996 6.35
      vertex 0.748342 1.40005 6.35
    endloop
  endfacet
  facet normal -0.514092 -0.857735 -0
    outer loop
      vertex 0.881968 1.31996 6.35
      vertex 0.748342 1.40005 0
      vertex 0.881968 1.31996 0
    endloop
  endfacet
  facet normal -0.941552 0.336867 0
    outer loop
      vertex 1.46666 -0.60751 0
      vertex 1.51914 -0.460827 6.35
      vertex 1.51914 -0.460827 0
    endloop
  endfacet
  facet normal -0.941552 0.336867 0
    outer loop
      vertex 1.51914 -0.460827 6.35
      vertex 1.46666 -0.60751 0
      vertex 1.46666 -0.60751 6.35
    endloop
  endfacet
  facet normal 0.857735 -0.514092 0
    outer loop
      vertex -1.40005 0.748342 6.35
      vertex -1.31996 0.881968 0
      vertex -1.31996 0.881968 6.35
    endloop
  endfacet
  facet normal 0.857735 -0.514092 0
    outer loop
      vertex -1.31996 0.881968 0
      vertex -1.40005 0.748342 6.35
      vertex -1.40005 0.748342 0
    endloop
  endfacet
  facet normal 0.970022 0.243017 0
    outer loop
      vertex -1.51914 -0.460827 6.35
      vertex -1.557 -0.309706 0
      vertex -1.557 -0.309706 6.35
    endloop
  endfacet
  facet normal 0.970022 0.243017 0
    outer loop
      vertex -1.557 -0.309706 0
      vertex -1.51914 -0.460827 6.35
      vertex -1.51914 -0.460827 0
    endloop
  endfacet
  facet normal -0.0491046 -0.998794 0
    outer loop
      vertex 0 1.5875 0
      vertex 0.155602 1.57985 6.35
      vertex 0 1.5875 6.35
    endloop
  endfacet
  facet normal -0.0491046 -0.998794 -0
    outer loop
      vertex 0.155602 1.57985 6.35
      vertex 0 1.5875 0
      vertex 0.155602 1.57985 0
    endloop
  endfacet
  facet normal -0.857735 -0.514092 0
    outer loop
      vertex 1.40005 0.748342 0
      vertex 1.31996 0.881968 6.35
      vertex 1.31996 0.881968 0
    endloop
  endfacet
  facet normal -0.857735 -0.514092 0
    outer loop
      vertex 1.31996 0.881968 6.35
      vertex 1.40005 0.748342 0
      vertex 1.40005 0.748342 6.35
    endloop
  endfacet
  facet normal 0.941552 0.336867 0
    outer loop
      vertex -1.46666 -0.60751 6.35
      vertex -1.51914 -0.460827 0
      vertex -1.51914 -0.460827 6.35
    endloop
  endfacet
  facet normal 0.941552 0.336867 0
    outer loop
      vertex -1.51914 -0.460827 0
      vertex -1.46666 -0.60751 6.35
      vertex -1.46666 -0.60751 0
    endloop
  endfacet
  facet normal 0.67156 -0.74095 0
    outer loop
      vertex -1.12253 1.12253 0
      vertex -1.0071 1.22715 6.35
      vertex -1.12253 1.12253 6.35
    endloop
  endfacet
  facet normal 0.67156 -0.74095 0
    outer loop
      vertex -1.0071 1.22715 6.35
      vertex -1.12253 1.12253 0
      vertex -1.0071 1.22715 0
    endloop
  endfacet
  facet normal -0.970022 0.243017 0
    outer loop
      vertex 1.51914 -0.460827 0
      vertex 1.557 -0.309706 6.35
      vertex 1.557 -0.309706 0
    endloop
  endfacet
  facet normal -0.970022 0.243017 0
    outer loop
      vertex 1.557 -0.309706 6.35
      vertex 1.51914 -0.460827 0
      vertex 1.51914 -0.460827 6.35
    endloop
  endfacet
  facet normal 0.514092 -0.857735 0
    outer loop
      vertex -0.881968 1.31996 0
      vertex -0.748342 1.40005 6.35
      vertex -0.881968 1.31996 6.35
    endloop
  endfacet
  facet normal 0.514092 -0.857735 0
    outer loop
      vertex -0.748342 1.40005 6.35
      vertex -0.881968 1.31996 0
      vertex -0.748342 1.40005 0
    endloop
  endfacet
  facet normal 0.998794 0.0491046 0
    outer loop
      vertex -1.57985 -0.155602 6.35
      vertex -1.5875 0 0
      vertex -1.5875 0 6.35
    endloop
  endfacet
  facet normal 0.998794 0.0491046 0
    outer loop
      vertex -1.5875 0 0
      vertex -1.57985 -0.155602 6.35
      vertex -1.57985 -0.155602 0
    endloop
  endfacet
  facet normal 0.970022 -0.243017 0
    outer loop
      vertex -1.557 0.309706 6.35
      vertex -1.51914 0.460827 0
      vertex -1.51914 0.460827 6.35
    endloop
  endfacet
  facet normal 0.970022 -0.243017 0
    outer loop
      vertex -1.51914 0.460827 0
      vertex -1.557 0.309706 6.35
      vertex -1.557 0.309706 0
    endloop
  endfacet
  facet normal -0.427563 0.903986 0
    outer loop
      vertex 0.748342 -1.40005 0
      vertex 0.60751 -1.46666 6.35
      vertex 0.748342 -1.40005 6.35
    endloop
  endfacet
  facet normal -0.427563 0.903986 0
    outer loop
      vertex 0.60751 -1.46666 6.35
      vertex 0.748342 -1.40005 0
      vertex 0.60751 -1.46666 0
    endloop
  endfacet
  facet normal 0.336867 0.941552 -0
    outer loop
      vertex -0.460827 -1.51914 0
      vertex -0.60751 -1.46666 6.35
      vertex -0.460827 -1.51914 6.35
    endloop
  endfacet
  facet normal 0.336867 0.941552 0
    outer loop
      vertex -0.60751 -1.46666 6.35
      vertex -0.460827 -1.51914 0
      vertex -0.60751 -1.46666 0
    endloop
  endfacet
  facet normal 0.336867 -0.941552 0
    outer loop
      vertex -0.60751 1.46666 0
      vertex -0.460827 1.51914 6.35
      vertex -0.60751 1.46666 6.35
    endloop
  endfacet
  facet normal 0.336867 -0.941552 0
    outer loop
      vertex -0.460827 1.51914 6.35
      vertex -0.60751 1.46666 0
      vertex -0.460827 1.51914 0
    endloop
  endfacet
  facet normal -0.514092 0.857735 0
    outer loop
      vertex 0.881968 -1.31996 0
      vertex 0.748342 -1.40005 6.35
      vertex 0.881968 -1.31996 6.35
    endloop
  endfacet
  facet normal -0.514092 0.857735 0
    outer loop
      vertex 0.748342 -1.40005 6.35
      vertex 0.881968 -1.31996 0
      vertex 0.748342 -1.40005 0
    endloop
  endfacet
  facet normal -0.146673 0.989185 0
    outer loop
      vertex 0.309706 -1.557 0
      vertex 0.155602 -1.57985 6.35
      vertex 0.309706 -1.557 6.35
    endloop
  endfacet
  facet normal -0.146673 0.989185 0
    outer loop
      vertex 0.155602 -1.57985 6.35
      vertex 0.309706 -1.557 0
      vertex 0.155602 -1.57985 0
    endloop
  endfacet
  facet normal -0.74095 0.67156 0
    outer loop
      vertex 1.12253 -1.12253 0
      vertex 1.22715 -1.0071 6.35
      vertex 1.22715 -1.0071 0
    endloop
  endfacet
  facet normal -0.74095 0.67156 0
    outer loop
      vertex 1.22715 -1.0071 6.35
      vertex 1.12253 -1.12253 0
      vertex 1.12253 -1.12253 6.35
    endloop
  endfacet
  facet normal -0.80319 0.595723 0
    outer loop
      vertex 1.22715 -1.0071 0
      vertex 1.31996 -0.881968 6.35
      vertex 1.31996 -0.881968 0
    endloop
  endfacet
  facet normal -0.80319 0.595723 0
    outer loop
      vertex 1.31996 -0.881968 6.35
      vertex 1.22715 -1.0071 0
      vertex 1.22715 -1.0071 6.35
    endloop
  endfacet
  facet normal 0.0491046 -0.998794 0
    outer loop
      vertex -0.155602 1.57985 0
      vertex 0 1.5875 6.35
      vertex -0.155602 1.57985 6.35
    endloop
  endfacet
  facet normal 0.0491046 -0.998794 0
    outer loop
      vertex 0 1.5875 6.35
      vertex -0.155602 1.57985 0
      vertex 0 1.5875 0
    endloop
  endfacet
  facet normal 0.427563 -0.903986 0
    outer loop
      vertex -0.748342 1.40005 0
      vertex -0.60751 1.46666 6.35
      vertex -0.748342 1.40005 6.35
    endloop
  endfacet
  facet normal 0.427563 -0.903986 0
    outer loop
      vertex -0.60751 1.46666 6.35
      vertex -0.748342 1.40005 0
      vertex -0.60751 1.46666 0
    endloop
  endfacet
  facet normal 0.595723 -0.80319 0
    outer loop
      vertex -1.0071 1.22715 0
      vertex -0.881968 1.31996 6.35
      vertex -1.0071 1.22715 6.35
    endloop
  endfacet
  facet normal 0.595723 -0.80319 0
    outer loop
      vertex -0.881968 1.31996 6.35
      vertex -1.0071 1.22715 0
      vertex -0.881968 1.31996 0
    endloop
  endfacet
  facet normal 0.989185 -0.146673 0
    outer loop
      vertex -1.57985 0.155602 6.35
      vertex -1.557 0.309706 0
      vertex -1.557 0.309706 6.35
    endloop
  endfacet
  facet normal 0.989185 -0.146673 0
    outer loop
      vertex -1.557 0.309706 0
      vertex -1.57985 0.155602 6.35
      vertex -1.57985 0.155602 0
    endloop
  endfacet
  facet normal 0.243017 0.970022 -0
    outer loop
      vertex -0.309706 -1.557 0
      vertex -0.460827 -1.51914 6.35
      vertex -0.309706 -1.557 6.35
    endloop
  endfacet
  facet normal 0.243017 0.970022 0
    outer loop
      vertex -0.460827 -1.51914 6.35
      vertex -0.309706 -1.557 0
      vertex -0.460827 -1.51914 0
    endloop
  endfacet
  facet normal -0.970022 -0.243017 0
    outer loop
      vertex 1.557 0.309706 0
      vertex 1.51914 0.460827 6.35
      vertex 1.51914 0.460827 0
    endloop
  endfacet
  facet normal -0.970022 -0.243017 0
    outer loop
      vertex 1.51914 0.460827 6.35
      vertex 1.557 0.309706 0
      vertex 1.557 0.309706 6.35
    endloop
  endfacet
  facet normal -0.80319 -0.595723 0
    outer loop
      vertex 1.31996 0.881968 0
      vertex 1.22715 1.0071 6.35
      vertex 1.22715 1.0071 0
    endloop
  endfacet
  facet normal -0.80319 -0.595723 0
    outer loop
      vertex 1.22715 1.0071 6.35
      vertex 1.31996 0.881968 0
      vertex 1.31996 0.881968 6.35
    endloop
  endfacet
  facet normal 0.80319 0.595723 0
    outer loop
      vertex -1.22715 -1.0071 6.35
      vertex -1.31996 -0.881968 0
      vertex -1.31996 -0.881968 6.35
    endloop
  endfacet
  facet normal 0.80319 0.595723 0
    outer loop
      vertex -1.31996 -0.881968 0
      vertex -1.22715 -1.0071 6.35
      vertex -1.22715 -1.0071 0
    endloop
  endfacet
  facet normal 0.903986 0.427563 0
    outer loop
      vertex -1.40005 -0.748342 6.35
      vertex -1.46666 -0.60751 0
      vertex -1.46666 -0.60751 6.35
    endloop
  endfacet
  facet normal 0.903986 0.427563 0
    outer loop
      vertex -1.46666 -0.60751 0
      vertex -1.40005 -0.748342 6.35
      vertex -1.40005 -0.748342 0
    endloop
  endfacet
  facet normal -0.146673 -0.989185 0
    outer loop
      vertex 0.155602 1.57985 0
      vertex 0.309706 1.557 6.35
      vertex 0.155602 1.57985 6.35
    endloop
  endfacet
  facet normal -0.146673 -0.989185 -0
    outer loop
      vertex 0.309706 1.557 6.35
      vertex 0.155602 1.57985 0
      vertex 0.309706 1.557 0
    endloop
  endfacet
  facet normal 0.427563 0.903986 -0
    outer loop
      vertex -0.60751 -1.46666 0
      vertex -0.748342 -1.40005 6.35
      vertex -0.60751 -1.46666 6.35
    endloop
  endfacet
  facet normal 0.427563 0.903986 0
    outer loop
      vertex -0.748342 -1.40005 6.35
      vertex -0.60751 -1.46666 0
      vertex -0.748342 -1.40005 0
    endloop
  endfacet
  facet normal -0.595723 0.80319 0
    outer loop
      vertex 1.0071 -1.22715 0
      vertex 0.881968 -1.31996 6.35
      vertex 1.0071 -1.22715 6.35
    endloop
  endfacet
  facet normal -0.595723 0.80319 0
    outer loop
      vertex 0.881968 -1.31996 6.35
      vertex 1.0071 -1.22715 0
      vertex 0.881968 -1.31996 0
    endloop
  endfacet
  facet normal -0.998794 0.0491046 0
    outer loop
      vertex 1.57985 -0.155602 0
      vertex 1.5875 0 6.35
      vertex 1.5875 0 0
    endloop
  endfacet
  facet normal -0.998794 0.0491046 0
    outer loop
      vertex 1.5875 0 6.35
      vertex 1.57985 -0.155602 0
      vertex 1.57985 -0.155602 6.35
    endloop
  endfacet
  facet normal 0.146673 -0.989185 0
    outer loop
      vertex -0.309706 1.557 0
      vertex -0.155602 1.57985 6.35
      vertex -0.309706 1.557 6.35
    endloop
  endfacet
  facet normal 0.146673 -0.989185 0
    outer loop
      vertex -0.155602 1.57985 6.35
      vertex -0.309706 1.557 0
      vertex -0.155602 1.57985 0
    endloop
  endfacet
  facet normal 0.989185 0.146673 0
    outer loop
      vertex -1.557 -0.309706 6.35
      vertex -1.57985 -0.155602 0
      vertex -1.57985 -0.155602 6.35
    endloop
  endfacet
  facet normal 0.989185 0.146673 0
    outer loop
      vertex -1.57985 -0.155602 0
      vertex -1.557 -0.309706 6.35
      vertex -1.557 -0.309706 0
    endloop
  endfacet
  facet normal -0.336867 0.941552 0
    outer loop
      vertex 0.60751 -1.46666 0
      vertex 0.460827 -1.51914 6.35
      vertex 0.60751 -1.46666 6.35
    endloop
  endfacet
  facet normal -0.336867 0.941552 0
    outer loop
      vertex 0.460827 -1.51914 6.35
      vertex 0.60751 -1.46666 0
      vertex 0.460827 -1.51914 0
    endloop
  endfacet
  facet normal -0.243017 0.970022 0
    outer loop
      vertex 0.460827 -1.51914 0
      vertex 0.309706 -1.557 6.35
      vertex 0.460827 -1.51914 6.35
    endloop
  endfacet
  facet normal -0.243017 0.970022 0
    outer loop
      vertex 0.309706 -1.557 6.35
      vertex 0.460827 -1.51914 0
      vertex 0.309706 -1.557 0
    endloop
  endfacet
  facet normal 0.903986 -0.427563 0
    outer loop
      vertex -1.46666 0.60751 6.35
      vertex -1.40005 0.748342 0
      vertex -1.40005 0.748342 6.35
    endloop
  endfacet
  facet normal 0.903986 -0.427563 0
    outer loop
      vertex -1.40005 0.748342 0
      vertex -1.46666 0.60751 6.35
      vertex -1.46666 0.60751 0
    endloop
  endfacet
  facet normal 0.74095 0.67156 0
    outer loop
      vertex -1.12253 -1.12253 6.35
      vertex -1.22715 -1.0071 0
      vertex -1.22715 -1.0071 6.35
    endloop
  endfacet
  facet normal 0.74095 0.67156 0
    outer loop
      vertex -1.22715 -1.0071 0
      vertex -1.12253 -1.12253 6.35
      vertex -1.12253 -1.12253 0
    endloop
  endfacet
  facet normal 0.595723 0.80319 -0
    outer loop
      vertex -0.881968 -1.31996 0
      vertex -1.0071 -1.22715 6.35
      vertex -0.881968 -1.31996 6.35
    endloop
  endfacet
  facet normal 0.595723 0.80319 0
    outer loop
      vertex -1.0071 -1.22715 6.35
      vertex -0.881968 -1.31996 0
      vertex -1.0071 -1.22715 0
    endloop
  endfacet
  facet normal -0.903986 0.427563 0
    outer loop
      vertex 1.40005 -0.748342 0
      vertex 1.46666 -0.60751 6.35
      vertex 1.46666 -0.60751 0
    endloop
  endfacet
  facet normal -0.903986 0.427563 0
    outer loop
      vertex 1.46666 -0.60751 6.35
      vertex 1.40005 -0.748342 0
      vertex 1.40005 -0.748342 6.35
    endloop
  endfacet
  facet normal -0.857735 0.514092 0
    outer loop
      vertex 1.31996 -0.881968 0
      vertex 1.40005 -0.748342 6.35
      vertex 1.40005 -0.748342 0
    endloop
  endfacet
  facet normal -0.857735 0.514092 0
    outer loop
      vertex 1.40005 -0.748342 6.35
      vertex 1.31996 -0.881968 0
      vertex 1.31996 -0.881968 6.35
    endloop
  endfacet
  facet normal 0.74095 -0.67156 0
    outer loop
      vertex -1.22715 1.0071 6.35
      vertex -1.12253 1.12253 0
      vertex -1.12253 1.12253 6.35
    endloop
  endfacet
  facet normal 0.74095 -0.67156 0
    outer loop
      vertex -1.12253 1.12253 0
      vertex -1.22715 1.0071 6.35
      vertex -1.22715 1.0071 0
    endloop
  endfacet
  facet normal 0.0491046 0.998794 -0
    outer loop
      vertex 0 -1.5875 0
      vertex -0.155602 -1.57985 6.35
      vertex 0 -1.5875 6.35
    endloop
  endfacet
  facet normal 0.0491046 0.998794 0
    outer loop
      vertex -0.155602 -1.57985 6.35
      vertex 0 -1.5875 0
      vertex -0.155602 -1.57985 0
    endloop
  endfacet
  facet normal 0.998794 -0.0491046 0
    outer loop
      vertex -1.5875 0 6.35
      vertex -1.57985 0.155602 0
      vertex -1.57985 0.155602 6.35
    endloop
  endfacet
  facet normal 0.998794 -0.0491046 0
    outer loop
      vertex -1.57985 0.155602 0
      vertex -1.5875 0 6.35
      vertex -1.5875 0 0
    endloop
  endfacet
  facet normal -0.67156 0.74095 0
    outer loop
      vertex 1.12253 -1.12253 0
      vertex 1.0071 -1.22715 6.35
      vertex 1.12253 -1.12253 6.35
    endloop
  endfacet
  facet normal -0.67156 0.74095 0
    outer loop
      vertex 1.0071 -1.22715 6.35
      vertex 1.12253 -1.12253 0
      vertex 1.0071 -1.22715 0
    endloop
  endfacet
endsolid OpenSCAD_Model
