solid OpenSCAD_Model
  facet normal 1 -0 0
    outer loop
      vertex 13.5 -23.4 9.75
      vertex 13.5 23.4 1.5
      vertex 13.5 23.4 9.75
    endloop
  endfacet
  facet normal 1 0 0
    outer loop
      vertex 13.5 23.4 1.5
      vertex 13.5 -23.4 9.75
      vertex 13.5 -23.4 1.5
    endloop
  endfacet
  facet normal -0 0 1
    outer loop
      vertex -13.5 23.4 9.75
      vertex 13.5 -23.4 9.75
      vertex 13.5 23.4 9.75
    endloop
  endfacet
  facet normal 0 0 1
    outer loop
      vertex 13.5 -23.4 9.75
      vertex -13.5 23.4 9.75
      vertex -13.5 -23.4 9.75
    endloop
  endfacet
  facet normal -1 0 0
    outer loop
      vertex -13.5 0 1.5
      vertex -13.5 23.4 9.75
      vertex -13.5 23.4 1.5
    endloop
  endfacet
  facet normal -1 0 0
    outer loop
      vertex -13.5 -23.4 9.75
      vertex -13.5 0 1.5
      vertex -13.5 -23.4 1.5
    endloop
  endfacet
  facet normal -1 0 0
    outer loop
      vertex -13.5 0 1.5
      vertex -13.5 -23.4 9.75
      vertex -13.5 23.4 9.75
    endloop
  endfacet
  facet normal 0 1 -0
    outer loop
      vertex 13.5 23.4 1.5
      vertex -13.5 23.4 9.75
      vertex 13.5 23.4 9.75
    endloop
  endfacet
  facet normal 0 1 0
    outer loop
      vertex -13.5 23.4 9.75
      vertex 13.5 23.4 1.5
      vertex -13.5 23.4 1.5
    endloop
  endfacet
  facet normal 0 -1 0
    outer loop
      vertex 0 -23.4 1.5
      vertex -13.5 -23.4 9.75
      vertex -13.5 -23.4 1.5
    endloop
  endfacet
  facet normal 0 -1 0
    outer loop
      vertex -13.5 -23.4 9.75
      vertex 0 -23.4 1.5
      vertex 13.5 -23.4 9.75
    endloop
  endfacet
  facet normal 0 -1 -0
    outer loop
      vertex 13.5 -23.4 9.75
      vertex 0 -23.4 1.5
      vertex 13.5 -23.4 1.5
    endloop
  endfacet
  facet normal 0 0 -1
    outer loop
      vertex 0 0 1.5
      vertex 13.5 -23.4 1.5
      vertex 0 -23.4 1.5
    endloop
  endfacet
  facet normal 0 0 -1
    outer loop
      vertex 13.5 -23.4 1.5
      vertex 0 0 1.5
      vertex 13.5 23.4 1.5
    endloop
  endfacet
  facet normal 0 0 -1
    outer loop
      vertex -13.5 23.4 1.5
      vertex 0 0 1.5
      vertex -13.5 0 1.5
    endloop
  endfacet
  facet normal 0 0 -1
    outer loop
      vertex 0 0 1.5
      vertex -13.5 23.4 1.5
      vertex 13.5 23.4 1.5
    endloop
  endfacet
  facet normal -0 0 1
    outer loop
      vertex -15.0646 -19.5646 1.5
      vertex -13.5 -23.4 1.5
      vertex -13.5 0 1.5
    endloop
  endfacet
  facet normal 0 0 1
    outer loop
      vertex -13.5 -23.4 1.5
      vertex -15.0072 -19.853 1.5
      vertex -15 -20 1.5
    endloop
  endfacet
  facet normal 0 0 1
    outer loop
      vertex -13.5 -23.4 1.5
      vertex -15.0288 -19.7074 1.5
      vertex -15.0072 -19.853 1.5
    endloop
  endfacet
  facet normal 0 0 1
    outer loop
      vertex -13.5 -23.4 1.5
      vertex -15.0646 -19.5646 1.5
      vertex -15.0288 -19.7074 1.5
    endloop
  endfacet
  facet normal 0 0 1
    outer loop
      vertex -13.5 0 1.5
      vertex -15.1142 -19.426 1.5
      vertex -15.0646 -19.5646 1.5
    endloop
  endfacet
  facet normal 0 0 1
    outer loop
      vertex -13.5 0 1.5
      vertex -15.1771 -19.2929 1.5
      vertex -15.1142 -19.426 1.5
    endloop
  endfacet
  facet normal 0 0 1
    outer loop
      vertex -13.5 0 1.5
      vertex -15.2528 -19.1666 1.5
      vertex -15.1771 -19.2929 1.5
    endloop
  endfacet
  facet normal 0 0 1
    outer loop
      vertex -13.5 0 1.5
      vertex -15.3405 -19.0484 1.5
      vertex -15.2528 -19.1666 1.5
    endloop
  endfacet
  facet normal 0 0 1
    outer loop
      vertex -13.5 0 1.5
      vertex -15.4393 -18.9393 1.5
      vertex -15.3405 -19.0484 1.5
    endloop
  endfacet
  facet normal 0 0 1
    outer loop
      vertex -13.5 0 1.5
      vertex -15.5484 -18.8405 1.5
      vertex -15.4393 -18.9393 1.5
    endloop
  endfacet
  facet normal 0 0 1
    outer loop
      vertex -13.5 0 1.5
      vertex -15.6666 -18.7528 1.5
      vertex -15.5484 -18.8405 1.5
    endloop
  endfacet
  facet normal 0 0 1
    outer loop
      vertex -13.5 0 1.5
      vertex -15.7929 -18.6771 1.5
      vertex -15.6666 -18.7528 1.5
    endloop
  endfacet
  facet normal 0 0 1
    outer loop
      vertex -13.5 0 1.5
      vertex -15.926 -18.6142 1.5
      vertex -15.7929 -18.6771 1.5
    endloop
  endfacet
  facet normal 0 0 1
    outer loop
      vertex -13.5 0 1.5
      vertex -16.0646 -18.5646 1.5
      vertex -15.926 -18.6142 1.5
    endloop
  endfacet
  facet normal 0 0 1
    outer loop
      vertex -13.5 0 1.5
      vertex -16.2074 -18.5288 1.5
      vertex -16.0646 -18.5646 1.5
    endloop
  endfacet
  facet normal 0 0 1
    outer loop
      vertex -13.5 0 1.5
      vertex -16.353 -18.5072 1.5
      vertex -16.2074 -18.5288 1.5
    endloop
  endfacet
  facet normal 0 0 1
    outer loop
      vertex -13.5 0 1.5
      vertex -16.5 -18.5 1.5
      vertex -16.353 -18.5072 1.5
    endloop
  endfacet
  facet normal 0 0 1
    outer loop
      vertex -13.5 0 1.5
      vertex -16.647 -18.5072 1.5
      vertex -16.5 -18.5 1.5
    endloop
  endfacet
  facet normal 0 0 1
    outer loop
      vertex -13.5 0 1.5
      vertex -16.7926 -18.5288 1.5
      vertex -16.647 -18.5072 1.5
    endloop
  endfacet
  facet normal 0 0 1
    outer loop
      vertex -13.5 0 1.5
      vertex -16.9354 -18.5646 1.5
      vertex -16.7926 -18.5288 1.5
    endloop
  endfacet
  facet normal 0 0 1
    outer loop
      vertex -13.5 0 1.5
      vertex -17.074 -18.6142 1.5
      vertex -16.9354 -18.5646 1.5
    endloop
  endfacet
  facet normal 0 0 1
    outer loop
      vertex -13.5 0 1.5
      vertex -17.2071 -18.6771 1.5
      vertex -17.074 -18.6142 1.5
    endloop
  endfacet
  facet normal -0 0 1
    outer loop
      vertex -33 0 1.5
      vertex -17.2071 -18.6771 1.5
      vertex -13.5 0 1.5
    endloop
  endfacet
  facet normal 0 0 1
    outer loop
      vertex -17.2071 -18.6771 1.5
      vertex -33 0 1.5
      vertex -17.3334 -18.7528 1.5
    endloop
  endfacet
  facet normal 0 0 1
    outer loop
      vertex -17.3334 -18.7528 1.5
      vertex -33 0 1.5
      vertex -17.4516 -18.8405 1.5
    endloop
  endfacet
  facet normal 0 0 1
    outer loop
      vertex -17.4516 -18.8405 1.5
      vertex -33 0 1.5
      vertex -17.5607 -18.9393 1.5
    endloop
  endfacet
  facet normal 0 0 1
    outer loop
      vertex -17.5607 -18.9393 1.5
      vertex -33 0 1.5
      vertex -17.6595 -19.0484 1.5
    endloop
  endfacet
  facet normal 0 0 1
    outer loop
      vertex -17.6595 -19.0484 1.5
      vertex -33 0 1.5
      vertex -17.7472 -19.1666 1.5
    endloop
  endfacet
  facet normal 0 0 1
    outer loop
      vertex -17.7472 -19.1666 1.5
      vertex -33 0 1.5
      vertex -17.8229 -19.2929 1.5
    endloop
  endfacet
  facet normal 0 0 1
    outer loop
      vertex -17.8229 -19.2929 1.5
      vertex -33 0 1.5
      vertex -17.8858 -19.426 1.5
    endloop
  endfacet
  facet normal 0 0 1
    outer loop
      vertex -17.8858 -19.426 1.5
      vertex -33 0 1.5
      vertex -17.9354 -19.5646 1.5
    endloop
  endfacet
  facet normal 0 0 1
    outer loop
      vertex -17.9928 -19.853 1.5
      vertex -33 0 1.5
      vertex -18 -20 1.5
    endloop
  endfacet
  facet normal 0 0 1
    outer loop
      vertex -17.9712 -19.7074 1.5
      vertex -33 0 1.5
      vertex -17.9928 -19.853 1.5
    endloop
  endfacet
  facet normal 0 0 1
    outer loop
      vertex -17.9354 -19.5646 1.5
      vertex -33 0 1.5
      vertex -17.9712 -19.7074 1.5
    endloop
  endfacet
  facet normal -0 0 1
    outer loop
      vertex -13.5 -23.4 1.5
      vertex 0 -57 1.5
      vertex 0 -23.4 1.5
    endloop
  endfacet
  facet normal -0 0 1
    outer loop
      vertex -15.0072 -20.147 1.5
      vertex -13.5 -23.4 1.5
      vertex -15 -20 1.5
    endloop
  endfacet
  facet normal -0 0 1
    outer loop
      vertex -15.0288 -20.2926 1.5
      vertex -13.5 -23.4 1.5
      vertex -15.0072 -20.147 1.5
    endloop
  endfacet
  facet normal -0 0 1
    outer loop
      vertex -15.0646 -20.4354 1.5
      vertex -13.5 -23.4 1.5
      vertex -15.0288 -20.2926 1.5
    endloop
  endfacet
  facet normal -0 0 1
    outer loop
      vertex -15.1142 -20.574 1.5
      vertex -13.5 -23.4 1.5
      vertex -15.0646 -20.4354 1.5
    endloop
  endfacet
  facet normal -0 0 1
    outer loop
      vertex -15.1771 -20.7071 1.5
      vertex -13.5 -23.4 1.5
      vertex -15.1142 -20.574 1.5
    endloop
  endfacet
  facet normal -0 0 1
    outer loop
      vertex -15.2528 -20.8334 1.5
      vertex -13.5 -23.4 1.5
      vertex -15.1771 -20.7071 1.5
    endloop
  endfacet
  facet normal -0 0 1
    outer loop
      vertex -15.3405 -20.9516 1.5
      vertex -13.5 -23.4 1.5
      vertex -15.2528 -20.8334 1.5
    endloop
  endfacet
  facet normal -0 0 1
    outer loop
      vertex -15.4393 -21.0607 1.5
      vertex -13.5 -23.4 1.5
      vertex -15.3405 -20.9516 1.5
    endloop
  endfacet
  facet normal -0 0 1
    outer loop
      vertex -15.5484 -21.1595 1.5
      vertex -13.5 -23.4 1.5
      vertex -15.4393 -21.0607 1.5
    endloop
  endfacet
  facet normal -0 0 1
    outer loop
      vertex -15.6666 -21.2472 1.5
      vertex -13.5 -23.4 1.5
      vertex -15.5484 -21.1595 1.5
    endloop
  endfacet
  facet normal -0 0 1
    outer loop
      vertex -15.7929 -21.3229 1.5
      vertex -13.5 -23.4 1.5
      vertex -15.6666 -21.2472 1.5
    endloop
  endfacet
  facet normal -0 0 1
    outer loop
      vertex -15.926 -21.3858 1.5
      vertex -13.5 -23.4 1.5
      vertex -15.7929 -21.3229 1.5
    endloop
  endfacet
  facet normal -0 0 1
    outer loop
      vertex -16.0646 -21.4354 1.5
      vertex -13.5 -23.4 1.5
      vertex -15.926 -21.3858 1.5
    endloop
  endfacet
  facet normal -0 0 1
    outer loop
      vertex -16.2074 -21.4712 1.5
      vertex -13.5 -23.4 1.5
      vertex -16.0646 -21.4354 1.5
    endloop
  endfacet
  facet normal -0 0 1
    outer loop
      vertex -16.353 -21.4928 1.5
      vertex -13.5 -23.4 1.5
      vertex -16.2074 -21.4712 1.5
    endloop
  endfacet
  facet normal -0 0 1
    outer loop
      vertex -16.5 -21.5 1.5
      vertex -13.5 -23.4 1.5
      vertex -16.353 -21.4928 1.5
    endloop
  endfacet
  facet normal 0 0 1
    outer loop
      vertex -16.647 -21.4928 1.5
      vertex -13.5 -23.4 1.5
      vertex -16.5 -21.5 1.5
    endloop
  endfacet
  facet normal 0 0 1
    outer loop
      vertex -16.7926 -21.4712 1.5
      vertex -13.5 -23.4 1.5
      vertex -16.647 -21.4928 1.5
    endloop
  endfacet
  facet normal 0 0 1
    outer loop
      vertex -16.9354 -21.4354 1.5
      vertex -13.5 -23.4 1.5
      vertex -16.7926 -21.4712 1.5
    endloop
  endfacet
  facet normal 0 0 1
    outer loop
      vertex -17.074 -21.3858 1.5
      vertex -13.5 -23.4 1.5
      vertex -16.9354 -21.4354 1.5
    endloop
  endfacet
  facet normal 0 0 1
    outer loop
      vertex -13.5 -23.4 1.5
      vertex -17.074 -21.3858 1.5
      vertex -33 -57 1.5
    endloop
  endfacet
  facet normal 0 0 1
    outer loop
      vertex -33 -57 1.5
      vertex -17.074 -21.3858 1.5
      vertex -17.2071 -21.3229 1.5
    endloop
  endfacet
  facet normal 0 0 1
    outer loop
      vertex -33 -57 1.5
      vertex -17.2071 -21.3229 1.5
      vertex -17.3334 -21.2472 1.5
    endloop
  endfacet
  facet normal 0 0 1
    outer loop
      vertex -33 -57 1.5
      vertex -17.3334 -21.2472 1.5
      vertex -17.4516 -21.1595 1.5
    endloop
  endfacet
  facet normal 0 0 1
    outer loop
      vertex -33 -57 1.5
      vertex -17.4516 -21.1595 1.5
      vertex -17.5607 -21.0607 1.5
    endloop
  endfacet
  facet normal 0 0 1
    outer loop
      vertex -33 -57 1.5
      vertex -17.5607 -21.0607 1.5
      vertex -17.6595 -20.9516 1.5
    endloop
  endfacet
  facet normal 0 0 1
    outer loop
      vertex -33 -57 1.5
      vertex -17.6595 -20.9516 1.5
      vertex -17.7472 -20.8334 1.5
    endloop
  endfacet
  facet normal 0 0 1
    outer loop
      vertex -33 -57 1.5
      vertex -17.7472 -20.8334 1.5
      vertex -17.8229 -20.7071 1.5
    endloop
  endfacet
  facet normal 0 0 1
    outer loop
      vertex -33 0 1.5
      vertex -17.9928 -20.147 1.5
      vertex -18 -20 1.5
    endloop
  endfacet
  facet normal 0 0 1
    outer loop
      vertex -33 0 1.5
      vertex -17.9712 -20.2926 1.5
      vertex -17.9928 -20.147 1.5
    endloop
  endfacet
  facet normal 0 0 1
    outer loop
      vertex -33 0 1.5
      vertex -17.9354 -20.4354 1.5
      vertex -17.9712 -20.2926 1.5
    endloop
  endfacet
  facet normal 0 0 1
    outer loop
      vertex -33 -57 1.5
      vertex -17.9354 -20.4354 1.5
      vertex -33 0 1.5
    endloop
  endfacet
  facet normal 0 0 1
    outer loop
      vertex -17.9354 -20.4354 1.5
      vertex -33 -57 1.5
      vertex -17.8858 -20.574 1.5
    endloop
  endfacet
  facet normal 0 0 1
    outer loop
      vertex -17.8858 -20.574 1.5
      vertex -33 -57 1.5
      vertex -17.8229 -20.7071 1.5
    endloop
  endfacet
  facet normal 0 0 1
    outer loop
      vertex -13.5 -23.4 1.5
      vertex -33 -57 1.5
      vertex 0 -57 1.5
    endloop
  endfacet
  facet normal 1 -0 0
    outer loop
      vertex 0 -23.4 1.5
      vertex 0 0 -1.5
      vertex 0 0 1.5
    endloop
  endfacet
  facet normal 1 0 0
    outer loop
      vertex 0 -57 -1.5
      vertex 0 -23.4 1.5
      vertex 0 -57 1.5
    endloop
  endfacet
  facet normal 1 0 0
    outer loop
      vertex 0 -23.4 1.5
      vertex 0 -57 -1.5
      vertex 0 0 -1.5
    endloop
  endfacet
  facet normal 0 0 -1
    outer loop
      vertex -33 -57 -1.5
      vertex 0 0 -1.5
      vertex 0 -57 -1.5
    endloop
  endfacet
  facet normal -0 0 -1
    outer loop
      vertex 0 0 -1.5
      vertex -33 -57 -1.5
      vertex -33 0 -1.5
    endloop
  endfacet
  facet normal -1 0 0
    outer loop
      vertex -33 -57 -1.5
      vertex -33 0 1.5
      vertex -33 0 -1.5
    endloop
  endfacet
  facet normal -1 -0 0
    outer loop
      vertex -33 0 1.5
      vertex -33 -57 -1.5
      vertex -33 -57 1.5
    endloop
  endfacet
  facet normal 0 1 -0
    outer loop
      vertex 0 0 -1.5
      vertex -13.5 0 1.5
      vertex 0 0 1.5
    endloop
  endfacet
  facet normal 0 1 0
    outer loop
      vertex -33 0 -1.5
      vertex -13.5 0 1.5
      vertex 0 0 -1.5
    endloop
  endfacet
  facet normal 0 1 0
    outer loop
      vertex -13.5 0 1.5
      vertex -33 0 -1.5
      vertex -33 0 1.5
    endloop
  endfacet
  facet normal 0 -1 0
    outer loop
      vertex -33 -57 -1.5
      vertex 0 -57 1.5
      vertex -33 -57 1.5
    endloop
  endfacet
  facet normal 0 -1 -0
    outer loop
      vertex 0 -57 1.5
      vertex -33 -57 -1.5
      vertex 0 -57 -1.5
    endloop
  endfacet
  facet normal 0.989174 0.146746 0
    outer loop
      vertex -15.0072 -19.853 3
      vertex -15.0288 -19.7074 1.5
      vertex -15.0288 -19.7074 3
    endloop
  endfacet
  facet normal 0.989174 0.146746 0
    outer loop
      vertex -15.0288 -19.7074 1.5
      vertex -15.0072 -19.853 3
      vertex -15.0072 -19.853 1.5
    endloop
  endfacet
  facet normal 0.998803 0.0489209 0
    outer loop
      vertex -15 -20 3
      vertex -15.0072 -19.853 1.5
      vertex -15.0072 -19.853 3
    endloop
  endfacet
  facet normal 0.998803 0.0489209 0
    outer loop
      vertex -15.0072 -19.853 1.5
      vertex -15 -20 3
      vertex -15 -20 1.5
    endloop
  endfacet
  facet normal 0.969982 0.243175 0
    outer loop
      vertex -15.0288 -19.7074 3
      vertex -15.0646 -19.5646 1.5
      vertex -15.0646 -19.5646 3
    endloop
  endfacet
  facet normal 0.969982 0.243175 0
    outer loop
      vertex -15.0646 -19.5646 1.5
      vertex -15.0288 -19.7074 3
      vertex -15.0288 -19.7074 1.5
    endloop
  endfacet
  facet normal -0.671251 0.74123 0
    outer loop
      vertex -17.4516 -18.8405 1.5
      vertex -17.5607 -18.9393 3
      vertex -17.4516 -18.8405 3
    endloop
  endfacet
  facet normal -0.671251 0.74123 0
    outer loop
      vertex -17.5607 -18.9393 3
      vertex -17.4516 -18.8405 1.5
      vertex -17.5607 -18.9393 1.5
    endloop
  endfacet
  facet normal -0.427269 -0.904125 0
    outer loop
      vertex -17.2071 -21.3229 1.5
      vertex -17.074 -21.3858 3
      vertex -17.2071 -21.3229 3
    endloop
  endfacet
  facet normal -0.427269 -0.904125 -0
    outer loop
      vertex -17.074 -21.3858 3
      vertex -17.2071 -21.3229 1.5
      vertex -17.074 -21.3858 1.5
    endloop
  endfacet
  facet normal 0.336939 0.941527 -0
    outer loop
      vertex -15.926 -18.6142 1.5
      vertex -16.0646 -18.5646 3
      vertex -15.926 -18.6142 3
    endloop
  endfacet
  facet normal 0.336939 0.941527 0
    outer loop
      vertex -16.0646 -18.5646 3
      vertex -15.926 -18.6142 1.5
      vertex -16.0646 -18.5646 1.5
    endloop
  endfacet
  facet normal -0.941527 0.336939 0
    outer loop
      vertex -17.9354 -19.5646 1.5
      vertex -17.8858 -19.426 3
      vertex -17.8858 -19.426 1.5
    endloop
  endfacet
  facet normal -0.941527 0.336939 0
    outer loop
      vertex -17.8858 -19.426 3
      vertex -17.9354 -19.5646 1.5
      vertex -17.9354 -19.5646 3
    endloop
  endfacet
  facet normal -0.969982 -0.243175 0
    outer loop
      vertex -17.9354 -20.4354 1.5
      vertex -17.9712 -20.2926 3
      vertex -17.9712 -20.2926 1.5
    endloop
  endfacet
  facet normal -0.969982 -0.243175 0
    outer loop
      vertex -17.9712 -20.2926 3
      vertex -17.9354 -20.4354 1.5
      vertex -17.9354 -20.4354 3
    endloop
  endfacet
  facet normal 0.336939 -0.941527 0
    outer loop
      vertex -16.0646 -21.4354 1.5
      vertex -15.926 -21.3858 3
      vertex -16.0646 -21.4354 3
    endloop
  endfacet
  facet normal 0.336939 -0.941527 0
    outer loop
      vertex -15.926 -21.3858 3
      vertex -16.0646 -21.4354 1.5
      vertex -15.926 -21.3858 1.5
    endloop
  endfacet
  facet normal 0.514096 -0.857733 0
    outer loop
      vertex -15.7929 -21.3229 1.5
      vertex -15.6666 -21.2472 3
      vertex -15.7929 -21.3229 3
    endloop
  endfacet
  facet normal 0.514096 -0.857733 0
    outer loop
      vertex -15.6666 -21.2472 3
      vertex -15.7929 -21.3229 1.5
      vertex -15.6666 -21.2472 1.5
    endloop
  endfacet
  facet normal -0.336939 0.941527 0
    outer loop
      vertex -16.9354 -18.5646 1.5
      vertex -17.074 -18.6142 3
      vertex -16.9354 -18.5646 3
    endloop
  endfacet
  facet normal -0.336939 0.941527 0
    outer loop
      vertex -17.074 -18.6142 3
      vertex -16.9354 -18.5646 1.5
      vertex -17.074 -18.6142 1.5
    endloop
  endfacet
  facet normal -0.595861 0.803088 0
    outer loop
      vertex -17.3334 -18.7528 1.5
      vertex -17.4516 -18.8405 3
      vertex -17.3334 -18.7528 3
    endloop
  endfacet
  facet normal -0.595861 0.803088 0
    outer loop
      vertex -17.4516 -18.8405 3
      vertex -17.3334 -18.7528 1.5
      vertex -17.4516 -18.8405 1.5
    endloop
  endfacet
  facet normal 0.243175 -0.969982 0
    outer loop
      vertex -16.2074 -21.4712 1.5
      vertex -16.0646 -21.4354 3
      vertex -16.2074 -21.4712 3
    endloop
  endfacet
  facet normal 0.243175 -0.969982 0
    outer loop
      vertex -16.0646 -21.4354 3
      vertex -16.2074 -21.4712 1.5
      vertex -16.0646 -21.4354 1.5
    endloop
  endfacet
  facet normal 0.146746 -0.989174 0
    outer loop
      vertex -16.353 -21.4928 1.5
      vertex -16.2074 -21.4712 3
      vertex -16.353 -21.4928 3
    endloop
  endfacet
  facet normal 0.146746 -0.989174 0
    outer loop
      vertex -16.2074 -21.4712 3
      vertex -16.353 -21.4928 1.5
      vertex -16.2074 -21.4712 1.5
    endloop
  endfacet
  facet normal -0.243175 -0.969982 0
    outer loop
      vertex -16.9354 -21.4354 1.5
      vertex -16.7926 -21.4712 3
      vertex -16.9354 -21.4354 3
    endloop
  endfacet
  facet normal -0.243175 -0.969982 -0
    outer loop
      vertex -16.7926 -21.4712 3
      vertex -16.9354 -21.4354 1.5
      vertex -16.7926 -21.4712 1.5
    endloop
  endfacet
  facet normal -0.0489209 0.998803 0
    outer loop
      vertex -16.5 -18.5 1.5
      vertex -16.647 -18.5072 3
      vertex -16.5 -18.5 3
    endloop
  endfacet
  facet normal -0.0489209 0.998803 0
    outer loop
      vertex -16.647 -18.5072 3
      vertex -16.5 -18.5 1.5
      vertex -16.647 -18.5072 1.5
    endloop
  endfacet
  facet normal 0.803088 -0.595861 0
    outer loop
      vertex -15.3405 -20.9516 3
      vertex -15.2528 -20.8334 1.5
      vertex -15.2528 -20.8334 3
    endloop
  endfacet
  facet normal 0.803088 -0.595861 0
    outer loop
      vertex -15.2528 -20.8334 1.5
      vertex -15.3405 -20.9516 3
      vertex -15.3405 -20.9516 1.5
    endloop
  endfacet
  facet normal 0.427269 -0.904125 0
    outer loop
      vertex -15.926 -21.3858 1.5
      vertex -15.7929 -21.3229 3
      vertex -15.926 -21.3858 3
    endloop
  endfacet
  facet normal 0.427269 -0.904125 0
    outer loop
      vertex -15.7929 -21.3229 3
      vertex -15.926 -21.3858 1.5
      vertex -15.7929 -21.3229 1.5
    endloop
  endfacet
  facet normal -0.989174 0.146746 0
    outer loop
      vertex -17.9928 -19.853 1.5
      vertex -17.9712 -19.7074 3
      vertex -17.9712 -19.7074 1.5
    endloop
  endfacet
  facet normal -0.989174 0.146746 0
    outer loop
      vertex -17.9712 -19.7074 3
      vertex -17.9928 -19.853 1.5
      vertex -17.9928 -19.853 3
    endloop
  endfacet
  facet normal -0.941527 -0.336939 0
    outer loop
      vertex -17.8858 -20.574 1.5
      vertex -17.9354 -20.4354 3
      vertex -17.9354 -20.4354 1.5
    endloop
  endfacet
  facet normal -0.941527 -0.336939 0
    outer loop
      vertex -17.9354 -20.4354 3
      vertex -17.8858 -20.574 1.5
      vertex -17.8858 -20.574 3
    endloop
  endfacet
  facet normal -0.514096 0.857733 0
    outer loop
      vertex -17.2071 -18.6771 1.5
      vertex -17.3334 -18.7528 3
      vertex -17.2071 -18.6771 3
    endloop
  endfacet
  facet normal -0.514096 0.857733 0
    outer loop
      vertex -17.3334 -18.7528 3
      vertex -17.2071 -18.6771 1.5
      vertex -17.3334 -18.7528 1.5
    endloop
  endfacet
  facet normal 0.989174 -0.146746 0
    outer loop
      vertex -15.0288 -20.2926 3
      vertex -15.0072 -20.147 1.5
      vertex -15.0072 -20.147 3
    endloop
  endfacet
  facet normal 0.989174 -0.146746 0
    outer loop
      vertex -15.0072 -20.147 1.5
      vertex -15.0288 -20.2926 3
      vertex -15.0288 -20.2926 1.5
    endloop
  endfacet
  facet normal -0.146746 -0.989174 0
    outer loop
      vertex -16.7926 -21.4712 1.5
      vertex -16.647 -21.4928 3
      vertex -16.7926 -21.4712 3
    endloop
  endfacet
  facet normal -0.146746 -0.989174 -0
    outer loop
      vertex -16.647 -21.4928 3
      vertex -16.7926 -21.4712 1.5
      vertex -16.647 -21.4928 1.5
    endloop
  endfacet
  facet normal 0.595861 -0.803088 0
    outer loop
      vertex -15.6666 -21.2472 1.5
      vertex -15.5484 -21.1595 3
      vertex -15.6666 -21.2472 3
    endloop
  endfacet
  facet normal 0.595861 -0.803088 0
    outer loop
      vertex -15.5484 -21.1595 3
      vertex -15.6666 -21.2472 1.5
      vertex -15.5484 -21.1595 1.5
    endloop
  endfacet
  facet normal -0.146746 0.989174 0
    outer loop
      vertex -16.647 -18.5072 1.5
      vertex -16.7926 -18.5288 3
      vertex -16.647 -18.5072 3
    endloop
  endfacet
  facet normal -0.146746 0.989174 0
    outer loop
      vertex -16.7926 -18.5288 3
      vertex -16.647 -18.5072 1.5
      vertex -16.7926 -18.5288 1.5
    endloop
  endfacet
  facet normal 0.427269 0.904125 -0
    outer loop
      vertex -15.7929 -18.6771 1.5
      vertex -15.926 -18.6142 3
      vertex -15.7929 -18.6771 3
    endloop
  endfacet
  facet normal 0.427269 0.904125 0
    outer loop
      vertex -15.926 -18.6142 3
      vertex -15.7929 -18.6771 1.5
      vertex -15.926 -18.6142 1.5
    endloop
  endfacet
  facet normal 0.969982 -0.243175 0
    outer loop
      vertex -15.0646 -20.4354 3
      vertex -15.0288 -20.2926 1.5
      vertex -15.0288 -20.2926 3
    endloop
  endfacet
  facet normal 0.969982 -0.243175 0
    outer loop
      vertex -15.0288 -20.2926 1.5
      vertex -15.0646 -20.4354 3
      vertex -15.0646 -20.4354 1.5
    endloop
  endfacet
  facet normal -0.336939 -0.941527 0
    outer loop
      vertex -17.074 -21.3858 1.5
      vertex -16.9354 -21.4354 3
      vertex -17.074 -21.3858 3
    endloop
  endfacet
  facet normal -0.336939 -0.941527 -0
    outer loop
      vertex -16.9354 -21.4354 3
      vertex -17.074 -21.3858 1.5
      vertex -16.9354 -21.4354 1.5
    endloop
  endfacet
  facet normal -0.0489209 -0.998803 0
    outer loop
      vertex -16.647 -21.4928 1.5
      vertex -16.5 -21.5 3
      vertex -16.647 -21.4928 3
    endloop
  endfacet
  facet normal -0.0489209 -0.998803 -0
    outer loop
      vertex -16.5 -21.5 3
      vertex -16.647 -21.4928 1.5
      vertex -16.5 -21.5 1.5
    endloop
  endfacet
  facet normal -0.74123 -0.671251 0
    outer loop
      vertex -17.5607 -21.0607 1.5
      vertex -17.6595 -20.9516 3
      vertex -17.6595 -20.9516 1.5
    endloop
  endfacet
  facet normal -0.74123 -0.671251 0
    outer loop
      vertex -17.6595 -20.9516 3
      vertex -17.5607 -21.0607 1.5
      vertex -17.5607 -21.0607 3
    endloop
  endfacet
  facet normal -0.427269 0.904125 0
    outer loop
      vertex -17.074 -18.6142 1.5
      vertex -17.2071 -18.6771 3
      vertex -17.074 -18.6142 3
    endloop
  endfacet
  facet normal -0.427269 0.904125 0
    outer loop
      vertex -17.2071 -18.6771 3
      vertex -17.074 -18.6142 1.5
      vertex -17.2071 -18.6771 1.5
    endloop
  endfacet
  facet normal -0.243175 0.969982 0
    outer loop
      vertex -16.7926 -18.5288 1.5
      vertex -16.9354 -18.5646 3
      vertex -16.7926 -18.5288 3
    endloop
  endfacet
  facet normal -0.243175 0.969982 0
    outer loop
      vertex -16.9354 -18.5646 3
      vertex -16.7926 -18.5288 1.5
      vertex -16.9354 -18.5646 1.5
    endloop
  endfacet
  facet normal 0.803088 0.595861 0
    outer loop
      vertex -15.2528 -19.1666 3
      vertex -15.3405 -19.0484 1.5
      vertex -15.3405 -19.0484 3
    endloop
  endfacet
  facet normal 0.803088 0.595861 0
    outer loop
      vertex -15.3405 -19.0484 1.5
      vertex -15.2528 -19.1666 3
      vertex -15.2528 -19.1666 1.5
    endloop
  endfacet
  facet normal -0.998803 -0.0489209 0
    outer loop
      vertex -17.9928 -20.147 1.5
      vertex -18 -20 3
      vertex -18 -20 1.5
    endloop
  endfacet
  facet normal -0.998803 -0.0489209 0
    outer loop
      vertex -18 -20 3
      vertex -17.9928 -20.147 1.5
      vertex -17.9928 -20.147 3
    endloop
  endfacet
  facet normal -0.671251 -0.74123 0
    outer loop
      vertex -17.5607 -21.0607 1.5
      vertex -17.4516 -21.1595 3
      vertex -17.5607 -21.0607 3
    endloop
  endfacet
  facet normal -0.671251 -0.74123 -0
    outer loop
      vertex -17.4516 -21.1595 3
      vertex -17.5607 -21.0607 1.5
      vertex -17.4516 -21.1595 1.5
    endloop
  endfacet
  facet normal 0.998803 -0.0489209 0
    outer loop
      vertex -15.0072 -20.147 3
      vertex -15 -20 1.5
      vertex -15 -20 3
    endloop
  endfacet
  facet normal 0.998803 -0.0489209 0
    outer loop
      vertex -15 -20 1.5
      vertex -15.0072 -20.147 3
      vertex -15.0072 -20.147 1.5
    endloop
  endfacet
  facet normal 0.904125 -0.427269 0
    outer loop
      vertex -15.1771 -20.7071 3
      vertex -15.1142 -20.574 1.5
      vertex -15.1142 -20.574 3
    endloop
  endfacet
  facet normal 0.904125 -0.427269 0
    outer loop
      vertex -15.1142 -20.574 1.5
      vertex -15.1771 -20.7071 3
      vertex -15.1771 -20.7071 1.5
    endloop
  endfacet
  facet normal 0.74123 0.671251 0
    outer loop
      vertex -15.3405 -19.0484 3
      vertex -15.4393 -18.9393 1.5
      vertex -15.4393 -18.9393 3
    endloop
  endfacet
  facet normal 0.74123 0.671251 0
    outer loop
      vertex -15.4393 -18.9393 1.5
      vertex -15.3405 -19.0484 3
      vertex -15.3405 -19.0484 1.5
    endloop
  endfacet
  facet normal -0.857733 -0.514096 0
    outer loop
      vertex -17.7472 -20.8334 1.5
      vertex -17.8229 -20.7071 3
      vertex -17.8229 -20.7071 1.5
    endloop
  endfacet
  facet normal -0.857733 -0.514096 0
    outer loop
      vertex -17.8229 -20.7071 3
      vertex -17.7472 -20.8334 1.5
      vertex -17.7472 -20.8334 3
    endloop
  endfacet
  facet normal -0.74123 0.671251 0
    outer loop
      vertex -17.6595 -19.0484 1.5
      vertex -17.5607 -18.9393 3
      vertex -17.5607 -18.9393 1.5
    endloop
  endfacet
  facet normal -0.74123 0.671251 0
    outer loop
      vertex -17.5607 -18.9393 3
      vertex -17.6595 -19.0484 1.5
      vertex -17.6595 -19.0484 3
    endloop
  endfacet
  facet normal 0.595861 0.803088 -0
    outer loop
      vertex -15.5484 -18.8405 1.5
      vertex -15.6666 -18.7528 3
      vertex -15.5484 -18.8405 3
    endloop
  endfacet
  facet normal 0.595861 0.803088 0
    outer loop
      vertex -15.6666 -18.7528 3
      vertex -15.5484 -18.8405 1.5
      vertex -15.6666 -18.7528 1.5
    endloop
  endfacet
  facet normal 0.514096 0.857733 -0
    outer loop
      vertex -15.6666 -18.7528 1.5
      vertex -15.7929 -18.6771 3
      vertex -15.6666 -18.7528 3
    endloop
  endfacet
  facet normal 0.514096 0.857733 0
    outer loop
      vertex -15.7929 -18.6771 3
      vertex -15.6666 -18.7528 1.5
      vertex -15.7929 -18.6771 1.5
    endloop
  endfacet
  facet normal 0.0489209 -0.998803 0
    outer loop
      vertex -16.5 -21.5 1.5
      vertex -16.353 -21.4928 3
      vertex -16.5 -21.5 3
    endloop
  endfacet
  facet normal 0.0489209 -0.998803 0
    outer loop
      vertex -16.353 -21.4928 3
      vertex -16.5 -21.5 1.5
      vertex -16.353 -21.4928 1.5
    endloop
  endfacet
  facet normal 0.941527 0.336939 0
    outer loop
      vertex -15.0646 -19.5646 3
      vertex -15.1142 -19.426 1.5
      vertex -15.1142 -19.426 3
    endloop
  endfacet
  facet normal 0.941527 0.336939 0
    outer loop
      vertex -15.1142 -19.426 1.5
      vertex -15.0646 -19.5646 3
      vertex -15.0646 -19.5646 1.5
    endloop
  endfacet
  facet normal 0.857733 -0.514096 0
    outer loop
      vertex -15.2528 -20.8334 3
      vertex -15.1771 -20.7071 1.5
      vertex -15.1771 -20.7071 3
    endloop
  endfacet
  facet normal 0.857733 -0.514096 0
    outer loop
      vertex -15.1771 -20.7071 1.5
      vertex -15.2528 -20.8334 3
      vertex -15.2528 -20.8334 1.5
    endloop
  endfacet
  facet normal -0.998803 0.0489209 0
    outer loop
      vertex -18 -20 1.5
      vertex -17.9928 -19.853 3
      vertex -17.9928 -19.853 1.5
    endloop
  endfacet
  facet normal -0.998803 0.0489209 0
    outer loop
      vertex -17.9928 -19.853 3
      vertex -18 -20 1.5
      vertex -18 -20 3
    endloop
  endfacet
  facet normal 0.671251 0.74123 -0
    outer loop
      vertex -15.4393 -18.9393 1.5
      vertex -15.5484 -18.8405 3
      vertex -15.4393 -18.9393 3
    endloop
  endfacet
  facet normal 0.671251 0.74123 0
    outer loop
      vertex -15.5484 -18.8405 3
      vertex -15.4393 -18.9393 1.5
      vertex -15.5484 -18.8405 1.5
    endloop
  endfacet
  facet normal 0.941527 -0.336939 0
    outer loop
      vertex -15.1142 -20.574 3
      vertex -15.0646 -20.4354 1.5
      vertex -15.0646 -20.4354 3
    endloop
  endfacet
  facet normal 0.941527 -0.336939 0
    outer loop
      vertex -15.0646 -20.4354 1.5
      vertex -15.1142 -20.574 3
      vertex -15.1142 -20.574 1.5
    endloop
  endfacet
  facet normal -0.969982 0.243175 0
    outer loop
      vertex -17.9712 -19.7074 1.5
      vertex -17.9354 -19.5646 3
      vertex -17.9354 -19.5646 1.5
    endloop
  endfacet
  facet normal -0.969982 0.243175 0
    outer loop
      vertex -17.9354 -19.5646 3
      vertex -17.9712 -19.7074 1.5
      vertex -17.9712 -19.7074 3
    endloop
  endfacet
  facet normal 0.904125 0.427269 0
    outer loop
      vertex -15.1142 -19.426 3
      vertex -15.1771 -19.2929 1.5
      vertex -15.1771 -19.2929 3
    endloop
  endfacet
  facet normal 0.904125 0.427269 0
    outer loop
      vertex -15.1771 -19.2929 1.5
      vertex -15.1142 -19.426 3
      vertex -15.1142 -19.426 1.5
    endloop
  endfacet
  facet normal 0.0489209 0.998803 -0
    outer loop
      vertex -16.353 -18.5072 1.5
      vertex -16.5 -18.5 3
      vertex -16.353 -18.5072 3
    endloop
  endfacet
  facet normal 0.0489209 0.998803 0
    outer loop
      vertex -16.5 -18.5 3
      vertex -16.353 -18.5072 1.5
      vertex -16.5 -18.5 1.5
    endloop
  endfacet
  facet normal 0.857733 0.514096 0
    outer loop
      vertex -15.1771 -19.2929 3
      vertex -15.2528 -19.1666 1.5
      vertex -15.2528 -19.1666 3
    endloop
  endfacet
  facet normal 0.857733 0.514096 0
    outer loop
      vertex -15.2528 -19.1666 1.5
      vertex -15.1771 -19.2929 3
      vertex -15.1771 -19.2929 1.5
    endloop
  endfacet
  facet normal 0.146746 0.989174 -0
    outer loop
      vertex -16.2074 -18.5288 1.5
      vertex -16.353 -18.5072 3
      vertex -16.2074 -18.5288 3
    endloop
  endfacet
  facet normal 0.146746 0.989174 0
    outer loop
      vertex -16.353 -18.5072 3
      vertex -16.2074 -18.5288 1.5
      vertex -16.353 -18.5072 1.5
    endloop
  endfacet
  facet normal -0.904125 -0.427269 0
    outer loop
      vertex -17.8229 -20.7071 1.5
      vertex -17.8858 -20.574 3
      vertex -17.8858 -20.574 1.5
    endloop
  endfacet
  facet normal -0.904125 -0.427269 0
    outer loop
      vertex -17.8858 -20.574 3
      vertex -17.8229 -20.7071 1.5
      vertex -17.8229 -20.7071 3
    endloop
  endfacet
  facet normal 0.671251 -0.74123 0
    outer loop
      vertex -15.5484 -21.1595 1.5
      vertex -15.4393 -21.0607 3
      vertex -15.5484 -21.1595 3
    endloop
  endfacet
  facet normal 0.671251 -0.74123 0
    outer loop
      vertex -15.4393 -21.0607 3
      vertex -15.5484 -21.1595 1.5
      vertex -15.4393 -21.0607 1.5
    endloop
  endfacet
  facet normal -0.803088 -0.595861 0
    outer loop
      vertex -17.6595 -20.9516 1.5
      vertex -17.7472 -20.8334 3
      vertex -17.7472 -20.8334 1.5
    endloop
  endfacet
  facet normal -0.803088 -0.595861 0
    outer loop
      vertex -17.7472 -20.8334 3
      vertex -17.6595 -20.9516 1.5
      vertex -17.6595 -20.9516 3
    endloop
  endfacet
  facet normal -0.904125 0.427269 0
    outer loop
      vertex -17.8858 -19.426 1.5
      vertex -17.8229 -19.2929 3
      vertex -17.8229 -19.2929 1.5
    endloop
  endfacet
  facet normal -0.904125 0.427269 0
    outer loop
      vertex -17.8229 -19.2929 3
      vertex -17.8858 -19.426 1.5
      vertex -17.8858 -19.426 3
    endloop
  endfacet
  facet normal -0.989174 -0.146746 0
    outer loop
      vertex -17.9712 -20.2926 1.5
      vertex -17.9928 -20.147 3
      vertex -17.9928 -20.147 1.5
    endloop
  endfacet
  facet normal -0.989174 -0.146746 0
    outer loop
      vertex -17.9928 -20.147 3
      vertex -17.9712 -20.2926 1.5
      vertex -17.9712 -20.2926 3
    endloop
  endfacet
  facet normal 0.243175 0.969982 -0
    outer loop
      vertex -16.0646 -18.5646 1.5
      vertex -16.2074 -18.5288 3
      vertex -16.0646 -18.5646 3
    endloop
  endfacet
  facet normal 0.243175 0.969982 0
    outer loop
      vertex -16.2074 -18.5288 3
      vertex -16.0646 -18.5646 1.5
      vertex -16.2074 -18.5288 1.5
    endloop
  endfacet
  facet normal -0.803088 0.595861 0
    outer loop
      vertex -17.7472 -19.1666 1.5
      vertex -17.6595 -19.0484 3
      vertex -17.6595 -19.0484 1.5
    endloop
  endfacet
  facet normal -0.803088 0.595861 0
    outer loop
      vertex -17.6595 -19.0484 3
      vertex -17.7472 -19.1666 1.5
      vertex -17.7472 -19.1666 3
    endloop
  endfacet
  facet normal -0.595861 -0.803088 0
    outer loop
      vertex -17.4516 -21.1595 1.5
      vertex -17.3334 -21.2472 3
      vertex -17.4516 -21.1595 3
    endloop
  endfacet
  facet normal -0.595861 -0.803088 -0
    outer loop
      vertex -17.3334 -21.2472 3
      vertex -17.4516 -21.1595 1.5
      vertex -17.3334 -21.2472 1.5
    endloop
  endfacet
  facet normal -0.514096 -0.857733 0
    outer loop
      vertex -17.3334 -21.2472 1.5
      vertex -17.2071 -21.3229 3
      vertex -17.3334 -21.2472 3
    endloop
  endfacet
  facet normal -0.514096 -0.857733 -0
    outer loop
      vertex -17.2071 -21.3229 3
      vertex -17.3334 -21.2472 1.5
      vertex -17.2071 -21.3229 1.5
    endloop
  endfacet
  facet normal -0.857733 0.514096 0
    outer loop
      vertex -17.8229 -19.2929 1.5
      vertex -17.7472 -19.1666 3
      vertex -17.7472 -19.1666 1.5
    endloop
  endfacet
  facet normal -0.857733 0.514096 0
    outer loop
      vertex -17.7472 -19.1666 3
      vertex -17.8229 -19.2929 1.5
      vertex -17.8229 -19.2929 3
    endloop
  endfacet
  facet normal 0 0 1
    outer loop
      vertex -15.0072 -19.853 3
      vertex -15.0072 -20.147 3
      vertex -15 -20 3
    endloop
  endfacet
  facet normal 0 0 1
    outer loop
      vertex -15.0288 -19.7074 3
      vertex -15.0072 -20.147 3
      vertex -15.0072 -19.853 3
    endloop
  endfacet
  facet normal 0 0 1
    outer loop
      vertex -15.0288 -19.7074 3
      vertex -15.0288 -20.2926 3
      vertex -15.0072 -20.147 3
    endloop
  endfacet
  facet normal 0 0 1
    outer loop
      vertex -15.0646 -19.5646 3
      vertex -15.0288 -20.2926 3
      vertex -15.0288 -19.7074 3
    endloop
  endfacet
  facet normal 0 0 1
    outer loop
      vertex -15.0646 -19.5646 3
      vertex -15.0646 -20.4354 3
      vertex -15.0288 -20.2926 3
    endloop
  endfacet
  facet normal 0 0 1
    outer loop
      vertex -15.1142 -19.426 3
      vertex -15.0646 -20.4354 3
      vertex -15.0646 -19.5646 3
    endloop
  endfacet
  facet normal 0 0 1
    outer loop
      vertex -15.1142 -19.426 3
      vertex -15.1142 -20.574 3
      vertex -15.0646 -20.4354 3
    endloop
  endfacet
  facet normal 0 0 1
    outer loop
      vertex -15.1771 -19.2929 3
      vertex -15.1142 -20.574 3
      vertex -15.1142 -19.426 3
    endloop
  endfacet
  facet normal 0 0 1
    outer loop
      vertex -15.1771 -19.2929 3
      vertex -15.1771 -20.7071 3
      vertex -15.1142 -20.574 3
    endloop
  endfacet
  facet normal 0 0 1
    outer loop
      vertex -15.2528 -19.1666 3
      vertex -15.1771 -20.7071 3
      vertex -15.1771 -19.2929 3
    endloop
  endfacet
  facet normal 0 0 1
    outer loop
      vertex -15.2528 -19.1666 3
      vertex -15.2528 -20.8334 3
      vertex -15.1771 -20.7071 3
    endloop
  endfacet
  facet normal 0 0 1
    outer loop
      vertex -15.3405 -19.0484 3
      vertex -15.2528 -20.8334 3
      vertex -15.2528 -19.1666 3
    endloop
  endfacet
  facet normal 0 0 1
    outer loop
      vertex -15.3405 -19.0484 3
      vertex -15.3405 -20.9516 3
      vertex -15.2528 -20.8334 3
    endloop
  endfacet
  facet normal 0 0 1
    outer loop
      vertex -15.4393 -18.9393 3
      vertex -15.3405 -20.9516 3
      vertex -15.3405 -19.0484 3
    endloop
  endfacet
  facet normal 0 0 1
    outer loop
      vertex -15.4393 -18.9393 3
      vertex -15.4393 -21.0607 3
      vertex -15.3405 -20.9516 3
    endloop
  endfacet
  facet normal 0 0 1
    outer loop
      vertex -15.5484 -18.8405 3
      vertex -15.4393 -21.0607 3
      vertex -15.4393 -18.9393 3
    endloop
  endfacet
  facet normal 0 0 1
    outer loop
      vertex -15.5484 -18.8405 3
      vertex -15.5484 -21.1595 3
      vertex -15.4393 -21.0607 3
    endloop
  endfacet
  facet normal 0 0 1
    outer loop
      vertex -15.6666 -18.7528 3
      vertex -15.5484 -21.1595 3
      vertex -15.5484 -18.8405 3
    endloop
  endfacet
  facet normal 0 0 1
    outer loop
      vertex -15.6666 -18.7528 3
      vertex -15.6666 -21.2472 3
      vertex -15.5484 -21.1595 3
    endloop
  endfacet
  facet normal 0 0 1
    outer loop
      vertex -15.7929 -18.6771 3
      vertex -15.6666 -21.2472 3
      vertex -15.6666 -18.7528 3
    endloop
  endfacet
  facet normal 0 0 1
    outer loop
      vertex -15.7929 -18.6771 3
      vertex -15.7929 -21.3229 3
      vertex -15.6666 -21.2472 3
    endloop
  endfacet
  facet normal 0 0 1
    outer loop
      vertex -15.926 -18.6142 3
      vertex -15.7929 -21.3229 3
      vertex -15.7929 -18.6771 3
    endloop
  endfacet
  facet normal 0 0 1
    outer loop
      vertex -15.926 -18.6142 3
      vertex -15.926 -21.3858 3
      vertex -15.7929 -21.3229 3
    endloop
  endfacet
  facet normal 0 0 1
    outer loop
      vertex -16.0646 -18.5646 3
      vertex -15.926 -21.3858 3
      vertex -15.926 -18.6142 3
    endloop
  endfacet
  facet normal 0 0 1
    outer loop
      vertex -16.0646 -18.5646 3
      vertex -16.0646 -21.4354 3
      vertex -15.926 -21.3858 3
    endloop
  endfacet
  facet normal 0 0 1
    outer loop
      vertex -16.2074 -18.5288 3
      vertex -16.0646 -21.4354 3
      vertex -16.0646 -18.5646 3
    endloop
  endfacet
  facet normal 0 0 1
    outer loop
      vertex -16.2074 -18.5288 3
      vertex -16.2074 -21.4712 3
      vertex -16.0646 -21.4354 3
    endloop
  endfacet
  facet normal 0 0 1
    outer loop
      vertex -16.353 -18.5072 3
      vertex -16.2074 -21.4712 3
      vertex -16.2074 -18.5288 3
    endloop
  endfacet
  facet normal 0 0 1
    outer loop
      vertex -16.353 -18.5072 3
      vertex -16.353 -21.4928 3
      vertex -16.2074 -21.4712 3
    endloop
  endfacet
  facet normal 0 0 1
    outer loop
      vertex -16.5 -18.5 3
      vertex -16.353 -21.4928 3
      vertex -16.353 -18.5072 3
    endloop
  endfacet
  facet normal 0 0 1
    outer loop
      vertex -16.5 -18.5 3
      vertex -16.5 -21.5 3
      vertex -16.353 -21.4928 3
    endloop
  endfacet
  facet normal -0 0 1
    outer loop
      vertex -16.647 -18.5072 3
      vertex -16.5 -21.5 3
      vertex -16.5 -18.5 3
    endloop
  endfacet
  facet normal 0 0 1
    outer loop
      vertex -16.647 -18.5072 3
      vertex -16.647 -21.4928 3
      vertex -16.5 -21.5 3
    endloop
  endfacet
  facet normal -0 0 1
    outer loop
      vertex -16.7926 -18.5288 3
      vertex -16.647 -21.4928 3
      vertex -16.647 -18.5072 3
    endloop
  endfacet
  facet normal 0 0 1
    outer loop
      vertex -16.7926 -18.5288 3
      vertex -16.7926 -21.4712 3
      vertex -16.647 -21.4928 3
    endloop
  endfacet
  facet normal -0 0 1
    outer loop
      vertex -16.9354 -18.5646 3
      vertex -16.7926 -21.4712 3
      vertex -16.7926 -18.5288 3
    endloop
  endfacet
  facet normal 0 0 1
    outer loop
      vertex -16.9354 -18.5646 3
      vertex -16.9354 -21.4354 3
      vertex -16.7926 -21.4712 3
    endloop
  endfacet
  facet normal -0 0 1
    outer loop
      vertex -17.074 -18.6142 3
      vertex -16.9354 -21.4354 3
      vertex -16.9354 -18.5646 3
    endloop
  endfacet
  facet normal 0 0 1
    outer loop
      vertex -17.074 -18.6142 3
      vertex -17.074 -21.3858 3
      vertex -16.9354 -21.4354 3
    endloop
  endfacet
  facet normal -0 0 1
    outer loop
      vertex -17.2071 -18.6771 3
      vertex -17.074 -21.3858 3
      vertex -17.074 -18.6142 3
    endloop
  endfacet
  facet normal 0 0 1
    outer loop
      vertex -17.2071 -18.6771 3
      vertex -17.2071 -21.3229 3
      vertex -17.074 -21.3858 3
    endloop
  endfacet
  facet normal -0 0 1
    outer loop
      vertex -17.3334 -18.7528 3
      vertex -17.2071 -21.3229 3
      vertex -17.2071 -18.6771 3
    endloop
  endfacet
  facet normal 0 0 1
    outer loop
      vertex -17.3334 -18.7528 3
      vertex -17.3334 -21.2472 3
      vertex -17.2071 -21.3229 3
    endloop
  endfacet
  facet normal -0 0 1
    outer loop
      vertex -17.4516 -18.8405 3
      vertex -17.3334 -21.2472 3
      vertex -17.3334 -18.7528 3
    endloop
  endfacet
  facet normal 0 0 1
    outer loop
      vertex -17.4516 -18.8405 3
      vertex -17.4516 -21.1595 3
      vertex -17.3334 -21.2472 3
    endloop
  endfacet
  facet normal -0 0 1
    outer loop
      vertex -17.5607 -18.9393 3
      vertex -17.4516 -21.1595 3
      vertex -17.4516 -18.8405 3
    endloop
  endfacet
  facet normal 0 0 1
    outer loop
      vertex -17.5607 -18.9393 3
      vertex -17.5607 -21.0607 3
      vertex -17.4516 -21.1595 3
    endloop
  endfacet
  facet normal -0 0 1
    outer loop
      vertex -17.6595 -19.0484 3
      vertex -17.5607 -21.0607 3
      vertex -17.5607 -18.9393 3
    endloop
  endfacet
  facet normal 0 0 1
    outer loop
      vertex -17.6595 -19.0484 3
      vertex -17.6595 -20.9516 3
      vertex -17.5607 -21.0607 3
    endloop
  endfacet
  facet normal -0 0 1
    outer loop
      vertex -17.7472 -19.1666 3
      vertex -17.6595 -20.9516 3
      vertex -17.6595 -19.0484 3
    endloop
  endfacet
  facet normal 0 0 1
    outer loop
      vertex -17.7472 -19.1666 3
      vertex -17.7472 -20.8334 3
      vertex -17.6595 -20.9516 3
    endloop
  endfacet
  facet normal -0 0 1
    outer loop
      vertex -17.8229 -19.2929 3
      vertex -17.7472 -20.8334 3
      vertex -17.7472 -19.1666 3
    endloop
  endfacet
  facet normal 0 0 1
    outer loop
      vertex -17.8229 -19.2929 3
      vertex -17.8229 -20.7071 3
      vertex -17.7472 -20.8334 3
    endloop
  endfacet
  facet normal -0 0 1
    outer loop
      vertex -17.8858 -19.426 3
      vertex -17.8229 -20.7071 3
      vertex -17.8229 -19.2929 3
    endloop
  endfacet
  facet normal 0 0 1
    outer loop
      vertex -17.8858 -19.426 3
      vertex -17.8858 -20.574 3
      vertex -17.8229 -20.7071 3
    endloop
  endfacet
  facet normal -0 0 1
    outer loop
      vertex -17.9354 -19.5646 3
      vertex -17.8858 -20.574 3
      vertex -17.8858 -19.426 3
    endloop
  endfacet
  facet normal 0 0 1
    outer loop
      vertex -17.9354 -19.5646 3
      vertex -17.9354 -20.4354 3
      vertex -17.8858 -20.574 3
    endloop
  endfacet
  facet normal -0 0 1
    outer loop
      vertex -17.9712 -19.7074 3
      vertex -17.9354 -20.4354 3
      vertex -17.9354 -19.5646 3
    endloop
  endfacet
  facet normal 0 0 1
    outer loop
      vertex -17.9712 -19.7074 3
      vertex -17.9712 -20.2926 3
      vertex -17.9354 -20.4354 3
    endloop
  endfacet
  facet normal -0 0 1
    outer loop
      vertex -17.9928 -19.853 3
      vertex -17.9712 -20.2926 3
      vertex -17.9712 -19.7074 3
    endloop
  endfacet
  facet normal 0 0 1
    outer loop
      vertex -17.9928 -19.853 3
      vertex -17.9928 -20.147 3
      vertex -17.9712 -20.2926 3
    endloop
  endfacet
  facet normal 0 -0 1
    outer loop
      vertex -17.9928 -20.147 3
      vertex -17.9928 -19.853 3
      vertex -18 -20 3
    endloop
  endfacet
  facet normal 0.74123 -0.671251 0
    outer loop
      vertex -15.4393 -21.0607 3
      vertex -15.3405 -20.9516 1.5
      vertex -15.3405 -20.9516 3
    endloop
  endfacet
  facet normal 0.74123 -0.671251 0
    outer loop
      vertex -15.3405 -20.9516 1.5
      vertex -15.4393 -21.0607 3
      vertex -15.4393 -21.0607 1.5
    endloop
  endfacet
  facet normal 0.989174 0.146746 0
    outer loop
      vertex 17.9928 -19.853 3
      vertex 17.9712 -19.7074 0
      vertex 17.9712 -19.7074 3
    endloop
  endfacet
  facet normal 0.989174 0.146746 0
    outer loop
      vertex 17.9712 -19.7074 0
      vertex 17.9928 -19.853 3
      vertex 17.9928 -19.853 0
    endloop
  endfacet
  facet normal 0.998803 0.0489209 0
    outer loop
      vertex 18 -20 3
      vertex 17.9928 -19.853 0
      vertex 17.9928 -19.853 3
    endloop
  endfacet
  facet normal 0.998803 0.0489209 0
    outer loop
      vertex 17.9928 -19.853 0
      vertex 18 -20 3
      vertex 18 -20 0
    endloop
  endfacet
  facet normal 0.969982 0.243175 0
    outer loop
      vertex 17.9712 -19.7074 3
      vertex 17.9354 -19.5646 0
      vertex 17.9354 -19.5646 3
    endloop
  endfacet
  facet normal 0.969982 0.243175 0
    outer loop
      vertex 17.9354 -19.5646 0
      vertex 17.9712 -19.7074 3
      vertex 17.9712 -19.7074 0
    endloop
  endfacet
  facet normal 0.146746 0.989174 -0
    outer loop
      vertex 16.7926 -18.5288 0
      vertex 16.647 -18.5072 3
      vertex 16.7926 -18.5288 3
    endloop
  endfacet
  facet normal 0.146746 0.989174 0
    outer loop
      vertex 16.647 -18.5072 3
      vertex 16.7926 -18.5288 0
      vertex 16.647 -18.5072 0
    endloop
  endfacet
  facet normal -0.146746 0.989174 0
    outer loop
      vertex 16.353 -18.5072 0
      vertex 16.2074 -18.5288 3
      vertex 16.353 -18.5072 3
    endloop
  endfacet
  facet normal -0.146746 0.989174 0
    outer loop
      vertex 16.2074 -18.5288 3
      vertex 16.353 -18.5072 0
      vertex 16.2074 -18.5288 0
    endloop
  endfacet
  facet normal 0.803088 0.595861 0
    outer loop
      vertex 17.7472 -19.1666 3
      vertex 17.6595 -19.0484 0
      vertex 17.6595 -19.0484 3
    endloop
  endfacet
  facet normal 0.803088 0.595861 0
    outer loop
      vertex 17.6595 -19.0484 0
      vertex 17.7472 -19.1666 3
      vertex 17.7472 -19.1666 0
    endloop
  endfacet
  facet normal 0.595861 -0.803088 0
    outer loop
      vertex 17.3334 -21.2472 0
      vertex 17.4516 -21.1595 3
      vertex 17.3334 -21.2472 3
    endloop
  endfacet
  facet normal 0.595861 -0.803088 0
    outer loop
      vertex 17.4516 -21.1595 3
      vertex 17.3334 -21.2472 0
      vertex 17.4516 -21.1595 0
    endloop
  endfacet
  facet normal 0.595861 0.803088 -0
    outer loop
      vertex 17.4516 -18.8405 0
      vertex 17.3334 -18.7528 3
      vertex 17.4516 -18.8405 3
    endloop
  endfacet
  facet normal 0.595861 0.803088 0
    outer loop
      vertex 17.3334 -18.7528 3
      vertex 17.4516 -18.8405 0
      vertex 17.3334 -18.7528 0
    endloop
  endfacet
  facet normal 0.998803 -0.0489209 0
    outer loop
      vertex 17.9928 -20.147 3
      vertex 18 -20 0
      vertex 18 -20 3
    endloop
  endfacet
  facet normal 0.998803 -0.0489209 0
    outer loop
      vertex 18 -20 0
      vertex 17.9928 -20.147 3
      vertex 17.9928 -20.147 0
    endloop
  endfacet
  facet normal -0.243175 0.969982 0
    outer loop
      vertex 16.2074 -18.5288 0
      vertex 16.0646 -18.5646 3
      vertex 16.2074 -18.5288 3
    endloop
  endfacet
  facet normal -0.243175 0.969982 0
    outer loop
      vertex 16.0646 -18.5646 3
      vertex 16.2074 -18.5288 0
      vertex 16.0646 -18.5646 0
    endloop
  endfacet
  facet normal 0.427269 0.904125 -0
    outer loop
      vertex 17.2071 -18.6771 0
      vertex 17.074 -18.6142 3
      vertex 17.2071 -18.6771 3
    endloop
  endfacet
  facet normal 0.427269 0.904125 0
    outer loop
      vertex 17.074 -18.6142 3
      vertex 17.2071 -18.6771 0
      vertex 17.074 -18.6142 0
    endloop
  endfacet
  facet normal 0 0 1
    outer loop
      vertex 17.9928 -19.853 3
      vertex 17.9928 -20.147 3
      vertex 18 -20 3
    endloop
  endfacet
  facet normal 0 0 1
    outer loop
      vertex 17.9712 -19.7074 3
      vertex 17.9928 -20.147 3
      vertex 17.9928 -19.853 3
    endloop
  endfacet
  facet normal 0 0 1
    outer loop
      vertex 17.9712 -19.7074 3
      vertex 17.9712 -20.2926 3
      vertex 17.9928 -20.147 3
    endloop
  endfacet
  facet normal 0 0 1
    outer loop
      vertex 17.9354 -19.5646 3
      vertex 17.9712 -20.2926 3
      vertex 17.9712 -19.7074 3
    endloop
  endfacet
  facet normal 0 0 1
    outer loop
      vertex 17.9354 -19.5646 3
      vertex 17.9354 -20.4354 3
      vertex 17.9712 -20.2926 3
    endloop
  endfacet
  facet normal 0 0 1
    outer loop
      vertex 17.8858 -19.426 3
      vertex 17.9354 -20.4354 3
      vertex 17.9354 -19.5646 3
    endloop
  endfacet
  facet normal 0 0 1
    outer loop
      vertex 17.8858 -19.426 3
      vertex 17.8858 -20.574 3
      vertex 17.9354 -20.4354 3
    endloop
  endfacet
  facet normal 0 0 1
    outer loop
      vertex 17.8229 -19.2929 3
      vertex 17.8858 -20.574 3
      vertex 17.8858 -19.426 3
    endloop
  endfacet
  facet normal 0 0 1
    outer loop
      vertex 17.8229 -19.2929 3
      vertex 17.8229 -20.7071 3
      vertex 17.8858 -20.574 3
    endloop
  endfacet
  facet normal 0 0 1
    outer loop
      vertex 17.7472 -19.1666 3
      vertex 17.8229 -20.7071 3
      vertex 17.8229 -19.2929 3
    endloop
  endfacet
  facet normal 0 0 1
    outer loop
      vertex 17.7472 -19.1666 3
      vertex 17.7472 -20.8334 3
      vertex 17.8229 -20.7071 3
    endloop
  endfacet
  facet normal 0 0 1
    outer loop
      vertex 17.6595 -19.0484 3
      vertex 17.7472 -20.8334 3
      vertex 17.7472 -19.1666 3
    endloop
  endfacet
  facet normal 0 0 1
    outer loop
      vertex 17.6595 -19.0484 3
      vertex 17.6595 -20.9516 3
      vertex 17.7472 -20.8334 3
    endloop
  endfacet
  facet normal 0 0 1
    outer loop
      vertex 17.5607 -18.9393 3
      vertex 17.6595 -20.9516 3
      vertex 17.6595 -19.0484 3
    endloop
  endfacet
  facet normal 0 0 1
    outer loop
      vertex 17.5607 -18.9393 3
      vertex 17.5607 -21.0607 3
      vertex 17.6595 -20.9516 3
    endloop
  endfacet
  facet normal 0 0 1
    outer loop
      vertex 17.4516 -18.8405 3
      vertex 17.5607 -21.0607 3
      vertex 17.5607 -18.9393 3
    endloop
  endfacet
  facet normal 0 0 1
    outer loop
      vertex 17.4516 -18.8405 3
      vertex 17.4516 -21.1595 3
      vertex 17.5607 -21.0607 3
    endloop
  endfacet
  facet normal 0 0 1
    outer loop
      vertex 17.3334 -18.7528 3
      vertex 17.4516 -21.1595 3
      vertex 17.4516 -18.8405 3
    endloop
  endfacet
  facet normal 0 0 1
    outer loop
      vertex 17.3334 -18.7528 3
      vertex 17.3334 -21.2472 3
      vertex 17.4516 -21.1595 3
    endloop
  endfacet
  facet normal 0 0 1
    outer loop
      vertex 17.2071 -18.6771 3
      vertex 17.3334 -21.2472 3
      vertex 17.3334 -18.7528 3
    endloop
  endfacet
  facet normal 0 0 1
    outer loop
      vertex 17.2071 -18.6771 3
      vertex 17.2071 -21.3229 3
      vertex 17.3334 -21.2472 3
    endloop
  endfacet
  facet normal 0 0 1
    outer loop
      vertex 17.074 -18.6142 3
      vertex 17.2071 -21.3229 3
      vertex 17.2071 -18.6771 3
    endloop
  endfacet
  facet normal 0 0 1
    outer loop
      vertex 17.074 -18.6142 3
      vertex 17.074 -21.3858 3
      vertex 17.2071 -21.3229 3
    endloop
  endfacet
  facet normal 0 0 1
    outer loop
      vertex 16.9354 -18.5646 3
      vertex 17.074 -21.3858 3
      vertex 17.074 -18.6142 3
    endloop
  endfacet
  facet normal 0 0 1
    outer loop
      vertex 16.9354 -18.5646 3
      vertex 16.9354 -21.4354 3
      vertex 17.074 -21.3858 3
    endloop
  endfacet
  facet normal 0 0 1
    outer loop
      vertex 16.7926 -18.5288 3
      vertex 16.9354 -21.4354 3
      vertex 16.9354 -18.5646 3
    endloop
  endfacet
  facet normal 0 0 1
    outer loop
      vertex 16.7926 -18.5288 3
      vertex 16.7926 -21.4712 3
      vertex 16.9354 -21.4354 3
    endloop
  endfacet
  facet normal 0 0 1
    outer loop
      vertex 16.647 -18.5072 3
      vertex 16.7926 -21.4712 3
      vertex 16.7926 -18.5288 3
    endloop
  endfacet
  facet normal 0 0 1
    outer loop
      vertex 16.647 -18.5072 3
      vertex 16.647 -21.4928 3
      vertex 16.7926 -21.4712 3
    endloop
  endfacet
  facet normal 0 0 1
    outer loop
      vertex 16.5 -18.5 3
      vertex 16.647 -21.4928 3
      vertex 16.647 -18.5072 3
    endloop
  endfacet
  facet normal 0 0 1
    outer loop
      vertex 16.5 -18.5 3
      vertex 16.5 -21.5 3
      vertex 16.647 -21.4928 3
    endloop
  endfacet
  facet normal -0 0 1
    outer loop
      vertex 16.353 -18.5072 3
      vertex 16.5 -21.5 3
      vertex 16.5 -18.5 3
    endloop
  endfacet
  facet normal 0 0 1
    outer loop
      vertex 16.353 -18.5072 3
      vertex 16.353 -21.4928 3
      vertex 16.5 -21.5 3
    endloop
  endfacet
  facet normal -0 0 1
    outer loop
      vertex 16.2074 -18.5288 3
      vertex 16.353 -21.4928 3
      vertex 16.353 -18.5072 3
    endloop
  endfacet
  facet normal 0 0 1
    outer loop
      vertex 16.2074 -18.5288 3
      vertex 16.2074 -21.4712 3
      vertex 16.353 -21.4928 3
    endloop
  endfacet
  facet normal -0 0 1
    outer loop
      vertex 16.0646 -18.5646 3
      vertex 16.2074 -21.4712 3
      vertex 16.2074 -18.5288 3
    endloop
  endfacet
  facet normal 0 0 1
    outer loop
      vertex 16.0646 -18.5646 3
      vertex 16.0646 -21.4354 3
      vertex 16.2074 -21.4712 3
    endloop
  endfacet
  facet normal -0 0 1
    outer loop
      vertex 15.926 -18.6142 3
      vertex 16.0646 -21.4354 3
      vertex 16.0646 -18.5646 3
    endloop
  endfacet
  facet normal 0 0 1
    outer loop
      vertex 15.926 -18.6142 3
      vertex 15.926 -21.3858 3
      vertex 16.0646 -21.4354 3
    endloop
  endfacet
  facet normal -0 0 1
    outer loop
      vertex 15.7929 -18.6771 3
      vertex 15.926 -21.3858 3
      vertex 15.926 -18.6142 3
    endloop
  endfacet
  facet normal 0 0 1
    outer loop
      vertex 15.7929 -18.6771 3
      vertex 15.7929 -21.3229 3
      vertex 15.926 -21.3858 3
    endloop
  endfacet
  facet normal -0 0 1
    outer loop
      vertex 15.6666 -18.7528 3
      vertex 15.7929 -21.3229 3
      vertex 15.7929 -18.6771 3
    endloop
  endfacet
  facet normal 0 0 1
    outer loop
      vertex 15.6666 -18.7528 3
      vertex 15.6666 -21.2472 3
      vertex 15.7929 -21.3229 3
    endloop
  endfacet
  facet normal -0 0 1
    outer loop
      vertex 15.5484 -18.8405 3
      vertex 15.6666 -21.2472 3
      vertex 15.6666 -18.7528 3
    endloop
  endfacet
  facet normal 0 0 1
    outer loop
      vertex 15.5484 -18.8405 3
      vertex 15.5484 -21.1595 3
      vertex 15.6666 -21.2472 3
    endloop
  endfacet
  facet normal -0 0 1
    outer loop
      vertex 15.4393 -18.9393 3
      vertex 15.5484 -21.1595 3
      vertex 15.5484 -18.8405 3
    endloop
  endfacet
  facet normal 0 0 1
    outer loop
      vertex 15.4393 -18.9393 3
      vertex 15.4393 -21.0607 3
      vertex 15.5484 -21.1595 3
    endloop
  endfacet
  facet normal -0 0 1
    outer loop
      vertex 15.3405 -19.0484 3
      vertex 15.4393 -21.0607 3
      vertex 15.4393 -18.9393 3
    endloop
  endfacet
  facet normal 0 0 1
    outer loop
      vertex 15.3405 -19.0484 3
      vertex 15.3405 -20.9516 3
      vertex 15.4393 -21.0607 3
    endloop
  endfacet
  facet normal -0 0 1
    outer loop
      vertex 15.2528 -19.1666 3
      vertex 15.3405 -20.9516 3
      vertex 15.3405 -19.0484 3
    endloop
  endfacet
  facet normal 0 0 1
    outer loop
      vertex 15.2528 -19.1666 3
      vertex 15.2528 -20.8334 3
      vertex 15.3405 -20.9516 3
    endloop
  endfacet
  facet normal -0 0 1
    outer loop
      vertex 15.1771 -19.2929 3
      vertex 15.2528 -20.8334 3
      vertex 15.2528 -19.1666 3
    endloop
  endfacet
  facet normal 0 0 1
    outer loop
      vertex 15.1771 -19.2929 3
      vertex 15.1771 -20.7071 3
      vertex 15.2528 -20.8334 3
    endloop
  endfacet
  facet normal -0 0 1
    outer loop
      vertex 15.1142 -19.426 3
      vertex 15.1771 -20.7071 3
      vertex 15.1771 -19.2929 3
    endloop
  endfacet
  facet normal 0 0 1
    outer loop
      vertex 15.1142 -19.426 3
      vertex 15.1142 -20.574 3
      vertex 15.1771 -20.7071 3
    endloop
  endfacet
  facet normal -0 0 1
    outer loop
      vertex 15.0646 -19.5646 3
      vertex 15.1142 -20.574 3
      vertex 15.1142 -19.426 3
    endloop
  endfacet
  facet normal 0 0 1
    outer loop
      vertex 15.0646 -19.5646 3
      vertex 15.0646 -20.4354 3
      vertex 15.1142 -20.574 3
    endloop
  endfacet
  facet normal -0 0 1
    outer loop
      vertex 15.0288 -19.7074 3
      vertex 15.0646 -20.4354 3
      vertex 15.0646 -19.5646 3
    endloop
  endfacet
  facet normal 0 0 1
    outer loop
      vertex 15.0288 -19.7074 3
      vertex 15.0288 -20.2926 3
      vertex 15.0646 -20.4354 3
    endloop
  endfacet
  facet normal -0 0 1
    outer loop
      vertex 15.0072 -19.853 3
      vertex 15.0288 -20.2926 3
      vertex 15.0288 -19.7074 3
    endloop
  endfacet
  facet normal 0 0 1
    outer loop
      vertex 15.0072 -19.853 3
      vertex 15.0072 -20.147 3
      vertex 15.0288 -20.2926 3
    endloop
  endfacet
  facet normal 0 -0 1
    outer loop
      vertex 15.0072 -20.147 3
      vertex 15.0072 -19.853 3
      vertex 15 -20 3
    endloop
  endfacet
  facet normal -0.243175 -0.969982 0
    outer loop
      vertex 16.0646 -21.4354 0
      vertex 16.2074 -21.4712 3
      vertex 16.0646 -21.4354 3
    endloop
  endfacet
  facet normal -0.243175 -0.969982 -0
    outer loop
      vertex 16.2074 -21.4712 3
      vertex 16.0646 -21.4354 0
      vertex 16.2074 -21.4712 0
    endloop
  endfacet
  facet normal -0.989174 -0.146746 0
    outer loop
      vertex 15.0288 -20.2926 0
      vertex 15.0072 -20.147 3
      vertex 15.0072 -20.147 0
    endloop
  endfacet
  facet normal -0.989174 -0.146746 0
    outer loop
      vertex 15.0072 -20.147 3
      vertex 15.0288 -20.2926 0
      vertex 15.0288 -20.2926 3
    endloop
  endfacet
  facet normal -0.427269 0.904125 0
    outer loop
      vertex 15.926 -18.6142 0
      vertex 15.7929 -18.6771 3
      vertex 15.926 -18.6142 3
    endloop
  endfacet
  facet normal -0.427269 0.904125 0
    outer loop
      vertex 15.7929 -18.6771 3
      vertex 15.926 -18.6142 0
      vertex 15.7929 -18.6771 0
    endloop
  endfacet
  facet normal 0.243175 0.969982 -0
    outer loop
      vertex 16.9354 -18.5646 0
      vertex 16.7926 -18.5288 3
      vertex 16.9354 -18.5646 3
    endloop
  endfacet
  facet normal 0.243175 0.969982 0
    outer loop
      vertex 16.7926 -18.5288 3
      vertex 16.9354 -18.5646 0
      vertex 16.7926 -18.5288 0
    endloop
  endfacet
  facet normal -0.514096 -0.857733 0
    outer loop
      vertex 15.6666 -21.2472 0
      vertex 15.7929 -21.3229 3
      vertex 15.6666 -21.2472 3
    endloop
  endfacet
  facet normal -0.514096 -0.857733 -0
    outer loop
      vertex 15.7929 -21.3229 3
      vertex 15.6666 -21.2472 0
      vertex 15.7929 -21.3229 0
    endloop
  endfacet
  facet normal 0.427269 -0.904125 0
    outer loop
      vertex 17.074 -21.3858 0
      vertex 17.2071 -21.3229 3
      vertex 17.074 -21.3858 3
    endloop
  endfacet
  facet normal 0.427269 -0.904125 0
    outer loop
      vertex 17.2071 -21.3229 3
      vertex 17.074 -21.3858 0
      vertex 17.2071 -21.3229 0
    endloop
  endfacet
  facet normal -0.904125 0.427269 0
    outer loop
      vertex 15.1142 -19.426 0
      vertex 15.1771 -19.2929 3
      vertex 15.1771 -19.2929 0
    endloop
  endfacet
  facet normal -0.904125 0.427269 0
    outer loop
      vertex 15.1771 -19.2929 3
      vertex 15.1142 -19.426 0
      vertex 15.1142 -19.426 3
    endloop
  endfacet
  facet normal -0.803088 -0.595861 0
    outer loop
      vertex 15.3405 -20.9516 0
      vertex 15.2528 -20.8334 3
      vertex 15.2528 -20.8334 0
    endloop
  endfacet
  facet normal -0.803088 -0.595861 0
    outer loop
      vertex 15.2528 -20.8334 3
      vertex 15.3405 -20.9516 0
      vertex 15.3405 -20.9516 3
    endloop
  endfacet
  facet normal 0.336939 -0.941527 0
    outer loop
      vertex 16.9354 -21.4354 0
      vertex 17.074 -21.3858 3
      vertex 16.9354 -21.4354 3
    endloop
  endfacet
  facet normal 0.336939 -0.941527 0
    outer loop
      vertex 17.074 -21.3858 3
      vertex 16.9354 -21.4354 0
      vertex 17.074 -21.3858 0
    endloop
  endfacet
  facet normal -0.336939 -0.941527 0
    outer loop
      vertex 15.926 -21.3858 0
      vertex 16.0646 -21.4354 3
      vertex 15.926 -21.3858 3
    endloop
  endfacet
  facet normal -0.336939 -0.941527 -0
    outer loop
      vertex 16.0646 -21.4354 3
      vertex 15.926 -21.3858 0
      vertex 16.0646 -21.4354 0
    endloop
  endfacet
  facet normal -0.0489209 0.998803 0
    outer loop
      vertex 16.5 -18.5 0
      vertex 16.353 -18.5072 3
      vertex 16.5 -18.5 3
    endloop
  endfacet
  facet normal -0.0489209 0.998803 0
    outer loop
      vertex 16.353 -18.5072 3
      vertex 16.5 -18.5 0
      vertex 16.353 -18.5072 0
    endloop
  endfacet
  facet normal 0.803088 -0.595861 0
    outer loop
      vertex 17.6595 -20.9516 3
      vertex 17.7472 -20.8334 0
      vertex 17.7472 -20.8334 3
    endloop
  endfacet
  facet normal 0.803088 -0.595861 0
    outer loop
      vertex 17.7472 -20.8334 0
      vertex 17.6595 -20.9516 3
      vertex 17.6595 -20.9516 0
    endloop
  endfacet
  facet normal -0.514096 0.857733 0
    outer loop
      vertex 15.7929 -18.6771 0
      vertex 15.6666 -18.7528 3
      vertex 15.7929 -18.6771 3
    endloop
  endfacet
  facet normal -0.514096 0.857733 0
    outer loop
      vertex 15.6666 -18.7528 3
      vertex 15.7929 -18.6771 0
      vertex 15.6666 -18.7528 0
    endloop
  endfacet
  facet normal -0.427269 -0.904125 0
    outer loop
      vertex 15.7929 -21.3229 0
      vertex 15.926 -21.3858 3
      vertex 15.7929 -21.3229 3
    endloop
  endfacet
  facet normal -0.427269 -0.904125 -0
    outer loop
      vertex 15.926 -21.3858 3
      vertex 15.7929 -21.3229 0
      vertex 15.926 -21.3858 0
    endloop
  endfacet
  facet normal -0.595861 -0.803088 0
    outer loop
      vertex 15.5484 -21.1595 0
      vertex 15.6666 -21.2472 3
      vertex 15.5484 -21.1595 3
    endloop
  endfacet
  facet normal -0.595861 -0.803088 -0
    outer loop
      vertex 15.6666 -21.2472 3
      vertex 15.5484 -21.1595 0
      vertex 15.6666 -21.2472 0
    endloop
  endfacet
  facet normal 0.336939 0.941527 -0
    outer loop
      vertex 17.074 -18.6142 0
      vertex 16.9354 -18.5646 3
      vertex 17.074 -18.6142 3
    endloop
  endfacet
  facet normal 0.336939 0.941527 0
    outer loop
      vertex 16.9354 -18.5646 3
      vertex 17.074 -18.6142 0
      vertex 16.9354 -18.5646 0
    endloop
  endfacet
  facet normal -0.74123 -0.671251 0
    outer loop
      vertex 15.4393 -21.0607 0
      vertex 15.3405 -20.9516 3
      vertex 15.3405 -20.9516 0
    endloop
  endfacet
  facet normal -0.74123 -0.671251 0
    outer loop
      vertex 15.3405 -20.9516 3
      vertex 15.4393 -21.0607 0
      vertex 15.4393 -21.0607 3
    endloop
  endfacet
  facet normal 0.969982 -0.243175 0
    outer loop
      vertex 17.9354 -20.4354 3
      vertex 17.9712 -20.2926 0
      vertex 17.9712 -20.2926 3
    endloop
  endfacet
  facet normal 0.969982 -0.243175 0
    outer loop
      vertex 17.9712 -20.2926 0
      vertex 17.9354 -20.4354 3
      vertex 17.9354 -20.4354 0
    endloop
  endfacet
  facet normal -0.336939 0.941527 0
    outer loop
      vertex 16.0646 -18.5646 0
      vertex 15.926 -18.6142 3
      vertex 16.0646 -18.5646 3
    endloop
  endfacet
  facet normal -0.336939 0.941527 0
    outer loop
      vertex 15.926 -18.6142 3
      vertex 16.0646 -18.5646 0
      vertex 15.926 -18.6142 0
    endloop
  endfacet
  facet normal -0.904125 -0.427269 0
    outer loop
      vertex 15.1771 -20.7071 0
      vertex 15.1142 -20.574 3
      vertex 15.1142 -20.574 0
    endloop
  endfacet
  facet normal -0.904125 -0.427269 0
    outer loop
      vertex 15.1142 -20.574 3
      vertex 15.1771 -20.7071 0
      vertex 15.1771 -20.7071 3
    endloop
  endfacet
  facet normal -0.941527 -0.336939 0
    outer loop
      vertex 15.1142 -20.574 0
      vertex 15.0646 -20.4354 3
      vertex 15.0646 -20.4354 0
    endloop
  endfacet
  facet normal -0.941527 -0.336939 0
    outer loop
      vertex 15.0646 -20.4354 3
      vertex 15.1142 -20.574 0
      vertex 15.1142 -20.574 3
    endloop
  endfacet
  facet normal 0.904125 0.427269 0
    outer loop
      vertex 17.8858 -19.426 3
      vertex 17.8229 -19.2929 0
      vertex 17.8229 -19.2929 3
    endloop
  endfacet
  facet normal 0.904125 0.427269 0
    outer loop
      vertex 17.8229 -19.2929 0
      vertex 17.8858 -19.426 3
      vertex 17.8858 -19.426 0
    endloop
  endfacet
  facet normal -0.969982 -0.243175 0
    outer loop
      vertex 15.0646 -20.4354 0
      vertex 15.0288 -20.2926 3
      vertex 15.0288 -20.2926 0
    endloop
  endfacet
  facet normal -0.969982 -0.243175 0
    outer loop
      vertex 15.0288 -20.2926 3
      vertex 15.0646 -20.4354 0
      vertex 15.0646 -20.4354 3
    endloop
  endfacet
  facet normal -0.671251 -0.74123 0
    outer loop
      vertex 15.4393 -21.0607 0
      vertex 15.5484 -21.1595 3
      vertex 15.4393 -21.0607 3
    endloop
  endfacet
  facet normal -0.671251 -0.74123 -0
    outer loop
      vertex 15.5484 -21.1595 3
      vertex 15.4393 -21.0607 0
      vertex 15.5484 -21.1595 0
    endloop
  endfacet
  facet normal 0.671251 0.74123 -0
    outer loop
      vertex 17.5607 -18.9393 0
      vertex 17.4516 -18.8405 3
      vertex 17.5607 -18.9393 3
    endloop
  endfacet
  facet normal 0.671251 0.74123 0
    outer loop
      vertex 17.4516 -18.8405 3
      vertex 17.5607 -18.9393 0
      vertex 17.4516 -18.8405 0
    endloop
  endfacet
  facet normal 0.74123 -0.671251 0
    outer loop
      vertex 17.5607 -21.0607 3
      vertex 17.6595 -20.9516 0
      vertex 17.6595 -20.9516 3
    endloop
  endfacet
  facet normal 0.74123 -0.671251 0
    outer loop
      vertex 17.6595 -20.9516 0
      vertex 17.5607 -21.0607 3
      vertex 17.5607 -21.0607 0
    endloop
  endfacet
  facet normal -0.989174 0.146746 0
    outer loop
      vertex 15.0072 -19.853 0
      vertex 15.0288 -19.7074 3
      vertex 15.0288 -19.7074 0
    endloop
  endfacet
  facet normal -0.989174 0.146746 0
    outer loop
      vertex 15.0288 -19.7074 3
      vertex 15.0072 -19.853 0
      vertex 15.0072 -19.853 3
    endloop
  endfacet
  facet normal -0.969982 0.243175 0
    outer loop
      vertex 15.0288 -19.7074 0
      vertex 15.0646 -19.5646 3
      vertex 15.0646 -19.5646 0
    endloop
  endfacet
  facet normal -0.969982 0.243175 0
    outer loop
      vertex 15.0646 -19.5646 3
      vertex 15.0288 -19.7074 0
      vertex 15.0288 -19.7074 3
    endloop
  endfacet
  facet normal 0.146746 -0.989174 0
    outer loop
      vertex 16.647 -21.4928 0
      vertex 16.7926 -21.4712 3
      vertex 16.647 -21.4928 3
    endloop
  endfacet
  facet normal 0.146746 -0.989174 0
    outer loop
      vertex 16.7926 -21.4712 3
      vertex 16.647 -21.4928 0
      vertex 16.7926 -21.4712 0
    endloop
  endfacet
  facet normal 0.857733 -0.514096 0
    outer loop
      vertex 17.7472 -20.8334 3
      vertex 17.8229 -20.7071 0
      vertex 17.8229 -20.7071 3
    endloop
  endfacet
  facet normal 0.857733 -0.514096 0
    outer loop
      vertex 17.8229 -20.7071 0
      vertex 17.7472 -20.8334 3
      vertex 17.7472 -20.8334 0
    endloop
  endfacet
  facet normal 0.941527 0.336939 0
    outer loop
      vertex 17.9354 -19.5646 3
      vertex 17.8858 -19.426 0
      vertex 17.8858 -19.426 3
    endloop
  endfacet
  facet normal 0.941527 0.336939 0
    outer loop
      vertex 17.8858 -19.426 0
      vertex 17.9354 -19.5646 3
      vertex 17.9354 -19.5646 0
    endloop
  endfacet
  facet normal -0.857733 0.514096 0
    outer loop
      vertex 15.1771 -19.2929 0
      vertex 15.2528 -19.1666 3
      vertex 15.2528 -19.1666 0
    endloop
  endfacet
  facet normal -0.857733 0.514096 0
    outer loop
      vertex 15.2528 -19.1666 3
      vertex 15.1771 -19.2929 0
      vertex 15.1771 -19.2929 3
    endloop
  endfacet
  facet normal -0.595861 0.803088 0
    outer loop
      vertex 15.6666 -18.7528 0
      vertex 15.5484 -18.8405 3
      vertex 15.6666 -18.7528 3
    endloop
  endfacet
  facet normal -0.595861 0.803088 0
    outer loop
      vertex 15.5484 -18.8405 3
      vertex 15.6666 -18.7528 0
      vertex 15.5484 -18.8405 0
    endloop
  endfacet
  facet normal 0.0489209 0.998803 -0
    outer loop
      vertex 16.647 -18.5072 0
      vertex 16.5 -18.5 3
      vertex 16.647 -18.5072 3
    endloop
  endfacet
  facet normal 0.0489209 0.998803 0
    outer loop
      vertex 16.5 -18.5 3
      vertex 16.647 -18.5072 0
      vertex 16.5 -18.5 0
    endloop
  endfacet
  facet normal 0.514096 0.857733 -0
    outer loop
      vertex 17.3334 -18.7528 0
      vertex 17.2071 -18.6771 3
      vertex 17.3334 -18.7528 3
    endloop
  endfacet
  facet normal 0.514096 0.857733 0
    outer loop
      vertex 17.2071 -18.6771 3
      vertex 17.3334 -18.7528 0
      vertex 17.2071 -18.6771 0
    endloop
  endfacet
  facet normal 0.989174 -0.146746 0
    outer loop
      vertex 17.9712 -20.2926 3
      vertex 17.9928 -20.147 0
      vertex 17.9928 -20.147 3
    endloop
  endfacet
  facet normal 0.989174 -0.146746 0
    outer loop
      vertex 17.9928 -20.147 0
      vertex 17.9712 -20.2926 3
      vertex 17.9712 -20.2926 0
    endloop
  endfacet
  facet normal 0.857733 0.514096 0
    outer loop
      vertex 17.8229 -19.2929 3
      vertex 17.7472 -19.1666 0
      vertex 17.7472 -19.1666 3
    endloop
  endfacet
  facet normal 0.857733 0.514096 0
    outer loop
      vertex 17.7472 -19.1666 0
      vertex 17.8229 -19.2929 3
      vertex 17.8229 -19.2929 0
    endloop
  endfacet
  facet normal 0.514096 -0.857733 0
    outer loop
      vertex 17.2071 -21.3229 0
      vertex 17.3334 -21.2472 3
      vertex 17.2071 -21.3229 3
    endloop
  endfacet
  facet normal 0.514096 -0.857733 0
    outer loop
      vertex 17.3334 -21.2472 3
      vertex 17.2071 -21.3229 0
      vertex 17.3334 -21.2472 0
    endloop
  endfacet
  facet normal -0.671251 0.74123 0
    outer loop
      vertex 15.5484 -18.8405 0
      vertex 15.4393 -18.9393 3
      vertex 15.5484 -18.8405 3
    endloop
  endfacet
  facet normal -0.671251 0.74123 0
    outer loop
      vertex 15.4393 -18.9393 3
      vertex 15.5484 -18.8405 0
      vertex 15.4393 -18.9393 0
    endloop
  endfacet
  facet normal 0.671251 -0.74123 0
    outer loop
      vertex 17.4516 -21.1595 0
      vertex 17.5607 -21.0607 3
      vertex 17.4516 -21.1595 3
    endloop
  endfacet
  facet normal 0.671251 -0.74123 0
    outer loop
      vertex 17.5607 -21.0607 3
      vertex 17.4516 -21.1595 0
      vertex 17.5607 -21.0607 0
    endloop
  endfacet
  facet normal -0.0489209 -0.998803 0
    outer loop
      vertex 16.353 -21.4928 0
      vertex 16.5 -21.5 3
      vertex 16.353 -21.4928 3
    endloop
  endfacet
  facet normal -0.0489209 -0.998803 -0
    outer loop
      vertex 16.5 -21.5 3
      vertex 16.353 -21.4928 0
      vertex 16.5 -21.5 0
    endloop
  endfacet
  facet normal -0.74123 0.671251 0
    outer loop
      vertex 15.3405 -19.0484 0
      vertex 15.4393 -18.9393 3
      vertex 15.4393 -18.9393 0
    endloop
  endfacet
  facet normal -0.74123 0.671251 0
    outer loop
      vertex 15.4393 -18.9393 3
      vertex 15.3405 -19.0484 0
      vertex 15.3405 -19.0484 3
    endloop
  endfacet
  facet normal -0.941527 0.336939 0
    outer loop
      vertex 15.0646 -19.5646 0
      vertex 15.1142 -19.426 3
      vertex 15.1142 -19.426 0
    endloop
  endfacet
  facet normal -0.941527 0.336939 0
    outer loop
      vertex 15.1142 -19.426 3
      vertex 15.0646 -19.5646 0
      vertex 15.0646 -19.5646 3
    endloop
  endfacet
  facet normal 0.904125 -0.427269 0
    outer loop
      vertex 17.8229 -20.7071 3
      vertex 17.8858 -20.574 0
      vertex 17.8858 -20.574 3
    endloop
  endfacet
  facet normal 0.904125 -0.427269 0
    outer loop
      vertex 17.8858 -20.574 0
      vertex 17.8229 -20.7071 3
      vertex 17.8229 -20.7071 0
    endloop
  endfacet
  facet normal 0.0489209 -0.998803 0
    outer loop
      vertex 16.5 -21.5 0
      vertex 16.647 -21.4928 3
      vertex 16.5 -21.5 3
    endloop
  endfacet
  facet normal 0.0489209 -0.998803 0
    outer loop
      vertex 16.647 -21.4928 3
      vertex 16.5 -21.5 0
      vertex 16.647 -21.4928 0
    endloop
  endfacet
  facet normal 0.941527 -0.336939 0
    outer loop
      vertex 17.8858 -20.574 3
      vertex 17.9354 -20.4354 0
      vertex 17.9354 -20.4354 3
    endloop
  endfacet
  facet normal 0.941527 -0.336939 0
    outer loop
      vertex 17.9354 -20.4354 0
      vertex 17.8858 -20.574 3
      vertex 17.8858 -20.574 0
    endloop
  endfacet
  facet normal -0.998803 0.0489209 0
    outer loop
      vertex 15 -20 0
      vertex 15.0072 -19.853 3
      vertex 15.0072 -19.853 0
    endloop
  endfacet
  facet normal -0.998803 0.0489209 0
    outer loop
      vertex 15.0072 -19.853 3
      vertex 15 -20 0
      vertex 15 -20 3
    endloop
  endfacet
  facet normal 0.74123 0.671251 0
    outer loop
      vertex 17.6595 -19.0484 3
      vertex 17.5607 -18.9393 0
      vertex 17.5607 -18.9393 3
    endloop
  endfacet
  facet normal 0.74123 0.671251 0
    outer loop
      vertex 17.5607 -18.9393 0
      vertex 17.6595 -19.0484 3
      vertex 17.6595 -19.0484 0
    endloop
  endfacet
  facet normal 0.243175 -0.969982 0
    outer loop
      vertex 16.7926 -21.4712 0
      vertex 16.9354 -21.4354 3
      vertex 16.7926 -21.4712 3
    endloop
  endfacet
  facet normal 0.243175 -0.969982 0
    outer loop
      vertex 16.9354 -21.4354 3
      vertex 16.7926 -21.4712 0
      vertex 16.9354 -21.4354 0
    endloop
  endfacet
  facet normal -0.857733 -0.514096 0
    outer loop
      vertex 15.2528 -20.8334 0
      vertex 15.1771 -20.7071 3
      vertex 15.1771 -20.7071 0
    endloop
  endfacet
  facet normal -0.857733 -0.514096 0
    outer loop
      vertex 15.1771 -20.7071 3
      vertex 15.2528 -20.8334 0
      vertex 15.2528 -20.8334 3
    endloop
  endfacet
  facet normal -0.998803 -0.0489209 0
    outer loop
      vertex 15.0072 -20.147 0
      vertex 15 -20 3
      vertex 15 -20 0
    endloop
  endfacet
  facet normal -0.998803 -0.0489209 0
    outer loop
      vertex 15 -20 3
      vertex 15.0072 -20.147 0
      vertex 15.0072 -20.147 3
    endloop
  endfacet
  facet normal -0.146746 -0.989174 0
    outer loop
      vertex 16.2074 -21.4712 0
      vertex 16.353 -21.4928 3
      vertex 16.2074 -21.4712 3
    endloop
  endfacet
  facet normal -0.146746 -0.989174 -0
    outer loop
      vertex 16.353 -21.4928 3
      vertex 16.2074 -21.4712 0
      vertex 16.353 -21.4928 0
    endloop
  endfacet
  facet normal -0.803088 0.595861 0
    outer loop
      vertex 15.2528 -19.1666 0
      vertex 15.3405 -19.0484 3
      vertex 15.3405 -19.0484 0
    endloop
  endfacet
  facet normal -0.803088 0.595861 0
    outer loop
      vertex 15.3405 -19.0484 3
      vertex 15.2528 -19.1666 0
      vertex 15.2528 -19.1666 3
    endloop
  endfacet
  facet normal 0 0 -1
    outer loop
      vertex 17.9928 -20.147 0
      vertex 17.9928 -19.853 0
      vertex 18 -20 0
    endloop
  endfacet
  facet normal 0 0 -1
    outer loop
      vertex 17.9712 -20.2926 0
      vertex 17.9928 -19.853 0
      vertex 17.9928 -20.147 0
    endloop
  endfacet
  facet normal 0 0 -1
    outer loop
      vertex 17.9712 -20.2926 0
      vertex 17.9712 -19.7074 0
      vertex 17.9928 -19.853 0
    endloop
  endfacet
  facet normal 0 0 -1
    outer loop
      vertex 17.9354 -20.4354 0
      vertex 17.9712 -19.7074 0
      vertex 17.9712 -20.2926 0
    endloop
  endfacet
  facet normal 0 0 -1
    outer loop
      vertex 17.9354 -20.4354 0
      vertex 17.9354 -19.5646 0
      vertex 17.9712 -19.7074 0
    endloop
  endfacet
  facet normal 0 0 -1
    outer loop
      vertex 17.8858 -20.574 0
      vertex 17.9354 -19.5646 0
      vertex 17.9354 -20.4354 0
    endloop
  endfacet
  facet normal 0 0 -1
    outer loop
      vertex 17.8858 -20.574 0
      vertex 17.8858 -19.426 0
      vertex 17.9354 -19.5646 0
    endloop
  endfacet
  facet normal 0 0 -1
    outer loop
      vertex 17.8229 -20.7071 0
      vertex 17.8858 -19.426 0
      vertex 17.8858 -20.574 0
    endloop
  endfacet
  facet normal 0 0 -1
    outer loop
      vertex 17.8229 -20.7071 0
      vertex 17.8229 -19.2929 0
      vertex 17.8858 -19.426 0
    endloop
  endfacet
  facet normal 0 0 -1
    outer loop
      vertex 17.7472 -20.8334 0
      vertex 17.8229 -19.2929 0
      vertex 17.8229 -20.7071 0
    endloop
  endfacet
  facet normal 0 0 -1
    outer loop
      vertex 17.7472 -20.8334 0
      vertex 17.7472 -19.1666 0
      vertex 17.8229 -19.2929 0
    endloop
  endfacet
  facet normal 0 0 -1
    outer loop
      vertex 17.6595 -20.9516 0
      vertex 17.7472 -19.1666 0
      vertex 17.7472 -20.8334 0
    endloop
  endfacet
  facet normal 0 0 -1
    outer loop
      vertex 17.6595 -20.9516 0
      vertex 17.6595 -19.0484 0
      vertex 17.7472 -19.1666 0
    endloop
  endfacet
  facet normal 0 0 -1
    outer loop
      vertex 17.5607 -21.0607 0
      vertex 17.6595 -19.0484 0
      vertex 17.6595 -20.9516 0
    endloop
  endfacet
  facet normal 0 0 -1
    outer loop
      vertex 17.5607 -21.0607 0
      vertex 17.5607 -18.9393 0
      vertex 17.6595 -19.0484 0
    endloop
  endfacet
  facet normal 0 0 -1
    outer loop
      vertex 17.4516 -21.1595 0
      vertex 17.5607 -18.9393 0
      vertex 17.5607 -21.0607 0
    endloop
  endfacet
  facet normal 0 0 -1
    outer loop
      vertex 17.4516 -21.1595 0
      vertex 17.4516 -18.8405 0
      vertex 17.5607 -18.9393 0
    endloop
  endfacet
  facet normal 0 0 -1
    outer loop
      vertex 17.3334 -21.2472 0
      vertex 17.4516 -18.8405 0
      vertex 17.4516 -21.1595 0
    endloop
  endfacet
  facet normal 0 0 -1
    outer loop
      vertex 17.3334 -21.2472 0
      vertex 17.3334 -18.7528 0
      vertex 17.4516 -18.8405 0
    endloop
  endfacet
  facet normal 0 0 -1
    outer loop
      vertex 17.2071 -21.3229 0
      vertex 17.3334 -18.7528 0
      vertex 17.3334 -21.2472 0
    endloop
  endfacet
  facet normal 0 0 -1
    outer loop
      vertex 17.2071 -21.3229 0
      vertex 17.2071 -18.6771 0
      vertex 17.3334 -18.7528 0
    endloop
  endfacet
  facet normal 0 0 -1
    outer loop
      vertex 17.074 -21.3858 0
      vertex 17.2071 -18.6771 0
      vertex 17.2071 -21.3229 0
    endloop
  endfacet
  facet normal 0 0 -1
    outer loop
      vertex 17.074 -21.3858 0
      vertex 17.074 -18.6142 0
      vertex 17.2071 -18.6771 0
    endloop
  endfacet
  facet normal 0 0 -1
    outer loop
      vertex 16.9354 -21.4354 0
      vertex 17.074 -18.6142 0
      vertex 17.074 -21.3858 0
    endloop
  endfacet
  facet normal 0 0 -1
    outer loop
      vertex 16.9354 -21.4354 0
      vertex 16.9354 -18.5646 0
      vertex 17.074 -18.6142 0
    endloop
  endfacet
  facet normal 0 0 -1
    outer loop
      vertex 16.7926 -21.4712 0
      vertex 16.9354 -18.5646 0
      vertex 16.9354 -21.4354 0
    endloop
  endfacet
  facet normal 0 0 -1
    outer loop
      vertex 16.7926 -21.4712 0
      vertex 16.7926 -18.5288 0
      vertex 16.9354 -18.5646 0
    endloop
  endfacet
  facet normal 0 0 -1
    outer loop
      vertex 16.647 -21.4928 0
      vertex 16.7926 -18.5288 0
      vertex 16.7926 -21.4712 0
    endloop
  endfacet
  facet normal 0 0 -1
    outer loop
      vertex 16.647 -21.4928 0
      vertex 16.647 -18.5072 0
      vertex 16.7926 -18.5288 0
    endloop
  endfacet
  facet normal 0 0 -1
    outer loop
      vertex 16.5 -21.5 0
      vertex 16.647 -18.5072 0
      vertex 16.647 -21.4928 0
    endloop
  endfacet
  facet normal 0 0 -1
    outer loop
      vertex 16.5 -21.5 0
      vertex 16.5 -18.5 0
      vertex 16.647 -18.5072 0
    endloop
  endfacet
  facet normal 0 0 -1
    outer loop
      vertex 16.353 -21.4928 0
      vertex 16.5 -18.5 0
      vertex 16.5 -21.5 0
    endloop
  endfacet
  facet normal 0 0 -1
    outer loop
      vertex 16.353 -21.4928 0
      vertex 16.353 -18.5072 0
      vertex 16.5 -18.5 0
    endloop
  endfacet
  facet normal 0 0 -1
    outer loop
      vertex 16.2074 -21.4712 0
      vertex 16.353 -18.5072 0
      vertex 16.353 -21.4928 0
    endloop
  endfacet
  facet normal 0 0 -1
    outer loop
      vertex 16.2074 -21.4712 0
      vertex 16.2074 -18.5288 0
      vertex 16.353 -18.5072 0
    endloop
  endfacet
  facet normal 0 0 -1
    outer loop
      vertex 16.0646 -21.4354 0
      vertex 16.2074 -18.5288 0
      vertex 16.2074 -21.4712 0
    endloop
  endfacet
  facet normal 0 0 -1
    outer loop
      vertex 16.0646 -21.4354 0
      vertex 16.0646 -18.5646 0
      vertex 16.2074 -18.5288 0
    endloop
  endfacet
  facet normal 0 0 -1
    outer loop
      vertex 15.926 -21.3858 0
      vertex 16.0646 -18.5646 0
      vertex 16.0646 -21.4354 0
    endloop
  endfacet
  facet normal 0 0 -1
    outer loop
      vertex 15.926 -21.3858 0
      vertex 15.926 -18.6142 0
      vertex 16.0646 -18.5646 0
    endloop
  endfacet
  facet normal 0 0 -1
    outer loop
      vertex 15.7929 -21.3229 0
      vertex 15.926 -18.6142 0
      vertex 15.926 -21.3858 0
    endloop
  endfacet
  facet normal 0 0 -1
    outer loop
      vertex 15.7929 -21.3229 0
      vertex 15.7929 -18.6771 0
      vertex 15.926 -18.6142 0
    endloop
  endfacet
  facet normal 0 0 -1
    outer loop
      vertex 15.6666 -21.2472 0
      vertex 15.7929 -18.6771 0
      vertex 15.7929 -21.3229 0
    endloop
  endfacet
  facet normal 0 0 -1
    outer loop
      vertex 15.6666 -21.2472 0
      vertex 15.6666 -18.7528 0
      vertex 15.7929 -18.6771 0
    endloop
  endfacet
  facet normal 0 0 -1
    outer loop
      vertex 15.5484 -21.1595 0
      vertex 15.6666 -18.7528 0
      vertex 15.6666 -21.2472 0
    endloop
  endfacet
  facet normal 0 0 -1
    outer loop
      vertex 15.5484 -21.1595 0
      vertex 15.5484 -18.8405 0
      vertex 15.6666 -18.7528 0
    endloop
  endfacet
  facet normal 0 0 -1
    outer loop
      vertex 15.4393 -21.0607 0
      vertex 15.5484 -18.8405 0
      vertex 15.5484 -21.1595 0
    endloop
  endfacet
  facet normal 0 0 -1
    outer loop
      vertex 15.4393 -21.0607 0
      vertex 15.4393 -18.9393 0
      vertex 15.5484 -18.8405 0
    endloop
  endfacet
  facet normal 0 0 -1
    outer loop
      vertex 15.3405 -20.9516 0
      vertex 15.4393 -18.9393 0
      vertex 15.4393 -21.0607 0
    endloop
  endfacet
  facet normal 0 0 -1
    outer loop
      vertex 15.3405 -20.9516 0
      vertex 15.3405 -19.0484 0
      vertex 15.4393 -18.9393 0
    endloop
  endfacet
  facet normal 0 0 -1
    outer loop
      vertex 15.2528 -20.8334 0
      vertex 15.3405 -19.0484 0
      vertex 15.3405 -20.9516 0
    endloop
  endfacet
  facet normal 0 0 -1
    outer loop
      vertex 15.2528 -20.8334 0
      vertex 15.2528 -19.1666 0
      vertex 15.3405 -19.0484 0
    endloop
  endfacet
  facet normal 0 0 -1
    outer loop
      vertex 15.1771 -20.7071 0
      vertex 15.2528 -19.1666 0
      vertex 15.2528 -20.8334 0
    endloop
  endfacet
  facet normal 0 0 -1
    outer loop
      vertex 15.1771 -20.7071 0
      vertex 15.1771 -19.2929 0
      vertex 15.2528 -19.1666 0
    endloop
  endfacet
  facet normal 0 0 -1
    outer loop
      vertex 15.1142 -20.574 0
      vertex 15.1771 -19.2929 0
      vertex 15.1771 -20.7071 0
    endloop
  endfacet
  facet normal 0 0 -1
    outer loop
      vertex 15.1142 -20.574 0
      vertex 15.1142 -19.426 0
      vertex 15.1771 -19.2929 0
    endloop
  endfacet
  facet normal 0 0 -1
    outer loop
      vertex 15.0646 -20.4354 0
      vertex 15.1142 -19.426 0
      vertex 15.1142 -20.574 0
    endloop
  endfacet
  facet normal 0 0 -1
    outer loop
      vertex 15.0646 -20.4354 0
      vertex 15.0646 -19.5646 0
      vertex 15.1142 -19.426 0
    endloop
  endfacet
  facet normal 0 0 -1
    outer loop
      vertex 15.0288 -20.2926 0
      vertex 15.0646 -19.5646 0
      vertex 15.0646 -20.4354 0
    endloop
  endfacet
  facet normal 0 0 -1
    outer loop
      vertex 15.0288 -20.2926 0
      vertex 15.0288 -19.7074 0
      vertex 15.0646 -19.5646 0
    endloop
  endfacet
  facet normal 0 0 -1
    outer loop
      vertex 15.0072 -20.147 0
      vertex 15.0288 -19.7074 0
      vertex 15.0288 -20.2926 0
    endloop
  endfacet
  facet normal 0 0 -1
    outer loop
      vertex 15.0072 -20.147 0
      vertex 15.0072 -19.853 0
      vertex 15.0288 -19.7074 0
    endloop
  endfacet
  facet normal 0 -0 -1
    outer loop
      vertex 15.0072 -19.853 0
      vertex 15.0072 -20.147 0
      vertex 15 -20 0
    endloop
  endfacet
endsolid OpenSCAD_Model
