solid OpenSCAD_Model
  facet normal 1 -0 0
    outer loop
      vertex 12.95 -3.2 1.75
      vertex 12.95 3.2 -1.75
      vertex 12.95 3.2 1.75
    endloop
  endfacet
  facet normal 1 0 0
    outer loop
      vertex 12.95 3.2 -1.75
      vertex 12.95 -3.2 1.75
      vertex 12.95 -3.2 -1.75
    endloop
  endfacet
  facet normal -0 0 1
    outer loop
      vertex -12.95 3.2 1.75
      vertex 12.95 -3.2 1.75
      vertex 12.95 3.2 1.75
    endloop
  endfacet
  facet normal 0 0 1
    outer loop
      vertex 12.95 -3.2 1.75
      vertex -12.95 3.2 1.75
      vertex -12.95 -3.2 1.75
    endloop
  endfacet
  facet normal 0 0 -1
    outer loop
      vertex -10 1.1 -1.75
      vertex 12.95 -3.2 -1.75
      vertex -10 -3.2 -1.75
    endloop
  endfacet
  facet normal 0 0 -1
    outer loop
      vertex 12.95 -3.2 -1.75
      vertex -10 1.1 -1.75
      vertex 12.95 3.2 -1.75
    endloop
  endfacet
  facet normal 0 0 -1
    outer loop
      vertex -12.95 3.2 -1.75
      vertex -10 1.1 -1.75
      vertex -12.95 1.1 -1.75
    endloop
  endfacet
  facet normal 0 0 -1
    outer loop
      vertex -10 1.1 -1.75
      vertex -12.95 3.2 -1.75
      vertex 12.95 3.2 -1.75
    endloop
  endfacet
  facet normal -1 0 0
    outer loop
      vertex -12.95 1.1 0
      vertex -12.95 3.2 -1.75
      vertex -12.95 1.1 -1.75
    endloop
  endfacet
  facet normal -1 0 0
    outer loop
      vertex -12.95 3.2 -1.75
      vertex -12.95 1.1 0
      vertex -12.95 3.2 1.75
    endloop
  endfacet
  facet normal -1 0 0
    outer loop
      vertex -12.95 -3.2 1.75
      vertex -12.95 1.1 0
      vertex -12.95 -3.2 0
    endloop
  endfacet
  facet normal -1 0 0
    outer loop
      vertex -12.95 1.1 0
      vertex -12.95 -3.2 1.75
      vertex -12.95 3.2 1.75
    endloop
  endfacet
  facet normal 0 1 -0
    outer loop
      vertex 12.95 3.2 -1.75
      vertex -12.95 3.2 1.75
      vertex 12.95 3.2 1.75
    endloop
  endfacet
  facet normal 0 1 0
    outer loop
      vertex -12.95 3.2 1.75
      vertex 12.95 3.2 -1.75
      vertex -12.95 3.2 -1.75
    endloop
  endfacet
  facet normal 0 -1 0
    outer loop
      vertex -10 -3.2 0
      vertex -12.95 -3.2 1.75
      vertex -12.95 -3.2 0
    endloop
  endfacet
  facet normal 0 -1 0
    outer loop
      vertex -12.95 -3.2 1.75
      vertex -10 -3.2 0
      vertex 12.95 -3.2 1.75
    endloop
  endfacet
  facet normal 0 -1 0
    outer loop
      vertex 12.95 -3.2 -1.75
      vertex -10 -3.2 0
      vertex -10 -3.2 -1.75
    endloop
  endfacet
  facet normal 0 -1 0
    outer loop
      vertex -10 -3.2 0
      vertex 12.95 -3.2 -1.75
      vertex 12.95 -3.2 1.75
    endloop
  endfacet
  facet normal -1 0 0
    outer loop
      vertex -10 -3.2 -1.75
      vertex -10 1.1 0
      vertex -10 1.1 -1.75
    endloop
  endfacet
  facet normal -1 -0 0
    outer loop
      vertex -10 1.1 0
      vertex -10 -3.2 -1.75
      vertex -10 -3.2 0
    endloop
  endfacet
  facet normal 0 0 -1
    outer loop
      vertex -12.95 -3.2 0
      vertex -10 1.1 0
      vertex -10 -3.2 0
    endloop
  endfacet
  facet normal -0 0 -1
    outer loop
      vertex -10 1.1 0
      vertex -12.95 -3.2 0
      vertex -12.95 1.1 0
    endloop
  endfacet
  facet normal 0 -1 0
    outer loop
      vertex -12.95 1.1 -1.75
      vertex -10 1.1 0
      vertex -12.95 1.1 0
    endloop
  endfacet
  facet normal 0 -1 -0
    outer loop
      vertex -10 1.1 0
      vertex -12.95 1.1 -1.75
      vertex -10 1.1 -1.75
    endloop
  endfacet
endsolid OpenSCAD_Model
