solid OpenSCAD_Model
  facet normal 1 -0 0
    outer loop
      vertex 7.2 -250 3.5
      vertex 7.2 250 -3.5
      vertex 7.2 250 3.5
    endloop
  endfacet
  facet normal 1 0 0
    outer loop
      vertex 7.2 250 -3.5
      vertex 7.2 -250 3.5
      vertex 7.2 -250 -3.5
    endloop
  endfacet
  facet normal -0 0 1
    outer loop
      vertex -7.2 250 3.5
      vertex -6.3 -250 3.5
      vertex -6.3 250 3.5
    endloop
  endfacet
  facet normal 0 0 1
    outer loop
      vertex -6.3 -250 3.5
      vertex -7.2 250 3.5
      vertex -7.2 -250 3.5
    endloop
  endfacet
  facet normal -0 0 1
    outer loop
      vertex 6.3 250 3.5
      vertex 7.2 -250 3.5
      vertex 7.2 250 3.5
    endloop
  endfacet
  facet normal 0 0 1
    outer loop
      vertex 7.2 -250 3.5
      vertex 6.3 250 3.5
      vertex 6.3 -250 3.5
    endloop
  endfacet
  facet normal 0 0 -1
    outer loop
      vertex -7.2 -250 -3.5
      vertex 7.2 250 -3.5
      vertex 7.2 -250 -3.5
    endloop
  endfacet
  facet normal -0 0 -1
    outer loop
      vertex 7.2 250 -3.5
      vertex -7.2 -250 -3.5
      vertex -7.2 250 -3.5
    endloop
  endfacet
  facet normal -1 0 0
    outer loop
      vertex -7.2 -250 -3.5
      vertex -7.2 250 3.5
      vertex -7.2 250 -3.5
    endloop
  endfacet
  facet normal -1 -0 0
    outer loop
      vertex -7.2 250 3.5
      vertex -7.2 -250 -3.5
      vertex -7.2 -250 3.5
    endloop
  endfacet
  facet normal 0 1 0
    outer loop
      vertex 7.2 250 3.5
      vertex 6.3 250 -2.15
      vertex 6.3 250 3.5
    endloop
  endfacet
  facet normal 0 1 0
    outer loop
      vertex 6.3 250 -2.15
      vertex 7.2 250 -3.5
      vertex -6.3 250 -2.15
    endloop
  endfacet
  facet normal 0 1 -0
    outer loop
      vertex 7.2 250 -3.5
      vertex 6.3 250 -2.15
      vertex 7.2 250 3.5
    endloop
  endfacet
  facet normal 0 1 -0
    outer loop
      vertex -6.3 250 -2.15
      vertex -7.2 250 3.5
      vertex -6.3 250 3.5
    endloop
  endfacet
  facet normal 0 1 0
    outer loop
      vertex -6.3 250 -2.15
      vertex -7.2 250 -3.5
      vertex -7.2 250 3.5
    endloop
  endfacet
  facet normal 0 1 0
    outer loop
      vertex -7.2 250 -3.5
      vertex -6.3 250 -2.15
      vertex 7.2 250 -3.5
    endloop
  endfacet
  facet normal 0 -1 0
    outer loop
      vertex -7.2 -250 3.5
      vertex -6.3 -250 -2.15
      vertex -6.3 -250 3.5
    endloop
  endfacet
  facet normal 0 -1 -0
    outer loop
      vertex -6.3 -250 -2.15
      vertex -7.2 -250 -3.5
      vertex 6.3 -250 -2.15
    endloop
  endfacet
  facet normal 0 -1 0
    outer loop
      vertex -7.2 -250 -3.5
      vertex -6.3 -250 -2.15
      vertex -7.2 -250 3.5
    endloop
  endfacet
  facet normal 0 -1 0
    outer loop
      vertex 6.3 -250 -2.15
      vertex 7.2 -250 3.5
      vertex 6.3 -250 3.5
    endloop
  endfacet
  facet normal 0 -1 0
    outer loop
      vertex 6.3 -250 -2.15
      vertex 7.2 -250 -3.5
      vertex 7.2 -250 3.5
    endloop
  endfacet
  facet normal 0 -1 0
    outer loop
      vertex 7.2 -250 -3.5
      vertex 6.3 -250 -2.15
      vertex -7.2 -250 -3.5
    endloop
  endfacet
  facet normal -1 0 0
    outer loop
      vertex 6.3 -250 -2.15
      vertex 6.3 250 3.5
      vertex 6.3 250 -2.15
    endloop
  endfacet
  facet normal -1 -0 0
    outer loop
      vertex 6.3 250 3.5
      vertex 6.3 -250 -2.15
      vertex 6.3 -250 3.5
    endloop
  endfacet
  facet normal -0 0 1
    outer loop
      vertex -6.3 250 -2.15
      vertex 6.3 -250 -2.15
      vertex 6.3 250 -2.15
    endloop
  endfacet
  facet normal 0 0 1
    outer loop
      vertex 6.3 -250 -2.15
      vertex -6.3 250 -2.15
      vertex -6.3 -250 -2.15
    endloop
  endfacet
  facet normal 1 -0 0
    outer loop
      vertex -6.3 -250 3.5
      vertex -6.3 250 -2.15
      vertex -6.3 250 3.5
    endloop
  endfacet
  facet normal 1 0 0
    outer loop
      vertex -6.3 250 -2.15
      vertex -6.3 -250 3.5
      vertex -6.3 -250 -2.15
    endloop
  endfacet
endsolid OpenSCAD_Model
