solid OpenSCAD_Model
  facet normal 0.499991 0.866031 0
    outer loop
      vertex 3.17837 3.52994 15.6
      vertex 3.17837 3.52994 10.875
      vertex 2.88381 3.7 15.6
    endloop
  endfacet
  facet normal 0.500002 0.866024 -0
    outer loop
      vertex 2.88381 3.7 15.6
      vertex 1.46783 4.51752 16.26
      vertex 2.88381 3.7 16.26
    endloop
  endfacet
  facet normal 0.5 0.866026 7.64243e-07
    outer loop
      vertex 1.46783 4.51752 10.875
      vertex 2.88381 3.7 15.6
      vertex 3.17837 3.52994 10.875
    endloop
  endfacet
  facet normal 0.500002 0.866024 0
    outer loop
      vertex 2.88381 3.7 15.6
      vertex 1.46783 4.51752 10.875
      vertex 1.46783 4.51752 16.26
    endloop
  endfacet
  facet normal 0.809017 0.587785 0
    outer loop
      vertex 4.33934 1.932 15.6
      vertex 3.17837 3.52994 10.875
      vertex 3.17837 3.52994 15.6
    endloop
  endfacet
  facet normal 0.809017 0.587785 0
    outer loop
      vertex 3.17837 3.52994 10.875
      vertex 4.33934 1.932 15.6
      vertex 4.33934 1.932 10.875
    endloop
  endfacet
  facet normal 0.978148 0.207912 0
    outer loop
      vertex 4.34 1.9289 16.26
      vertex 4.75 0 16.26
      vertex 4.34 1.9289 15.6
    endloop
  endfacet
  facet normal 0.978079 0.208236 0
    outer loop
      vertex 4.34 1.9289 15.6
      vertex 4.33934 1.932 10.875
      vertex 4.33934 1.932 15.6
    endloop
  endfacet
  facet normal 0.978148 0.207912 -0
    outer loop
      vertex 4.75 0 10.875
      vertex 4.34 1.9289 15.6
      vertex 4.75 0 16.26
    endloop
  endfacet
  facet normal 0.978148 0.207912 -2.22231e-07
    outer loop
      vertex 4.34 1.9289 15.6
      vertex 4.75 0 10.875
      vertex 4.33934 1.932 10.875
    endloop
  endfacet
  facet normal -0.913546 -0.406735 0
    outer loop
      vertex -4.6462 -0.98758 10.875
      vertex -4.34 -1.67532 15.6
      vertex -4.6462 -0.98758 16.26
    endloop
  endfacet
  facet normal -0.913546 -0.406736 -2.57569e-07
    outer loop
      vertex -3.84283 -2.79198 10.875
      vertex -4.34 -1.67532 15.6
      vertex -4.6462 -0.98758 10.875
    endloop
  endfacet
  facet normal -0.913545 -0.406737 0
    outer loop
      vertex -4.34 -1.67532 15.6
      vertex -3.84283 -2.79198 10.875
      vertex -3.84283 -2.79198 15.6
    endloop
  endfacet
  facet normal -0.913546 -0.406735 0
    outer loop
      vertex -4.6462 -0.98758 16.26
      vertex -4.34 -1.67532 15.6
      vertex -4.34 -1.67532 16.26
    endloop
  endfacet
  facet normal -0.913545 0.406737 0
    outer loop
      vertex -3.84283 2.79198 10.875
      vertex -4.34 1.67532 15.6
      vertex -3.84283 2.79198 15.6
    endloop
  endfacet
  facet normal -0.913546 0.406736 -2.57569e-07
    outer loop
      vertex -4.6462 0.98758 10.875
      vertex -4.34 1.67532 15.6
      vertex -3.84283 2.79198 10.875
    endloop
  endfacet
  facet normal -0.913546 0.406735 0
    outer loop
      vertex -4.6462 0.98758 16.26
      vertex -4.34 1.67532 15.6
      vertex -4.6462 0.98758 10.875
    endloop
  endfacet
  facet normal -0.913546 0.406735 0
    outer loop
      vertex -4.34 1.67532 15.6
      vertex -4.6462 0.98758 16.26
      vertex -4.34 1.67532 16.26
    endloop
  endfacet
  facet normal 0.978148 -0.207912 0
    outer loop
      vertex 4.34 -1.9289 15.6
      vertex 4.75 0 16.26
      vertex 4.34 -1.9289 16.26
    endloop
  endfacet
  facet normal 0.978148 -0.207912 0
    outer loop
      vertex 4.75 0 16.26
      vertex 4.34 -1.9289 15.6
      vertex 4.75 0 10.875
    endloop
  endfacet
  facet normal 0.978079 -0.208236 0
    outer loop
      vertex 4.33934 -1.932 10.875
      vertex 4.34 -1.9289 15.6
      vertex 4.33934 -1.932 15.6
    endloop
  endfacet
  facet normal 0.978148 -0.207912 -2.22231e-07
    outer loop
      vertex 4.34 -1.9289 15.6
      vertex 4.33934 -1.932 10.875
      vertex 4.75 0 10.875
    endloop
  endfacet
  facet normal -0.66913 -0.743145 -0
    outer loop
      vertex -3.84283 -2.79198 15.6
      vertex -3.84283 -2.79198 10.875
      vertex -2.83437 -3.7 15.6
    endloop
  endfacet
  facet normal -0.669132 -0.743144 0
    outer loop
      vertex -2.83437 -3.7 15.6
      vertex -2.375 -4.11362 16.26
      vertex -2.83437 -3.7 16.26
    endloop
  endfacet
  facet normal -0.669131 -0.743145 2.22638e-07
    outer loop
      vertex -2.375 -4.11362 10.875
      vertex -2.83437 -3.7 15.6
      vertex -3.84283 -2.79198 10.875
    endloop
  endfacet
  facet normal -0.669132 -0.743144 0
    outer loop
      vertex -2.83437 -3.7 15.6
      vertex -2.375 -4.11362 10.875
      vertex -2.375 -4.11362 16.26
    endloop
  endfacet
  facet normal -0.309018 0.951056 0
    outer loop
      vertex -0.49651 4.72398 10.875
      vertex -2.375 4.11362 16.26
      vertex -0.49651 4.72398 16.26
    endloop
  endfacet
  facet normal -0.309018 0.951056 0
    outer loop
      vertex -2.375 4.11362 16.26
      vertex -0.49651 4.72398 10.875
      vertex -2.375 4.11362 10.875
    endloop
  endfacet
  facet normal -1 0 0
    outer loop
      vertex -4.6462 -0.98758 10.875
      vertex -4.6462 0.98758 16.26
      vertex -4.6462 0.98758 10.875
    endloop
  endfacet
  facet normal -1 -0 0
    outer loop
      vertex -4.6462 0.98758 16.26
      vertex -4.6462 -0.98758 10.875
      vertex -4.6462 -0.98758 16.26
    endloop
  endfacet
  facet normal -0.309018 -0.951056 0
    outer loop
      vertex -2.375 -4.11362 10.875
      vertex -0.49651 -4.72398 16.26
      vertex -2.375 -4.11362 16.26
    endloop
  endfacet
  facet normal -0.309018 -0.951056 -0
    outer loop
      vertex -0.49651 -4.72398 16.26
      vertex -2.375 -4.11362 10.875
      vertex -0.49651 -4.72398 10.875
    endloop
  endfacet
  facet normal 0.104528 -0.994522 0
    outer loop
      vertex -0.49651 -4.72398 10.875
      vertex 1.46783 -4.51752 16.26
      vertex -0.49651 -4.72398 16.26
    endloop
  endfacet
  facet normal 0.104528 -0.994522 0
    outer loop
      vertex 1.46783 -4.51752 16.26
      vertex -0.49651 -4.72398 10.875
      vertex 1.46783 -4.51752 10.875
    endloop
  endfacet
  facet normal 0.809017 -0.587785 0
    outer loop
      vertex 3.17837 -3.52994 15.6
      vertex 4.33934 -1.932 10.875
      vertex 4.33934 -1.932 15.6
    endloop
  endfacet
  facet normal 0.809017 -0.587785 0
    outer loop
      vertex 4.33934 -1.932 10.875
      vertex 3.17837 -3.52994 15.6
      vertex 3.17837 -3.52994 10.875
    endloop
  endfacet
  facet normal 0.104528 0.994522 -0
    outer loop
      vertex 1.46783 4.51752 10.875
      vertex -0.49651 4.72398 16.26
      vertex 1.46783 4.51752 16.26
    endloop
  endfacet
  facet normal 0.104528 0.994522 0
    outer loop
      vertex -0.49651 4.72398 16.26
      vertex 1.46783 4.51752 10.875
      vertex -0.49651 4.72398 10.875
    endloop
  endfacet
  facet normal -0.669132 0.743144 0
    outer loop
      vertex -2.375 4.11362 16.26
      vertex -2.83437 3.7 15.6
      vertex -2.83437 3.7 16.26
    endloop
  endfacet
  facet normal -0.669132 0.743144 0
    outer loop
      vertex -2.375 4.11362 10.875
      vertex -2.83437 3.7 15.6
      vertex -2.375 4.11362 16.26
    endloop
  endfacet
  facet normal -0.669131 0.743145 2.22638e-07
    outer loop
      vertex -3.84283 2.79198 10.875
      vertex -2.83437 3.7 15.6
      vertex -2.375 4.11362 10.875
    endloop
  endfacet
  facet normal -0.66913 0.743145 0
    outer loop
      vertex -2.83437 3.7 15.6
      vertex -3.84283 2.79198 10.875
      vertex -3.84283 2.79198 15.6
    endloop
  endfacet
  facet normal 0.500002 -0.866024 0
    outer loop
      vertex 1.46783 -4.51752 16.26
      vertex 2.88381 -3.7 15.6
      vertex 2.88381 -3.7 16.26
    endloop
  endfacet
  facet normal 0.500002 -0.866024 0
    outer loop
      vertex 1.46783 -4.51752 10.875
      vertex 2.88381 -3.7 15.6
      vertex 1.46783 -4.51752 16.26
    endloop
  endfacet
  facet normal 0.5 -0.866026 7.64243e-07
    outer loop
      vertex 3.17837 -3.52994 10.875
      vertex 2.88381 -3.7 15.6
      vertex 1.46783 -4.51752 10.875
    endloop
  endfacet
  facet normal 0.499991 -0.866031 0
    outer loop
      vertex 2.88381 -3.7 15.6
      vertex 3.17837 -3.52994 10.875
      vertex 3.17837 -3.52994 15.6
    endloop
  endfacet
  facet normal 0.10453 -0.994482 0.00890209
    outer loop
      vertex -0.190982 -4.55187 24.94
      vertex -0.412887 -3.92836 97.2
      vertex -0.481631 -4.58242 24.94
    endloop
  endfacet
  facet normal 0.104525 -0.994482 0.00890208
    outer loop
      vertex -0.412887 -3.92836 97.2
      vertex -0.190982 -4.55187 24.94
      vertex 1.22062 -3.75667 97.2
    endloop
  endfacet
  facet normal -0.669104 -0.743115 0.00890201
    outer loop
      vertex -2.61751 -3.7 25.6
      vertex -1.975 -3.4208 97.2
      vertex -3.49646 -2.90859 25.6
    endloop
  endfacet
  facet normal -0.66911 -0.74311 0.00890204
    outer loop
      vertex -2.61751 -3.7 25.6
      vertex -2.30383 -3.99035 24.94
      vertex -1.975 -3.4208 97.2
    endloop
  endfacet
  facet normal -0.669111 -0.743109 0.00890121
    outer loop
      vertex -2.30383 -3.99035 24.94
      vertex -2.61751 -3.7 25.6
      vertex -2.62629 -3.7 24.94
    endloop
  endfacet
  facet normal 0.978108 0.207906 0.00890196
    outer loop
      vertex 3.95 0 97.2
      vertex 4.54689 0.285863 24.94
      vertex 3.6085 1.60661 97.2
    endloop
  endfacet
  facet normal 0.978103 0.207929 0.00890201
    outer loop
      vertex 4.54689 0.285863 24.94
      vertex 3.95 0 97.2
      vertex 4.60766 0 24.94
    endloop
  endfacet
  facet normal 0.97811 0.207899 0.00890212
    outer loop
      vertex 3.6085 1.60661 97.2
      vertex 4.34 1.23097 25.6
      vertex 4.20382 1.87166 25.6
    endloop
  endfacet
  facet normal 0.97811 0.207898 0.00890213
    outer loop
      vertex 4.34 1.23097 25.6
      vertex 3.6085 1.60661 97.2
      vertex 4.54689 0.285863 24.94
    endloop
  endfacet
  facet normal 0.97811 0.207898 0.00890182
    outer loop
      vertex 4.34 1.25923 24.94
      vertex 4.34 1.23097 25.6
      vertex 4.54689 0.285863 24.94
    endloop
  endfacet
  facet normal 0.499981 -0.86599 0.00890202
    outer loop
      vertex 1.67694 -4.23602 24.94
      vertex 2.5936 -3.7 25.6
      vertex 2.64307 -2.93542 97.2
    endloop
  endfacet
  facet normal 0.499982 -0.86599 0.00890119
    outer loop
      vertex 2.5936 -3.7 25.6
      vertex 1.67694 -4.23602 24.94
      vertex 2.60535 -3.7 24.94
    endloop
  endfacet
  facet normal 0.499989 -0.865986 0.00890197
    outer loop
      vertex 2.64307 -2.93542 97.2
      vertex 2.5936 -3.7 25.6
      vertex 3.0791 -3.41969 25.6
    endloop
  endfacet
  facet normal -0.91351 -0.406718 0.00890202
    outer loop
      vertex -3.8467 -2.42653 25.6
      vertex -3.19562 -2.32175 97.2
      vertex -3.86368 -0.821251 97.2
    endloop
  endfacet
  facet normal -0.913503 -0.406735 0.00890197
    outer loop
      vertex -3.19562 -2.32175 97.2
      vertex -3.8467 -2.42653 25.6
      vertex -3.72281 -2.70478 25.6
    endloop
  endfacet
  facet normal -0.913503 0.406735 0.00890197
    outer loop
      vertex -3.8467 2.42653 25.6
      vertex -3.19562 2.32175 97.2
      vertex -3.72281 2.70478 25.6
    endloop
  endfacet
  facet normal -0.91351 0.406718 0.00890202
    outer loop
      vertex -3.19562 2.32175 97.2
      vertex -3.8467 2.42653 25.6
      vertex -3.86368 0.821251 97.2
    endloop
  endfacet
  facet normal -0.309006 0.951019 0.00890206
    outer loop
      vertex -0.759576 4.49211 24.94
      vertex -2.30383 3.99035 24.94
      vertex -1.975 3.4208 97.2
    endloop
  endfacet
  facet normal 0.104528 -0.994482 0.00890203
    outer loop
      vertex 1.22062 -3.75667 97.2
      vertex -0.190982 -4.55187 24.94
      vertex 1.42384 -4.38214 24.94
    endloop
  endfacet
  facet normal -0.309006 -0.951019 0.00890206
    outer loop
      vertex -1.975 -3.4208 97.2
      vertex -2.30383 -3.99035 24.94
      vertex -0.759576 -4.49211 24.94
    endloop
  endfacet
  facet normal 0.808983 0.587765 0.0089021
    outer loop
      vertex 4.20382 1.87166 25.6
      vertex 3.25813 3.17328 25.6
      vertex 3.6085 1.60661 97.2
    endloop
  endfacet
  facet normal 0.499989 0.865986 0.00890197
    outer loop
      vertex 2.5936 3.7 25.6
      vertex 2.64307 2.93542 97.2
      vertex 3.0791 3.41969 25.6
    endloop
  endfacet
  facet normal 0.499981 0.86599 0.00890202
    outer loop
      vertex 2.5936 3.7 25.6
      vertex 1.67694 4.23602 24.94
      vertex 2.64307 2.93542 97.2
    endloop
  endfacet
  facet normal 0.499982 0.86599 0.00890119
    outer loop
      vertex 1.67694 4.23602 24.94
      vertex 2.5936 3.7 25.6
      vertex 2.60535 3.7 24.94
    endloop
  endfacet
  facet normal -0.669111 -0.74311 0.00890198
    outer loop
      vertex -3.49646 -2.90859 25.6
      vertex -3.19562 -2.32175 97.2
      vertex -3.72281 -2.70478 25.6
    endloop
  endfacet
  facet normal -0.669104 -0.743116 0.008902
    outer loop
      vertex -3.19562 -2.32175 97.2
      vertex -3.49646 -2.90859 25.6
      vertex -1.975 -3.4208 97.2
    endloop
  endfacet
  facet normal 0.808983 -0.587765 0.0089021
    outer loop
      vertex 3.6085 -1.60661 97.2
      vertex 3.25813 -3.17328 25.6
      vertex 4.20382 -1.87166 25.6
    endloop
  endfacet
  facet normal 0.104528 0.994482 0.00890203
    outer loop
      vertex 1.42384 4.38214 24.94
      vertex -0.190982 4.55187 24.94
      vertex 1.22062 3.75667 97.2
    endloop
  endfacet
  facet normal -0.66911 0.74311 0.00890204
    outer loop
      vertex -2.30383 3.99035 24.94
      vertex -2.61751 3.7 25.6
      vertex -1.975 3.4208 97.2
    endloop
  endfacet
  facet normal -0.669111 0.743109 0.00890121
    outer loop
      vertex -2.61751 3.7 25.6
      vertex -2.30383 3.99035 24.94
      vertex -2.62629 3.7 24.94
    endloop
  endfacet
  facet normal -0.669104 0.743115 0.00890201
    outer loop
      vertex -1.975 3.4208 97.2
      vertex -2.61751 3.7 25.6
      vertex -3.49646 2.90859 25.6
    endloop
  endfacet
  facet normal -0.913507 0.406726 0.00889867
    outer loop
      vertex -4.34 1.333 24.94
      vertex -4.50697 0.957985 24.94
      vertex -4.34 1.31856 25.6
    endloop
  endfacet
  facet normal -0.913509 0.406721 0.00890207
    outer loop
      vertex -4.34 1.31856 25.6
      vertex -3.86368 0.821251 97.2
      vertex -3.8467 2.42653 25.6
    endloop
  endfacet
  facet normal -0.913509 0.406721 0.00890207
    outer loop
      vertex -3.86368 0.821251 97.2
      vertex -4.34 1.31856 25.6
      vertex -4.50697 0.957985 24.94
    endloop
  endfacet
  facet normal 0.808981 0.587768 0.00890193
    outer loop
      vertex 2.64307 2.93542 97.2
      vertex 3.25813 3.17328 25.6
      vertex 3.0791 3.41969 25.6
    endloop
  endfacet
  facet normal 0.808987 0.587759 0.00890195
    outer loop
      vertex 3.25813 3.17328 25.6
      vertex 2.64307 2.93542 97.2
      vertex 3.6085 1.60661 97.2
    endloop
  endfacet
  facet normal 0.97811 -0.207898 0.00890213
    outer loop
      vertex 3.6085 -1.60661 97.2
      vertex 4.34 -1.23097 25.6
      vertex 4.54689 -0.285863 24.94
    endloop
  endfacet
  facet normal 0.97811 -0.207899 0.00890212
    outer loop
      vertex 4.34 -1.23097 25.6
      vertex 3.6085 -1.60661 97.2
      vertex 4.20382 -1.87166 25.6
    endloop
  endfacet
  facet normal 0.97811 -0.207898 0.00890182
    outer loop
      vertex 4.54689 -0.285863 24.94
      vertex 4.34 -1.23097 25.6
      vertex 4.34 -1.25923 24.94
    endloop
  endfacet
  facet normal 0.978103 -0.207929 0.00890201
    outer loop
      vertex 3.95 0 97.2
      vertex 4.54689 -0.285863 24.94
      vertex 4.60766 0 24.94
    endloop
  endfacet
  facet normal 0.978108 -0.207906 0.00890196
    outer loop
      vertex 4.54689 -0.285863 24.94
      vertex 3.95 0 97.2
      vertex 3.6085 -1.60661 97.2
    endloop
  endfacet
  facet normal 0.499961 -0.866002 0.00890203
    outer loop
      vertex 1.67694 -4.23602 24.94
      vertex 1.22062 -3.75667 97.2
      vertex 1.42384 -4.38214 24.94
    endloop
  endfacet
  facet normal 0.499979 -0.865992 0.00890207
    outer loop
      vertex 1.22062 -3.75667 97.2
      vertex 1.67694 -4.23602 24.94
      vertex 2.64307 -2.93542 97.2
    endloop
  endfacet
  facet normal 0 0 1
    outer loop
      vertex 3.6085 1.60661 97.2
      vertex 3.6085 -1.60661 97.2
      vertex 3.95 0 97.2
    endloop
  endfacet
  facet normal 0 0 1
    outer loop
      vertex 2.64307 2.93542 97.2
      vertex 3.6085 -1.60661 97.2
      vertex 3.6085 1.60661 97.2
    endloop
  endfacet
  facet normal 0 0 1
    outer loop
      vertex 2.64307 2.93542 97.2
      vertex 2.64307 -2.93542 97.2
      vertex 3.6085 -1.60661 97.2
    endloop
  endfacet
  facet normal 0 0 1
    outer loop
      vertex 1.22062 3.75667 97.2
      vertex 2.64307 -2.93542 97.2
      vertex 2.64307 2.93542 97.2
    endloop
  endfacet
  facet normal 0 0 1
    outer loop
      vertex 1.22062 3.75667 97.2
      vertex 1.22062 -3.75667 97.2
      vertex 2.64307 -2.93542 97.2
    endloop
  endfacet
  facet normal 0 0 1
    outer loop
      vertex -0.412887 3.92836 97.2
      vertex 1.22062 -3.75667 97.2
      vertex 1.22062 3.75667 97.2
    endloop
  endfacet
  facet normal 0 0 1
    outer loop
      vertex -0.412887 3.92836 97.2
      vertex -0.412887 -3.92836 97.2
      vertex 1.22062 -3.75667 97.2
    endloop
  endfacet
  facet normal -0 0 1
    outer loop
      vertex -1.975 3.4208 97.2
      vertex -0.412887 -3.92836 97.2
      vertex -0.412887 3.92836 97.2
    endloop
  endfacet
  facet normal 0 0 1
    outer loop
      vertex -1.975 3.4208 97.2
      vertex -1.975 -3.4208 97.2
      vertex -0.412887 -3.92836 97.2
    endloop
  endfacet
  facet normal -0 0 1
    outer loop
      vertex -3.19562 2.32175 97.2
      vertex -1.975 -3.4208 97.2
      vertex -1.975 3.4208 97.2
    endloop
  endfacet
  facet normal 0 0 1
    outer loop
      vertex -3.19562 2.32175 97.2
      vertex -3.19562 -2.32175 97.2
      vertex -1.975 -3.4208 97.2
    endloop
  endfacet
  facet normal -0 0 1
    outer loop
      vertex -3.86368 0.821251 97.2
      vertex -3.19562 -2.32175 97.2
      vertex -3.19562 2.32175 97.2
    endloop
  endfacet
  facet normal 0 0 1
    outer loop
      vertex -3.19562 -2.32175 97.2
      vertex -3.86368 0.821251 97.2
      vertex -3.86368 -0.821251 97.2
    endloop
  endfacet
  facet normal -0.309004 -0.951019 0.00890209
    outer loop
      vertex -0.759576 -4.49211 24.94
      vertex -0.412887 -3.92836 97.2
      vertex -1.975 -3.4208 97.2
    endloop
  endfacet
  facet normal -0.309005 -0.951019 0.0089021
    outer loop
      vertex -0.412887 -3.92836 97.2
      vertex -0.759576 -4.49211 24.94
      vertex -0.481631 -4.58242 24.94
    endloop
  endfacet
  facet normal 0.499979 0.865992 0.00890207
    outer loop
      vertex 1.67694 4.23602 24.94
      vertex 1.22062 3.75667 97.2
      vertex 2.64307 2.93542 97.2
    endloop
  endfacet
  facet normal 0.499961 0.866002 0.00890203
    outer loop
      vertex 1.22062 3.75667 97.2
      vertex 1.67694 4.23602 24.94
      vertex 1.42384 4.38214 24.94
    endloop
  endfacet
  facet normal 0.808987 -0.587759 0.00890195
    outer loop
      vertex 2.64307 -2.93542 97.2
      vertex 3.25813 -3.17328 25.6
      vertex 3.6085 -1.60661 97.2
    endloop
  endfacet
  facet normal 0.808981 -0.587768 0.00890193
    outer loop
      vertex 3.25813 -3.17328 25.6
      vertex 2.64307 -2.93542 97.2
      vertex 3.0791 -3.41969 25.6
    endloop
  endfacet
  facet normal -0.309005 0.951019 0.0089021
    outer loop
      vertex -0.759576 4.49211 24.94
      vertex -0.412887 3.92836 97.2
      vertex -0.481631 4.58242 24.94
    endloop
  endfacet
  facet normal -0.309004 0.951019 0.00890209
    outer loop
      vertex -0.412887 3.92836 97.2
      vertex -0.759576 4.49211 24.94
      vertex -1.975 3.4208 97.2
    endloop
  endfacet
  facet normal 0.104525 0.994482 0.00890208
    outer loop
      vertex -0.190982 4.55187 24.94
      vertex -0.412887 3.92836 97.2
      vertex 1.22062 3.75667 97.2
    endloop
  endfacet
  facet normal 0.10453 0.994482 0.00890209
    outer loop
      vertex -0.412887 3.92836 97.2
      vertex -0.190982 4.55187 24.94
      vertex -0.481631 4.58242 24.94
    endloop
  endfacet
  facet normal -0.669104 0.743116 0.008902
    outer loop
      vertex -3.49646 2.90859 25.6
      vertex -3.19562 2.32175 97.2
      vertex -1.975 3.4208 97.2
    endloop
  endfacet
  facet normal -0.669111 0.74311 0.00890198
    outer loop
      vertex -3.19562 2.32175 97.2
      vertex -3.49646 2.90859 25.6
      vertex -3.72281 2.70478 25.6
    endloop
  endfacet
  facet normal -0.99996 0 0.00890208
    outer loop
      vertex -4.50697 0.957985 24.94
      vertex -3.86368 -0.821251 97.2
      vertex -3.86368 0.821251 97.2
    endloop
  endfacet
  facet normal -0.99996 0 0.00890208
    outer loop
      vertex -3.86368 -0.821251 97.2
      vertex -4.50697 0.957985 24.94
      vertex -4.50697 -0.957985 24.94
    endloop
  endfacet
  facet normal -0.913507 -0.406726 0.00889867
    outer loop
      vertex -4.50697 -0.957985 24.94
      vertex -4.34 -1.333 24.94
      vertex -4.34 -1.31856 25.6
    endloop
  endfacet
  facet normal -0.913509 -0.406721 0.00890207
    outer loop
      vertex -4.34 -1.31856 25.6
      vertex -3.86368 -0.821251 97.2
      vertex -4.50697 -0.957985 24.94
    endloop
  endfacet
  facet normal -0.913509 -0.406721 0.00890207
    outer loop
      vertex -3.86368 -0.821251 97.2
      vertex -4.34 -1.31856 25.6
      vertex -3.8467 -2.42653 25.6
    endloop
  endfacet
  facet normal -0.984808 0.173648 0
    outer loop
      vertex -5.7 0 16.26
      vertex -5.35625 1.94951 24.94
      vertex -5.35625 1.94951 16.26
    endloop
  endfacet
  facet normal -0.984808 0.173648 0
    outer loop
      vertex -5.35625 1.94951 24.94
      vertex -5.7 0 16.26
      vertex -5.7 0 24.94
    endloop
  endfacet
  facet normal 0.866025 0.500001 0
    outer loop
      vertex 5.35625 1.94951 24.94
      vertex 4.36645 3.66389 16.26
      vertex 4.36645 3.66389 24.94
    endloop
  endfacet
  facet normal 0.866025 0.500001 0
    outer loop
      vertex 4.36645 3.66389 16.26
      vertex 5.35625 1.94951 24.94
      vertex 5.35625 1.94951 16.26
    endloop
  endfacet
  facet normal 0.984808 0.173648 0
    outer loop
      vertex 5.7 0 24.94
      vertex 5.35625 1.94951 16.26
      vertex 5.35625 1.94951 24.94
    endloop
  endfacet
  facet normal 0.984808 0.173648 0
    outer loop
      vertex 5.35625 1.94951 16.26
      vertex 5.7 0 24.94
      vertex 5.7 0 16.26
    endloop
  endfacet
  facet normal 0.642886 0.765962 -0
    outer loop
      vertex 4.36645 3.66389 16.26
      vertex 4.34 3.68609 24.94
      vertex 4.36645 3.66389 24.94
    endloop
  endfacet
  facet normal 0.642886 0.765962 0
    outer loop
      vertex 4.34 3.68609 24.94
      vertex 4.36645 3.66389 16.26
      vertex 4.34 3.68609 16.26
    endloop
  endfacet
  facet normal 0.642786 0.766046 -0
    outer loop
      vertex 4.32342 3.7 16.26
      vertex 2.85 4.93634 24.94
      vertex 4.32342 3.7 24.94
    endloop
  endfacet
  facet normal 0.642786 0.766046 0
    outer loop
      vertex 2.85 4.93634 24.94
      vertex 4.32342 3.7 16.26
      vertex 2.85 4.93634 16.26
    endloop
  endfacet
  facet normal 0.984808 -0.173648 0
    outer loop
      vertex 5.35625 -1.94951 24.94
      vertex 5.7 0 16.26
      vertex 5.7 0 24.94
    endloop
  endfacet
  facet normal 0.984808 -0.173648 0
    outer loop
      vertex 5.7 0 16.26
      vertex 5.35625 -1.94951 24.94
      vertex 5.35625 -1.94951 16.26
    endloop
  endfacet
  facet normal 0.34202 -0.939693 0
    outer loop
      vertex 0.989794 -5.6134 16.26
      vertex 2.85 -4.93634 24.94
      vertex 0.989794 -5.6134 24.94
    endloop
  endfacet
  facet normal 0.34202 -0.939693 0
    outer loop
      vertex 2.85 -4.93634 24.94
      vertex 0.989794 -5.6134 16.26
      vertex 2.85 -4.93634 16.26
    endloop
  endfacet
  facet normal 0 -1 0
    outer loop
      vertex -0.989794 -5.6134 16.26
      vertex 0.989794 -5.6134 24.94
      vertex -0.989794 -5.6134 24.94
    endloop
  endfacet
  facet normal 0 -1 -0
    outer loop
      vertex 0.989794 -5.6134 24.94
      vertex -0.989794 -5.6134 16.26
      vertex 0.989794 -5.6134 16.26
    endloop
  endfacet
  facet normal -0.642886 0.765962 0
    outer loop
      vertex -4.34 3.68609 16.26
      vertex -4.36645 3.66389 24.94
      vertex -4.34 3.68609 24.94
    endloop
  endfacet
  facet normal -0.642886 0.765962 0
    outer loop
      vertex -4.36645 3.66389 24.94
      vertex -4.34 3.68609 16.26
      vertex -4.36645 3.66389 16.26
    endloop
  endfacet
  facet normal -0.642786 0.766046 0
    outer loop
      vertex -2.85 4.93634 16.26
      vertex -4.32342 3.7 24.94
      vertex -2.85 4.93634 24.94
    endloop
  endfacet
  facet normal -0.642786 0.766046 0
    outer loop
      vertex -4.32342 3.7 24.94
      vertex -2.85 4.93634 16.26
      vertex -4.32342 3.7 16.26
    endloop
  endfacet
  facet normal -0.34202 -0.939693 0
    outer loop
      vertex -2.85 -4.93634 16.26
      vertex -0.989794 -5.6134 24.94
      vertex -2.85 -4.93634 24.94
    endloop
  endfacet
  facet normal -0.34202 -0.939693 -0
    outer loop
      vertex -0.989794 -5.6134 24.94
      vertex -2.85 -4.93634 16.26
      vertex -0.989794 -5.6134 16.26
    endloop
  endfacet
  facet normal -0.34202 0.939693 0
    outer loop
      vertex -0.989794 5.6134 16.26
      vertex -2.85 4.93634 24.94
      vertex -0.989794 5.6134 24.94
    endloop
  endfacet
  facet normal -0.34202 0.939693 0
    outer loop
      vertex -2.85 4.93634 24.94
      vertex -0.989794 5.6134 16.26
      vertex -2.85 4.93634 16.26
    endloop
  endfacet
  facet normal 0.642886 -0.765962 0
    outer loop
      vertex 4.34 -3.68609 16.26
      vertex 4.36645 -3.66389 24.94
      vertex 4.34 -3.68609 24.94
    endloop
  endfacet
  facet normal 0.642886 -0.765962 0
    outer loop
      vertex 4.36645 -3.66389 24.94
      vertex 4.34 -3.68609 16.26
      vertex 4.36645 -3.66389 16.26
    endloop
  endfacet
  facet normal 0.642786 -0.766046 0
    outer loop
      vertex 2.85 -4.93634 16.26
      vertex 4.32342 -3.7 24.94
      vertex 2.85 -4.93634 24.94
    endloop
  endfacet
  facet normal 0.642786 -0.766046 0
    outer loop
      vertex 4.32342 -3.7 24.94
      vertex 2.85 -4.93634 16.26
      vertex 4.32342 -3.7 16.26
    endloop
  endfacet
  facet normal 0.866025 -0.500001 0
    outer loop
      vertex 4.36645 -3.66389 24.94
      vertex 5.35625 -1.94951 16.26
      vertex 5.35625 -1.94951 24.94
    endloop
  endfacet
  facet normal 0.866025 -0.500001 0
    outer loop
      vertex 5.35625 -1.94951 16.26
      vertex 4.36645 -3.66389 24.94
      vertex 4.36645 -3.66389 16.26
    endloop
  endfacet
  facet normal 0.34202 0.939693 -0
    outer loop
      vertex 2.85 4.93634 16.26
      vertex 0.989794 5.6134 24.94
      vertex 2.85 4.93634 24.94
    endloop
  endfacet
  facet normal 0.34202 0.939693 0
    outer loop
      vertex 0.989794 5.6134 24.94
      vertex 2.85 4.93634 16.26
      vertex 0.989794 5.6134 16.26
    endloop
  endfacet
  facet normal -0 0 1
    outer loop
      vertex 4.54689 0.285863 24.94
      vertex 5.7 0 24.94
      vertex 5.35625 1.94951 24.94
    endloop
  endfacet
  facet normal 0 0 1
    outer loop
      vertex 4.54689 -0.285863 24.94
      vertex 5.7 0 24.94
      vertex 4.60766 0 24.94
    endloop
  endfacet
  facet normal 0 0 1
    outer loop
      vertex 5.7 0 24.94
      vertex 4.54689 0.285863 24.94
      vertex 4.60766 0 24.94
    endloop
  endfacet
  facet normal 0 0 1
    outer loop
      vertex 4.34 1.25923 24.94
      vertex 5.35625 1.94951 24.94
      vertex 4.36645 3.66389 24.94
    endloop
  endfacet
  facet normal 0 0 1
    outer loop
      vertex 4.34 1.25923 24.94
      vertex 4.36645 3.66389 24.94
      vertex 4.34 3.68609 24.94
    endloop
  endfacet
  facet normal 0 0 1
    outer loop
      vertex 5.35625 1.94951 24.94
      vertex 4.34 1.25923 24.94
      vertex 4.54689 0.285863 24.94
    endloop
  endfacet
  facet normal 0 0 1
    outer loop
      vertex 5.7 0 24.94
      vertex 4.54689 -0.285863 24.94
      vertex 5.35625 -1.94951 24.94
    endloop
  endfacet
  facet normal -0 0 1
    outer loop
      vertex 4.34 -1.25923 24.94
      vertex 5.35625 -1.94951 24.94
      vertex 4.54689 -0.285863 24.94
    endloop
  endfacet
  facet normal 0 0 1
    outer loop
      vertex 5.35625 -1.94951 24.94
      vertex 4.34 -1.25923 24.94
      vertex 4.36645 -3.66389 24.94
    endloop
  endfacet
  facet normal 0 0 1
    outer loop
      vertex 4.36645 -3.66389 24.94
      vertex 4.34 -1.25923 24.94
      vertex 4.34 -3.68609 24.94
    endloop
  endfacet
  facet normal -0 0 1
    outer loop
      vertex 2.60535 -3.7 24.94
      vertex 2.85 -4.93634 24.94
      vertex 4.32342 -3.7 24.94
    endloop
  endfacet
  facet normal -0 0 1
    outer loop
      vertex 1.67694 -4.23602 24.94
      vertex 2.85 -4.93634 24.94
      vertex 2.60535 -3.7 24.94
    endloop
  endfacet
  facet normal -0 0 1
    outer loop
      vertex 1.42384 -4.38214 24.94
      vertex 2.85 -4.93634 24.94
      vertex 1.67694 -4.23602 24.94
    endloop
  endfacet
  facet normal 0 0 1
    outer loop
      vertex 1.42384 -4.38214 24.94
      vertex 0.989794 -5.6134 24.94
      vertex 2.85 -4.93634 24.94
    endloop
  endfacet
  facet normal -0 0 1
    outer loop
      vertex -0.190982 -4.55187 24.94
      vertex 0.989794 -5.6134 24.94
      vertex 1.42384 -4.38214 24.94
    endloop
  endfacet
  facet normal 0 0 1
    outer loop
      vertex -0.989794 -5.6134 24.94
      vertex -0.190982 -4.55187 24.94
      vertex -0.481631 -4.58242 24.94
    endloop
  endfacet
  facet normal 0 0 1
    outer loop
      vertex -0.989794 -5.6134 24.94
      vertex -0.481631 -4.58242 24.94
      vertex -0.759576 -4.49211 24.94
    endloop
  endfacet
  facet normal 0 0 1
    outer loop
      vertex -0.190982 -4.55187 24.94
      vertex -0.989794 -5.6134 24.94
      vertex 0.989794 -5.6134 24.94
    endloop
  endfacet
  facet normal 0 0 1
    outer loop
      vertex -2.30383 -3.99035 24.94
      vertex -0.989794 -5.6134 24.94
      vertex -0.759576 -4.49211 24.94
    endloop
  endfacet
  facet normal 0 0 1
    outer loop
      vertex -2.85 -4.93634 24.94
      vertex -2.30383 -3.99035 24.94
      vertex -2.62629 -3.7 24.94
    endloop
  endfacet
  facet normal 0 0 1
    outer loop
      vertex -2.30383 -3.99035 24.94
      vertex -2.85 -4.93634 24.94
      vertex -0.989794 -5.6134 24.94
    endloop
  endfacet
  facet normal 0 -0 1
    outer loop
      vertex -2.85 -4.93634 24.94
      vertex -2.62629 -3.7 24.94
      vertex -4.32342 -3.7 24.94
    endloop
  endfacet
  facet normal 0 0 1
    outer loop
      vertex 2.85 4.93634 24.94
      vertex 2.60535 3.7 24.94
      vertex 4.32342 3.7 24.94
    endloop
  endfacet
  facet normal 0 0 1
    outer loop
      vertex 2.85 4.93634 24.94
      vertex 1.67694 4.23602 24.94
      vertex 2.60535 3.7 24.94
    endloop
  endfacet
  facet normal 0 0 1
    outer loop
      vertex 2.85 4.93634 24.94
      vertex 1.42384 4.38214 24.94
      vertex 1.67694 4.23602 24.94
    endloop
  endfacet
  facet normal 0 0 1
    outer loop
      vertex 0.989794 5.6134 24.94
      vertex 1.42384 4.38214 24.94
      vertex 2.85 4.93634 24.94
    endloop
  endfacet
  facet normal 0 0 1
    outer loop
      vertex 0.989794 5.6134 24.94
      vertex -0.190982 4.55187 24.94
      vertex 1.42384 4.38214 24.94
    endloop
  endfacet
  facet normal -0 0 1
    outer loop
      vertex -0.989794 5.6134 24.94
      vertex -0.190982 4.55187 24.94
      vertex 0.989794 5.6134 24.94
    endloop
  endfacet
  facet normal 0 0 1
    outer loop
      vertex -0.190982 4.55187 24.94
      vertex -0.989794 5.6134 24.94
      vertex -0.481631 4.58242 24.94
    endloop
  endfacet
  facet normal 0 0 1
    outer loop
      vertex -0.481631 4.58242 24.94
      vertex -0.989794 5.6134 24.94
      vertex -0.759576 4.49211 24.94
    endloop
  endfacet
  facet normal 0 0 1
    outer loop
      vertex -0.989794 5.6134 24.94
      vertex -2.30383 3.99035 24.94
      vertex -0.759576 4.49211 24.94
    endloop
  endfacet
  facet normal -0 0 1
    outer loop
      vertex -2.85 4.93634 24.94
      vertex -2.30383 3.99035 24.94
      vertex -0.989794 5.6134 24.94
    endloop
  endfacet
  facet normal 0 0 1
    outer loop
      vertex -2.30383 3.99035 24.94
      vertex -2.85 4.93634 24.94
      vertex -2.62629 3.7 24.94
    endloop
  endfacet
  facet normal 0 0 1
    outer loop
      vertex -2.62629 3.7 24.94
      vertex -2.85 4.93634 24.94
      vertex -4.32342 3.7 24.94
    endloop
  endfacet
  facet normal -0 0 1
    outer loop
      vertex -4.36645 3.66389 24.94
      vertex -4.34 1.333 24.94
      vertex -4.34 3.68609 24.94
    endloop
  endfacet
  facet normal -0 0 1
    outer loop
      vertex -5.35625 1.94951 24.94
      vertex -4.34 1.333 24.94
      vertex -4.36645 3.66389 24.94
    endloop
  endfacet
  facet normal 0 0 1
    outer loop
      vertex -5.7 0 24.94
      vertex -4.50697 0.957985 24.94
      vertex -5.35625 1.94951 24.94
    endloop
  endfacet
  facet normal 0 0 1
    outer loop
      vertex -4.34 1.333 24.94
      vertex -5.35625 1.94951 24.94
      vertex -4.50697 0.957985 24.94
    endloop
  endfacet
  facet normal 0 0 1
    outer loop
      vertex -4.34 -1.333 24.94
      vertex -4.36645 -3.66389 24.94
      vertex -4.34 -3.68609 24.94
    endloop
  endfacet
  facet normal 0 0 1
    outer loop
      vertex -5.35625 -1.94951 24.94
      vertex -4.34 -1.333 24.94
      vertex -4.50697 -0.957985 24.94
    endloop
  endfacet
  facet normal 0 0 1
    outer loop
      vertex -4.50697 0.957985 24.94
      vertex -5.7 0 24.94
      vertex -4.50697 -0.957985 24.94
    endloop
  endfacet
  facet normal 0 0 1
    outer loop
      vertex -4.34 -1.333 24.94
      vertex -5.35625 -1.94951 24.94
      vertex -4.36645 -3.66389 24.94
    endloop
  endfacet
  facet normal 0 0 1
    outer loop
      vertex -4.50697 -0.957985 24.94
      vertex -5.7 0 24.94
      vertex -5.35625 -1.94951 24.94
    endloop
  endfacet
  facet normal 0 1 -0
    outer loop
      vertex 0.989794 5.6134 16.26
      vertex -0.989794 5.6134 24.94
      vertex 0.989794 5.6134 24.94
    endloop
  endfacet
  facet normal 0 1 0
    outer loop
      vertex -0.989794 5.6134 24.94
      vertex 0.989794 5.6134 16.26
      vertex -0.989794 5.6134 16.26
    endloop
  endfacet
  facet normal -0.866025 0.500001 0
    outer loop
      vertex -5.35625 1.94951 16.26
      vertex -4.36645 3.66389 24.94
      vertex -4.36645 3.66389 16.26
    endloop
  endfacet
  facet normal -0.866025 0.500001 0
    outer loop
      vertex -4.36645 3.66389 24.94
      vertex -5.35625 1.94951 16.26
      vertex -5.35625 1.94951 24.94
    endloop
  endfacet
  facet normal -0.866025 -0.500001 0
    outer loop
      vertex -4.36645 -3.66389 16.26
      vertex -5.35625 -1.94951 24.94
      vertex -5.35625 -1.94951 16.26
    endloop
  endfacet
  facet normal -0.866025 -0.500001 0
    outer loop
      vertex -5.35625 -1.94951 24.94
      vertex -4.36645 -3.66389 16.26
      vertex -4.36645 -3.66389 24.94
    endloop
  endfacet
  facet normal -0.984808 -0.173648 0
    outer loop
      vertex -5.35625 -1.94951 16.26
      vertex -5.7 0 24.94
      vertex -5.7 0 16.26
    endloop
  endfacet
  facet normal -0.984808 -0.173648 0
    outer loop
      vertex -5.7 0 24.94
      vertex -5.35625 -1.94951 16.26
      vertex -5.35625 -1.94951 24.94
    endloop
  endfacet
  facet normal 0 0 -1
    outer loop
      vertex -4.36645 -3.66389 16.26
      vertex -4.34 -1.67532 16.26
      vertex -4.34 -3.68609 16.26
    endloop
  endfacet
  facet normal 0 0 -1
    outer loop
      vertex -5.35625 -1.94951 16.26
      vertex -4.34 -1.67532 16.26
      vertex -4.36645 -3.66389 16.26
    endloop
  endfacet
  facet normal 0 0 -1
    outer loop
      vertex -5.7 0 16.26
      vertex -4.6462 -0.98758 16.26
      vertex -5.35625 -1.94951 16.26
    endloop
  endfacet
  facet normal -0 0 -1
    outer loop
      vertex -4.34 -1.67532 16.26
      vertex -5.35625 -1.94951 16.26
      vertex -4.6462 -0.98758 16.26
    endloop
  endfacet
  facet normal 0 0 -1
    outer loop
      vertex -4.34 1.67532 16.26
      vertex -4.36645 3.66389 16.26
      vertex -4.34 3.68609 16.26
    endloop
  endfacet
  facet normal 0 0 -1
    outer loop
      vertex -5.35625 1.94951 16.26
      vertex -4.34 1.67532 16.26
      vertex -4.6462 0.98758 16.26
    endloop
  endfacet
  facet normal 0 0 -1
    outer loop
      vertex -4.6462 -0.98758 16.26
      vertex -5.7 0 16.26
      vertex -4.6462 0.98758 16.26
    endloop
  endfacet
  facet normal 0 0 -1
    outer loop
      vertex -4.34 1.67532 16.26
      vertex -5.35625 1.94951 16.26
      vertex -4.36645 3.66389 16.26
    endloop
  endfacet
  facet normal -0 0 -1
    outer loop
      vertex -4.6462 0.98758 16.26
      vertex -5.7 0 16.26
      vertex -5.35625 1.94951 16.26
    endloop
  endfacet
  facet normal 0 0 -1
    outer loop
      vertex 4.75 0 16.26
      vertex 5.7 0 16.26
      vertex 5.35625 -1.94951 16.26
    endloop
  endfacet
  facet normal 0 0 -1
    outer loop
      vertex 5.7 0 16.26
      vertex 4.75 0 16.26
      vertex 5.35625 1.94951 16.26
    endloop
  endfacet
  facet normal 0 0 -1
    outer loop
      vertex 4.34 -1.9289 16.26
      vertex 5.35625 -1.94951 16.26
      vertex 4.36645 -3.66389 16.26
    endloop
  endfacet
  facet normal 0 0 -1
    outer loop
      vertex 4.34 -1.9289 16.26
      vertex 4.36645 -3.66389 16.26
      vertex 4.34 -3.68609 16.26
    endloop
  endfacet
  facet normal 0 0 -1
    outer loop
      vertex 5.35625 -1.94951 16.26
      vertex 4.34 -1.9289 16.26
      vertex 4.75 0 16.26
    endloop
  endfacet
  facet normal 0 0 -1
    outer loop
      vertex 4.34 1.9289 16.26
      vertex 5.35625 1.94951 16.26
      vertex 4.75 0 16.26
    endloop
  endfacet
  facet normal -0 0 -1
    outer loop
      vertex 5.35625 1.94951 16.26
      vertex 4.34 1.9289 16.26
      vertex 4.36645 3.66389 16.26
    endloop
  endfacet
  facet normal -0 0 -1
    outer loop
      vertex 4.36645 3.66389 16.26
      vertex 4.34 1.9289 16.26
      vertex 4.34 3.68609 16.26
    endloop
  endfacet
  facet normal 0 0 -1
    outer loop
      vertex 2.88381 3.7 16.26
      vertex 2.85 4.93634 16.26
      vertex 4.32342 3.7 16.26
    endloop
  endfacet
  facet normal 0 0 -1
    outer loop
      vertex 1.46783 4.51752 16.26
      vertex 2.85 4.93634 16.26
      vertex 2.88381 3.7 16.26
    endloop
  endfacet
  facet normal 0 0 -1
    outer loop
      vertex 1.46783 4.51752 16.26
      vertex 0.989794 5.6134 16.26
      vertex 2.85 4.93634 16.26
    endloop
  endfacet
  facet normal 0 0 -1
    outer loop
      vertex -0.49651 4.72398 16.26
      vertex 0.989794 5.6134 16.26
      vertex 1.46783 4.51752 16.26
    endloop
  endfacet
  facet normal 0 0 -1
    outer loop
      vertex -0.49651 4.72398 16.26
      vertex -0.989794 5.6134 16.26
      vertex 0.989794 5.6134 16.26
    endloop
  endfacet
  facet normal 0 0 -1
    outer loop
      vertex -2.375 4.11362 16.26
      vertex -0.989794 5.6134 16.26
      vertex -0.49651 4.72398 16.26
    endloop
  endfacet
  facet normal 0 0 -1
    outer loop
      vertex -2.85 4.93634 16.26
      vertex -2.375 4.11362 16.26
      vertex -2.83437 3.7 16.26
    endloop
  endfacet
  facet normal 0 0 -1
    outer loop
      vertex -2.375 4.11362 16.26
      vertex -2.85 4.93634 16.26
      vertex -0.989794 5.6134 16.26
    endloop
  endfacet
  facet normal 0 -0 -1
    outer loop
      vertex -2.85 4.93634 16.26
      vertex -2.83437 3.7 16.26
      vertex -4.32342 3.7 16.26
    endloop
  endfacet
  facet normal 0 0 -1
    outer loop
      vertex 2.85 -4.93634 16.26
      vertex 2.88381 -3.7 16.26
      vertex 4.32342 -3.7 16.26
    endloop
  endfacet
  facet normal 0 0 -1
    outer loop
      vertex 2.85 -4.93634 16.26
      vertex 1.46783 -4.51752 16.26
      vertex 2.88381 -3.7 16.26
    endloop
  endfacet
  facet normal 0 0 -1
    outer loop
      vertex 0.989794 -5.6134 16.26
      vertex 1.46783 -4.51752 16.26
      vertex 2.85 -4.93634 16.26
    endloop
  endfacet
  facet normal 0 0 -1
    outer loop
      vertex 0.989794 -5.6134 16.26
      vertex -0.49651 -4.72398 16.26
      vertex 1.46783 -4.51752 16.26
    endloop
  endfacet
  facet normal 0 0 -1
    outer loop
      vertex -0.989794 -5.6134 16.26
      vertex -0.49651 -4.72398 16.26
      vertex 0.989794 -5.6134 16.26
    endloop
  endfacet
  facet normal 0 0 -1
    outer loop
      vertex -0.989794 -5.6134 16.26
      vertex -2.375 -4.11362 16.26
      vertex -0.49651 -4.72398 16.26
    endloop
  endfacet
  facet normal 0 0 -1
    outer loop
      vertex -2.85 -4.93634 16.26
      vertex -2.375 -4.11362 16.26
      vertex -0.989794 -5.6134 16.26
    endloop
  endfacet
  facet normal -0 0 -1
    outer loop
      vertex -2.375 -4.11362 16.26
      vertex -2.85 -4.93634 16.26
      vertex -2.83437 -3.7 16.26
    endloop
  endfacet
  facet normal -0 0 -1
    outer loop
      vertex -2.83437 -3.7 16.26
      vertex -2.85 -4.93634 16.26
      vertex -4.32342 -3.7 16.26
    endloop
  endfacet
  facet normal -0.642786 -0.766046 0
    outer loop
      vertex -4.32342 -3.7 16.26
      vertex -2.85 -4.93634 24.94
      vertex -4.32342 -3.7 24.94
    endloop
  endfacet
  facet normal -0.642786 -0.766046 -0
    outer loop
      vertex -2.85 -4.93634 24.94
      vertex -4.32342 -3.7 16.26
      vertex -2.85 -4.93634 16.26
    endloop
  endfacet
  facet normal -0.642886 -0.765962 0
    outer loop
      vertex -4.36645 -3.66389 16.26
      vertex -4.34 -3.68609 24.94
      vertex -4.36645 -3.66389 24.94
    endloop
  endfacet
  facet normal -0.642886 -0.765962 -0
    outer loop
      vertex -4.34 -3.68609 24.94
      vertex -4.36645 -3.66389 16.26
      vertex -4.34 -3.68609 16.26
    endloop
  endfacet
  facet normal 1 0 0
    outer loop
      vertex 4.34 3.7 25.6
      vertex 4.34 3.68609 24.94
      vertex 4.34 3.7 15.6
    endloop
  endfacet
  facet normal 1 0 0
    outer loop
      vertex 4.34 3.7 25.6
      vertex 4.34 1.25923 24.94
      vertex 4.34 3.68609 24.94
    endloop
  endfacet
  facet normal 1 0 -0
    outer loop
      vertex 4.34 1.25923 24.94
      vertex 4.34 3.7 25.6
      vertex 4.34 1.23097 25.6
    endloop
  endfacet
  facet normal 1 -0 0
    outer loop
      vertex 4.34 3.68609 16.26
      vertex 4.34 3.7 15.6
      vertex 4.34 3.68609 24.94
    endloop
  endfacet
  facet normal 1 0 0
    outer loop
      vertex 4.34 1.9289 15.6
      vertex 4.34 3.68609 16.26
      vertex 4.34 1.9289 16.26
    endloop
  endfacet
  facet normal 1 0 0
    outer loop
      vertex 4.34 3.68609 16.26
      vertex 4.34 1.9289 15.6
      vertex 4.34 3.7 15.6
    endloop
  endfacet
  facet normal 1 -0 0
    outer loop
      vertex 4.34 -3.7 25.6
      vertex 4.34 -1.25923 24.94
      vertex 4.34 -1.23097 25.6
    endloop
  endfacet
  facet normal 1 0 0
    outer loop
      vertex 4.34 -3.68609 24.94
      vertex 4.34 -3.7 25.6
      vertex 4.34 -3.68609 16.26
    endloop
  endfacet
  facet normal 1 0 0
    outer loop
      vertex 4.34 -1.25923 24.94
      vertex 4.34 -3.7 25.6
      vertex 4.34 -3.68609 24.94
    endloop
  endfacet
  facet normal 1 -0 0
    outer loop
      vertex 4.34 -3.68609 16.26
      vertex 4.34 -1.9289 15.6
      vertex 4.34 -1.9289 16.26
    endloop
  endfacet
  facet normal 1 0 0
    outer loop
      vertex 4.34 -3.68609 16.26
      vertex 4.34 -3.7 15.6
      vertex 4.34 -1.9289 15.6
    endloop
  endfacet
  facet normal 1 0 0
    outer loop
      vertex 4.34 -3.7 15.6
      vertex 4.34 -3.68609 16.26
      vertex 4.34 -3.7 25.6
    endloop
  endfacet
  facet normal -0 0 1
    outer loop
      vertex -4.34 3.7 25.6
      vertex -3.49646 2.90859 25.6
      vertex -2.61751 3.7 25.6
    endloop
  endfacet
  facet normal 0 0 1
    outer loop
      vertex -4.34 3.7 25.6
      vertex -3.72281 2.70478 25.6
      vertex -3.49646 2.90859 25.6
    endloop
  endfacet
  facet normal 0 0 1
    outer loop
      vertex -4.34 3.7 25.6
      vertex -3.8467 2.42653 25.6
      vertex -3.72281 2.70478 25.6
    endloop
  endfacet
  facet normal 0 0 1
    outer loop
      vertex -3.8467 2.42653 25.6
      vertex -4.34 3.7 25.6
      vertex -4.34 1.31856 25.6
    endloop
  endfacet
  facet normal 0 0 1
    outer loop
      vertex 4.34 3.7 25.6
      vertex 4.20382 1.87166 25.6
      vertex 4.34 1.23097 25.6
    endloop
  endfacet
  facet normal 0 0 1
    outer loop
      vertex 4.34 3.7 25.6
      vertex 3.25813 3.17328 25.6
      vertex 4.20382 1.87166 25.6
    endloop
  endfacet
  facet normal 0 0 1
    outer loop
      vertex 4.34 3.7 25.6
      vertex 3.0791 3.41969 25.6
      vertex 3.25813 3.17328 25.6
    endloop
  endfacet
  facet normal 0 -0 1
    outer loop
      vertex 3.0791 3.41969 25.6
      vertex 4.34 3.7 25.6
      vertex 2.5936 3.7 25.6
    endloop
  endfacet
  facet normal 0 0 1
    outer loop
      vertex -3.49646 -2.90859 25.6
      vertex -4.34 -3.7 25.6
      vertex -2.61751 -3.7 25.6
    endloop
  endfacet
  facet normal 0 0 1
    outer loop
      vertex -3.72281 -2.70478 25.6
      vertex -4.34 -3.7 25.6
      vertex -3.49646 -2.90859 25.6
    endloop
  endfacet
  facet normal 0 0 1
    outer loop
      vertex -3.8467 -2.42653 25.6
      vertex -4.34 -3.7 25.6
      vertex -3.72281 -2.70478 25.6
    endloop
  endfacet
  facet normal 0 0 1
    outer loop
      vertex -4.34 -3.7 25.6
      vertex -3.8467 -2.42653 25.6
      vertex -4.34 -1.31856 25.6
    endloop
  endfacet
  facet normal -0 0 1
    outer loop
      vertex 4.20382 -1.87166 25.6
      vertex 4.34 -3.7 25.6
      vertex 4.34 -1.23097 25.6
    endloop
  endfacet
  facet normal -0 0 1
    outer loop
      vertex 3.25813 -3.17328 25.6
      vertex 4.34 -3.7 25.6
      vertex 4.20382 -1.87166 25.6
    endloop
  endfacet
  facet normal -0 0 1
    outer loop
      vertex 3.0791 -3.41969 25.6
      vertex 4.34 -3.7 25.6
      vertex 3.25813 -3.17328 25.6
    endloop
  endfacet
  facet normal 0 0 1
    outer loop
      vertex 4.34 -3.7 25.6
      vertex 3.0791 -3.41969 25.6
      vertex 2.5936 -3.7 25.6
    endloop
  endfacet
  facet normal 0 0 -1
    outer loop
      vertex 4.33934 1.932 15.6
      vertex 4.34 3.7 15.6
      vertex 4.34 1.9289 15.6
    endloop
  endfacet
  facet normal 0 0 -1
    outer loop
      vertex 3.17837 3.52994 15.6
      vertex 4.34 3.7 15.6
      vertex 4.33934 1.932 15.6
    endloop
  endfacet
  facet normal -0 0 -1
    outer loop
      vertex 4.34 3.7 15.6
      vertex 3.17837 3.52994 15.6
      vertex 2.88381 3.7 15.6
    endloop
  endfacet
  facet normal 0 0 -1
    outer loop
      vertex 4.34 -3.7 15.6
      vertex 4.33934 -1.932 15.6
      vertex 4.34 -1.9289 15.6
    endloop
  endfacet
  facet normal 0 0 -1
    outer loop
      vertex 4.34 -3.7 15.6
      vertex 3.17837 -3.52994 15.6
      vertex 4.33934 -1.932 15.6
    endloop
  endfacet
  facet normal 0 -0 -1
    outer loop
      vertex 3.17837 -3.52994 15.6
      vertex 4.34 -3.7 15.6
      vertex 2.88381 -3.7 15.6
    endloop
  endfacet
  facet normal 0 0 -1
    outer loop
      vertex -4.34 -3.7 15.6
      vertex -3.84283 -2.79198 15.6
      vertex -2.83437 -3.7 15.6
    endloop
  endfacet
  facet normal -0 0 -1
    outer loop
      vertex -3.84283 -2.79198 15.6
      vertex -4.34 -3.7 15.6
      vertex -4.34 -1.67532 15.6
    endloop
  endfacet
  facet normal 0 0 -1
    outer loop
      vertex -3.84283 2.79198 15.6
      vertex -4.34 3.7 15.6
      vertex -2.83437 3.7 15.6
    endloop
  endfacet
  facet normal 0 0 -1
    outer loop
      vertex -4.34 3.7 15.6
      vertex -3.84283 2.79198 15.6
      vertex -4.34 1.67532 15.6
    endloop
  endfacet
  facet normal -1 0 0
    outer loop
      vertex -4.34 3.7 15.6
      vertex -4.34 3.68609 16.26
      vertex -4.34 3.7 25.6
    endloop
  endfacet
  facet normal -1 0 0
    outer loop
      vertex -4.34 1.67532 15.6
      vertex -4.34 3.68609 16.26
      vertex -4.34 3.7 15.6
    endloop
  endfacet
  facet normal -1 -0 0
    outer loop
      vertex -4.34 3.68609 16.26
      vertex -4.34 1.67532 15.6
      vertex -4.34 1.67532 16.26
    endloop
  endfacet
  facet normal -1 0 0
    outer loop
      vertex -4.34 3.68609 24.94
      vertex -4.34 3.7 25.6
      vertex -4.34 3.68609 16.26
    endloop
  endfacet
  facet normal -1 0 0
    outer loop
      vertex -4.34 1.333 24.94
      vertex -4.34 3.7 25.6
      vertex -4.34 3.68609 24.94
    endloop
  endfacet
  facet normal -1 -0 0
    outer loop
      vertex -4.34 3.7 25.6
      vertex -4.34 1.333 24.94
      vertex -4.34 1.31856 25.6
    endloop
  endfacet
  facet normal -1 0 0
    outer loop
      vertex -4.34 -1.67532 15.6
      vertex -4.34 -3.68609 16.26
      vertex -4.34 -1.67532 16.26
    endloop
  endfacet
  facet normal -1 -0 0
    outer loop
      vertex -4.34 -3.68609 16.26
      vertex -4.34 -3.7 15.6
      vertex -4.34 -3.68609 24.94
    endloop
  endfacet
  facet normal -1 0 0
    outer loop
      vertex -4.34 -3.7 15.6
      vertex -4.34 -3.68609 16.26
      vertex -4.34 -1.67532 15.6
    endloop
  endfacet
  facet normal -1 0 0
    outer loop
      vertex -4.34 -3.68609 24.94
      vertex -4.34 -1.31856 25.6
      vertex -4.34 -1.333 24.94
    endloop
  endfacet
  facet normal -1 0 0
    outer loop
      vertex -4.34 -3.68609 24.94
      vertex -4.34 -3.7 25.6
      vertex -4.34 -1.31856 25.6
    endloop
  endfacet
  facet normal -1 0 0
    outer loop
      vertex -4.34 -3.7 25.6
      vertex -4.34 -3.68609 24.94
      vertex -4.34 -3.7 15.6
    endloop
  endfacet
  facet normal 0 1 0
    outer loop
      vertex -2.83437 3.7 16.26
      vertex -2.83437 3.7 15.6
      vertex -4.32342 3.7 16.26
    endloop
  endfacet
  facet normal 0 1 0
    outer loop
      vertex -4.32342 3.7 24.94
      vertex -2.61751 3.7 25.6
      vertex -2.62629 3.7 24.94
    endloop
  endfacet
  facet normal 0 1 0
    outer loop
      vertex -2.61751 3.7 25.6
      vertex -4.32342 3.7 24.94
      vertex -4.34 3.7 25.6
    endloop
  endfacet
  facet normal 0 1 -0
    outer loop
      vertex -4.32342 3.7 16.26
      vertex -4.34 3.7 25.6
      vertex -4.32342 3.7 24.94
    endloop
  endfacet
  facet normal 0 1 0
    outer loop
      vertex -4.32342 3.7 16.26
      vertex -4.34 3.7 15.6
      vertex -4.34 3.7 25.6
    endloop
  endfacet
  facet normal 0 1 0
    outer loop
      vertex -4.34 3.7 15.6
      vertex -4.32342 3.7 16.26
      vertex -2.83437 3.7 15.6
    endloop
  endfacet
  facet normal 0 1 0
    outer loop
      vertex 4.34 3.7 25.6
      vertex 4.32342 3.7 24.94
      vertex 2.5936 3.7 25.6
    endloop
  endfacet
  facet normal 0 1 0
    outer loop
      vertex 4.34 3.7 25.6
      vertex 4.32342 3.7 16.26
      vertex 4.32342 3.7 24.94
    endloop
  endfacet
  facet normal 0 1 -0
    outer loop
      vertex 4.34 3.7 15.6
      vertex 4.32342 3.7 16.26
      vertex 4.34 3.7 25.6
    endloop
  endfacet
  facet normal 0 1 0
    outer loop
      vertex 2.88381 3.7 15.6
      vertex 4.32342 3.7 16.26
      vertex 4.34 3.7 15.6
    endloop
  endfacet
  facet normal 0 1 0
    outer loop
      vertex 4.32342 3.7 16.26
      vertex 2.88381 3.7 15.6
      vertex 2.88381 3.7 16.26
    endloop
  endfacet
  facet normal 0 1 0
    outer loop
      vertex 2.5936 3.7 25.6
      vertex 4.32342 3.7 24.94
      vertex 2.60535 3.7 24.94
    endloop
  endfacet
  facet normal 0 -1 0
    outer loop
      vertex -4.34 -3.7 25.6
      vertex -4.32342 -3.7 24.94
      vertex -2.61751 -3.7 25.6
    endloop
  endfacet
  facet normal 0 -1 0
    outer loop
      vertex -4.34 -3.7 25.6
      vertex -4.32342 -3.7 16.26
      vertex -4.32342 -3.7 24.94
    endloop
  endfacet
  facet normal 0 -1 0
    outer loop
      vertex -4.34 -3.7 15.6
      vertex -4.32342 -3.7 16.26
      vertex -4.34 -3.7 25.6
    endloop
  endfacet
  facet normal 0 -1 0
    outer loop
      vertex -2.83437 -3.7 15.6
      vertex -4.32342 -3.7 16.26
      vertex -4.34 -3.7 15.6
    endloop
  endfacet
  facet normal 0 -1 0
    outer loop
      vertex -4.32342 -3.7 16.26
      vertex -2.83437 -3.7 15.6
      vertex -2.83437 -3.7 16.26
    endloop
  endfacet
  facet normal 0 -1 0
    outer loop
      vertex -2.61751 -3.7 25.6
      vertex -4.32342 -3.7 24.94
      vertex -2.62629 -3.7 24.94
    endloop
  endfacet
  facet normal 0 -1 0
    outer loop
      vertex 2.88381 -3.7 16.26
      vertex 2.88381 -3.7 15.6
      vertex 4.32342 -3.7 16.26
    endloop
  endfacet
  facet normal 0 -1 0
    outer loop
      vertex 2.60535 -3.7 24.94
      vertex 4.34 -3.7 25.6
      vertex 2.5936 -3.7 25.6
    endloop
  endfacet
  facet normal 0 -1 0
    outer loop
      vertex 4.32342 -3.7 24.94
      vertex 4.34 -3.7 25.6
      vertex 2.60535 -3.7 24.94
    endloop
  endfacet
  facet normal 0 -1 0
    outer loop
      vertex 4.32342 -3.7 16.26
      vertex 4.34 -3.7 25.6
      vertex 4.32342 -3.7 24.94
    endloop
  endfacet
  facet normal 0 -1 0
    outer loop
      vertex 4.32342 -3.7 16.26
      vertex 4.34 -3.7 15.6
      vertex 4.34 -3.7 25.6
    endloop
  endfacet
  facet normal 0 -1 0
    outer loop
      vertex 4.34 -3.7 15.6
      vertex 4.32342 -3.7 16.26
      vertex 2.88381 -3.7 15.6
    endloop
  endfacet
  facet normal 0.891005 0.453994 0
    outer loop
      vertex 4.99568 3.62957 10.875
      vertex 5.425 2.78699 1
      vertex 4.99568 3.62957 1
    endloop
  endfacet
  facet normal 0.891007 0.45399 4.5406e-07
    outer loop
      vertex 5.87277 1.90818 10.875
      vertex 5.425 2.78699 1
      vertex 4.99568 3.62957 10.875
    endloop
  endfacet
  facet normal 0.891009 0.453986 -0
    outer loop
      vertex 5.87277 1.90818 -1
      vertex 5.425 2.78699 1
      vertex 5.87277 1.90818 10.875
    endloop
  endfacet
  facet normal 0.891009 0.453986 0
    outer loop
      vertex 5.425 2.78699 1
      vertex 5.87277 1.90818 -1
      vertex 5.425 2.78699 -1
    endloop
  endfacet
  facet normal 0.987688 0.156436 0
    outer loop
      vertex 6.175 0 10.875
      vertex 5.87277 1.90818 -1
      vertex 5.87277 1.90818 10.875
    endloop
  endfacet
  facet normal 0.987688 0.156436 0
    outer loop
      vertex 5.87277 1.90818 -1
      vertex 6.175 0 10.875
      vertex 6.175 0 -1
    endloop
  endfacet
  facet normal 0.707107 0.707107 0
    outer loop
      vertex 4.99568 3.62957 10.875
      vertex 3.62957 4.99568 1
      vertex 3.62957 4.99568 10.875
    endloop
  endfacet
  facet normal 0.707107 0.707107 0
    outer loop
      vertex 3.62957 4.99568 1
      vertex 4.99568 3.62957 10.875
      vertex 4.99568 3.62957 1
    endloop
  endfacet
  facet normal 0.156436 0.987688 -0
    outer loop
      vertex 1.90818 5.87277 -1
      vertex 0 6.175 10.875
      vertex 1.90818 5.87277 10.875
    endloop
  endfacet
  facet normal 0.156436 0.987688 0
    outer loop
      vertex 0 6.175 10.875
      vertex 1.90818 5.87277 -1
      vertex 0 6.175 -1
    endloop
  endfacet
  facet normal 0 0 -1
    outer loop
      vertex 2.78699 5.425 -1
      vertex 0 6.175 -1
      vertex 1.90818 5.87277 -1
    endloop
  endfacet
  facet normal 0 0 -1
    outer loop
      vertex -2.78699 5.425 -1
      vertex 0 6.175 -1
      vertex 2.78699 5.425 -1
    endloop
  endfacet
  facet normal 0 0 -1
    outer loop
      vertex 0 6.175 -1
      vertex -2.78699 5.425 -1
      vertex -1.90818 5.87277 -1
    endloop
  endfacet
  facet normal 0 0 -1
    outer loop
      vertex 5.425 -2.78699 -1
      vertex 6.175 0 -1
      vertex 5.87277 -1.90818 -1
    endloop
  endfacet
  facet normal 0 0 -1
    outer loop
      vertex 5.425 2.78699 -1
      vertex 6.175 0 -1
      vertex 5.425 -2.78699 -1
    endloop
  endfacet
  facet normal 0 0 -1
    outer loop
      vertex 6.175 0 -1
      vertex 5.425 2.78699 -1
      vertex 5.87277 1.90818 -1
    endloop
  endfacet
  facet normal 0 0 -1
    outer loop
      vertex 0 -6.175 -1
      vertex 2.78699 -5.425 -1
      vertex 1.90818 -5.87277 -1
    endloop
  endfacet
  facet normal 0 0 -1
    outer loop
      vertex -2.78699 -5.425 -1
      vertex 0 -6.175 -1
      vertex -1.90818 -5.87277 -1
    endloop
  endfacet
  facet normal 0 0 -1
    outer loop
      vertex 0 -6.175 -1
      vertex -2.78699 -5.425 -1
      vertex 2.78699 -5.425 -1
    endloop
  endfacet
  facet normal 0 0 -1
    outer loop
      vertex -6.175 0 -1
      vertex -5.425 -2.78699 -1
      vertex -5.87277 -1.90818 -1
    endloop
  endfacet
  facet normal 0 0 -1
    outer loop
      vertex -5.425 -2.78699 -1
      vertex -6.175 0 -1
      vertex -5.425 2.78699 -1
    endloop
  endfacet
  facet normal 0 0 -1
    outer loop
      vertex -5.425 2.78699 -1
      vertex -6.175 0 -1
      vertex -5.87277 1.90818 -1
    endloop
  endfacet
  facet normal 0.453994 0.891005 0
    outer loop
      vertex 2.78699 5.425 1
      vertex 3.62957 4.99568 10.875
      vertex 3.62957 4.99568 1
    endloop
  endfacet
  facet normal 0.45399 0.891007 4.5406e-07
    outer loop
      vertex 3.62957 4.99568 10.875
      vertex 2.78699 5.425 1
      vertex 1.90818 5.87277 10.875
    endloop
  endfacet
  facet normal 0.453986 0.891009 0
    outer loop
      vertex 1.90818 5.87277 -1
      vertex 2.78699 5.425 1
      vertex 2.78699 5.425 -1
    endloop
  endfacet
  facet normal 0.453986 0.891009 0
    outer loop
      vertex 2.78699 5.425 1
      vertex 1.90818 5.87277 -1
      vertex 1.90818 5.87277 10.875
    endloop
  endfacet
  facet normal -0.45399 0.891007 4.5406e-07
    outer loop
      vertex -1.90818 5.87277 10.875
      vertex -2.78699 5.425 1
      vertex -3.62957 4.99568 10.875
    endloop
  endfacet
  facet normal -0.453986 0.891009 0
    outer loop
      vertex -1.90818 5.87277 -1
      vertex -2.78699 5.425 1
      vertex -1.90818 5.87277 10.875
    endloop
  endfacet
  facet normal -0.453986 0.891009 0
    outer loop
      vertex -2.78699 5.425 1
      vertex -1.90818 5.87277 -1
      vertex -2.78699 5.425 -1
    endloop
  endfacet
  facet normal -0.453994 0.891005 0
    outer loop
      vertex -3.62957 4.99568 10.875
      vertex -2.78699 5.425 1
      vertex -3.62957 4.99568 1
    endloop
  endfacet
  facet normal -0.156436 -0.987688 0
    outer loop
      vertex -1.90818 -5.87277 -1
      vertex 0 -6.175 10.875
      vertex -1.90818 -5.87277 10.875
    endloop
  endfacet
  facet normal -0.156436 -0.987688 -0
    outer loop
      vertex 0 -6.175 10.875
      vertex -1.90818 -5.87277 -1
      vertex 0 -6.175 -1
    endloop
  endfacet
  facet normal 0.707107 -0.707107 0
    outer loop
      vertex 3.62957 -4.99568 10.875
      vertex 4.99568 -3.62957 1
      vertex 4.99568 -3.62957 10.875
    endloop
  endfacet
  facet normal 0.707107 -0.707107 0
    outer loop
      vertex 4.99568 -3.62957 1
      vertex 3.62957 -4.99568 10.875
      vertex 3.62957 -4.99568 1
    endloop
  endfacet
  facet normal -0.891009 -0.453986 -0
    outer loop
      vertex -5.425 -2.78699 1
      vertex -5.87277 -1.90818 -1
      vertex -5.425 -2.78699 -1
    endloop
  endfacet
  facet normal -0.891009 -0.453986 0
    outer loop
      vertex -5.87277 -1.90818 -1
      vertex -5.425 -2.78699 1
      vertex -5.87277 -1.90818 10.875
    endloop
  endfacet
  facet normal -0.891005 -0.453994 -0
    outer loop
      vertex -4.99568 -3.62957 10.875
      vertex -5.425 -2.78699 1
      vertex -4.99568 -3.62957 1
    endloop
  endfacet
  facet normal -0.891007 -0.45399 4.5406e-07
    outer loop
      vertex -5.425 -2.78699 1
      vertex -4.99568 -3.62957 10.875
      vertex -5.87277 -1.90818 10.875
    endloop
  endfacet
  facet normal -0.156436 0.987688 0
    outer loop
      vertex 0 6.175 -1
      vertex -1.90818 5.87277 10.875
      vertex 0 6.175 10.875
    endloop
  endfacet
  facet normal -0.156436 0.987688 0
    outer loop
      vertex -1.90818 5.87277 10.875
      vertex 0 6.175 -1
      vertex -1.90818 5.87277 -1
    endloop
  endfacet
  facet normal 0.45399 -0.891007 4.5406e-07
    outer loop
      vertex 1.90818 -5.87277 10.875
      vertex 2.78699 -5.425 1
      vertex 3.62957 -4.99568 10.875
    endloop
  endfacet
  facet normal 0.453986 -0.891009 0
    outer loop
      vertex 1.90818 -5.87277 -1
      vertex 2.78699 -5.425 1
      vertex 1.90818 -5.87277 10.875
    endloop
  endfacet
  facet normal 0.453986 -0.891009 0
    outer loop
      vertex 2.78699 -5.425 1
      vertex 1.90818 -5.87277 -1
      vertex 2.78699 -5.425 -1
    endloop
  endfacet
  facet normal 0.453994 -0.891005 0
    outer loop
      vertex 3.62957 -4.99568 10.875
      vertex 2.78699 -5.425 1
      vertex 3.62957 -4.99568 1
    endloop
  endfacet
  facet normal 0.156436 -0.987688 0
    outer loop
      vertex 0 -6.175 -1
      vertex 1.90818 -5.87277 10.875
      vertex 0 -6.175 10.875
    endloop
  endfacet
  facet normal 0.156436 -0.987688 0
    outer loop
      vertex 1.90818 -5.87277 10.875
      vertex 0 -6.175 -1
      vertex 1.90818 -5.87277 -1
    endloop
  endfacet
  facet normal -0.987688 -0.156436 0
    outer loop
      vertex -5.87277 -1.90818 -1
      vertex -6.175 0 10.875
      vertex -6.175 0 -1
    endloop
  endfacet
  facet normal -0.987688 -0.156436 0
    outer loop
      vertex -6.175 0 10.875
      vertex -5.87277 -1.90818 -1
      vertex -5.87277 -1.90818 10.875
    endloop
  endfacet
  facet normal -0.891009 0.453986 0
    outer loop
      vertex -5.425 2.78699 -1
      vertex -5.87277 1.90818 -1
      vertex -5.425 2.78699 1
    endloop
  endfacet
  facet normal -0.891005 0.453994 0
    outer loop
      vertex -5.425 2.78699 1
      vertex -4.99568 3.62957 10.875
      vertex -4.99568 3.62957 1
    endloop
  endfacet
  facet normal -0.891009 0.453986 0
    outer loop
      vertex -5.87277 1.90818 10.875
      vertex -5.425 2.78699 1
      vertex -5.87277 1.90818 -1
    endloop
  endfacet
  facet normal -0.891007 0.45399 4.5406e-07
    outer loop
      vertex -5.425 2.78699 1
      vertex -5.87277 1.90818 10.875
      vertex -4.99568 3.62957 10.875
    endloop
  endfacet
  facet normal -0.707107 0.707107 0
    outer loop
      vertex -4.99568 3.62957 1
      vertex -3.62957 4.99568 10.875
      vertex -3.62957 4.99568 1
    endloop
  endfacet
  facet normal -0.707107 0.707107 0
    outer loop
      vertex -3.62957 4.99568 10.875
      vertex -4.99568 3.62957 1
      vertex -4.99568 3.62957 10.875
    endloop
  endfacet
  facet normal 0.891009 -0.453986 0
    outer loop
      vertex 5.87277 -1.90818 10.875
      vertex 5.425 -2.78699 1
      vertex 5.87277 -1.90818 -1
    endloop
  endfacet
  facet normal 0.891007 -0.45399 4.5406e-07
    outer loop
      vertex 4.99568 -3.62957 10.875
      vertex 5.425 -2.78699 1
      vertex 5.87277 -1.90818 10.875
    endloop
  endfacet
  facet normal 0.891005 -0.453994 0
    outer loop
      vertex 5.425 -2.78699 1
      vertex 4.99568 -3.62957 10.875
      vertex 4.99568 -3.62957 1
    endloop
  endfacet
  facet normal 0.891009 -0.453986 0
    outer loop
      vertex 5.87277 -1.90818 -1
      vertex 5.425 -2.78699 1
      vertex 5.425 -2.78699 -1
    endloop
  endfacet
  facet normal 0.987688 -0.156436 0
    outer loop
      vertex 5.87277 -1.90818 10.875
      vertex 6.175 0 -1
      vertex 6.175 0 10.875
    endloop
  endfacet
  facet normal 0.987688 -0.156436 0
    outer loop
      vertex 6.175 0 -1
      vertex 5.87277 -1.90818 10.875
      vertex 5.87277 -1.90818 -1
    endloop
  endfacet
  facet normal -0.707107 -0.707107 0
    outer loop
      vertex -3.62957 -4.99568 1
      vertex -4.99568 -3.62957 10.875
      vertex -4.99568 -3.62957 1
    endloop
  endfacet
  facet normal -0.707107 -0.707107 0
    outer loop
      vertex -4.99568 -3.62957 10.875
      vertex -3.62957 -4.99568 1
      vertex -3.62957 -4.99568 10.875
    endloop
  endfacet
  facet normal -0.987688 0.156436 0
    outer loop
      vertex -6.175 0 -1
      vertex -5.87277 1.90818 10.875
      vertex -5.87277 1.90818 -1
    endloop
  endfacet
  facet normal -0.987688 0.156436 0
    outer loop
      vertex -5.87277 1.90818 10.875
      vertex -6.175 0 -1
      vertex -6.175 0 10.875
    endloop
  endfacet
  facet normal -0.453994 -0.891005 0
    outer loop
      vertex -2.78699 -5.425 1
      vertex -3.62957 -4.99568 10.875
      vertex -3.62957 -4.99568 1
    endloop
  endfacet
  facet normal -0.45399 -0.891007 4.5406e-07
    outer loop
      vertex -3.62957 -4.99568 10.875
      vertex -2.78699 -5.425 1
      vertex -1.90818 -5.87277 10.875
    endloop
  endfacet
  facet normal -0.453986 -0.891009 0
    outer loop
      vertex -1.90818 -5.87277 -1
      vertex -2.78699 -5.425 1
      vertex -2.78699 -5.425 -1
    endloop
  endfacet
  facet normal -0.453986 -0.891009 0
    outer loop
      vertex -2.78699 -5.425 1
      vertex -1.90818 -5.87277 -1
      vertex -1.90818 -5.87277 10.875
    endloop
  endfacet
  facet normal 0 0 1
    outer loop
      vertex 4.75 0 10.875
      vertex 6.175 0 10.875
      vertex 5.87277 1.90818 10.875
    endloop
  endfacet
  facet normal -0 0 1
    outer loop
      vertex 4.33934 1.932 10.875
      vertex 5.87277 1.90818 10.875
      vertex 4.99568 3.62957 10.875
    endloop
  endfacet
  facet normal 0 0 1
    outer loop
      vertex 6.175 0 10.875
      vertex 4.75 0 10.875
      vertex 5.87277 -1.90818 10.875
    endloop
  endfacet
  facet normal 0 0 1
    outer loop
      vertex 4.33934 -1.932 10.875
      vertex 5.87277 -1.90818 10.875
      vertex 4.75 0 10.875
    endloop
  endfacet
  facet normal 0 0 1
    outer loop
      vertex 5.87277 1.90818 10.875
      vertex 4.33934 1.932 10.875
      vertex 4.75 0 10.875
    endloop
  endfacet
  facet normal 0 0 1
    outer loop
      vertex 3.17837 3.52994 10.875
      vertex 4.99568 3.62957 10.875
      vertex 3.62957 4.99568 10.875
    endloop
  endfacet
  facet normal 0 0 1
    outer loop
      vertex 4.99568 3.62957 10.875
      vertex 3.17837 3.52994 10.875
      vertex 4.33934 1.932 10.875
    endloop
  endfacet
  facet normal 0 0 1
    outer loop
      vertex 1.46783 4.51752 10.875
      vertex 3.62957 4.99568 10.875
      vertex 1.90818 5.87277 10.875
    endloop
  endfacet
  facet normal 0 0 1
    outer loop
      vertex 3.62957 4.99568 10.875
      vertex 1.46783 4.51752 10.875
      vertex 3.17837 3.52994 10.875
    endloop
  endfacet
  facet normal 0 0 1
    outer loop
      vertex 0 6.175 10.875
      vertex 1.46783 4.51752 10.875
      vertex 1.90818 5.87277 10.875
    endloop
  endfacet
  facet normal 0 0 1
    outer loop
      vertex 0 6.175 10.875
      vertex -0.49651 4.72398 10.875
      vertex 1.46783 4.51752 10.875
    endloop
  endfacet
  facet normal -0 0 1
    outer loop
      vertex -1.90818 5.87277 10.875
      vertex -0.49651 4.72398 10.875
      vertex 0 6.175 10.875
    endloop
  endfacet
  facet normal 0 0 1
    outer loop
      vertex -1.90818 5.87277 10.875
      vertex -2.375 4.11362 10.875
      vertex -0.49651 4.72398 10.875
    endloop
  endfacet
  facet normal -0 0 1
    outer loop
      vertex -3.62957 4.99568 10.875
      vertex -2.375 4.11362 10.875
      vertex -1.90818 5.87277 10.875
    endloop
  endfacet
  facet normal 0 0 1
    outer loop
      vertex -3.62957 4.99568 10.875
      vertex -3.84283 2.79198 10.875
      vertex -2.375 4.11362 10.875
    endloop
  endfacet
  facet normal -0 0 1
    outer loop
      vertex -4.99568 3.62957 10.875
      vertex -3.84283 2.79198 10.875
      vertex -3.62957 4.99568 10.875
    endloop
  endfacet
  facet normal 0 0 1
    outer loop
      vertex -3.84283 2.79198 10.875
      vertex -5.87277 1.90818 10.875
      vertex -4.6462 0.98758 10.875
    endloop
  endfacet
  facet normal 0 0 1
    outer loop
      vertex -5.87277 1.90818 10.875
      vertex -3.84283 2.79198 10.875
      vertex -4.99568 3.62957 10.875
    endloop
  endfacet
  facet normal 0 0 1
    outer loop
      vertex 5.87277 -1.90818 10.875
      vertex 4.33934 -1.932 10.875
      vertex 4.99568 -3.62957 10.875
    endloop
  endfacet
  facet normal -0 0 1
    outer loop
      vertex 3.17837 -3.52994 10.875
      vertex 4.99568 -3.62957 10.875
      vertex 4.33934 -1.932 10.875
    endloop
  endfacet
  facet normal 0 0 1
    outer loop
      vertex 4.99568 -3.62957 10.875
      vertex 3.17837 -3.52994 10.875
      vertex 3.62957 -4.99568 10.875
    endloop
  endfacet
  facet normal -0 0 1
    outer loop
      vertex 1.46783 -4.51752 10.875
      vertex 3.62957 -4.99568 10.875
      vertex 3.17837 -3.52994 10.875
    endloop
  endfacet
  facet normal 0 0 1
    outer loop
      vertex 3.62957 -4.99568 10.875
      vertex 1.46783 -4.51752 10.875
      vertex 1.90818 -5.87277 10.875
    endloop
  endfacet
  facet normal 0 0 1
    outer loop
      vertex 1.46783 -4.51752 10.875
      vertex 0 -6.175 10.875
      vertex 1.90818 -5.87277 10.875
    endloop
  endfacet
  facet normal -0 0 1
    outer loop
      vertex -0.49651 -4.72398 10.875
      vertex 0 -6.175 10.875
      vertex 1.46783 -4.51752 10.875
    endloop
  endfacet
  facet normal 0 0 1
    outer loop
      vertex -0.49651 -4.72398 10.875
      vertex -1.90818 -5.87277 10.875
      vertex 0 -6.175 10.875
    endloop
  endfacet
  facet normal 0 0 1
    outer loop
      vertex -2.375 -4.11362 10.875
      vertex -1.90818 -5.87277 10.875
      vertex -0.49651 -4.72398 10.875
    endloop
  endfacet
  facet normal 0 0 1
    outer loop
      vertex -2.375 -4.11362 10.875
      vertex -3.62957 -4.99568 10.875
      vertex -1.90818 -5.87277 10.875
    endloop
  endfacet
  facet normal 0 0 1
    outer loop
      vertex -3.84283 -2.79198 10.875
      vertex -3.62957 -4.99568 10.875
      vertex -2.375 -4.11362 10.875
    endloop
  endfacet
  facet normal -0 0 1
    outer loop
      vertex -5.87277 -1.90818 10.875
      vertex -3.84283 -2.79198 10.875
      vertex -4.6462 -0.98758 10.875
    endloop
  endfacet
  facet normal 0 0 1
    outer loop
      vertex -3.84283 -2.79198 10.875
      vertex -4.99568 -3.62957 10.875
      vertex -3.62957 -4.99568 10.875
    endloop
  endfacet
  facet normal 0 0 1
    outer loop
      vertex -6.175 0 10.875
      vertex -4.6462 0.98758 10.875
      vertex -5.87277 1.90818 10.875
    endloop
  endfacet
  facet normal 0 0 1
    outer loop
      vertex -4.6462 0.98758 10.875
      vertex -6.175 0 10.875
      vertex -4.6462 -0.98758 10.875
    endloop
  endfacet
  facet normal 0 0 1
    outer loop
      vertex -3.84283 -2.79198 10.875
      vertex -5.87277 -1.90818 10.875
      vertex -4.99568 -3.62957 10.875
    endloop
  endfacet
  facet normal 0 0 1
    outer loop
      vertex -4.6462 -0.98758 10.875
      vertex -6.175 0 10.875
      vertex -5.87277 -1.90818 10.875
    endloop
  endfacet
  facet normal 1 -0 0
    outer loop
      vertex 5.425 -5.425 1
      vertex 5.425 -2.78699 -1
      vertex 5.425 -2.78699 1
    endloop
  endfacet
  facet normal 1 0 0
    outer loop
      vertex 5.425 -5.425 -15.275
      vertex 5.425 -2.78699 -1
      vertex 5.425 -5.425 1
    endloop
  endfacet
  facet normal 1 0 0
    outer loop
      vertex 5.425 -2.78699 -1
      vertex 5.425 -5.425 -15.275
      vertex 5.425 -3.57131 -15.275
    endloop
  endfacet
  facet normal 1 -0 0
    outer loop
      vertex 5.425 2.78699 -1
      vertex 5.425 5.425 -15.275
      vertex 5.425 5.425 1
    endloop
  endfacet
  facet normal 1 0 0
    outer loop
      vertex 5.425 2.78699 -1
      vertex 5.425 5.425 1
      vertex 5.425 2.78699 1
    endloop
  endfacet
  facet normal 1 0 0
    outer loop
      vertex 5.425 5.425 -15.275
      vertex 5.425 2.78699 -1
      vertex 5.425 3.57131 -15.275
    endloop
  endfacet
  facet normal 1 -0 0
    outer loop
      vertex 5.425 -2.78699 -1
      vertex 5.425 3.57131 -15.275
      vertex 5.425 2.78699 -1
    endloop
  endfacet
  facet normal 1 0 0
    outer loop
      vertex 5.425 3.57131 -15.275
      vertex 5.425 -2.78699 -1
      vertex 5.425 -3.57131 -15.275
    endloop
  endfacet
  facet normal -0 0 1
    outer loop
      vertex -5.425 5.425 1
      vertex -3.62957 4.99568 1
      vertex -2.78699 5.425 1
    endloop
  endfacet
  facet normal 0 0 1
    outer loop
      vertex -5.425 5.425 1
      vertex -4.99568 3.62957 1
      vertex -3.62957 4.99568 1
    endloop
  endfacet
  facet normal 0 0 1
    outer loop
      vertex -4.99568 3.62957 1
      vertex -5.425 5.425 1
      vertex -5.425 2.78699 1
    endloop
  endfacet
  facet normal 0 0 1
    outer loop
      vertex 5.425 5.425 1
      vertex 4.99568 3.62957 1
      vertex 5.425 2.78699 1
    endloop
  endfacet
  facet normal 0 0 1
    outer loop
      vertex 5.425 5.425 1
      vertex 3.62957 4.99568 1
      vertex 4.99568 3.62957 1
    endloop
  endfacet
  facet normal 0 -0 1
    outer loop
      vertex 3.62957 4.99568 1
      vertex 5.425 5.425 1
      vertex 2.78699 5.425 1
    endloop
  endfacet
  facet normal 0 0 1
    outer loop
      vertex -3.62957 -4.99568 1
      vertex -5.425 -5.425 1
      vertex -2.78699 -5.425 1
    endloop
  endfacet
  facet normal 0 0 1
    outer loop
      vertex -4.99568 -3.62957 1
      vertex -5.425 -5.425 1
      vertex -3.62957 -4.99568 1
    endloop
  endfacet
  facet normal 0 0 1
    outer loop
      vertex -5.425 -5.425 1
      vertex -4.99568 -3.62957 1
      vertex -5.425 -2.78699 1
    endloop
  endfacet
  facet normal -0 0 1
    outer loop
      vertex 4.99568 -3.62957 1
      vertex 5.425 -5.425 1
      vertex 5.425 -2.78699 1
    endloop
  endfacet
  facet normal -0 0 1
    outer loop
      vertex 3.62957 -4.99568 1
      vertex 5.425 -5.425 1
      vertex 4.99568 -3.62957 1
    endloop
  endfacet
  facet normal 0 0 1
    outer loop
      vertex 5.425 -5.425 1
      vertex 3.62957 -4.99568 1
      vertex 2.78699 -5.425 1
    endloop
  endfacet
  facet normal 0 0 1
    outer loop
      vertex 3.4782 -5.425 -15.275
      vertex 0.486492 -6.4918 -15.275
      vertex 2.37837 -6.05999 -15.275
    endloop
  endfacet
  facet normal 0 0 1
    outer loop
      vertex 3.4782 -5.425 -15.275
      vertex -1.44861 -6.34678 -15.275
      vertex 0.486492 -6.4918 -15.275
    endloop
  endfacet
  facet normal -0 0 1
    outer loop
      vertex -3.52187 -5.425 -15.275
      vertex -1.44861 -6.34678 -15.275
      vertex 3.4782 -5.425 -15.275
    endloop
  endfacet
  facet normal 0 0 1
    outer loop
      vertex -1.44861 -6.34678 -15.275
      vertex -3.52187 -5.425 -15.275
      vertex -3.255 -5.63783 -15.275
    endloop
  endfacet
  facet normal 0 0 1
    outer loop
      vertex -6.43729 0.970264 -15.275
      vertex -5.425 3.4704 -15.275
      vertex -5.86531 2.82458 -15.275
    endloop
  endfacet
  facet normal 0 0 1
    outer loop
      vertex -5.425 3.4704 -15.275
      vertex -6.43729 0.970264 -15.275
      vertex -5.425 -3.4704 -15.275
    endloop
  endfacet
  facet normal -0 0 1
    outer loop
      vertex -6.43729 -0.970264 -15.275
      vertex -5.425 -3.4704 -15.275
      vertex -6.43729 0.970264 -15.275
    endloop
  endfacet
  facet normal 0 0 1
    outer loop
      vertex -5.425 -3.4704 -15.275
      vertex -6.43729 -0.970264 -15.275
      vertex -5.86531 -2.82458 -15.275
    endloop
  endfacet
  facet normal 0 0 1
    outer loop
      vertex 6.22078 1.91886 -15.275
      vertex 6.22078 -1.91886 -15.275
      vertex 6.51 0 -15.275
    endloop
  endfacet
  facet normal 0 0 1
    outer loop
      vertex 5.425 3.57131 -15.275
      vertex 6.22078 -1.91886 -15.275
      vertex 6.22078 1.91886 -15.275
    endloop
  endfacet
  facet normal 0 0 1
    outer loop
      vertex 6.22078 -1.91886 -15.275
      vertex 5.425 3.57131 -15.275
      vertex 5.425 -3.57131 -15.275
    endloop
  endfacet
  facet normal 0 0 -1
    outer loop
      vertex 5.37881 3.66721 -15.275
      vertex 5.425 5.425 -15.275
      vertex 5.425 3.57131 -15.275
    endloop
  endfacet
  facet normal 0 0 -1
    outer loop
      vertex 4.05892 5.08972 -15.275
      vertex 5.425 5.425 -15.275
      vertex 5.37881 3.66721 -15.275
    endloop
  endfacet
  facet normal -0 0 -1
    outer loop
      vertex 5.425 5.425 -15.275
      vertex 4.05892 5.08972 -15.275
      vertex 3.4782 5.425 -15.275
    endloop
  endfacet
  facet normal 0 0 -1
    outer loop
      vertex -5.425 -5.425 -15.275
      vertex -4.77217 -4.42792 -15.275
      vertex -3.52187 -5.425 -15.275
    endloop
  endfacet
  facet normal -0 0 -1
    outer loop
      vertex -4.77217 -4.42792 -15.275
      vertex -5.425 -5.425 -15.275
      vertex -5.425 -3.4704 -15.275
    endloop
  endfacet
  facet normal 0 0 1
    outer loop
      vertex 0.486492 6.4918 -15.275
      vertex 3.4782 5.425 -15.275
      vertex 2.37837 6.05999 -15.275
    endloop
  endfacet
  facet normal -0 0 1
    outer loop
      vertex -1.44861 6.34678 -15.275
      vertex 3.4782 5.425 -15.275
      vertex 0.486492 6.4918 -15.275
    endloop
  endfacet
  facet normal 0 0 1
    outer loop
      vertex -3.52187 5.425 -15.275
      vertex -1.44861 6.34678 -15.275
      vertex -3.255 5.63783 -15.275
    endloop
  endfacet
  facet normal 0 0 1
    outer loop
      vertex -1.44861 6.34678 -15.275
      vertex -3.52187 5.425 -15.275
      vertex 3.4782 5.425 -15.275
    endloop
  endfacet
  facet normal 0 0 -1
    outer loop
      vertex 5.425 -5.425 -15.275
      vertex 5.37881 -3.66721 -15.275
      vertex 5.425 -3.57131 -15.275
    endloop
  endfacet
  facet normal 0 0 -1
    outer loop
      vertex 5.425 -5.425 -15.275
      vertex 4.05892 -5.08972 -15.275
      vertex 5.37881 -3.66721 -15.275
    endloop
  endfacet
  facet normal 0 -0 -1
    outer loop
      vertex 4.05892 -5.08972 -15.275
      vertex 5.425 -5.425 -15.275
      vertex 3.4782 -5.425 -15.275
    endloop
  endfacet
  facet normal 0 0 -1
    outer loop
      vertex -4.77217 4.42792 -15.275
      vertex -5.425 5.425 -15.275
      vertex -3.52187 5.425 -15.275
    endloop
  endfacet
  facet normal 0 0 -1
    outer loop
      vertex -5.425 5.425 -15.275
      vertex -4.77217 4.42792 -15.275
      vertex -5.425 3.4704 -15.275
    endloop
  endfacet
  facet normal -1 0 0
    outer loop
      vertex -5.425 3.4704 -15.275
      vertex -5.425 -2.78699 -1
      vertex -5.425 2.78699 -1
    endloop
  endfacet
  facet normal -1 0 0
    outer loop
      vertex -5.425 -3.4704 -15.275
      vertex -5.425 -2.78699 -1
      vertex -5.425 3.4704 -15.275
    endloop
  endfacet
  facet normal -1 0 0
    outer loop
      vertex -5.425 -5.425 -15.275
      vertex -5.425 -2.78699 -1
      vertex -5.425 -3.4704 -15.275
    endloop
  endfacet
  facet normal -1 -0 0
    outer loop
      vertex -5.425 -2.78699 -1
      vertex -5.425 -5.425 -15.275
      vertex -5.425 -5.425 1
    endloop
  endfacet
  facet normal -1 0 0
    outer loop
      vertex -5.425 -2.78699 -1
      vertex -5.425 -5.425 1
      vertex -5.425 -2.78699 1
    endloop
  endfacet
  facet normal -1 0 0
    outer loop
      vertex -5.425 2.78699 -1
      vertex -5.425 5.425 -15.275
      vertex -5.425 3.4704 -15.275
    endloop
  endfacet
  facet normal -1 0 0
    outer loop
      vertex -5.425 5.425 -15.275
      vertex -5.425 2.78699 -1
      vertex -5.425 5.425 1
    endloop
  endfacet
  facet normal -1 -0 0
    outer loop
      vertex -5.425 5.425 1
      vertex -5.425 2.78699 -1
      vertex -5.425 2.78699 1
    endloop
  endfacet
  facet normal 0 1 0
    outer loop
      vertex 5.425 5.425 1
      vertex 2.78699 5.425 -1
      vertex 2.78699 5.425 1
    endloop
  endfacet
  facet normal 0 1 -0
    outer loop
      vertex 3.4782 5.425 -15.275
      vertex 2.78699 5.425 -1
      vertex 5.425 5.425 -15.275
    endloop
  endfacet
  facet normal 0 1 -0
    outer loop
      vertex 5.425 5.425 -15.275
      vertex 2.78699 5.425 -1
      vertex 5.425 5.425 1
    endloop
  endfacet
  facet normal 0 1 -0
    outer loop
      vertex -2.78699 5.425 -1
      vertex -5.425 5.425 1
      vertex -2.78699 5.425 1
    endloop
  endfacet
  facet normal 0 1 0
    outer loop
      vertex 2.78699 5.425 -1
      vertex 3.4782 5.425 -15.275
      vertex -2.78699 5.425 -1
    endloop
  endfacet
  facet normal 0 1 0
    outer loop
      vertex -3.52187 5.425 -15.275
      vertex -2.78699 5.425 -1
      vertex 3.4782 5.425 -15.275
    endloop
  endfacet
  facet normal 0 1 0
    outer loop
      vertex -5.425 5.425 -15.275
      vertex -2.78699 5.425 -1
      vertex -3.52187 5.425 -15.275
    endloop
  endfacet
  facet normal 0 1 0
    outer loop
      vertex -2.78699 5.425 -1
      vertex -5.425 5.425 -15.275
      vertex -5.425 5.425 1
    endloop
  endfacet
  facet normal 0 -1 0
    outer loop
      vertex -5.425 -5.425 1
      vertex -2.78699 -5.425 -1
      vertex -2.78699 -5.425 1
    endloop
  endfacet
  facet normal 0 -1 0
    outer loop
      vertex -3.52187 -5.425 -15.275
      vertex -2.78699 -5.425 -1
      vertex -5.425 -5.425 -15.275
    endloop
  endfacet
  facet normal 0 -1 0
    outer loop
      vertex -5.425 -5.425 -15.275
      vertex -2.78699 -5.425 -1
      vertex -5.425 -5.425 1
    endloop
  endfacet
  facet normal 0 -1 0
    outer loop
      vertex 2.78699 -5.425 -1
      vertex 5.425 -5.425 1
      vertex 2.78699 -5.425 1
    endloop
  endfacet
  facet normal 0 -1 -0
    outer loop
      vertex -2.78699 -5.425 -1
      vertex -3.52187 -5.425 -15.275
      vertex 2.78699 -5.425 -1
    endloop
  endfacet
  facet normal 0 -1 0
    outer loop
      vertex 3.4782 -5.425 -15.275
      vertex 2.78699 -5.425 -1
      vertex -3.52187 -5.425 -15.275
    endloop
  endfacet
  facet normal 0 -1 0
    outer loop
      vertex 5.425 -5.425 -15.275
      vertex 2.78699 -5.425 -1
      vertex 3.4782 -5.425 -15.275
    endloop
  endfacet
  facet normal 0 -1 0
    outer loop
      vertex 2.78699 -5.425 -1
      vertex 5.425 -5.425 -15.275
      vertex 5.425 -5.425 1
    endloop
  endfacet
  facet normal 0.900943 0.433937 0
    outer loop
      vertex 5.425 3.57131 -15.275
      vertex 5.37881 3.66721 -19.615
      vertex 5.37881 3.66721 -15.275
    endloop
  endfacet
  facet normal 0.900968 0.433885 -0
    outer loop
      vertex 6.22078 1.91886 -19.615
      vertex 5.425 3.57131 -15.275
      vertex 6.22078 1.91886 -15.275
    endloop
  endfacet
  facet normal 0.900967 0.433888 -1.34928e-06
    outer loop
      vertex 5.425 3.57131 -15.275
      vertex 6.22078 1.91886 -19.615
      vertex 5.37881 3.66721 -19.615
    endloop
  endfacet
  facet normal 0.988831 0.149041 0
    outer loop
      vertex 6.51 0 -15.275
      vertex 6.22078 1.91886 -19.615
      vertex 6.22078 1.91886 -15.275
    endloop
  endfacet
  facet normal 0.988831 0.149041 0
    outer loop
      vertex 6.22078 1.91886 -19.615
      vertex 6.51 0 -15.275
      vertex 6.51 0 -19.615
    endloop
  endfacet
  facet normal 0.988831 -0.149041 0
    outer loop
      vertex 6.22078 -1.91886 -15.275
      vertex 6.51 0 -19.615
      vertex 6.51 0 -15.275
    endloop
  endfacet
  facet normal 0.988831 -0.149041 0
    outer loop
      vertex 6.51 0 -19.615
      vertex 6.22078 -1.91886 -15.275
      vertex 6.22078 -1.91886 -19.615
    endloop
  endfacet
  facet normal -1 0 0
    outer loop
      vertex -6.43729 -0.970264 -19.615
      vertex -6.43729 0.970264 -15.275
      vertex -6.43729 0.970264 -19.615
    endloop
  endfacet
  facet normal -1 -0 0
    outer loop
      vertex -6.43729 0.970264 -15.275
      vertex -6.43729 -0.970264 -19.615
      vertex -6.43729 -0.970264 -15.275
    endloop
  endfacet
  facet normal -0.0747322 0.997204 0
    outer loop
      vertex 0.486492 6.4918 -19.615
      vertex -1.44861 6.34678 -15.275
      vertex 0.486492 6.4918 -15.275
    endloop
  endfacet
  facet normal -0.0747322 0.997204 0
    outer loop
      vertex -1.44861 6.34678 -15.275
      vertex 0.486492 6.4918 -19.615
      vertex -1.44861 6.34678 -19.615
    endloop
  endfacet
  facet normal 0.500002 -0.866024 0
    outer loop
      vertex 2.37837 -6.05999 -19.615
      vertex 3.4782 -5.425 -15.275
      vertex 2.37837 -6.05999 -15.275
    endloop
  endfacet
  facet normal 0.500002 -0.866025 4.63552e-08
    outer loop
      vertex 4.05892 -5.08972 -19.615
      vertex 3.4782 -5.425 -15.275
      vertex 2.37837 -6.05999 -19.615
    endloop
  endfacet
  facet normal 0.500001 -0.866025 0
    outer loop
      vertex 3.4782 -5.425 -15.275
      vertex 4.05892 -5.08972 -19.615
      vertex 4.05892 -5.08972 -15.275
    endloop
  endfacet
  facet normal -0.365338 0.930875 0
    outer loop
      vertex -1.44861 6.34678 -19.615
      vertex -3.255 5.63783 -15.275
      vertex -1.44861 6.34678 -15.275
    endloop
  endfacet
  facet normal -0.365338 0.930875 0
    outer loop
      vertex -3.255 5.63783 -15.275
      vertex -1.44861 6.34678 -19.615
      vertex -3.255 5.63783 -19.615
    endloop
  endfacet
  facet normal -0.623489 -0.781832 0
    outer loop
      vertex -4.77217 -4.42792 -19.615
      vertex -3.52187 -5.425 -15.275
      vertex -4.77217 -4.42792 -15.275
    endloop
  endfacet
  facet normal -0.623492 -0.78183 1.25973e-06
    outer loop
      vertex -3.255 -5.63783 -19.615
      vertex -3.52187 -5.425 -15.275
      vertex -4.77217 -4.42792 -19.615
    endloop
  endfacet
  facet normal -0.623505 -0.78182 0
    outer loop
      vertex -3.52187 -5.425 -15.275
      vertex -3.255 -5.63783 -19.615
      vertex -3.255 -5.63783 -15.275
    endloop
  endfacet
  facet normal 0.900968 -0.433885 0
    outer loop
      vertex 5.425 -3.57131 -15.275
      vertex 6.22078 -1.91886 -19.615
      vertex 6.22078 -1.91886 -15.275
    endloop
  endfacet
  facet normal 0.900943 -0.433937 0
    outer loop
      vertex 5.37881 -3.66721 -19.615
      vertex 5.425 -3.57131 -15.275
      vertex 5.37881 -3.66721 -15.275
    endloop
  endfacet
  facet normal 0.900967 -0.433888 -1.34928e-06
    outer loop
      vertex 5.425 -3.57131 -15.275
      vertex 5.37881 -3.66721 -19.615
      vertex 6.22078 -1.91886 -19.615
    endloop
  endfacet
  facet normal -0.826237 0.563322 0
    outer loop
      vertex -4.77217 4.42792 -19.615
      vertex -5.425 3.4704 -15.275
      vertex -4.77217 4.42792 -15.275
    endloop
  endfacet
  facet normal -0.826238 0.563321 -5.98369e-07
    outer loop
      vertex -5.86531 2.82458 -19.615
      vertex -5.425 3.4704 -15.275
      vertex -4.77217 4.42792 -19.615
    endloop
  endfacet
  facet normal -0.82624 0.563318 0
    outer loop
      vertex -5.425 3.4704 -15.275
      vertex -5.86531 2.82458 -19.615
      vertex -5.86531 2.82458 -15.275
    endloop
  endfacet
  facet normal 0.222522 -0.974928 0
    outer loop
      vertex 0.486492 -6.4918 -19.615
      vertex 2.37837 -6.05999 -15.275
      vertex 0.486492 -6.4918 -15.275
    endloop
  endfacet
  facet normal 0.222522 -0.974928 0
    outer loop
      vertex 2.37837 -6.05999 -15.275
      vertex 0.486492 -6.4918 -19.615
      vertex 2.37837 -6.05999 -19.615
    endloop
  endfacet
  facet normal -0.365338 -0.930875 0
    outer loop
      vertex -3.255 -5.63783 -19.615
      vertex -1.44861 -6.34678 -15.275
      vertex -3.255 -5.63783 -15.275
    endloop
  endfacet
  facet normal -0.365338 -0.930875 -0
    outer loop
      vertex -1.44861 -6.34678 -15.275
      vertex -3.255 -5.63783 -19.615
      vertex -1.44861 -6.34678 -19.615
    endloop
  endfacet
  facet normal 0.222522 0.974928 -0
    outer loop
      vertex 2.37837 6.05999 -19.615
      vertex 0.486492 6.4918 -15.275
      vertex 2.37837 6.05999 -15.275
    endloop
  endfacet
  facet normal 0.222522 0.974928 0
    outer loop
      vertex 0.486492 6.4918 -15.275
      vertex 2.37837 6.05999 -19.615
      vertex 0.486492 6.4918 -19.615
    endloop
  endfacet
  facet normal 0.733054 -0.680171 0
    outer loop
      vertex 4.05892 -5.08972 -15.275
      vertex 5.37881 -3.66721 -19.615
      vertex 5.37881 -3.66721 -15.275
    endloop
  endfacet
  facet normal 0.733054 -0.680171 0
    outer loop
      vertex 5.37881 -3.66721 -19.615
      vertex 4.05892 -5.08972 -15.275
      vertex 4.05892 -5.08972 -19.615
    endloop
  endfacet
  facet normal -0.82624 -0.563318 0
    outer loop
      vertex -5.86531 -2.82458 -19.615
      vertex -5.425 -3.4704 -15.275
      vertex -5.86531 -2.82458 -15.275
    endloop
  endfacet
  facet normal -0.826238 -0.563321 -5.98369e-07
    outer loop
      vertex -4.77217 -4.42792 -19.615
      vertex -5.425 -3.4704 -15.275
      vertex -5.86531 -2.82458 -19.615
    endloop
  endfacet
  facet normal -0.826237 -0.563322 0
    outer loop
      vertex -5.425 -3.4704 -15.275
      vertex -4.77217 -4.42792 -19.615
      vertex -4.77217 -4.42792 -15.275
    endloop
  endfacet
  facet normal -0.623505 0.78182 0
    outer loop
      vertex -3.255 5.63783 -19.615
      vertex -3.52187 5.425 -15.275
      vertex -3.255 5.63783 -15.275
    endloop
  endfacet
  facet normal -0.623492 0.78183 1.25973e-06
    outer loop
      vertex -4.77217 4.42792 -19.615
      vertex -3.52187 5.425 -15.275
      vertex -3.255 5.63783 -19.615
    endloop
  endfacet
  facet normal -0.623489 0.781832 0
    outer loop
      vertex -3.52187 5.425 -15.275
      vertex -4.77217 4.42792 -19.615
      vertex -4.77217 4.42792 -15.275
    endloop
  endfacet
  facet normal -0.955573 0.294755 0
    outer loop
      vertex -6.43729 0.970264 -19.615
      vertex -5.86531 2.82458 -15.275
      vertex -5.86531 2.82458 -19.615
    endloop
  endfacet
  facet normal -0.955573 0.294755 0
    outer loop
      vertex -5.86531 2.82458 -15.275
      vertex -6.43729 0.970264 -19.615
      vertex -6.43729 0.970264 -15.275
    endloop
  endfacet
  facet normal 0.733054 0.680171 0
    outer loop
      vertex 5.37881 3.66721 -15.275
      vertex 4.05892 5.08972 -19.615
      vertex 4.05892 5.08972 -15.275
    endloop
  endfacet
  facet normal 0.733054 0.680171 0
    outer loop
      vertex 4.05892 5.08972 -19.615
      vertex 5.37881 3.66721 -15.275
      vertex 5.37881 3.66721 -19.615
    endloop
  endfacet
  facet normal -0.955573 -0.294755 0
    outer loop
      vertex -5.86531 -2.82458 -19.615
      vertex -6.43729 -0.970264 -15.275
      vertex -6.43729 -0.970264 -19.615
    endloop
  endfacet
  facet normal -0.955573 -0.294755 0
    outer loop
      vertex -6.43729 -0.970264 -15.275
      vertex -5.86531 -2.82458 -19.615
      vertex -5.86531 -2.82458 -15.275
    endloop
  endfacet
  facet normal 0.500001 0.866025 -0
    outer loop
      vertex 4.05892 5.08972 -19.615
      vertex 3.4782 5.425 -15.275
      vertex 4.05892 5.08972 -15.275
    endloop
  endfacet
  facet normal 0.500002 0.866025 4.63552e-08
    outer loop
      vertex 2.37837 6.05999 -19.615
      vertex 3.4782 5.425 -15.275
      vertex 4.05892 5.08972 -19.615
    endloop
  endfacet
  facet normal 0.500002 0.866024 0
    outer loop
      vertex 3.4782 5.425 -15.275
      vertex 2.37837 6.05999 -19.615
      vertex 2.37837 6.05999 -15.275
    endloop
  endfacet
  facet normal -0.0747322 -0.997204 0
    outer loop
      vertex -1.44861 -6.34678 -19.615
      vertex 0.486492 -6.4918 -15.275
      vertex -1.44861 -6.34678 -15.275
    endloop
  endfacet
  facet normal -0.0747322 -0.997204 -0
    outer loop
      vertex 0.486492 -6.4918 -15.275
      vertex -1.44861 -6.34678 -19.615
      vertex 0.486492 -6.4918 -19.615
    endloop
  endfacet
  facet normal 0 0 -1
    outer loop
      vertex 6.22078 -1.91886 -19.615
      vertex 6.22078 1.91886 -19.615
      vertex 6.51 0 -19.615
    endloop
  endfacet
  facet normal 0 0 -1
    outer loop
      vertex 5.37881 -3.66721 -19.615
      vertex 6.22078 1.91886 -19.615
      vertex 6.22078 -1.91886 -19.615
    endloop
  endfacet
  facet normal 0 0 -1
    outer loop
      vertex 5.37881 -3.66721 -19.615
      vertex 5.37881 3.66721 -19.615
      vertex 6.22078 1.91886 -19.615
    endloop
  endfacet
  facet normal 0 0 -1
    outer loop
      vertex 4.05892 -5.08972 -19.615
      vertex 5.37881 3.66721 -19.615
      vertex 5.37881 -3.66721 -19.615
    endloop
  endfacet
  facet normal 0 0 -1
    outer loop
      vertex 4.05892 -5.08972 -19.615
      vertex 4.05892 5.08972 -19.615
      vertex 5.37881 3.66721 -19.615
    endloop
  endfacet
  facet normal 0 0 -1
    outer loop
      vertex 2.37837 -6.05999 -19.615
      vertex 4.05892 5.08972 -19.615
      vertex 4.05892 -5.08972 -19.615
    endloop
  endfacet
  facet normal 0 0 -1
    outer loop
      vertex 2.37837 -6.05999 -19.615
      vertex 2.37837 6.05999 -19.615
      vertex 4.05892 5.08972 -19.615
    endloop
  endfacet
  facet normal 0 0 -1
    outer loop
      vertex 0.486492 -6.4918 -19.615
      vertex 2.37837 6.05999 -19.615
      vertex 2.37837 -6.05999 -19.615
    endloop
  endfacet
  facet normal 0 0 -1
    outer loop
      vertex 0.486492 -6.4918 -19.615
      vertex 0.486492 6.4918 -19.615
      vertex 2.37837 6.05999 -19.615
    endloop
  endfacet
  facet normal 0 0 -1
    outer loop
      vertex -1.44861 -6.34678 -19.615
      vertex 0.486492 6.4918 -19.615
      vertex 0.486492 -6.4918 -19.615
    endloop
  endfacet
  facet normal 0 0 -1
    outer loop
      vertex -1.44861 -6.34678 -19.615
      vertex -1.44861 6.34678 -19.615
      vertex 0.486492 6.4918 -19.615
    endloop
  endfacet
  facet normal 0 0 -1
    outer loop
      vertex -3.255 -5.63783 -19.615
      vertex -1.44861 6.34678 -19.615
      vertex -1.44861 -6.34678 -19.615
    endloop
  endfacet
  facet normal 0 0 -1
    outer loop
      vertex -3.255 -5.63783 -19.615
      vertex -3.255 5.63783 -19.615
      vertex -1.44861 6.34678 -19.615
    endloop
  endfacet
  facet normal 0 0 -1
    outer loop
      vertex -4.77217 -4.42792 -19.615
      vertex -3.255 5.63783 -19.615
      vertex -3.255 -5.63783 -19.615
    endloop
  endfacet
  facet normal 0 0 -1
    outer loop
      vertex -4.77217 -4.42792 -19.615
      vertex -4.77217 4.42792 -19.615
      vertex -3.255 5.63783 -19.615
    endloop
  endfacet
  facet normal 0 0 -1
    outer loop
      vertex -5.86531 -2.82458 -19.615
      vertex -4.77217 4.42792 -19.615
      vertex -4.77217 -4.42792 -19.615
    endloop
  endfacet
  facet normal 0 0 -1
    outer loop
      vertex -5.86531 -2.82458 -19.615
      vertex -5.86531 2.82458 -19.615
      vertex -4.77217 4.42792 -19.615
    endloop
  endfacet
  facet normal 0 0 -1
    outer loop
      vertex -6.43729 -0.970264 -19.615
      vertex -5.86531 2.82458 -19.615
      vertex -5.86531 -2.82458 -19.615
    endloop
  endfacet
  facet normal 0 0 -1
    outer loop
      vertex -5.86531 2.82458 -19.615
      vertex -6.43729 -0.970264 -19.615
      vertex -6.43729 0.970264 -19.615
    endloop
  endfacet
  facet normal 0.309065 0 0.951041
    outer loop
      vertex -0.970819 4.7 19.8947
      vertex 0.37082 -4.7 19.4587
      vertex 0.37082 4.7 19.4587
    endloop
  endfacet
  facet normal 0.309065 0 0.951041
    outer loop
      vertex 0.37082 -4.7 19.4587
      vertex -0.970819 4.7 19.8947
      vertex -0.970819 -4.7 19.8947
    endloop
  endfacet
  facet normal 0.309065 0 -0.951041
    outer loop
      vertex -0.970819 -4.7 21.3053
      vertex 0.37082 4.7 21.7413
      vertex 0.37082 -4.7 21.7413
    endloop
  endfacet
  facet normal 0.309065 0 -0.951041
    outer loop
      vertex 0.37082 4.7 21.7413
      vertex -0.970819 -4.7 21.3053
      vertex -0.970819 4.7 21.3053
    endloop
  endfacet
  facet normal -0.809025 0 -0.587775
    outer loop
      vertex 1.2 -4.7 20.6
      vertex 0.37082 4.7 21.7413
      vertex 1.2 4.7 20.6
    endloop
  endfacet
  facet normal -0.809025 -0 -0.587775
    outer loop
      vertex 0.37082 4.7 21.7413
      vertex 1.2 -4.7 20.6
      vertex 0.37082 -4.7 21.7413
    endloop
  endfacet
  facet normal 1 -0 0
    outer loop
      vertex -0.970819 -4.7 21.3053
      vertex -0.970819 4.7 19.8947
      vertex -0.970819 4.7 21.3053
    endloop
  endfacet
  facet normal 1 0 0
    outer loop
      vertex -0.970819 4.7 19.8947
      vertex -0.970819 -4.7 21.3053
      vertex -0.970819 -4.7 19.8947
    endloop
  endfacet
  facet normal 0 1 0
    outer loop
      vertex 1.2 -4.7 20.6
      vertex -0.970819 -4.7 21.3053
      vertex 0.37082 -4.7 21.7413
    endloop
  endfacet
  facet normal 0 1 0
    outer loop
      vertex 1.2 -4.7 20.6
      vertex -0.970819 -4.7 19.8947
      vertex -0.970819 -4.7 21.3053
    endloop
  endfacet
  facet normal -0 1 0
    outer loop
      vertex -0.970819 -4.7 19.8947
      vertex 1.2 -4.7 20.6
      vertex 0.37082 -4.7 19.4587
    endloop
  endfacet
  facet normal 0 -1 0
    outer loop
      vertex -0.970819 4.7 21.3053
      vertex 1.2 4.7 20.6
      vertex 0.37082 4.7 21.7413
    endloop
  endfacet
  facet normal 0 -1 0
    outer loop
      vertex -0.970819 4.7 19.8947
      vertex 1.2 4.7 20.6
      vertex -0.970819 4.7 21.3053
    endloop
  endfacet
  facet normal 0 -1 0
    outer loop
      vertex 1.2 4.7 20.6
      vertex -0.970819 4.7 19.8947
      vertex 0.37082 4.7 19.4587
    endloop
  endfacet
  facet normal -0.809025 0 0.587775
    outer loop
      vertex 0.37082 -4.7 19.4587
      vertex 1.2 4.7 20.6
      vertex 0.37082 4.7 19.4587
    endloop
  endfacet
  facet normal -0.809025 0 0.587775
    outer loop
      vertex 1.2 4.7 20.6
      vertex 0.37082 -4.7 19.4587
      vertex 1.2 -4.7 20.6
    endloop
  endfacet
endsolid OpenSCAD_Model
