solid OpenSCAD_Model
  facet normal -0.92388 -0.382683 0
    outer loop
      vertex -11.7293 -1.73385 0
      vertex -11.0665 -3.33406 0
      vertex -10.1827 -5.46766 7
    endloop
  endfacet
  facet normal -0.92388 -0.382683 0
    outer loop
      vertex -10.1827 -5.46766 7
      vertex -11.0665 -3.33406 0
      vertex -9.5199 -7.06787 7
    endloop
  endfacet
  facet normal 0 0 -1
    outer loop
      vertex -9.2924 -1.97516 0
      vertex -9.11369 -2.52518 0
      vertex -11.0665 -3.33406 0
    endloop
  endfacet
  facet normal 0 0 -1
    outer loop
      vertex -9.2924 -1.97516 0
      vertex -11.0665 -3.33406 0
      vertex -9.41837 -0.776621 0
    endloop
  endfacet
  facet normal 0 0 -1
    outer loop
      vertex -11.0665 -3.33406 0
      vertex -11.7293 -1.73385 0
      vertex -9.41837 -0.776621 0
    endloop
  endfacet
  facet normal -0.331414 0.800103 0.5
    outer loop
      vertex -11.7293 -1.73385 0
      vertex -10.1827 -5.46766 7
      vertex -9.41837 -0.776621 0
    endloop
  endfacet
  facet normal -0.331414 0.800103 0.5
    outer loop
      vertex -8.67868 -3.864 5.43073
      vertex -10.1827 -5.46766 7
      vertex -8.22176 -4.6554 7
    endloop
  endfacet
  facet normal -0.331414 0.800103 0.5
    outer loop
      vertex -9.2924 -1.97516 2.00141
      vertex -10.1827 -5.46766 7
      vertex -8.67868 -3.864 5.43073
    endloop
  endfacet
  facet normal -0.331414 0.800103 0.5
    outer loop
      vertex -9.41837 -0.776621 0
      vertex -10.1827 -5.46766 7
      vertex -9.2924 -1.97516 2.00141
    endloop
  endfacet
  facet normal 0 0 1
    outer loop
      vertex -9.5199 -7.06787 7
      vertex -7.21076 -6.11139 7
      vertex -7.68566 -5.58396 7
    endloop
  endfacet
  facet normal 0 0 1
    outer loop
      vertex -8.22176 -4.6554 7
      vertex -9.5199 -7.06787 7
      vertex -7.68566 -5.58396 7
    endloop
  endfacet
  facet normal 0 0 1
    outer loop
      vertex -8.22176 -4.6554 7
      vertex -10.1827 -5.46766 7
      vertex -9.5199 -7.06787 7
    endloop
  endfacet
  facet normal 0.331414 -0.800103 -0.5
    outer loop
      vertex -9.5199 -7.06787 7
      vertex -11.0665 -3.33406 0
      vertex -9.11369 -2.52518 0
    endloop
  endfacet
  facet normal 0.331414 -0.800103 -0.5
    outer loop
      vertex -7.68566 -5.58396 5.84122
      vertex -9.5199 -7.06787 7
      vertex -8.67868 -3.864 2.43073
    endloop
  endfacet
  facet normal 0.331414 -0.800103 -0.5
    outer loop
      vertex -8.67868 -3.864 2.43073
      vertex -9.5199 -7.06787 7
      vertex -9.11369 -2.52518 0
    endloop
  endfacet
  facet normal 0.331414 -0.800103 -0.5
    outer loop
      vertex -7.21076 -6.11139 7
      vertex -9.5199 -7.06787 7
      vertex -7.68566 -5.58396 5.84122
    endloop
  endfacet
  facet normal 0 0 -1
    outer loop
      vertex -9.5 0 0
      vertex -9.37864 1.1547 0
      vertex -9.41837 -0.776621 0
    endloop
  endfacet
  facet normal 0 0 -1
    outer loop
      vertex -9.41837 -0.776621 0
      vertex -9.37864 1.1547 0
      vertex -9.2924 1.97516 0
    endloop
  endfacet
  facet normal 0 0 -1
    outer loop
      vertex -9.41837 -0.776621 0
      vertex -9.2924 1.97516 0
      vertex -8.99621 2.88675 0
    endloop
  endfacet
  facet normal 0 0 -1
    outer loop
      vertex -9.41837 -0.776621 0
      vertex -8.99621 2.88675 0
      vertex -8.67868 3.864 0
    endloop
  endfacet
  facet normal 0 0 -1
    outer loop
      vertex -9.41837 -0.776621 0
      vertex -8.67868 3.864 0
      vertex -8.22176 4.6554 0
    endloop
  endfacet
  facet normal 0 0 -1
    outer loop
      vertex -9.41837 -0.776621 0
      vertex -8.22176 4.6554 0
      vertex -7.68566 5.58396 0
    endloop
  endfacet
  facet normal 0 0 -1
    outer loop
      vertex -9.41837 -0.776621 0
      vertex -7.68566 5.58396 0
      vertex -7.21076 6.11139 0
    endloop
  endfacet
  facet normal 0 0 -1
    outer loop
      vertex -9.41837 -0.776621 0
      vertex -7.21076 6.11139 0
      vertex -6.35674 7.05988 0
    endloop
  endfacet
  facet normal 0 0 -1
    outer loop
      vertex -9.41837 -0.776621 0
      vertex -6.35674 7.05988 0
      vertex -5.81817 7.45117 0
    endloop
  endfacet
  facet normal 0 0 -1
    outer loop
      vertex -9.41837 -0.776621 0
      vertex -5.81817 7.45117 0
      vertex -4.75 8.22724 0
    endloop
  endfacet
  facet normal 0 0 -1
    outer loop
      vertex -9.41837 -0.776621 0
      vertex -4.75 8.22724 0
      vertex -4.33121 8.4137 0
    endloop
  endfacet
  facet normal 0 0 -1
    outer loop
      vertex -9.41837 -0.776621 0
      vertex -4.33121 8.4137 0
      vertex -2.93566 9.03504 0
    endloop
  endfacet
  facet normal 0 0 -1
    outer loop
      vertex -9.41837 -0.776621 0
      vertex -2.93566 9.03504 0
      vertex -2.52845 9.12159 0
    endloop
  endfacet
  facet normal 0 0 -1
    outer loop
      vertex -9.41837 -0.776621 0
      vertex -2.52845 9.12159 0
      vertex -0.99302 9.44796 0
    endloop
  endfacet
  facet normal 0 0 -1
    outer loop
      vertex -9.41837 -0.776621 0
      vertex -0.99302 9.44796 0
      vertex -0.788875 9.44796 0
    endloop
  endfacet
  facet normal 0 0 -1
    outer loop
      vertex -9.41837 -0.776621 0
      vertex -0.788875 9.44796 0
      vertex 0.99302 9.44796 0
    endloop
  endfacet
  facet normal 0 0 -1
    outer loop
      vertex -9.41837 -0.776621 0
      vertex 0.99302 9.44796 0
      vertex 1.1547 9.41359 0
    endloop
  endfacet
  facet normal 0 0 -1
    outer loop
      vertex -9.41837 -0.776621 0
      vertex 1.1547 9.41359 0
      vertex 2.88675 9.04543 0
    endloop
  endfacet
  facet normal 0 0 -1
    outer loop
      vertex -9.41837 -0.776621 0
      vertex 2.88675 9.04543 0
      vertex 2.93566 9.03504 0
    endloop
  endfacet
  facet normal 0 0 -1
    outer loop
      vertex -1.93255 4.66559 0
      vertex 2.93566 9.03504 0
      vertex 4.67205 8.26195 0
    endloop
  endfacet
  facet normal 0 0 -1
    outer loop
      vertex 0 5.05 0
      vertex 4.75 8.22724 0
      vertex 6.12011 7.2318 0
    endloop
  endfacet
  facet normal 0 0 -1
    outer loop
      vertex 1.93255 4.66559 0
      vertex 6.35674 7.05988 0
      vertex 7.46359 5.8306 0
    endloop
  endfacet
  facet normal 0 0 -1
    outer loop
      vertex 4.66559 1.93255 0
      vertex 9.41837 0.776621 0
      vertex 5.05 0 0
    endloop
  endfacet
  facet normal 0 0 -1
    outer loop
      vertex 3.57089 3.57089 0
      vertex 7.68566 5.58396 0
      vertex 8.41068 4.32819 0
    endloop
  endfacet
  facet normal 0 0 -1
    outer loop
      vertex 5.05 0 0
      vertex 9.5 0 0
      vertex 9.37864 -1.1547 0
    endloop
  endfacet
  facet normal 0 0 -1
    outer loop
      vertex 4.66559 1.93255 0
      vertex 8.67868 3.864 0
      vertex 9.11369 2.52518 0
    endloop
  endfacet
  facet normal 0 0 -1
    outer loop
      vertex 3.57089 3.57089 0
      vertex 8.67868 3.864 0
      vertex 4.66559 1.93255 0
    endloop
  endfacet
  facet normal 0 0 -1
    outer loop
      vertex 5.05 0 0
      vertex 9.41837 0.776621 0
      vertex 9.5 0 0
    endloop
  endfacet
  facet normal 0 0 -1
    outer loop
      vertex 4.66559 -1.93255 0
      vertex 9.2924 -1.97516 0
      vertex 8.99621 -2.88675 0
    endloop
  endfacet
  facet normal 0 0 -1
    outer loop
      vertex 3.57089 -3.57089 0
      vertex 8.22176 -4.6554 0
      vertex 7.68566 -5.58396 0
    endloop
  endfacet
  facet normal 0 0 -1
    outer loop
      vertex 3.57089 -3.57089 0
      vertex 8.67868 -3.864 0
      vertex 8.22176 -4.6554 0
    endloop
  endfacet
  facet normal 0 0 -1
    outer loop
      vertex 4.66559 -1.93255 0
      vertex 8.67868 -3.864 0
      vertex 3.57089 -3.57089 0
    endloop
  endfacet
  facet normal 0 0 -1
    outer loop
      vertex 1.93255 -4.66559 0
      vertex 7.21076 -6.11139 0
      vertex 6.35674 -7.05988 0
    endloop
  endfacet
  facet normal 0 0 -1
    outer loop
      vertex 0 -5.05 0
      vertex 5.81817 -7.45117 0
      vertex 4.75 -8.22724 0
    endloop
  endfacet
  facet normal 0 0 -1
    outer loop
      vertex -9.41837 -0.776621 0
      vertex 4.75 -8.22724 0
      vertex 4.33121 -8.4137 0
    endloop
  endfacet
  facet normal 0 0 -1
    outer loop
      vertex -9.41837 -0.776621 0
      vertex 4.33121 -8.4137 0
      vertex 2.93566 -9.03504 0
    endloop
  endfacet
  facet normal 0 0 -1
    outer loop
      vertex -9.41837 -0.776621 0
      vertex 2.93566 -9.03504 0
      vertex 2.52845 -9.12159 0
    endloop
  endfacet
  facet normal 0 0 -1
    outer loop
      vertex -9.41837 -0.776621 0
      vertex 2.52845 -9.12159 0
      vertex 0.99302 -9.44796 0
    endloop
  endfacet
  facet normal 0 0 -1
    outer loop
      vertex -9.41837 -0.776621 0
      vertex 0.99302 -9.44796 0
      vertex 0.788875 -9.44796 0
    endloop
  endfacet
  facet normal 0 0 -1
    outer loop
      vertex -9.41837 -0.776621 0
      vertex 0.788875 -9.44796 0
      vertex -0.99302 -9.44796 0
    endloop
  endfacet
  facet normal 0 0 -1
    outer loop
      vertex -9.41837 -0.776621 0
      vertex -0.99302 -9.44796 0
      vertex -1.1547 -9.41359 0
    endloop
  endfacet
  facet normal 0 0 -1
    outer loop
      vertex -9.41837 -0.776621 0
      vertex -1.1547 -9.41359 0
      vertex -2.88675 -9.04543 0
    endloop
  endfacet
  facet normal 0 0 -1
    outer loop
      vertex -9.41837 -0.776621 0
      vertex -2.88675 -9.04543 0
      vertex -2.93566 -9.03504 0
    endloop
  endfacet
  facet normal 0 0 -1
    outer loop
      vertex -9.41837 -0.776621 0
      vertex -2.93566 -9.03504 0
      vertex -4.67205 -8.26195 0
    endloop
  endfacet
  facet normal 0 0 -1
    outer loop
      vertex -9.41837 -0.776621 0
      vertex -4.67205 -8.26195 0
      vertex -4.75 -8.22724 0
    endloop
  endfacet
  facet normal 0 0 -1
    outer loop
      vertex -9.41837 -0.776621 0
      vertex -4.75 -8.22724 0
      vertex -6.12011 -7.2318 0
    endloop
  endfacet
  facet normal 0 0 -1
    outer loop
      vertex -9.41837 -0.776621 0
      vertex -6.12011 -7.2318 0
      vertex -6.35674 -7.05988 0
    endloop
  endfacet
  facet normal 0 0 -1
    outer loop
      vertex -9.41837 -0.776621 0
      vertex -6.35674 -7.05988 0
      vertex -7.46359 -5.8306 0
    endloop
  endfacet
  facet normal 0 0 -1
    outer loop
      vertex -9.41837 -0.776621 0
      vertex -7.46359 -5.8306 0
      vertex -7.68566 -5.58396 0
    endloop
  endfacet
  facet normal 0 0 -1
    outer loop
      vertex -9.41837 -0.776621 0
      vertex -7.68566 -5.58396 0
      vertex -8.41068 -4.32819 0
    endloop
  endfacet
  facet normal 0 0 -1
    outer loop
      vertex -9.41837 -0.776621 0
      vertex -8.41068 -4.32819 0
      vertex -8.67868 -3.864 0
    endloop
  endfacet
  facet normal 0 0 -1
    outer loop
      vertex -9.41837 -0.776621 0
      vertex -8.67868 -3.864 0
      vertex -9.11369 -2.52518 0
    endloop
  endfacet
  facet normal 0 0 -1
    outer loop
      vertex -9.41837 -0.776621 0
      vertex -9.11369 -2.52518 0
      vertex -9.2924 -1.97516 0
    endloop
  endfacet
  facet normal 0 0 -1
    outer loop
      vertex -4.66559 -1.93255 0
      vertex -9.41837 -0.776621 0
      vertex -5.05 0 0
    endloop
  endfacet
  facet normal 0 0 -1
    outer loop
      vertex -3.57089 -3.57089 0
      vertex -9.41837 -0.776621 0
      vertex -4.66559 -1.93255 0
    endloop
  endfacet
  facet normal 0 0 -1
    outer loop
      vertex 0 -5.05 0
      vertex 4.75 -8.22724 0
      vertex -1.93255 -4.66559 0
    endloop
  endfacet
  facet normal 0 0 -1
    outer loop
      vertex 1.93255 -4.66559 0
      vertex 5.81817 -7.45117 0
      vertex 0 -5.05 0
    endloop
  endfacet
  facet normal 0 0 -1
    outer loop
      vertex -9.41837 -0.776621 0
      vertex -3.57089 -3.57089 0
      vertex -1.93255 -4.66559 0
    endloop
  endfacet
  facet normal 0 0 -1
    outer loop
      vertex -9.41837 -0.776621 0
      vertex -1.93255 -4.66559 0
      vertex 4.75 -8.22724 0
    endloop
  endfacet
  facet normal 0 0 -1
    outer loop
      vertex 1.93255 -4.66559 0
      vertex 6.35674 -7.05988 0
      vertex 5.81817 -7.45117 0
    endloop
  endfacet
  facet normal 0 0 -1
    outer loop
      vertex 3.57089 -3.57089 0
      vertex 7.21076 -6.11139 0
      vertex 1.93255 -4.66559 0
    endloop
  endfacet
  facet normal 0 0 -1
    outer loop
      vertex 3.57089 -3.57089 0
      vertex 7.68566 -5.58396 0
      vertex 7.21076 -6.11139 0
    endloop
  endfacet
  facet normal 0 0 -1
    outer loop
      vertex 4.66559 1.93255 0
      vertex 9.2924 1.97516 0
      vertex 9.41837 0.776621 0
    endloop
  endfacet
  facet normal 0 0 -1
    outer loop
      vertex 4.66559 1.93255 0
      vertex 9.11369 2.52518 0
      vertex 9.2924 1.97516 0
    endloop
  endfacet
  facet normal 0 0 -1
    outer loop
      vertex 5.05 0 0
      vertex 9.2924 -1.97516 0
      vertex 4.66559 -1.93255 0
    endloop
  endfacet
  facet normal 0 0 -1
    outer loop
      vertex 5.05 0 0
      vertex 9.37864 -1.1547 0
      vertex 9.2924 -1.97516 0
    endloop
  endfacet
  facet normal 0 0 -1
    outer loop
      vertex -1.93255 4.66559 0
      vertex 4.67205 8.26195 0
      vertex 4.75 8.22724 0
    endloop
  endfacet
  facet normal 0 0 -1
    outer loop
      vertex -3.57089 3.57089 0
      vertex 2.93566 9.03504 0
      vertex -1.93255 4.66559 0
    endloop
  endfacet
  facet normal 0 0 -1
    outer loop
      vertex -4.66559 1.93255 0
      vertex -9.41837 -0.776621 0
      vertex -3.57089 3.57089 0
    endloop
  endfacet
  facet normal 0 0 -1
    outer loop
      vertex -9.41837 -0.776621 0
      vertex 2.93566 9.03504 0
      vertex -3.57089 3.57089 0
    endloop
  endfacet
  facet normal 0 0 -1
    outer loop
      vertex 4.66559 -1.93255 0
      vertex 8.99621 -2.88675 0
      vertex 8.67868 -3.864 0
    endloop
  endfacet
  facet normal 0 0 -1
    outer loop
      vertex -5.05 0 0
      vertex -9.41837 -0.776621 0
      vertex -4.66559 1.93255 0
    endloop
  endfacet
  facet normal 0 0 -1
    outer loop
      vertex -1.93255 4.66559 0
      vertex 4.75 8.22724 0
      vertex 0 5.05 0
    endloop
  endfacet
  facet normal 0 0 -1
    outer loop
      vertex 0 5.05 0
      vertex 6.12011 7.2318 0
      vertex 6.35674 7.05988 0
    endloop
  endfacet
  facet normal 0 0 -1
    outer loop
      vertex 0 5.05 0
      vertex 6.35674 7.05988 0
      vertex 1.93255 4.66559 0
    endloop
  endfacet
  facet normal 0 0 -1
    outer loop
      vertex 1.93255 4.66559 0
      vertex 7.46359 5.8306 0
      vertex 7.68566 5.58396 0
    endloop
  endfacet
  facet normal 0 0 -1
    outer loop
      vertex 1.93255 4.66559 0
      vertex 7.68566 5.58396 0
      vertex 3.57089 3.57089 0
    endloop
  endfacet
  facet normal 0 0 -1
    outer loop
      vertex 3.57089 3.57089 0
      vertex 8.41068 4.32819 0
      vertex 8.67868 3.864 0
    endloop
  endfacet
  facet normal -0.994522 -0.104529 0
    outer loop
      vertex -9.5 0 0
      vertex -9.41837 -0.776621 0
      vertex -9.5 0 2
    endloop
  endfacet
  facet normal -0.994522 -0.104529 0
    outer loop
      vertex -9.5 0 2
      vertex -9.41837 -0.776621 0
      vertex -9.2924 -1.97516 2.00141
    endloop
  endfacet
  facet normal -0.994522 -0.104529 0
    outer loop
      vertex -9.5 0 2
      vertex -9.2924 -1.97516 2.00141
      vertex -9.2924 -1.97516 5.42108
    endloop
  endfacet
  facet normal -0.951057 -0.309017 0
    outer loop
      vertex -8.67868 -3.864 2.43073
      vertex -9.11369 -2.52518 0
      vertex -8.67868 -3.864 0
    endloop
  endfacet
  facet normal -0.951057 -0.309017 0
    outer loop
      vertex -9.2924 -1.97516 2.00141
      vertex -8.67868 -3.864 5.43073
      vertex -9.2924 -1.97516 5.42108
    endloop
  endfacet
  facet normal -0.951057 -0.309017 0
    outer loop
      vertex -9.2924 -1.97516 5.42108
      vertex -8.67868 -3.864 5.43073
      vertex -8.67868 -3.864 7
    endloop
  endfacet
  facet normal -0.951057 -0.309017 0
    outer loop
      vertex -9.2924 -1.97516 5.42108
      vertex -8.67868 -3.864 7
      vertex -8.99621 -2.88675 7
    endloop
  endfacet
  facet normal -0.866025 -0.5 0
    outer loop
      vertex -8.67868 -3.864 7
      vertex -8.67868 -3.864 5.43073
      vertex -8.22176 -4.6554 7
    endloop
  endfacet
  facet normal 0 0 1
    outer loop
      vertex -9.41837 0.776621 7
      vertex -9.5 0 7
      vertex -9.37864 -1.1547 7
    endloop
  endfacet
  facet normal 0 0 1
    outer loop
      vertex -8.99621 -2.88675 7
      vertex -9.41837 0.776621 7
      vertex -9.2924 -1.97516 7
    endloop
  endfacet
  facet normal 0 0 1
    outer loop
      vertex -9.2924 -1.97516 7
      vertex -9.41837 0.776621 7
      vertex -9.37864 -1.1547 7
    endloop
  endfacet
  facet normal 0 0 1
    outer loop
      vertex -8.67868 -3.864 7
      vertex -9.41837 0.776621 7
      vertex -8.99621 -2.88675 7
    endloop
  endfacet
  facet normal 0 0 1
    outer loop
      vertex -8.22176 -4.6554 7
      vertex -9.41837 0.776621 7
      vertex -8.67868 -3.864 7
    endloop
  endfacet
  facet normal 0 0 1
    outer loop
      vertex -7.68566 -5.58396 7
      vertex -9.41837 0.776621 7
      vertex -8.22176 -4.6554 7
    endloop
  endfacet
  facet normal 0 0 1
    outer loop
      vertex -7.21076 -6.11139 7
      vertex -9.41837 0.776621 7
      vertex -7.68566 -5.58396 7
    endloop
  endfacet
  facet normal 0 0 1
    outer loop
      vertex -6.35674 -7.05988 7
      vertex -9.41837 0.776621 7
      vertex -7.21076 -6.11139 7
    endloop
  endfacet
  facet normal 0 0 1
    outer loop
      vertex -5.81817 -7.45117 7
      vertex -9.41837 0.776621 7
      vertex -6.35674 -7.05988 7
    endloop
  endfacet
  facet normal 0 0 1
    outer loop
      vertex -4.75 -8.22724 7
      vertex -9.41837 0.776621 7
      vertex -5.81817 -7.45117 7
    endloop
  endfacet
  facet normal 0 0 1
    outer loop
      vertex -4.33121 -8.4137 7
      vertex -9.41837 0.776621 7
      vertex -4.75 -8.22724 7
    endloop
  endfacet
  facet normal 0 0 1
    outer loop
      vertex -2.93566 -9.03504 7
      vertex -9.41837 0.776621 7
      vertex -4.33121 -8.4137 7
    endloop
  endfacet
  facet normal 0 0 1
    outer loop
      vertex -2.52845 -9.12159 7
      vertex -9.41837 0.776621 7
      vertex -2.93566 -9.03504 7
    endloop
  endfacet
  facet normal 0 0 1
    outer loop
      vertex -0.99302 -9.44796 7
      vertex -9.41837 0.776621 7
      vertex -2.52845 -9.12159 7
    endloop
  endfacet
  facet normal 0 0 1
    outer loop
      vertex -0.788875 -9.44796 7
      vertex -9.41837 0.776621 7
      vertex -0.99302 -9.44796 7
    endloop
  endfacet
  facet normal 0 0 1
    outer loop
      vertex 0.99302 -9.44796 7
      vertex -9.41837 0.776621 7
      vertex -0.788875 -9.44796 7
    endloop
  endfacet
  facet normal 0 0 1
    outer loop
      vertex 1.1547 -9.41359 7
      vertex -9.41837 0.776621 7
      vertex 0.99302 -9.44796 7
    endloop
  endfacet
  facet normal 0 0 1
    outer loop
      vertex 2.88675 -9.04543 7
      vertex -9.41837 0.776621 7
      vertex 1.1547 -9.41359 7
    endloop
  endfacet
  facet normal 0 0 1
    outer loop
      vertex 2.93566 -9.03504 7
      vertex -9.41837 0.776621 7
      vertex 2.88675 -9.04543 7
    endloop
  endfacet
  facet normal 0 0 1
    outer loop
      vertex -3.57089 -3.57089 7
      vertex -9.41837 0.776621 7
      vertex 2.93566 -9.03504 7
    endloop
  endfacet
  facet normal 0 0 1
    outer loop
      vertex 3.57089 -3.57089 7
      vertex 1.93255 -4.66559 7
      vertex 7.46359 -5.8306 7
    endloop
  endfacet
  facet normal 0 0 1
    outer loop
      vertex 5.05 0 7
      vertex 9.2924 -1.97516 7
      vertex 9.41837 -0.776621 7
    endloop
  endfacet
  facet normal 0 0 1
    outer loop
      vertex 5.05 0 7
      vertex 9.11369 -2.52518 7
      vertex 9.2924 -1.97516 7
    endloop
  endfacet
  facet normal 0 0 1
    outer loop
      vertex 4.66559 1.93255 7
      vertex 9.5 0 7
      vertex 9.37864 1.1547 7
    endloop
  endfacet
  facet normal 0 0 1
    outer loop
      vertex -4.66559 1.93255 7
      vertex -3.57089 3.57089 7
      vertex -9.41837 0.776621 7
    endloop
  endfacet
  facet normal 0 0 1
    outer loop
      vertex 5.05 0 7
      vertex 4.66559 -1.93255 7
      vertex 9.11369 -2.52518 7
    endloop
  endfacet
  facet normal 0 0 1
    outer loop
      vertex 1.93255 4.66559 7
      vertex 7.68566 5.58396 7
      vertex 7.21076 6.11139 7
    endloop
  endfacet
  facet normal 0 0 1
    outer loop
      vertex 1.93255 4.66559 7
      vertex 3.57089 3.57089 7
      vertex 8.22176 4.6554 7
    endloop
  endfacet
  facet normal 0 0 1
    outer loop
      vertex -1.93255 4.66559 7
      vertex 0 5.05 7
      vertex 4.75 8.22724 7
    endloop
  endfacet
  facet normal 0 0 1
    outer loop
      vertex 4.33121 8.4137 7
      vertex -9.41837 0.776621 7
      vertex 4.75 8.22724 7
    endloop
  endfacet
  facet normal 0 0 1
    outer loop
      vertex 2.93566 9.03504 7
      vertex -9.41837 0.776621 7
      vertex 4.33121 8.4137 7
    endloop
  endfacet
  facet normal 0 0 1
    outer loop
      vertex 2.52845 9.12159 7
      vertex -9.41837 0.776621 7
      vertex 2.93566 9.03504 7
    endloop
  endfacet
  facet normal 0 0 1
    outer loop
      vertex 0.99302 9.44796 7
      vertex -9.41837 0.776621 7
      vertex 2.52845 9.12159 7
    endloop
  endfacet
  facet normal 0 0 1
    outer loop
      vertex 0.788875 9.44796 7
      vertex -9.41837 0.776621 7
      vertex 0.99302 9.44796 7
    endloop
  endfacet
  facet normal 0 0 1
    outer loop
      vertex -0.99302 9.44796 7
      vertex -9.41837 0.776621 7
      vertex 0.788875 9.44796 7
    endloop
  endfacet
  facet normal 0 0 1
    outer loop
      vertex -1.1547 9.41359 7
      vertex -9.41837 0.776621 7
      vertex -0.99302 9.44796 7
    endloop
  endfacet
  facet normal 0 0 1
    outer loop
      vertex -2.88675 9.04543 7
      vertex -9.41837 0.776621 7
      vertex -1.1547 9.41359 7
    endloop
  endfacet
  facet normal 0 0 1
    outer loop
      vertex -2.93566 9.03504 7
      vertex -9.41837 0.776621 7
      vertex -2.88675 9.04543 7
    endloop
  endfacet
  facet normal 0 0 1
    outer loop
      vertex -4.67205 8.26195 7
      vertex -9.41837 0.776621 7
      vertex -2.93566 9.03504 7
    endloop
  endfacet
  facet normal 0 0 1
    outer loop
      vertex -4.75 8.22724 7
      vertex -9.41837 0.776621 7
      vertex -4.67205 8.26195 7
    endloop
  endfacet
  facet normal 0 0 1
    outer loop
      vertex -6.12011 7.2318 7
      vertex -9.41837 0.776621 7
      vertex -4.75 8.22724 7
    endloop
  endfacet
  facet normal 0 0 1
    outer loop
      vertex -6.35674 7.05988 7
      vertex -9.41837 0.776621 7
      vertex -6.12011 7.2318 7
    endloop
  endfacet
  facet normal 0 0 1
    outer loop
      vertex -7.46359 5.8306 7
      vertex -9.41837 0.776621 7
      vertex -6.35674 7.05988 7
    endloop
  endfacet
  facet normal 0 0 1
    outer loop
      vertex -7.68566 5.58396 7
      vertex -9.41837 0.776621 7
      vertex -7.46359 5.8306 7
    endloop
  endfacet
  facet normal 0 0 1
    outer loop
      vertex -8.41068 4.32819 7
      vertex -9.41837 0.776621 7
      vertex -7.68566 5.58396 7
    endloop
  endfacet
  facet normal 0 0 1
    outer loop
      vertex -8.67868 3.864 7
      vertex -9.41837 0.776621 7
      vertex -8.41068 4.32819 7
    endloop
  endfacet
  facet normal 0 0 1
    outer loop
      vertex -9.11369 2.52518 7
      vertex -9.41837 0.776621 7
      vertex -8.67868 3.864 7
    endloop
  endfacet
  facet normal 0 0 1
    outer loop
      vertex -9.2924 1.97516 7
      vertex -9.41837 0.776621 7
      vertex -9.11369 2.52518 7
    endloop
  endfacet
  facet normal 0 0 1
    outer loop
      vertex 4.66559 -1.93255 7
      vertex 3.57089 -3.57089 7
      vertex 8.41068 -4.32819 7
    endloop
  endfacet
  facet normal 0 0 1
    outer loop
      vertex 4.66559 -1.93255 7
      vertex 8.41068 -4.32819 7
      vertex 8.67868 -3.864 7
    endloop
  endfacet
  facet normal 0 0 1
    outer loop
      vertex 3.57089 3.57089 7
      vertex 8.99621 2.88675 7
      vertex 8.67868 3.864 7
    endloop
  endfacet
  facet normal 0 0 1
    outer loop
      vertex 1.93255 4.66559 7
      vertex 8.22176 4.6554 7
      vertex 7.68566 5.58396 7
    endloop
  endfacet
  facet normal 0 0 1
    outer loop
      vertex -1.93255 4.66559 7
      vertex -9.41837 0.776621 7
      vertex -3.57089 3.57089 7
    endloop
  endfacet
  facet normal 0 0 1
    outer loop
      vertex 0 5.05 7
      vertex 6.35674 7.05988 7
      vertex 5.81817 7.45117 7
    endloop
  endfacet
  facet normal 0 0 1
    outer loop
      vertex 4.75 8.22724 7
      vertex -9.41837 0.776621 7
      vertex -1.93255 4.66559 7
    endloop
  endfacet
  facet normal 0 0 1
    outer loop
      vertex 4.75 8.22724 7
      vertex 0 5.05 7
      vertex 5.81817 7.45117 7
    endloop
  endfacet
  facet normal 0 0 1
    outer loop
      vertex 6.35674 7.05988 7
      vertex 1.93255 4.66559 7
      vertex 7.21076 6.11139 7
    endloop
  endfacet
  facet normal 0 0 1
    outer loop
      vertex 0 5.05 7
      vertex 1.93255 4.66559 7
      vertex 6.35674 7.05988 7
    endloop
  endfacet
  facet normal 0 0 1
    outer loop
      vertex 8.22176 4.6554 7
      vertex 3.57089 3.57089 7
      vertex 8.67868 3.864 7
    endloop
  endfacet
  facet normal 0 0 1
    outer loop
      vertex 8.99621 2.88675 7
      vertex 4.66559 1.93255 7
      vertex 9.2924 1.97516 7
    endloop
  endfacet
  facet normal 0 0 1
    outer loop
      vertex 3.57089 3.57089 7
      vertex 4.66559 1.93255 7
      vertex 8.99621 2.88675 7
    endloop
  endfacet
  facet normal 0 0 1
    outer loop
      vertex 9.5 0 7
      vertex 5.05 0 7
      vertex 9.41837 -0.776621 7
    endloop
  endfacet
  facet normal 0 0 1
    outer loop
      vertex 9.11369 -2.52518 7
      vertex 4.66559 -1.93255 7
      vertex 8.67868 -3.864 7
    endloop
  endfacet
  facet normal 0 0 1
    outer loop
      vertex 4.66559 1.93255 7
      vertex 5.05 0 7
      vertex 9.5 0 7
    endloop
  endfacet
  facet normal 0 0 1
    outer loop
      vertex 8.41068 -4.32819 7
      vertex 3.57089 -3.57089 7
      vertex 7.68566 -5.58396 7
    endloop
  endfacet
  facet normal 0 0 1
    outer loop
      vertex 4.66559 1.93255 7
      vertex 9.37864 1.1547 7
      vertex 9.2924 1.97516 7
    endloop
  endfacet
  facet normal 0 0 1
    outer loop
      vertex 7.46359 -5.8306 7
      vertex 1.93255 -4.66559 7
      vertex 6.35674 -7.05988 7
    endloop
  endfacet
  facet normal 0 0 1
    outer loop
      vertex 6.12011 -7.2318 7
      vertex 0 -5.05 7
      vertex 4.75 -8.22724 7
    endloop
  endfacet
  facet normal 0 0 1
    outer loop
      vertex 4.67205 -8.26195 7
      vertex -1.93255 -4.66559 7
      vertex 2.93566 -9.03504 7
    endloop
  endfacet
  facet normal 0 0 1
    outer loop
      vertex 3.57089 -3.57089 7
      vertex 7.46359 -5.8306 7
      vertex 7.68566 -5.58396 7
    endloop
  endfacet
  facet normal 0 0 1
    outer loop
      vertex -1.93255 -4.66559 7
      vertex -3.57089 -3.57089 7
      vertex 2.93566 -9.03504 7
    endloop
  endfacet
  facet normal 0 0 1
    outer loop
      vertex -3.57089 -3.57089 7
      vertex -4.66559 -1.93255 7
      vertex -9.41837 0.776621 7
    endloop
  endfacet
  facet normal 0 0 1
    outer loop
      vertex 0 -5.05 7
      vertex -1.93255 -4.66559 7
      vertex 4.67205 -8.26195 7
    endloop
  endfacet
  facet normal 0 0 1
    outer loop
      vertex 1.93255 -4.66559 7
      vertex 0 -5.05 7
      vertex 6.12011 -7.2318 7
    endloop
  endfacet
  facet normal 0 0 1
    outer loop
      vertex 1.93255 -4.66559 7
      vertex 6.12011 -7.2318 7
      vertex 6.35674 -7.05988 7
    endloop
  endfacet
  facet normal 0 0 1
    outer loop
      vertex 0 -5.05 7
      vertex 4.67205 -8.26195 7
      vertex 4.75 -8.22724 7
    endloop
  endfacet
  facet normal 0 0 1
    outer loop
      vertex -4.66559 -1.93255 7
      vertex -5.05 0 7
      vertex -9.41837 0.776621 7
    endloop
  endfacet
  facet normal 0 0 1
    outer loop
      vertex -5.05 0 7
      vertex -4.66559 1.93255 7
      vertex -9.41837 0.776621 7
    endloop
  endfacet
  facet normal -0.743145 -0.66913 0
    outer loop
      vertex -7.68566 -5.58396 2.42595
      vertex -6.35674 -7.05988 5.86116
      vertex -7.68566 -5.58396 5.84122
    endloop
  endfacet
  facet normal -0.743145 -0.66913 0
    outer loop
      vertex -7.68566 -5.58396 5.84122
      vertex -6.35674 -7.05988 5.86116
      vertex -6.35674 -7.05988 7
    endloop
  endfacet
  facet normal -0.743145 -0.66913 0
    outer loop
      vertex -7.68566 -5.58396 5.84122
      vertex -6.35674 -7.05988 7
      vertex -7.21076 -6.11139 7
    endloop
  endfacet
  facet normal -0.866025 -0.5 0
    outer loop
      vertex -8.67868 -3.864 0
      vertex -8.41068 -4.32819 0
      vertex -8.67868 -3.864 2.43073
    endloop
  endfacet
  facet normal -0.866025 -0.5 0
    outer loop
      vertex -8.67868 -3.864 2.43073
      vertex -8.41068 -4.32819 0
      vertex -7.68566 -5.58396 2.42595
    endloop
  endfacet
  facet normal -0.866025 -0.5 0
    outer loop
      vertex -8.67868 -3.864 2.43073
      vertex -7.68566 -5.58396 2.42595
      vertex -7.68566 -5.58396 5.84122
    endloop
  endfacet
  facet normal 0 0 -1
    outer loop
      vertex -7.68566 -5.58396 0
      vertex -7.46359 -5.8306 0
      vertex -8.94822 -7.31523 0
    endloop
  endfacet
  facet normal 0 0 -1
    outer loop
      vertex -7.68566 -5.58396 0
      vertex -8.94822 -7.31523 0
      vertex -8.41068 -4.32819 0
    endloop
  endfacet
  facet normal 0 0 -1
    outer loop
      vertex -8.94822 -7.31523 0
      vertex -10.173 -6.09049 0
      vertex -8.41068 -4.32819 0
    endloop
  endfacet
  facet normal -0.612372 0.612372 0.5
    outer loop
      vertex -10.173 -6.09049 0
      vertex -7.31523 -8.94822 7
      vertex -8.41068 -4.32819 0
    endloop
  endfacet
  facet normal -0.612372 0.612372 0.5
    outer loop
      vertex -6.35674 -7.05988 5.86116
      vertex -7.31523 -8.94822 7
      vertex -5.81817 -7.45117 7
    endloop
  endfacet
  facet normal -0.612372 0.612372 0.5
    outer loop
      vertex -7.68566 -5.58396 2.42595
      vertex -7.31523 -8.94822 7
      vertex -6.35674 -7.05988 5.86116
    endloop
  endfacet
  facet normal -0.612372 0.612372 0.5
    outer loop
      vertex -8.41068 -4.32819 0
      vertex -7.31523 -8.94822 7
      vertex -7.68566 -5.58396 2.42595
    endloop
  endfacet
  facet normal 0.612372 -0.612372 -0.5
    outer loop
      vertex -6.09049 -10.173 7
      vertex -8.94822 -7.31523 0
      vertex -7.46359 -5.8306 0
    endloop
  endfacet
  facet normal 0.612372 -0.612372 -0.5
    outer loop
      vertex -4.75 -8.22724 6.25873
      vertex -6.09049 -10.173 7
      vertex -6.35674 -7.05988 2.86116
    endloop
  endfacet
  facet normal 0.612372 -0.612372 -0.5
    outer loop
      vertex -6.35674 -7.05988 2.86116
      vertex -6.09049 -10.173 7
      vertex -7.46359 -5.8306 0
    endloop
  endfacet
  facet normal 0.612372 -0.612372 -0.5
    outer loop
      vertex -4.33121 -8.4137 7
      vertex -6.09049 -10.173 7
      vertex -4.75 -8.22724 6.25873
    endloop
  endfacet
  facet normal -0.743145 -0.66913 0
    outer loop
      vertex -6.35674 -7.05988 2.86116
      vertex -7.46359 -5.8306 0
      vertex -6.35674 -7.05988 0
    endloop
  endfacet
  facet normal -0.587785 -0.809017 0
    outer loop
      vertex -6.35674 -7.05988 2.86116
      vertex -6.35674 -7.05988 0
      vertex -6.12011 -7.2318 0
    endloop
  endfacet
  facet normal -0.587785 -0.809017 0
    outer loop
      vertex -4.75 -8.22724 6.25873
      vertex -6.35674 -7.05988 2.86116
      vertex -4.75 -8.22724 2.85226
    endloop
  endfacet
  facet normal -0.587785 -0.809017 0
    outer loop
      vertex -4.75 -8.22724 2.85226
      vertex -6.35674 -7.05988 2.86116
      vertex -6.12011 -7.2318 0
    endloop
  endfacet
  facet normal 0 0 -1
    outer loop
      vertex -4.75 -8.22724 0
      vertex -4.67205 -8.26195 0
      vertex -5.46766 -10.1827 0
    endloop
  endfacet
  facet normal 0 0 -1
    outer loop
      vertex -4.75 -8.22724 0
      vertex -5.46766 -10.1827 0
      vertex -6.12011 -7.2318 0
    endloop
  endfacet
  facet normal 0 0 -1
    outer loop
      vertex -5.46766 -10.1827 0
      vertex -7.06787 -9.5199 0
      vertex -6.12011 -7.2318 0
    endloop
  endfacet
  facet normal -0.800103 0.331414 0.5
    outer loop
      vertex -7.06787 -9.5199 0
      vertex -3.33406 -11.0665 7
      vertex -6.12011 -7.2318 0
    endloop
  endfacet
  facet normal -0.800103 0.331414 0.5
    outer loop
      vertex -2.93566 -9.03504 6.291
      vertex -3.33406 -11.0665 7
      vertex -2.52845 -9.12159 7
    endloop
  endfacet
  facet normal -0.800103 0.331414 0.5
    outer loop
      vertex -4.75 -8.22724 2.85226
      vertex -3.33406 -11.0665 7
      vertex -2.93566 -9.03504 6.291
    endloop
  endfacet
  facet normal -0.800103 0.331414 0.5
    outer loop
      vertex -6.12011 -7.2318 0
      vertex -3.33406 -11.0665 7
      vertex -4.75 -8.22724 2.85226
    endloop
  endfacet
  facet normal 0.800103 -0.331414 -0.5
    outer loop
      vertex -1.73385 -11.7293 7
      vertex -5.46766 -10.1827 0
      vertex -4.67205 -8.26195 0
    endloop
  endfacet
  facet normal 0.800103 -0.331414 -0.5
    outer loop
      vertex -0.99302 -9.44796 6.67333
      vertex -1.73385 -11.7293 7
      vertex -2.93566 -9.03504 3.291
    endloop
  endfacet
  facet normal 0.800103 -0.331414 -0.5
    outer loop
      vertex -2.93566 -9.03504 3.291
      vertex -1.73385 -11.7293 7
      vertex -4.67205 -8.26195 0
    endloop
  endfacet
  facet normal 0.800103 -0.331414 -0.5
    outer loop
      vertex -0.788875 -9.44796 7
      vertex -1.73385 -11.7293 7
      vertex -0.99302 -9.44796 6.67333
    endloop
  endfacet
  facet normal -0.406737 -0.913545 0
    outer loop
      vertex -2.93566 -9.03504 3.291
      vertex -4.67205 -8.26195 0
      vertex -2.93566 -9.03504 0
    endloop
  endfacet
  facet normal -0.207912 -0.978148 0
    outer loop
      vertex -2.93566 -9.03504 3.291
      vertex -2.93566 -9.03504 0
      vertex -2.88675 -9.04543 0
    endloop
  endfacet
  facet normal -0.207912 -0.978148 0
    outer loop
      vertex -0.99302 -9.44796 6.67333
      vertex -2.93566 -9.03504 3.291
      vertex -0.99302 -9.44796 3.28004
    endloop
  endfacet
  facet normal -0.207912 -0.978148 0
    outer loop
      vertex -0.99302 -9.44796 3.28004
      vertex -2.93566 -9.03504 3.291
      vertex -2.88675 -9.04543 0
    endloop
  endfacet
  facet normal -0.866025 -1.06054e-016 0.5
    outer loop
      vertex -2.88675 -9.04543 0
      vertex -2.88675 -11.5 0
      vertex -0.99302 -9.44796 3.28004
    endloop
  endfacet
  facet normal -0.866025 -1.06054e-016 0.5
    outer loop
      vertex -0.99302 -9.44796 3.28004
      vertex -2.88675 -11.5 0
      vertex 1.1547 -11.5 7
    endloop
  endfacet
  facet normal -0.866025 -1.06054e-016 0.5
    outer loop
      vertex 0.99302 -9.44796 6.71996
      vertex 1.1547 -11.5 7
      vertex 1.1547 -9.41359 7
    endloop
  endfacet
  facet normal -0.866025 -1.06054e-016 0.5
    outer loop
      vertex -0.99302 -9.44796 3.28004
      vertex 1.1547 -11.5 7
      vertex 0.99302 -9.44796 6.71996
    endloop
  endfacet
  facet normal 0 0 -1
    outer loop
      vertex -1.1547 -11.5 0
      vertex -2.88675 -11.5 0
      vertex -1.1547 -9.41359 0
    endloop
  endfacet
  facet normal 0 0 -1
    outer loop
      vertex -1.1547 -9.41359 0
      vertex -2.88675 -11.5 0
      vertex -2.88675 -9.04543 0
    endloop
  endfacet
  facet normal 0.866025 1.06054e-016 -0.5
    outer loop
      vertex -1.1547 -11.5 0
      vertex -1.1547 -9.41359 0
      vertex -0.99302 -9.44796 0.280039
    endloop
  endfacet
  facet normal 0.866025 1.06054e-016 -0.5
    outer loop
      vertex 0.99302 -9.44796 3.71996
      vertex -1.1547 -11.5 0
      vertex -0.99302 -9.44796 0.280039
    endloop
  endfacet
  facet normal 0.866025 1.06054e-016 -0.5
    outer loop
      vertex 0.99302 -9.44796 3.71996
      vertex 2.88675 -9.04543 7
      vertex -1.1547 -11.5 0
    endloop
  endfacet
  facet normal 0.866025 1.06054e-016 -0.5
    outer loop
      vertex 2.88675 -9.04543 7
      vertex 2.88675 -11.5 7
      vertex -1.1547 -11.5 0
    endloop
  endfacet
  facet normal -0.207912 -0.978148 0
    outer loop
      vertex -0.99302 -9.44796 0.280039
      vertex -1.1547 -9.41359 0
      vertex -0.99302 -9.44796 0
    endloop
  endfacet
  facet normal 0 -1 0
    outer loop
      vertex -0.99302 -9.44796 0.280039
      vertex -0.99302 -9.44796 0
      vertex 0.788875 -9.44796 0
    endloop
  endfacet
  facet normal 0 -1 0
    outer loop
      vertex 0.99302 -9.44796 3.71996
      vertex -0.99302 -9.44796 0.280039
      vertex 0.99302 -9.44796 0.326674
    endloop
  endfacet
  facet normal 0 -1 0
    outer loop
      vertex 0.99302 -9.44796 0.326674
      vertex -0.99302 -9.44796 0.280039
      vertex 0.788875 -9.44796 0
    endloop
  endfacet
  facet normal -0.800103 -0.331414 0.5
    outer loop
      vertex 0.788875 -9.44796 0
      vertex 1.73385 -11.7293 0
      vertex 0.99302 -9.44796 0.326674
    endloop
  endfacet
  facet normal -0.800103 -0.331414 0.5
    outer loop
      vertex 0.99302 -9.44796 0.326674
      vertex 1.73385 -11.7293 0
      vertex 5.46766 -10.1827 7
    endloop
  endfacet
  facet normal -0.800103 -0.331414 0.5
    outer loop
      vertex 2.93566 -9.03504 3.709
      vertex 5.46766 -10.1827 7
      vertex 4.67205 -8.26195 7
    endloop
  endfacet
  facet normal -0.800103 -0.331414 0.5
    outer loop
      vertex 0.99302 -9.44796 0.326674
      vertex 5.46766 -10.1827 7
      vertex 2.93566 -9.03504 3.709
    endloop
  endfacet
  facet normal 0 0 -1
    outer loop
      vertex 2.52845 -9.12159 0
      vertex 3.33406 -11.0665 0
      vertex 0.99302 -9.44796 0
    endloop
  endfacet
  facet normal 0 0 -1
    outer loop
      vertex 0.99302 -9.44796 0
      vertex 3.33406 -11.0665 0
      vertex 1.73385 -11.7293 0
    endloop
  endfacet
  facet normal 0 0 -1
    outer loop
      vertex 0.99302 -9.44796 0
      vertex 1.73385 -11.7293 0
      vertex 0.788875 -9.44796 0
    endloop
  endfacet
  facet normal 0.800103 0.331414 -0.5
    outer loop
      vertex 3.33406 -11.0665 0
      vertex 2.52845 -9.12159 0
      vertex 2.93566 -9.03504 0.708995
    endloop
  endfacet
  facet normal 0.800103 0.331414 -0.5
    outer loop
      vertex 4.75 -8.22724 4.14774
      vertex 3.33406 -11.0665 0
      vertex 2.93566 -9.03504 0.708995
    endloop
  endfacet
  facet normal 0.800103 0.331414 -0.5
    outer loop
      vertex 4.75 -8.22724 4.14774
      vertex 6.12011 -7.2318 7
      vertex 3.33406 -11.0665 0
    endloop
  endfacet
  facet normal 0.800103 0.331414 -0.5
    outer loop
      vertex 6.12011 -7.2318 7
      vertex 7.06787 -9.5199 7
      vertex 3.33406 -11.0665 0
    endloop
  endfacet
  facet normal 0.207912 -0.978148 0
    outer loop
      vertex 2.93566 -9.03504 0.708995
      vertex 2.52845 -9.12159 0
      vertex 2.93566 -9.03504 0
    endloop
  endfacet
  facet normal 0.406737 -0.913545 0
    outer loop
      vertex 2.93566 -9.03504 0.708995
      vertex 2.93566 -9.03504 0
      vertex 4.33121 -8.4137 0
    endloop
  endfacet
  facet normal 0.406737 -0.913545 0
    outer loop
      vertex 4.75 -8.22724 4.14774
      vertex 2.93566 -9.03504 0.708995
      vertex 4.75 -8.22724 0.741267
    endloop
  endfacet
  facet normal 0.406737 -0.913545 0
    outer loop
      vertex 4.75 -8.22724 0.741267
      vertex 2.93566 -9.03504 0.708995
      vertex 4.33121 -8.4137 0
    endloop
  endfacet
  facet normal -0.612372 -0.612372 0.5
    outer loop
      vertex 4.75 -8.22724 0.741267
      vertex 4.33121 -8.4137 0
      vertex 6.09049 -10.173 0
    endloop
  endfacet
  facet normal -0.612372 -0.612372 0.5
    outer loop
      vertex 6.35674 -7.05988 4.13884
      vertex 4.75 -8.22724 0.741267
      vertex 8.94822 -7.31523 7
    endloop
  endfacet
  facet normal -0.612372 -0.612372 0.5
    outer loop
      vertex 8.94822 -7.31523 7
      vertex 4.75 -8.22724 0.741267
      vertex 6.09049 -10.173 0
    endloop
  endfacet
  facet normal -0.612372 -0.612372 0.5
    outer loop
      vertex 7.46359 -5.8306 7
      vertex 6.35674 -7.05988 4.13884
      vertex 8.94822 -7.31523 7
    endloop
  endfacet
  facet normal 0 0 -1
    outer loop
      vertex 5.81817 -7.45117 0
      vertex 7.31523 -8.94822 0
      vertex 4.75 -8.22724 0
    endloop
  endfacet
  facet normal 0 0 -1
    outer loop
      vertex 4.75 -8.22724 0
      vertex 7.31523 -8.94822 0
      vertex 6.09049 -10.173 0
    endloop
  endfacet
  facet normal 0 0 -1
    outer loop
      vertex 4.75 -8.22724 0
      vertex 6.09049 -10.173 0
      vertex 4.33121 -8.4137 0
    endloop
  endfacet
  facet normal 0.612372 0.612372 -0.5
    outer loop
      vertex 5.81817 -7.45117 0
      vertex 6.35674 -7.05988 1.13884
      vertex 7.31523 -8.94822 0
    endloop
  endfacet
  facet normal 0.612372 0.612372 -0.5
    outer loop
      vertex 7.31523 -8.94822 0
      vertex 6.35674 -7.05988 1.13884
      vertex 7.68566 -5.58396 4.57405
    endloop
  endfacet
  facet normal 0.612372 0.612372 -0.5
    outer loop
      vertex 7.68566 -5.58396 4.57405
      vertex 8.41068 -4.32819 7
      vertex 7.31523 -8.94822 0
    endloop
  endfacet
  facet normal 0.612372 0.612372 -0.5
    outer loop
      vertex 7.31523 -8.94822 0
      vertex 8.41068 -4.32819 7
      vertex 10.173 -6.09049 7
    endloop
  endfacet
  facet normal 0.587785 -0.809017 0
    outer loop
      vertex 6.35674 -7.05988 1.13884
      vertex 5.81817 -7.45117 0
      vertex 6.35674 -7.05988 0
    endloop
  endfacet
  facet normal 0.743145 -0.66913 0
    outer loop
      vertex 6.35674 -7.05988 1.13884
      vertex 6.35674 -7.05988 0
      vertex 7.21076 -6.11139 0
    endloop
  endfacet
  facet normal 0.743145 -0.66913 0
    outer loop
      vertex 7.68566 -5.58396 4.57405
      vertex 6.35674 -7.05988 1.13884
      vertex 7.68566 -5.58396 1.15878
    endloop
  endfacet
  facet normal 0.743145 -0.66913 0
    outer loop
      vertex 7.68566 -5.58396 1.15878
      vertex 6.35674 -7.05988 1.13884
      vertex 7.21076 -6.11139 0
    endloop
  endfacet
  facet normal -0.331414 -0.800103 0.5
    outer loop
      vertex 7.68566 -5.58396 1.15878
      vertex 7.21076 -6.11139 0
      vertex 9.5199 -7.06787 0
    endloop
  endfacet
  facet normal -0.331414 -0.800103 0.5
    outer loop
      vertex 8.67868 -3.864 4.56927
      vertex 7.68566 -5.58396 1.15878
      vertex 11.0665 -3.33406 7
    endloop
  endfacet
  facet normal -0.331414 -0.800103 0.5
    outer loop
      vertex 11.0665 -3.33406 7
      vertex 7.68566 -5.58396 1.15878
      vertex 9.5199 -7.06787 0
    endloop
  endfacet
  facet normal -0.331414 -0.800103 0.5
    outer loop
      vertex 9.11369 -2.52518 7
      vertex 8.67868 -3.864 4.56927
      vertex 11.0665 -3.33406 7
    endloop
  endfacet
  facet normal 0 0 -1
    outer loop
      vertex 8.22176 -4.6554 0
      vertex 10.1827 -5.46766 0
      vertex 7.68566 -5.58396 0
    endloop
  endfacet
  facet normal 0 0 -1
    outer loop
      vertex 7.68566 -5.58396 0
      vertex 10.1827 -5.46766 0
      vertex 9.5199 -7.06787 0
    endloop
  endfacet
  facet normal 0 0 -1
    outer loop
      vertex 7.68566 -5.58396 0
      vertex 9.5199 -7.06787 0
      vertex 7.21076 -6.11139 0
    endloop
  endfacet
  facet normal 0.331414 0.800103 -0.5
    outer loop
      vertex 8.22176 -4.6554 0
      vertex 8.67868 -3.864 1.56927
      vertex 10.1827 -5.46766 0
    endloop
  endfacet
  facet normal 0.331414 0.800103 -0.5
    outer loop
      vertex 10.1827 -5.46766 0
      vertex 8.67868 -3.864 1.56927
      vertex 9.2924 -1.97516 4.99859
    endloop
  endfacet
  facet normal 0.331414 0.800103 -0.5
    outer loop
      vertex 9.2924 -1.97516 4.99859
      vertex 9.41837 -0.776621 7
      vertex 10.1827 -5.46766 0
    endloop
  endfacet
  facet normal 0.331414 0.800103 -0.5
    outer loop
      vertex 10.1827 -5.46766 0
      vertex 9.41837 -0.776621 7
      vertex 11.7293 -1.73385 7
    endloop
  endfacet
  facet normal 0.866025 -0.5 0
    outer loop
      vertex 8.67868 -3.864 1.56927
      vertex 8.22176 -4.6554 0
      vertex 8.67868 -3.864 0
    endloop
  endfacet
  facet normal 0.951057 -0.309017 0
    outer loop
      vertex 8.67868 -3.864 1.56927
      vertex 8.67868 -3.864 0
      vertex 8.99621 -2.88675 0
    endloop
  endfacet
  facet normal 0.951057 -0.309017 0
    outer loop
      vertex 9.2924 -1.97516 4.99859
      vertex 8.67868 -3.864 1.56927
      vertex 9.2924 -1.97516 1.57892
    endloop
  endfacet
  facet normal 0.951057 -0.309017 0
    outer loop
      vertex 9.2924 -1.97516 1.57892
      vertex 8.67868 -3.864 1.56927
      vertex 8.99621 -2.88675 0
    endloop
  endfacet
  facet normal 1.92296e-016 -0.866025 0.5
    outer loop
      vertex 9.2924 -1.97516 1.57892
      vertex 8.99621 -2.88675 0
      vertex 11.5 -2.88675 0
    endloop
  endfacet
  facet normal 1.92296e-016 -0.866025 0.5
    outer loop
      vertex 9.5 0 5
      vertex 9.2924 -1.97516 1.57892
      vertex 11.5 1.1547 7
    endloop
  endfacet
  facet normal 1.92296e-016 -0.866025 0.5
    outer loop
      vertex 11.5 1.1547 7
      vertex 9.2924 -1.97516 1.57892
      vertex 11.5 -2.88675 0
    endloop
  endfacet
  facet normal 1.92296e-016 -0.866025 0.5
    outer loop
      vertex 9.37864 1.1547 7
      vertex 9.5 0 5
      vertex 11.5 1.1547 7
    endloop
  endfacet
  facet normal 0 0 -1
    outer loop
      vertex 9.37864 -1.1547 0
      vertex 11.5 -1.1547 0
      vertex 9.2924 -1.97516 0
    endloop
  endfacet
  facet normal 0 0 -1
    outer loop
      vertex 9.2924 -1.97516 0
      vertex 11.5 -1.1547 0
      vertex 11.5 -2.88675 0
    endloop
  endfacet
  facet normal 0 0 -1
    outer loop
      vertex 9.2924 -1.97516 0
      vertex 11.5 -2.88675 0
      vertex 8.99621 -2.88675 0
    endloop
  endfacet
  facet normal -1.92296e-016 0.866025 -0.5
    outer loop
      vertex 8.99621 2.88675 7
      vertex 11.5 2.88675 7
      vertex 9.2924 1.97516 5.42108
    endloop
  endfacet
  facet normal -1.92296e-016 0.866025 -0.5
    outer loop
      vertex 9.2924 1.97516 5.42108
      vertex 11.5 2.88675 7
      vertex 11.5 -1.1547 0
    endloop
  endfacet
  facet normal -1.92296e-016 0.866025 -0.5
    outer loop
      vertex 9.5 0 2
      vertex 11.5 -1.1547 0
      vertex 9.37864 -1.1547 0
    endloop
  endfacet
  facet normal -1.92296e-016 0.866025 -0.5
    outer loop
      vertex 9.2924 1.97516 5.42108
      vertex 11.5 -1.1547 0
      vertex 9.5 0 2
    endloop
  endfacet
  facet normal 0.994522 -0.104529 0
    outer loop
      vertex 9.5 0 2
      vertex 9.37864 -1.1547 0
      vertex 9.5 0 0
    endloop
  endfacet
  facet normal 0.994522 0.104529 0
    outer loop
      vertex 9.41837 0.776621 0
      vertex 9.2924 1.97516 2.00141
      vertex 9.2924 1.97516 5.42108
    endloop
  endfacet
  facet normal 0.994522 0.104529 0
    outer loop
      vertex 9.5 0 0
      vertex 9.41837 0.776621 0
      vertex 9.5 0 2
    endloop
  endfacet
  facet normal 0.994522 0.104529 0
    outer loop
      vertex 9.5 0 2
      vertex 9.41837 0.776621 0
      vertex 9.2924 1.97516 5.42108
    endloop
  endfacet
  facet normal 0.331414 -0.800103 0.5
    outer loop
      vertex 10.1827 5.46766 7
      vertex 8.22176 4.6554 7
      vertex 8.67868 3.864 5.43073
    endloop
  endfacet
  facet normal 0.331414 -0.800103 0.5
    outer loop
      vertex 9.2924 1.97516 2.00141
      vertex 10.1827 5.46766 7
      vertex 8.67868 3.864 5.43073
    endloop
  endfacet
  facet normal 0.331414 -0.800103 0.5
    outer loop
      vertex 9.2924 1.97516 2.00141
      vertex 9.41837 0.776621 0
      vertex 10.1827 5.46766 7
    endloop
  endfacet
  facet normal 0.331414 -0.800103 0.5
    outer loop
      vertex 9.41837 0.776621 0
      vertex 11.7293 1.73385 0
      vertex 10.1827 5.46766 7
    endloop
  endfacet
  facet normal 0 0 -1
    outer loop
      vertex 11.7293 1.73385 0
      vertex 9.41837 0.776621 0
      vertex 11.0665 3.33406 0
    endloop
  endfacet
  facet normal 0 0 -1
    outer loop
      vertex 11.0665 3.33406 0
      vertex 9.41837 0.776621 0
      vertex 9.2924 1.97516 0
    endloop
  endfacet
  facet normal 0 0 -1
    outer loop
      vertex 11.0665 3.33406 0
      vertex 9.2924 1.97516 0
      vertex 9.11369 2.52518 0
    endloop
  endfacet
  facet normal -0.331414 0.800103 -0.5
    outer loop
      vertex 7.21076 6.11139 7
      vertex 9.5199 7.06787 7
      vertex 7.68566 5.58396 5.84122
    endloop
  endfacet
  facet normal -0.331414 0.800103 -0.5
    outer loop
      vertex 7.68566 5.58396 5.84122
      vertex 9.5199 7.06787 7
      vertex 11.0665 3.33406 0
    endloop
  endfacet
  facet normal -0.331414 0.800103 -0.5
    outer loop
      vertex 8.67868 3.864 2.43073
      vertex 11.0665 3.33406 0
      vertex 9.11369 2.52518 0
    endloop
  endfacet
  facet normal -0.331414 0.800103 -0.5
    outer loop
      vertex 7.68566 5.58396 5.84122
      vertex 11.0665 3.33406 0
      vertex 8.67868 3.864 2.43073
    endloop
  endfacet
  facet normal 0.951057 0.309017 0
    outer loop
      vertex 9.11369 2.52518 0
      vertex 8.67868 3.864 0
      vertex 8.67868 3.864 2.43073
    endloop
  endfacet
  facet normal 0.866025 0.5 0
    outer loop
      vertex 8.41068 4.32819 0
      vertex 7.68566 5.58396 2.42595
      vertex 7.68566 5.58396 5.84122
    endloop
  endfacet
  facet normal 0.866025 0.5 0
    outer loop
      vertex 8.67868 3.864 0
      vertex 8.41068 4.32819 0
      vertex 8.67868 3.864 2.43073
    endloop
  endfacet
  facet normal 0.866025 0.5 0
    outer loop
      vertex 8.67868 3.864 2.43073
      vertex 8.41068 4.32819 0
      vertex 7.68566 5.58396 5.84122
    endloop
  endfacet
  facet normal 0.612372 -0.612372 0.5
    outer loop
      vertex 7.31523 8.94822 7
      vertex 5.81817 7.45117 7
      vertex 6.35674 7.05988 5.86116
    endloop
  endfacet
  facet normal 0.612372 -0.612372 0.5
    outer loop
      vertex 7.68566 5.58396 2.42595
      vertex 7.31523 8.94822 7
      vertex 6.35674 7.05988 5.86116
    endloop
  endfacet
  facet normal 0.612372 -0.612372 0.5
    outer loop
      vertex 7.68566 5.58396 2.42595
      vertex 8.41068 4.32819 0
      vertex 7.31523 8.94822 7
    endloop
  endfacet
  facet normal 0.612372 -0.612372 0.5
    outer loop
      vertex 8.41068 4.32819 0
      vertex 10.173 6.09049 0
      vertex 7.31523 8.94822 7
    endloop
  endfacet
  facet normal 0 0 -1
    outer loop
      vertex 10.173 6.09049 0
      vertex 8.41068 4.32819 0
      vertex 8.94822 7.31523 0
    endloop
  endfacet
  facet normal 0 0 -1
    outer loop
      vertex 8.94822 7.31523 0
      vertex 8.41068 4.32819 0
      vertex 7.68566 5.58396 0
    endloop
  endfacet
  facet normal 0 0 -1
    outer loop
      vertex 8.94822 7.31523 0
      vertex 7.68566 5.58396 0
      vertex 7.46359 5.8306 0
    endloop
  endfacet
  facet normal -0.612372 0.612372 -0.5
    outer loop
      vertex 4.33121 8.4137 7
      vertex 6.09049 10.173 7
      vertex 4.75 8.22724 6.25873
    endloop
  endfacet
  facet normal -0.612372 0.612372 -0.5
    outer loop
      vertex 4.75 8.22724 6.25873
      vertex 6.09049 10.173 7
      vertex 8.94822 7.31523 0
    endloop
  endfacet
  facet normal -0.612372 0.612372 -0.5
    outer loop
      vertex 6.35674 7.05988 2.86116
      vertex 8.94822 7.31523 0
      vertex 7.46359 5.8306 0
    endloop
  endfacet
  facet normal -0.612372 0.612372 -0.5
    outer loop
      vertex 4.75 8.22724 6.25873
      vertex 8.94822 7.31523 0
      vertex 6.35674 7.05988 2.86116
    endloop
  endfacet
  facet normal 0.743145 0.66913 0
    outer loop
      vertex 7.46359 5.8306 0
      vertex 6.35674 7.05988 0
      vertex 6.35674 7.05988 2.86116
    endloop
  endfacet
  facet normal 0.587785 0.809017 0
    outer loop
      vertex 4.75 8.22724 2.85226
      vertex 4.75 8.22724 6.25873
      vertex 6.12011 7.2318 0
    endloop
  endfacet
  facet normal 0.587785 0.809017 0
    outer loop
      vertex 6.12011 7.2318 0
      vertex 4.75 8.22724 6.25873
      vertex 6.35674 7.05988 2.86116
    endloop
  endfacet
  facet normal 0.587785 0.809017 0
    outer loop
      vertex 6.12011 7.2318 0
      vertex 6.35674 7.05988 2.86116
      vertex 6.35674 7.05988 0
    endloop
  endfacet
  facet normal 0.800103 -0.331414 0.5
    outer loop
      vertex 3.33406 11.0665 7
      vertex 2.52845 9.12159 7
      vertex 2.93566 9.03504 6.291
    endloop
  endfacet
  facet normal 0.800103 -0.331414 0.5
    outer loop
      vertex 4.75 8.22724 2.85226
      vertex 3.33406 11.0665 7
      vertex 2.93566 9.03504 6.291
    endloop
  endfacet
  facet normal 0.800103 -0.331414 0.5
    outer loop
      vertex 4.75 8.22724 2.85226
      vertex 6.12011 7.2318 0
      vertex 3.33406 11.0665 7
    endloop
  endfacet
  facet normal 0.800103 -0.331414 0.5
    outer loop
      vertex 6.12011 7.2318 0
      vertex 7.06787 9.5199 0
      vertex 3.33406 11.0665 7
    endloop
  endfacet
  facet normal 0 0 -1
    outer loop
      vertex 7.06787 9.5199 0
      vertex 6.12011 7.2318 0
      vertex 5.46766 10.1827 0
    endloop
  endfacet
  facet normal 0 0 -1
    outer loop
      vertex 5.46766 10.1827 0
      vertex 6.12011 7.2318 0
      vertex 4.75 8.22724 0
    endloop
  endfacet
  facet normal 0 0 -1
    outer loop
      vertex 5.46766 10.1827 0
      vertex 4.75 8.22724 0
      vertex 4.67205 8.26195 0
    endloop
  endfacet
  facet normal -0.800103 0.331414 -0.5
    outer loop
      vertex 0.788875 9.44796 7
      vertex 1.73385 11.7293 7
      vertex 0.99302 9.44796 6.67333
    endloop
  endfacet
  facet normal -0.800103 0.331414 -0.5
    outer loop
      vertex 0.99302 9.44796 6.67333
      vertex 1.73385 11.7293 7
      vertex 5.46766 10.1827 0
    endloop
  endfacet
  facet normal -0.800103 0.331414 -0.5
    outer loop
      vertex 2.93566 9.03504 3.291
      vertex 5.46766 10.1827 0
      vertex 4.67205 8.26195 0
    endloop
  endfacet
  facet normal -0.800103 0.331414 -0.5
    outer loop
      vertex 0.99302 9.44796 6.67333
      vertex 5.46766 10.1827 0
      vertex 2.93566 9.03504 3.291
    endloop
  endfacet
  facet normal 0.406737 0.913545 0
    outer loop
      vertex 4.67205 8.26195 0
      vertex 2.93566 9.03504 0
      vertex 2.93566 9.03504 3.291
    endloop
  endfacet
  facet normal 0.207912 0.978148 0
    outer loop
      vertex 0.99302 9.44796 3.28004
      vertex 0.99302 9.44796 6.67333
      vertex 2.88675 9.04543 0
    endloop
  endfacet
  facet normal 0.207912 0.978148 0
    outer loop
      vertex 2.88675 9.04543 0
      vertex 0.99302 9.44796 6.67333
      vertex 2.93566 9.03504 3.291
    endloop
  endfacet
  facet normal 0.207912 0.978148 0
    outer loop
      vertex 2.88675 9.04543 0
      vertex 2.93566 9.03504 3.291
      vertex 2.93566 9.03504 0
    endloop
  endfacet
  facet normal 0.866025 2.12108e-016 0.5
    outer loop
      vertex 2.88675 11.5 0
      vertex -1.1547 11.5 7
      vertex -1.1547 9.41359 7
    endloop
  endfacet
  facet normal 0.866025 2.12108e-016 0.5
    outer loop
      vertex 0.99302 9.44796 3.28004
      vertex 2.88675 11.5 0
      vertex -0.99302 9.44796 6.71996
    endloop
  endfacet
  facet normal 0.866025 2.12108e-016 0.5
    outer loop
      vertex -0.99302 9.44796 6.71996
      vertex 2.88675 11.5 0
      vertex -1.1547 9.41359 7
    endloop
  endfacet
  facet normal 0.866025 2.12108e-016 0.5
    outer loop
      vertex 2.88675 9.04543 0
      vertex 2.88675 11.5 0
      vertex 0.99302 9.44796 3.28004
    endloop
  endfacet
  facet normal 0 0 -1
    outer loop
      vertex 2.88675 9.04543 0
      vertex 1.1547 9.41359 0
      vertex 2.88675 11.5 0
    endloop
  endfacet
  facet normal 0 0 -1
    outer loop
      vertex 2.88675 11.5 0
      vertex 1.1547 9.41359 0
      vertex 1.1547 11.5 0
    endloop
  endfacet
  facet normal -0.866025 -2.12108e-016 -0.5
    outer loop
      vertex -2.88675 11.5 7
      vertex 1.1547 11.5 0
      vertex -2.88675 9.04543 7
    endloop
  endfacet
  facet normal -0.866025 -2.12108e-016 -0.5
    outer loop
      vertex 0.99302 9.44796 0.280039
      vertex 1.1547 11.5 0
      vertex 1.1547 9.41359 0
    endloop
  endfacet
  facet normal -0.866025 -2.12108e-016 -0.5
    outer loop
      vertex -0.99302 9.44796 3.71996
      vertex 1.1547 11.5 0
      vertex 0.99302 9.44796 0.280039
    endloop
  endfacet
  facet normal -0.866025 -2.12108e-016 -0.5
    outer loop
      vertex -2.88675 9.04543 7
      vertex 1.1547 11.5 0
      vertex -0.99302 9.44796 3.71996
    endloop
  endfacet
  facet normal 0.207912 0.978148 0
    outer loop
      vertex 1.1547 9.41359 0
      vertex 0.99302 9.44796 0
      vertex 0.99302 9.44796 0.280039
    endloop
  endfacet
  facet normal 0 1 0
    outer loop
      vertex -0.99302 9.44796 0.326674
      vertex -0.99302 9.44796 3.71996
      vertex -0.788875 9.44796 0
    endloop
  endfacet
  facet normal 0 1 0
    outer loop
      vertex -0.788875 9.44796 0
      vertex -0.99302 9.44796 3.71996
      vertex 0.99302 9.44796 0.280039
    endloop
  endfacet
  facet normal 0 1 0
    outer loop
      vertex -0.788875 9.44796 0
      vertex 0.99302 9.44796 0.280039
      vertex 0.99302 9.44796 0
    endloop
  endfacet
  facet normal 0.800103 0.331414 0.5
    outer loop
      vertex -1.73385 11.7293 0
      vertex -5.46766 10.1827 7
      vertex -4.67205 8.26195 7
    endloop
  endfacet
  facet normal 0.800103 0.331414 0.5
    outer loop
      vertex -0.99302 9.44796 0.326674
      vertex -1.73385 11.7293 0
      vertex -2.93566 9.03504 3.709
    endloop
  endfacet
  facet normal 0.800103 0.331414 0.5
    outer loop
      vertex -2.93566 9.03504 3.709
      vertex -1.73385 11.7293 0
      vertex -4.67205 8.26195 7
    endloop
  endfacet
  facet normal 0.800103 0.331414 0.5
    outer loop
      vertex -0.788875 9.44796 0
      vertex -1.73385 11.7293 0
      vertex -0.99302 9.44796 0.326674
    endloop
  endfacet
  facet normal 0 0 -1
    outer loop
      vertex -0.788875 9.44796 0
      vertex -0.99302 9.44796 0
      vertex -1.73385 11.7293 0
    endloop
  endfacet
  facet normal 0 0 -1
    outer loop
      vertex -1.73385 11.7293 0
      vertex -0.99302 9.44796 0
      vertex -2.52845 9.12159 0
    endloop
  endfacet
  facet normal 0 0 -1
    outer loop
      vertex -1.73385 11.7293 0
      vertex -2.52845 9.12159 0
      vertex -3.33406 11.0665 0
    endloop
  endfacet
  facet normal -0.800103 -0.331414 -0.5
    outer loop
      vertex -7.06787 9.5199 7
      vertex -3.33406 11.0665 0
      vertex -6.12011 7.2318 7
    endloop
  endfacet
  facet normal -0.800103 -0.331414 -0.5
    outer loop
      vertex -2.93566 9.03504 0.708995
      vertex -3.33406 11.0665 0
      vertex -2.52845 9.12159 0
    endloop
  endfacet
  facet normal -0.800103 -0.331414 -0.5
    outer loop
      vertex -4.75 8.22724 4.14774
      vertex -3.33406 11.0665 0
      vertex -2.93566 9.03504 0.708995
    endloop
  endfacet
  facet normal -0.800103 -0.331414 -0.5
    outer loop
      vertex -6.12011 7.2318 7
      vertex -3.33406 11.0665 0
      vertex -4.75 8.22724 4.14774
    endloop
  endfacet
  facet normal -0.207912 0.978148 0
    outer loop
      vertex -2.52845 9.12159 0
      vertex -2.93566 9.03504 0
      vertex -2.93566 9.03504 0.708995
    endloop
  endfacet
  facet normal -0.406737 0.913545 0
    outer loop
      vertex -4.75 8.22724 0.741267
      vertex -4.75 8.22724 4.14774
      vertex -4.33121 8.4137 0
    endloop
  endfacet
  facet normal -0.406737 0.913545 0
    outer loop
      vertex -4.33121 8.4137 0
      vertex -4.75 8.22724 4.14774
      vertex -2.93566 9.03504 0.708995
    endloop
  endfacet
  facet normal -0.406737 0.913545 0
    outer loop
      vertex -4.33121 8.4137 0
      vertex -2.93566 9.03504 0.708995
      vertex -2.93566 9.03504 0
    endloop
  endfacet
  facet normal 0.612372 0.612372 0.5
    outer loop
      vertex -8.94822 7.31523 7
      vertex -7.46359 5.8306 7
      vertex -6.09049 10.173 0
    endloop
  endfacet
  facet normal 0.612372 0.612372 0.5
    outer loop
      vertex -6.09049 10.173 0
      vertex -7.46359 5.8306 7
      vertex -6.35674 7.05988 4.13884
    endloop
  endfacet
  facet normal 0.612372 0.612372 0.5
    outer loop
      vertex -6.09049 10.173 0
      vertex -6.35674 7.05988 4.13884
      vertex -4.75 8.22724 0.741267
    endloop
  endfacet
  facet normal 0.612372 0.612372 0.5
    outer loop
      vertex -4.75 8.22724 0.741267
      vertex -4.33121 8.4137 0
      vertex -6.09049 10.173 0
    endloop
  endfacet
  facet normal 0 0 -1
    outer loop
      vertex -4.33121 8.4137 0
      vertex -4.75 8.22724 0
      vertex -6.09049 10.173 0
    endloop
  endfacet
  facet normal 0 0 -1
    outer loop
      vertex -6.09049 10.173 0
      vertex -4.75 8.22724 0
      vertex -5.81817 7.45117 0
    endloop
  endfacet
  facet normal 0 0 -1
    outer loop
      vertex -6.09049 10.173 0
      vertex -5.81817 7.45117 0
      vertex -7.31523 8.94822 0
    endloop
  endfacet
  facet normal -0.612372 -0.612372 -0.5
    outer loop
      vertex -8.41068 4.32819 7
      vertex -10.173 6.09049 7
      vertex -7.31523 8.94822 0
    endloop
  endfacet
  facet normal -0.612372 -0.612372 -0.5
    outer loop
      vertex -7.68566 5.58396 4.57405
      vertex -8.41068 4.32819 7
      vertex -7.31523 8.94822 0
    endloop
  endfacet
  facet normal -0.612372 -0.612372 -0.5
    outer loop
      vertex -5.81817 7.45117 0
      vertex -6.35674 7.05988 1.13884
      vertex -7.31523 8.94822 0
    endloop
  endfacet
  facet normal -0.612372 -0.612372 -0.5
    outer loop
      vertex -6.35674 7.05988 1.13884
      vertex -7.68566 5.58396 4.57405
      vertex -7.31523 8.94822 0
    endloop
  endfacet
  facet normal -0.587785 0.809017 0
    outer loop
      vertex -5.81817 7.45117 0
      vertex -6.35674 7.05988 0
      vertex -6.35674 7.05988 1.13884
    endloop
  endfacet
  facet normal -0.743145 0.66913 0
    outer loop
      vertex -7.68566 5.58396 1.15878
      vertex -7.68566 5.58396 4.57405
      vertex -7.21076 6.11139 0
    endloop
  endfacet
  facet normal -0.743145 0.66913 0
    outer loop
      vertex -7.21076 6.11139 0
      vertex -7.68566 5.58396 4.57405
      vertex -6.35674 7.05988 1.13884
    endloop
  endfacet
  facet normal -0.743145 0.66913 0
    outer loop
      vertex -7.21076 6.11139 0
      vertex -6.35674 7.05988 1.13884
      vertex -6.35674 7.05988 0
    endloop
  endfacet
  facet normal 0.331414 0.800103 0.5
    outer loop
      vertex -11.0665 3.33406 7
      vertex -9.11369 2.52518 7
      vertex -9.5199 7.06787 0
    endloop
  endfacet
  facet normal 0.331414 0.800103 0.5
    outer loop
      vertex -9.5199 7.06787 0
      vertex -9.11369 2.52518 7
      vertex -8.67868 3.864 4.56927
    endloop
  endfacet
  facet normal 0.331414 0.800103 0.5
    outer loop
      vertex -9.5199 7.06787 0
      vertex -8.67868 3.864 4.56927
      vertex -7.68566 5.58396 1.15878
    endloop
  endfacet
  facet normal 0.331414 0.800103 0.5
    outer loop
      vertex -7.68566 5.58396 1.15878
      vertex -7.21076 6.11139 0
      vertex -9.5199 7.06787 0
    endloop
  endfacet
  facet normal 0 0 -1
    outer loop
      vertex -7.21076 6.11139 0
      vertex -7.68566 5.58396 0
      vertex -9.5199 7.06787 0
    endloop
  endfacet
  facet normal 0 0 -1
    outer loop
      vertex -9.5199 7.06787 0
      vertex -7.68566 5.58396 0
      vertex -8.22176 4.6554 0
    endloop
  endfacet
  facet normal 0 0 -1
    outer loop
      vertex -9.5199 7.06787 0
      vertex -8.22176 4.6554 0
      vertex -10.1827 5.46766 0
    endloop
  endfacet
  facet normal -0.331414 -0.800103 -0.5
    outer loop
      vertex -9.41837 0.776621 7
      vertex -11.7293 1.73385 7
      vertex -10.1827 5.46766 0
    endloop
  endfacet
  facet normal -0.331414 -0.800103 -0.5
    outer loop
      vertex -9.2924 1.97516 4.99859
      vertex -9.41837 0.776621 7
      vertex -10.1827 5.46766 0
    endloop
  endfacet
  facet normal -0.331414 -0.800103 -0.5
    outer loop
      vertex -8.22176 4.6554 0
      vertex -8.67868 3.864 1.56927
      vertex -10.1827 5.46766 0
    endloop
  endfacet
  facet normal -0.331414 -0.800103 -0.5
    outer loop
      vertex -8.67868 3.864 1.56927
      vertex -9.2924 1.97516 4.99859
      vertex -10.1827 5.46766 0
    endloop
  endfacet
  facet normal -0.866025 0.5 0
    outer loop
      vertex -8.22176 4.6554 0
      vertex -8.67868 3.864 0
      vertex -8.67868 3.864 1.56927
    endloop
  endfacet
  facet normal -0.951057 0.309017 0
    outer loop
      vertex -9.2924 1.97516 1.57892
      vertex -9.2924 1.97516 4.99859
      vertex -8.99621 2.88675 0
    endloop
  endfacet
  facet normal -0.951057 0.309017 0
    outer loop
      vertex -8.99621 2.88675 0
      vertex -9.2924 1.97516 4.99859
      vertex -8.67868 3.864 1.56927
    endloop
  endfacet
  facet normal -0.951057 0.309017 0
    outer loop
      vertex -8.99621 2.88675 0
      vertex -8.67868 3.864 1.56927
      vertex -8.67868 3.864 0
    endloop
  endfacet
  facet normal -1.92296e-016 0.866025 0.5
    outer loop
      vertex -11.5 2.88675 0
      vertex -11.5 -1.1547 7
      vertex -8.99621 2.88675 0
    endloop
  endfacet
  facet normal -1.92296e-016 0.866025 0.5
    outer loop
      vertex -9.5 0 5
      vertex -11.5 -1.1547 7
      vertex -9.37864 -1.1547 7
    endloop
  endfacet
  facet normal -1.92296e-016 0.866025 0.5
    outer loop
      vertex -9.2924 1.97516 1.57892
      vertex -11.5 -1.1547 7
      vertex -9.5 0 5
    endloop
  endfacet
  facet normal -1.92296e-016 0.866025 0.5
    outer loop
      vertex -8.99621 2.88675 0
      vertex -11.5 -1.1547 7
      vertex -9.2924 1.97516 1.57892
    endloop
  endfacet
  facet normal 0 0 -1
    outer loop
      vertex -9.2924 1.97516 0
      vertex -9.37864 1.1547 0
      vertex -11.5 1.1547 0
    endloop
  endfacet
  facet normal 0 0 -1
    outer loop
      vertex -9.2924 1.97516 0
      vertex -11.5 1.1547 0
      vertex -8.99621 2.88675 0
    endloop
  endfacet
  facet normal 0 0 -1
    outer loop
      vertex -11.5 1.1547 0
      vertex -11.5 2.88675 0
      vertex -8.99621 2.88675 0
    endloop
  endfacet
  facet normal 1.92296e-016 -0.866025 -0.5
    outer loop
      vertex -11.5 -2.88675 7
      vertex -11.5 1.1547 0
      vertex -9.37864 1.1547 0
    endloop
  endfacet
  facet normal 1.92296e-016 -0.866025 -0.5
    outer loop
      vertex -9.2924 -1.97516 5.42108
      vertex -11.5 -2.88675 7
      vertex -9.5 0 2
    endloop
  endfacet
  facet normal 1.92296e-016 -0.866025 -0.5
    outer loop
      vertex -9.5 0 2
      vertex -11.5 -2.88675 7
      vertex -9.37864 1.1547 0
    endloop
  endfacet
  facet normal 1.92296e-016 -0.866025 -0.5
    outer loop
      vertex -8.99621 -2.88675 7
      vertex -11.5 -2.88675 7
      vertex -9.2924 -1.97516 5.42108
    endloop
  endfacet
  facet normal -0.994522 0.104529 0
    outer loop
      vertex -9.37864 1.1547 0
      vertex -9.5 0 0
      vertex -9.5 0 2
    endloop
  endfacet
  facet normal 0.980785 0.19509 0
    outer loop
      vertex -5.05 0 7
      vertex -4.66559 -1.93255 7
      vertex -4.66559 -1.93255 0
    endloop
  endfacet
  facet normal 0.980785 0.19509 0
    outer loop
      vertex -5.05 0 0
      vertex -5.05 0 7
      vertex -4.66559 -1.93255 0
    endloop
  endfacet
  facet normal 0.980785 -0.19509 0
    outer loop
      vertex -4.66559 1.93255 0
      vertex -4.66559 1.93255 7
      vertex -5.05 0 7
    endloop
  endfacet
  facet normal 0.980785 -0.19509 0
    outer loop
      vertex -5.05 0 0
      vertex -4.66559 1.93255 0
      vertex -5.05 0 7
    endloop
  endfacet
  facet normal 0.831469 -0.55557 0
    outer loop
      vertex -3.57089 3.57089 0
      vertex -3.57089 3.57089 7
      vertex -4.66559 1.93255 7
    endloop
  endfacet
  facet normal 0.831469 -0.55557 0
    outer loop
      vertex -4.66559 1.93255 0
      vertex -3.57089 3.57089 0
      vertex -4.66559 1.93255 7
    endloop
  endfacet
  facet normal 0.55557 -0.831469 0
    outer loop
      vertex -1.93255 4.66559 0
      vertex -1.93255 4.66559 7
      vertex -3.57089 3.57089 7
    endloop
  endfacet
  facet normal 0.55557 -0.831469 0
    outer loop
      vertex -3.57089 3.57089 0
      vertex -1.93255 4.66559 0
      vertex -3.57089 3.57089 7
    endloop
  endfacet
  facet normal 0.19509 -0.980785 0
    outer loop
      vertex 0 5.05 0
      vertex 0 5.05 7
      vertex -1.93255 4.66559 7
    endloop
  endfacet
  facet normal 0.19509 -0.980785 0
    outer loop
      vertex -1.93255 4.66559 0
      vertex 0 5.05 0
      vertex -1.93255 4.66559 7
    endloop
  endfacet
  facet normal -0.19509 -0.980785 0
    outer loop
      vertex 1.93255 4.66559 0
      vertex 1.93255 4.66559 7
      vertex 0 5.05 7
    endloop
  endfacet
  facet normal -0.19509 -0.980785 0
    outer loop
      vertex 0 5.05 0
      vertex 1.93255 4.66559 0
      vertex 0 5.05 7
    endloop
  endfacet
  facet normal -0.55557 -0.831469 0
    outer loop
      vertex 3.57089 3.57089 0
      vertex 3.57089 3.57089 7
      vertex 1.93255 4.66559 7
    endloop
  endfacet
  facet normal -0.55557 -0.831469 0
    outer loop
      vertex 1.93255 4.66559 0
      vertex 3.57089 3.57089 0
      vertex 1.93255 4.66559 7
    endloop
  endfacet
  facet normal -0.831469 -0.55557 0
    outer loop
      vertex 4.66559 1.93255 7
      vertex 3.57089 3.57089 7
      vertex 4.66559 1.93255 0
    endloop
  endfacet
  facet normal -0.831469 -0.55557 0
    outer loop
      vertex 4.66559 1.93255 0
      vertex 3.57089 3.57089 7
      vertex 3.57089 3.57089 0
    endloop
  endfacet
  facet normal -0.980785 -0.19509 0
    outer loop
      vertex 5.05 0 7
      vertex 4.66559 1.93255 7
      vertex 5.05 0 0
    endloop
  endfacet
  facet normal -0.980785 -0.19509 0
    outer loop
      vertex 5.05 0 0
      vertex 4.66559 1.93255 7
      vertex 4.66559 1.93255 0
    endloop
  endfacet
  facet normal -0.980785 0.19509 0
    outer loop
      vertex 5.05 0 7
      vertex 5.05 0 0
      vertex 4.66559 -1.93255 7
    endloop
  endfacet
  facet normal -0.980785 0.19509 0
    outer loop
      vertex 4.66559 -1.93255 7
      vertex 5.05 0 0
      vertex 4.66559 -1.93255 0
    endloop
  endfacet
  facet normal -0.831469 0.55557 0
    outer loop
      vertex 4.66559 -1.93255 7
      vertex 4.66559 -1.93255 0
      vertex 3.57089 -3.57089 7
    endloop
  endfacet
  facet normal -0.831469 0.55557 0
    outer loop
      vertex 3.57089 -3.57089 7
      vertex 4.66559 -1.93255 0
      vertex 3.57089 -3.57089 0
    endloop
  endfacet
  facet normal -0.55557 0.831469 0
    outer loop
      vertex 3.57089 -3.57089 7
      vertex 3.57089 -3.57089 0
      vertex 1.93255 -4.66559 7
    endloop
  endfacet
  facet normal -0.55557 0.831469 0
    outer loop
      vertex 1.93255 -4.66559 7
      vertex 3.57089 -3.57089 0
      vertex 1.93255 -4.66559 0
    endloop
  endfacet
  facet normal -0.19509 0.980785 0
    outer loop
      vertex 1.93255 -4.66559 7
      vertex 1.93255 -4.66559 0
      vertex 0 -5.05 7
    endloop
  endfacet
  facet normal -0.19509 0.980785 0
    outer loop
      vertex 0 -5.05 7
      vertex 1.93255 -4.66559 0
      vertex 0 -5.05 0
    endloop
  endfacet
  facet normal 0.19509 0.980785 0
    outer loop
      vertex 0 -5.05 7
      vertex 0 -5.05 0
      vertex -1.93255 -4.66559 7
    endloop
  endfacet
  facet normal 0.19509 0.980785 0
    outer loop
      vertex -1.93255 -4.66559 7
      vertex 0 -5.05 0
      vertex -1.93255 -4.66559 0
    endloop
  endfacet
  facet normal 0.55557 0.831469 0
    outer loop
      vertex -1.93255 -4.66559 7
      vertex -1.93255 -4.66559 0
      vertex -3.57089 -3.57089 7
    endloop
  endfacet
  facet normal 0.55557 0.831469 0
    outer loop
      vertex -3.57089 -3.57089 7
      vertex -1.93255 -4.66559 0
      vertex -3.57089 -3.57089 0
    endloop
  endfacet
  facet normal 0.831469 0.55557 0
    outer loop
      vertex -4.66559 -1.93255 7
      vertex -3.57089 -3.57089 7
      vertex -3.57089 -3.57089 0
    endloop
  endfacet
  facet normal 0.831469 0.55557 0
    outer loop
      vertex -4.66559 -1.93255 0
      vertex -4.66559 -1.93255 7
      vertex -3.57089 -3.57089 0
    endloop
  endfacet
  facet normal 0 0 1
    outer loop
      vertex -11.5 -2.88675 7
      vertex -8.99621 -2.88675 7
      vertex -9.2924 -1.97516 7
    endloop
  endfacet
  facet normal 0 0 1
    outer loop
      vertex -9.37864 -1.1547 7
      vertex -11.5 -2.88675 7
      vertex -9.2924 -1.97516 7
    endloop
  endfacet
  facet normal 0 0 1
    outer loop
      vertex -9.37864 -1.1547 7
      vertex -11.5 -1.1547 7
      vertex -11.5 -2.88675 7
    endloop
  endfacet
  facet normal -0.994522 0.104529 0
    outer loop
      vertex -9.5 0 5
      vertex -9.5 0 7
      vertex -9.2924 1.97516 1.57892
    endloop
  endfacet
  facet normal -0.994522 0.104529 0
    outer loop
      vertex -9.2924 1.97516 1.57892
      vertex -9.5 0 7
      vertex -9.41837 0.776621 7
    endloop
  endfacet
  facet normal -0.994522 0.104529 0
    outer loop
      vertex -9.2924 1.97516 1.57892
      vertex -9.41837 0.776621 7
      vertex -9.2924 1.97516 4.99859
    endloop
  endfacet
  facet normal 0 0 1
    outer loop
      vertex -9.41837 0.776621 7
      vertex -9.2924 1.97516 7
      vertex -11.0665 3.33406 7
    endloop
  endfacet
  facet normal 0 0 1
    outer loop
      vertex -11.0665 3.33406 7
      vertex -9.2924 1.97516 7
      vertex -9.11369 2.52518 7
    endloop
  endfacet
  facet normal 0 0 1
    outer loop
      vertex -9.41837 0.776621 7
      vertex -11.0665 3.33406 7
      vertex -11.7293 1.73385 7
    endloop
  endfacet
  facet normal -0.951057 0.309017 0
    outer loop
      vertex -8.67868 3.864 4.56927
      vertex -9.11369 2.52518 7
      vertex -8.67868 3.864 7
    endloop
  endfacet
  facet normal -0.866025 0.5 0
    outer loop
      vertex -8.67868 3.864 4.56927
      vertex -8.67868 3.864 7
      vertex -7.68566 5.58396 1.15878
    endloop
  endfacet
  facet normal -0.866025 0.5 0
    outer loop
      vertex -7.68566 5.58396 1.15878
      vertex -8.67868 3.864 7
      vertex -8.41068 4.32819 7
    endloop
  endfacet
  facet normal -0.866025 0.5 0
    outer loop
      vertex -7.68566 5.58396 1.15878
      vertex -8.41068 4.32819 7
      vertex -7.68566 5.58396 4.57405
    endloop
  endfacet
  facet normal 0 0 1
    outer loop
      vertex -8.41068 4.32819 7
      vertex -7.68566 5.58396 7
      vertex -8.94822 7.31523 7
    endloop
  endfacet
  facet normal 0 0 1
    outer loop
      vertex -8.94822 7.31523 7
      vertex -7.68566 5.58396 7
      vertex -7.46359 5.8306 7
    endloop
  endfacet
  facet normal 0 0 1
    outer loop
      vertex -8.41068 4.32819 7
      vertex -8.94822 7.31523 7
      vertex -10.173 6.09049 7
    endloop
  endfacet
  facet normal -0.743145 0.66913 0
    outer loop
      vertex -6.35674 7.05988 4.13884
      vertex -7.46359 5.8306 7
      vertex -6.35674 7.05988 7
    endloop
  endfacet
  facet normal -0.587785 0.809017 0
    outer loop
      vertex -6.35674 7.05988 4.13884
      vertex -6.35674 7.05988 7
      vertex -4.75 8.22724 0.741267
    endloop
  endfacet
  facet normal -0.587785 0.809017 0
    outer loop
      vertex -4.75 8.22724 0.741267
      vertex -6.35674 7.05988 7
      vertex -6.12011 7.2318 7
    endloop
  endfacet
  facet normal -0.587785 0.809017 0
    outer loop
      vertex -4.75 8.22724 0.741267
      vertex -6.12011 7.2318 7
      vertex -4.75 8.22724 4.14774
    endloop
  endfacet
  facet normal 0 0 1
    outer loop
      vertex -6.12011 7.2318 7
      vertex -4.75 8.22724 7
      vertex -5.46766 10.1827 7
    endloop
  endfacet
  facet normal 0 0 1
    outer loop
      vertex -5.46766 10.1827 7
      vertex -4.75 8.22724 7
      vertex -4.67205 8.26195 7
    endloop
  endfacet
  facet normal 0 0 1
    outer loop
      vertex -6.12011 7.2318 7
      vertex -5.46766 10.1827 7
      vertex -7.06787 9.5199 7
    endloop
  endfacet
  facet normal -0.406737 0.913545 0
    outer loop
      vertex -2.93566 9.03504 3.709
      vertex -4.67205 8.26195 7
      vertex -2.93566 9.03504 7
    endloop
  endfacet
  facet normal -0.207912 0.978148 0
    outer loop
      vertex -2.93566 9.03504 3.709
      vertex -2.93566 9.03504 7
      vertex -0.99302 9.44796 0.326674
    endloop
  endfacet
  facet normal -0.207912 0.978148 0
    outer loop
      vertex -0.99302 9.44796 0.326674
      vertex -2.93566 9.03504 7
      vertex -2.88675 9.04543 7
    endloop
  endfacet
  facet normal -0.207912 0.978148 0
    outer loop
      vertex -0.99302 9.44796 0.326674
      vertex -2.88675 9.04543 7
      vertex -0.99302 9.44796 3.71996
    endloop
  endfacet
  facet normal 0 0 1
    outer loop
      vertex -2.88675 9.04543 7
      vertex -1.1547 9.41359 7
      vertex -1.1547 11.5 7
    endloop
  endfacet
  facet normal 0 0 1
    outer loop
      vertex -2.88675 11.5 7
      vertex -2.88675 9.04543 7
      vertex -1.1547 11.5 7
    endloop
  endfacet
  facet normal -0.207912 0.978148 0
    outer loop
      vertex -0.99302 9.44796 6.71996
      vertex -1.1547 9.41359 7
      vertex -0.99302 9.44796 7
    endloop
  endfacet
  facet normal 0 1 0
    outer loop
      vertex -0.99302 9.44796 6.71996
      vertex -0.99302 9.44796 7
      vertex 0.99302 9.44796 3.28004
    endloop
  endfacet
  facet normal 0 1 0
    outer loop
      vertex 0.99302 9.44796 3.28004
      vertex -0.99302 9.44796 7
      vertex 0.788875 9.44796 7
    endloop
  endfacet
  facet normal 0 1 0
    outer loop
      vertex 0.99302 9.44796 3.28004
      vertex 0.788875 9.44796 7
      vertex 0.99302 9.44796 6.67333
    endloop
  endfacet
  facet normal 0 0 1
    outer loop
      vertex 0.99302 9.44796 7
      vertex 2.52845 9.12159 7
      vertex 3.33406 11.0665 7
    endloop
  endfacet
  facet normal 0 0 1
    outer loop
      vertex 0.788875 9.44796 7
      vertex 0.99302 9.44796 7
      vertex 1.73385 11.7293 7
    endloop
  endfacet
  facet normal 0 0 1
    outer loop
      vertex 1.73385 11.7293 7
      vertex 0.99302 9.44796 7
      vertex 3.33406 11.0665 7
    endloop
  endfacet
  facet normal 0.207912 0.978148 0
    outer loop
      vertex 2.93566 9.03504 6.291
      vertex 2.52845 9.12159 7
      vertex 2.93566 9.03504 7
    endloop
  endfacet
  facet normal 0.406737 0.913545 0
    outer loop
      vertex 2.93566 9.03504 6.291
      vertex 2.93566 9.03504 7
      vertex 4.75 8.22724 2.85226
    endloop
  endfacet
  facet normal 0.406737 0.913545 0
    outer loop
      vertex 4.75 8.22724 2.85226
      vertex 2.93566 9.03504 7
      vertex 4.33121 8.4137 7
    endloop
  endfacet
  facet normal 0.406737 0.913545 0
    outer loop
      vertex 4.75 8.22724 2.85226
      vertex 4.33121 8.4137 7
      vertex 4.75 8.22724 6.25873
    endloop
  endfacet
  facet normal 0 0 1
    outer loop
      vertex 4.75 8.22724 7
      vertex 5.81817 7.45117 7
      vertex 7.31523 8.94822 7
    endloop
  endfacet
  facet normal 0 0 1
    outer loop
      vertex 4.33121 8.4137 7
      vertex 4.75 8.22724 7
      vertex 6.09049 10.173 7
    endloop
  endfacet
  facet normal 0 0 1
    outer loop
      vertex 6.09049 10.173 7
      vertex 4.75 8.22724 7
      vertex 7.31523 8.94822 7
    endloop
  endfacet
  facet normal 0.587785 0.809017 0
    outer loop
      vertex 6.35674 7.05988 5.86116
      vertex 5.81817 7.45117 7
      vertex 6.35674 7.05988 7
    endloop
  endfacet
  facet normal 0.743145 0.66913 0
    outer loop
      vertex 7.68566 5.58396 2.42595
      vertex 6.35674 7.05988 5.86116
      vertex 6.35674 7.05988 7
    endloop
  endfacet
  facet normal 0.743145 0.66913 0
    outer loop
      vertex 7.68566 5.58396 5.84122
      vertex 7.68566 5.58396 2.42595
      vertex 7.21076 6.11139 7
    endloop
  endfacet
  facet normal 0.743145 0.66913 0
    outer loop
      vertex 7.21076 6.11139 7
      vertex 7.68566 5.58396 2.42595
      vertex 6.35674 7.05988 7
    endloop
  endfacet
  facet normal 0 0 1
    outer loop
      vertex 7.68566 5.58396 7
      vertex 8.22176 4.6554 7
      vertex 10.1827 5.46766 7
    endloop
  endfacet
  facet normal 0 0 1
    outer loop
      vertex 7.21076 6.11139 7
      vertex 7.68566 5.58396 7
      vertex 9.5199 7.06787 7
    endloop
  endfacet
  facet normal 0 0 1
    outer loop
      vertex 9.5199 7.06787 7
      vertex 7.68566 5.58396 7
      vertex 10.1827 5.46766 7
    endloop
  endfacet
  facet normal 0.866025 0.5 0
    outer loop
      vertex 8.67868 3.864 5.43073
      vertex 8.22176 4.6554 7
      vertex 8.67868 3.864 7
    endloop
  endfacet
  facet normal 0.951057 0.309017 0
    outer loop
      vertex 9.2924 1.97516 2.00141
      vertex 8.67868 3.864 5.43073
      vertex 8.67868 3.864 7
    endloop
  endfacet
  facet normal 0.951057 0.309017 0
    outer loop
      vertex 9.2924 1.97516 5.42108
      vertex 9.2924 1.97516 2.00141
      vertex 8.99621 2.88675 7
    endloop
  endfacet
  facet normal 0.951057 0.309017 0
    outer loop
      vertex 8.99621 2.88675 7
      vertex 9.2924 1.97516 2.00141
      vertex 8.67868 3.864 7
    endloop
  endfacet
  facet normal 0 0 1
    outer loop
      vertex 9.2924 1.97516 7
      vertex 9.37864 1.1547 7
      vertex 11.5 1.1547 7
    endloop
  endfacet
  facet normal 0 0 1
    outer loop
      vertex 8.99621 2.88675 7
      vertex 9.2924 1.97516 7
      vertex 11.5 2.88675 7
    endloop
  endfacet
  facet normal 0 0 1
    outer loop
      vertex 11.5 2.88675 7
      vertex 9.2924 1.97516 7
      vertex 11.5 1.1547 7
    endloop
  endfacet
  facet normal 0.994522 0.104529 0
    outer loop
      vertex 9.5 0 5
      vertex 9.37864 1.1547 7
      vertex 9.5 0 7
    endloop
  endfacet
  facet normal 0.994522 -0.104529 0
    outer loop
      vertex 9.2924 -1.97516 4.99859
      vertex 9.2924 -1.97516 1.57892
      vertex 9.5 0 5
    endloop
  endfacet
  facet normal 0.994522 -0.104529 0
    outer loop
      vertex 9.41837 -0.776621 7
      vertex 9.2924 -1.97516 4.99859
      vertex 9.5 0 7
    endloop
  endfacet
  facet normal 0.994522 -0.104529 0
    outer loop
      vertex 9.5 0 7
      vertex 9.2924 -1.97516 4.99859
      vertex 9.5 0 5
    endloop
  endfacet
  facet normal 0 0 1
    outer loop
      vertex 11.0665 -3.33406 7
      vertex 11.7293 -1.73385 7
      vertex 9.41837 -0.776621 7
    endloop
  endfacet
  facet normal 0 0 1
    outer loop
      vertex 9.11369 -2.52518 7
      vertex 11.0665 -3.33406 7
      vertex 9.2924 -1.97516 7
    endloop
  endfacet
  facet normal 0 0 1
    outer loop
      vertex 9.2924 -1.97516 7
      vertex 11.0665 -3.33406 7
      vertex 9.41837 -0.776621 7
    endloop
  endfacet
  facet normal 0.951057 -0.309017 0
    outer loop
      vertex 8.67868 -3.864 7
      vertex 8.67868 -3.864 4.56927
      vertex 9.11369 -2.52518 7
    endloop
  endfacet
  facet normal 0.866025 -0.5 0
    outer loop
      vertex 7.68566 -5.58396 4.57405
      vertex 7.68566 -5.58396 1.15878
      vertex 8.67868 -3.864 4.56927
    endloop
  endfacet
  facet normal 0.866025 -0.5 0
    outer loop
      vertex 8.41068 -4.32819 7
      vertex 7.68566 -5.58396 4.57405
      vertex 8.67868 -3.864 7
    endloop
  endfacet
  facet normal 0.866025 -0.5 0
    outer loop
      vertex 8.67868 -3.864 7
      vertex 7.68566 -5.58396 4.57405
      vertex 8.67868 -3.864 4.56927
    endloop
  endfacet
  facet normal 0 0 1
    outer loop
      vertex 8.94822 -7.31523 7
      vertex 10.173 -6.09049 7
      vertex 8.41068 -4.32819 7
    endloop
  endfacet
  facet normal 0 0 1
    outer loop
      vertex 7.46359 -5.8306 7
      vertex 8.94822 -7.31523 7
      vertex 7.68566 -5.58396 7
    endloop
  endfacet
  facet normal 0 0 1
    outer loop
      vertex 7.68566 -5.58396 7
      vertex 8.94822 -7.31523 7
      vertex 8.41068 -4.32819 7
    endloop
  endfacet
  facet normal 0.743145 -0.66913 0
    outer loop
      vertex 6.35674 -7.05988 7
      vertex 6.35674 -7.05988 4.13884
      vertex 7.46359 -5.8306 7
    endloop
  endfacet
  facet normal 0.587785 -0.809017 0
    outer loop
      vertex 4.75 -8.22724 4.14774
      vertex 4.75 -8.22724 0.741267
      vertex 6.35674 -7.05988 4.13884
    endloop
  endfacet
  facet normal 0.587785 -0.809017 0
    outer loop
      vertex 6.12011 -7.2318 7
      vertex 4.75 -8.22724 4.14774
      vertex 6.35674 -7.05988 7
    endloop
  endfacet
  facet normal 0.587785 -0.809017 0
    outer loop
      vertex 6.35674 -7.05988 7
      vertex 4.75 -8.22724 4.14774
      vertex 6.35674 -7.05988 4.13884
    endloop
  endfacet
  facet normal 0 0 1
    outer loop
      vertex 5.46766 -10.1827 7
      vertex 7.06787 -9.5199 7
      vertex 6.12011 -7.2318 7
    endloop
  endfacet
  facet normal 0 0 1
    outer loop
      vertex 4.67205 -8.26195 7
      vertex 5.46766 -10.1827 7
      vertex 4.75 -8.22724 7
    endloop
  endfacet
  facet normal 0 0 1
    outer loop
      vertex 4.75 -8.22724 7
      vertex 5.46766 -10.1827 7
      vertex 6.12011 -7.2318 7
    endloop
  endfacet
  facet normal 0.406737 -0.913545 0
    outer loop
      vertex 2.93566 -9.03504 7
      vertex 2.93566 -9.03504 3.709
      vertex 4.67205 -8.26195 7
    endloop
  endfacet
  facet normal 0.207912 -0.978148 0
    outer loop
      vertex 0.99302 -9.44796 3.71996
      vertex 0.99302 -9.44796 0.326674
      vertex 2.93566 -9.03504 3.709
    endloop
  endfacet
  facet normal 0.207912 -0.978148 0
    outer loop
      vertex 2.88675 -9.04543 7
      vertex 0.99302 -9.44796 3.71996
      vertex 2.93566 -9.03504 7
    endloop
  endfacet
  facet normal 0.207912 -0.978148 0
    outer loop
      vertex 2.93566 -9.03504 7
      vertex 0.99302 -9.44796 3.71996
      vertex 2.93566 -9.03504 3.709
    endloop
  endfacet
  facet normal 0 0 1
    outer loop
      vertex 1.1547 -11.5 7
      vertex 2.88675 -11.5 7
      vertex 2.88675 -9.04543 7
    endloop
  endfacet
  facet normal 0 0 1
    outer loop
      vertex 1.1547 -9.41359 7
      vertex 1.1547 -11.5 7
      vertex 2.88675 -9.04543 7
    endloop
  endfacet
  facet normal 0.207912 -0.978148 0
    outer loop
      vertex 0.99302 -9.44796 7
      vertex 0.99302 -9.44796 6.71996
      vertex 1.1547 -9.41359 7
    endloop
  endfacet
  facet normal 0 -1 0
    outer loop
      vertex -0.99302 -9.44796 6.67333
      vertex -0.99302 -9.44796 3.28004
      vertex 0.99302 -9.44796 6.71996
    endloop
  endfacet
  facet normal 0 -1 0
    outer loop
      vertex -0.788875 -9.44796 7
      vertex -0.99302 -9.44796 6.67333
      vertex 0.99302 -9.44796 7
    endloop
  endfacet
  facet normal 0 -1 0
    outer loop
      vertex 0.99302 -9.44796 7
      vertex -0.99302 -9.44796 6.67333
      vertex 0.99302 -9.44796 6.71996
    endloop
  endfacet
  facet normal 0 0 1
    outer loop
      vertex -1.73385 -11.7293 7
      vertex -0.788875 -9.44796 7
      vertex -0.99302 -9.44796 7
    endloop
  endfacet
  facet normal 0 0 1
    outer loop
      vertex -2.52845 -9.12159 7
      vertex -1.73385 -11.7293 7
      vertex -0.99302 -9.44796 7
    endloop
  endfacet
  facet normal 0 0 1
    outer loop
      vertex -2.52845 -9.12159 7
      vertex -3.33406 -11.0665 7
      vertex -1.73385 -11.7293 7
    endloop
  endfacet
  facet normal -0.207912 -0.978148 0
    outer loop
      vertex -2.93566 -9.03504 7
      vertex -2.93566 -9.03504 6.291
      vertex -2.52845 -9.12159 7
    endloop
  endfacet
  facet normal -0.406737 -0.913545 0
    outer loop
      vertex -4.75 -8.22724 6.25873
      vertex -4.75 -8.22724 2.85226
      vertex -2.93566 -9.03504 6.291
    endloop
  endfacet
  facet normal -0.406737 -0.913545 0
    outer loop
      vertex -4.33121 -8.4137 7
      vertex -4.75 -8.22724 6.25873
      vertex -2.93566 -9.03504 7
    endloop
  endfacet
  facet normal -0.406737 -0.913545 0
    outer loop
      vertex -2.93566 -9.03504 7
      vertex -4.75 -8.22724 6.25873
      vertex -2.93566 -9.03504 6.291
    endloop
  endfacet
  facet normal 0 0 1
    outer loop
      vertex -6.09049 -10.173 7
      vertex -4.33121 -8.4137 7
      vertex -4.75 -8.22724 7
    endloop
  endfacet
  facet normal 0 0 1
    outer loop
      vertex -5.81817 -7.45117 7
      vertex -6.09049 -10.173 7
      vertex -4.75 -8.22724 7
    endloop
  endfacet
  facet normal 0 0 1
    outer loop
      vertex -5.81817 -7.45117 7
      vertex -7.31523 -8.94822 7
      vertex -6.09049 -10.173 7
    endloop
  endfacet
  facet normal -0.587785 -0.809017 0
    outer loop
      vertex -6.35674 -7.05988 7
      vertex -6.35674 -7.05988 5.86116
      vertex -5.81817 -7.45117 7
    endloop
  endfacet
  facet normal -0.994522 -0.104529 0
    outer loop
      vertex -9.5 0 7
      vertex -9.5 0 5
      vertex -9.37864 -1.1547 7
    endloop
  endfacet
  facet normal -0.707107 -0.707107 0
    outer loop
      vertex -7.31523 -8.94822 7
      vertex -10.173 -6.09049 0
      vertex -8.94822 -7.31523 0
    endloop
  endfacet
  facet normal -0.707107 -0.707107 0
    outer loop
      vertex -6.09049 -10.173 7
      vertex -7.31523 -8.94822 7
      vertex -8.94822 -7.31523 0
    endloop
  endfacet
  facet normal -0.382683 -0.92388 0
    outer loop
      vertex -3.33406 -11.0665 7
      vertex -7.06787 -9.5199 0
      vertex -5.46766 -10.1827 0
    endloop
  endfacet
  facet normal -0.382683 -0.92388 0
    outer loop
      vertex -1.73385 -11.7293 7
      vertex -3.33406 -11.0665 7
      vertex -5.46766 -10.1827 0
    endloop
  endfacet
  facet normal 1.22461e-016 -1 0
    outer loop
      vertex 1.1547 -11.5 7
      vertex -2.88675 -11.5 0
      vertex -1.1547 -11.5 0
    endloop
  endfacet
  facet normal 1.22461e-016 -1 0
    outer loop
      vertex 2.88675 -11.5 7
      vertex 1.1547 -11.5 7
      vertex -1.1547 -11.5 0
    endloop
  endfacet
  facet normal 0.382683 -0.92388 0
    outer loop
      vertex 5.46766 -10.1827 7
      vertex 1.73385 -11.7293 0
      vertex 3.33406 -11.0665 0
    endloop
  endfacet
  facet normal 0.382683 -0.92388 0
    outer loop
      vertex 7.06787 -9.5199 7
      vertex 5.46766 -10.1827 7
      vertex 3.33406 -11.0665 0
    endloop
  endfacet
  facet normal 0.707107 -0.707107 0
    outer loop
      vertex 8.94822 -7.31523 7
      vertex 6.09049 -10.173 0
      vertex 7.31523 -8.94822 0
    endloop
  endfacet
  facet normal 0.707107 -0.707107 0
    outer loop
      vertex 10.173 -6.09049 7
      vertex 8.94822 -7.31523 7
      vertex 7.31523 -8.94822 0
    endloop
  endfacet
  facet normal 0.92388 -0.382683 0
    outer loop
      vertex 11.0665 -3.33406 7
      vertex 9.5199 -7.06787 0
      vertex 10.1827 -5.46766 0
    endloop
  endfacet
  facet normal 0.92388 -0.382683 0
    outer loop
      vertex 11.7293 -1.73385 7
      vertex 11.0665 -3.33406 7
      vertex 10.1827 -5.46766 0
    endloop
  endfacet
  facet normal 1 2.22045e-016 0
    outer loop
      vertex 11.5 -1.1547 0
      vertex 11.5 2.88675 7
      vertex 11.5 1.1547 7
    endloop
  endfacet
  facet normal 1 2.22045e-016 0
    outer loop
      vertex 11.5 -2.88675 0
      vertex 11.5 -1.1547 0
      vertex 11.5 1.1547 7
    endloop
  endfacet
  facet normal 0.92388 0.382683 0
    outer loop
      vertex 11.0665 3.33406 0
      vertex 9.5199 7.06787 7
      vertex 10.1827 5.46766 7
    endloop
  endfacet
  facet normal 0.92388 0.382683 0
    outer loop
      vertex 11.7293 1.73385 0
      vertex 11.0665 3.33406 0
      vertex 10.1827 5.46766 7
    endloop
  endfacet
  facet normal 0.707107 0.707107 0
    outer loop
      vertex 8.94822 7.31523 0
      vertex 6.09049 10.173 7
      vertex 7.31523 8.94822 7
    endloop
  endfacet
  facet normal 0.707107 0.707107 0
    outer loop
      vertex 10.173 6.09049 0
      vertex 8.94822 7.31523 0
      vertex 7.31523 8.94822 7
    endloop
  endfacet
  facet normal 0.382683 0.92388 0
    outer loop
      vertex 1.73385 11.7293 7
      vertex 3.33406 11.0665 7
      vertex 5.46766 10.1827 0
    endloop
  endfacet
  facet normal 0.382683 0.92388 0
    outer loop
      vertex 5.46766 10.1827 0
      vertex 3.33406 11.0665 7
      vertex 7.06787 9.5199 0
    endloop
  endfacet
  facet normal -2.44921e-016 1 0
    outer loop
      vertex -2.88675 11.5 7
      vertex -1.1547 11.5 7
      vertex 1.1547 11.5 0
    endloop
  endfacet
  facet normal -2.44921e-016 1 0
    outer loop
      vertex 1.1547 11.5 0
      vertex -1.1547 11.5 7
      vertex 2.88675 11.5 0
    endloop
  endfacet
  facet normal -0.382683 0.92388 0
    outer loop
      vertex -7.06787 9.5199 7
      vertex -5.46766 10.1827 7
      vertex -3.33406 11.0665 0
    endloop
  endfacet
  facet normal -0.382683 0.92388 0
    outer loop
      vertex -3.33406 11.0665 0
      vertex -5.46766 10.1827 7
      vertex -1.73385 11.7293 0
    endloop
  endfacet
  facet normal -0.707107 0.707107 0
    outer loop
      vertex -10.173 6.09049 7
      vertex -8.94822 7.31523 7
      vertex -7.31523 8.94822 0
    endloop
  endfacet
  facet normal -0.707107 0.707107 0
    outer loop
      vertex -7.31523 8.94822 0
      vertex -8.94822 7.31523 7
      vertex -6.09049 10.173 0
    endloop
  endfacet
  facet normal -0.92388 0.382683 0
    outer loop
      vertex -11.7293 1.73385 7
      vertex -11.0665 3.33406 7
      vertex -10.1827 5.46766 0
    endloop
  endfacet
  facet normal -0.92388 0.382683 0
    outer loop
      vertex -10.1827 5.46766 0
      vertex -11.0665 3.33406 7
      vertex -9.5199 7.06787 0
    endloop
  endfacet
  facet normal -1 -2.22045e-016 0
    outer loop
      vertex -11.5 2.88675 0
      vertex -11.5 1.1547 0
      vertex -11.5 -1.1547 7
    endloop
  endfacet
  facet normal -1 -2.22045e-016 0
    outer loop
      vertex -11.5 -1.1547 7
      vertex -11.5 1.1547 0
      vertex -11.5 -2.88675 7
    endloop
  endfacet
endsolid OpenSCAD_Model
