solid OpenSCAD_Model
  facet normal 0 0 -1
    outer loop
      vertex 41.1532 -26.569 -2
      vertex 40.6642 -26.8958 -2
      vertex 40.1208 -27.1208 -2
    endloop
  endfacet
  facet normal -0 0 -1
    outer loop
      vertex 41.1532 -26.569 -2
      vertex 40.1208 -27.1208 -2
      vertex 41.569 -26.1532 -2
    endloop
  endfacet
  facet normal 0 0 -1
    outer loop
      vertex 40.6642 -26.8958 -2
      vertex 40.3981 -27.0216 -2
      vertex 40.1208 -27.1208 -2
    endloop
  endfacet
  facet normal -0 0 -1
    outer loop
      vertex 41.3713 -26.3713 -2
      vertex 41.1532 -26.569 -2
      vertex 41.569 -26.1532 -2
    endloop
  endfacet
  facet normal 0 0 -1
    outer loop
      vertex 40.6642 -26.8958 -2
      vertex 41.1532 -26.569 -2
      vertex 40.9167 -26.7444 -2
    endloop
  endfacet
  facet normal 0 0 -1
    outer loop
      vertex 41.569 -26.1532 -2
      vertex 42.1208 -25.1208 -2
      vertex 41.8958 -25.6642 -2
    endloop
  endfacet
  facet normal -0 0 -1
    outer loop
      vertex 41.569 -26.1532 -2
      vertex 40.1208 -27.1208 -2
      vertex 42.1208 -25.1208 -2
    endloop
  endfacet
  facet normal -0 0 -1
    outer loop
      vertex 42.0216 -25.3981 -2
      vertex 41.8958 -25.6642 -2
      vertex 42.1208 -25.1208 -2
    endloop
  endfacet
  facet normal 0 0 -1
    outer loop
      vertex 41.569 -26.1532 -2
      vertex 41.8958 -25.6642 -2
      vertex 41.7444 -25.9167 -2
    endloop
  endfacet
  facet normal 0 0 -1
    outer loop
      vertex 42.1208 -25.1208 -2
      vertex 40.1208 -27.1208 -2
      vertex 39.8353 -27.1924 -2
    endloop
  endfacet
  facet normal 0 0 -1
    outer loop
      vertex 42.1924 -24.8353 -2
      vertex 42.1208 -25.1208 -2
      vertex 39.8353 -27.1924 -2
    endloop
  endfacet
  facet normal 0 0 -1
    outer loop
      vertex 39.5441 -27.2355 -2
      vertex 42.1924 -24.8353 -2
      vertex 39.8353 -27.1924 -2
    endloop
  endfacet
  facet normal 0 0 -1
    outer loop
      vertex 39.5441 -27.2355 -2
      vertex 42.2355 -24.5441 -2
      vertex 42.1924 -24.8353 -2
    endloop
  endfacet
  facet normal -0 0 -1
    outer loop
      vertex 39.5441 -27.2355 -2
      vertex 39.25 -27.25 -2
      vertex 42.2355 -24.5441 -2
    endloop
  endfacet
  facet normal -0 0 -1
    outer loop
      vertex 42.2355 -24.5441 -2
      vertex 39.25 -27.25 -2
      vertex 42.25 -24.25 -2
    endloop
  endfacet
  facet normal 0 0 -1
    outer loop
      vertex 42.25 -24.25 -2
      vertex 39.25 27.25 -2
      vertex 42.25 24.25 -2
    endloop
  endfacet
  facet normal 0 0 -1
    outer loop
      vertex 42.1208 25.1208 -2
      vertex 41.569 26.1532 -2
      vertex 41.8958 25.6642 -2
    endloop
  endfacet
  facet normal -0 -0 -1
    outer loop
      vertex 42.0216 25.3981 -2
      vertex 42.1208 25.1208 -2
      vertex 41.8958 25.6642 -2
    endloop
  endfacet
  facet normal 0 0 -1
    outer loop
      vertex 40.1208 27.1208 -2
      vertex 41.1532 26.569 -2
      vertex 41.569 26.1532 -2
    endloop
  endfacet
  facet normal 0 0 -1
    outer loop
      vertex 41.569 26.1532 -2
      vertex 41.1532 26.569 -2
      vertex 41.3713 26.3713 -2
    endloop
  endfacet
  facet normal 0 0 -1
    outer loop
      vertex 41.569 26.1532 -2
      vertex 41.7444 25.9167 -2
      vertex 41.8958 25.6642 -2
    endloop
  endfacet
  facet normal 0 0 -1
    outer loop
      vertex 40.1208 27.1208 -2
      vertex 40.6642 26.8958 -2
      vertex 41.1532 26.569 -2
    endloop
  endfacet
  facet normal 0 0 -1
    outer loop
      vertex 42.1208 25.1208 -2
      vertex 40.1208 27.1208 -2
      vertex 41.569 26.1532 -2
    endloop
  endfacet
  facet normal 0 0 -1
    outer loop
      vertex 40.6642 26.8958 -2
      vertex 40.1208 27.1208 -2
      vertex 40.3981 27.0216 -2
    endloop
  endfacet
  facet normal 0 0 -1
    outer loop
      vertex 40.6642 26.8958 -2
      vertex 40.9167 26.7444 -2
      vertex 41.1532 26.569 -2
    endloop
  endfacet
  facet normal 0 0 -1
    outer loop
      vertex 42.1208 25.1208 -2
      vertex 39.8353 27.1924 -2
      vertex 40.1208 27.1208 -2
    endloop
  endfacet
  facet normal -0 -0 -1
    outer loop
      vertex 42.1208 25.1208 -2
      vertex 42.1924 24.8353 -2
      vertex 39.8353 27.1924 -2
    endloop
  endfacet
  facet normal -0 -0 -1
    outer loop
      vertex 39.8353 27.1924 -2
      vertex 42.1924 24.8353 -2
      vertex 39.5441 27.2355 -2
    endloop
  endfacet
  facet normal 0 0 -1
    outer loop
      vertex 39.5441 27.2355 -2
      vertex 42.1924 24.8353 -2
      vertex 42.2355 24.5441 -2
    endloop
  endfacet
  facet normal 0 0 -1
    outer loop
      vertex 39.25 27.25 -2
      vertex 39.5441 27.2355 -2
      vertex 42.2355 24.5441 -2
    endloop
  endfacet
  facet normal 0 0 -1
    outer loop
      vertex 42.25 24.25 -2
      vertex 39.25 27.25 -2
      vertex 42.2355 24.5441 -2
    endloop
  endfacet
  facet normal -0 0 -1
    outer loop
      vertex 42.25 -24.25 -2
      vertex 39.25 -27.25 -2
      vertex 39.25 27.25 -2
    endloop
  endfacet
  facet normal -0 -0 -1
    outer loop
      vertex 39.25 27.25 -2
      vertex 39.25 -27.25 -2
      vertex -39.25 27.25 -2
    endloop
  endfacet
  facet normal 0 0 -1
    outer loop
      vertex -40.1208 27.1208 -2
      vertex -41.1532 26.569 -2
      vertex -40.6642 26.8958 -2
    endloop
  endfacet
  facet normal 0 -0 -1
    outer loop
      vertex -40.3981 27.0216 -2
      vertex -40.1208 27.1208 -2
      vertex -40.6642 26.8958 -2
    endloop
  endfacet
  facet normal 0 0 -1
    outer loop
      vertex -42.1208 25.1208 -2
      vertex -41.569 26.1532 -2
      vertex -41.1532 26.569 -2
    endloop
  endfacet
  facet normal 0 0 -1
    outer loop
      vertex -41.1532 26.569 -2
      vertex -41.569 26.1532 -2
      vertex -41.3713 26.3713 -2
    endloop
  endfacet
  facet normal 0 0 -1
    outer loop
      vertex -41.1532 26.569 -2
      vertex -40.9167 26.7444 -2
      vertex -40.6642 26.8958 -2
    endloop
  endfacet
  facet normal 0 0 -1
    outer loop
      vertex -42.1208 25.1208 -2
      vertex -41.8958 25.6642 -2
      vertex -41.569 26.1532 -2
    endloop
  endfacet
  facet normal 0 0 -1
    outer loop
      vertex -40.1208 27.1208 -2
      vertex -42.1208 25.1208 -2
      vertex -41.1532 26.569 -2
    endloop
  endfacet
  facet normal 0 0 -1
    outer loop
      vertex -41.8958 25.6642 -2
      vertex -42.1208 25.1208 -2
      vertex -42.0216 25.3981 -2
    endloop
  endfacet
  facet normal 0 0 -1
    outer loop
      vertex -41.8958 25.6642 -2
      vertex -41.7444 25.9167 -2
      vertex -41.569 26.1532 -2
    endloop
  endfacet
  facet normal 0 0 -1
    outer loop
      vertex -40.1208 27.1208 -2
      vertex -42.1924 24.8353 -2
      vertex -42.1208 25.1208 -2
    endloop
  endfacet
  facet normal 0 -0 -1
    outer loop
      vertex -40.1208 27.1208 -2
      vertex -39.8353 27.1924 -2
      vertex -42.1924 24.8353 -2
    endloop
  endfacet
  facet normal 0 -0 -1
    outer loop
      vertex -42.1924 24.8353 -2
      vertex -39.8353 27.1924 -2
      vertex -42.2355 24.5441 -2
    endloop
  endfacet
  facet normal 0 0 -1
    outer loop
      vertex -42.2355 24.5441 -2
      vertex -39.8353 27.1924 -2
      vertex -39.5441 27.2355 -2
    endloop
  endfacet
  facet normal 0 0 -1
    outer loop
      vertex -42.25 24.25 -2
      vertex -42.2355 24.5441 -2
      vertex -39.5441 27.2355 -2
    endloop
  endfacet
  facet normal 0 0 -1
    outer loop
      vertex -39.25 27.25 -2
      vertex -42.25 24.25 -2
      vertex -39.5441 27.2355 -2
    endloop
  endfacet
  facet normal 0 0 -1
    outer loop
      vertex -39.25 -27.25 -2
      vertex -42.25 -24.25 -2
      vertex -42.25 24.25 -2
    endloop
  endfacet
  facet normal 0 0 -1
    outer loop
      vertex -42.1924 -24.8353 -2
      vertex -42.2355 -24.5441 -2
      vertex -39.8353 -27.1924 -2
    endloop
  endfacet
  facet normal 0 0 -1
    outer loop
      vertex -42.1208 -25.1208 -2
      vertex -41.569 -26.1532 -2
      vertex -41.8958 -25.6642 -2
    endloop
  endfacet
  facet normal 0 0 -1
    outer loop
      vertex -42.0216 -25.3981 -2
      vertex -42.1208 -25.1208 -2
      vertex -41.8958 -25.6642 -2
    endloop
  endfacet
  facet normal 0 0 -1
    outer loop
      vertex -42.1208 -25.1208 -2
      vertex -41.1532 -26.569 -2
      vertex -41.569 -26.1532 -2
    endloop
  endfacet
  facet normal 0 0 -1
    outer loop
      vertex -41.569 -26.1532 -2
      vertex -41.1532 -26.569 -2
      vertex -41.3713 -26.3713 -2
    endloop
  endfacet
  facet normal 0 0 -1
    outer loop
      vertex -41.569 -26.1532 -2
      vertex -41.7444 -25.9167 -2
      vertex -41.8958 -25.6642 -2
    endloop
  endfacet
  facet normal 0 0 -1
    outer loop
      vertex -40.1208 -27.1208 -2
      vertex -40.6642 -26.8958 -2
      vertex -41.1532 -26.569 -2
    endloop
  endfacet
  facet normal 0 0 -1
    outer loop
      vertex -42.1208 -25.1208 -2
      vertex -40.1208 -27.1208 -2
      vertex -41.1532 -26.569 -2
    endloop
  endfacet
  facet normal 0 0 -1
    outer loop
      vertex -40.6642 -26.8958 -2
      vertex -40.1208 -27.1208 -2
      vertex -40.3981 -27.0216 -2
    endloop
  endfacet
  facet normal 0 0 -1
    outer loop
      vertex -40.6642 -26.8958 -2
      vertex -40.9167 -26.7444 -2
      vertex -41.1532 -26.569 -2
    endloop
  endfacet
  facet normal 0 0 -1
    outer loop
      vertex -42.1208 -25.1208 -2
      vertex -42.1924 -24.8353 -2
      vertex -40.1208 -27.1208 -2
    endloop
  endfacet
  facet normal 0 0 -1
    outer loop
      vertex -40.1208 -27.1208 -2
      vertex -42.1924 -24.8353 -2
      vertex -39.8353 -27.1924 -2
    endloop
  endfacet
  facet normal 0 0 -1
    outer loop
      vertex -39.8353 -27.1924 -2
      vertex -42.2355 -24.5441 -2
      vertex -39.5441 -27.2355 -2
    endloop
  endfacet
  facet normal 0 0 -1
    outer loop
      vertex -39.5441 -27.2355 -2
      vertex -42.2355 -24.5441 -2
      vertex -42.25 -24.25 -2
    endloop
  endfacet
  facet normal 0 0 -1
    outer loop
      vertex -39.25 -27.25 -2
      vertex -39.5441 -27.2355 -2
      vertex -42.25 -24.25 -2
    endloop
  endfacet
  facet normal 0 -0 -1
    outer loop
      vertex -39.25 27.25 -2
      vertex -39.25 -27.25 -2
      vertex -42.25 24.25 -2
    endloop
  endfacet
  facet normal 0 0 -1
    outer loop
      vertex -39.25 27.25 -2
      vertex 39.25 -27.25 -2
      vertex -39.25 -27.25 -2
    endloop
  endfacet
  facet normal 0 0 1
    outer loop
      vertex 40.1208 -27.1208 2
      vertex 40.6642 -26.8958 2
      vertex 41.1532 -26.569 2
    endloop
  endfacet
  facet normal 0 0 1
    outer loop
      vertex 41.569 -26.1532 2
      vertex 40.1208 -27.1208 2
      vertex 41.1532 -26.569 2
    endloop
  endfacet
  facet normal 0 0 1
    outer loop
      vertex 40.1208 -27.1208 2
      vertex 40.3981 -27.0216 2
      vertex 40.6642 -26.8958 2
    endloop
  endfacet
  facet normal 0 0 1
    outer loop
      vertex 41.569 -26.1532 2
      vertex 41.1532 -26.569 2
      vertex 41.3713 -26.3713 2
    endloop
  endfacet
  facet normal 0 -0 1
    outer loop
      vertex 40.9167 -26.7444 2
      vertex 41.1532 -26.569 2
      vertex 40.6642 -26.8958 2
    endloop
  endfacet
  facet normal 0 -0 1
    outer loop
      vertex 41.8958 -25.6642 2
      vertex 42.1208 -25.1208 2
      vertex 41.569 -26.1532 2
    endloop
  endfacet
  facet normal 0 0 1
    outer loop
      vertex 42.1208 -25.1208 2
      vertex 40.1208 -27.1208 2
      vertex 41.569 -26.1532 2
    endloop
  endfacet
  facet normal 0 0 1
    outer loop
      vertex 42.1208 -25.1208 2
      vertex 41.8958 -25.6642 2
      vertex 42.0216 -25.3981 2
    endloop
  endfacet
  facet normal 0 -0 1
    outer loop
      vertex 41.7444 -25.9167 2
      vertex 41.8958 -25.6642 2
      vertex 41.569 -26.1532 2
    endloop
  endfacet
  facet normal 0 0 1
    outer loop
      vertex 39.8353 -27.1924 2
      vertex 40.1208 -27.1208 2
      vertex 42.1208 -25.1208 2
    endloop
  endfacet
  facet normal 0 0 1
    outer loop
      vertex 39.8353 -27.1924 2
      vertex 42.1208 -25.1208 2
      vertex 42.1924 -24.8353 2
    endloop
  endfacet
  facet normal 0 -0 1
    outer loop
      vertex 39.8353 -27.1924 2
      vertex 42.1924 -24.8353 2
      vertex 39.5441 -27.2355 2
    endloop
  endfacet
  facet normal 0 -0 1
    outer loop
      vertex 42.1924 -24.8353 2
      vertex 42.2355 -24.5441 2
      vertex 39.5441 -27.2355 2
    endloop
  endfacet
  facet normal 0 0 1
    outer loop
      vertex 42.2355 -24.5441 2
      vertex 39.25 -27.25 2
      vertex 39.5441 -27.2355 2
    endloop
  endfacet
  facet normal 0 0 1
    outer loop
      vertex 42.25 -24.25 2
      vertex 39.25 -27.25 2
      vertex 42.2355 -24.5441 2
    endloop
  endfacet
  facet normal 0 0 1
    outer loop
      vertex 42.25 24.25 2
      vertex 39.25 27.25 2
      vertex 42.25 -24.25 2
    endloop
  endfacet
  facet normal 0 0 1
    outer loop
      vertex 41.8958 25.6642 2
      vertex 41.569 26.1532 2
      vertex 42.1208 25.1208 2
    endloop
  endfacet
  facet normal 0 0 1
    outer loop
      vertex 41.8958 25.6642 2
      vertex 42.1208 25.1208 2
      vertex 42.0216 25.3981 2
    endloop
  endfacet
  facet normal 0 0 1
    outer loop
      vertex 41.569 26.1532 2
      vertex 41.1532 26.569 2
      vertex 40.1208 27.1208 2
    endloop
  endfacet
  facet normal 0 0 1
    outer loop
      vertex 41.3713 26.3713 2
      vertex 41.1532 26.569 2
      vertex 41.569 26.1532 2
    endloop
  endfacet
  facet normal 0 0 1
    outer loop
      vertex 41.8958 25.6642 2
      vertex 41.7444 25.9167 2
      vertex 41.569 26.1532 2
    endloop
  endfacet
  facet normal 0 0 1
    outer loop
      vertex 41.1532 26.569 2
      vertex 40.6642 26.8958 2
      vertex 40.1208 27.1208 2
    endloop
  endfacet
  facet normal 0 0 1
    outer loop
      vertex 41.569 26.1532 2
      vertex 40.1208 27.1208 2
      vertex 42.1208 25.1208 2
    endloop
  endfacet
  facet normal 0 0 1
    outer loop
      vertex 40.3981 27.0216 2
      vertex 40.1208 27.1208 2
      vertex 40.6642 26.8958 2
    endloop
  endfacet
  facet normal 0 0 1
    outer loop
      vertex 41.1532 26.569 2
      vertex 40.9167 26.7444 2
      vertex 40.6642 26.8958 2
    endloop
  endfacet
  facet normal 0 0 1
    outer loop
      vertex 40.1208 27.1208 2
      vertex 39.8353 27.1924 2
      vertex 42.1208 25.1208 2
    endloop
  endfacet
  facet normal 0 0 1
    outer loop
      vertex 39.8353 27.1924 2
      vertex 42.1924 24.8353 2
      vertex 42.1208 25.1208 2
    endloop
  endfacet
  facet normal 0 0 1
    outer loop
      vertex 39.5441 27.2355 2
      vertex 42.1924 24.8353 2
      vertex 39.8353 27.1924 2
    endloop
  endfacet
  facet normal 0 0 1
    outer loop
      vertex 42.2355 24.5441 2
      vertex 42.1924 24.8353 2
      vertex 39.5441 27.2355 2
    endloop
  endfacet
  facet normal 0 0 1
    outer loop
      vertex 42.2355 24.5441 2
      vertex 39.5441 27.2355 2
      vertex 39.25 27.25 2
    endloop
  endfacet
  facet normal 0 0 1
    outer loop
      vertex 42.2355 24.5441 2
      vertex 39.25 27.25 2
      vertex 42.25 24.25 2
    endloop
  endfacet
  facet normal 0 0 1
    outer loop
      vertex 39.25 27.25 2
      vertex 39.25 -27.25 2
      vertex 42.25 -24.25 2
    endloop
  endfacet
  facet normal -0 0 1
    outer loop
      vertex -39.25 27.25 2
      vertex 39.25 -27.25 2
      vertex 39.25 27.25 2
    endloop
  endfacet
  facet normal -0 0 1
    outer loop
      vertex -40.6642 26.8958 2
      vertex -41.1532 26.569 2
      vertex -40.1208 27.1208 2
    endloop
  endfacet
  facet normal 0 0 1
    outer loop
      vertex -40.6642 26.8958 2
      vertex -40.1208 27.1208 2
      vertex -40.3981 27.0216 2
    endloop
  endfacet
  facet normal 0 0 1
    outer loop
      vertex -41.1532 26.569 2
      vertex -41.569 26.1532 2
      vertex -42.1208 25.1208 2
    endloop
  endfacet
  facet normal -0 0 1
    outer loop
      vertex -41.3713 26.3713 2
      vertex -41.569 26.1532 2
      vertex -41.1532 26.569 2
    endloop
  endfacet
  facet normal 0 0 1
    outer loop
      vertex -40.6642 26.8958 2
      vertex -40.9167 26.7444 2
      vertex -41.1532 26.569 2
    endloop
  endfacet
  facet normal 0 0 1
    outer loop
      vertex -41.569 26.1532 2
      vertex -41.8958 25.6642 2
      vertex -42.1208 25.1208 2
    endloop
  endfacet
  facet normal -0 0 1
    outer loop
      vertex -41.1532 26.569 2
      vertex -42.1208 25.1208 2
      vertex -40.1208 27.1208 2
    endloop
  endfacet
  facet normal -0 0 1
    outer loop
      vertex -42.0216 25.3981 2
      vertex -42.1208 25.1208 2
      vertex -41.8958 25.6642 2
    endloop
  endfacet
  facet normal 0 0 1
    outer loop
      vertex -41.569 26.1532 2
      vertex -41.7444 25.9167 2
      vertex -41.8958 25.6642 2
    endloop
  endfacet
  facet normal -0 0 1
    outer loop
      vertex -42.1208 25.1208 2
      vertex -42.1924 24.8353 2
      vertex -40.1208 27.1208 2
    endloop
  endfacet
  facet normal 0 0 1
    outer loop
      vertex -42.1924 24.8353 2
      vertex -39.8353 27.1924 2
      vertex -40.1208 27.1208 2
    endloop
  endfacet
  facet normal 0 0 1
    outer loop
      vertex -42.2355 24.5441 2
      vertex -39.8353 27.1924 2
      vertex -42.1924 24.8353 2
    endloop
  endfacet
  facet normal 0 0 1
    outer loop
      vertex -39.5441 27.2355 2
      vertex -39.8353 27.1924 2
      vertex -42.2355 24.5441 2
    endloop
  endfacet
  facet normal 0 0 1
    outer loop
      vertex -39.5441 27.2355 2
      vertex -42.2355 24.5441 2
      vertex -42.25 24.25 2
    endloop
  endfacet
  facet normal -0 0 1
    outer loop
      vertex -39.5441 27.2355 2
      vertex -42.25 24.25 2
      vertex -39.25 27.25 2
    endloop
  endfacet
  facet normal 0 0 1
    outer loop
      vertex -42.25 24.25 2
      vertex -42.25 -24.25 2
      vertex -39.25 -27.25 2
    endloop
  endfacet
  facet normal 0 0 1
    outer loop
      vertex -39.8353 -27.1924 2
      vertex -42.2355 -24.5441 2
      vertex -42.1924 -24.8353 2
    endloop
  endfacet
  facet normal -0 -0 1
    outer loop
      vertex -41.8958 -25.6642 2
      vertex -41.569 -26.1532 2
      vertex -42.1208 -25.1208 2
    endloop
  endfacet
  facet normal 0 0 1
    outer loop
      vertex -41.8958 -25.6642 2
      vertex -42.1208 -25.1208 2
      vertex -42.0216 -25.3981 2
    endloop
  endfacet
  facet normal -0 -0 1
    outer loop
      vertex -41.569 -26.1532 2
      vertex -41.1532 -26.569 2
      vertex -42.1208 -25.1208 2
    endloop
  endfacet
  facet normal -0 -0 1
    outer loop
      vertex -41.3713 -26.3713 2
      vertex -41.1532 -26.569 2
      vertex -41.569 -26.1532 2
    endloop
  endfacet
  facet normal 0 0 1
    outer loop
      vertex -41.8958 -25.6642 2
      vertex -41.7444 -25.9167 2
      vertex -41.569 -26.1532 2
    endloop
  endfacet
  facet normal 0 0 1
    outer loop
      vertex -41.1532 -26.569 2
      vertex -40.6642 -26.8958 2
      vertex -40.1208 -27.1208 2
    endloop
  endfacet
  facet normal -0 -0 1
    outer loop
      vertex -41.1532 -26.569 2
      vertex -40.1208 -27.1208 2
      vertex -42.1208 -25.1208 2
    endloop
  endfacet
  facet normal -0 -0 1
    outer loop
      vertex -40.3981 -27.0216 2
      vertex -40.1208 -27.1208 2
      vertex -40.6642 -26.8958 2
    endloop
  endfacet
  facet normal 0 0 1
    outer loop
      vertex -41.1532 -26.569 2
      vertex -40.9167 -26.7444 2
      vertex -40.6642 -26.8958 2
    endloop
  endfacet
  facet normal 0 0 1
    outer loop
      vertex -40.1208 -27.1208 2
      vertex -42.1924 -24.8353 2
      vertex -42.1208 -25.1208 2
    endloop
  endfacet
  facet normal 0 0 1
    outer loop
      vertex -39.8353 -27.1924 2
      vertex -42.1924 -24.8353 2
      vertex -40.1208 -27.1208 2
    endloop
  endfacet
  facet normal 0 0 1
    outer loop
      vertex -39.5441 -27.2355 2
      vertex -42.2355 -24.5441 2
      vertex -39.8353 -27.1924 2
    endloop
  endfacet
  facet normal 0 0 1
    outer loop
      vertex -42.25 -24.25 2
      vertex -42.2355 -24.5441 2
      vertex -39.5441 -27.2355 2
    endloop
  endfacet
  facet normal 0 0 1
    outer loop
      vertex -42.25 -24.25 2
      vertex -39.5441 -27.2355 2
      vertex -39.25 -27.25 2
    endloop
  endfacet
  facet normal -0 0 1
    outer loop
      vertex -42.25 24.25 2
      vertex -39.25 -27.25 2
      vertex -39.25 27.25 2
    endloop
  endfacet
  facet normal 0 0 1
    outer loop
      vertex -39.25 -27.25 2
      vertex 39.25 -27.25 2
      vertex -39.25 27.25 2
    endloop
  endfacet
  facet normal 0.146413 -0.989224 0
    outer loop
      vertex 39.8353 -27.1924 -2
      vertex 39.5441 -27.2355 2
      vertex 39.5441 -27.2355 -2
    endloop
  endfacet
  facet normal 0.146413 -0.989224 0
    outer loop
      vertex 39.8353 -27.1924 -2
      vertex 39.8353 -27.1924 2
      vertex 39.5441 -27.2355 2
    endloop
  endfacet
  facet normal 0.243255 -0.969962 0
    outer loop
      vertex 40.1208 -27.1208 -2
      vertex 39.8353 -27.1924 2
      vertex 39.8353 -27.1924 -2
    endloop
  endfacet
  facet normal 0.243255 -0.969962 0
    outer loop
      vertex 40.1208 -27.1208 -2
      vertex 40.1208 -27.1208 2
      vertex 39.8353 -27.1924 2
    endloop
  endfacet
  facet normal 0.336831 -0.941565 0
    outer loop
      vertex 40.3981 -27.0216 -2
      vertex 40.1208 -27.1208 2
      vertex 40.1208 -27.1208 -2
    endloop
  endfacet
  facet normal 0.336831 -0.941565 0
    outer loop
      vertex 40.3981 -27.0216 -2
      vertex 40.3981 -27.0216 2
      vertex 40.1208 -27.1208 2
    endloop
  endfacet
  facet normal 0.4274 -0.904063 0
    outer loop
      vertex 40.6642 -26.8958 -2
      vertex 40.3981 -27.0216 2
      vertex 40.3981 -27.0216 -2
    endloop
  endfacet
  facet normal 0.4274 -0.904063 0
    outer loop
      vertex 40.6642 -26.8958 -2
      vertex 40.6642 -26.8958 2
      vertex 40.3981 -27.0216 2
    endloop
  endfacet
  facet normal 0.514246 -0.857643 0
    outer loop
      vertex 40.9167 -26.7444 -2
      vertex 40.6642 -26.8958 2
      vertex 40.6642 -26.8958 -2
    endloop
  endfacet
  facet normal 0.514246 -0.857643 0
    outer loop
      vertex 40.9167 -26.7444 -2
      vertex 40.9167 -26.7444 2
      vertex 40.6642 -26.8958 2
    endloop
  endfacet
  facet normal 0.595699 -0.803208 0
    outer loop
      vertex 41.1532 -26.569 -2
      vertex 40.9167 -26.7444 2
      vertex 40.9167 -26.7444 -2
    endloop
  endfacet
  facet normal 0.595699 -0.803208 0
    outer loop
      vertex 41.1532 -26.569 -2
      vertex 41.1532 -26.569 2
      vertex 40.9167 -26.7444 2
    endloop
  endfacet
  facet normal 0.671607 -0.740908 0
    outer loop
      vertex 41.3713 -26.3713 -2
      vertex 41.1532 -26.569 2
      vertex 41.1532 -26.569 -2
    endloop
  endfacet
  facet normal 0.671607 -0.740908 0
    outer loop
      vertex 41.3713 -26.3713 -2
      vertex 41.3713 -26.3713 2
      vertex 41.1532 -26.569 2
    endloop
  endfacet
  facet normal 0.740908 -0.671607 0
    outer loop
      vertex 41.569 -26.1532 -2
      vertex 41.3713 -26.3713 2
      vertex 41.3713 -26.3713 -2
    endloop
  endfacet
  facet normal 0.740908 -0.671607 0
    outer loop
      vertex 41.569 -26.1532 -2
      vertex 41.569 -26.1532 2
      vertex 41.3713 -26.3713 2
    endloop
  endfacet
  facet normal 0.803208 -0.595699 0
    outer loop
      vertex 41.7444 -25.9167 -2
      vertex 41.569 -26.1532 2
      vertex 41.569 -26.1532 -2
    endloop
  endfacet
  facet normal 0.803208 -0.595699 0
    outer loop
      vertex 41.7444 -25.9167 -2
      vertex 41.7444 -25.9167 2
      vertex 41.569 -26.1532 2
    endloop
  endfacet
  facet normal 0.857643 -0.514246 0
    outer loop
      vertex 41.8958 -25.6642 -2
      vertex 41.7444 -25.9167 2
      vertex 41.7444 -25.9167 -2
    endloop
  endfacet
  facet normal 0.857643 -0.514246 0
    outer loop
      vertex 41.8958 -25.6642 -2
      vertex 41.8958 -25.6642 2
      vertex 41.7444 -25.9167 2
    endloop
  endfacet
  facet normal 0.904063 -0.4274 0
    outer loop
      vertex 42.0216 -25.3981 -2
      vertex 41.8958 -25.6642 2
      vertex 41.8958 -25.6642 -2
    endloop
  endfacet
  facet normal 0.904063 -0.4274 0
    outer loop
      vertex 42.0216 -25.3981 -2
      vertex 42.0216 -25.3981 2
      vertex 41.8958 -25.6642 2
    endloop
  endfacet
  facet normal 0.941565 -0.336831 0
    outer loop
      vertex 42.1208 -25.1208 -2
      vertex 42.0216 -25.3981 2
      vertex 42.0216 -25.3981 -2
    endloop
  endfacet
  facet normal 0.941565 -0.336831 0
    outer loop
      vertex 42.1208 -25.1208 -2
      vertex 42.1208 -25.1208 2
      vertex 42.0216 -25.3981 2
    endloop
  endfacet
  facet normal 0.969962 -0.243255 0
    outer loop
      vertex 42.1924 -24.8353 -2
      vertex 42.1208 -25.1208 2
      vertex 42.1208 -25.1208 -2
    endloop
  endfacet
  facet normal 0.969962 -0.243255 0
    outer loop
      vertex 42.1924 -24.8353 -2
      vertex 42.1924 -24.8353 2
      vertex 42.1208 -25.1208 2
    endloop
  endfacet
  facet normal 0.989224 -0.146413 0
    outer loop
      vertex 42.2355 -24.5441 -2
      vertex 42.1924 -24.8353 2
      vertex 42.1924 -24.8353 -2
    endloop
  endfacet
  facet normal 0.989224 -0.146413 0
    outer loop
      vertex 42.2355 -24.5441 -2
      vertex 42.2355 -24.5441 2
      vertex 42.1924 -24.8353 2
    endloop
  endfacet
  facet normal 0.998787 -0.0492431 0
    outer loop
      vertex 42.25 -24.25 -2
      vertex 42.2355 -24.5441 2
      vertex 42.2355 -24.5441 -2
    endloop
  endfacet
  facet normal 0.998787 -0.0492431 0
    outer loop
      vertex 42.25 -24.25 -2
      vertex 42.25 -24.25 2
      vertex 42.2355 -24.5441 2
    endloop
  endfacet
  facet normal 1 0 0
    outer loop
      vertex 42.25 24.25 -2
      vertex 42.25 -24.25 2
      vertex 42.25 -24.25 -2
    endloop
  endfacet
  facet normal 1 0 -0
    outer loop
      vertex 42.25 24.25 -2
      vertex 42.25 24.25 2
      vertex 42.25 -24.25 2
    endloop
  endfacet
  facet normal 0.998787 0.0492431 0
    outer loop
      vertex 42.2355 24.5441 -2
      vertex 42.25 24.25 2
      vertex 42.25 24.25 -2
    endloop
  endfacet
  facet normal 0.998787 0.0492431 -0
    outer loop
      vertex 42.2355 24.5441 -2
      vertex 42.2355 24.5441 2
      vertex 42.25 24.25 2
    endloop
  endfacet
  facet normal 0.989224 0.146413 0
    outer loop
      vertex 42.1924 24.8353 -2
      vertex 42.2355 24.5441 2
      vertex 42.2355 24.5441 -2
    endloop
  endfacet
  facet normal 0.989224 0.146413 -0
    outer loop
      vertex 42.1924 24.8353 -2
      vertex 42.1924 24.8353 2
      vertex 42.2355 24.5441 2
    endloop
  endfacet
  facet normal 0.969962 0.243255 0
    outer loop
      vertex 42.1208 25.1208 -2
      vertex 42.1924 24.8353 2
      vertex 42.1924 24.8353 -2
    endloop
  endfacet
  facet normal 0.969962 0.243255 -0
    outer loop
      vertex 42.1208 25.1208 -2
      vertex 42.1208 25.1208 2
      vertex 42.1924 24.8353 2
    endloop
  endfacet
  facet normal 0.941565 0.336831 0
    outer loop
      vertex 42.0216 25.3981 -2
      vertex 42.1208 25.1208 2
      vertex 42.1208 25.1208 -2
    endloop
  endfacet
  facet normal 0.941565 0.336831 -0
    outer loop
      vertex 42.0216 25.3981 -2
      vertex 42.0216 25.3981 2
      vertex 42.1208 25.1208 2
    endloop
  endfacet
  facet normal 0.904063 0.4274 0
    outer loop
      vertex 41.8958 25.6642 -2
      vertex 42.0216 25.3981 2
      vertex 42.0216 25.3981 -2
    endloop
  endfacet
  facet normal 0.904063 0.4274 -0
    outer loop
      vertex 41.8958 25.6642 -2
      vertex 41.8958 25.6642 2
      vertex 42.0216 25.3981 2
    endloop
  endfacet
  facet normal 0.857643 0.514246 0
    outer loop
      vertex 41.7444 25.9167 -2
      vertex 41.8958 25.6642 2
      vertex 41.8958 25.6642 -2
    endloop
  endfacet
  facet normal 0.857643 0.514246 -0
    outer loop
      vertex 41.7444 25.9167 -2
      vertex 41.7444 25.9167 2
      vertex 41.8958 25.6642 2
    endloop
  endfacet
  facet normal 0.803208 0.595699 0
    outer loop
      vertex 41.569 26.1532 -2
      vertex 41.7444 25.9167 2
      vertex 41.7444 25.9167 -2
    endloop
  endfacet
  facet normal 0.803208 0.595699 -0
    outer loop
      vertex 41.569 26.1532 -2
      vertex 41.569 26.1532 2
      vertex 41.7444 25.9167 2
    endloop
  endfacet
  facet normal 0.740908 0.671607 0
    outer loop
      vertex 41.3713 26.3713 -2
      vertex 41.569 26.1532 2
      vertex 41.569 26.1532 -2
    endloop
  endfacet
  facet normal 0.740908 0.671607 -0
    outer loop
      vertex 41.3713 26.3713 -2
      vertex 41.3713 26.3713 2
      vertex 41.569 26.1532 2
    endloop
  endfacet
  facet normal 0.671607 0.740908 0
    outer loop
      vertex 41.1532 26.569 -2
      vertex 41.3713 26.3713 2
      vertex 41.3713 26.3713 -2
    endloop
  endfacet
  facet normal 0.671607 0.740908 -0
    outer loop
      vertex 41.1532 26.569 -2
      vertex 41.1532 26.569 2
      vertex 41.3713 26.3713 2
    endloop
  endfacet
  facet normal 0.595699 0.803208 0
    outer loop
      vertex 40.9167 26.7444 -2
      vertex 41.1532 26.569 2
      vertex 41.1532 26.569 -2
    endloop
  endfacet
  facet normal 0.595699 0.803208 -0
    outer loop
      vertex 40.9167 26.7444 -2
      vertex 40.9167 26.7444 2
      vertex 41.1532 26.569 2
    endloop
  endfacet
  facet normal 0.514246 0.857643 0
    outer loop
      vertex 40.6642 26.8958 -2
      vertex 40.9167 26.7444 2
      vertex 40.9167 26.7444 -2
    endloop
  endfacet
  facet normal 0.514246 0.857643 -0
    outer loop
      vertex 40.6642 26.8958 -2
      vertex 40.6642 26.8958 2
      vertex 40.9167 26.7444 2
    endloop
  endfacet
  facet normal 0.4274 0.904063 0
    outer loop
      vertex 40.3981 27.0216 -2
      vertex 40.6642 26.8958 2
      vertex 40.6642 26.8958 -2
    endloop
  endfacet
  facet normal 0.4274 0.904063 -0
    outer loop
      vertex 40.3981 27.0216 -2
      vertex 40.3981 27.0216 2
      vertex 40.6642 26.8958 2
    endloop
  endfacet
  facet normal 0.336831 0.941565 0
    outer loop
      vertex 40.1208 27.1208 -2
      vertex 40.3981 27.0216 2
      vertex 40.3981 27.0216 -2
    endloop
  endfacet
  facet normal 0.336831 0.941565 -0
    outer loop
      vertex 40.1208 27.1208 -2
      vertex 40.1208 27.1208 2
      vertex 40.3981 27.0216 2
    endloop
  endfacet
  facet normal 0.243255 0.969962 0
    outer loop
      vertex 39.8353 27.1924 -2
      vertex 40.1208 27.1208 2
      vertex 40.1208 27.1208 -2
    endloop
  endfacet
  facet normal 0.243255 0.969962 -0
    outer loop
      vertex 39.8353 27.1924 -2
      vertex 39.8353 27.1924 2
      vertex 40.1208 27.1208 2
    endloop
  endfacet
  facet normal 0.146413 0.989224 0
    outer loop
      vertex 39.5441 27.2355 -2
      vertex 39.8353 27.1924 2
      vertex 39.8353 27.1924 -2
    endloop
  endfacet
  facet normal 0.146413 0.989224 -0
    outer loop
      vertex 39.5441 27.2355 -2
      vertex 39.5441 27.2355 2
      vertex 39.8353 27.1924 2
    endloop
  endfacet
  facet normal 0.0492431 0.998787 0
    outer loop
      vertex 39.25 27.25 -2
      vertex 39.5441 27.2355 2
      vertex 39.5441 27.2355 -2
    endloop
  endfacet
  facet normal 0.0492431 0.998787 -0
    outer loop
      vertex 39.25 27.25 -2
      vertex 39.25 27.25 2
      vertex 39.5441 27.2355 2
    endloop
  endfacet
  facet normal 0 1 0
    outer loop
      vertex -39.25 27.25 -2
      vertex 39.25 27.25 2
      vertex 39.25 27.25 -2
    endloop
  endfacet
  facet normal 0 1 0
    outer loop
      vertex -39.25 27.25 -2
      vertex -39.25 27.25 2
      vertex 39.25 27.25 2
    endloop
  endfacet
  facet normal -0.0492431 0.998787 0
    outer loop
      vertex -39.5441 27.2355 -2
      vertex -39.25 27.25 2
      vertex -39.25 27.25 -2
    endloop
  endfacet
  facet normal -0.0492431 0.998787 0
    outer loop
      vertex -39.5441 27.2355 -2
      vertex -39.5441 27.2355 2
      vertex -39.25 27.25 2
    endloop
  endfacet
  facet normal -0.146413 0.989224 0
    outer loop
      vertex -39.8353 27.1924 -2
      vertex -39.5441 27.2355 2
      vertex -39.5441 27.2355 -2
    endloop
  endfacet
  facet normal -0.146413 0.989224 0
    outer loop
      vertex -39.8353 27.1924 -2
      vertex -39.8353 27.1924 2
      vertex -39.5441 27.2355 2
    endloop
  endfacet
  facet normal -0.243255 0.969962 0
    outer loop
      vertex -40.1208 27.1208 -2
      vertex -39.8353 27.1924 2
      vertex -39.8353 27.1924 -2
    endloop
  endfacet
  facet normal -0.243255 0.969962 0
    outer loop
      vertex -40.1208 27.1208 -2
      vertex -40.1208 27.1208 2
      vertex -39.8353 27.1924 2
    endloop
  endfacet
  facet normal -0.336831 0.941565 0
    outer loop
      vertex -40.3981 27.0216 -2
      vertex -40.1208 27.1208 2
      vertex -40.1208 27.1208 -2
    endloop
  endfacet
  facet normal -0.336831 0.941565 0
    outer loop
      vertex -40.3981 27.0216 -2
      vertex -40.3981 27.0216 2
      vertex -40.1208 27.1208 2
    endloop
  endfacet
  facet normal -0.4274 0.904063 0
    outer loop
      vertex -40.6642 26.8958 -2
      vertex -40.3981 27.0216 2
      vertex -40.3981 27.0216 -2
    endloop
  endfacet
  facet normal -0.4274 0.904063 0
    outer loop
      vertex -40.6642 26.8958 -2
      vertex -40.6642 26.8958 2
      vertex -40.3981 27.0216 2
    endloop
  endfacet
  facet normal -0.514246 0.857643 0
    outer loop
      vertex -40.9167 26.7444 -2
      vertex -40.6642 26.8958 2
      vertex -40.6642 26.8958 -2
    endloop
  endfacet
  facet normal -0.514246 0.857643 0
    outer loop
      vertex -40.9167 26.7444 -2
      vertex -40.9167 26.7444 2
      vertex -40.6642 26.8958 2
    endloop
  endfacet
  facet normal -0.595699 0.803208 0
    outer loop
      vertex -41.1532 26.569 -2
      vertex -40.9167 26.7444 2
      vertex -40.9167 26.7444 -2
    endloop
  endfacet
  facet normal -0.595699 0.803208 0
    outer loop
      vertex -41.1532 26.569 -2
      vertex -41.1532 26.569 2
      vertex -40.9167 26.7444 2
    endloop
  endfacet
  facet normal -0.671607 0.740908 0
    outer loop
      vertex -41.3713 26.3713 -2
      vertex -41.1532 26.569 2
      vertex -41.1532 26.569 -2
    endloop
  endfacet
  facet normal -0.671607 0.740908 0
    outer loop
      vertex -41.3713 26.3713 -2
      vertex -41.3713 26.3713 2
      vertex -41.1532 26.569 2
    endloop
  endfacet
  facet normal -0.740908 0.671607 0
    outer loop
      vertex -41.569 26.1532 -2
      vertex -41.3713 26.3713 2
      vertex -41.3713 26.3713 -2
    endloop
  endfacet
  facet normal -0.740908 0.671607 0
    outer loop
      vertex -41.569 26.1532 -2
      vertex -41.569 26.1532 2
      vertex -41.3713 26.3713 2
    endloop
  endfacet
  facet normal -0.803208 0.595699 0
    outer loop
      vertex -41.7444 25.9167 -2
      vertex -41.569 26.1532 2
      vertex -41.569 26.1532 -2
    endloop
  endfacet
  facet normal -0.803208 0.595699 0
    outer loop
      vertex -41.7444 25.9167 -2
      vertex -41.7444 25.9167 2
      vertex -41.569 26.1532 2
    endloop
  endfacet
  facet normal -0.857643 0.514246 0
    outer loop
      vertex -41.8958 25.6642 -2
      vertex -41.7444 25.9167 2
      vertex -41.7444 25.9167 -2
    endloop
  endfacet
  facet normal -0.857643 0.514246 0
    outer loop
      vertex -41.8958 25.6642 -2
      vertex -41.8958 25.6642 2
      vertex -41.7444 25.9167 2
    endloop
  endfacet
  facet normal -0.904063 0.4274 0
    outer loop
      vertex -42.0216 25.3981 -2
      vertex -41.8958 25.6642 2
      vertex -41.8958 25.6642 -2
    endloop
  endfacet
  facet normal -0.904063 0.4274 0
    outer loop
      vertex -42.0216 25.3981 -2
      vertex -42.0216 25.3981 2
      vertex -41.8958 25.6642 2
    endloop
  endfacet
  facet normal -0.941565 0.336831 0
    outer loop
      vertex -42.1208 25.1208 -2
      vertex -42.0216 25.3981 2
      vertex -42.0216 25.3981 -2
    endloop
  endfacet
  facet normal -0.941565 0.336831 0
    outer loop
      vertex -42.1208 25.1208 -2
      vertex -42.1208 25.1208 2
      vertex -42.0216 25.3981 2
    endloop
  endfacet
  facet normal -0.969962 0.243255 0
    outer loop
      vertex -42.1924 24.8353 -2
      vertex -42.1208 25.1208 2
      vertex -42.1208 25.1208 -2
    endloop
  endfacet
  facet normal -0.969962 0.243255 0
    outer loop
      vertex -42.1924 24.8353 -2
      vertex -42.1924 24.8353 2
      vertex -42.1208 25.1208 2
    endloop
  endfacet
  facet normal -0.989224 0.146413 0
    outer loop
      vertex -42.2355 24.5441 -2
      vertex -42.1924 24.8353 2
      vertex -42.1924 24.8353 -2
    endloop
  endfacet
  facet normal -0.989224 0.146413 0
    outer loop
      vertex -42.2355 24.5441 -2
      vertex -42.2355 24.5441 2
      vertex -42.1924 24.8353 2
    endloop
  endfacet
  facet normal -0.998787 0.0492431 0
    outer loop
      vertex -42.25 24.25 -2
      vertex -42.2355 24.5441 2
      vertex -42.2355 24.5441 -2
    endloop
  endfacet
  facet normal -0.998787 0.0492431 0
    outer loop
      vertex -42.25 24.25 -2
      vertex -42.25 24.25 2
      vertex -42.2355 24.5441 2
    endloop
  endfacet
  facet normal -1 0 0
    outer loop
      vertex -42.25 -24.25 -2
      vertex -42.25 24.25 2
      vertex -42.25 24.25 -2
    endloop
  endfacet
  facet normal -1 0 0
    outer loop
      vertex -42.25 -24.25 -2
      vertex -42.25 -24.25 2
      vertex -42.25 24.25 2
    endloop
  endfacet
  facet normal -0.998787 -0.0492431 0
    outer loop
      vertex -42.2355 -24.5441 -2
      vertex -42.25 -24.25 2
      vertex -42.25 -24.25 -2
    endloop
  endfacet
  facet normal -0.998787 -0.0492431 0
    outer loop
      vertex -42.2355 -24.5441 -2
      vertex -42.2355 -24.5441 2
      vertex -42.25 -24.25 2
    endloop
  endfacet
  facet normal -0.989224 -0.146413 0
    outer loop
      vertex -42.1924 -24.8353 -2
      vertex -42.2355 -24.5441 2
      vertex -42.2355 -24.5441 -2
    endloop
  endfacet
  facet normal -0.989224 -0.146413 0
    outer loop
      vertex -42.1924 -24.8353 -2
      vertex -42.1924 -24.8353 2
      vertex -42.2355 -24.5441 2
    endloop
  endfacet
  facet normal -0.969962 -0.243255 0
    outer loop
      vertex -42.1208 -25.1208 -2
      vertex -42.1924 -24.8353 2
      vertex -42.1924 -24.8353 -2
    endloop
  endfacet
  facet normal -0.969962 -0.243255 0
    outer loop
      vertex -42.1208 -25.1208 -2
      vertex -42.1208 -25.1208 2
      vertex -42.1924 -24.8353 2
    endloop
  endfacet
  facet normal -0.941565 -0.336831 0
    outer loop
      vertex -42.0216 -25.3981 -2
      vertex -42.1208 -25.1208 2
      vertex -42.1208 -25.1208 -2
    endloop
  endfacet
  facet normal -0.941565 -0.336831 0
    outer loop
      vertex -42.0216 -25.3981 -2
      vertex -42.0216 -25.3981 2
      vertex -42.1208 -25.1208 2
    endloop
  endfacet
  facet normal -0.904063 -0.4274 0
    outer loop
      vertex -41.8958 -25.6642 -2
      vertex -42.0216 -25.3981 2
      vertex -42.0216 -25.3981 -2
    endloop
  endfacet
  facet normal -0.904063 -0.4274 0
    outer loop
      vertex -41.8958 -25.6642 -2
      vertex -41.8958 -25.6642 2
      vertex -42.0216 -25.3981 2
    endloop
  endfacet
  facet normal -0.857643 -0.514246 0
    outer loop
      vertex -41.7444 -25.9167 -2
      vertex -41.8958 -25.6642 2
      vertex -41.8958 -25.6642 -2
    endloop
  endfacet
  facet normal -0.857643 -0.514246 0
    outer loop
      vertex -41.7444 -25.9167 -2
      vertex -41.7444 -25.9167 2
      vertex -41.8958 -25.6642 2
    endloop
  endfacet
  facet normal -0.803208 -0.595699 0
    outer loop
      vertex -41.569 -26.1532 -2
      vertex -41.7444 -25.9167 2
      vertex -41.7444 -25.9167 -2
    endloop
  endfacet
  facet normal -0.803208 -0.595699 0
    outer loop
      vertex -41.569 -26.1532 -2
      vertex -41.569 -26.1532 2
      vertex -41.7444 -25.9167 2
    endloop
  endfacet
  facet normal -0.740908 -0.671607 0
    outer loop
      vertex -41.3713 -26.3713 -2
      vertex -41.569 -26.1532 2
      vertex -41.569 -26.1532 -2
    endloop
  endfacet
  facet normal -0.740908 -0.671607 0
    outer loop
      vertex -41.3713 -26.3713 -2
      vertex -41.3713 -26.3713 2
      vertex -41.569 -26.1532 2
    endloop
  endfacet
  facet normal -0.671607 -0.740908 0
    outer loop
      vertex -41.1532 -26.569 -2
      vertex -41.3713 -26.3713 2
      vertex -41.3713 -26.3713 -2
    endloop
  endfacet
  facet normal -0.671607 -0.740908 0
    outer loop
      vertex -41.1532 -26.569 -2
      vertex -41.1532 -26.569 2
      vertex -41.3713 -26.3713 2
    endloop
  endfacet
  facet normal -0.595699 -0.803208 0
    outer loop
      vertex -40.9167 -26.7444 -2
      vertex -41.1532 -26.569 2
      vertex -41.1532 -26.569 -2
    endloop
  endfacet
  facet normal -0.595699 -0.803208 0
    outer loop
      vertex -40.9167 -26.7444 -2
      vertex -40.9167 -26.7444 2
      vertex -41.1532 -26.569 2
    endloop
  endfacet
  facet normal -0.514246 -0.857643 0
    outer loop
      vertex -40.6642 -26.8958 -2
      vertex -40.9167 -26.7444 2
      vertex -40.9167 -26.7444 -2
    endloop
  endfacet
  facet normal -0.514246 -0.857643 0
    outer loop
      vertex -40.6642 -26.8958 -2
      vertex -40.6642 -26.8958 2
      vertex -40.9167 -26.7444 2
    endloop
  endfacet
  facet normal -0.4274 -0.904063 0
    outer loop
      vertex -40.3981 -27.0216 -2
      vertex -40.6642 -26.8958 2
      vertex -40.6642 -26.8958 -2
    endloop
  endfacet
  facet normal -0.4274 -0.904063 0
    outer loop
      vertex -40.3981 -27.0216 -2
      vertex -40.3981 -27.0216 2
      vertex -40.6642 -26.8958 2
    endloop
  endfacet
  facet normal -0.336831 -0.941565 0
    outer loop
      vertex -40.1208 -27.1208 -2
      vertex -40.3981 -27.0216 2
      vertex -40.3981 -27.0216 -2
    endloop
  endfacet
  facet normal -0.336831 -0.941565 0
    outer loop
      vertex -40.1208 -27.1208 -2
      vertex -40.1208 -27.1208 2
      vertex -40.3981 -27.0216 2
    endloop
  endfacet
  facet normal -0.243255 -0.969962 0
    outer loop
      vertex -39.8353 -27.1924 -2
      vertex -40.1208 -27.1208 2
      vertex -40.1208 -27.1208 -2
    endloop
  endfacet
  facet normal -0.243255 -0.969962 0
    outer loop
      vertex -39.8353 -27.1924 -2
      vertex -39.8353 -27.1924 2
      vertex -40.1208 -27.1208 2
    endloop
  endfacet
  facet normal -0.146413 -0.989224 0
    outer loop
      vertex -39.5441 -27.2355 -2
      vertex -39.8353 -27.1924 2
      vertex -39.8353 -27.1924 -2
    endloop
  endfacet
  facet normal -0.146413 -0.989224 0
    outer loop
      vertex -39.5441 -27.2355 -2
      vertex -39.5441 -27.2355 2
      vertex -39.8353 -27.1924 2
    endloop
  endfacet
  facet normal -0.0492431 -0.998787 0
    outer loop
      vertex -39.25 -27.25 -2
      vertex -39.5441 -27.2355 2
      vertex -39.5441 -27.2355 -2
    endloop
  endfacet
  facet normal -0.0492431 -0.998787 0
    outer loop
      vertex -39.25 -27.25 -2
      vertex -39.25 -27.25 2
      vertex -39.5441 -27.2355 2
    endloop
  endfacet
  facet normal 0 -1 0
    outer loop
      vertex 39.25 -27.25 -2
      vertex -39.25 -27.25 2
      vertex -39.25 -27.25 -2
    endloop
  endfacet
  facet normal 0 -1 0
    outer loop
      vertex 39.25 -27.25 -2
      vertex 39.25 -27.25 2
      vertex -39.25 -27.25 2
    endloop
  endfacet
  facet normal 0.0492431 -0.998787 0
    outer loop
      vertex 39.5441 -27.2355 -2
      vertex 39.25 -27.25 2
      vertex 39.25 -27.25 -2
    endloop
  endfacet
  facet normal 0.0492431 -0.998787 0
    outer loop
      vertex 39.5441 -27.2355 -2
      vertex 39.5441 -27.2355 2
      vertex 39.25 -27.25 2
    endloop
  endfacet
endsolid OpenSCAD_Model
