solid OpenSCAD_Model
  facet normal 1 -0 0
    outer loop
      vertex 200 0 120
      vertex 200 150 0
      vertex 200 150 120
    endloop
  endfacet
  facet normal 1 0 0
    outer loop
      vertex 200 150 0
      vertex 200 0 120
      vertex 200 0 0
    endloop
  endfacet
  facet normal 0 0 1
    outer loop
      vertex 200 150 120
      vertex 197 147 120
      vertex 200 0 120
    endloop
  endfacet
  facet normal 0 0 1
    outer loop
      vertex 200 150 120
      vertex 3 147 120
      vertex 197 147 120
    endloop
  endfacet
  facet normal 0 0 1
    outer loop
      vertex 3 147 120
      vertex 0 150 120
      vertex 3 3 120
    endloop
  endfacet
  facet normal -0 0 1
    outer loop
      vertex 0 150 120
      vertex 3 147 120
      vertex 200 150 120
    endloop
  endfacet
  facet normal -0 0 1
    outer loop
      vertex 197 3 120
      vertex 200 0 120
      vertex 197 147 120
    endloop
  endfacet
  facet normal -0 0 1
    outer loop
      vertex 3 3 120
      vertex 200 0 120
      vertex 197 3 120
    endloop
  endfacet
  facet normal 0 0 1
    outer loop
      vertex 3 3 120
      vertex 0 0 120
      vertex 200 0 120
    endloop
  endfacet
  facet normal 0 0 1
    outer loop
      vertex 0 0 120
      vertex 3 3 120
      vertex 0 150 120
    endloop
  endfacet
  facet normal 0 0 -1
    outer loop
      vertex 0 0 0
      vertex 200 150 0
      vertex 200 0 0
    endloop
  endfacet
  facet normal -0 0 -1
    outer loop
      vertex 200 150 0
      vertex 0 0 0
      vertex 0 150 0
    endloop
  endfacet
  facet normal -1 0 0
    outer loop
      vertex 0 0 0
      vertex 0 150 120
      vertex 0 150 0
    endloop
  endfacet
  facet normal -1 -0 0
    outer loop
      vertex 0 150 120
      vertex 0 0 0
      vertex 0 0 120
    endloop
  endfacet
  facet normal 0 1 -0
    outer loop
      vertex 200 150 0
      vertex 0 150 120
      vertex 200 150 120
    endloop
  endfacet
  facet normal 0 1 0
    outer loop
      vertex 0 150 120
      vertex 200 150 0
      vertex 0 150 0
    endloop
  endfacet
  facet normal 0 -1 0
    outer loop
      vertex 0 0 0
      vertex 200 0 120
      vertex 0 0 120
    endloop
  endfacet
  facet normal 0 -1 -0
    outer loop
      vertex 200 0 120
      vertex 0 0 0
      vertex 200 0 0
    endloop
  endfacet
  facet normal 1 -0 0
    outer loop
      vertex 197 3 121
      vertex 197 147 120
      vertex 197 147 121
    endloop
  endfacet
  facet normal 1 0 0
    outer loop
      vertex 197 147 120
      vertex 197 3 121
      vertex 197 3 120
    endloop
  endfacet
  facet normal -1 0 0
    outer loop
      vertex 3 3 120
      vertex 3 147 121
      vertex 3 147 120
    endloop
  endfacet
  facet normal -1 -0 0
    outer loop
      vertex 3 147 121
      vertex 3 3 120
      vertex 3 3 121
    endloop
  endfacet
  facet normal 0 1 -0
    outer loop
      vertex 197 147 120
      vertex 3 147 121
      vertex 197 147 121
    endloop
  endfacet
  facet normal 0 1 0
    outer loop
      vertex 3 147 121
      vertex 197 147 120
      vertex 3 147 120
    endloop
  endfacet
  facet normal 0 -1 0
    outer loop
      vertex 3 3 120
      vertex 197 3 121
      vertex 3 3 121
    endloop
  endfacet
  facet normal 0 -1 -0
    outer loop
      vertex 197 3 121
      vertex 3 3 120
      vertex 197 3 120
    endloop
  endfacet
  facet normal 1 -0 0
    outer loop
      vertex 203 -3 125
      vertex 203 153 120
      vertex 203 153 125
    endloop
  endfacet
  facet normal 1 0 0
    outer loop
      vertex 203 153 120
      vertex 203 -3 125
      vertex 203 -3 120
    endloop
  endfacet
  facet normal 0 0 1
    outer loop
      vertex 203 153 125
      vertex 200 150 125
      vertex 203 -3 125
    endloop
  endfacet
  facet normal 0 0 1
    outer loop
      vertex 203 153 125
      vertex 0 150 125
      vertex 200 150 125
    endloop
  endfacet
  facet normal 0 0 1
    outer loop
      vertex 0 150 125
      vertex -3 153 125
      vertex 0 0 125
    endloop
  endfacet
  facet normal -0 0 1
    outer loop
      vertex -3 153 125
      vertex 0 150 125
      vertex 203 153 125
    endloop
  endfacet
  facet normal -0 0 1
    outer loop
      vertex 200 0 125
      vertex 203 -3 125
      vertex 200 150 125
    endloop
  endfacet
  facet normal -0 0 1
    outer loop
      vertex 0 0 125
      vertex 203 -3 125
      vertex 200 0 125
    endloop
  endfacet
  facet normal 0 0 1
    outer loop
      vertex 0 0 125
      vertex -3 -3 125
      vertex 203 -3 125
    endloop
  endfacet
  facet normal 0 0 1
    outer loop
      vertex -3 -3 125
      vertex 0 0 125
      vertex -3 153 125
    endloop
  endfacet
  facet normal 0 0 -1
    outer loop
      vertex 203 -3 120
      vertex 200 0 120
      vertex 203 153 120
    endloop
  endfacet
  facet normal 0 0 -1
    outer loop
      vertex 203 -3 120
      vertex 0 0 120
      vertex 200 0 120
    endloop
  endfacet
  facet normal -0 0 -1
    outer loop
      vertex 0 0 120
      vertex -3 -3 120
      vertex 0 150 120
    endloop
  endfacet
  facet normal 0 0 -1
    outer loop
      vertex -3 -3 120
      vertex 0 0 120
      vertex 203 -3 120
    endloop
  endfacet
  facet normal 0 0 -1
    outer loop
      vertex 200 150 120
      vertex 203 153 120
      vertex 200 0 120
    endloop
  endfacet
  facet normal 0 0 -1
    outer loop
      vertex 0 150 120
      vertex 203 153 120
      vertex 200 150 120
    endloop
  endfacet
  facet normal 0 0 -1
    outer loop
      vertex 0 150 120
      vertex -3 153 120
      vertex 203 153 120
    endloop
  endfacet
  facet normal 0 0 -1
    outer loop
      vertex -3 153 120
      vertex 0 150 120
      vertex -3 -3 120
    endloop
  endfacet
  facet normal -1 0 0
    outer loop
      vertex -3 -3 120
      vertex -3 153 125
      vertex -3 153 120
    endloop
  endfacet
  facet normal -1 -0 0
    outer loop
      vertex -3 153 125
      vertex -3 -3 120
      vertex -3 -3 125
    endloop
  endfacet
  facet normal 0 1 -0
    outer loop
      vertex 203 153 120
      vertex -3 153 125
      vertex 203 153 125
    endloop
  endfacet
  facet normal 0 1 0
    outer loop
      vertex -3 153 125
      vertex 203 153 120
      vertex -3 153 120
    endloop
  endfacet
  facet normal 0 -1 0
    outer loop
      vertex -3 -3 120
      vertex 203 -3 125
      vertex -3 -3 125
    endloop
  endfacet
  facet normal 0 -1 -0
    outer loop
      vertex 203 -3 125
      vertex -3 -3 120
      vertex 203 -3 120
    endloop
  endfacet
  facet normal -1 0 0
    outer loop
      vertex 200 0 120
      vertex 200 150 125
      vertex 200 150 120
    endloop
  endfacet
  facet normal -1 -0 0
    outer loop
      vertex 200 150 125
      vertex 200 0 120
      vertex 200 0 125
    endloop
  endfacet
  facet normal 1 -0 0
    outer loop
      vertex 0 0 125
      vertex 0 150 120
      vertex 0 150 125
    endloop
  endfacet
  facet normal 1 0 0
    outer loop
      vertex 0 150 120
      vertex 0 0 125
      vertex 0 0 120
    endloop
  endfacet
  facet normal 0 -1 0
    outer loop
      vertex 0 150 120
      vertex 200 150 125
      vertex 0 150 125
    endloop
  endfacet
  facet normal 0 -1 -0
    outer loop
      vertex 200 150 125
      vertex 0 150 120
      vertex 200 150 120
    endloop
  endfacet
  facet normal 0 1 -0
    outer loop
      vertex 200 0 120
      vertex 0 0 125
      vertex 200 0 125
    endloop
  endfacet
  facet normal 0 1 0
    outer loop
      vertex 0 0 125
      vertex 200 0 120
      vertex 0 0 120
    endloop
  endfacet
  facet normal -0 0 1
    outer loop
      vertex 3 147 121
      vertex 197 3 121
      vertex 197 147 121
    endloop
  endfacet
  facet normal 0 0 1
    outer loop
      vertex 197 3 121
      vertex 3 147 121
      vertex 3 3 121
    endloop
  endfacet
endsolid OpenSCAD_Model
