solid OpenSCAD_Model
  facet normal 1 0 0
    outer loop
      vertex -181.25 -198.75 393
      vertex -181.25 -181.25 428
      vertex -181.25 -198.75 428
    endloop
  endfacet
  facet normal 1 0 0
    outer loop
      vertex -181.25 -181.25 428
      vertex -181.25 -198.75 393
      vertex -181.25 -181.25 0
    endloop
  endfacet
  facet normal 1 0 0
    outer loop
      vertex -181.25 -216.25 0
      vertex -181.25 -198.75 393
      vertex -181.25 -216.25 393
    endloop
  endfacet
  facet normal 1 0 0
    outer loop
      vertex -181.25 -198.75 393
      vertex -181.25 -216.25 0
      vertex -181.25 -181.25 0
    endloop
  endfacet
  facet normal 0 0 -1
    outer loop
      vertex -216.25 -216.25 0
      vertex -181.25 -181.25 0
      vertex -181.25 -216.25 0
    endloop
  endfacet
  facet normal -0 0 -1
    outer loop
      vertex -181.25 -181.25 0
      vertex -216.25 -216.25 0
      vertex -216.25 -181.25 0
    endloop
  endfacet
  facet normal -1 0 0
    outer loop
      vertex -216.25 -181.25 0
      vertex -216.25 -216.25 0
      vertex -216.25 -181.25 393
    endloop
  endfacet
  facet normal -1 0 0
    outer loop
      vertex -216.25 181.25 393
      vertex -216.25 216.25 0
      vertex -216.25 181.25 0
    endloop
  endfacet
  facet normal -1 0 0
    outer loop
      vertex -216.25 216.25 0
      vertex -216.25 181.25 393
      vertex -216.25 216.25 428
    endloop
  endfacet
  facet normal -1 0 0
    outer loop
      vertex -216.25 -181.25 393
      vertex -216.25 216.25 428
      vertex -216.25 181.25 393
    endloop
  endfacet
  facet normal -1 0 0
    outer loop
      vertex -216.25 -181.25 393
      vertex -216.25 -216.25 428
      vertex -216.25 216.25 428
    endloop
  endfacet
  facet normal -1 0 0
    outer loop
      vertex -216.25 -216.25 428
      vertex -216.25 -181.25 393
      vertex -216.25 -216.25 0
    endloop
  endfacet
  facet normal -1 0 0
    outer loop
      vertex -216.25 181.25 450
      vertex -216.25 216.25 692
      vertex -216.25 216.25 450
    endloop
  endfacet
  facet normal -1 -0 0
    outer loop
      vertex -216.25 216.25 692
      vertex -216.25 181.25 450
      vertex -216.25 181.25 692
    endloop
  endfacet
  facet normal 0 1 0
    outer loop
      vertex -181.25 -181.25 428
      vertex -198.75 -181.25 393
      vertex -198.75 -181.25 428
    endloop
  endfacet
  facet normal 0 1 -0
    outer loop
      vertex -181.25 -181.25 0
      vertex -198.75 -181.25 393
      vertex -181.25 -181.25 428
    endloop
  endfacet
  facet normal 0 1 0
    outer loop
      vertex -216.25 -181.25 0
      vertex -198.75 -181.25 393
      vertex -181.25 -181.25 0
    endloop
  endfacet
  facet normal 0 1 0
    outer loop
      vertex -198.75 -181.25 393
      vertex -216.25 -181.25 0
      vertex -216.25 -181.25 393
    endloop
  endfacet
  facet normal 0 -1 0
    outer loop
      vertex -216.25 -216.25 428
      vertex -181.25 -216.25 393
      vertex 216.25 -216.25 428
    endloop
  endfacet
  facet normal 0 -1 0
    outer loop
      vertex -216.25 -216.25 0
      vertex -181.25 -216.25 393
      vertex -216.25 -216.25 428
    endloop
  endfacet
  facet normal 0 -1 -0
    outer loop
      vertex -181.25 -216.25 393
      vertex -216.25 -216.25 0
      vertex -181.25 -216.25 0
    endloop
  endfacet
  facet normal 0 -1 0
    outer loop
      vertex 181.25 -216.25 393
      vertex 216.25 -216.25 428
      vertex -181.25 -216.25 393
    endloop
  endfacet
  facet normal 0 -1 0
    outer loop
      vertex 216.25 -216.25 0
      vertex 181.25 -216.25 393
      vertex 181.25 -216.25 0
    endloop
  endfacet
  facet normal 0 -1 0
    outer loop
      vertex 181.25 -216.25 393
      vertex 216.25 -216.25 0
      vertex 216.25 -216.25 428
    endloop
  endfacet
  facet normal 1 0 0
    outer loop
      vertex 216.25 216.25 428
      vertex 216.25 181.25 393
      vertex 216.25 216.25 0
    endloop
  endfacet
  facet normal 1 0 0
    outer loop
      vertex 216.25 216.25 428
      vertex 216.25 -181.25 393
      vertex 216.25 181.25 393
    endloop
  endfacet
  facet normal 1 -0 0
    outer loop
      vertex 216.25 -216.25 428
      vertex 216.25 -181.25 393
      vertex 216.25 216.25 428
    endloop
  endfacet
  facet normal 1 0 0
    outer loop
      vertex 216.25 -216.25 0
      vertex 216.25 -181.25 393
      vertex 216.25 -216.25 428
    endloop
  endfacet
  facet normal 1 0 0
    outer loop
      vertex 216.25 -181.25 393
      vertex 216.25 -216.25 0
      vertex 216.25 -181.25 0
    endloop
  endfacet
  facet normal 1 0 0
    outer loop
      vertex 216.25 216.25 0
      vertex 216.25 181.25 393
      vertex 216.25 181.25 0
    endloop
  endfacet
  facet normal 1 -0 0
    outer loop
      vertex 216.25 181.25 692
      vertex 216.25 216.25 450
      vertex 216.25 216.25 692
    endloop
  endfacet
  facet normal 1 0 0
    outer loop
      vertex 216.25 216.25 450
      vertex 216.25 181.25 692
      vertex 216.25 181.25 450
    endloop
  endfacet
  facet normal 0 0 -1
    outer loop
      vertex 181.25 -216.25 0
      vertex 216.25 -181.25 0
      vertex 216.25 -216.25 0
    endloop
  endfacet
  facet normal -0 0 -1
    outer loop
      vertex 216.25 -181.25 0
      vertex 181.25 -216.25 0
      vertex 181.25 -181.25 0
    endloop
  endfacet
  facet normal -1 0 0
    outer loop
      vertex 181.25 -181.25 0
      vertex 181.25 -198.75 393
      vertex 181.25 -181.25 428
    endloop
  endfacet
  facet normal -1 0 0
    outer loop
      vertex 181.25 -216.25 0
      vertex 181.25 -198.75 393
      vertex 181.25 -181.25 0
    endloop
  endfacet
  facet normal -1 -0 0
    outer loop
      vertex 181.25 -198.75 393
      vertex 181.25 -216.25 0
      vertex 181.25 -216.25 393
    endloop
  endfacet
  facet normal -1 -0 0
    outer loop
      vertex 181.25 -181.25 428
      vertex 181.25 -198.75 393
      vertex 181.25 -198.75 428
    endloop
  endfacet
  facet normal 0 1 0
    outer loop
      vertex 216.25 -181.25 393
      vertex 216.25 -181.25 0
      vertex 198.75 -181.25 393
    endloop
  endfacet
  facet normal 0 1 -0
    outer loop
      vertex 198.75 -181.25 393
      vertex 181.25 -181.25 428
      vertex 198.75 -181.25 428
    endloop
  endfacet
  facet normal 0 1 0
    outer loop
      vertex 181.25 -181.25 0
      vertex 198.75 -181.25 393
      vertex 216.25 -181.25 0
    endloop
  endfacet
  facet normal 0 1 0
    outer loop
      vertex 198.75 -181.25 393
      vertex 181.25 -181.25 0
      vertex 181.25 -181.25 428
    endloop
  endfacet
  facet normal 1 0 0
    outer loop
      vertex -181.25 198.75 428
      vertex -181.25 181.25 428
      vertex -181.25 198.75 393
    endloop
  endfacet
  facet normal 1 -0 0
    outer loop
      vertex -181.25 198.75 393
      vertex -181.25 216.25 0
      vertex -181.25 216.25 393
    endloop
  endfacet
  facet normal 1 0 0
    outer loop
      vertex -181.25 181.25 0
      vertex -181.25 198.75 393
      vertex -181.25 181.25 428
    endloop
  endfacet
  facet normal 1 0 0
    outer loop
      vertex -181.25 198.75 393
      vertex -181.25 181.25 0
      vertex -181.25 216.25 0
    endloop
  endfacet
  facet normal 1 -0 0
    outer loop
      vertex -181.25 181.25 692
      vertex -181.25 216.25 450
      vertex -181.25 216.25 692
    endloop
  endfacet
  facet normal 1 0 0
    outer loop
      vertex -181.25 216.25 450
      vertex -181.25 181.25 692
      vertex -181.25 181.25 450
    endloop
  endfacet
  facet normal 0 0 -1
    outer loop
      vertex -216.25 181.25 0
      vertex -181.25 216.25 0
      vertex -181.25 181.25 0
    endloop
  endfacet
  facet normal -0 0 -1
    outer loop
      vertex -181.25 216.25 0
      vertex -216.25 181.25 0
      vertex -216.25 216.25 0
    endloop
  endfacet
  facet normal 0 1 0
    outer loop
      vertex 216.25 216.25 428
      vertex 181.25 216.25 393
      vertex -216.25 216.25 428
    endloop
  endfacet
  facet normal 0 1 -0
    outer loop
      vertex 216.25 216.25 0
      vertex 181.25 216.25 393
      vertex 216.25 216.25 428
    endloop
  endfacet
  facet normal 0 1 0
    outer loop
      vertex 181.25 216.25 393
      vertex 216.25 216.25 0
      vertex 181.25 216.25 0
    endloop
  endfacet
  facet normal 0 1 -0
    outer loop
      vertex -181.25 216.25 393
      vertex -216.25 216.25 428
      vertex 181.25 216.25 393
    endloop
  endfacet
  facet normal 0 1 0
    outer loop
      vertex -216.25 216.25 0
      vertex -181.25 216.25 393
      vertex -181.25 216.25 0
    endloop
  endfacet
  facet normal 0 1 0
    outer loop
      vertex -181.25 216.25 393
      vertex -216.25 216.25 0
      vertex -216.25 216.25 428
    endloop
  endfacet
  facet normal 0 1 -0
    outer loop
      vertex -181.25 216.25 450
      vertex -216.25 216.25 692
      vertex -181.25 216.25 692
    endloop
  endfacet
  facet normal 0 1 0
    outer loop
      vertex -216.25 216.25 692
      vertex -181.25 216.25 450
      vertex -216.25 216.25 450
    endloop
  endfacet
  facet normal 0 1 -0
    outer loop
      vertex 216.25 216.25 450
      vertex 181.25 216.25 692
      vertex 216.25 216.25 692
    endloop
  endfacet
  facet normal 0 1 0
    outer loop
      vertex 181.25 216.25 692
      vertex 216.25 216.25 450
      vertex 181.25 216.25 450
    endloop
  endfacet
  facet normal 0 -1 0
    outer loop
      vertex -216.25 181.25 393
      vertex -216.25 181.25 0
      vertex -198.75 181.25 393
    endloop
  endfacet
  facet normal 0 -1 0
    outer loop
      vertex -198.75 181.25 393
      vertex -181.25 181.25 428
      vertex -198.75 181.25 428
    endloop
  endfacet
  facet normal 0 -1 0
    outer loop
      vertex -181.25 181.25 0
      vertex -198.75 181.25 393
      vertex -216.25 181.25 0
    endloop
  endfacet
  facet normal 0 -1 0
    outer loop
      vertex -198.75 181.25 393
      vertex -181.25 181.25 0
      vertex -181.25 181.25 428
    endloop
  endfacet
  facet normal 0 -1 0
    outer loop
      vertex -216.25 181.25 450
      vertex -181.25 181.25 692
      vertex -216.25 181.25 692
    endloop
  endfacet
  facet normal 0 -1 -0
    outer loop
      vertex -181.25 181.25 692
      vertex -216.25 181.25 450
      vertex -181.25 181.25 450
    endloop
  endfacet
  facet normal 0 0 -1
    outer loop
      vertex 181.25 181.25 0
      vertex 216.25 216.25 0
      vertex 216.25 181.25 0
    endloop
  endfacet
  facet normal -0 0 -1
    outer loop
      vertex 216.25 216.25 0
      vertex 181.25 181.25 0
      vertex 181.25 216.25 0
    endloop
  endfacet
  facet normal -1 0 0
    outer loop
      vertex 181.25 216.25 0
      vertex 181.25 198.75 393
      vertex 181.25 216.25 393
    endloop
  endfacet
  facet normal -1 0 0
    outer loop
      vertex 181.25 181.25 0
      vertex 181.25 198.75 393
      vertex 181.25 216.25 0
    endloop
  endfacet
  facet normal -1 0 0
    outer loop
      vertex 181.25 181.25 428
      vertex 181.25 198.75 393
      vertex 181.25 181.25 0
    endloop
  endfacet
  facet normal -1 0 0
    outer loop
      vertex 181.25 198.75 393
      vertex 181.25 181.25 428
      vertex 181.25 198.75 428
    endloop
  endfacet
  facet normal -1 0 0
    outer loop
      vertex 181.25 181.25 450
      vertex 181.25 216.25 692
      vertex 181.25 216.25 450
    endloop
  endfacet
  facet normal -1 -0 0
    outer loop
      vertex 181.25 216.25 692
      vertex 181.25 181.25 450
      vertex 181.25 181.25 692
    endloop
  endfacet
  facet normal 0 -1 0
    outer loop
      vertex 181.25 181.25 428
      vertex 198.75 181.25 393
      vertex 198.75 181.25 428
    endloop
  endfacet
  facet normal 0 -1 0
    outer loop
      vertex 181.25 181.25 0
      vertex 198.75 181.25 393
      vertex 181.25 181.25 428
    endloop
  endfacet
  facet normal 0 -1 0
    outer loop
      vertex 216.25 181.25 0
      vertex 198.75 181.25 393
      vertex 181.25 181.25 0
    endloop
  endfacet
  facet normal 0 -1 0
    outer loop
      vertex 198.75 181.25 393
      vertex 216.25 181.25 0
      vertex 216.25 181.25 393
    endloop
  endfacet
  facet normal 0 -1 0
    outer loop
      vertex 181.25 181.25 450
      vertex 216.25 181.25 692
      vertex 181.25 181.25 692
    endloop
  endfacet
  facet normal 0 -1 -0
    outer loop
      vertex 216.25 181.25 692
      vertex 181.25 181.25 450
      vertex 216.25 181.25 450
    endloop
  endfacet
  facet normal 0 0 -1
    outer loop
      vertex -216.25 -181.25 393
      vertex -198.75 181.25 393
      vertex -198.75 -181.25 393
    endloop
  endfacet
  facet normal -0 0 -1
    outer loop
      vertex -198.75 181.25 393
      vertex -216.25 -181.25 393
      vertex -216.25 181.25 393
    endloop
  endfacet
  facet normal 0 0 -1
    outer loop
      vertex -181.25 198.75 393
      vertex 181.25 216.25 393
      vertex 181.25 198.75 393
    endloop
  endfacet
  facet normal -0 0 -1
    outer loop
      vertex 181.25 216.25 393
      vertex -181.25 198.75 393
      vertex -181.25 216.25 393
    endloop
  endfacet
  facet normal 0 0 -1
    outer loop
      vertex 198.75 -181.25 393
      vertex 216.25 181.25 393
      vertex 216.25 -181.25 393
    endloop
  endfacet
  facet normal -0 0 -1
    outer loop
      vertex 216.25 181.25 393
      vertex 198.75 -181.25 393
      vertex 198.75 181.25 393
    endloop
  endfacet
  facet normal 0 0 -1
    outer loop
      vertex -181.25 -216.25 393
      vertex 181.25 -198.75 393
      vertex 181.25 -216.25 393
    endloop
  endfacet
  facet normal -0 0 -1
    outer loop
      vertex 181.25 -198.75 393
      vertex -181.25 -216.25 393
      vertex -181.25 -198.75 393
    endloop
  endfacet
  facet normal 0 1 -0
    outer loop
      vertex 181.25 -198.75 393
      vertex -181.25 -198.75 428
      vertex 181.25 -198.75 428
    endloop
  endfacet
  facet normal 0 1 0
    outer loop
      vertex -181.25 -198.75 428
      vertex 181.25 -198.75 393
      vertex -181.25 -198.75 393
    endloop
  endfacet
  facet normal 0 -1 0
    outer loop
      vertex -181.25 198.75 393
      vertex 181.25 198.75 428
      vertex -181.25 198.75 428
    endloop
  endfacet
  facet normal 0 -1 -0
    outer loop
      vertex 181.25 198.75 428
      vertex -181.25 198.75 393
      vertex 181.25 198.75 393
    endloop
  endfacet
  facet normal 1 -0 0
    outer loop
      vertex -198.75 -181.25 428
      vertex -198.75 181.25 393
      vertex -198.75 181.25 428
    endloop
  endfacet
  facet normal 1 0 0
    outer loop
      vertex -198.75 181.25 393
      vertex -198.75 -181.25 428
      vertex -198.75 -181.25 393
    endloop
  endfacet
  facet normal -1 0 0
    outer loop
      vertex 198.75 -181.25 393
      vertex 198.75 181.25 428
      vertex 198.75 181.25 393
    endloop
  endfacet
  facet normal -1 -0 0
    outer loop
      vertex 198.75 181.25 428
      vertex 198.75 -181.25 393
      vertex 198.75 -181.25 428
    endloop
  endfacet
  facet normal -0 0 1
    outer loop
      vertex -216.25 216.25 692
      vertex -181.25 181.25 692
      vertex -181.25 216.25 692
    endloop
  endfacet
  facet normal 0 0 1
    outer loop
      vertex -181.25 181.25 692
      vertex -216.25 216.25 692
      vertex -216.25 181.25 692
    endloop
  endfacet
  facet normal -0 0 1
    outer loop
      vertex 181.25 216.25 692
      vertex 216.25 181.25 692
      vertex 216.25 216.25 692
    endloop
  endfacet
  facet normal 0 0 1
    outer loop
      vertex 216.25 181.25 692
      vertex 181.25 216.25 692
      vertex 181.25 181.25 692
    endloop
  endfacet
  facet normal 1 -0 0
    outer loop
      vertex 225 223 450
      vertex 225 245 448
      vertex 225 245 850
    endloop
  endfacet
  facet normal 1 0 0
    outer loop
      vertex 225 223 450
      vertex 225 245 850
      vertex 225 223 850
    endloop
  endfacet
  facet normal 1 0 0
    outer loop
      vertex 225 245 448
      vertex 225 223 450
      vertex 225 225 448
    endloop
  endfacet
  facet normal 1 0 0
    outer loop
      vertex 225 225 448
      vertex 225 223 450
      vertex 225 225 428
    endloop
  endfacet
  facet normal 1 0 0
    outer loop
      vertex 225 -225 428
      vertex 225 223 450
      vertex 225 -225 450
    endloop
  endfacet
  facet normal 1 0 0
    outer loop
      vertex 225 223 450
      vertex 225 -225 428
      vertex 225 225 428
    endloop
  endfacet
  facet normal 0 0 1
    outer loop
      vertex 216.25 181.25 450
      vertex 225 223 450
      vertex 216.25 216.25 450
    endloop
  endfacet
  facet normal 0 0 1
    outer loop
      vertex 225 223 450
      vertex 181.25 216.25 450
      vertex 216.25 216.25 450
    endloop
  endfacet
  facet normal 0 0 1
    outer loop
      vertex 181.25 216.25 450
      vertex -181.25 216.25 450
      vertex 181.25 181.25 450
    endloop
  endfacet
  facet normal 0 0 1
    outer loop
      vertex 225 223 450
      vertex -181.25 216.25 450
      vertex 181.25 216.25 450
    endloop
  endfacet
  facet normal -0 0 1
    outer loop
      vertex -225 223 450
      vertex -181.25 216.25 450
      vertex 225 223 450
    endloop
  endfacet
  facet normal 0 0 1
    outer loop
      vertex -216.25 216.25 450
      vertex -225 223 450
      vertex -216.25 181.25 450
    endloop
  endfacet
  facet normal 0 0 1
    outer loop
      vertex -181.25 216.25 450
      vertex -225 223 450
      vertex -216.25 216.25 450
    endloop
  endfacet
  facet normal 0 0 1
    outer loop
      vertex 225 223 450
      vertex 216.25 181.25 450
      vertex 225 -225 450
    endloop
  endfacet
  facet normal -0 0 1
    outer loop
      vertex 181.25 181.25 450
      vertex 225 -225 450
      vertex 216.25 181.25 450
    endloop
  endfacet
  facet normal 0 0 1
    outer loop
      vertex -181.25 181.25 450
      vertex 181.25 181.25 450
      vertex -181.25 216.25 450
    endloop
  endfacet
  facet normal 0 0 1
    outer loop
      vertex 181.25 181.25 450
      vertex -181.25 181.25 450
      vertex 225 -225 450
    endloop
  endfacet
  facet normal 0 0 1
    outer loop
      vertex -225 -225 450
      vertex -181.25 181.25 450
      vertex -216.25 181.25 450
    endloop
  endfacet
  facet normal 0 0 1
    outer loop
      vertex -181.25 181.25 450
      vertex -225 -225 450
      vertex 225 -225 450
    endloop
  endfacet
  facet normal 0 0 1
    outer loop
      vertex -225 -225 450
      vertex -216.25 181.25 450
      vertex -225 223 450
    endloop
  endfacet
  facet normal 0 0 -1
    outer loop
      vertex 225 -225 428
      vertex 216.25 -216.25 428
      vertex 225 225 428
    endloop
  endfacet
  facet normal 0 0 -1
    outer loop
      vertex 225 -225 428
      vertex -216.25 -216.25 428
      vertex 216.25 -216.25 428
    endloop
  endfacet
  facet normal -0 0 -1
    outer loop
      vertex -216.25 -216.25 428
      vertex -225 -225 428
      vertex -216.25 216.25 428
    endloop
  endfacet
  facet normal 0 0 -1
    outer loop
      vertex -225 -225 428
      vertex -216.25 -216.25 428
      vertex 225 -225 428
    endloop
  endfacet
  facet normal 0 0 -1
    outer loop
      vertex 216.25 216.25 428
      vertex 225 225 428
      vertex 216.25 -216.25 428
    endloop
  endfacet
  facet normal 0 0 -1
    outer loop
      vertex -216.25 216.25 428
      vertex 225 225 428
      vertex 216.25 216.25 428
    endloop
  endfacet
  facet normal 0 0 -1
    outer loop
      vertex -216.25 216.25 428
      vertex -225 225 428
      vertex 225 225 428
    endloop
  endfacet
  facet normal 0 0 -1
    outer loop
      vertex -225 225 428
      vertex -216.25 216.25 428
      vertex -225 -225 428
    endloop
  endfacet
  facet normal 0 0 -1
    outer loop
      vertex -198.75 -181.25 428
      vertex -181.25 181.25 428
      vertex -181.25 -181.25 428
    endloop
  endfacet
  facet normal -0 0 -1
    outer loop
      vertex -181.25 181.25 428
      vertex -198.75 -181.25 428
      vertex -198.75 181.25 428
    endloop
  endfacet
  facet normal 0 0 -1
    outer loop
      vertex -181.25 -181.25 428
      vertex 181.25 -181.25 428
      vertex 181.25 -198.75 428
    endloop
  endfacet
  facet normal 0 0 -1
    outer loop
      vertex 181.25 -181.25 428
      vertex -181.25 -181.25 428
      vertex 181.25 181.25 428
    endloop
  endfacet
  facet normal 0 0 -1
    outer loop
      vertex -181.25 -181.25 428
      vertex 181.25 -198.75 428
      vertex -181.25 -198.75 428
    endloop
  endfacet
  facet normal 0 0 -1
    outer loop
      vertex -181.25 181.25 428
      vertex 181.25 181.25 428
      vertex -181.25 -181.25 428
    endloop
  endfacet
  facet normal 0 0 -1
    outer loop
      vertex 181.25 181.25 428
      vertex -181.25 181.25 428
      vertex 181.25 198.75 428
    endloop
  endfacet
  facet normal -0 0 -1
    outer loop
      vertex 181.25 198.75 428
      vertex -181.25 181.25 428
      vertex -181.25 198.75 428
    endloop
  endfacet
  facet normal 0 0 -1
    outer loop
      vertex 181.25 -181.25 428
      vertex 198.75 181.25 428
      vertex 198.75 -181.25 428
    endloop
  endfacet
  facet normal -0 0 -1
    outer loop
      vertex 198.75 181.25 428
      vertex 181.25 -181.25 428
      vertex 181.25 181.25 428
    endloop
  endfacet
  facet normal -1 0 0
    outer loop
      vertex -225 225 428
      vertex -225 223 450
      vertex -225 225 448
    endloop
  endfacet
  facet normal -1 0 0
    outer loop
      vertex -225 -225 428
      vertex -225 223 450
      vertex -225 225 428
    endloop
  endfacet
  facet normal -1 -0 0
    outer loop
      vertex -225 223 450
      vertex -225 -225 428
      vertex -225 -225 450
    endloop
  endfacet
  facet normal -1 0 0
    outer loop
      vertex -225 223 450
      vertex -225 245 448
      vertex -225 225 448
    endloop
  endfacet
  facet normal -1 0 0
    outer loop
      vertex -225 245 448
      vertex -225 223 450
      vertex -225 245 850
    endloop
  endfacet
  facet normal -1 -0 0
    outer loop
      vertex -225 245 850
      vertex -225 223 450
      vertex -225 223 850
    endloop
  endfacet
  facet normal 0 1 -0
    outer loop
      vertex 225 225 428
      vertex -225 225 448
      vertex 225 225 448
    endloop
  endfacet
  facet normal 0 1 0
    outer loop
      vertex -225 225 448
      vertex 225 225 428
      vertex -225 225 428
    endloop
  endfacet
  facet normal 0 -1 0
    outer loop
      vertex -225 -225 428
      vertex 225 -225 450
      vertex -225 -225 450
    endloop
  endfacet
  facet normal 0 -1 -0
    outer loop
      vertex 225 -225 450
      vertex -225 -225 428
      vertex 225 -225 428
    endloop
  endfacet
  facet normal -0 0 1
    outer loop
      vertex -225 245 850
      vertex 225 223 850
      vertex 225 245 850
    endloop
  endfacet
  facet normal 0 0 1
    outer loop
      vertex 225 223 850
      vertex -225 245 850
      vertex -225 223 850
    endloop
  endfacet
  facet normal 0 0 -1
    outer loop
      vertex -225 225 448
      vertex 225 245 448
      vertex 225 225 448
    endloop
  endfacet
  facet normal -0 0 -1
    outer loop
      vertex 225 245 448
      vertex -225 225 448
      vertex -225 245 448
    endloop
  endfacet
  facet normal 0 1 -0
    outer loop
      vertex 225 245 448
      vertex -225 245 850
      vertex 225 245 850
    endloop
  endfacet
  facet normal 0 1 0
    outer loop
      vertex -225 245 850
      vertex 225 245 448
      vertex -225 245 448
    endloop
  endfacet
  facet normal 0 -1 0
    outer loop
      vertex -225 223 450
      vertex 225 223 850
      vertex -225 223 850
    endloop
  endfacet
  facet normal 0 -1 -0
    outer loop
      vertex 225 223 850
      vertex -225 223 450
      vertex 225 223 450
    endloop
  endfacet
endsolid OpenSCAD_Model
