solid OpenSCAD_Model
  facet normal -0 0 -1
    outer loop
      vertex -7 7.48547 -50
      vertex -7.33157 7.37427 -50
      vertex -7.11966 7.48547 -50
    endloop
  endfacet
  facet normal 0 0 -1
    outer loop
      vertex -4.75 -6.5 -50
      vertex -3.10001 -6.5 -50
      vertex -3.10001 -7.5 -50
    endloop
  endfacet
  facet normal -0 -0 -1
    outer loop
      vertex 7.17731 7.46751 -50
      vertex 7.37427 7.33157 -50
      vertex 7 7.48904 -50
    endloop
  endfacet
  facet normal 0 0 -1
    outer loop
      vertex -7.37427 -7.33157 -50
      vertex -7.48547 -7.11966 -50
      vertex -7.48547 -7 -50
    endloop
  endfacet
  facet normal 0 0 -1
    outer loop
      vertex 7.48904 -7 -50
      vertex 7.33157 -7.37427 -50
      vertex 7 -7.48547 -50
    endloop
  endfacet
  facet normal 0 0 -1
    outer loop
      vertex 7 -7.5 -50
      vertex 4.75 -6.5 -50
      vertex 7 -7.48547 -50
    endloop
  endfacet
  facet normal 0 0 -1
    outer loop
      vertex 3.10001 -7.5 -50
      vertex 3.10001 -6.5 -50
      vertex 4.75 -6.5 -50
    endloop
  endfacet
  facet normal 0 0 -1
    outer loop
      vertex 7 -7.5 -50
      vertex 3.10001 -7.5 -50
      vertex 4.75 -6.5 -50
    endloop
  endfacet
  facet normal 0 0 -1
    outer loop
      vertex 7 -7.48547 -50
      vertex 7.33157 -7.37427 -50
      vertex 7.11966 -7.48547 -50
    endloop
  endfacet
  facet normal 0 0 -1
    outer loop
      vertex 7.48904 -7 -50
      vertex 7.46751 -7.17731 -50
      vertex 7.33157 -7.37427 -50
    endloop
  endfacet
  facet normal 0 0 -1
    outer loop
      vertex 6.5 -4.75 -50
      vertex 7.48904 -7 -50
      vertex 7 -7.48547 -50
    endloop
  endfacet
  facet normal 0 0 -1
    outer loop
      vertex 4.75 -6.5 -50
      vertex 6.5 -4.75 -50
      vertex 7 -7.48547 -50
    endloop
  endfacet
  facet normal 0 0 -1
    outer loop
      vertex 6.5 -4.75 -50
      vertex 6.5 -3.10001 -50
      vertex 7.5 -3.10001 -50
    endloop
  endfacet
  facet normal 0 0 -1
    outer loop
      vertex 6.5 -4.75 -50
      vertex 7.5 -3.10001 -50
      vertex 7.5 -7 -50
    endloop
  endfacet
  facet normal 0 0 -1
    outer loop
      vertex 4.75 -6.5 -50
      vertex 5.3864 -4.75 -50
      vertex 6.5 -4.75 -50
    endloop
  endfacet
  facet normal -0 0 -1
    outer loop
      vertex 5.3864 -4.75 -50
      vertex 4.75 -5.3864 -50
      vertex 2.75 -2.1136 -50
    endloop
  endfacet
  facet normal 0 0 -1
    outer loop
      vertex 7.48904 -7 -50
      vertex 6.5 -4.75 -50
      vertex 7.5 -7 -50
    endloop
  endfacet
  facet normal 0 0 -1
    outer loop
      vertex 4.75 -6.5 -50
      vertex 4.75 -5.3864 -50
      vertex 5.3864 -4.75 -50
    endloop
  endfacet
  facet normal 0 -0 -1
    outer loop
      vertex 2.75 -2.1136 -50
      vertex 4.75 -5.3864 -50
      vertex 2.1136 -2.75 -50
    endloop
  endfacet
  facet normal 0 0 -1
    outer loop
      vertex 7.37427 7.33157 -50
      vertex 7.48547 7.11966 -50
      vertex 7.48547 7 -50
    endloop
  endfacet
  facet normal 0 0 -1
    outer loop
      vertex 7 7.48904 -50
      vertex 7.37427 7.33157 -50
      vertex 7.48547 7 -50
    endloop
  endfacet
  facet normal -0 0 -1
    outer loop
      vertex 7.5 7 -50
      vertex 6.5 4.75 -50
      vertex 7.48547 7 -50
    endloop
  endfacet
  facet normal 0 0 -1
    outer loop
      vertex 7.5 3.10001 -50
      vertex 6.5 3.10001 -50
      vertex 6.5 4.75 -50
    endloop
  endfacet
  facet normal 0 -0 -1
    outer loop
      vertex 7.5 7 -50
      vertex 7.5 3.10001 -50
      vertex 6.5 4.75 -50
    endloop
  endfacet
  facet normal -0 0 -1
    outer loop
      vertex 7.48547 7 -50
      vertex 4.75 6.5 -50
      vertex 7 7.48904 -50
    endloop
  endfacet
  facet normal 0 0 -1
    outer loop
      vertex 7.48547 7 -50
      vertex 6.5 4.75 -50
      vertex 4.75 6.5 -50
    endloop
  endfacet
  facet normal -0 0 -1
    outer loop
      vertex 7 7.5 -50
      vertex 4.75 6.5 -50
      vertex 3.10001 7.5 -50
    endloop
  endfacet
  facet normal 0 0 -1
    outer loop
      vertex 3.10001 7.5 -50
      vertex 4.75 6.5 -50
      vertex 3.10001 6.5 -50
    endloop
  endfacet
  facet normal 0 0 -1
    outer loop
      vertex -2.75 2.1136 -50
      vertex -1.63156 0.245911 -50
      vertex -1.64999 0 -50
    endloop
  endfacet
  facet normal 0 0 -1
    outer loop
      vertex 2.1136 -2.75 -50
      vertex -2.1136 -2.75 -50
      vertex 0.123291 -1.64539 -50
    endloop
  endfacet
  facet normal 0 0 -1
    outer loop
      vertex 2.75 2.1136 -50
      vertex 4.75 5.3864 -50
      vertex 5.3864 4.75 -50
    endloop
  endfacet
  facet normal 0 -0 -1
    outer loop
      vertex 7 7.5 -50
      vertex 7 7.48904 -50
      vertex 4.75 6.5 -50
    endloop
  endfacet
  facet normal 0 0 -1
    outer loop
      vertex 4.75 6.5 -50
      vertex 6.5 4.75 -50
      vertex 5.3864 4.75 -50
    endloop
  endfacet
  facet normal 0 0 -1
    outer loop
      vertex 4.75 5.3864 -50
      vertex 4.75 6.5 -50
      vertex 5.3864 4.75 -50
    endloop
  endfacet
  facet normal 0 0 -1
    outer loop
      vertex 2.75 2.1136 -50
      vertex 2.1136 2.75 -50
      vertex 4.75 5.3864 -50
    endloop
  endfacet
  facet normal 0 0 -1
    outer loop
      vertex -2.1136 -2.75 -50
      vertex -0.367157 -1.60863 -50
      vertex -0.123291 -1.64539 -50
    endloop
  endfacet
  facet normal 0 0 -1
    outer loop
      vertex -7.48904 7 -50
      vertex -7.33157 7.37427 -50
      vertex -7 7.48547 -50
    endloop
  endfacet
  facet normal 0 0 -1
    outer loop
      vertex -7 7.5 -50
      vertex -4.75 6.5 -50
      vertex -7 7.48547 -50
    endloop
  endfacet
  facet normal 0 -0 -1
    outer loop
      vertex -3.10001 7.5 -50
      vertex -3.10001 6.5 -50
      vertex -4.75 6.5 -50
    endloop
  endfacet
  facet normal 0 0 -1
    outer loop
      vertex -7 7.5 -50
      vertex -3.10001 7.5 -50
      vertex -4.75 6.5 -50
    endloop
  endfacet
  facet normal 0 -0 -1
    outer loop
      vertex -7.46751 7.17731 -50
      vertex -7.33157 7.37427 -50
      vertex -7.48904 7 -50
    endloop
  endfacet
  facet normal 0 0 -1
    outer loop
      vertex -7.48904 7 -50
      vertex -7 7.48547 -50
      vertex -6.5 4.75 -50
    endloop
  endfacet
  facet normal 0 0 -1
    outer loop
      vertex -6.5 4.75 -50
      vertex -7 7.48547 -50
      vertex -4.75 6.5 -50
    endloop
  endfacet
  facet normal 0 0 -1
    outer loop
      vertex -7.5 3.10001 -50
      vertex -7.5 7 -50
      vertex -6.5 4.75 -50
    endloop
  endfacet
  facet normal -0 0 -1
    outer loop
      vertex -2.1136 -2.75 -50
      vertex -4.75 -5.3864 -50
      vertex -2.75 -2.1136 -50
    endloop
  endfacet
  facet normal 0 0 -1
    outer loop
      vertex -6.5 3.10001 -50
      vertex -7.5 3.10001 -50
      vertex -6.5 4.75 -50
    endloop
  endfacet
  facet normal 0 0 -1
    outer loop
      vertex -2.75 -2.1136 -50
      vertex -4.75 -5.3864 -50
      vertex -5.3864 -4.75 -50
    endloop
  endfacet
  facet normal 0 0 -1
    outer loop
      vertex -2.75 2.1136 -50
      vertex -5.3864 4.75 -50
      vertex -4.75 5.3864 -50
    endloop
  endfacet
  facet normal 0 0 -1
    outer loop
      vertex -7.5 7 -50
      vertex -7.48904 7 -50
      vertex -6.5 4.75 -50
    endloop
  endfacet
  facet normal 0 0 -1
    outer loop
      vertex -6.5 4.75 -50
      vertex -4.75 6.5 -50
      vertex -4.75 5.3864 -50
    endloop
  endfacet
  facet normal 0 0 -1
    outer loop
      vertex -5.3864 4.75 -50
      vertex -6.5 4.75 -50
      vertex -4.75 5.3864 -50
    endloop
  endfacet
  facet normal -0 0 -1
    outer loop
      vertex -2.1136 2.75 -50
      vertex -2.75 2.1136 -50
      vertex -4.75 5.3864 -50
    endloop
  endfacet
  facet normal 0 0 -1
    outer loop
      vertex -2.1136 -2.75 -50
      vertex -0.123291 -1.64539 -50
      vertex 0.123291 -1.64539 -50
    endloop
  endfacet
  facet normal 0 0 -1
    outer loop
      vertex -6.5 -4.75 -50
      vertex -5.3864 -4.75 -50
      vertex -4.75 -6.5 -50
    endloop
  endfacet
  facet normal 0 0 -1
    outer loop
      vertex -5.3864 -4.75 -50
      vertex -4.75 -5.3864 -50
      vertex -4.75 -6.5 -50
    endloop
  endfacet
  facet normal 0 0 -1
    outer loop
      vertex -7.5 -7 -50
      vertex -6.5 -4.75 -50
      vertex -7.48547 -7 -50
    endloop
  endfacet
  facet normal 0 0 -1
    outer loop
      vertex -7.5 -3.10001 -50
      vertex -6.5 -3.10001 -50
      vertex -6.5 -4.75 -50
    endloop
  endfacet
  facet normal 0 0 -1
    outer loop
      vertex -7.5 -7 -50
      vertex -7.5 -3.10001 -50
      vertex -6.5 -4.75 -50
    endloop
  endfacet
  facet normal -0 0 -1
    outer loop
      vertex -4.75 -6.5 -50
      vertex -7.48547 -7 -50
      vertex -6.5 -4.75 -50
    endloop
  endfacet
  facet normal 0 0 -1
    outer loop
      vertex -7 -7.48904 -50
      vertex -7.17731 -7.46751 -50
      vertex -7.37427 -7.33157 -50
    endloop
  endfacet
  facet normal 0 0 -1
    outer loop
      vertex -7.48547 -7 -50
      vertex -7 -7.48904 -50
      vertex -7.37427 -7.33157 -50
    endloop
  endfacet
  facet normal 0 0 -1
    outer loop
      vertex -7.48547 -7 -50
      vertex -4.75 -6.5 -50
      vertex -7 -7.48904 -50
    endloop
  endfacet
  facet normal 0 0 -1
    outer loop
      vertex -7 -7.5 -50
      vertex -4.75 -6.5 -50
      vertex -3.10001 -7.5 -50
    endloop
  endfacet
  facet normal 0 0 -1
    outer loop
      vertex -7 -7.48904 -50
      vertex -4.75 -6.5 -50
      vertex -7 -7.5 -50
    endloop
  endfacet
  facet normal 0 0 -1
    outer loop
      vertex 1.57669 -0.486343 -50
      vertex 1.63156 -0.245911 -50
      vertex 2.75 -2.1136 -50
    endloop
  endfacet
  facet normal 0 0 -1
    outer loop
      vertex -2.75 -2.1136 -50
      vertex -1.63156 -0.245911 -50
      vertex -1.57669 -0.486343 -50
    endloop
  endfacet
  facet normal 0 0 -1
    outer loop
      vertex -2.1136 -2.75 -50
      vertex -0.602798 -1.53593 -50
      vertex -0.367157 -1.60863 -50
    endloop
  endfacet
  facet normal 0 0 -1
    outer loop
      vertex -2.1136 -2.75 -50
      vertex -0.824997 -1.42894 -50
      vertex -0.602798 -1.53593 -50
    endloop
  endfacet
  facet normal 0 0 -1
    outer loop
      vertex -2.1136 -2.75 -50
      vertex -1.02875 -1.29001 -50
      vertex -0.824997 -1.42894 -50
    endloop
  endfacet
  facet normal 0 0 -1
    outer loop
      vertex -2.1136 -2.75 -50
      vertex -1.20953 -1.12228 -50
      vertex -1.02875 -1.29001 -50
    endloop
  endfacet
  facet normal 0 0 -1
    outer loop
      vertex -2.1136 -2.75 -50
      vertex -2.75 -2.1136 -50
      vertex -1.20953 -1.12228 -50
    endloop
  endfacet
  facet normal -0 0 -1
    outer loop
      vertex -1.20953 -1.12228 -50
      vertex -2.75 -2.1136 -50
      vertex -1.36328 -0.929474 -50
    endloop
  endfacet
  facet normal -0 0 -1
    outer loop
      vertex -1.36328 -0.929474 -50
      vertex -2.75 -2.1136 -50
      vertex -1.48659 -0.715897 -50
    endloop
  endfacet
  facet normal -0 0 -1
    outer loop
      vertex -1.48659 -0.715897 -50
      vertex -2.75 -2.1136 -50
      vertex -1.57669 -0.486343 -50
    endloop
  endfacet
  facet normal 0 0 -1
    outer loop
      vertex -2.75 -2.1136 -50
      vertex -1.64999 0 -50
      vertex -1.63156 -0.245911 -50
    endloop
  endfacet
  facet normal 0 0 -1
    outer loop
      vertex -2.75 -2.1136 -50
      vertex -2.75 2.1136 -50
      vertex -1.64999 0 -50
    endloop
  endfacet
  facet normal 0 0 -1
    outer loop
      vertex -2.75 2.1136 -50
      vertex -1.57669 0.486343 -50
      vertex -1.63156 0.245911 -50
    endloop
  endfacet
  facet normal 0 0 -1
    outer loop
      vertex -2.75 2.1136 -50
      vertex -1.48659 0.715897 -50
      vertex -1.57669 0.486343 -50
    endloop
  endfacet
  facet normal 0 0 -1
    outer loop
      vertex -2.75 2.1136 -50
      vertex -1.36328 0.929474 -50
      vertex -1.48659 0.715897 -50
    endloop
  endfacet
  facet normal 0 0 -1
    outer loop
      vertex -2.75 2.1136 -50
      vertex -1.20953 1.12228 -50
      vertex -1.36328 0.929474 -50
    endloop
  endfacet
  facet normal 0 0 -1
    outer loop
      vertex -2.75 2.1136 -50
      vertex -2.1136 2.75 -50
      vertex -1.20953 1.12228 -50
    endloop
  endfacet
  facet normal 0 0 -1
    outer loop
      vertex -1.20953 1.12228 -50
      vertex -2.1136 2.75 -50
      vertex -1.02875 1.29001 -50
    endloop
  endfacet
  facet normal 0 0 -1
    outer loop
      vertex -1.02875 1.29001 -50
      vertex -2.1136 2.75 -50
      vertex -0.824997 1.42894 -50
    endloop
  endfacet
  facet normal 0 0 -1
    outer loop
      vertex -0.824997 1.42894 -50
      vertex -2.1136 2.75 -50
      vertex -0.602798 1.53593 -50
    endloop
  endfacet
  facet normal 0 0 -1
    outer loop
      vertex -0.602798 1.53593 -50
      vertex -2.1136 2.75 -50
      vertex -0.367157 1.60863 -50
    endloop
  endfacet
  facet normal 0 0 -1
    outer loop
      vertex -0.123291 1.64539 -50
      vertex -2.1136 2.75 -50
      vertex 0.123291 1.64539 -50
    endloop
  endfacet
  facet normal 0 0 -1
    outer loop
      vertex -0.367157 1.60863 -50
      vertex -2.1136 2.75 -50
      vertex -0.123291 1.64539 -50
    endloop
  endfacet
  facet normal 0 0 -1
    outer loop
      vertex -2.1136 2.75 -50
      vertex 2.1136 2.75 -50
      vertex 0.123291 1.64539 -50
    endloop
  endfacet
  facet normal 0 0 -1
    outer loop
      vertex 0.123291 1.64539 -50
      vertex 2.1136 2.75 -50
      vertex 0.367157 1.60863 -50
    endloop
  endfacet
  facet normal 0 0 -1
    outer loop
      vertex 0.367157 1.60863 -50
      vertex 2.1136 2.75 -50
      vertex 0.602798 1.53593 -50
    endloop
  endfacet
  facet normal 0 0 -1
    outer loop
      vertex 0.602798 1.53593 -50
      vertex 2.1136 2.75 -50
      vertex 0.824997 1.42894 -50
    endloop
  endfacet
  facet normal 0 0 -1
    outer loop
      vertex 0.824997 1.42894 -50
      vertex 2.1136 2.75 -50
      vertex 1.02875 1.29001 -50
    endloop
  endfacet
  facet normal 0 0 -1
    outer loop
      vertex 1.02875 1.29001 -50
      vertex 2.1136 2.75 -50
      vertex 1.20953 1.12228 -50
    endloop
  endfacet
  facet normal 0 0 -1
    outer loop
      vertex 1.20953 1.12228 -50
      vertex 2.1136 2.75 -50
      vertex 2.75 2.1136 -50
    endloop
  endfacet
  facet normal 0 0 -1
    outer loop
      vertex 1.36328 0.929474 -50
      vertex 1.20953 1.12228 -50
      vertex 2.75 2.1136 -50
    endloop
  endfacet
  facet normal 0 0 -1
    outer loop
      vertex 1.57669 0.486343 -50
      vertex 1.48659 0.715897 -50
      vertex 2.75 2.1136 -50
    endloop
  endfacet
  facet normal 0 0 -1
    outer loop
      vertex 1.48659 0.715897 -50
      vertex 1.36328 0.929474 -50
      vertex 2.75 2.1136 -50
    endloop
  endfacet
  facet normal 0 0 -1
    outer loop
      vertex 1.57669 0.486343 -50
      vertex 2.75 2.1136 -50
      vertex 1.63156 0.245911 -50
    endloop
  endfacet
  facet normal 0 0 -1
    outer loop
      vertex 1.63156 0.245911 -50
      vertex 2.75 2.1136 -50
      vertex 1.64999 0 -50
    endloop
  endfacet
  facet normal 0 0 -1
    outer loop
      vertex 1.64999 0 -50
      vertex 2.75 2.1136 -50
      vertex 2.75 -2.1136 -50
    endloop
  endfacet
  facet normal 0 0 -1
    outer loop
      vertex 1.63156 -0.245911 -50
      vertex 1.64999 0 -50
      vertex 2.75 -2.1136 -50
    endloop
  endfacet
  facet normal 0 -0 -1
    outer loop
      vertex 1.57669 -0.486343 -50
      vertex 2.75 -2.1136 -50
      vertex 1.48659 -0.715897 -50
    endloop
  endfacet
  facet normal 0 -0 -1
    outer loop
      vertex 1.48659 -0.715897 -50
      vertex 2.75 -2.1136 -50
      vertex 1.36328 -0.929474 -50
    endloop
  endfacet
  facet normal 0 -0 -1
    outer loop
      vertex 1.36328 -0.929474 -50
      vertex 2.75 -2.1136 -50
      vertex 1.20953 -1.12228 -50
    endloop
  endfacet
  facet normal 0 0 -1
    outer loop
      vertex 1.20953 -1.12228 -50
      vertex 2.75 -2.1136 -50
      vertex 2.1136 -2.75 -50
    endloop
  endfacet
  facet normal 0 0 -1
    outer loop
      vertex 1.02875 -1.29001 -50
      vertex 1.20953 -1.12228 -50
      vertex 2.1136 -2.75 -50
    endloop
  endfacet
  facet normal 0 0 -1
    outer loop
      vertex 0.824997 -1.42894 -50
      vertex 1.02875 -1.29001 -50
      vertex 2.1136 -2.75 -50
    endloop
  endfacet
  facet normal 0 0 -1
    outer loop
      vertex 0.602798 -1.53593 -50
      vertex 0.824997 -1.42894 -50
      vertex 2.1136 -2.75 -50
    endloop
  endfacet
  facet normal 0 0 -1
    outer loop
      vertex 0.123291 -1.64539 -50
      vertex 0.367157 -1.60863 -50
      vertex 2.1136 -2.75 -50
    endloop
  endfacet
  facet normal 0 0 -1
    outer loop
      vertex 0.367157 -1.60863 -50
      vertex 0.602798 -1.53593 -50
      vertex 2.1136 -2.75 -50
    endloop
  endfacet
  facet normal -0 0 1
    outer loop
      vertex -7.11966 7.48547 50
      vertex -7.33157 7.37427 50
      vertex -7 7.48547 50
    endloop
  endfacet
  facet normal 0 -0 1
    outer loop
      vertex -3.10001 -7.5 50
      vertex -3.10001 -6.5 50
      vertex -4.75 -6.5 50
    endloop
  endfacet
  facet normal 0 0 1
    outer loop
      vertex 7 7.48904 50
      vertex 7.37427 7.33157 50
      vertex 7.17731 7.46751 50
    endloop
  endfacet
  facet normal 0 0 1
    outer loop
      vertex -7.48547 -7 50
      vertex -7.48547 -7.11966 50
      vertex -7.37427 -7.33157 50
    endloop
  endfacet
  facet normal 0 0 1
    outer loop
      vertex 7 -7.48547 50
      vertex 7.33157 -7.37427 50
      vertex 7.48904 -7 50
    endloop
  endfacet
  facet normal 0 0 1
    outer loop
      vertex 7 -7.48547 50
      vertex 4.75 -6.5 50
      vertex 7 -7.5 50
    endloop
  endfacet
  facet normal 0 0 1
    outer loop
      vertex 4.75 -6.5 50
      vertex 3.10001 -6.5 50
      vertex 3.10001 -7.5 50
    endloop
  endfacet
  facet normal 0 0 1
    outer loop
      vertex 4.75 -6.5 50
      vertex 3.10001 -7.5 50
      vertex 7 -7.5 50
    endloop
  endfacet
  facet normal 0 -0 1
    outer loop
      vertex 7.11966 -7.48547 50
      vertex 7.33157 -7.37427 50
      vertex 7 -7.48547 50
    endloop
  endfacet
  facet normal 0 0 1
    outer loop
      vertex 7.33157 -7.37427 50
      vertex 7.46751 -7.17731 50
      vertex 7.48904 -7 50
    endloop
  endfacet
  facet normal 0 -0 1
    outer loop
      vertex 7 -7.48547 50
      vertex 7.48904 -7 50
      vertex 6.5 -4.75 50
    endloop
  endfacet
  facet normal 0 0 1
    outer loop
      vertex 7 -7.48547 50
      vertex 6.5 -4.75 50
      vertex 4.75 -6.5 50
    endloop
  endfacet
  facet normal 0 0 1
    outer loop
      vertex 7.5 -3.10001 50
      vertex 6.5 -3.10001 50
      vertex 6.5 -4.75 50
    endloop
  endfacet
  facet normal 0 -0 1
    outer loop
      vertex 7.5 -7 50
      vertex 7.5 -3.10001 50
      vertex 6.5 -4.75 50
    endloop
  endfacet
  facet normal 0 0 1
    outer loop
      vertex 6.5 -4.75 50
      vertex 5.3864 -4.75 50
      vertex 4.75 -6.5 50
    endloop
  endfacet
  facet normal 0 0 1
    outer loop
      vertex 2.75 -2.1136 50
      vertex 4.75 -5.3864 50
      vertex 5.3864 -4.75 50
    endloop
  endfacet
  facet normal 0 0 1
    outer loop
      vertex 7.5 -7 50
      vertex 6.5 -4.75 50
      vertex 7.48904 -7 50
    endloop
  endfacet
  facet normal 0 0 1
    outer loop
      vertex 5.3864 -4.75 50
      vertex 4.75 -5.3864 50
      vertex 4.75 -6.5 50
    endloop
  endfacet
  facet normal -0 0 1
    outer loop
      vertex 2.1136 -2.75 50
      vertex 4.75 -5.3864 50
      vertex 2.75 -2.1136 50
    endloop
  endfacet
  facet normal 0 -0 1
    outer loop
      vertex 7.48547 7 50
      vertex 7.48547 7.11966 50
      vertex 7.37427 7.33157 50
    endloop
  endfacet
  facet normal 0 0 1
    outer loop
      vertex 7.48547 7 50
      vertex 7.37427 7.33157 50
      vertex 7 7.48904 50
    endloop
  endfacet
  facet normal -0 0 1
    outer loop
      vertex 7.48547 7 50
      vertex 6.5 4.75 50
      vertex 7.5 7 50
    endloop
  endfacet
  facet normal 0 0 1
    outer loop
      vertex 6.5 4.75 50
      vertex 6.5 3.10001 50
      vertex 7.5 3.10001 50
    endloop
  endfacet
  facet normal -0 0 1
    outer loop
      vertex 6.5 4.75 50
      vertex 7.5 3.10001 50
      vertex 7.5 7 50
    endloop
  endfacet
  facet normal 0 0 1
    outer loop
      vertex 7 7.48904 50
      vertex 4.75 6.5 50
      vertex 7.48547 7 50
    endloop
  endfacet
  facet normal -0 0 1
    outer loop
      vertex 4.75 6.5 50
      vertex 6.5 4.75 50
      vertex 7.48547 7 50
    endloop
  endfacet
  facet normal -0 0 1
    outer loop
      vertex 3.10001 7.5 50
      vertex 4.75 6.5 50
      vertex 7 7.5 50
    endloop
  endfacet
  facet normal 0 0 1
    outer loop
      vertex 3.10001 6.5 50
      vertex 4.75 6.5 50
      vertex 3.10001 7.5 50
    endloop
  endfacet
  facet normal 0 -0 1
    outer loop
      vertex -1.64999 0 50
      vertex -1.63156 0.245911 50
      vertex -2.75 2.1136 50
    endloop
  endfacet
  facet normal 0 0 1
    outer loop
      vertex 0.123291 -1.64539 50
      vertex -2.1136 -2.75 50
      vertex 2.1136 -2.75 50
    endloop
  endfacet
  facet normal 0 0 1
    outer loop
      vertex 5.3864 4.75 50
      vertex 4.75 5.3864 50
      vertex 2.75 2.1136 50
    endloop
  endfacet
  facet normal 0 0 1
    outer loop
      vertex 4.75 6.5 50
      vertex 7 7.48904 50
      vertex 7 7.5 50
    endloop
  endfacet
  facet normal 0 -0 1
    outer loop
      vertex 5.3864 4.75 50
      vertex 6.5 4.75 50
      vertex 4.75 6.5 50
    endloop
  endfacet
  facet normal 0 0 1
    outer loop
      vertex 5.3864 4.75 50
      vertex 4.75 6.5 50
      vertex 4.75 5.3864 50
    endloop
  endfacet
  facet normal 0 0 1
    outer loop
      vertex 4.75 5.3864 50
      vertex 2.1136 2.75 50
      vertex 2.75 2.1136 50
    endloop
  endfacet
  facet normal 0 0 1
    outer loop
      vertex -0.123291 -1.64539 50
      vertex -0.367157 -1.60863 50
      vertex -2.1136 -2.75 50
    endloop
  endfacet
  facet normal 0 0 1
    outer loop
      vertex -7 7.48547 50
      vertex -7.33157 7.37427 50
      vertex -7.48904 7 50
    endloop
  endfacet
  facet normal -0 0 1
    outer loop
      vertex -7 7.48547 50
      vertex -4.75 6.5 50
      vertex -7 7.5 50
    endloop
  endfacet
  facet normal 0 0 1
    outer loop
      vertex -4.75 6.5 50
      vertex -3.10001 6.5 50
      vertex -3.10001 7.5 50
    endloop
  endfacet
  facet normal 0 -0 1
    outer loop
      vertex -4.75 6.5 50
      vertex -3.10001 7.5 50
      vertex -7 7.5 50
    endloop
  endfacet
  facet normal 0 0 1
    outer loop
      vertex -7.48904 7 50
      vertex -7.33157 7.37427 50
      vertex -7.46751 7.17731 50
    endloop
  endfacet
  facet normal 0 0 1
    outer loop
      vertex -6.5 4.75 50
      vertex -7 7.48547 50
      vertex -7.48904 7 50
    endloop
  endfacet
  facet normal 0 0 1
    outer loop
      vertex -4.75 6.5 50
      vertex -7 7.48547 50
      vertex -6.5 4.75 50
    endloop
  endfacet
  facet normal 0 0 1
    outer loop
      vertex -6.5 4.75 50
      vertex -7.5 7 50
      vertex -7.5 3.10001 50
    endloop
  endfacet
  facet normal 0 0 1
    outer loop
      vertex -2.75 -2.1136 50
      vertex -4.75 -5.3864 50
      vertex -2.1136 -2.75 50
    endloop
  endfacet
  facet normal 0 0 1
    outer loop
      vertex -6.5 4.75 50
      vertex -7.5 3.10001 50
      vertex -6.5 3.10001 50
    endloop
  endfacet
  facet normal -0 0 1
    outer loop
      vertex -5.3864 -4.75 50
      vertex -4.75 -5.3864 50
      vertex -2.75 -2.1136 50
    endloop
  endfacet
  facet normal 0 0 1
    outer loop
      vertex -4.75 5.3864 50
      vertex -5.3864 4.75 50
      vertex -2.75 2.1136 50
    endloop
  endfacet
  facet normal 0 0 1
    outer loop
      vertex -6.5 4.75 50
      vertex -7.48904 7 50
      vertex -7.5 7 50
    endloop
  endfacet
  facet normal 0 -0 1
    outer loop
      vertex -4.75 5.3864 50
      vertex -4.75 6.5 50
      vertex -6.5 4.75 50
    endloop
  endfacet
  facet normal 0 0 1
    outer loop
      vertex -4.75 5.3864 50
      vertex -6.5 4.75 50
      vertex -5.3864 4.75 50
    endloop
  endfacet
  facet normal 0 0 1
    outer loop
      vertex -4.75 5.3864 50
      vertex -2.75 2.1136 50
      vertex -2.1136 2.75 50
    endloop
  endfacet
  facet normal 0 0 1
    outer loop
      vertex 0.123291 -1.64539 50
      vertex -0.123291 -1.64539 50
      vertex -2.1136 -2.75 50
    endloop
  endfacet
  facet normal 0 0 1
    outer loop
      vertex -4.75 -6.5 50
      vertex -5.3864 -4.75 50
      vertex -6.5 -4.75 50
    endloop
  endfacet
  facet normal 0 -0 1
    outer loop
      vertex -4.75 -6.5 50
      vertex -4.75 -5.3864 50
      vertex -5.3864 -4.75 50
    endloop
  endfacet
  facet normal 0 -0 1
    outer loop
      vertex -7.48547 -7 50
      vertex -6.5 -4.75 50
      vertex -7.5 -7 50
    endloop
  endfacet
  facet normal 0 -0 1
    outer loop
      vertex -6.5 -4.75 50
      vertex -6.5 -3.10001 50
      vertex -7.5 -3.10001 50
    endloop
  endfacet
  facet normal 0 0 1
    outer loop
      vertex -6.5 -4.75 50
      vertex -7.5 -3.10001 50
      vertex -7.5 -7 50
    endloop
  endfacet
  facet normal 0 0 1
    outer loop
      vertex -6.5 -4.75 50
      vertex -7.48547 -7 50
      vertex -4.75 -6.5 50
    endloop
  endfacet
  facet normal 0 0 1
    outer loop
      vertex -7.37427 -7.33157 50
      vertex -7.17731 -7.46751 50
      vertex -7 -7.48904 50
    endloop
  endfacet
  facet normal -0 -0 1
    outer loop
      vertex -7.37427 -7.33157 50
      vertex -7 -7.48904 50
      vertex -7.48547 -7 50
    endloop
  endfacet
  facet normal 0 -0 1
    outer loop
      vertex -7 -7.48904 50
      vertex -4.75 -6.5 50
      vertex -7.48547 -7 50
    endloop
  endfacet
  facet normal 0 0 1
    outer loop
      vertex -3.10001 -7.5 50
      vertex -4.75 -6.5 50
      vertex -7 -7.5 50
    endloop
  endfacet
  facet normal 0 0 1
    outer loop
      vertex -7 -7.5 50
      vertex -4.75 -6.5 50
      vertex -7 -7.48904 50
    endloop
  endfacet
  facet normal 0 0 1
    outer loop
      vertex 2.75 -2.1136 50
      vertex 1.63156 -0.245911 50
      vertex 1.57669 -0.486343 50
    endloop
  endfacet
  facet normal 0 0 1
    outer loop
      vertex -1.57669 -0.486343 50
      vertex -1.63156 -0.245911 50
      vertex -2.75 -2.1136 50
    endloop
  endfacet
  facet normal 0 0 1
    outer loop
      vertex -0.367157 -1.60863 50
      vertex -0.602798 -1.53593 50
      vertex -2.1136 -2.75 50
    endloop
  endfacet
  facet normal 0 0 1
    outer loop
      vertex -0.602798 -1.53593 50
      vertex -0.824997 -1.42894 50
      vertex -2.1136 -2.75 50
    endloop
  endfacet
  facet normal 0 0 1
    outer loop
      vertex -0.824997 -1.42894 50
      vertex -1.02875 -1.29001 50
      vertex -2.1136 -2.75 50
    endloop
  endfacet
  facet normal 0 0 1
    outer loop
      vertex -1.02875 -1.29001 50
      vertex -1.20953 -1.12228 50
      vertex -2.1136 -2.75 50
    endloop
  endfacet
  facet normal 0 0 1
    outer loop
      vertex -1.20953 -1.12228 50
      vertex -2.75 -2.1136 50
      vertex -2.1136 -2.75 50
    endloop
  endfacet
  facet normal 0 0 1
    outer loop
      vertex -1.36328 -0.929474 50
      vertex -2.75 -2.1136 50
      vertex -1.20953 -1.12228 50
    endloop
  endfacet
  facet normal 0 0 1
    outer loop
      vertex -1.48659 -0.715897 50
      vertex -2.75 -2.1136 50
      vertex -1.36328 -0.929474 50
    endloop
  endfacet
  facet normal 0 0 1
    outer loop
      vertex -1.57669 -0.486343 50
      vertex -2.75 -2.1136 50
      vertex -1.48659 -0.715897 50
    endloop
  endfacet
  facet normal 0 0 1
    outer loop
      vertex -1.63156 -0.245911 50
      vertex -1.64999 0 50
      vertex -2.75 -2.1136 50
    endloop
  endfacet
  facet normal 0 0 1
    outer loop
      vertex -1.64999 0 50
      vertex -2.75 2.1136 50
      vertex -2.75 -2.1136 50
    endloop
  endfacet
  facet normal 0 -0 1
    outer loop
      vertex -1.63156 0.245911 50
      vertex -1.57669 0.486343 50
      vertex -2.75 2.1136 50
    endloop
  endfacet
  facet normal 0 -0 1
    outer loop
      vertex -1.57669 0.486343 50
      vertex -1.48659 0.715897 50
      vertex -2.75 2.1136 50
    endloop
  endfacet
  facet normal 0 -0 1
    outer loop
      vertex -1.48659 0.715897 50
      vertex -1.36328 0.929474 50
      vertex -2.75 2.1136 50
    endloop
  endfacet
  facet normal 0 -0 1
    outer loop
      vertex -1.36328 0.929474 50
      vertex -1.20953 1.12228 50
      vertex -2.75 2.1136 50
    endloop
  endfacet
  facet normal 0 0 1
    outer loop
      vertex -1.20953 1.12228 50
      vertex -2.1136 2.75 50
      vertex -2.75 2.1136 50
    endloop
  endfacet
  facet normal 0 0 1
    outer loop
      vertex -1.02875 1.29001 50
      vertex -2.1136 2.75 50
      vertex -1.20953 1.12228 50
    endloop
  endfacet
  facet normal 0 0 1
    outer loop
      vertex -0.824997 1.42894 50
      vertex -2.1136 2.75 50
      vertex -1.02875 1.29001 50
    endloop
  endfacet
  facet normal 0 0 1
    outer loop
      vertex -0.602798 1.53593 50
      vertex -2.1136 2.75 50
      vertex -0.824997 1.42894 50
    endloop
  endfacet
  facet normal 0 0 1
    outer loop
      vertex -0.367157 1.60863 50
      vertex -2.1136 2.75 50
      vertex -0.602798 1.53593 50
    endloop
  endfacet
  facet normal 0 0 1
    outer loop
      vertex 0.123291 1.64539 50
      vertex -2.1136 2.75 50
      vertex -0.123291 1.64539 50
    endloop
  endfacet
  facet normal 0 0 1
    outer loop
      vertex -0.123291 1.64539 50
      vertex -2.1136 2.75 50
      vertex -0.367157 1.60863 50
    endloop
  endfacet
  facet normal 0 -0 1
    outer loop
      vertex 0.123291 1.64539 50
      vertex 2.1136 2.75 50
      vertex -2.1136 2.75 50
    endloop
  endfacet
  facet normal 0 -0 1
    outer loop
      vertex 0.367157 1.60863 50
      vertex 2.1136 2.75 50
      vertex 0.123291 1.64539 50
    endloop
  endfacet
  facet normal 0 -0 1
    outer loop
      vertex 0.602798 1.53593 50
      vertex 2.1136 2.75 50
      vertex 0.367157 1.60863 50
    endloop
  endfacet
  facet normal 0 -0 1
    outer loop
      vertex 0.824997 1.42894 50
      vertex 2.1136 2.75 50
      vertex 0.602798 1.53593 50
    endloop
  endfacet
  facet normal 0 -0 1
    outer loop
      vertex 1.02875 1.29001 50
      vertex 2.1136 2.75 50
      vertex 0.824997 1.42894 50
    endloop
  endfacet
  facet normal 0 -0 1
    outer loop
      vertex 1.20953 1.12228 50
      vertex 2.1136 2.75 50
      vertex 1.02875 1.29001 50
    endloop
  endfacet
  facet normal 0 0 1
    outer loop
      vertex 2.75 2.1136 50
      vertex 2.1136 2.75 50
      vertex 1.20953 1.12228 50
    endloop
  endfacet
  facet normal 0 0 1
    outer loop
      vertex 2.75 2.1136 50
      vertex 1.20953 1.12228 50
      vertex 1.36328 0.929474 50
    endloop
  endfacet
  facet normal 0 0 1
    outer loop
      vertex 2.75 2.1136 50
      vertex 1.48659 0.715897 50
      vertex 1.57669 0.486343 50
    endloop
  endfacet
  facet normal 0 0 1
    outer loop
      vertex 2.75 2.1136 50
      vertex 1.36328 0.929474 50
      vertex 1.48659 0.715897 50
    endloop
  endfacet
  facet normal 0 -0 1
    outer loop
      vertex 1.63156 0.245911 50
      vertex 2.75 2.1136 50
      vertex 1.57669 0.486343 50
    endloop
  endfacet
  facet normal 0 -0 1
    outer loop
      vertex 1.64999 0 50
      vertex 2.75 2.1136 50
      vertex 1.63156 0.245911 50
    endloop
  endfacet
  facet normal 0 -0 1
    outer loop
      vertex 2.75 -2.1136 50
      vertex 2.75 2.1136 50
      vertex 1.64999 0 50
    endloop
  endfacet
  facet normal 0 0 1
    outer loop
      vertex 2.75 -2.1136 50
      vertex 1.64999 0 50
      vertex 1.63156 -0.245911 50
    endloop
  endfacet
  facet normal -0 0 1
    outer loop
      vertex 1.48659 -0.715897 50
      vertex 2.75 -2.1136 50
      vertex 1.57669 -0.486343 50
    endloop
  endfacet
  facet normal -0 0 1
    outer loop
      vertex 1.36328 -0.929474 50
      vertex 2.75 -2.1136 50
      vertex 1.48659 -0.715897 50
    endloop
  endfacet
  facet normal -0 0 1
    outer loop
      vertex 1.20953 -1.12228 50
      vertex 2.75 -2.1136 50
      vertex 1.36328 -0.929474 50
    endloop
  endfacet
  facet normal 0 -0 1
    outer loop
      vertex 2.1136 -2.75 50
      vertex 2.75 -2.1136 50
      vertex 1.20953 -1.12228 50
    endloop
  endfacet
  facet normal 0 0 1
    outer loop
      vertex 2.1136 -2.75 50
      vertex 1.20953 -1.12228 50
      vertex 1.02875 -1.29001 50
    endloop
  endfacet
  facet normal 0 0 1
    outer loop
      vertex 2.1136 -2.75 50
      vertex 1.02875 -1.29001 50
      vertex 0.824997 -1.42894 50
    endloop
  endfacet
  facet normal 0 0 1
    outer loop
      vertex 2.1136 -2.75 50
      vertex 0.824997 -1.42894 50
      vertex 0.602798 -1.53593 50
    endloop
  endfacet
  facet normal 0 0 1
    outer loop
      vertex 2.1136 -2.75 50
      vertex 0.367157 -1.60863 50
      vertex 0.123291 -1.64539 50
    endloop
  endfacet
  facet normal 0 0 1
    outer loop
      vertex 2.1136 -2.75 50
      vertex 0.602798 -1.53593 50
      vertex 0.367157 -1.60863 50
    endloop
  endfacet
  facet normal 0 1 0
    outer loop
      vertex -4.75 -6.5 -50
      vertex -3.10001 -6.5 50
      vertex -3.10001 -6.5 -50
    endloop
  endfacet
  facet normal 0 1 0
    outer loop
      vertex -4.75 -6.5 -50
      vertex -4.75 -6.5 50
      vertex -3.10001 -6.5 50
    endloop
  endfacet
  facet normal 1 0 0
    outer loop
      vertex -4.75 -5.3864 -50
      vertex -4.75 -6.5 50
      vertex -4.75 -6.5 -50
    endloop
  endfacet
  facet normal 1 0 -0
    outer loop
      vertex -4.75 -5.3864 -50
      vertex -4.75 -5.3864 50
      vertex -4.75 -6.5 50
    endloop
  endfacet
  facet normal 0.707107 -0.707107 0
    outer loop
      vertex -2.1136 -2.75 -50
      vertex -4.75 -5.3864 50
      vertex -4.75 -5.3864 -50
    endloop
  endfacet
  facet normal 0.707107 -0.707107 0
    outer loop
      vertex -2.1136 -2.75 -50
      vertex -2.1136 -2.75 50
      vertex -4.75 -5.3864 50
    endloop
  endfacet
  facet normal 0 -1 0
    outer loop
      vertex 2.1136 -2.75 -50
      vertex -2.1136 -2.75 50
      vertex -2.1136 -2.75 -50
    endloop
  endfacet
  facet normal 0 -1 0
    outer loop
      vertex 2.1136 -2.75 -50
      vertex 2.1136 -2.75 50
      vertex -2.1136 -2.75 50
    endloop
  endfacet
  facet normal -0.707107 -0.707107 0
    outer loop
      vertex 4.75 -5.3864 -50
      vertex 2.1136 -2.75 50
      vertex 2.1136 -2.75 -50
    endloop
  endfacet
  facet normal -0.707107 -0.707107 0
    outer loop
      vertex 4.75 -5.3864 -50
      vertex 4.75 -5.3864 50
      vertex 2.1136 -2.75 50
    endloop
  endfacet
  facet normal -1 0 0
    outer loop
      vertex 4.75 -6.5 -50
      vertex 4.75 -5.3864 50
      vertex 4.75 -5.3864 -50
    endloop
  endfacet
  facet normal -1 0 0
    outer loop
      vertex 4.75 -6.5 -50
      vertex 4.75 -6.5 50
      vertex 4.75 -5.3864 50
    endloop
  endfacet
  facet normal 0 1 0
    outer loop
      vertex 3.10001 -6.5 -50
      vertex 4.75 -6.5 50
      vertex 4.75 -6.5 -50
    endloop
  endfacet
  facet normal 0 1 0
    outer loop
      vertex 3.10001 -6.5 -50
      vertex 3.10001 -6.5 50
      vertex 4.75 -6.5 50
    endloop
  endfacet
  facet normal -1 0 0
    outer loop
      vertex 3.10001 -7.5 -50
      vertex 3.10001 -6.5 50
      vertex 3.10001 -6.5 -50
    endloop
  endfacet
  facet normal -1 0 0
    outer loop
      vertex 3.10001 -7.5 -50
      vertex 3.10001 -7.5 50
      vertex 3.10001 -6.5 50
    endloop
  endfacet
  facet normal 0 -1 0
    outer loop
      vertex 7 -7.5 -50
      vertex 3.10001 -7.5 50
      vertex 3.10001 -7.5 -50
    endloop
  endfacet
  facet normal 0 -1 0
    outer loop
      vertex 7 -7.5 -50
      vertex 7 -7.5 50
      vertex 3.10001 -7.5 50
    endloop
  endfacet
  facet normal 1 0 0
    outer loop
      vertex 7 -7.48547 -50
      vertex 7 -7.5 50
      vertex 7 -7.5 -50
    endloop
  endfacet
  facet normal 1 0 -0
    outer loop
      vertex 7 -7.48547 -50
      vertex 7 -7.48547 50
      vertex 7 -7.5 50
    endloop
  endfacet
  facet normal 0 -1 0
    outer loop
      vertex 7.11966 -7.48547 -50
      vertex 7 -7.48547 50
      vertex 7 -7.48547 -50
    endloop
  endfacet
  facet normal 0 -1 0
    outer loop
      vertex 7.11966 -7.48547 -50
      vertex 7.11966 -7.48547 50
      vertex 7 -7.48547 50
    endloop
  endfacet
  facet normal 0.464661 -0.885489 0
    outer loop
      vertex 7.33157 -7.37427 -50
      vertex 7.11966 -7.48547 50
      vertex 7.11966 -7.48547 -50
    endloop
  endfacet
  facet normal 0.464661 -0.885489 0
    outer loop
      vertex 7.33157 -7.37427 -50
      vertex 7.33157 -7.37427 50
      vertex 7.11966 -7.48547 50
    endloop
  endfacet
  facet normal 0.823007 -0.568032 0
    outer loop
      vertex 7.46751 -7.17731 -50
      vertex 7.33157 -7.37427 50
      vertex 7.33157 -7.37427 -50
    endloop
  endfacet
  facet normal 0.823007 -0.568032 0
    outer loop
      vertex 7.46751 -7.17731 -50
      vertex 7.46751 -7.17731 50
      vertex 7.33157 -7.37427 50
    endloop
  endfacet
  facet normal 0.992708 -0.12054 0
    outer loop
      vertex 7.48904 -7 -50
      vertex 7.46751 -7.17731 50
      vertex 7.46751 -7.17731 -50
    endloop
  endfacet
  facet normal 0.992708 -0.12054 0
    outer loop
      vertex 7.48904 -7 -50
      vertex 7.48904 -7 50
      vertex 7.46751 -7.17731 50
    endloop
  endfacet
  facet normal 0 -1 0
    outer loop
      vertex 7.5 -7 -50
      vertex 7.48904 -7 50
      vertex 7.48904 -7 -50
    endloop
  endfacet
  facet normal 0 -1 0
    outer loop
      vertex 7.5 -7 -50
      vertex 7.5 -7 50
      vertex 7.48904 -7 50
    endloop
  endfacet
  facet normal 1 0 0
    outer loop
      vertex 7.5 -3.10001 -50
      vertex 7.5 -7 50
      vertex 7.5 -7 -50
    endloop
  endfacet
  facet normal 1 0 -0
    outer loop
      vertex 7.5 -3.10001 -50
      vertex 7.5 -3.10001 50
      vertex 7.5 -7 50
    endloop
  endfacet
  facet normal 0 1 0
    outer loop
      vertex 6.5 -3.10001 -50
      vertex 7.5 -3.10001 50
      vertex 7.5 -3.10001 -50
    endloop
  endfacet
  facet normal 0 1 0
    outer loop
      vertex 6.5 -3.10001 -50
      vertex 6.5 -3.10001 50
      vertex 7.5 -3.10001 50
    endloop
  endfacet
  facet normal -1 0 0
    outer loop
      vertex 6.5 -4.75 -50
      vertex 6.5 -3.10001 50
      vertex 6.5 -3.10001 -50
    endloop
  endfacet
  facet normal -1 0 0
    outer loop
      vertex 6.5 -4.75 -50
      vertex 6.5 -4.75 50
      vertex 6.5 -3.10001 50
    endloop
  endfacet
  facet normal 0 1 0
    outer loop
      vertex 5.3864 -4.75 -50
      vertex 6.5 -4.75 50
      vertex 6.5 -4.75 -50
    endloop
  endfacet
  facet normal 0 1 0
    outer loop
      vertex 5.3864 -4.75 -50
      vertex 5.3864 -4.75 50
      vertex 6.5 -4.75 50
    endloop
  endfacet
  facet normal 0.707107 0.707107 0
    outer loop
      vertex 2.75 -2.1136 -50
      vertex 5.3864 -4.75 50
      vertex 5.3864 -4.75 -50
    endloop
  endfacet
  facet normal 0.707107 0.707107 -0
    outer loop
      vertex 2.75 -2.1136 -50
      vertex 2.75 -2.1136 50
      vertex 5.3864 -4.75 50
    endloop
  endfacet
  facet normal 1 0 0
    outer loop
      vertex 2.75 2.1136 -50
      vertex 2.75 -2.1136 50
      vertex 2.75 -2.1136 -50
    endloop
  endfacet
  facet normal 1 0 -0
    outer loop
      vertex 2.75 2.1136 -50
      vertex 2.75 2.1136 50
      vertex 2.75 -2.1136 50
    endloop
  endfacet
  facet normal 0.707107 -0.707107 0
    outer loop
      vertex 5.3864 4.75 -50
      vertex 2.75 2.1136 50
      vertex 2.75 2.1136 -50
    endloop
  endfacet
  facet normal 0.707107 -0.707107 0
    outer loop
      vertex 5.3864 4.75 -50
      vertex 5.3864 4.75 50
      vertex 2.75 2.1136 50
    endloop
  endfacet
  facet normal 0 -1 0
    outer loop
      vertex 6.5 4.75 -50
      vertex 5.3864 4.75 50
      vertex 5.3864 4.75 -50
    endloop
  endfacet
  facet normal 0 -1 0
    outer loop
      vertex 6.5 4.75 -50
      vertex 6.5 4.75 50
      vertex 5.3864 4.75 50
    endloop
  endfacet
  facet normal -1 0 0
    outer loop
      vertex 6.5 3.10001 -50
      vertex 6.5 4.75 50
      vertex 6.5 4.75 -50
    endloop
  endfacet
  facet normal -1 0 0
    outer loop
      vertex 6.5 3.10001 -50
      vertex 6.5 3.10001 50
      vertex 6.5 4.75 50
    endloop
  endfacet
  facet normal 0 -1 0
    outer loop
      vertex 7.5 3.10001 -50
      vertex 6.5 3.10001 50
      vertex 6.5 3.10001 -50
    endloop
  endfacet
  facet normal 0 -1 0
    outer loop
      vertex 7.5 3.10001 -50
      vertex 7.5 3.10001 50
      vertex 6.5 3.10001 50
    endloop
  endfacet
  facet normal 1 0 0
    outer loop
      vertex 7.5 7 -50
      vertex 7.5 3.10001 50
      vertex 7.5 3.10001 -50
    endloop
  endfacet
  facet normal 1 0 -0
    outer loop
      vertex 7.5 7 -50
      vertex 7.5 7 50
      vertex 7.5 3.10001 50
    endloop
  endfacet
  facet normal 0 1 0
    outer loop
      vertex 7.48547 7 -50
      vertex 7.5 7 50
      vertex 7.5 7 -50
    endloop
  endfacet
  facet normal 0 1 0
    outer loop
      vertex 7.48547 7 -50
      vertex 7.48547 7 50
      vertex 7.5 7 50
    endloop
  endfacet
  facet normal 1 0 0
    outer loop
      vertex 7.48547 7.11966 -50
      vertex 7.48547 7 50
      vertex 7.48547 7 -50
    endloop
  endfacet
  facet normal 1 0 -0
    outer loop
      vertex 7.48547 7.11966 -50
      vertex 7.48547 7.11966 50
      vertex 7.48547 7 50
    endloop
  endfacet
  facet normal 0.885489 0.464661 0
    outer loop
      vertex 7.37427 7.33157 -50
      vertex 7.48547 7.11966 50
      vertex 7.48547 7.11966 -50
    endloop
  endfacet
  facet normal 0.885489 0.464661 -0
    outer loop
      vertex 7.37427 7.33157 -50
      vertex 7.37427 7.33157 50
      vertex 7.48547 7.11966 50
    endloop
  endfacet
  facet normal 0.568032 0.823007 0
    outer loop
      vertex 7.17731 7.46751 -50
      vertex 7.37427 7.33157 50
      vertex 7.37427 7.33157 -50
    endloop
  endfacet
  facet normal 0.568032 0.823007 -0
    outer loop
      vertex 7.17731 7.46751 -50
      vertex 7.17731 7.46751 50
      vertex 7.37427 7.33157 50
    endloop
  endfacet
  facet normal 0.12054 0.992708 0
    outer loop
      vertex 7 7.48904 -50
      vertex 7.17731 7.46751 50
      vertex 7.17731 7.46751 -50
    endloop
  endfacet
  facet normal 0.12054 0.992708 -0
    outer loop
      vertex 7 7.48904 -50
      vertex 7 7.48904 50
      vertex 7.17731 7.46751 50
    endloop
  endfacet
  facet normal 1 0 0
    outer loop
      vertex 7 7.5 -50
      vertex 7 7.48904 50
      vertex 7 7.48904 -50
    endloop
  endfacet
  facet normal 1 0 -0
    outer loop
      vertex 7 7.5 -50
      vertex 7 7.5 50
      vertex 7 7.48904 50
    endloop
  endfacet
  facet normal 0 1 0
    outer loop
      vertex 3.10001 7.5 -50
      vertex 7 7.5 50
      vertex 7 7.5 -50
    endloop
  endfacet
  facet normal 0 1 0
    outer loop
      vertex 3.10001 7.5 -50
      vertex 3.10001 7.5 50
      vertex 7 7.5 50
    endloop
  endfacet
  facet normal -1 0 0
    outer loop
      vertex 3.10001 6.5 -50
      vertex 3.10001 7.5 50
      vertex 3.10001 7.5 -50
    endloop
  endfacet
  facet normal -1 0 0
    outer loop
      vertex 3.10001 6.5 -50
      vertex 3.10001 6.5 50
      vertex 3.10001 7.5 50
    endloop
  endfacet
  facet normal 0 -1 0
    outer loop
      vertex 4.75 6.5 -50
      vertex 3.10001 6.5 50
      vertex 3.10001 6.5 -50
    endloop
  endfacet
  facet normal 0 -1 0
    outer loop
      vertex 4.75 6.5 -50
      vertex 4.75 6.5 50
      vertex 3.10001 6.5 50
    endloop
  endfacet
  facet normal -1 0 0
    outer loop
      vertex 4.75 5.3864 -50
      vertex 4.75 6.5 50
      vertex 4.75 6.5 -50
    endloop
  endfacet
  facet normal -1 0 0
    outer loop
      vertex 4.75 5.3864 -50
      vertex 4.75 5.3864 50
      vertex 4.75 6.5 50
    endloop
  endfacet
  facet normal -0.707107 0.707107 0
    outer loop
      vertex 2.1136 2.75 -50
      vertex 4.75 5.3864 50
      vertex 4.75 5.3864 -50
    endloop
  endfacet
  facet normal -0.707107 0.707107 0
    outer loop
      vertex 2.1136 2.75 -50
      vertex 2.1136 2.75 50
      vertex 4.75 5.3864 50
    endloop
  endfacet
  facet normal 0 1 0
    outer loop
      vertex -2.1136 2.75 -50
      vertex 2.1136 2.75 50
      vertex 2.1136 2.75 -50
    endloop
  endfacet
  facet normal 0 1 0
    outer loop
      vertex -2.1136 2.75 -50
      vertex -2.1136 2.75 50
      vertex 2.1136 2.75 50
    endloop
  endfacet
  facet normal 0.707107 0.707107 0
    outer loop
      vertex -4.75 5.3864 -50
      vertex -2.1136 2.75 50
      vertex -2.1136 2.75 -50
    endloop
  endfacet
  facet normal 0.707107 0.707107 -0
    outer loop
      vertex -4.75 5.3864 -50
      vertex -4.75 5.3864 50
      vertex -2.1136 2.75 50
    endloop
  endfacet
  facet normal 1 0 0
    outer loop
      vertex -4.75 6.5 -50
      vertex -4.75 5.3864 50
      vertex -4.75 5.3864 -50
    endloop
  endfacet
  facet normal 1 0 -0
    outer loop
      vertex -4.75 6.5 -50
      vertex -4.75 6.5 50
      vertex -4.75 5.3864 50
    endloop
  endfacet
  facet normal 0 -1 0
    outer loop
      vertex -3.10001 6.5 -50
      vertex -4.75 6.5 50
      vertex -4.75 6.5 -50
    endloop
  endfacet
  facet normal 0 -1 0
    outer loop
      vertex -3.10001 6.5 -50
      vertex -3.10001 6.5 50
      vertex -4.75 6.5 50
    endloop
  endfacet
  facet normal 1 0 0
    outer loop
      vertex -3.10001 7.5 -50
      vertex -3.10001 6.5 50
      vertex -3.10001 6.5 -50
    endloop
  endfacet
  facet normal 1 0 -0
    outer loop
      vertex -3.10001 7.5 -50
      vertex -3.10001 7.5 50
      vertex -3.10001 6.5 50
    endloop
  endfacet
  facet normal 0 1 0
    outer loop
      vertex -7 7.5 -50
      vertex -3.10001 7.5 50
      vertex -3.10001 7.5 -50
    endloop
  endfacet
  facet normal 0 1 0
    outer loop
      vertex -7 7.5 -50
      vertex -7 7.5 50
      vertex -3.10001 7.5 50
    endloop
  endfacet
  facet normal -1 0 0
    outer loop
      vertex -7 7.48547 -50
      vertex -7 7.5 50
      vertex -7 7.5 -50
    endloop
  endfacet
  facet normal -1 0 0
    outer loop
      vertex -7 7.48547 -50
      vertex -7 7.48547 50
      vertex -7 7.5 50
    endloop
  endfacet
  facet normal 0 1 0
    outer loop
      vertex -7.11966 7.48547 -50
      vertex -7 7.48547 50
      vertex -7 7.48547 -50
    endloop
  endfacet
  facet normal 0 1 0
    outer loop
      vertex -7.11966 7.48547 -50
      vertex -7.11966 7.48547 50
      vertex -7 7.48547 50
    endloop
  endfacet
  facet normal -0.464661 0.885489 0
    outer loop
      vertex -7.33157 7.37427 -50
      vertex -7.11966 7.48547 50
      vertex -7.11966 7.48547 -50
    endloop
  endfacet
  facet normal -0.464661 0.885489 0
    outer loop
      vertex -7.33157 7.37427 -50
      vertex -7.33157 7.37427 50
      vertex -7.11966 7.48547 50
    endloop
  endfacet
  facet normal -0.823007 0.568032 0
    outer loop
      vertex -7.46751 7.17731 -50
      vertex -7.33157 7.37427 50
      vertex -7.33157 7.37427 -50
    endloop
  endfacet
  facet normal -0.823007 0.568032 0
    outer loop
      vertex -7.46751 7.17731 -50
      vertex -7.46751 7.17731 50
      vertex -7.33157 7.37427 50
    endloop
  endfacet
  facet normal -0.992708 0.12054 0
    outer loop
      vertex -7.48904 7 -50
      vertex -7.46751 7.17731 50
      vertex -7.46751 7.17731 -50
    endloop
  endfacet
  facet normal -0.992708 0.12054 0
    outer loop
      vertex -7.48904 7 -50
      vertex -7.48904 7 50
      vertex -7.46751 7.17731 50
    endloop
  endfacet
  facet normal 0 1 0
    outer loop
      vertex -7.5 7 -50
      vertex -7.48904 7 50
      vertex -7.48904 7 -50
    endloop
  endfacet
  facet normal 0 1 0
    outer loop
      vertex -7.5 7 -50
      vertex -7.5 7 50
      vertex -7.48904 7 50
    endloop
  endfacet
  facet normal -1 0 0
    outer loop
      vertex -7.5 3.10001 -50
      vertex -7.5 7 50
      vertex -7.5 7 -50
    endloop
  endfacet
  facet normal -1 0 0
    outer loop
      vertex -7.5 3.10001 -50
      vertex -7.5 3.10001 50
      vertex -7.5 7 50
    endloop
  endfacet
  facet normal 0 -1 0
    outer loop
      vertex -6.5 3.10001 -50
      vertex -7.5 3.10001 50
      vertex -7.5 3.10001 -50
    endloop
  endfacet
  facet normal 0 -1 0
    outer loop
      vertex -6.5 3.10001 -50
      vertex -6.5 3.10001 50
      vertex -7.5 3.10001 50
    endloop
  endfacet
  facet normal 1 0 0
    outer loop
      vertex -6.5 4.75 -50
      vertex -6.5 3.10001 50
      vertex -6.5 3.10001 -50
    endloop
  endfacet
  facet normal 1 0 -0
    outer loop
      vertex -6.5 4.75 -50
      vertex -6.5 4.75 50
      vertex -6.5 3.10001 50
    endloop
  endfacet
  facet normal 0 -1 0
    outer loop
      vertex -5.3864 4.75 -50
      vertex -6.5 4.75 50
      vertex -6.5 4.75 -50
    endloop
  endfacet
  facet normal 0 -1 0
    outer loop
      vertex -5.3864 4.75 -50
      vertex -5.3864 4.75 50
      vertex -6.5 4.75 50
    endloop
  endfacet
  facet normal -0.707107 -0.707107 0
    outer loop
      vertex -2.75 2.1136 -50
      vertex -5.3864 4.75 50
      vertex -5.3864 4.75 -50
    endloop
  endfacet
  facet normal -0.707107 -0.707107 0
    outer loop
      vertex -2.75 2.1136 -50
      vertex -2.75 2.1136 50
      vertex -5.3864 4.75 50
    endloop
  endfacet
  facet normal -1 0 0
    outer loop
      vertex -2.75 -2.1136 -50
      vertex -2.75 2.1136 50
      vertex -2.75 2.1136 -50
    endloop
  endfacet
  facet normal -1 0 0
    outer loop
      vertex -2.75 -2.1136 -50
      vertex -2.75 -2.1136 50
      vertex -2.75 2.1136 50
    endloop
  endfacet
  facet normal -0.707107 0.707107 0
    outer loop
      vertex -5.3864 -4.75 -50
      vertex -2.75 -2.1136 50
      vertex -2.75 -2.1136 -50
    endloop
  endfacet
  facet normal -0.707107 0.707107 0
    outer loop
      vertex -5.3864 -4.75 -50
      vertex -5.3864 -4.75 50
      vertex -2.75 -2.1136 50
    endloop
  endfacet
  facet normal 0 1 0
    outer loop
      vertex -6.5 -4.75 -50
      vertex -5.3864 -4.75 50
      vertex -5.3864 -4.75 -50
    endloop
  endfacet
  facet normal 0 1 0
    outer loop
      vertex -6.5 -4.75 -50
      vertex -6.5 -4.75 50
      vertex -5.3864 -4.75 50
    endloop
  endfacet
  facet normal 1 0 0
    outer loop
      vertex -6.5 -3.10001 -50
      vertex -6.5 -4.75 50
      vertex -6.5 -4.75 -50
    endloop
  endfacet
  facet normal 1 0 -0
    outer loop
      vertex -6.5 -3.10001 -50
      vertex -6.5 -3.10001 50
      vertex -6.5 -4.75 50
    endloop
  endfacet
  facet normal 0 1 0
    outer loop
      vertex -7.5 -3.10001 -50
      vertex -6.5 -3.10001 50
      vertex -6.5 -3.10001 -50
    endloop
  endfacet
  facet normal 0 1 0
    outer loop
      vertex -7.5 -3.10001 -50
      vertex -7.5 -3.10001 50
      vertex -6.5 -3.10001 50
    endloop
  endfacet
  facet normal -1 0 0
    outer loop
      vertex -7.5 -7 -50
      vertex -7.5 -3.10001 50
      vertex -7.5 -3.10001 -50
    endloop
  endfacet
  facet normal -1 0 0
    outer loop
      vertex -7.5 -7 -50
      vertex -7.5 -7 50
      vertex -7.5 -3.10001 50
    endloop
  endfacet
  facet normal 0 -1 0
    outer loop
      vertex -7.48547 -7 -50
      vertex -7.5 -7 50
      vertex -7.5 -7 -50
    endloop
  endfacet
  facet normal 0 -1 0
    outer loop
      vertex -7.48547 -7 -50
      vertex -7.48547 -7 50
      vertex -7.5 -7 50
    endloop
  endfacet
  facet normal -1 0 0
    outer loop
      vertex -7.48547 -7.11966 -50
      vertex -7.48547 -7 50
      vertex -7.48547 -7 -50
    endloop
  endfacet
  facet normal -1 0 0
    outer loop
      vertex -7.48547 -7.11966 -50
      vertex -7.48547 -7.11966 50
      vertex -7.48547 -7 50
    endloop
  endfacet
  facet normal -0.885489 -0.464661 0
    outer loop
      vertex -7.37427 -7.33157 -50
      vertex -7.48547 -7.11966 50
      vertex -7.48547 -7.11966 -50
    endloop
  endfacet
  facet normal -0.885489 -0.464661 0
    outer loop
      vertex -7.37427 -7.33157 -50
      vertex -7.37427 -7.33157 50
      vertex -7.48547 -7.11966 50
    endloop
  endfacet
  facet normal -0.568032 -0.823007 0
    outer loop
      vertex -7.17731 -7.46751 -50
      vertex -7.37427 -7.33157 50
      vertex -7.37427 -7.33157 -50
    endloop
  endfacet
  facet normal -0.568032 -0.823007 0
    outer loop
      vertex -7.17731 -7.46751 -50
      vertex -7.17731 -7.46751 50
      vertex -7.37427 -7.33157 50
    endloop
  endfacet
  facet normal -0.12054 -0.992708 0
    outer loop
      vertex -7 -7.48904 -50
      vertex -7.17731 -7.46751 50
      vertex -7.17731 -7.46751 -50
    endloop
  endfacet
  facet normal -0.12054 -0.992708 0
    outer loop
      vertex -7 -7.48904 -50
      vertex -7 -7.48904 50
      vertex -7.17731 -7.46751 50
    endloop
  endfacet
  facet normal -1 0 0
    outer loop
      vertex -7 -7.5 -50
      vertex -7 -7.48904 50
      vertex -7 -7.48904 -50
    endloop
  endfacet
  facet normal -1 0 0
    outer loop
      vertex -7 -7.5 -50
      vertex -7 -7.5 50
      vertex -7 -7.48904 50
    endloop
  endfacet
  facet normal 0 -1 0
    outer loop
      vertex -3.10001 -7.5 -50
      vertex -7 -7.5 50
      vertex -7 -7.5 -50
    endloop
  endfacet
  facet normal 0 -1 0
    outer loop
      vertex -3.10001 -7.5 -50
      vertex -3.10001 -7.5 50
      vertex -7 -7.5 50
    endloop
  endfacet
  facet normal 1 0 0
    outer loop
      vertex -3.10001 -6.5 -50
      vertex -3.10001 -7.5 50
      vertex -3.10001 -7.5 -50
    endloop
  endfacet
  facet normal 1 0 -0
    outer loop
      vertex -3.10001 -6.5 -50
      vertex -3.10001 -6.5 50
      vertex -3.10001 -7.5 50
    endloop
  endfacet
  facet normal 0.149055 0.988829 -0
    outer loop
      vertex -0.367157 -1.60863 -50
      vertex -0.367157 -1.60863 50
      vertex -0.123291 -1.64539 -50
    endloop
  endfacet
  facet normal 0.149055 0.988829 0
    outer loop
      vertex -0.123291 -1.64539 50
      vertex -0.123291 -1.64539 -50
      vertex -0.367157 -1.60863 50
    endloop
  endfacet
  facet normal 0.294808 0.955556 -0
    outer loop
      vertex -0.602798 -1.53593 -50
      vertex -0.602798 -1.53593 50
      vertex -0.367157 -1.60863 -50
    endloop
  endfacet
  facet normal 0.294808 0.955556 0
    outer loop
      vertex -0.367157 -1.60863 50
      vertex -0.367157 -1.60863 -50
      vertex -0.602798 -1.53593 50
    endloop
  endfacet
  facet normal 0.433833 0.900993 -0
    outer loop
      vertex -0.824997 -1.42894 -50
      vertex -0.824997 -1.42894 50
      vertex -0.602798 -1.53593 -50
    endloop
  endfacet
  facet normal 0.433833 0.900993 0
    outer loop
      vertex -0.602798 -1.53593 50
      vertex -0.602798 -1.53593 -50
      vertex -0.824997 -1.42894 50
    endloop
  endfacet
  facet normal 0.563358 0.826213 -0
    outer loop
      vertex -1.02875 -1.29001 -50
      vertex -1.02875 -1.29001 50
      vertex -0.824997 -1.42894 -50
    endloop
  endfacet
  facet normal 0.563358 0.826213 0
    outer loop
      vertex -0.824997 -1.42894 50
      vertex -0.824997 -1.42894 -50
      vertex -1.02875 -1.29001 50
    endloop
  endfacet
  facet normal 0.680152 0.733071 -0
    outer loop
      vertex -1.20953 -1.12228 -50
      vertex -1.20953 -1.12228 50
      vertex -1.02875 -1.29001 -50
    endloop
  endfacet
  facet normal 0.680152 0.733071 0
    outer loop
      vertex -1.02875 -1.29001 50
      vertex -1.02875 -1.29001 -50
      vertex -1.20953 -1.12228 50
    endloop
  endfacet
  facet normal 0.781847 0.623471 -0
    outer loop
      vertex -1.36328 -0.929474 -50
      vertex -1.36328 -0.929474 50
      vertex -1.20953 -1.12228 -50
    endloop
  endfacet
  facet normal 0.781847 0.623471 0
    outer loop
      vertex -1.20953 -1.12228 50
      vertex -1.20953 -1.12228 -50
      vertex -1.36328 -0.929474 50
    endloop
  endfacet
  facet normal 0.866023 0.500004 -0
    outer loop
      vertex -1.48659 -0.715897 -50
      vertex -1.48659 -0.715897 50
      vertex -1.36328 -0.929474 -50
    endloop
  endfacet
  facet normal 0.866023 0.500004 0
    outer loop
      vertex -1.36328 -0.929474 50
      vertex -1.36328 -0.929474 -50
      vertex -1.48659 -0.715897 50
    endloop
  endfacet
  facet normal 0.930865 0.365365 -0
    outer loop
      vertex -1.57669 -0.486343 -50
      vertex -1.57669 -0.486343 50
      vertex -1.48659 -0.715897 -50
    endloop
  endfacet
  facet normal 0.930865 0.365365 0
    outer loop
      vertex -1.48659 -0.715897 50
      vertex -1.48659 -0.715897 -50
      vertex -1.57669 -0.486343 50
    endloop
  endfacet
  facet normal 0.974934 0.222494 -0
    outer loop
      vertex -1.63156 -0.245911 -50
      vertex -1.63156 -0.245911 50
      vertex -1.57669 -0.486343 -50
    endloop
  endfacet
  facet normal 0.974934 0.222494 0
    outer loop
      vertex -1.57669 -0.486343 50
      vertex -1.57669 -0.486343 -50
      vertex -1.63156 -0.245911 50
    endloop
  endfacet
  facet normal 0.997203 0.0747362 -0
    outer loop
      vertex -1.64999 0 -50
      vertex -1.64999 0 50
      vertex -1.63156 -0.245911 -50
    endloop
  endfacet
  facet normal 0.997203 0.0747362 0
    outer loop
      vertex -1.63156 -0.245911 50
      vertex -1.63156 -0.245911 -50
      vertex -1.64999 0 50
    endloop
  endfacet
  facet normal 0.997203 -0.0747362 0
    outer loop
      vertex -1.63156 0.245911 -50
      vertex -1.63156 0.245911 50
      vertex -1.64999 0 -50
    endloop
  endfacet
  facet normal 0.997203 -0.0747362 0
    outer loop
      vertex -1.64999 0 50
      vertex -1.64999 0 -50
      vertex -1.63156 0.245911 50
    endloop
  endfacet
  facet normal 0.974934 -0.222494 0
    outer loop
      vertex -1.57669 0.486343 -50
      vertex -1.57669 0.486343 50
      vertex -1.63156 0.245911 -50
    endloop
  endfacet
  facet normal 0.974934 -0.222494 0
    outer loop
      vertex -1.63156 0.245911 50
      vertex -1.63156 0.245911 -50
      vertex -1.57669 0.486343 50
    endloop
  endfacet
  facet normal 0.930865 -0.365365 0
    outer loop
      vertex -1.48659 0.715897 -50
      vertex -1.48659 0.715897 50
      vertex -1.57669 0.486343 -50
    endloop
  endfacet
  facet normal 0.930865 -0.365365 0
    outer loop
      vertex -1.57669 0.486343 50
      vertex -1.57669 0.486343 -50
      vertex -1.48659 0.715897 50
    endloop
  endfacet
  facet normal 0.866023 -0.500004 0
    outer loop
      vertex -1.36328 0.929474 -50
      vertex -1.36328 0.929474 50
      vertex -1.48659 0.715897 -50
    endloop
  endfacet
  facet normal 0.866023 -0.500004 0
    outer loop
      vertex -1.48659 0.715897 50
      vertex -1.48659 0.715897 -50
      vertex -1.36328 0.929474 50
    endloop
  endfacet
  facet normal 0.781847 -0.623471 0
    outer loop
      vertex -1.20953 1.12228 -50
      vertex -1.20953 1.12228 50
      vertex -1.36328 0.929474 -50
    endloop
  endfacet
  facet normal 0.781847 -0.623471 0
    outer loop
      vertex -1.36328 0.929474 50
      vertex -1.36328 0.929474 -50
      vertex -1.20953 1.12228 50
    endloop
  endfacet
  facet normal 0.680152 -0.733071 0
    outer loop
      vertex -1.02875 1.29001 -50
      vertex -1.02875 1.29001 50
      vertex -1.20953 1.12228 -50
    endloop
  endfacet
  facet normal 0.680152 -0.733071 0
    outer loop
      vertex -1.20953 1.12228 50
      vertex -1.20953 1.12228 -50
      vertex -1.02875 1.29001 50
    endloop
  endfacet
  facet normal 0.563358 -0.826213 0
    outer loop
      vertex -0.824997 1.42894 -50
      vertex -0.824997 1.42894 50
      vertex -1.02875 1.29001 -50
    endloop
  endfacet
  facet normal 0.563358 -0.826213 0
    outer loop
      vertex -1.02875 1.29001 50
      vertex -1.02875 1.29001 -50
      vertex -0.824997 1.42894 50
    endloop
  endfacet
  facet normal 0.433833 -0.900993 0
    outer loop
      vertex -0.602798 1.53593 -50
      vertex -0.602798 1.53593 50
      vertex -0.824997 1.42894 -50
    endloop
  endfacet
  facet normal 0.433833 -0.900993 0
    outer loop
      vertex -0.824997 1.42894 50
      vertex -0.824997 1.42894 -50
      vertex -0.602798 1.53593 50
    endloop
  endfacet
  facet normal 0.294808 -0.955556 0
    outer loop
      vertex -0.367157 1.60863 -50
      vertex -0.367157 1.60863 50
      vertex -0.602798 1.53593 -50
    endloop
  endfacet
  facet normal 0.294808 -0.955556 0
    outer loop
      vertex -0.602798 1.53593 50
      vertex -0.602798 1.53593 -50
      vertex -0.367157 1.60863 50
    endloop
  endfacet
  facet normal 0.149055 -0.988829 0
    outer loop
      vertex -0.123291 1.64539 -50
      vertex -0.123291 1.64539 50
      vertex -0.367157 1.60863 -50
    endloop
  endfacet
  facet normal 0.149055 -0.988829 0
    outer loop
      vertex -0.367157 1.60863 50
      vertex -0.367157 1.60863 -50
      vertex -0.123291 1.64539 50
    endloop
  endfacet
  facet normal 0 -1 0
    outer loop
      vertex 0.123291 1.64539 -50
      vertex 0.123291 1.64539 50
      vertex -0.123291 1.64539 -50
    endloop
  endfacet
  facet normal 0 -1 0
    outer loop
      vertex -0.123291 1.64539 50
      vertex -0.123291 1.64539 -50
      vertex 0.123291 1.64539 50
    endloop
  endfacet
  facet normal -0.149055 -0.988829 0
    outer loop
      vertex 0.367157 1.60863 -50
      vertex 0.367157 1.60863 50
      vertex 0.123291 1.64539 -50
    endloop
  endfacet
  facet normal -0.149055 -0.988829 -0
    outer loop
      vertex 0.123291 1.64539 50
      vertex 0.123291 1.64539 -50
      vertex 0.367157 1.60863 50
    endloop
  endfacet
  facet normal -0.294808 -0.955556 0
    outer loop
      vertex 0.602798 1.53593 -50
      vertex 0.602798 1.53593 50
      vertex 0.367157 1.60863 -50
    endloop
  endfacet
  facet normal -0.294808 -0.955556 -0
    outer loop
      vertex 0.367157 1.60863 50
      vertex 0.367157 1.60863 -50
      vertex 0.602798 1.53593 50
    endloop
  endfacet
  facet normal -0.433833 -0.900993 0
    outer loop
      vertex 0.824997 1.42894 -50
      vertex 0.824997 1.42894 50
      vertex 0.602798 1.53593 -50
    endloop
  endfacet
  facet normal -0.433833 -0.900993 -0
    outer loop
      vertex 0.602798 1.53593 50
      vertex 0.602798 1.53593 -50
      vertex 0.824997 1.42894 50
    endloop
  endfacet
  facet normal -0.563358 -0.826213 0
    outer loop
      vertex 1.02875 1.29001 -50
      vertex 1.02875 1.29001 50
      vertex 0.824997 1.42894 -50
    endloop
  endfacet
  facet normal -0.563358 -0.826213 -0
    outer loop
      vertex 0.824997 1.42894 50
      vertex 0.824997 1.42894 -50
      vertex 1.02875 1.29001 50
    endloop
  endfacet
  facet normal -0.680152 -0.733071 0
    outer loop
      vertex 1.20953 1.12228 -50
      vertex 1.20953 1.12228 50
      vertex 1.02875 1.29001 -50
    endloop
  endfacet
  facet normal -0.680152 -0.733071 -0
    outer loop
      vertex 1.02875 1.29001 50
      vertex 1.02875 1.29001 -50
      vertex 1.20953 1.12228 50
    endloop
  endfacet
  facet normal -0.781847 -0.623471 0
    outer loop
      vertex 1.36328 0.929474 -50
      vertex 1.36328 0.929474 50
      vertex 1.20953 1.12228 -50
    endloop
  endfacet
  facet normal -0.781847 -0.623471 -0
    outer loop
      vertex 1.20953 1.12228 50
      vertex 1.20953 1.12228 -50
      vertex 1.36328 0.929474 50
    endloop
  endfacet
  facet normal -0.866023 -0.500004 0
    outer loop
      vertex 1.48659 0.715897 -50
      vertex 1.48659 0.715897 50
      vertex 1.36328 0.929474 -50
    endloop
  endfacet
  facet normal -0.866023 -0.500004 -0
    outer loop
      vertex 1.36328 0.929474 50
      vertex 1.36328 0.929474 -50
      vertex 1.48659 0.715897 50
    endloop
  endfacet
  facet normal -0.930865 -0.365365 0
    outer loop
      vertex 1.57669 0.486343 -50
      vertex 1.57669 0.486343 50
      vertex 1.48659 0.715897 -50
    endloop
  endfacet
  facet normal -0.930865 -0.365365 -0
    outer loop
      vertex 1.48659 0.715897 50
      vertex 1.48659 0.715897 -50
      vertex 1.57669 0.486343 50
    endloop
  endfacet
  facet normal -0.974934 -0.222494 0
    outer loop
      vertex 1.63156 0.245911 -50
      vertex 1.63156 0.245911 50
      vertex 1.57669 0.486343 -50
    endloop
  endfacet
  facet normal -0.974934 -0.222494 -0
    outer loop
      vertex 1.57669 0.486343 50
      vertex 1.57669 0.486343 -50
      vertex 1.63156 0.245911 50
    endloop
  endfacet
  facet normal -0.997203 -0.0747362 0
    outer loop
      vertex 1.64999 0 -50
      vertex 1.64999 0 50
      vertex 1.63156 0.245911 -50
    endloop
  endfacet
  facet normal -0.997203 -0.0747362 -0
    outer loop
      vertex 1.63156 0.245911 50
      vertex 1.63156 0.245911 -50
      vertex 1.64999 0 50
    endloop
  endfacet
  facet normal -0.997203 0.0747362 0
    outer loop
      vertex 1.63156 -0.245911 -50
      vertex 1.63156 -0.245911 50
      vertex 1.64999 0 -50
    endloop
  endfacet
  facet normal -0.997203 0.0747362 0
    outer loop
      vertex 1.64999 0 50
      vertex 1.64999 0 -50
      vertex 1.63156 -0.245911 50
    endloop
  endfacet
  facet normal -0.974934 0.222494 0
    outer loop
      vertex 1.57669 -0.486343 -50
      vertex 1.57669 -0.486343 50
      vertex 1.63156 -0.245911 -50
    endloop
  endfacet
  facet normal -0.974934 0.222494 0
    outer loop
      vertex 1.63156 -0.245911 50
      vertex 1.63156 -0.245911 -50
      vertex 1.57669 -0.486343 50
    endloop
  endfacet
  facet normal -0.930865 0.365365 0
    outer loop
      vertex 1.48659 -0.715897 -50
      vertex 1.48659 -0.715897 50
      vertex 1.57669 -0.486343 -50
    endloop
  endfacet
  facet normal -0.930865 0.365365 0
    outer loop
      vertex 1.57669 -0.486343 50
      vertex 1.57669 -0.486343 -50
      vertex 1.48659 -0.715897 50
    endloop
  endfacet
  facet normal -0.866023 0.500004 0
    outer loop
      vertex 1.36328 -0.929474 -50
      vertex 1.36328 -0.929474 50
      vertex 1.48659 -0.715897 -50
    endloop
  endfacet
  facet normal -0.866023 0.500004 0
    outer loop
      vertex 1.48659 -0.715897 50
      vertex 1.48659 -0.715897 -50
      vertex 1.36328 -0.929474 50
    endloop
  endfacet
  facet normal -0.781847 0.623471 0
    outer loop
      vertex 1.20953 -1.12228 -50
      vertex 1.20953 -1.12228 50
      vertex 1.36328 -0.929474 -50
    endloop
  endfacet
  facet normal -0.781847 0.623471 0
    outer loop
      vertex 1.36328 -0.929474 50
      vertex 1.36328 -0.929474 -50
      vertex 1.20953 -1.12228 50
    endloop
  endfacet
  facet normal -0.680152 0.733071 0
    outer loop
      vertex 1.02875 -1.29001 -50
      vertex 1.02875 -1.29001 50
      vertex 1.20953 -1.12228 -50
    endloop
  endfacet
  facet normal -0.680152 0.733071 0
    outer loop
      vertex 1.20953 -1.12228 50
      vertex 1.20953 -1.12228 -50
      vertex 1.02875 -1.29001 50
    endloop
  endfacet
  facet normal -0.563358 0.826213 0
    outer loop
      vertex 0.824997 -1.42894 -50
      vertex 0.824997 -1.42894 50
      vertex 1.02875 -1.29001 -50
    endloop
  endfacet
  facet normal -0.563358 0.826213 0
    outer loop
      vertex 1.02875 -1.29001 50
      vertex 1.02875 -1.29001 -50
      vertex 0.824997 -1.42894 50
    endloop
  endfacet
  facet normal -0.433833 0.900993 0
    outer loop
      vertex 0.602798 -1.53593 -50
      vertex 0.602798 -1.53593 50
      vertex 0.824997 -1.42894 -50
    endloop
  endfacet
  facet normal -0.433833 0.900993 0
    outer loop
      vertex 0.824997 -1.42894 50
      vertex 0.824997 -1.42894 -50
      vertex 0.602798 -1.53593 50
    endloop
  endfacet
  facet normal -0.294808 0.955556 0
    outer loop
      vertex 0.367157 -1.60863 -50
      vertex 0.367157 -1.60863 50
      vertex 0.602798 -1.53593 -50
    endloop
  endfacet
  facet normal -0.294808 0.955556 0
    outer loop
      vertex 0.602798 -1.53593 50
      vertex 0.602798 -1.53593 -50
      vertex 0.367157 -1.60863 50
    endloop
  endfacet
  facet normal -0.149055 0.988829 0
    outer loop
      vertex 0.123291 -1.64539 -50
      vertex 0.123291 -1.64539 50
      vertex 0.367157 -1.60863 -50
    endloop
  endfacet
  facet normal -0.149055 0.988829 0
    outer loop
      vertex 0.367157 -1.60863 50
      vertex 0.367157 -1.60863 -50
      vertex 0.123291 -1.64539 50
    endloop
  endfacet
  facet normal 0 1 0
    outer loop
      vertex -0.123291 -1.64539 -50
      vertex -0.123291 -1.64539 50
      vertex 0.123291 -1.64539 -50
    endloop
  endfacet
  facet normal 0 1 0
    outer loop
      vertex 0.123291 -1.64539 50
      vertex 0.123291 -1.64539 -50
      vertex -0.123291 -1.64539 50
    endloop
  endfacet
endsolid OpenSCAD_Model
