solid OpenSCAD_Model
  facet normal 0 0 -1
    outer loop
      vertex 28 0 -10
      vertex 23 5 -10
      vertex 28 5 -10
    endloop
  endfacet
  facet normal 0 0 -1
    outer loop
      vertex 0 0 -10
      vertex 23 5 -10
      vertex 28 0 -10
    endloop
  endfacet
  facet normal -0 0 -1
    outer loop
      vertex 23 5 -10
      vertex 0 0 -10
      vertex 5 23 -10
    endloop
  endfacet
  facet normal 0 0 -1
    outer loop
      vertex 0 28 -10
      vertex 5 23 -10
      vertex 0 0 -10
    endloop
  endfacet
  facet normal 0 0 -1
    outer loop
      vertex 5 23 -10
      vertex 0 28 -10
      vertex 5 28 -10
    endloop
  endfacet
  facet normal 0 -1 0
    outer loop
      vertex 17.5105 0 2.14484
      vertex 28 0 10
      vertex 0 0 10
    endloop
  endfacet
  facet normal 0 -1 0
    outer loop
      vertex 28 0 10
      vertex 17.7537 0 2.18616
      vertex 18 0 2.2
    endloop
  endfacet
  facet normal 0 -1 0
    outer loop
      vertex 28 0 10
      vertex 17.5105 0 2.14484
      vertex 17.7537 0 2.18616
    endloop
  endfacet
  facet normal 0 -1 0
    outer loop
      vertex 0 0 10
      vertex 17.2734 0 2.07654
      vertex 17.5105 0 2.14484
    endloop
  endfacet
  facet normal 0 -1 0
    outer loop
      vertex 0 0 10
      vertex 17.0454 0 1.98212
      vertex 17.2734 0 2.07654
    endloop
  endfacet
  facet normal 0 -1 0
    outer loop
      vertex 0 0 10
      vertex 16.8295 0 1.86279
      vertex 17.0454 0 1.98212
    endloop
  endfacet
  facet normal 0 -1 0
    outer loop
      vertex 0 0 10
      vertex 16.6283 0 1.72002
      vertex 16.8295 0 1.86279
    endloop
  endfacet
  facet normal 0 -1 0
    outer loop
      vertex 0 0 10
      vertex 16.4444 0 1.55563
      vertex 16.6283 0 1.72002
    endloop
  endfacet
  facet normal 0 -1 0
    outer loop
      vertex 0 0 10
      vertex 16.28 0 1.37167
      vertex 16.4444 0 1.55563
    endloop
  endfacet
  facet normal 0 -1 0
    outer loop
      vertex 0 0 10
      vertex 16.1372 0 1.17046
      vertex 16.28 0 1.37167
    endloop
  endfacet
  facet normal 0 -1 0
    outer loop
      vertex 0 0 10
      vertex 16.0179 0 0.954544
      vertex 16.1372 0 1.17046
    endloop
  endfacet
  facet normal 0 -1 0
    outer loop
      vertex 0 0 10
      vertex 15.9234 0 0.726608
      vertex 16.0179 0 0.954544
    endloop
  endfacet
  facet normal 0 -1 0
    outer loop
      vertex 0 0 10
      vertex 15.8551 0 0.489532
      vertex 15.9234 0 0.726608
    endloop
  endfacet
  facet normal 0 -1 0
    outer loop
      vertex 0 0 10
      vertex 15.8138 0 0.246307
      vertex 15.8551 0 0.489532
    endloop
  endfacet
  facet normal 0 -1 0
    outer loop
      vertex 0 0 10
      vertex 15.8 0 0
      vertex 15.8138 0 0.246307
    endloop
  endfacet
  facet normal 0 -1 0
    outer loop
      vertex 0 0 -10
      vertex 15.8 0 0
      vertex 0 0 10
    endloop
  endfacet
  facet normal 0 -1 -0
    outer loop
      vertex 15.8 0 0
      vertex 0 0 -10
      vertex 15.8138 0 -0.246307
    endloop
  endfacet
  facet normal 0 -1 -0
    outer loop
      vertex 15.8138 0 -0.246307
      vertex 0 0 -10
      vertex 15.8551 0 -0.489532
    endloop
  endfacet
  facet normal 0 -1 -0
    outer loop
      vertex 15.8551 0 -0.489532
      vertex 0 0 -10
      vertex 15.9234 0 -0.726608
    endloop
  endfacet
  facet normal 0 -1 -0
    outer loop
      vertex 15.9234 0 -0.726608
      vertex 0 0 -10
      vertex 16.0179 0 -0.954544
    endloop
  endfacet
  facet normal 0 -1 -0
    outer loop
      vertex 16.0179 0 -0.954544
      vertex 0 0 -10
      vertex 16.1372 0 -1.17046
    endloop
  endfacet
  facet normal 0 -1 -0
    outer loop
      vertex 16.1372 0 -1.17046
      vertex 0 0 -10
      vertex 16.28 0 -1.37167
    endloop
  endfacet
  facet normal 0 -1 -0
    outer loop
      vertex 16.28 0 -1.37167
      vertex 0 0 -10
      vertex 16.4444 0 -1.55563
    endloop
  endfacet
  facet normal 0 -1 -0
    outer loop
      vertex 16.4444 0 -1.55563
      vertex 0 0 -10
      vertex 16.6283 0 -1.72002
    endloop
  endfacet
  facet normal 0 -1 0
    outer loop
      vertex 17.7537 0 -2.18616
      vertex 28 0 -10
      vertex 18 0 -2.2
    endloop
  endfacet
  facet normal 0 -1 0
    outer loop
      vertex 17.5105 0 -2.14484
      vertex 28 0 -10
      vertex 17.7537 0 -2.18616
    endloop
  endfacet
  facet normal 0 -1 0
    outer loop
      vertex 28 0 -10
      vertex 17.5105 0 -2.14484
      vertex 0 0 -10
    endloop
  endfacet
  facet normal 0 -1 -0
    outer loop
      vertex 17.2734 0 -2.07654
      vertex 0 0 -10
      vertex 17.5105 0 -2.14484
    endloop
  endfacet
  facet normal 0 -1 -0
    outer loop
      vertex 17.0454 0 -1.98212
      vertex 0 0 -10
      vertex 17.2734 0 -2.07654
    endloop
  endfacet
  facet normal 0 -1 -0
    outer loop
      vertex 16.8295 0 -1.86279
      vertex 0 0 -10
      vertex 17.0454 0 -1.98212
    endloop
  endfacet
  facet normal 0 -1 -0
    outer loop
      vertex 16.6283 0 -1.72002
      vertex 0 0 -10
      vertex 16.8295 0 -1.86279
    endloop
  endfacet
  facet normal 0 -1 0
    outer loop
      vertex 21 0 2.2
      vertex 28 0 10
      vertex 18 0 2.2
    endloop
  endfacet
  facet normal 0 -1 0
    outer loop
      vertex 21.2463 0 2.18616
      vertex 28 0 10
      vertex 21 0 2.2
    endloop
  endfacet
  facet normal 0 -1 0
    outer loop
      vertex 21.4895 0 2.14484
      vertex 28 0 10
      vertex 21.2463 0 2.18616
    endloop
  endfacet
  facet normal 0 -1 0
    outer loop
      vertex 21.7266 0 2.07654
      vertex 28 0 10
      vertex 21.4895 0 2.14484
    endloop
  endfacet
  facet normal 0 -1 0
    outer loop
      vertex 21.9545 0 1.98212
      vertex 28 0 10
      vertex 21.7266 0 2.07654
    endloop
  endfacet
  facet normal 0 -1 0
    outer loop
      vertex 22.1705 0 1.86279
      vertex 28 0 10
      vertex 21.9545 0 1.98212
    endloop
  endfacet
  facet normal 0 -1 0
    outer loop
      vertex 22.3717 0 1.72002
      vertex 28 0 10
      vertex 22.1705 0 1.86279
    endloop
  endfacet
  facet normal 0 -1 0
    outer loop
      vertex 22.5556 0 1.55563
      vertex 28 0 10
      vertex 22.3717 0 1.72002
    endloop
  endfacet
  facet normal 0 -1 0
    outer loop
      vertex 22.72 0 1.37167
      vertex 28 0 10
      vertex 22.5556 0 1.55563
    endloop
  endfacet
  facet normal 0 -1 0
    outer loop
      vertex 22.8628 0 1.17046
      vertex 28 0 10
      vertex 22.72 0 1.37167
    endloop
  endfacet
  facet normal 0 -1 0
    outer loop
      vertex 22.9821 0 0.954544
      vertex 28 0 10
      vertex 22.8628 0 1.17046
    endloop
  endfacet
  facet normal 0 -1 0
    outer loop
      vertex 23.0765 0 0.726608
      vertex 28 0 10
      vertex 22.9821 0 0.954544
    endloop
  endfacet
  facet normal 0 -1 0
    outer loop
      vertex 23.1448 0 0.489532
      vertex 28 0 10
      vertex 23.0765 0 0.726608
    endloop
  endfacet
  facet normal 0 -1 0
    outer loop
      vertex 23.1862 0 0.246307
      vertex 28 0 10
      vertex 23.1448 0 0.489532
    endloop
  endfacet
  facet normal 0 -1 0
    outer loop
      vertex 23.2 0 0
      vertex 28 0 10
      vertex 23.1862 0 0.246307
    endloop
  endfacet
  facet normal 0 -1 0
    outer loop
      vertex 28 0 -10
      vertex 23.2 0 0
      vertex 23.1862 0 -0.246307
    endloop
  endfacet
  facet normal 0 -1 0
    outer loop
      vertex 28 0 -10
      vertex 23.1862 0 -0.246307
      vertex 23.1448 0 -0.489532
    endloop
  endfacet
  facet normal 0 -1 0
    outer loop
      vertex 28 0 -10
      vertex 23.1448 0 -0.489532
      vertex 23.0765 0 -0.726608
    endloop
  endfacet
  facet normal 0 -1 0
    outer loop
      vertex 28 0 -10
      vertex 23.0765 0 -0.726608
      vertex 22.9821 0 -0.954544
    endloop
  endfacet
  facet normal 0 -1 0
    outer loop
      vertex 18 0 -2.2
      vertex 28 0 -10
      vertex 21 0 -2.2
    endloop
  endfacet
  facet normal 0 -1 0
    outer loop
      vertex 21 0 -2.2
      vertex 28 0 -10
      vertex 21.2463 0 -2.18616
    endloop
  endfacet
  facet normal 0 -1 0
    outer loop
      vertex 21.2463 0 -2.18616
      vertex 28 0 -10
      vertex 21.4895 0 -2.14484
    endloop
  endfacet
  facet normal 0 -1 0
    outer loop
      vertex 23.2 0 0
      vertex 28 0 -10
      vertex 28 0 10
    endloop
  endfacet
  facet normal 0 -1 0
    outer loop
      vertex 22.8628 0 -1.17046
      vertex 28 0 -10
      vertex 22.9821 0 -0.954544
    endloop
  endfacet
  facet normal 0 -1 0
    outer loop
      vertex 22.72 0 -1.37167
      vertex 28 0 -10
      vertex 22.8628 0 -1.17046
    endloop
  endfacet
  facet normal 0 -1 0
    outer loop
      vertex 22.5556 0 -1.55563
      vertex 28 0 -10
      vertex 22.72 0 -1.37167
    endloop
  endfacet
  facet normal 0 -1 0
    outer loop
      vertex 22.3717 0 -1.72002
      vertex 28 0 -10
      vertex 22.5556 0 -1.55563
    endloop
  endfacet
  facet normal 0 -1 0
    outer loop
      vertex 22.1705 0 -1.86279
      vertex 28 0 -10
      vertex 22.3717 0 -1.72002
    endloop
  endfacet
  facet normal 0 -1 0
    outer loop
      vertex 21.9545 0 -1.98212
      vertex 28 0 -10
      vertex 22.1705 0 -1.86279
    endloop
  endfacet
  facet normal 0 -1 0
    outer loop
      vertex 21.7266 0 -2.07654
      vertex 28 0 -10
      vertex 21.9545 0 -1.98212
    endloop
  endfacet
  facet normal 0 -1 0
    outer loop
      vertex 21.4895 0 -2.14484
      vertex 28 0 -10
      vertex 21.7266 0 -2.07654
    endloop
  endfacet
  facet normal 0 0 1
    outer loop
      vertex 5 28 -7
      vertex 2 28 -7
      vertex 5 23 -7
    endloop
  endfacet
  facet normal -0 0 1
    outer loop
      vertex 23 5 -7
      vertex 28 2 -7
      vertex 28 5 -7
    endloop
  endfacet
  facet normal 0 0 1
    outer loop
      vertex 23 5 -7
      vertex 2 2 -7
      vertex 28 2 -7
    endloop
  endfacet
  facet normal 0 0 1
    outer loop
      vertex 5 23 -7
      vertex 2 2 -7
      vertex 23 5 -7
    endloop
  endfacet
  facet normal 0 0 1
    outer loop
      vertex 2 2 -7
      vertex 5 23 -7
      vertex 2 28 -7
    endloop
  endfacet
  facet normal 0.707107 0.707107 0
    outer loop
      vertex 23 5 -7
      vertex 5 23 -10
      vertex 5 23 -7
    endloop
  endfacet
  facet normal 0.707107 0.707107 0
    outer loop
      vertex 5 23 -10
      vertex 23 5 -7
      vertex 23 5 -10
    endloop
  endfacet
  facet normal -1 0 0
    outer loop
      vertex 0 28 -10
      vertex 0 23.2 0
      vertex 0 28 10
    endloop
  endfacet
  facet normal -1 0 0
    outer loop
      vertex 0 28 -10
      vertex 0 23.1862 -0.246307
      vertex 0 23.2 0
    endloop
  endfacet
  facet normal -1 0 0
    outer loop
      vertex 0 28 -10
      vertex 0 23.1448 -0.489532
      vertex 0 23.1862 -0.246307
    endloop
  endfacet
  facet normal -1 0 0
    outer loop
      vertex 0 28 -10
      vertex 0 23.0765 -0.726608
      vertex 0 23.1448 -0.489532
    endloop
  endfacet
  facet normal -1 0 0
    outer loop
      vertex 0 28 -10
      vertex 0 22.9821 -0.954544
      vertex 0 23.0765 -0.726608
    endloop
  endfacet
  facet normal -1 0 0
    outer loop
      vertex 0 28 -10
      vertex 0 22.8628 -1.17046
      vertex 0 22.9821 -0.954544
    endloop
  endfacet
  facet normal -1 0 0
    outer loop
      vertex 0 28 -10
      vertex 0 22.72 -1.37167
      vertex 0 22.8628 -1.17046
    endloop
  endfacet
  facet normal -1 0 0
    outer loop
      vertex 0 28 -10
      vertex 0 22.5556 -1.55563
      vertex 0 22.72 -1.37167
    endloop
  endfacet
  facet normal -1 0 0
    outer loop
      vertex 0 28 -10
      vertex 0 22.3717 -1.72002
      vertex 0 22.5556 -1.55563
    endloop
  endfacet
  facet normal -1 0 0
    outer loop
      vertex 0 28 -10
      vertex 0 22.1705 -1.86279
      vertex 0 22.3717 -1.72002
    endloop
  endfacet
  facet normal -1 0 0
    outer loop
      vertex 0 28 -10
      vertex 0 21.9545 -1.98212
      vertex 0 22.1705 -1.86279
    endloop
  endfacet
  facet normal -1 0 0
    outer loop
      vertex 0 28 -10
      vertex 0 21.7266 -2.07654
      vertex 0 21.9545 -1.98212
    endloop
  endfacet
  facet normal -1 0 0
    outer loop
      vertex 0 28 -10
      vertex 0 21.4895 -2.14484
      vertex 0 21.7266 -2.07654
    endloop
  endfacet
  facet normal -1 0 0
    outer loop
      vertex 0 28 -10
      vertex 0 21.2463 -2.18616
      vertex 0 21.4895 -2.14484
    endloop
  endfacet
  facet normal -1 0 0
    outer loop
      vertex 0 28 -10
      vertex 0 21 -2.2
      vertex 0 21.2463 -2.18616
    endloop
  endfacet
  facet normal -1 0 0
    outer loop
      vertex 0 28 -10
      vertex 0 18 -2.2
      vertex 0 21 -2.2
    endloop
  endfacet
  facet normal -1 0 0
    outer loop
      vertex 0 28 -10
      vertex 0 17.7537 -2.18616
      vertex 0 18 -2.2
    endloop
  endfacet
  facet normal -1 0 0
    outer loop
      vertex 0 28 -10
      vertex 0 17.5105 -2.14484
      vertex 0 17.7537 -2.18616
    endloop
  endfacet
  facet normal -1 0 0
    outer loop
      vertex 0 0 -10
      vertex 0 17.5105 -2.14484
      vertex 0 28 -10
    endloop
  endfacet
  facet normal -1 -0 0
    outer loop
      vertex 0 17.5105 -2.14484
      vertex 0 0 -10
      vertex 0 17.2734 -2.07654
    endloop
  endfacet
  facet normal -1 -0 0
    outer loop
      vertex 0 17.2734 -2.07654
      vertex 0 0 -10
      vertex 0 17.0454 -1.98212
    endloop
  endfacet
  facet normal -1 -0 0
    outer loop
      vertex 0 17.0454 -1.98212
      vertex 0 0 -10
      vertex 0 16.8295 -1.86279
    endloop
  endfacet
  facet normal -1 -0 0
    outer loop
      vertex 0 15.8138 -0.246307
      vertex 0 0 -10
      vertex 0 15.8 0
    endloop
  endfacet
  facet normal -1 -0 0
    outer loop
      vertex 0 15.8551 -0.489532
      vertex 0 0 -10
      vertex 0 15.8138 -0.246307
    endloop
  endfacet
  facet normal -1 -0 0
    outer loop
      vertex 0 15.9234 -0.726608
      vertex 0 0 -10
      vertex 0 15.8551 -0.489532
    endloop
  endfacet
  facet normal -1 -0 0
    outer loop
      vertex 0 16.0179 -0.954544
      vertex 0 0 -10
      vertex 0 15.9234 -0.726608
    endloop
  endfacet
  facet normal -1 -0 0
    outer loop
      vertex 0 16.1372 -1.17046
      vertex 0 0 -10
      vertex 0 16.0179 -0.954544
    endloop
  endfacet
  facet normal -1 -0 0
    outer loop
      vertex 0 16.28 -1.37167
      vertex 0 0 -10
      vertex 0 16.1372 -1.17046
    endloop
  endfacet
  facet normal -1 -0 0
    outer loop
      vertex 0 16.4444 -1.55563
      vertex 0 0 -10
      vertex 0 16.28 -1.37167
    endloop
  endfacet
  facet normal -1 -0 0
    outer loop
      vertex 0 16.6283 -1.72002
      vertex 0 0 -10
      vertex 0 16.4444 -1.55563
    endloop
  endfacet
  facet normal -1 -0 0
    outer loop
      vertex 0 16.8295 -1.86279
      vertex 0 0 -10
      vertex 0 16.6283 -1.72002
    endloop
  endfacet
  facet normal -1 0 0
    outer loop
      vertex 0 23.1862 0.246307
      vertex 0 28 10
      vertex 0 23.2 0
    endloop
  endfacet
  facet normal -1 0 0
    outer loop
      vertex 0 23.1448 0.489532
      vertex 0 28 10
      vertex 0 23.1862 0.246307
    endloop
  endfacet
  facet normal -1 0 0
    outer loop
      vertex 0 23.0765 0.726608
      vertex 0 28 10
      vertex 0 23.1448 0.489532
    endloop
  endfacet
  facet normal -1 0 0
    outer loop
      vertex 0 22.9821 0.954544
      vertex 0 28 10
      vertex 0 23.0765 0.726608
    endloop
  endfacet
  facet normal -1 0 0
    outer loop
      vertex 0 22.8628 1.17046
      vertex 0 28 10
      vertex 0 22.9821 0.954544
    endloop
  endfacet
  facet normal -1 0 0
    outer loop
      vertex 0 22.72 1.37167
      vertex 0 28 10
      vertex 0 22.8628 1.17046
    endloop
  endfacet
  facet normal -1 0 0
    outer loop
      vertex 0 22.5556 1.55563
      vertex 0 28 10
      vertex 0 22.72 1.37167
    endloop
  endfacet
  facet normal -1 0 0
    outer loop
      vertex 0 22.3717 1.72002
      vertex 0 28 10
      vertex 0 22.5556 1.55563
    endloop
  endfacet
  facet normal -1 0 0
    outer loop
      vertex 0 22.1705 1.86279
      vertex 0 28 10
      vertex 0 22.3717 1.72002
    endloop
  endfacet
  facet normal -1 0 0
    outer loop
      vertex 0 21.9545 1.98212
      vertex 0 28 10
      vertex 0 22.1705 1.86279
    endloop
  endfacet
  facet normal -1 0 0
    outer loop
      vertex 0 21.7266 2.07654
      vertex 0 28 10
      vertex 0 21.9545 1.98212
    endloop
  endfacet
  facet normal -1 0 0
    outer loop
      vertex 0 21.4895 2.14484
      vertex 0 28 10
      vertex 0 21.7266 2.07654
    endloop
  endfacet
  facet normal -1 0 0
    outer loop
      vertex 0 21.2463 2.18616
      vertex 0 28 10
      vertex 0 21.4895 2.14484
    endloop
  endfacet
  facet normal -1 0 0
    outer loop
      vertex 0 21 2.2
      vertex 0 28 10
      vertex 0 21.2463 2.18616
    endloop
  endfacet
  facet normal -1 0 0
    outer loop
      vertex 0 18 2.2
      vertex 0 28 10
      vertex 0 21 2.2
    endloop
  endfacet
  facet normal -1 0 0
    outer loop
      vertex 0 17.7537 2.18616
      vertex 0 28 10
      vertex 0 18 2.2
    endloop
  endfacet
  facet normal -1 0 0
    outer loop
      vertex 0 17.5105 2.14484
      vertex 0 28 10
      vertex 0 17.7537 2.18616
    endloop
  endfacet
  facet normal -1 0 0
    outer loop
      vertex 0 0 10
      vertex 0 17.5105 2.14484
      vertex 0 17.2734 2.07654
    endloop
  endfacet
  facet normal -1 0 0
    outer loop
      vertex 0 0 10
      vertex 0 17.2734 2.07654
      vertex 0 17.0454 1.98212
    endloop
  endfacet
  facet normal -1 0 0
    outer loop
      vertex 0 0 10
      vertex 0 17.0454 1.98212
      vertex 0 16.8295 1.86279
    endloop
  endfacet
  facet normal -1 0 0
    outer loop
      vertex 0 0 10
      vertex 0 16.8295 1.86279
      vertex 0 16.6283 1.72002
    endloop
  endfacet
  facet normal -1 0 0
    outer loop
      vertex 0 0 10
      vertex 0 15.8 0
      vertex 0 0 -10
    endloop
  endfacet
  facet normal -1 0 0
    outer loop
      vertex 0 15.8 0
      vertex 0 0 10
      vertex 0 15.8138 0.246307
    endloop
  endfacet
  facet normal -1 0 0
    outer loop
      vertex 0 15.8138 0.246307
      vertex 0 0 10
      vertex 0 15.8551 0.489532
    endloop
  endfacet
  facet normal -1 0 0
    outer loop
      vertex 0 15.8551 0.489532
      vertex 0 0 10
      vertex 0 15.9234 0.726608
    endloop
  endfacet
  facet normal -1 0 0
    outer loop
      vertex 0 15.9234 0.726608
      vertex 0 0 10
      vertex 0 16.0179 0.954544
    endloop
  endfacet
  facet normal -1 0 0
    outer loop
      vertex 0 16.0179 0.954544
      vertex 0 0 10
      vertex 0 16.1372 1.17046
    endloop
  endfacet
  facet normal -1 0 0
    outer loop
      vertex 0 16.1372 1.17046
      vertex 0 0 10
      vertex 0 16.28 1.37167
    endloop
  endfacet
  facet normal -1 0 0
    outer loop
      vertex 0 16.28 1.37167
      vertex 0 0 10
      vertex 0 16.4444 1.55563
    endloop
  endfacet
  facet normal -1 0 0
    outer loop
      vertex 0 16.4444 1.55563
      vertex 0 0 10
      vertex 0 16.6283 1.72002
    endloop
  endfacet
  facet normal -1 0 0
    outer loop
      vertex 0 17.5105 2.14484
      vertex 0 0 10
      vertex 0 28 10
    endloop
  endfacet
  facet normal 1 -0 0
    outer loop
      vertex 5 23 -7
      vertex 5 28 -10
      vertex 5 28 -7
    endloop
  endfacet
  facet normal 1 0 0
    outer loop
      vertex 5 28 -10
      vertex 5 23 -7
      vertex 5 23 -10
    endloop
  endfacet
  facet normal 0 1 0
    outer loop
      vertex 5 28 -7
      vertex 5 28 -10
      vertex 2 28 -7
    endloop
  endfacet
  facet normal 0 1 0
    outer loop
      vertex 2 28 7
      vertex 5 28 10
      vertex 5 28 7
    endloop
  endfacet
  facet normal 0 1 0
    outer loop
      vertex 5 28 10
      vertex 2 28 7
      vertex 0 28 10
    endloop
  endfacet
  facet normal 0 1 -0
    outer loop
      vertex 2 28 -7
      vertex 0 28 10
      vertex 2 28 7
    endloop
  endfacet
  facet normal 0 1 0
    outer loop
      vertex 2 28 -7
      vertex 0 28 -10
      vertex 0 28 10
    endloop
  endfacet
  facet normal 0 1 0
    outer loop
      vertex 0 28 -10
      vertex 2 28 -7
      vertex 5 28 -10
    endloop
  endfacet
  facet normal 1 0 0
    outer loop
      vertex 28 5 10
      vertex 28 2 7
      vertex 28 5 7
    endloop
  endfacet
  facet normal 1 0 0
    outer loop
      vertex 28 2 7
      vertex 28 0 10
      vertex 28 2 -7
    endloop
  endfacet
  facet normal 1 -0 0
    outer loop
      vertex 28 0 10
      vertex 28 2 7
      vertex 28 5 10
    endloop
  endfacet
  facet normal 1 -0 0
    outer loop
      vertex 28 2 -7
      vertex 28 5 -10
      vertex 28 5 -7
    endloop
  endfacet
  facet normal 1 0 0
    outer loop
      vertex 28 2 -7
      vertex 28 0 -10
      vertex 28 5 -10
    endloop
  endfacet
  facet normal 1 0 0
    outer loop
      vertex 28 0 -10
      vertex 28 2 -7
      vertex 28 0 10
    endloop
  endfacet
  facet normal 0 1 -0
    outer loop
      vertex 28 5 -10
      vertex 23 5 -7
      vertex 28 5 -7
    endloop
  endfacet
  facet normal 0 1 0
    outer loop
      vertex 23 5 -7
      vertex 28 5 -10
      vertex 23 5 -10
    endloop
  endfacet
  facet normal 0 0 -1
    outer loop
      vertex 28 2 7
      vertex 23 5 7
      vertex 28 5 7
    endloop
  endfacet
  facet normal 0 0 -1
    outer loop
      vertex 2 2 7
      vertex 23 5 7
      vertex 28 2 7
    endloop
  endfacet
  facet normal 0 0 -1
    outer loop
      vertex 2 2 7
      vertex 5 23 7
      vertex 23 5 7
    endloop
  endfacet
  facet normal 0 0 -1
    outer loop
      vertex 2 28 7
      vertex 5 23 7
      vertex 2 2 7
    endloop
  endfacet
  facet normal 0 0 -1
    outer loop
      vertex 5 23 7
      vertex 2 28 7
      vertex 5 28 7
    endloop
  endfacet
  facet normal 0 0 1
    outer loop
      vertex 5 28 10
      vertex 0 28 10
      vertex 5 23 10
    endloop
  endfacet
  facet normal -0 0 1
    outer loop
      vertex 23 5 10
      vertex 28 0 10
      vertex 28 5 10
    endloop
  endfacet
  facet normal 0 0 1
    outer loop
      vertex 0 0 10
      vertex 23 5 10
      vertex 5 23 10
    endloop
  endfacet
  facet normal 0 0 1
    outer loop
      vertex 0 0 10
      vertex 5 23 10
      vertex 0 28 10
    endloop
  endfacet
  facet normal 0 0 1
    outer loop
      vertex 23 5 10
      vertex 0 0 10
      vertex 28 0 10
    endloop
  endfacet
  facet normal 0.707107 0.707107 0
    outer loop
      vertex 23 5 10
      vertex 5 23 7
      vertex 5 23 10
    endloop
  endfacet
  facet normal 0.707107 0.707107 0
    outer loop
      vertex 5 23 7
      vertex 23 5 10
      vertex 23 5 7
    endloop
  endfacet
  facet normal 1 -0 0
    outer loop
      vertex 5 23 10
      vertex 5 28 7
      vertex 5 28 10
    endloop
  endfacet
  facet normal 1 0 0
    outer loop
      vertex 5 28 7
      vertex 5 23 10
      vertex 5 23 7
    endloop
  endfacet
  facet normal 0 1 -0
    outer loop
      vertex 28 5 7
      vertex 23 5 10
      vertex 28 5 10
    endloop
  endfacet
  facet normal 0 1 0
    outer loop
      vertex 23 5 10
      vertex 28 5 7
      vertex 23 5 7
    endloop
  endfacet
  facet normal 1 0 0
    outer loop
      vertex 2 28 7
      vertex 2 23.2 0
      vertex 2 28 -7
    endloop
  endfacet
  facet normal 1 0 0
    outer loop
      vertex 2 28 7
      vertex 2 23.1862 0.246307
      vertex 2 23.2 0
    endloop
  endfacet
  facet normal 1 0 0
    outer loop
      vertex 2 28 7
      vertex 2 23.1448 0.489532
      vertex 2 23.1862 0.246307
    endloop
  endfacet
  facet normal 1 0 0
    outer loop
      vertex 2 28 7
      vertex 2 23.0765 0.726608
      vertex 2 23.1448 0.489532
    endloop
  endfacet
  facet normal 1 0 0
    outer loop
      vertex 2 28 7
      vertex 2 22.9821 0.954544
      vertex 2 23.0765 0.726608
    endloop
  endfacet
  facet normal 1 0 0
    outer loop
      vertex 2 28 7
      vertex 2 22.8628 1.17046
      vertex 2 22.9821 0.954544
    endloop
  endfacet
  facet normal 1 0 0
    outer loop
      vertex 2 28 7
      vertex 2 22.72 1.37167
      vertex 2 22.8628 1.17046
    endloop
  endfacet
  facet normal 1 0 0
    outer loop
      vertex 2 28 7
      vertex 2 22.5556 1.55563
      vertex 2 22.72 1.37167
    endloop
  endfacet
  facet normal 1 0 0
    outer loop
      vertex 2 28 7
      vertex 2 22.3717 1.72002
      vertex 2 22.5556 1.55563
    endloop
  endfacet
  facet normal 1 0 0
    outer loop
      vertex 2 28 7
      vertex 2 22.1705 1.86279
      vertex 2 22.3717 1.72002
    endloop
  endfacet
  facet normal 1 0 0
    outer loop
      vertex 2 28 7
      vertex 2 21.9545 1.98212
      vertex 2 22.1705 1.86279
    endloop
  endfacet
  facet normal 1 0 0
    outer loop
      vertex 2 28 7
      vertex 2 21.7266 2.07654
      vertex 2 21.9545 1.98212
    endloop
  endfacet
  facet normal 1 0 0
    outer loop
      vertex 2 28 7
      vertex 2 21.4895 2.14484
      vertex 2 21.7266 2.07654
    endloop
  endfacet
  facet normal 1 0 0
    outer loop
      vertex 2 28 7
      vertex 2 21.2463 2.18616
      vertex 2 21.4895 2.14484
    endloop
  endfacet
  facet normal 1 0 0
    outer loop
      vertex 2 28 7
      vertex 2 21 2.2
      vertex 2 21.2463 2.18616
    endloop
  endfacet
  facet normal 1 0 0
    outer loop
      vertex 2 28 7
      vertex 2 18 2.2
      vertex 2 21 2.2
    endloop
  endfacet
  facet normal 1 0 0
    outer loop
      vertex 2 28 7
      vertex 2 17.7537 2.18616
      vertex 2 18 2.2
    endloop
  endfacet
  facet normal 1 -0 0
    outer loop
      vertex 2 2 7
      vertex 2 17.7537 2.18616
      vertex 2 28 7
    endloop
  endfacet
  facet normal 1 0 0
    outer loop
      vertex 2 17.7537 2.18616
      vertex 2 2 7
      vertex 2 17.5105 2.14484
    endloop
  endfacet
  facet normal 1 0 0
    outer loop
      vertex 2 17.5105 2.14484
      vertex 2 2 7
      vertex 2 17.2734 2.07654
    endloop
  endfacet
  facet normal 1 0 0
    outer loop
      vertex 2 15.8138 0.246307
      vertex 2 2 7
      vertex 2 15.8 0
    endloop
  endfacet
  facet normal 1 0 0
    outer loop
      vertex 2 15.8551 0.489532
      vertex 2 2 7
      vertex 2 15.8138 0.246307
    endloop
  endfacet
  facet normal 1 0 0
    outer loop
      vertex 2 15.9234 0.726608
      vertex 2 2 7
      vertex 2 15.8551 0.489532
    endloop
  endfacet
  facet normal 1 0 0
    outer loop
      vertex 2 16.0179 0.954544
      vertex 2 2 7
      vertex 2 15.9234 0.726608
    endloop
  endfacet
  facet normal 1 0 0
    outer loop
      vertex 2 16.1372 1.17046
      vertex 2 2 7
      vertex 2 16.0179 0.954544
    endloop
  endfacet
  facet normal 1 0 0
    outer loop
      vertex 2 16.28 1.37167
      vertex 2 2 7
      vertex 2 16.1372 1.17046
    endloop
  endfacet
  facet normal 1 0 0
    outer loop
      vertex 2 16.4444 1.55563
      vertex 2 2 7
      vertex 2 16.28 1.37167
    endloop
  endfacet
  facet normal 1 0 0
    outer loop
      vertex 2 16.6283 1.72002
      vertex 2 2 7
      vertex 2 16.4444 1.55563
    endloop
  endfacet
  facet normal 1 0 0
    outer loop
      vertex 2 16.8295 1.86279
      vertex 2 2 7
      vertex 2 16.6283 1.72002
    endloop
  endfacet
  facet normal 1 0 0
    outer loop
      vertex 2 17.0454 1.98212
      vertex 2 2 7
      vertex 2 16.8295 1.86279
    endloop
  endfacet
  facet normal 1 0 0
    outer loop
      vertex 2 17.2734 2.07654
      vertex 2 2 7
      vertex 2 17.0454 1.98212
    endloop
  endfacet
  facet normal 1 -0 0
    outer loop
      vertex 2 23.1862 -0.246307
      vertex 2 28 -7
      vertex 2 23.2 0
    endloop
  endfacet
  facet normal 1 -0 0
    outer loop
      vertex 2 23.1448 -0.489532
      vertex 2 28 -7
      vertex 2 23.1862 -0.246307
    endloop
  endfacet
  facet normal 1 -0 0
    outer loop
      vertex 2 23.0765 -0.726608
      vertex 2 28 -7
      vertex 2 23.1448 -0.489532
    endloop
  endfacet
  facet normal 1 -0 0
    outer loop
      vertex 2 22.9821 -0.954544
      vertex 2 28 -7
      vertex 2 23.0765 -0.726608
    endloop
  endfacet
  facet normal 1 -0 0
    outer loop
      vertex 2 22.8628 -1.17046
      vertex 2 28 -7
      vertex 2 22.9821 -0.954544
    endloop
  endfacet
  facet normal 1 -0 0
    outer loop
      vertex 2 22.72 -1.37167
      vertex 2 28 -7
      vertex 2 22.8628 -1.17046
    endloop
  endfacet
  facet normal 1 -0 0
    outer loop
      vertex 2 22.5556 -1.55563
      vertex 2 28 -7
      vertex 2 22.72 -1.37167
    endloop
  endfacet
  facet normal 1 -0 0
    outer loop
      vertex 2 22.3717 -1.72002
      vertex 2 28 -7
      vertex 2 22.5556 -1.55563
    endloop
  endfacet
  facet normal 1 -0 0
    outer loop
      vertex 2 22.1705 -1.86279
      vertex 2 28 -7
      vertex 2 22.3717 -1.72002
    endloop
  endfacet
  facet normal 1 -0 0
    outer loop
      vertex 2 21.9545 -1.98212
      vertex 2 28 -7
      vertex 2 22.1705 -1.86279
    endloop
  endfacet
  facet normal 1 -0 0
    outer loop
      vertex 2 21.7266 -2.07654
      vertex 2 28 -7
      vertex 2 21.9545 -1.98212
    endloop
  endfacet
  facet normal 1 -0 0
    outer loop
      vertex 2 21.4895 -2.14484
      vertex 2 28 -7
      vertex 2 21.7266 -2.07654
    endloop
  endfacet
  facet normal 1 -0 0
    outer loop
      vertex 2 21.2463 -2.18616
      vertex 2 28 -7
      vertex 2 21.4895 -2.14484
    endloop
  endfacet
  facet normal 1 -0 0
    outer loop
      vertex 2 21 -2.2
      vertex 2 28 -7
      vertex 2 21.2463 -2.18616
    endloop
  endfacet
  facet normal 1 -0 0
    outer loop
      vertex 2 18 -2.2
      vertex 2 28 -7
      vertex 2 21 -2.2
    endloop
  endfacet
  facet normal 1 0 0
    outer loop
      vertex 2 17.7537 -2.18616
      vertex 2 28 -7
      vertex 2 18 -2.2
    endloop
  endfacet
  facet normal 1 0 0
    outer loop
      vertex 2 2 -7
      vertex 2 17.7537 -2.18616
      vertex 2 17.5105 -2.14484
    endloop
  endfacet
  facet normal 1 0 0
    outer loop
      vertex 2 2 -7
      vertex 2 17.5105 -2.14484
      vertex 2 17.2734 -2.07654
    endloop
  endfacet
  facet normal 1 0 0
    outer loop
      vertex 2 2 -7
      vertex 2 17.2734 -2.07654
      vertex 2 17.0454 -1.98212
    endloop
  endfacet
  facet normal 1 0 0
    outer loop
      vertex 2 2 -7
      vertex 2 15.8 0
      vertex 2 2 7
    endloop
  endfacet
  facet normal 1 0 0
    outer loop
      vertex 2 15.8 0
      vertex 2 2 -7
      vertex 2 15.8138 -0.246307
    endloop
  endfacet
  facet normal 1 0 0
    outer loop
      vertex 2 15.8138 -0.246307
      vertex 2 2 -7
      vertex 2 15.8551 -0.489532
    endloop
  endfacet
  facet normal 1 0 0
    outer loop
      vertex 2 15.8551 -0.489532
      vertex 2 2 -7
      vertex 2 15.9234 -0.726608
    endloop
  endfacet
  facet normal 1 0 0
    outer loop
      vertex 2 15.9234 -0.726608
      vertex 2 2 -7
      vertex 2 16.0179 -0.954544
    endloop
  endfacet
  facet normal 1 0 0
    outer loop
      vertex 2 16.0179 -0.954544
      vertex 2 2 -7
      vertex 2 16.1372 -1.17046
    endloop
  endfacet
  facet normal 1 0 0
    outer loop
      vertex 2 16.1372 -1.17046
      vertex 2 2 -7
      vertex 2 16.28 -1.37167
    endloop
  endfacet
  facet normal 1 0 0
    outer loop
      vertex 2 16.28 -1.37167
      vertex 2 2 -7
      vertex 2 16.4444 -1.55563
    endloop
  endfacet
  facet normal 1 0 0
    outer loop
      vertex 2 16.4444 -1.55563
      vertex 2 2 -7
      vertex 2 16.6283 -1.72002
    endloop
  endfacet
  facet normal 1 0 0
    outer loop
      vertex 2 17.7537 -2.18616
      vertex 2 2 -7
      vertex 2 28 -7
    endloop
  endfacet
  facet normal 1 0 0
    outer loop
      vertex 2 16.8295 -1.86279
      vertex 2 2 -7
      vertex 2 17.0454 -1.98212
    endloop
  endfacet
  facet normal 1 0 0
    outer loop
      vertex 2 16.6283 -1.72002
      vertex 2 2 -7
      vertex 2 16.8295 -1.86279
    endloop
  endfacet
  facet normal -0 0.0561031 0.998425
    outer loop
      vertex 0 18 -2.2
      vertex 2 17.7537 -2.18616
      vertex 2 18 -2.2
    endloop
  endfacet
  facet normal 0 0.0561031 0.998425
    outer loop
      vertex 2 17.7537 -2.18616
      vertex 0 18 -2.2
      vertex 0 17.7537 -2.18616
    endloop
  endfacet
  facet normal -0 0.167501 0.985872
    outer loop
      vertex 0 17.7537 -2.18616
      vertex 2 17.5105 -2.14484
      vertex 2 17.7537 -2.18616
    endloop
  endfacet
  facet normal 0 0.167501 0.985872
    outer loop
      vertex 2 17.5105 -2.14484
      vertex 0 17.7537 -2.18616
      vertex 0 17.5105 -2.14484
    endloop
  endfacet
  facet normal -0 0.276808 0.960925
    outer loop
      vertex 0 17.5105 -2.14484
      vertex 2 17.2734 -2.07654
      vertex 2 17.5105 -2.14484
    endloop
  endfacet
  facet normal 0 0.276808 0.960925
    outer loop
      vertex 2 17.2734 -2.07654
      vertex 0 17.5105 -2.14484
      vertex 0 17.2734 -2.07654
    endloop
  endfacet
  facet normal -0 0.382612 0.923909
    outer loop
      vertex 0 17.2734 -2.07654
      vertex 2 17.0454 -1.98212
      vertex 2 17.2734 -2.07654
    endloop
  endfacet
  facet normal 0 0.382612 0.923909
    outer loop
      vertex 2 17.0454 -1.98212
      vertex 0 17.2734 -2.07654
      vertex 0 17.0454 -1.98212
    endloop
  endfacet
  facet normal -0 0.483738 0.875213
    outer loop
      vertex 0 17.0454 -1.98212
      vertex 2 16.8295 -1.86279
      vertex 2 17.0454 -1.98212
    endloop
  endfacet
  facet normal 0 0.483738 0.875213
    outer loop
      vertex 2 16.8295 -1.86279
      vertex 0 17.0454 -1.98212
      vertex 0 16.8295 -1.86279
    endloop
  endfacet
  facet normal -0 0.578701 0.81554
    outer loop
      vertex 0 16.8295 -1.86279
      vertex 2 16.6283 -1.72002
      vertex 2 16.8295 -1.86279
    endloop
  endfacet
  facet normal 0 0.578701 0.81554
    outer loop
      vertex 2 16.6283 -1.72002
      vertex 0 16.8295 -1.86279
      vertex 0 16.6283 -1.72002
    endloop
  endfacet
  facet normal -0 0.666452 0.745548
    outer loop
      vertex 0 16.6283 -1.72002
      vertex 2 16.4444 -1.55563
      vertex 2 16.6283 -1.72002
    endloop
  endfacet
  facet normal 0 0.666452 0.745548
    outer loop
      vertex 2 16.4444 -1.55563
      vertex 0 16.6283 -1.72002
      vertex 0 16.4444 -1.55563
    endloop
  endfacet
  facet normal 0 0.745636 0.666354
    outer loop
      vertex 2 16.4444 -1.55563
      vertex 0 16.28 -1.37167
      vertex 2 16.28 -1.37167
    endloop
  endfacet
  facet normal 0 0.745636 0.666354
    outer loop
      vertex 0 16.28 -1.37167
      vertex 2 16.4444 -1.55563
      vertex 0 16.4444 -1.55563
    endloop
  endfacet
  facet normal 0 0.815496 0.578763
    outer loop
      vertex 2 16.28 -1.37167
      vertex 0 16.1372 -1.17046
      vertex 2 16.1372 -1.17046
    endloop
  endfacet
  facet normal 0 0.815496 0.578763
    outer loop
      vertex 0 16.1372 -1.17046
      vertex 2 16.28 -1.37167
      vertex 0 16.28 -1.37167
    endloop
  endfacet
  facet normal 0 0.875279 0.483618
    outer loop
      vertex 2 16.1372 -1.17046
      vertex 0 16.0179 -0.954544
      vertex 2 16.0179 -0.954544
    endloop
  endfacet
  facet normal 0 0.875279 0.483618
    outer loop
      vertex 0 16.0179 -0.954544
      vertex 2 16.1372 -1.17046
      vertex 0 16.1372 -1.17046
    endloop
  endfacet
  facet normal 0 0.923757 0.38298
    outer loop
      vertex 2 16.0179 -0.954544
      vertex 0 15.9234 -0.726608
      vertex 2 15.9234 -0.726608
    endloop
  endfacet
  facet normal 0 0.923757 0.38298
    outer loop
      vertex 0 15.9234 -0.726608
      vertex 2 16.0179 -0.954544
      vertex 0 16.0179 -0.954544
    endloop
  endfacet
  facet normal 0 0.960918 0.276834
    outer loop
      vertex 2 15.9234 -0.726608
      vertex 0 15.8551 -0.489532
      vertex 2 15.8551 -0.489532
    endloop
  endfacet
  facet normal 0 0.960918 0.276834
    outer loop
      vertex 0 15.8551 -0.489532
      vertex 2 15.9234 -0.726608
      vertex 0 15.9234 -0.726608
    endloop
  endfacet
  facet normal 0 0.985888 0.167405
    outer loop
      vertex 2 15.8551 -0.489532
      vertex 0 15.8138 -0.246307
      vertex 2 15.8138 -0.246307
    endloop
  endfacet
  facet normal 0 0.985888 0.167405
    outer loop
      vertex 0 15.8138 -0.246307
      vertex 2 15.8551 -0.489532
      vertex 0 15.8551 -0.489532
    endloop
  endfacet
  facet normal 0 0.998434 0.0559399
    outer loop
      vertex 2 15.8138 -0.246307
      vertex 0 15.8 0
      vertex 2 15.8 0
    endloop
  endfacet
  facet normal 0 0.998434 0.0559399
    outer loop
      vertex 0 15.8 0
      vertex 2 15.8138 -0.246307
      vertex 0 15.8138 -0.246307
    endloop
  endfacet
  facet normal 0 0.998434 -0.0559399
    outer loop
      vertex 2 15.8 0
      vertex 0 15.8138 0.246307
      vertex 2 15.8138 0.246307
    endloop
  endfacet
  facet normal 0 0.998434 -0.0559399
    outer loop
      vertex 0 15.8138 0.246307
      vertex 2 15.8 0
      vertex 0 15.8 0
    endloop
  endfacet
  facet normal 0 0.985888 -0.167405
    outer loop
      vertex 2 15.8138 0.246307
      vertex 0 15.8551 0.489532
      vertex 2 15.8551 0.489532
    endloop
  endfacet
  facet normal 0 0.985888 -0.167405
    outer loop
      vertex 0 15.8551 0.489532
      vertex 2 15.8138 0.246307
      vertex 0 15.8138 0.246307
    endloop
  endfacet
  facet normal 0 0.960918 -0.276834
    outer loop
      vertex 2 15.8551 0.489532
      vertex 0 15.9234 0.726608
      vertex 2 15.9234 0.726608
    endloop
  endfacet
  facet normal 0 0.960918 -0.276834
    outer loop
      vertex 0 15.9234 0.726608
      vertex 2 15.8551 0.489532
      vertex 0 15.8551 0.489532
    endloop
  endfacet
  facet normal 0 0.923757 -0.38298
    outer loop
      vertex 2 15.9234 0.726608
      vertex 0 16.0179 0.954544
      vertex 2 16.0179 0.954544
    endloop
  endfacet
  facet normal 0 0.923757 -0.38298
    outer loop
      vertex 0 16.0179 0.954544
      vertex 2 15.9234 0.726608
      vertex 0 15.9234 0.726608
    endloop
  endfacet
  facet normal 0 0.875279 -0.483618
    outer loop
      vertex 2 16.0179 0.954544
      vertex 0 16.1372 1.17046
      vertex 2 16.1372 1.17046
    endloop
  endfacet
  facet normal 0 0.875279 -0.483618
    outer loop
      vertex 0 16.1372 1.17046
      vertex 2 16.0179 0.954544
      vertex 0 16.0179 0.954544
    endloop
  endfacet
  facet normal 0 0.815496 -0.578763
    outer loop
      vertex 2 16.1372 1.17046
      vertex 0 16.28 1.37167
      vertex 2 16.28 1.37167
    endloop
  endfacet
  facet normal 0 0.815496 -0.578763
    outer loop
      vertex 0 16.28 1.37167
      vertex 2 16.1372 1.17046
      vertex 0 16.1372 1.17046
    endloop
  endfacet
  facet normal 0 0.745636 -0.666354
    outer loop
      vertex 2 16.28 1.37167
      vertex 0 16.4444 1.55563
      vertex 2 16.4444 1.55563
    endloop
  endfacet
  facet normal 0 0.745636 -0.666354
    outer loop
      vertex 0 16.4444 1.55563
      vertex 2 16.28 1.37167
      vertex 0 16.28 1.37167
    endloop
  endfacet
  facet normal 0 0.666452 -0.745548
    outer loop
      vertex 0 16.4444 1.55563
      vertex 2 16.6283 1.72002
      vertex 2 16.4444 1.55563
    endloop
  endfacet
  facet normal 0 0.666452 -0.745548
    outer loop
      vertex 2 16.6283 1.72002
      vertex 0 16.4444 1.55563
      vertex 0 16.6283 1.72002
    endloop
  endfacet
  facet normal 0 0.578701 -0.81554
    outer loop
      vertex 0 16.6283 1.72002
      vertex 2 16.8295 1.86279
      vertex 2 16.6283 1.72002
    endloop
  endfacet
  facet normal 0 0.578701 -0.81554
    outer loop
      vertex 2 16.8295 1.86279
      vertex 0 16.6283 1.72002
      vertex 0 16.8295 1.86279
    endloop
  endfacet
  facet normal 0 0.483738 -0.875213
    outer loop
      vertex 0 16.8295 1.86279
      vertex 2 17.0454 1.98212
      vertex 2 16.8295 1.86279
    endloop
  endfacet
  facet normal 0 0.483738 -0.875213
    outer loop
      vertex 2 17.0454 1.98212
      vertex 0 16.8295 1.86279
      vertex 0 17.0454 1.98212
    endloop
  endfacet
  facet normal 0 0.382612 -0.923909
    outer loop
      vertex 0 17.0454 1.98212
      vertex 2 17.2734 2.07654
      vertex 2 17.0454 1.98212
    endloop
  endfacet
  facet normal 0 0.382612 -0.923909
    outer loop
      vertex 2 17.2734 2.07654
      vertex 0 17.0454 1.98212
      vertex 0 17.2734 2.07654
    endloop
  endfacet
  facet normal 0 0.276808 -0.960925
    outer loop
      vertex 0 17.2734 2.07654
      vertex 2 17.5105 2.14484
      vertex 2 17.2734 2.07654
    endloop
  endfacet
  facet normal 0 0.276808 -0.960925
    outer loop
      vertex 2 17.5105 2.14484
      vertex 0 17.2734 2.07654
      vertex 0 17.5105 2.14484
    endloop
  endfacet
  facet normal 0 0.167501 -0.985872
    outer loop
      vertex 0 17.5105 2.14484
      vertex 2 17.7537 2.18616
      vertex 2 17.5105 2.14484
    endloop
  endfacet
  facet normal 0 0.167501 -0.985872
    outer loop
      vertex 2 17.7537 2.18616
      vertex 0 17.5105 2.14484
      vertex 0 17.7537 2.18616
    endloop
  endfacet
  facet normal 0 0.0561031 -0.998425
    outer loop
      vertex 0 17.7537 2.18616
      vertex 2 18 2.2
      vertex 2 17.7537 2.18616
    endloop
  endfacet
  facet normal 0 0.0561031 -0.998425
    outer loop
      vertex 2 18 2.2
      vertex 0 17.7537 2.18616
      vertex 0 18 2.2
    endloop
  endfacet
  facet normal 0 0 -1
    outer loop
      vertex 0 18 2.2
      vertex 2 21 2.2
      vertex 2 18 2.2
    endloop
  endfacet
  facet normal -0 0 -1
    outer loop
      vertex 2 21 2.2
      vertex 0 18 2.2
      vertex 0 21 2.2
    endloop
  endfacet
  facet normal 0 -0.0561031 -0.998425
    outer loop
      vertex 0 21 2.2
      vertex 2 21.2463 2.18616
      vertex 2 21 2.2
    endloop
  endfacet
  facet normal -0 -0.0561031 -0.998425
    outer loop
      vertex 2 21.2463 2.18616
      vertex 0 21 2.2
      vertex 0 21.2463 2.18616
    endloop
  endfacet
  facet normal 0 -0.167501 -0.985872
    outer loop
      vertex 0 21.2463 2.18616
      vertex 2 21.4895 2.14484
      vertex 2 21.2463 2.18616
    endloop
  endfacet
  facet normal -0 -0.167501 -0.985872
    outer loop
      vertex 2 21.4895 2.14484
      vertex 0 21.2463 2.18616
      vertex 0 21.4895 2.14484
    endloop
  endfacet
  facet normal 0 -0.276808 -0.960925
    outer loop
      vertex 0 21.4895 2.14484
      vertex 2 21.7266 2.07654
      vertex 2 21.4895 2.14484
    endloop
  endfacet
  facet normal -0 -0.276808 -0.960925
    outer loop
      vertex 2 21.7266 2.07654
      vertex 0 21.4895 2.14484
      vertex 0 21.7266 2.07654
    endloop
  endfacet
  facet normal 0 -0.382755 -0.92385
    outer loop
      vertex 0 21.7266 2.07654
      vertex 2 21.9545 1.98212
      vertex 2 21.7266 2.07654
    endloop
  endfacet
  facet normal -0 -0.382755 -0.92385
    outer loop
      vertex 2 21.9545 1.98212
      vertex 0 21.7266 2.07654
      vertex 0 21.9545 1.98212
    endloop
  endfacet
  facet normal 0 -0.483567 -0.875307
    outer loop
      vertex 0 21.9545 1.98212
      vertex 2 22.1705 1.86279
      vertex 2 21.9545 1.98212
    endloop
  endfacet
  facet normal -0 -0.483567 -0.875307
    outer loop
      vertex 2 22.1705 1.86279
      vertex 0 21.9545 1.98212
      vertex 0 22.1705 1.86279
    endloop
  endfacet
  facet normal 0 -0.578701 -0.81554
    outer loop
      vertex 0 22.1705 1.86279
      vertex 2 22.3717 1.72002
      vertex 2 22.1705 1.86279
    endloop
  endfacet
  facet normal -0 -0.578701 -0.81554
    outer loop
      vertex 2 22.3717 1.72002
      vertex 0 22.1705 1.86279
      vertex 0 22.3717 1.72002
    endloop
  endfacet
  facet normal 0 -0.666452 -0.745548
    outer loop
      vertex 0 22.3717 1.72002
      vertex 2 22.5556 1.55563
      vertex 2 22.3717 1.72002
    endloop
  endfacet
  facet normal -0 -0.666452 -0.745548
    outer loop
      vertex 2 22.5556 1.55563
      vertex 0 22.3717 1.72002
      vertex 0 22.5556 1.55563
    endloop
  endfacet
  facet normal 0 -0.745636 -0.666354
    outer loop
      vertex 0 22.72 1.37167
      vertex 2 22.5556 1.55563
      vertex 0 22.5556 1.55563
    endloop
  endfacet
  facet normal 0 -0.745636 -0.666354
    outer loop
      vertex 2 22.5556 1.55563
      vertex 0 22.72 1.37167
      vertex 2 22.72 1.37167
    endloop
  endfacet
  facet normal 0 -0.815496 -0.578763
    outer loop
      vertex 0 22.8628 1.17046
      vertex 2 22.72 1.37167
      vertex 0 22.72 1.37167
    endloop
  endfacet
  facet normal 0 -0.815496 -0.578763
    outer loop
      vertex 2 22.72 1.37167
      vertex 0 22.8628 1.17046
      vertex 2 22.8628 1.17046
    endloop
  endfacet
  facet normal 0 -0.875279 -0.483618
    outer loop
      vertex 0 22.9821 0.954544
      vertex 2 22.8628 1.17046
      vertex 0 22.8628 1.17046
    endloop
  endfacet
  facet normal 0 -0.875279 -0.483618
    outer loop
      vertex 2 22.8628 1.17046
      vertex 0 22.9821 0.954544
      vertex 2 22.9821 0.954544
    endloop
  endfacet
  facet normal 0 -0.9239 -0.382634
    outer loop
      vertex 0 23.0765 0.726608
      vertex 2 22.9821 0.954544
      vertex 0 22.9821 0.954544
    endloop
  endfacet
  facet normal 0 -0.9239 -0.382634
    outer loop
      vertex 2 22.9821 0.954544
      vertex 0 23.0765 0.726608
      vertex 2 23.0765 0.726608
    endloop
  endfacet
  facet normal 0 -0.960918 -0.276834
    outer loop
      vertex 0 23.1448 0.489532
      vertex 2 23.0765 0.726608
      vertex 0 23.0765 0.726608
    endloop
  endfacet
  facet normal 0 -0.960918 -0.276834
    outer loop
      vertex 2 23.0765 0.726608
      vertex 0 23.1448 0.489532
      vertex 2 23.1448 0.489532
    endloop
  endfacet
  facet normal 0 -0.985821 -0.167799
    outer loop
      vertex 0 23.1862 0.246307
      vertex 2 23.1448 0.489532
      vertex 0 23.1448 0.489532
    endloop
  endfacet
  facet normal 0 -0.985821 -0.167799
    outer loop
      vertex 2 23.1448 0.489532
      vertex 0 23.1862 0.246307
      vertex 2 23.1862 0.246307
    endloop
  endfacet
  facet normal 0 -0.998434 -0.0559399
    outer loop
      vertex 0 23.2 0
      vertex 2 23.1862 0.246307
      vertex 0 23.1862 0.246307
    endloop
  endfacet
  facet normal 0 -0.998434 -0.0559399
    outer loop
      vertex 2 23.1862 0.246307
      vertex 0 23.2 0
      vertex 2 23.2 0
    endloop
  endfacet
  facet normal 0 -0.998434 0.0559399
    outer loop
      vertex 0 23.1862 -0.246307
      vertex 2 23.2 0
      vertex 0 23.2 0
    endloop
  endfacet
  facet normal 0 -0.998434 0.0559399
    outer loop
      vertex 2 23.2 0
      vertex 0 23.1862 -0.246307
      vertex 2 23.1862 -0.246307
    endloop
  endfacet
  facet normal 0 -0.985821 0.167799
    outer loop
      vertex 0 23.1448 -0.489532
      vertex 2 23.1862 -0.246307
      vertex 0 23.1862 -0.246307
    endloop
  endfacet
  facet normal 0 -0.985821 0.167799
    outer loop
      vertex 2 23.1862 -0.246307
      vertex 0 23.1448 -0.489532
      vertex 2 23.1448 -0.489532
    endloop
  endfacet
  facet normal 0 -0.960918 0.276834
    outer loop
      vertex 0 23.0765 -0.726608
      vertex 2 23.1448 -0.489532
      vertex 0 23.1448 -0.489532
    endloop
  endfacet
  facet normal 0 -0.960918 0.276834
    outer loop
      vertex 2 23.1448 -0.489532
      vertex 0 23.0765 -0.726608
      vertex 2 23.0765 -0.726608
    endloop
  endfacet
  facet normal 0 -0.9239 0.382634
    outer loop
      vertex 0 22.9821 -0.954544
      vertex 2 23.0765 -0.726608
      vertex 0 23.0765 -0.726608
    endloop
  endfacet
  facet normal 0 -0.9239 0.382634
    outer loop
      vertex 2 23.0765 -0.726608
      vertex 0 22.9821 -0.954544
      vertex 2 22.9821 -0.954544
    endloop
  endfacet
  facet normal 0 -0.875279 0.483618
    outer loop
      vertex 0 22.8628 -1.17046
      vertex 2 22.9821 -0.954544
      vertex 0 22.9821 -0.954544
    endloop
  endfacet
  facet normal 0 -0.875279 0.483618
    outer loop
      vertex 2 22.9821 -0.954544
      vertex 0 22.8628 -1.17046
      vertex 2 22.8628 -1.17046
    endloop
  endfacet
  facet normal 0 -0.815496 0.578763
    outer loop
      vertex 0 22.72 -1.37167
      vertex 2 22.8628 -1.17046
      vertex 0 22.8628 -1.17046
    endloop
  endfacet
  facet normal 0 -0.815496 0.578763
    outer loop
      vertex 2 22.8628 -1.17046
      vertex 0 22.72 -1.37167
      vertex 2 22.72 -1.37167
    endloop
  endfacet
  facet normal 0 -0.745636 0.666354
    outer loop
      vertex 0 22.5556 -1.55563
      vertex 2 22.72 -1.37167
      vertex 0 22.72 -1.37167
    endloop
  endfacet
  facet normal 0 -0.745636 0.666354
    outer loop
      vertex 2 22.72 -1.37167
      vertex 0 22.5556 -1.55563
      vertex 2 22.5556 -1.55563
    endloop
  endfacet
  facet normal 0 -0.666452 0.745548
    outer loop
      vertex 0 22.5556 -1.55563
      vertex 2 22.3717 -1.72002
      vertex 2 22.5556 -1.55563
    endloop
  endfacet
  facet normal 0 -0.666452 0.745548
    outer loop
      vertex 2 22.3717 -1.72002
      vertex 0 22.5556 -1.55563
      vertex 0 22.3717 -1.72002
    endloop
  endfacet
  facet normal 0 -0.578701 0.81554
    outer loop
      vertex 0 22.3717 -1.72002
      vertex 2 22.1705 -1.86279
      vertex 2 22.3717 -1.72002
    endloop
  endfacet
  facet normal 0 -0.578701 0.81554
    outer loop
      vertex 2 22.1705 -1.86279
      vertex 0 22.3717 -1.72002
      vertex 0 22.1705 -1.86279
    endloop
  endfacet
  facet normal 0 -0.483567 0.875307
    outer loop
      vertex 0 22.1705 -1.86279
      vertex 2 21.9545 -1.98212
      vertex 2 22.1705 -1.86279
    endloop
  endfacet
  facet normal 0 -0.483567 0.875307
    outer loop
      vertex 2 21.9545 -1.98212
      vertex 0 22.1705 -1.86279
      vertex 0 21.9545 -1.98212
    endloop
  endfacet
  facet normal 0 -0.382755 0.92385
    outer loop
      vertex 0 21.9545 -1.98212
      vertex 2 21.7266 -2.07654
      vertex 2 21.9545 -1.98212
    endloop
  endfacet
  facet normal 0 -0.382755 0.92385
    outer loop
      vertex 2 21.7266 -2.07654
      vertex 0 21.9545 -1.98212
      vertex 0 21.7266 -2.07654
    endloop
  endfacet
  facet normal 0 -0.276808 0.960925
    outer loop
      vertex 0 21.7266 -2.07654
      vertex 2 21.4895 -2.14484
      vertex 2 21.7266 -2.07654
    endloop
  endfacet
  facet normal 0 -0.276808 0.960925
    outer loop
      vertex 2 21.4895 -2.14484
      vertex 0 21.7266 -2.07654
      vertex 0 21.4895 -2.14484
    endloop
  endfacet
  facet normal 0 -0.167501 0.985872
    outer loop
      vertex 0 21.4895 -2.14484
      vertex 2 21.2463 -2.18616
      vertex 2 21.4895 -2.14484
    endloop
  endfacet
  facet normal 0 -0.167501 0.985872
    outer loop
      vertex 2 21.2463 -2.18616
      vertex 0 21.4895 -2.14484
      vertex 0 21.2463 -2.18616
    endloop
  endfacet
  facet normal 0 -0.0561031 0.998425
    outer loop
      vertex 0 21.2463 -2.18616
      vertex 2 21 -2.2
      vertex 2 21.2463 -2.18616
    endloop
  endfacet
  facet normal 0 -0.0561031 0.998425
    outer loop
      vertex 2 21 -2.2
      vertex 0 21.2463 -2.18616
      vertex 0 21 -2.2
    endloop
  endfacet
  facet normal -0 0 1
    outer loop
      vertex 0 21 -2.2
      vertex 2 18 -2.2
      vertex 2 21 -2.2
    endloop
  endfacet
  facet normal 0 0 1
    outer loop
      vertex 2 18 -2.2
      vertex 0 21 -2.2
      vertex 0 18 -2.2
    endloop
  endfacet
  facet normal 0 1 0
    outer loop
      vertex 18 2 2.2
      vertex 28 2 7
      vertex 21 2 2.2
    endloop
  endfacet
  facet normal 0 1 0
    outer loop
      vertex 28 2 7
      vertex 21.2463 2 2.18616
      vertex 21 2 2.2
    endloop
  endfacet
  facet normal 0 1 0
    outer loop
      vertex 28 2 7
      vertex 21.4895 2 2.14484
      vertex 21.2463 2 2.18616
    endloop
  endfacet
  facet normal 0 1 0
    outer loop
      vertex 28 2 7
      vertex 21.7266 2 2.07654
      vertex 21.4895 2 2.14484
    endloop
  endfacet
  facet normal 0 1 0
    outer loop
      vertex 28 2 7
      vertex 21.9545 2 1.98212
      vertex 21.7266 2 2.07654
    endloop
  endfacet
  facet normal 0 1 0
    outer loop
      vertex 28 2 7
      vertex 22.1705 2 1.86279
      vertex 21.9545 2 1.98212
    endloop
  endfacet
  facet normal 0 1 0
    outer loop
      vertex 28 2 7
      vertex 22.3717 2 1.72002
      vertex 22.1705 2 1.86279
    endloop
  endfacet
  facet normal 0 1 0
    outer loop
      vertex 28 2 7
      vertex 22.5556 2 1.55563
      vertex 22.3717 2 1.72002
    endloop
  endfacet
  facet normal 0 1 0
    outer loop
      vertex 28 2 7
      vertex 22.72 2 1.37167
      vertex 22.5556 2 1.55563
    endloop
  endfacet
  facet normal 0 1 0
    outer loop
      vertex 28 2 7
      vertex 22.8628 2 1.17046
      vertex 22.72 2 1.37167
    endloop
  endfacet
  facet normal 0 1 0
    outer loop
      vertex 28 2 7
      vertex 22.9821 2 0.954544
      vertex 22.8628 2 1.17046
    endloop
  endfacet
  facet normal 0 1 0
    outer loop
      vertex 28 2 7
      vertex 23.0765 2 0.726608
      vertex 22.9821 2 0.954544
    endloop
  endfacet
  facet normal 0 1 0
    outer loop
      vertex 28 2 7
      vertex 23.1448 2 0.489532
      vertex 23.0765 2 0.726608
    endloop
  endfacet
  facet normal 0 1 0
    outer loop
      vertex 28 2 7
      vertex 23.1862 2 0.246307
      vertex 23.1448 2 0.489532
    endloop
  endfacet
  facet normal 0 1 0
    outer loop
      vertex 28 2 7
      vertex 23.2 2 0
      vertex 23.1862 2 0.246307
    endloop
  endfacet
  facet normal 0 1 -0
    outer loop
      vertex 28 2 -7
      vertex 23.2 2 0
      vertex 28 2 7
    endloop
  endfacet
  facet normal 0 1 0
    outer loop
      vertex 23.2 2 0
      vertex 28 2 -7
      vertex 23.1862 2 -0.246307
    endloop
  endfacet
  facet normal 0 1 0
    outer loop
      vertex 23.1862 2 -0.246307
      vertex 28 2 -7
      vertex 23.1448 2 -0.489532
    endloop
  endfacet
  facet normal 0 1 0
    outer loop
      vertex 23.1448 2 -0.489532
      vertex 28 2 -7
      vertex 23.0765 2 -0.726608
    endloop
  endfacet
  facet normal 0 1 0
    outer loop
      vertex 23.0765 2 -0.726608
      vertex 28 2 -7
      vertex 22.9821 2 -0.954544
    endloop
  endfacet
  facet normal 0 1 0
    outer loop
      vertex 21 2 -2.2
      vertex 28 2 -7
      vertex 18 2 -2.2
    endloop
  endfacet
  facet normal 0 1 0
    outer loop
      vertex 21.2463 2 -2.18616
      vertex 28 2 -7
      vertex 21 2 -2.2
    endloop
  endfacet
  facet normal 0 1 0
    outer loop
      vertex 21.4895 2 -2.14484
      vertex 28 2 -7
      vertex 21.2463 2 -2.18616
    endloop
  endfacet
  facet normal 0 1 0
    outer loop
      vertex 21.7266 2 -2.07654
      vertex 28 2 -7
      vertex 21.4895 2 -2.14484
    endloop
  endfacet
  facet normal 0 1 0
    outer loop
      vertex 21.9545 2 -1.98212
      vertex 28 2 -7
      vertex 21.7266 2 -2.07654
    endloop
  endfacet
  facet normal 0 1 0
    outer loop
      vertex 22.1705 2 -1.86279
      vertex 28 2 -7
      vertex 21.9545 2 -1.98212
    endloop
  endfacet
  facet normal 0 1 0
    outer loop
      vertex 22.3717 2 -1.72002
      vertex 28 2 -7
      vertex 22.1705 2 -1.86279
    endloop
  endfacet
  facet normal 0 1 0
    outer loop
      vertex 22.5556 2 -1.55563
      vertex 28 2 -7
      vertex 22.3717 2 -1.72002
    endloop
  endfacet
  facet normal 0 1 0
    outer loop
      vertex 22.72 2 -1.37167
      vertex 28 2 -7
      vertex 22.5556 2 -1.55563
    endloop
  endfacet
  facet normal 0 1 0
    outer loop
      vertex 22.8628 2 -1.17046
      vertex 28 2 -7
      vertex 22.72 2 -1.37167
    endloop
  endfacet
  facet normal 0 1 0
    outer loop
      vertex 22.9821 2 -0.954544
      vertex 28 2 -7
      vertex 22.8628 2 -1.17046
    endloop
  endfacet
  facet normal 0 1 0
    outer loop
      vertex 17.7537 2 2.18616
      vertex 28 2 7
      vertex 18 2 2.2
    endloop
  endfacet
  facet normal 0 1 0
    outer loop
      vertex 28 2 7
      vertex 17.7537 2 2.18616
      vertex 2 2 7
    endloop
  endfacet
  facet normal 0 1 -0
    outer loop
      vertex 17.5105 2 2.14484
      vertex 2 2 7
      vertex 17.7537 2 2.18616
    endloop
  endfacet
  facet normal 0 1 -0
    outer loop
      vertex 17.2734 2 2.07654
      vertex 2 2 7
      vertex 17.5105 2 2.14484
    endloop
  endfacet
  facet normal 0 1 -0
    outer loop
      vertex 17.0454 2 1.98212
      vertex 2 2 7
      vertex 17.2734 2 2.07654
    endloop
  endfacet
  facet normal 0 1 -0
    outer loop
      vertex 16.8295 2 1.86279
      vertex 2 2 7
      vertex 17.0454 2 1.98212
    endloop
  endfacet
  facet normal 0 1 -0
    outer loop
      vertex 16.6283 2 1.72002
      vertex 2 2 7
      vertex 16.8295 2 1.86279
    endloop
  endfacet
  facet normal 0 1 -0
    outer loop
      vertex 16.4444 2 1.55563
      vertex 2 2 7
      vertex 16.6283 2 1.72002
    endloop
  endfacet
  facet normal 0 1 -0
    outer loop
      vertex 16.28 2 1.37167
      vertex 2 2 7
      vertex 16.4444 2 1.55563
    endloop
  endfacet
  facet normal 0 1 -0
    outer loop
      vertex 16.1372 2 1.17046
      vertex 2 2 7
      vertex 16.28 2 1.37167
    endloop
  endfacet
  facet normal 0 1 -0
    outer loop
      vertex 16.0179 2 0.954544
      vertex 2 2 7
      vertex 16.1372 2 1.17046
    endloop
  endfacet
  facet normal 0 1 -0
    outer loop
      vertex 15.9234 2 0.726608
      vertex 2 2 7
      vertex 16.0179 2 0.954544
    endloop
  endfacet
  facet normal 0 1 -0
    outer loop
      vertex 15.8551 2 0.489532
      vertex 2 2 7
      vertex 15.9234 2 0.726608
    endloop
  endfacet
  facet normal 0 1 -0
    outer loop
      vertex 15.8138 2 0.246307
      vertex 2 2 7
      vertex 15.8551 2 0.489532
    endloop
  endfacet
  facet normal 0 1 -0
    outer loop
      vertex 15.8 2 0
      vertex 2 2 7
      vertex 15.8138 2 0.246307
    endloop
  endfacet
  facet normal 0 1 0
    outer loop
      vertex 2 2 -7
      vertex 15.8 2 0
      vertex 15.8138 2 -0.246307
    endloop
  endfacet
  facet normal 0 1 0
    outer loop
      vertex 2 2 -7
      vertex 15.8138 2 -0.246307
      vertex 15.8551 2 -0.489532
    endloop
  endfacet
  facet normal 0 1 0
    outer loop
      vertex 2 2 -7
      vertex 15.8551 2 -0.489532
      vertex 15.9234 2 -0.726608
    endloop
  endfacet
  facet normal 0 1 0
    outer loop
      vertex 2 2 -7
      vertex 15.9234 2 -0.726608
      vertex 16.0179 2 -0.954544
    endloop
  endfacet
  facet normal 0 1 0
    outer loop
      vertex 2 2 -7
      vertex 16.0179 2 -0.954544
      vertex 16.1372 2 -1.17046
    endloop
  endfacet
  facet normal 0 1 0
    outer loop
      vertex 2 2 -7
      vertex 16.1372 2 -1.17046
      vertex 16.28 2 -1.37167
    endloop
  endfacet
  facet normal 0 1 0
    outer loop
      vertex 2 2 -7
      vertex 16.28 2 -1.37167
      vertex 16.4444 2 -1.55563
    endloop
  endfacet
  facet normal 0 1 0
    outer loop
      vertex 2 2 -7
      vertex 16.4444 2 -1.55563
      vertex 16.6283 2 -1.72002
    endloop
  endfacet
  facet normal 0 1 0
    outer loop
      vertex 2 2 -7
      vertex 16.6283 2 -1.72002
      vertex 16.8295 2 -1.86279
    endloop
  endfacet
  facet normal 0 1 0
    outer loop
      vertex 28 2 -7
      vertex 17.7537 2 -2.18616
      vertex 18 2 -2.2
    endloop
  endfacet
  facet normal 0 1 0
    outer loop
      vertex 2 2 -7
      vertex 17.7537 2 -2.18616
      vertex 28 2 -7
    endloop
  endfacet
  facet normal 0 1 0
    outer loop
      vertex 17.7537 2 -2.18616
      vertex 2 2 -7
      vertex 17.5105 2 -2.14484
    endloop
  endfacet
  facet normal 0 1 0
    outer loop
      vertex 17.5105 2 -2.14484
      vertex 2 2 -7
      vertex 17.2734 2 -2.07654
    endloop
  endfacet
  facet normal 0 1 0
    outer loop
      vertex 15.8 2 0
      vertex 2 2 -7
      vertex 2 2 7
    endloop
  endfacet
  facet normal 0 1 0
    outer loop
      vertex 17.0454 2 -1.98212
      vertex 2 2 -7
      vertex 16.8295 2 -1.86279
    endloop
  endfacet
  facet normal 0 1 0
    outer loop
      vertex 17.2734 2 -2.07654
      vertex 2 2 -7
      vertex 17.0454 2 -1.98212
    endloop
  endfacet
  facet normal 0.0561031 0 0.998425
    outer loop
      vertex 17.7537 2 -2.18616
      vertex 18 0 -2.2
      vertex 18 2 -2.2
    endloop
  endfacet
  facet normal 0.0561031 0 0.998425
    outer loop
      vertex 18 0 -2.2
      vertex 17.7537 2 -2.18616
      vertex 17.7537 0 -2.18616
    endloop
  endfacet
  facet normal 0.167501 0 0.985872
    outer loop
      vertex 17.5105 2 -2.14484
      vertex 17.7537 0 -2.18616
      vertex 17.7537 2 -2.18616
    endloop
  endfacet
  facet normal 0.167501 0 0.985872
    outer loop
      vertex 17.7537 0 -2.18616
      vertex 17.5105 2 -2.14484
      vertex 17.5105 0 -2.14484
    endloop
  endfacet
  facet normal 0.276808 0 0.960925
    outer loop
      vertex 17.2734 2 -2.07654
      vertex 17.5105 0 -2.14484
      vertex 17.5105 2 -2.14484
    endloop
  endfacet
  facet normal 0.276808 0 0.960925
    outer loop
      vertex 17.5105 0 -2.14484
      vertex 17.2734 2 -2.07654
      vertex 17.2734 0 -2.07654
    endloop
  endfacet
  facet normal 0.382612 0 0.923909
    outer loop
      vertex 17.0454 2 -1.98212
      vertex 17.2734 0 -2.07654
      vertex 17.2734 2 -2.07654
    endloop
  endfacet
  facet normal 0.382612 0 0.923909
    outer loop
      vertex 17.2734 0 -2.07654
      vertex 17.0454 2 -1.98212
      vertex 17.0454 0 -1.98212
    endloop
  endfacet
  facet normal 0.483738 0 0.875213
    outer loop
      vertex 16.8295 2 -1.86279
      vertex 17.0454 0 -1.98212
      vertex 17.0454 2 -1.98212
    endloop
  endfacet
  facet normal 0.483738 0 0.875213
    outer loop
      vertex 17.0454 0 -1.98212
      vertex 16.8295 2 -1.86279
      vertex 16.8295 0 -1.86279
    endloop
  endfacet
  facet normal 0.578701 0 0.81554
    outer loop
      vertex 16.6283 2 -1.72002
      vertex 16.8295 0 -1.86279
      vertex 16.8295 2 -1.86279
    endloop
  endfacet
  facet normal 0.578701 0 0.81554
    outer loop
      vertex 16.8295 0 -1.86279
      vertex 16.6283 2 -1.72002
      vertex 16.6283 0 -1.72002
    endloop
  endfacet
  facet normal 0.666452 0 0.745548
    outer loop
      vertex 16.4444 2 -1.55563
      vertex 16.6283 0 -1.72002
      vertex 16.6283 2 -1.72002
    endloop
  endfacet
  facet normal 0.666452 0 0.745548
    outer loop
      vertex 16.6283 0 -1.72002
      vertex 16.4444 2 -1.55563
      vertex 16.4444 0 -1.55563
    endloop
  endfacet
  facet normal 0.745636 -0 0.666354
    outer loop
      vertex 16.28 0 -1.37167
      vertex 16.4444 2 -1.55563
      vertex 16.28 2 -1.37167
    endloop
  endfacet
  facet normal 0.745636 0 0.666354
    outer loop
      vertex 16.4444 2 -1.55563
      vertex 16.28 0 -1.37167
      vertex 16.4444 0 -1.55563
    endloop
  endfacet
  facet normal 0.815496 -0 0.578763
    outer loop
      vertex 16.1372 0 -1.17046
      vertex 16.28 2 -1.37167
      vertex 16.1372 2 -1.17046
    endloop
  endfacet
  facet normal 0.815496 0 0.578763
    outer loop
      vertex 16.28 2 -1.37167
      vertex 16.1372 0 -1.17046
      vertex 16.28 0 -1.37167
    endloop
  endfacet
  facet normal 0.875279 -0 0.483618
    outer loop
      vertex 16.0179 0 -0.954544
      vertex 16.1372 2 -1.17046
      vertex 16.0179 2 -0.954544
    endloop
  endfacet
  facet normal 0.875279 0 0.483618
    outer loop
      vertex 16.1372 2 -1.17046
      vertex 16.0179 0 -0.954544
      vertex 16.1372 0 -1.17046
    endloop
  endfacet
  facet normal 0.923757 -0 0.38298
    outer loop
      vertex 15.9234 0 -0.726608
      vertex 16.0179 2 -0.954544
      vertex 15.9234 2 -0.726608
    endloop
  endfacet
  facet normal 0.923757 0 0.38298
    outer loop
      vertex 16.0179 2 -0.954544
      vertex 15.9234 0 -0.726608
      vertex 16.0179 0 -0.954544
    endloop
  endfacet
  facet normal 0.960918 -0 0.276834
    outer loop
      vertex 15.8551 0 -0.489532
      vertex 15.9234 2 -0.726608
      vertex 15.8551 2 -0.489532
    endloop
  endfacet
  facet normal 0.960918 0 0.276834
    outer loop
      vertex 15.9234 2 -0.726608
      vertex 15.8551 0 -0.489532
      vertex 15.9234 0 -0.726608
    endloop
  endfacet
  facet normal 0.985888 -0 0.167405
    outer loop
      vertex 15.8138 0 -0.246307
      vertex 15.8551 2 -0.489532
      vertex 15.8138 2 -0.246307
    endloop
  endfacet
  facet normal 0.985888 0 0.167405
    outer loop
      vertex 15.8551 2 -0.489532
      vertex 15.8138 0 -0.246307
      vertex 15.8551 0 -0.489532
    endloop
  endfacet
  facet normal 0.998434 -0 0.0559399
    outer loop
      vertex 15.8 0 0
      vertex 15.8138 2 -0.246307
      vertex 15.8 2 0
    endloop
  endfacet
  facet normal 0.998434 0 0.0559399
    outer loop
      vertex 15.8138 2 -0.246307
      vertex 15.8 0 0
      vertex 15.8138 0 -0.246307
    endloop
  endfacet
  facet normal 0.998434 0 -0.0559399
    outer loop
      vertex 15.8138 0 0.246307
      vertex 15.8 2 0
      vertex 15.8138 2 0.246307
    endloop
  endfacet
  facet normal 0.998434 0 -0.0559399
    outer loop
      vertex 15.8 2 0
      vertex 15.8138 0 0.246307
      vertex 15.8 0 0
    endloop
  endfacet
  facet normal 0.985888 0 -0.167405
    outer loop
      vertex 15.8551 0 0.489532
      vertex 15.8138 2 0.246307
      vertex 15.8551 2 0.489532
    endloop
  endfacet
  facet normal 0.985888 0 -0.167405
    outer loop
      vertex 15.8138 2 0.246307
      vertex 15.8551 0 0.489532
      vertex 15.8138 0 0.246307
    endloop
  endfacet
  facet normal 0.960918 0 -0.276834
    outer loop
      vertex 15.9234 0 0.726608
      vertex 15.8551 2 0.489532
      vertex 15.9234 2 0.726608
    endloop
  endfacet
  facet normal 0.960918 0 -0.276834
    outer loop
      vertex 15.8551 2 0.489532
      vertex 15.9234 0 0.726608
      vertex 15.8551 0 0.489532
    endloop
  endfacet
  facet normal 0.923757 0 -0.38298
    outer loop
      vertex 16.0179 0 0.954544
      vertex 15.9234 2 0.726608
      vertex 16.0179 2 0.954544
    endloop
  endfacet
  facet normal 0.923757 0 -0.38298
    outer loop
      vertex 15.9234 2 0.726608
      vertex 16.0179 0 0.954544
      vertex 15.9234 0 0.726608
    endloop
  endfacet
  facet normal 0.875279 0 -0.483618
    outer loop
      vertex 16.1372 0 1.17046
      vertex 16.0179 2 0.954544
      vertex 16.1372 2 1.17046
    endloop
  endfacet
  facet normal 0.875279 0 -0.483618
    outer loop
      vertex 16.0179 2 0.954544
      vertex 16.1372 0 1.17046
      vertex 16.0179 0 0.954544
    endloop
  endfacet
  facet normal 0.815496 0 -0.578763
    outer loop
      vertex 16.28 0 1.37167
      vertex 16.1372 2 1.17046
      vertex 16.28 2 1.37167
    endloop
  endfacet
  facet normal 0.815496 0 -0.578763
    outer loop
      vertex 16.1372 2 1.17046
      vertex 16.28 0 1.37167
      vertex 16.1372 0 1.17046
    endloop
  endfacet
  facet normal 0.745636 0 -0.666354
    outer loop
      vertex 16.4444 0 1.55563
      vertex 16.28 2 1.37167
      vertex 16.4444 2 1.55563
    endloop
  endfacet
  facet normal 0.745636 0 -0.666354
    outer loop
      vertex 16.28 2 1.37167
      vertex 16.4444 0 1.55563
      vertex 16.28 0 1.37167
    endloop
  endfacet
  facet normal 0.666452 0 -0.745548
    outer loop
      vertex 16.4444 0 1.55563
      vertex 16.6283 2 1.72002
      vertex 16.6283 0 1.72002
    endloop
  endfacet
  facet normal 0.666452 0 -0.745548
    outer loop
      vertex 16.6283 2 1.72002
      vertex 16.4444 0 1.55563
      vertex 16.4444 2 1.55563
    endloop
  endfacet
  facet normal 0.578701 0 -0.81554
    outer loop
      vertex 16.6283 0 1.72002
      vertex 16.8295 2 1.86279
      vertex 16.8295 0 1.86279
    endloop
  endfacet
  facet normal 0.578701 0 -0.81554
    outer loop
      vertex 16.8295 2 1.86279
      vertex 16.6283 0 1.72002
      vertex 16.6283 2 1.72002
    endloop
  endfacet
  facet normal 0.483738 0 -0.875213
    outer loop
      vertex 16.8295 0 1.86279
      vertex 17.0454 2 1.98212
      vertex 17.0454 0 1.98212
    endloop
  endfacet
  facet normal 0.483738 0 -0.875213
    outer loop
      vertex 17.0454 2 1.98212
      vertex 16.8295 0 1.86279
      vertex 16.8295 2 1.86279
    endloop
  endfacet
  facet normal 0.382612 0 -0.923909
    outer loop
      vertex 17.0454 0 1.98212
      vertex 17.2734 2 2.07654
      vertex 17.2734 0 2.07654
    endloop
  endfacet
  facet normal 0.382612 0 -0.923909
    outer loop
      vertex 17.2734 2 2.07654
      vertex 17.0454 0 1.98212
      vertex 17.0454 2 1.98212
    endloop
  endfacet
  facet normal 0.276808 0 -0.960925
    outer loop
      vertex 17.2734 0 2.07654
      vertex 17.5105 2 2.14484
      vertex 17.5105 0 2.14484
    endloop
  endfacet
  facet normal 0.276808 0 -0.960925
    outer loop
      vertex 17.5105 2 2.14484
      vertex 17.2734 0 2.07654
      vertex 17.2734 2 2.07654
    endloop
  endfacet
  facet normal 0.167501 0 -0.985872
    outer loop
      vertex 17.5105 0 2.14484
      vertex 17.7537 2 2.18616
      vertex 17.7537 0 2.18616
    endloop
  endfacet
  facet normal 0.167501 0 -0.985872
    outer loop
      vertex 17.7537 2 2.18616
      vertex 17.5105 0 2.14484
      vertex 17.5105 2 2.14484
    endloop
  endfacet
  facet normal 0.0561031 0 -0.998425
    outer loop
      vertex 17.7537 0 2.18616
      vertex 18 2 2.2
      vertex 18 0 2.2
    endloop
  endfacet
  facet normal 0.0561031 0 -0.998425
    outer loop
      vertex 18 2 2.2
      vertex 17.7537 0 2.18616
      vertex 17.7537 2 2.18616
    endloop
  endfacet
  facet normal 0 0 -1
    outer loop
      vertex 18 0 2.2
      vertex 21 2 2.2
      vertex 21 0 2.2
    endloop
  endfacet
  facet normal -0 0 -1
    outer loop
      vertex 21 2 2.2
      vertex 18 0 2.2
      vertex 18 2 2.2
    endloop
  endfacet
  facet normal -0.0561031 0 -0.998425
    outer loop
      vertex 21 0 2.2
      vertex 21.2463 2 2.18616
      vertex 21.2463 0 2.18616
    endloop
  endfacet
  facet normal -0.0561031 0 -0.998425
    outer loop
      vertex 21.2463 2 2.18616
      vertex 21 0 2.2
      vertex 21 2 2.2
    endloop
  endfacet
  facet normal -0.167501 0 -0.985872
    outer loop
      vertex 21.2463 0 2.18616
      vertex 21.4895 2 2.14484
      vertex 21.4895 0 2.14484
    endloop
  endfacet
  facet normal -0.167501 0 -0.985872
    outer loop
      vertex 21.4895 2 2.14484
      vertex 21.2463 0 2.18616
      vertex 21.2463 2 2.18616
    endloop
  endfacet
  facet normal -0.276808 0 -0.960925
    outer loop
      vertex 21.4895 0 2.14484
      vertex 21.7266 2 2.07654
      vertex 21.7266 0 2.07654
    endloop
  endfacet
  facet normal -0.276808 0 -0.960925
    outer loop
      vertex 21.7266 2 2.07654
      vertex 21.4895 0 2.14484
      vertex 21.4895 2 2.14484
    endloop
  endfacet
  facet normal -0.382755 0 -0.92385
    outer loop
      vertex 21.7266 0 2.07654
      vertex 21.9545 2 1.98212
      vertex 21.9545 0 1.98212
    endloop
  endfacet
  facet normal -0.382755 0 -0.92385
    outer loop
      vertex 21.9545 2 1.98212
      vertex 21.7266 0 2.07654
      vertex 21.7266 2 2.07654
    endloop
  endfacet
  facet normal -0.483567 0 -0.875307
    outer loop
      vertex 21.9545 0 1.98212
      vertex 22.1705 2 1.86279
      vertex 22.1705 0 1.86279
    endloop
  endfacet
  facet normal -0.483567 0 -0.875307
    outer loop
      vertex 22.1705 2 1.86279
      vertex 21.9545 0 1.98212
      vertex 21.9545 2 1.98212
    endloop
  endfacet
  facet normal -0.578701 0 -0.81554
    outer loop
      vertex 22.1705 0 1.86279
      vertex 22.3717 2 1.72002
      vertex 22.3717 0 1.72002
    endloop
  endfacet
  facet normal -0.578701 0 -0.81554
    outer loop
      vertex 22.3717 2 1.72002
      vertex 22.1705 0 1.86279
      vertex 22.1705 2 1.86279
    endloop
  endfacet
  facet normal -0.666452 0 -0.745548
    outer loop
      vertex 22.3717 0 1.72002
      vertex 22.5556 2 1.55563
      vertex 22.5556 0 1.55563
    endloop
  endfacet
  facet normal -0.666452 0 -0.745548
    outer loop
      vertex 22.5556 2 1.55563
      vertex 22.3717 0 1.72002
      vertex 22.3717 2 1.72002
    endloop
  endfacet
  facet normal -0.745636 0 -0.666354
    outer loop
      vertex 22.72 0 1.37167
      vertex 22.5556 2 1.55563
      vertex 22.72 2 1.37167
    endloop
  endfacet
  facet normal -0.745636 -0 -0.666354
    outer loop
      vertex 22.5556 2 1.55563
      vertex 22.72 0 1.37167
      vertex 22.5556 0 1.55563
    endloop
  endfacet
  facet normal -0.815496 0 -0.578763
    outer loop
      vertex 22.8628 0 1.17046
      vertex 22.72 2 1.37167
      vertex 22.8628 2 1.17046
    endloop
  endfacet
  facet normal -0.815496 -0 -0.578763
    outer loop
      vertex 22.72 2 1.37167
      vertex 22.8628 0 1.17046
      vertex 22.72 0 1.37167
    endloop
  endfacet
  facet normal -0.875279 0 -0.483618
    outer loop
      vertex 22.9821 0 0.954544
      vertex 22.8628 2 1.17046
      vertex 22.9821 2 0.954544
    endloop
  endfacet
  facet normal -0.875279 -0 -0.483618
    outer loop
      vertex 22.8628 2 1.17046
      vertex 22.9821 0 0.954544
      vertex 22.8628 0 1.17046
    endloop
  endfacet
  facet normal -0.9239 0 -0.382634
    outer loop
      vertex 23.0765 0 0.726608
      vertex 22.9821 2 0.954544
      vertex 23.0765 2 0.726608
    endloop
  endfacet
  facet normal -0.9239 -0 -0.382634
    outer loop
      vertex 22.9821 2 0.954544
      vertex 23.0765 0 0.726608
      vertex 22.9821 0 0.954544
    endloop
  endfacet
  facet normal -0.960918 0 -0.276834
    outer loop
      vertex 23.1448 0 0.489532
      vertex 23.0765 2 0.726608
      vertex 23.1448 2 0.489532
    endloop
  endfacet
  facet normal -0.960918 -0 -0.276834
    outer loop
      vertex 23.0765 2 0.726608
      vertex 23.1448 0 0.489532
      vertex 23.0765 0 0.726608
    endloop
  endfacet
  facet normal -0.985821 0 -0.167799
    outer loop
      vertex 23.1862 0 0.246307
      vertex 23.1448 2 0.489532
      vertex 23.1862 2 0.246307
    endloop
  endfacet
  facet normal -0.985821 -0 -0.167799
    outer loop
      vertex 23.1448 2 0.489532
      vertex 23.1862 0 0.246307
      vertex 23.1448 0 0.489532
    endloop
  endfacet
  facet normal -0.998434 0 -0.0559399
    outer loop
      vertex 23.2 0 0
      vertex 23.1862 2 0.246307
      vertex 23.2 2 0
    endloop
  endfacet
  facet normal -0.998434 -0 -0.0559399
    outer loop
      vertex 23.1862 2 0.246307
      vertex 23.2 0 0
      vertex 23.1862 0 0.246307
    endloop
  endfacet
  facet normal -0.998434 0 0.0559399
    outer loop
      vertex 23.1862 0 -0.246307
      vertex 23.2 2 0
      vertex 23.1862 2 -0.246307
    endloop
  endfacet
  facet normal -0.998434 0 0.0559399
    outer loop
      vertex 23.2 2 0
      vertex 23.1862 0 -0.246307
      vertex 23.2 0 0
    endloop
  endfacet
  facet normal -0.985821 0 0.167799
    outer loop
      vertex 23.1448 0 -0.489532
      vertex 23.1862 2 -0.246307
      vertex 23.1448 2 -0.489532
    endloop
  endfacet
  facet normal -0.985821 0 0.167799
    outer loop
      vertex 23.1862 2 -0.246307
      vertex 23.1448 0 -0.489532
      vertex 23.1862 0 -0.246307
    endloop
  endfacet
  facet normal -0.960918 0 0.276834
    outer loop
      vertex 23.0765 0 -0.726608
      vertex 23.1448 2 -0.489532
      vertex 23.0765 2 -0.726608
    endloop
  endfacet
  facet normal -0.960918 0 0.276834
    outer loop
      vertex 23.1448 2 -0.489532
      vertex 23.0765 0 -0.726608
      vertex 23.1448 0 -0.489532
    endloop
  endfacet
  facet normal -0.9239 0 0.382634
    outer loop
      vertex 22.9821 0 -0.954544
      vertex 23.0765 2 -0.726608
      vertex 22.9821 2 -0.954544
    endloop
  endfacet
  facet normal -0.9239 0 0.382634
    outer loop
      vertex 23.0765 2 -0.726608
      vertex 22.9821 0 -0.954544
      vertex 23.0765 0 -0.726608
    endloop
  endfacet
  facet normal -0.875279 0 0.483618
    outer loop
      vertex 22.8628 0 -1.17046
      vertex 22.9821 2 -0.954544
      vertex 22.8628 2 -1.17046
    endloop
  endfacet
  facet normal -0.875279 0 0.483618
    outer loop
      vertex 22.9821 2 -0.954544
      vertex 22.8628 0 -1.17046
      vertex 22.9821 0 -0.954544
    endloop
  endfacet
  facet normal -0.815496 0 0.578763
    outer loop
      vertex 22.72 0 -1.37167
      vertex 22.8628 2 -1.17046
      vertex 22.72 2 -1.37167
    endloop
  endfacet
  facet normal -0.815496 0 0.578763
    outer loop
      vertex 22.8628 2 -1.17046
      vertex 22.72 0 -1.37167
      vertex 22.8628 0 -1.17046
    endloop
  endfacet
  facet normal -0.745636 0 0.666354
    outer loop
      vertex 22.5556 0 -1.55563
      vertex 22.72 2 -1.37167
      vertex 22.5556 2 -1.55563
    endloop
  endfacet
  facet normal -0.745636 0 0.666354
    outer loop
      vertex 22.72 2 -1.37167
      vertex 22.5556 0 -1.55563
      vertex 22.72 0 -1.37167
    endloop
  endfacet
  facet normal -0.666452 0 0.745548
    outer loop
      vertex 22.3717 2 -1.72002
      vertex 22.5556 0 -1.55563
      vertex 22.5556 2 -1.55563
    endloop
  endfacet
  facet normal -0.666452 0 0.745548
    outer loop
      vertex 22.5556 0 -1.55563
      vertex 22.3717 2 -1.72002
      vertex 22.3717 0 -1.72002
    endloop
  endfacet
  facet normal -0.578701 0 0.81554
    outer loop
      vertex 22.1705 2 -1.86279
      vertex 22.3717 0 -1.72002
      vertex 22.3717 2 -1.72002
    endloop
  endfacet
  facet normal -0.578701 0 0.81554
    outer loop
      vertex 22.3717 0 -1.72002
      vertex 22.1705 2 -1.86279
      vertex 22.1705 0 -1.86279
    endloop
  endfacet
  facet normal -0.483567 0 0.875307
    outer loop
      vertex 21.9545 2 -1.98212
      vertex 22.1705 0 -1.86279
      vertex 22.1705 2 -1.86279
    endloop
  endfacet
  facet normal -0.483567 0 0.875307
    outer loop
      vertex 22.1705 0 -1.86279
      vertex 21.9545 2 -1.98212
      vertex 21.9545 0 -1.98212
    endloop
  endfacet
  facet normal -0.382755 0 0.92385
    outer loop
      vertex 21.7266 2 -2.07654
      vertex 21.9545 0 -1.98212
      vertex 21.9545 2 -1.98212
    endloop
  endfacet
  facet normal -0.382755 0 0.92385
    outer loop
      vertex 21.9545 0 -1.98212
      vertex 21.7266 2 -2.07654
      vertex 21.7266 0 -2.07654
    endloop
  endfacet
  facet normal -0.276808 0 0.960925
    outer loop
      vertex 21.4895 2 -2.14484
      vertex 21.7266 0 -2.07654
      vertex 21.7266 2 -2.07654
    endloop
  endfacet
  facet normal -0.276808 0 0.960925
    outer loop
      vertex 21.7266 0 -2.07654
      vertex 21.4895 2 -2.14484
      vertex 21.4895 0 -2.14484
    endloop
  endfacet
  facet normal -0.167501 0 0.985872
    outer loop
      vertex 21.2463 2 -2.18616
      vertex 21.4895 0 -2.14484
      vertex 21.4895 2 -2.14484
    endloop
  endfacet
  facet normal -0.167501 0 0.985872
    outer loop
      vertex 21.4895 0 -2.14484
      vertex 21.2463 2 -2.18616
      vertex 21.2463 0 -2.18616
    endloop
  endfacet
  facet normal -0.0561031 0 0.998425
    outer loop
      vertex 21 2 -2.2
      vertex 21.2463 0 -2.18616
      vertex 21.2463 2 -2.18616
    endloop
  endfacet
  facet normal -0.0561031 0 0.998425
    outer loop
      vertex 21.2463 0 -2.18616
      vertex 21 2 -2.2
      vertex 21 0 -2.2
    endloop
  endfacet
  facet normal -0 0 1
    outer loop
      vertex 18 2 -2.2
      vertex 21 0 -2.2
      vertex 21 2 -2.2
    endloop
  endfacet
  facet normal 0 0 1
    outer loop
      vertex 21 0 -2.2
      vertex 18 2 -2.2
      vertex 18 0 -2.2
    endloop
  endfacet
endsolid OpenSCAD_Model
