solid OpenSCAD_Model
  facet normal -1 0 0
    outer loop
      vertex -50 5.2 2.89999
      vertex -50 6.29999 3.79999
      vertex -50 6.29999 2.89999
    endloop
  endfacet
  facet normal -1 -0 0
    outer loop
      vertex -50 6.29999 3.79999
      vertex -50 5.2 2.89999
      vertex -50 5.2 3.79999
    endloop
  endfacet
  facet normal -1 0 0
    outer loop
      vertex -50 6.29999 2.89999
      vertex -50 7.2 0
      vertex -50 6.29999 0.899994
    endloop
  endfacet
  facet normal -1 0 0
    outer loop
      vertex -50 7.2 0
      vertex -50 -6.29999 0.899994
      vertex -50 6.29999 0.899994
    endloop
  endfacet
  facet normal -1 0 0
    outer loop
      vertex -50 -7.2 0
      vertex -50 -6.29999 2.89999
      vertex -50 -6.29999 0.899994
    endloop
  endfacet
  facet normal -1 -0 0
    outer loop
      vertex -50 -6.29999 2.89999
      vertex -50 -7.2 0
      vertex -50 -6.29999 3.79999
    endloop
  endfacet
  facet normal -1 0 0
    outer loop
      vertex -50 -7.2 7
      vertex -50 -6.29999 3.79999
      vertex -50 -7.2 0
    endloop
  endfacet
  facet normal -1 0 0
    outer loop
      vertex -50 -7.2 0
      vertex -50 -6.29999 0.899994
      vertex -50 7.2 0
    endloop
  endfacet
  facet normal -1 0 0
    outer loop
      vertex -50 -6.29999 3.79999
      vertex -50 -7.2 7
      vertex -50 -6.29999 5
    endloop
  endfacet
  facet normal -1 0 0
    outer loop
      vertex -50 -6.29999 5
      vertex -50 -7.2 7
      vertex -50 -6.29999 7
    endloop
  endfacet
  facet normal -1 0 0
    outer loop
      vertex -50 6.29999 3.79999
      vertex -50 7.2 0
      vertex -50 6.29999 2.89999
    endloop
  endfacet
  facet normal -1 0 0
    outer loop
      vertex -50 7.2 0
      vertex -50 6.29999 3.79999
      vertex -50 7.2 7
    endloop
  endfacet
  facet normal -1 0 0
    outer loop
      vertex -50 6.29999 5
      vertex -50 7.2 7
      vertex -50 6.29999 3.79999
    endloop
  endfacet
  facet normal -1 0 0
    outer loop
      vertex -50 6.29999 5
      vertex -50 6.29999 7
      vertex -50 7.2 7
    endloop
  endfacet
  facet normal -1 0 0
    outer loop
      vertex -50 5.2 5.89999
      vertex -50 6.29999 5
      vertex -50 5.2 5
    endloop
  endfacet
  facet normal -1 0 0
    outer loop
      vertex -50 6.29999 5
      vertex -50 5.2 5.89999
      vertex -50 6.29999 7
    endloop
  endfacet
  facet normal -1 0 0
    outer loop
      vertex -50 -6.29999 2.89999
      vertex -50 -5.2 3.79999
      vertex -50 -5.2 2.89999
    endloop
  endfacet
  facet normal -1 -0 0
    outer loop
      vertex -50 -5.2 3.79999
      vertex -50 -6.29999 2.89999
      vertex -50 -6.29999 3.79999
    endloop
  endfacet
  facet normal -1 0 0
    outer loop
      vertex -50 -6.29999 5
      vertex -50 -5.2 5.89999
      vertex -50 -5.2 5
    endloop
  endfacet
  facet normal -1 -0 0
    outer loop
      vertex -50 -5.2 5.89999
      vertex -50 -6.29999 5
      vertex -50 -6.29999 7
    endloop
  endfacet
  facet normal 1 0 0
    outer loop
      vertex 50 -6.29999 5
      vertex 50 -5.2 5.89999
      vertex 50 -6.29999 7
    endloop
  endfacet
  facet normal 1 0 0
    outer loop
      vertex 50 -5.2 5.89999
      vertex 50 -6.29999 5
      vertex 50 -5.2 5
    endloop
  endfacet
  facet normal 1 -0 0
    outer loop
      vertex 50 -7.2 7
      vertex 50 -6.29999 5
      vertex 50 -6.29999 7
    endloop
  endfacet
  facet normal 1 0 0
    outer loop
      vertex 50 -6.29999 5
      vertex 50 -7.2 7
      vertex 50 -6.29999 3.79999
    endloop
  endfacet
  facet normal 1 0 0
    outer loop
      vertex 50 -7.2 0
      vertex 50 -6.29999 3.79999
      vertex 50 -7.2 7
    endloop
  endfacet
  facet normal 1 0 0
    outer loop
      vertex 50 -6.29999 3.79999
      vertex 50 -7.2 0
      vertex 50 -6.29999 2.89999
    endloop
  endfacet
  facet normal 1 -0 0
    outer loop
      vertex 50 -6.29999 3.79999
      vertex 50 -5.2 2.89999
      vertex 50 -5.2 3.79999
    endloop
  endfacet
  facet normal 1 0 0
    outer loop
      vertex 50 -5.2 2.89999
      vertex 50 -6.29999 3.79999
      vertex 50 -6.29999 2.89999
    endloop
  endfacet
  facet normal 1 -0 0
    outer loop
      vertex 50 5.2 3.79999
      vertex 50 6.29999 2.89999
      vertex 50 6.29999 3.79999
    endloop
  endfacet
  facet normal 1 0 0
    outer loop
      vertex 50 6.29999 2.89999
      vertex 50 5.2 3.79999
      vertex 50 5.2 2.89999
    endloop
  endfacet
  facet normal 1 -0 0
    outer loop
      vertex 50 5.2 5.89999
      vertex 50 6.29999 5
      vertex 50 6.29999 7
    endloop
  endfacet
  facet normal 1 0 0
    outer loop
      vertex 50 6.29999 5
      vertex 50 5.2 5.89999
      vertex 50 5.2 5
    endloop
  endfacet
  facet normal 1 0 0
    outer loop
      vertex 50 6.29999 5
      vertex 50 7.2 7
      vertex 50 6.29999 7
    endloop
  endfacet
  facet normal 1 0 0
    outer loop
      vertex 50 6.29999 3.79999
      vertex 50 7.2 7
      vertex 50 6.29999 5
    endloop
  endfacet
  facet normal 1 0 0
    outer loop
      vertex 50 7.2 7
      vertex 50 6.29999 3.79999
      vertex 50 7.2 0
    endloop
  endfacet
  facet normal 1 -0 0
    outer loop
      vertex 50 6.29999 2.89999
      vertex 50 7.2 0
      vertex 50 6.29999 3.79999
    endloop
  endfacet
  facet normal 1 -0 0
    outer loop
      vertex 50 6.29999 0.899994
      vertex 50 7.2 0
      vertex 50 6.29999 2.89999
    endloop
  endfacet
  facet normal 1 -0 0
    outer loop
      vertex 50 -6.29999 0.899994
      vertex 50 7.2 0
      vertex 50 6.29999 0.899994
    endloop
  endfacet
  facet normal 1 0 0
    outer loop
      vertex 50 -6.29999 0.899994
      vertex 50 -7.2 0
      vertex 50 7.2 0
    endloop
  endfacet
  facet normal 1 0 0
    outer loop
      vertex 50 -6.29999 2.89999
      vertex 50 -7.2 0
      vertex 50 -6.29999 0.899994
    endloop
  endfacet
  facet normal -0 0 1
    outer loop
      vertex -50 7.2 7
      vertex 50 6.29999 7
      vertex 50 7.2 7
    endloop
  endfacet
  facet normal 0 0 1
    outer loop
      vertex 50 6.29999 7
      vertex -50 7.2 7
      vertex -50 6.29999 7
    endloop
  endfacet
  facet normal 0 -0.707113 0.7071
    outer loop
      vertex -50 5.2 5.89999
      vertex 50 6.29999 7
      vertex -50 6.29999 7
    endloop
  endfacet
  facet normal 0 -0.707113 0.7071
    outer loop
      vertex 50 6.29999 7
      vertex -50 5.2 5.89999
      vertex 50 5.2 5.89999
    endloop
  endfacet
  facet normal 0 -1 0
    outer loop
      vertex -50 5.2 5
      vertex 50 5.2 5.89999
      vertex -50 5.2 5.89999
    endloop
  endfacet
  facet normal 0 -1 -0
    outer loop
      vertex 50 5.2 5.89999
      vertex -50 5.2 5
      vertex 50 5.2 5
    endloop
  endfacet
  facet normal 0 0 -1
    outer loop
      vertex -50 5.2 5
      vertex 50 6.29999 5
      vertex 50 5.2 5
    endloop
  endfacet
  facet normal -0 0 -1
    outer loop
      vertex 50 6.29999 5
      vertex -50 5.2 5
      vertex -50 6.29999 5
    endloop
  endfacet
  facet normal 0 -1 0
    outer loop
      vertex -50 6.29999 3.79999
      vertex 50 6.29999 5
      vertex -50 6.29999 5
    endloop
  endfacet
  facet normal 0 -1 -0
    outer loop
      vertex 50 6.29999 5
      vertex -50 6.29999 3.79999
      vertex 50 6.29999 3.79999
    endloop
  endfacet
  facet normal -0 0 1
    outer loop
      vertex -50 6.29999 3.79999
      vertex 50 5.2 3.79999
      vertex 50 6.29999 3.79999
    endloop
  endfacet
  facet normal 0 0 1
    outer loop
      vertex 50 5.2 3.79999
      vertex -50 6.29999 3.79999
      vertex -50 5.2 3.79999
    endloop
  endfacet
  facet normal 0 -1 0
    outer loop
      vertex -50 5.2 2.89999
      vertex 50 5.2 3.79999
      vertex -50 5.2 3.79999
    endloop
  endfacet
  facet normal 0 -1 -0
    outer loop
      vertex 50 5.2 3.79999
      vertex -50 5.2 2.89999
      vertex 50 5.2 2.89999
    endloop
  endfacet
  facet normal 0 0 -1
    outer loop
      vertex -50 5.2 2.89999
      vertex 50 6.29999 2.89999
      vertex 50 5.2 2.89999
    endloop
  endfacet
  facet normal -0 0 -1
    outer loop
      vertex 50 6.29999 2.89999
      vertex -50 5.2 2.89999
      vertex -50 6.29999 2.89999
    endloop
  endfacet
  facet normal 0 -1 0
    outer loop
      vertex -50 6.29999 0.899994
      vertex 50 6.29999 2.89999
      vertex -50 6.29999 2.89999
    endloop
  endfacet
  facet normal 0 -1 -0
    outer loop
      vertex 50 6.29999 2.89999
      vertex -50 6.29999 0.899994
      vertex 50 6.29999 0.899994
    endloop
  endfacet
  facet normal -0 0 1
    outer loop
      vertex -50 6.29999 0.899994
      vertex 50 -6.29999 0.899994
      vertex 50 6.29999 0.899994
    endloop
  endfacet
  facet normal 0 0 1
    outer loop
      vertex 50 -6.29999 0.899994
      vertex -50 6.29999 0.899994
      vertex -50 -6.29999 0.899994
    endloop
  endfacet
  facet normal 0 1 -0
    outer loop
      vertex 50 -6.29999 0.899994
      vertex -50 -6.29999 2.89999
      vertex 50 -6.29999 2.89999
    endloop
  endfacet
  facet normal 0 1 0
    outer loop
      vertex -50 -6.29999 2.89999
      vertex 50 -6.29999 0.899994
      vertex -50 -6.29999 0.899994
    endloop
  endfacet
  facet normal 0 0 -1
    outer loop
      vertex -50 -6.29999 2.89999
      vertex 50 -5.2 2.89999
      vertex 50 -6.29999 2.89999
    endloop
  endfacet
  facet normal -0 0 -1
    outer loop
      vertex 50 -5.2 2.89999
      vertex -50 -6.29999 2.89999
      vertex -50 -5.2 2.89999
    endloop
  endfacet
  facet normal 0 1 -0
    outer loop
      vertex 50 -5.2 2.89999
      vertex -50 -5.2 3.79999
      vertex 50 -5.2 3.79999
    endloop
  endfacet
  facet normal 0 1 0
    outer loop
      vertex -50 -5.2 3.79999
      vertex 50 -5.2 2.89999
      vertex -50 -5.2 2.89999
    endloop
  endfacet
  facet normal -0 0 1
    outer loop
      vertex -50 -5.2 3.79999
      vertex 50 -6.29999 3.79999
      vertex 50 -5.2 3.79999
    endloop
  endfacet
  facet normal 0 0 1
    outer loop
      vertex 50 -6.29999 3.79999
      vertex -50 -5.2 3.79999
      vertex -50 -6.29999 3.79999
    endloop
  endfacet
  facet normal 0 1 -0
    outer loop
      vertex 50 -6.29999 3.79999
      vertex -50 -6.29999 5
      vertex 50 -6.29999 5
    endloop
  endfacet
  facet normal 0 1 0
    outer loop
      vertex -50 -6.29999 5
      vertex 50 -6.29999 3.79999
      vertex -50 -6.29999 3.79999
    endloop
  endfacet
  facet normal 0 0 -1
    outer loop
      vertex -50 -6.29999 5
      vertex 50 -5.2 5
      vertex 50 -6.29999 5
    endloop
  endfacet
  facet normal -0 0 -1
    outer loop
      vertex 50 -5.2 5
      vertex -50 -6.29999 5
      vertex -50 -5.2 5
    endloop
  endfacet
  facet normal 0 1 -0
    outer loop
      vertex 50 -5.2 5
      vertex -50 -5.2 5.89999
      vertex 50 -5.2 5.89999
    endloop
  endfacet
  facet normal 0 1 0
    outer loop
      vertex -50 -5.2 5.89999
      vertex 50 -5.2 5
      vertex -50 -5.2 5
    endloop
  endfacet
  facet normal 0 0.707113 0.7071
    outer loop
      vertex 50 -5.2 5.89999
      vertex -50 -6.29999 7
      vertex 50 -6.29999 7
    endloop
  endfacet
  facet normal 0 0.707113 0.7071
    outer loop
      vertex -50 -6.29999 7
      vertex 50 -5.2 5.89999
      vertex -50 -5.2 5.89999
    endloop
  endfacet
  facet normal -0 0 1
    outer loop
      vertex -50 -6.29999 7
      vertex 50 -7.2 7
      vertex 50 -6.29999 7
    endloop
  endfacet
  facet normal 0 0 1
    outer loop
      vertex 50 -7.2 7
      vertex -50 -6.29999 7
      vertex -50 -7.2 7
    endloop
  endfacet
  facet normal 0 -1 0
    outer loop
      vertex -50 -7.2 0
      vertex 50 -7.2 7
      vertex -50 -7.2 7
    endloop
  endfacet
  facet normal 0 -1 -0
    outer loop
      vertex 50 -7.2 7
      vertex -50 -7.2 0
      vertex 50 -7.2 0
    endloop
  endfacet
  facet normal 0 0 -1
    outer loop
      vertex -50 -7.2 0
      vertex 50 7.2 0
      vertex 50 -7.2 0
    endloop
  endfacet
  facet normal -0 0 -1
    outer loop
      vertex 50 7.2 0
      vertex -50 -7.2 0
      vertex -50 7.2 0
    endloop
  endfacet
  facet normal 0 1 -0
    outer loop
      vertex 50 7.2 0
      vertex -50 7.2 7
      vertex 50 7.2 7
    endloop
  endfacet
  facet normal 0 1 0
    outer loop
      vertex -50 7.2 7
      vertex 50 7.2 0
      vertex -50 7.2 0
    endloop
  endfacet
  facet normal 1 -0 0
    outer loop
      vertex 0.5 -0.5 4.9
      vertex 0.5 0.5 3.9
      vertex 0.5 0.5 4.9
    endloop
  endfacet
  facet normal 1 0 0
    outer loop
      vertex 0.5 0.5 3.9
      vertex 0.5 -0.5 4.9
      vertex 0.5 -0.5 3.9
    endloop
  endfacet
  facet normal -0 0 1
    outer loop
      vertex -0.5 0.5 4.9
      vertex 0.5 -0.5 4.9
      vertex 0.5 0.5 4.9
    endloop
  endfacet
  facet normal 0 0 1
    outer loop
      vertex 0.5 -0.5 4.9
      vertex -0.5 0.5 4.9
      vertex -0.5 -0.5 4.9
    endloop
  endfacet
  facet normal 0 0 -1
    outer loop
      vertex -0.5 -0.5 3.9
      vertex 0.5 0.5 3.9
      vertex 0.5 -0.5 3.9
    endloop
  endfacet
  facet normal -0 0 -1
    outer loop
      vertex 0.5 0.5 3.9
      vertex -0.5 -0.5 3.9
      vertex -0.5 0.5 3.9
    endloop
  endfacet
  facet normal -1 0 0
    outer loop
      vertex -0.5 -0.5 3.9
      vertex -0.5 0.5 4.9
      vertex -0.5 0.5 3.9
    endloop
  endfacet
  facet normal -1 -0 0
    outer loop
      vertex -0.5 0.5 4.9
      vertex -0.5 -0.5 3.9
      vertex -0.5 -0.5 4.9
    endloop
  endfacet
  facet normal 0 1 -0
    outer loop
      vertex 0.5 0.5 3.9
      vertex -0.5 0.5 4.9
      vertex 0.5 0.5 4.9
    endloop
  endfacet
  facet normal 0 1 0
    outer loop
      vertex -0.5 0.5 4.9
      vertex 0.5 0.5 3.9
      vertex -0.5 0.5 3.9
    endloop
  endfacet
  facet normal 0 -1 0
    outer loop
      vertex -0.5 -0.5 3.9
      vertex 0.5 -0.5 4.9
      vertex -0.5 -0.5 4.9
    endloop
  endfacet
  facet normal 0 -1 -0
    outer loop
      vertex 0.5 -0.5 4.9
      vertex -0.5 -0.5 3.9
      vertex 0.5 -0.5 3.9
    endloop
  endfacet
endsolid OpenSCAD_Model
