solid OpenSCAD_Model
  facet normal 0 0 -1
    outer loop
      vertex 1.22499 2.12175 0
      vertex 0.568054 0.822983 0
      vertex 0.354599 0.935013 0
    endloop
  endfacet
  facet normal -0 0 -1
    outer loop
      vertex 0.120529 -0.992706 0
      vertex -1.22499 -2.12175 0
      vertex -0.120529 -0.992706 0
    endloop
  endfacet
  facet normal -0 0 -1
    outer loop
      vertex 2.45 0 0
      vertex 0.970932 -0.239304 0
      vertex 1 0 0
    endloop
  endfacet
  facet normal 0 -0 -1
    outer loop
      vertex 0.120529 -0.992706 0
      vertex 1.22499 -2.12175 0
      vertex -1.22499 -2.12175 0
    endloop
  endfacet
  facet normal -0 0 -1
    outer loop
      vertex -0.120529 -0.992706 0
      vertex -1.22499 -2.12175 0
      vertex -0.354599 -0.935013 0
    endloop
  endfacet
  facet normal -0 0 -1
    outer loop
      vertex -0.354599 -0.935013 0
      vertex -1.22499 -2.12175 0
      vertex -0.568054 -0.822983 0
    endloop
  endfacet
  facet normal -0 0 -1
    outer loop
      vertex -0.568054 -0.822983 0
      vertex -1.22499 -2.12175 0
      vertex -0.748505 -0.663116 0
    endloop
  endfacet
  facet normal -0 0 -1
    outer loop
      vertex -0.748505 -0.663116 0
      vertex -1.22499 -2.12175 0
      vertex -0.885452 -0.464722 0
    endloop
  endfacet
  facet normal -0 0 -1
    outer loop
      vertex -0.885452 -0.464722 0
      vertex -1.22499 -2.12175 0
      vertex -2.45 0 0
    endloop
  endfacet
  facet normal -0 -0 -1
    outer loop
      vertex -0.970932 -0.239304 0
      vertex -0.885452 -0.464722 0
      vertex -2.45 0 0
    endloop
  endfacet
  facet normal 0 0 -1
    outer loop
      vertex -0.970932 0.239304 0
      vertex -1 0 0
      vertex -2.45 0 0
    endloop
  endfacet
  facet normal -0 -0 -1
    outer loop
      vertex -1 0 0
      vertex -0.970932 -0.239304 0
      vertex -2.45 0 0
    endloop
  endfacet
  facet normal -0 0 -1
    outer loop
      vertex -0.970932 0.239304 0
      vertex -2.45 0 0
      vertex -0.885452 0.464722 0
    endloop
  endfacet
  facet normal -0 0 -1
    outer loop
      vertex -0.885452 0.464722 0
      vertex -2.45 0 0
      vertex -1.22499 2.12175 0
    endloop
  endfacet
  facet normal -0 0 -1
    outer loop
      vertex -0.748505 0.663116 0
      vertex -0.885452 0.464722 0
      vertex -1.22499 2.12175 0
    endloop
  endfacet
  facet normal -0 0 -1
    outer loop
      vertex -0.354599 0.935013 0
      vertex -0.568054 0.822983 0
      vertex -1.22499 2.12175 0
    endloop
  endfacet
  facet normal -0 0 -1
    outer loop
      vertex -0.568054 0.822983 0
      vertex -0.748505 0.663116 0
      vertex -1.22499 2.12175 0
    endloop
  endfacet
  facet normal -0 0 -1
    outer loop
      vertex -0.120529 0.992706 0
      vertex -0.354599 0.935013 0
      vertex -1.22499 2.12175 0
    endloop
  endfacet
  facet normal 0 0 -1
    outer loop
      vertex 0.120529 0.992706 0
      vertex -0.120529 0.992706 0
      vertex -1.22499 2.12175 0
    endloop
  endfacet
  facet normal -0 0 -1
    outer loop
      vertex 1.22499 2.12175 0
      vertex 0.120529 0.992706 0
      vertex -1.22499 2.12175 0
    endloop
  endfacet
  facet normal 0 0 -1
    outer loop
      vertex 1.22499 2.12175 0
      vertex 0.354599 0.935013 0
      vertex 0.120529 0.992706 0
    endloop
  endfacet
  facet normal 0 0 -1
    outer loop
      vertex 0.568054 0.822983 0
      vertex 1.22499 2.12175 0
      vertex 0.748505 0.663116 0
    endloop
  endfacet
  facet normal 0 0 -1
    outer loop
      vertex 0.748505 0.663116 0
      vertex 1.22499 2.12175 0
      vertex 0.885452 0.464722 0
    endloop
  endfacet
  facet normal 0 0 -1
    outer loop
      vertex 0.885452 0.464722 0
      vertex 1.22499 2.12175 0
      vertex 2.45 0 0
    endloop
  endfacet
  facet normal 0 0 -1
    outer loop
      vertex 0.970932 0.239304 0
      vertex 0.885452 0.464722 0
      vertex 2.45 0 0
    endloop
  endfacet
  facet normal 0 0 -1
    outer loop
      vertex 2.45 0 0
      vertex 1 0 0
      vertex 0.970932 0.239304 0
    endloop
  endfacet
  facet normal 0 -0 -1
    outer loop
      vertex 0.970932 -0.239304 0
      vertex 2.45 0 0
      vertex 0.885452 -0.464722 0
    endloop
  endfacet
  facet normal 0 0 -1
    outer loop
      vertex 0.885452 -0.464722 0
      vertex 2.45 0 0
      vertex 1.22499 -2.12175 0
    endloop
  endfacet
  facet normal 0 0 -1
    outer loop
      vertex 0.748505 -0.663116 0
      vertex 0.885452 -0.464722 0
      vertex 1.22499 -2.12175 0
    endloop
  endfacet
  facet normal 0 0 -1
    outer loop
      vertex 0.568054 -0.822983 0
      vertex 0.748505 -0.663116 0
      vertex 1.22499 -2.12175 0
    endloop
  endfacet
  facet normal 0 0 -1
    outer loop
      vertex 0.120529 -0.992706 0
      vertex 0.354599 -0.935013 0
      vertex 1.22499 -2.12175 0
    endloop
  endfacet
  facet normal 0 0 -1
    outer loop
      vertex 0.354599 -0.935013 0
      vertex 0.568054 -0.822983 0
      vertex 1.22499 -2.12175 0
    endloop
  endfacet
  facet normal -0 0 1
    outer loop
      vertex 0.354599 0.935013 1.6
      vertex 0.568054 0.822983 1.6
      vertex 1.22499 2.12175 1.6
    endloop
  endfacet
  facet normal -0 0 1
    outer loop
      vertex -0.120529 -0.992706 1.6
      vertex -1.22499 -2.12175 1.6
      vertex 0.120529 -0.992706 1.6
    endloop
  endfacet
  facet normal -0 0 1
    outer loop
      vertex 1 0 1.6
      vertex 0.970932 -0.239304 1.6
      vertex 2.45 0 1.6
    endloop
  endfacet
  facet normal 0 0 1
    outer loop
      vertex -1.22499 -2.12175 1.6
      vertex 1.22499 -2.12175 1.6
      vertex 0.120529 -0.992706 1.6
    endloop
  endfacet
  facet normal 0 0 1
    outer loop
      vertex -0.354599 -0.935013 1.6
      vertex -1.22499 -2.12175 1.6
      vertex -0.120529 -0.992706 1.6
    endloop
  endfacet
  facet normal 0 0 1
    outer loop
      vertex -0.568054 -0.822983 1.6
      vertex -1.22499 -2.12175 1.6
      vertex -0.354599 -0.935013 1.6
    endloop
  endfacet
  facet normal 0 0 1
    outer loop
      vertex -0.748505 -0.663116 1.6
      vertex -1.22499 -2.12175 1.6
      vertex -0.568054 -0.822983 1.6
    endloop
  endfacet
  facet normal 0 0 1
    outer loop
      vertex -0.885452 -0.464722 1.6
      vertex -1.22499 -2.12175 1.6
      vertex -0.748505 -0.663116 1.6
    endloop
  endfacet
  facet normal 0 0 1
    outer loop
      vertex -2.45 0 1.6
      vertex -1.22499 -2.12175 1.6
      vertex -0.885452 -0.464722 1.6
    endloop
  endfacet
  facet normal 0 0 1
    outer loop
      vertex -2.45 0 1.6
      vertex -0.885452 -0.464722 1.6
      vertex -0.970932 -0.239304 1.6
    endloop
  endfacet
  facet normal 0 0 1
    outer loop
      vertex -2.45 0 1.6
      vertex -1 0 1.6
      vertex -0.970932 0.239304 1.6
    endloop
  endfacet
  facet normal -0 0 1
    outer loop
      vertex -2.45 0 1.6
      vertex -0.970932 -0.239304 1.6
      vertex -1 0 1.6
    endloop
  endfacet
  facet normal 0 0 1
    outer loop
      vertex -0.885452 0.464722 1.6
      vertex -2.45 0 1.6
      vertex -0.970932 0.239304 1.6
    endloop
  endfacet
  facet normal 0 0 1
    outer loop
      vertex -1.22499 2.12175 1.6
      vertex -2.45 0 1.6
      vertex -0.885452 0.464722 1.6
    endloop
  endfacet
  facet normal 0 0 1
    outer loop
      vertex -1.22499 2.12175 1.6
      vertex -0.885452 0.464722 1.6
      vertex -0.748505 0.663116 1.6
    endloop
  endfacet
  facet normal 0 0 1
    outer loop
      vertex -1.22499 2.12175 1.6
      vertex -0.568054 0.822983 1.6
      vertex -0.354599 0.935013 1.6
    endloop
  endfacet
  facet normal 0 0 1
    outer loop
      vertex -1.22499 2.12175 1.6
      vertex -0.748505 0.663116 1.6
      vertex -0.568054 0.822983 1.6
    endloop
  endfacet
  facet normal 0 0 1
    outer loop
      vertex -1.22499 2.12175 1.6
      vertex -0.354599 0.935013 1.6
      vertex -0.120529 0.992706 1.6
    endloop
  endfacet
  facet normal 0 0 1
    outer loop
      vertex -1.22499 2.12175 1.6
      vertex -0.120529 0.992706 1.6
      vertex 0.120529 0.992706 1.6
    endloop
  endfacet
  facet normal -0 0 1
    outer loop
      vertex -1.22499 2.12175 1.6
      vertex 0.120529 0.992706 1.6
      vertex 1.22499 2.12175 1.6
    endloop
  endfacet
  facet normal -0 0 1
    outer loop
      vertex 0.120529 0.992706 1.6
      vertex 0.354599 0.935013 1.6
      vertex 1.22499 2.12175 1.6
    endloop
  endfacet
  facet normal 0 -0 1
    outer loop
      vertex 0.748505 0.663116 1.6
      vertex 1.22499 2.12175 1.6
      vertex 0.568054 0.822983 1.6
    endloop
  endfacet
  facet normal 0 -0 1
    outer loop
      vertex 0.885452 0.464722 1.6
      vertex 1.22499 2.12175 1.6
      vertex 0.748505 0.663116 1.6
    endloop
  endfacet
  facet normal 0 0 1
    outer loop
      vertex 2.45 0 1.6
      vertex 1.22499 2.12175 1.6
      vertex 0.885452 0.464722 1.6
    endloop
  endfacet
  facet normal 0 0 1
    outer loop
      vertex 2.45 0 1.6
      vertex 0.885452 0.464722 1.6
      vertex 0.970932 0.239304 1.6
    endloop
  endfacet
  facet normal 0 0 1
    outer loop
      vertex 0.970932 0.239304 1.6
      vertex 1 0 1.6
      vertex 2.45 0 1.6
    endloop
  endfacet
  facet normal 0 0 1
    outer loop
      vertex 0.885452 -0.464722 1.6
      vertex 2.45 0 1.6
      vertex 0.970932 -0.239304 1.6
    endloop
  endfacet
  facet normal 0 -0 1
    outer loop
      vertex 1.22499 -2.12175 1.6
      vertex 2.45 0 1.6
      vertex 0.885452 -0.464722 1.6
    endloop
  endfacet
  facet normal 0 0 1
    outer loop
      vertex 1.22499 -2.12175 1.6
      vertex 0.885452 -0.464722 1.6
      vertex 0.748505 -0.663116 1.6
    endloop
  endfacet
  facet normal 0 0 1
    outer loop
      vertex 1.22499 -2.12175 1.6
      vertex 0.748505 -0.663116 1.6
      vertex 0.568054 -0.822983 1.6
    endloop
  endfacet
  facet normal 0 0 1
    outer loop
      vertex 1.22499 -2.12175 1.6
      vertex 0.354599 -0.935013 1.6
      vertex 0.120529 -0.992706 1.6
    endloop
  endfacet
  facet normal 0 0 1
    outer loop
      vertex 1.22499 -2.12175 1.6
      vertex 0.568054 -0.822983 1.6
      vertex 0.354599 -0.935013 1.6
    endloop
  endfacet
  facet normal 0.866022 0.500005 0
    outer loop
      vertex 1.22499 2.12175 0
      vertex 2.45 0 1.6
      vertex 2.45 0 0
    endloop
  endfacet
  facet normal 0.866022 0.500005 -0
    outer loop
      vertex 1.22499 2.12175 0
      vertex 1.22499 2.12175 1.6
      vertex 2.45 0 1.6
    endloop
  endfacet
  facet normal 0 1 0
    outer loop
      vertex -1.22499 2.12175 0
      vertex 1.22499 2.12175 1.6
      vertex 1.22499 2.12175 0
    endloop
  endfacet
  facet normal 0 1 0
    outer loop
      vertex -1.22499 2.12175 0
      vertex -1.22499 2.12175 1.6
      vertex 1.22499 2.12175 1.6
    endloop
  endfacet
  facet normal -0.866022 0.500005 0
    outer loop
      vertex -2.45 0 0
      vertex -1.22499 2.12175 1.6
      vertex -1.22499 2.12175 0
    endloop
  endfacet
  facet normal -0.866022 0.500005 0
    outer loop
      vertex -2.45 0 0
      vertex -2.45 0 1.6
      vertex -1.22499 2.12175 1.6
    endloop
  endfacet
  facet normal -0.866022 -0.500005 0
    outer loop
      vertex -1.22499 -2.12175 0
      vertex -2.45 0 1.6
      vertex -2.45 0 0
    endloop
  endfacet
  facet normal -0.866022 -0.500005 0
    outer loop
      vertex -1.22499 -2.12175 0
      vertex -1.22499 -2.12175 1.6
      vertex -2.45 0 1.6
    endloop
  endfacet
  facet normal 0 -1 0
    outer loop
      vertex 1.22499 -2.12175 0
      vertex -1.22499 -2.12175 1.6
      vertex -1.22499 -2.12175 0
    endloop
  endfacet
  facet normal 0 -1 0
    outer loop
      vertex 1.22499 -2.12175 0
      vertex 1.22499 -2.12175 1.6
      vertex -1.22499 -2.12175 1.6
    endloop
  endfacet
  facet normal 0.866022 -0.500005 0
    outer loop
      vertex 2.45 0 0
      vertex 1.22499 -2.12175 1.6
      vertex 1.22499 -2.12175 0
    endloop
  endfacet
  facet normal 0.866022 -0.500005 0
    outer loop
      vertex 2.45 0 0
      vertex 2.45 0 1.6
      vertex 1.22499 -2.12175 1.6
    endloop
  endfacet
  facet normal 0.239315 0.970942 -0
    outer loop
      vertex -0.354599 -0.935013 0
      vertex -0.354599 -0.935013 1.6
      vertex -0.120529 -0.992706 0
    endloop
  endfacet
  facet normal 0.239315 0.970942 0
    outer loop
      vertex -0.120529 -0.992706 1.6
      vertex -0.120529 -0.992706 0
      vertex -0.354599 -0.935013 1.6
    endloop
  endfacet
  facet normal 0.464724 0.885456 -0
    outer loop
      vertex -0.568054 -0.822983 0
      vertex -0.568054 -0.822983 1.6
      vertex -0.354599 -0.935013 0
    endloop
  endfacet
  facet normal 0.464724 0.885456 0
    outer loop
      vertex -0.354599 -0.935013 1.6
      vertex -0.354599 -0.935013 0
      vertex -0.568054 -0.822983 1.6
    endloop
  endfacet
  facet normal 0.663126 0.748508 -0
    outer loop
      vertex -0.748505 -0.663116 0
      vertex -0.748505 -0.663116 1.6
      vertex -0.568054 -0.822983 0
    endloop
  endfacet
  facet normal 0.663126 0.748508 0
    outer loop
      vertex -0.568054 -0.822983 1.6
      vertex -0.568054 -0.822983 0
      vertex -0.748505 -0.663116 1.6
    endloop
  endfacet
  facet normal 0.822973 0.56808 -0
    outer loop
      vertex -0.885452 -0.464722 0
      vertex -0.885452 -0.464722 1.6
      vertex -0.748505 -0.663116 0
    endloop
  endfacet
  facet normal 0.822973 0.56808 0
    outer loop
      vertex -0.748505 -0.663116 1.6
      vertex -0.748505 -0.663116 0
      vertex -0.885452 -0.464722 1.6
    endloop
  endfacet
  facet normal 0.93503 0.354569 -0
    outer loop
      vertex -0.970932 -0.239304 0
      vertex -0.970932 -0.239304 1.6
      vertex -0.885452 -0.464722 0
    endloop
  endfacet
  facet normal 0.93503 0.354569 0
    outer loop
      vertex -0.885452 -0.464722 1.6
      vertex -0.885452 -0.464722 0
      vertex -0.970932 -0.239304 1.6
    endloop
  endfacet
  facet normal 0.992703 0.120583 -0
    outer loop
      vertex -1 0 0
      vertex -1 0 1.6
      vertex -0.970932 -0.239304 0
    endloop
  endfacet
  facet normal 0.992703 0.120583 0
    outer loop
      vertex -0.970932 -0.239304 1.6
      vertex -0.970932 -0.239304 0
      vertex -1 0 1.6
    endloop
  endfacet
  facet normal 0.992703 -0.120583 0
    outer loop
      vertex -0.970932 0.239304 0
      vertex -0.970932 0.239304 1.6
      vertex -1 0 0
    endloop
  endfacet
  facet normal 0.992703 -0.120583 0
    outer loop
      vertex -1 0 1.6
      vertex -1 0 0
      vertex -0.970932 0.239304 1.6
    endloop
  endfacet
  facet normal 0.93503 -0.354569 0
    outer loop
      vertex -0.885452 0.464722 0
      vertex -0.885452 0.464722 1.6
      vertex -0.970932 0.239304 0
    endloop
  endfacet
  facet normal 0.93503 -0.354569 0
    outer loop
      vertex -0.970932 0.239304 1.6
      vertex -0.970932 0.239304 0
      vertex -0.885452 0.464722 1.6
    endloop
  endfacet
  facet normal 0.822973 -0.56808 0
    outer loop
      vertex -0.748505 0.663116 0
      vertex -0.748505 0.663116 1.6
      vertex -0.885452 0.464722 0
    endloop
  endfacet
  facet normal 0.822973 -0.56808 0
    outer loop
      vertex -0.885452 0.464722 1.6
      vertex -0.885452 0.464722 0
      vertex -0.748505 0.663116 1.6
    endloop
  endfacet
  facet normal 0.663126 -0.748508 0
    outer loop
      vertex -0.568054 0.822983 0
      vertex -0.568054 0.822983 1.6
      vertex -0.748505 0.663116 0
    endloop
  endfacet
  facet normal 0.663126 -0.748508 0
    outer loop
      vertex -0.748505 0.663116 1.6
      vertex -0.748505 0.663116 0
      vertex -0.568054 0.822983 1.6
    endloop
  endfacet
  facet normal 0.464724 -0.885456 0
    outer loop
      vertex -0.354599 0.935013 0
      vertex -0.354599 0.935013 1.6
      vertex -0.568054 0.822983 0
    endloop
  endfacet
  facet normal 0.464724 -0.885456 0
    outer loop
      vertex -0.568054 0.822983 1.6
      vertex -0.568054 0.822983 0
      vertex -0.354599 0.935013 1.6
    endloop
  endfacet
  facet normal 0.239315 -0.970942 0
    outer loop
      vertex -0.120529 0.992706 0
      vertex -0.120529 0.992706 1.6
      vertex -0.354599 0.935013 0
    endloop
  endfacet
  facet normal 0.239315 -0.970942 0
    outer loop
      vertex -0.354599 0.935013 1.6
      vertex -0.354599 0.935013 0
      vertex -0.120529 0.992706 1.6
    endloop
  endfacet
  facet normal 0 -1 0
    outer loop
      vertex 0.120529 0.992706 0
      vertex 0.120529 0.992706 1.6
      vertex -0.120529 0.992706 0
    endloop
  endfacet
  facet normal 0 -1 0
    outer loop
      vertex -0.120529 0.992706 1.6
      vertex -0.120529 0.992706 0
      vertex 0.120529 0.992706 1.6
    endloop
  endfacet
  facet normal -0.239315 -0.970942 0
    outer loop
      vertex 0.354599 0.935013 0
      vertex 0.354599 0.935013 1.6
      vertex 0.120529 0.992706 0
    endloop
  endfacet
  facet normal -0.239315 -0.970942 -0
    outer loop
      vertex 0.120529 0.992706 1.6
      vertex 0.120529 0.992706 0
      vertex 0.354599 0.935013 1.6
    endloop
  endfacet
  facet normal -0.464724 -0.885456 0
    outer loop
      vertex 0.568054 0.822983 0
      vertex 0.568054 0.822983 1.6
      vertex 0.354599 0.935013 0
    endloop
  endfacet
  facet normal -0.464724 -0.885456 -0
    outer loop
      vertex 0.354599 0.935013 1.6
      vertex 0.354599 0.935013 0
      vertex 0.568054 0.822983 1.6
    endloop
  endfacet
  facet normal -0.663126 -0.748508 0
    outer loop
      vertex 0.748505 0.663116 0
      vertex 0.748505 0.663116 1.6
      vertex 0.568054 0.822983 0
    endloop
  endfacet
  facet normal -0.663126 -0.748508 -0
    outer loop
      vertex 0.568054 0.822983 1.6
      vertex 0.568054 0.822983 0
      vertex 0.748505 0.663116 1.6
    endloop
  endfacet
  facet normal -0.822973 -0.56808 0
    outer loop
      vertex 0.885452 0.464722 0
      vertex 0.885452 0.464722 1.6
      vertex 0.748505 0.663116 0
    endloop
  endfacet
  facet normal -0.822973 -0.56808 -0
    outer loop
      vertex 0.748505 0.663116 1.6
      vertex 0.748505 0.663116 0
      vertex 0.885452 0.464722 1.6
    endloop
  endfacet
  facet normal -0.93503 -0.354569 0
    outer loop
      vertex 0.970932 0.239304 0
      vertex 0.970932 0.239304 1.6
      vertex 0.885452 0.464722 0
    endloop
  endfacet
  facet normal -0.93503 -0.354569 -0
    outer loop
      vertex 0.885452 0.464722 1.6
      vertex 0.885452 0.464722 0
      vertex 0.970932 0.239304 1.6
    endloop
  endfacet
  facet normal -0.992703 -0.120583 0
    outer loop
      vertex 1 0 0
      vertex 1 0 1.6
      vertex 0.970932 0.239304 0
    endloop
  endfacet
  facet normal -0.992703 -0.120583 -0
    outer loop
      vertex 0.970932 0.239304 1.6
      vertex 0.970932 0.239304 0
      vertex 1 0 1.6
    endloop
  endfacet
  facet normal -0.992703 0.120583 0
    outer loop
      vertex 0.970932 -0.239304 0
      vertex 0.970932 -0.239304 1.6
      vertex 1 0 0
    endloop
  endfacet
  facet normal -0.992703 0.120583 0
    outer loop
      vertex 1 0 1.6
      vertex 1 0 0
      vertex 0.970932 -0.239304 1.6
    endloop
  endfacet
  facet normal -0.93503 0.354569 0
    outer loop
      vertex 0.885452 -0.464722 0
      vertex 0.885452 -0.464722 1.6
      vertex 0.970932 -0.239304 0
    endloop
  endfacet
  facet normal -0.93503 0.354569 0
    outer loop
      vertex 0.970932 -0.239304 1.6
      vertex 0.970932 -0.239304 0
      vertex 0.885452 -0.464722 1.6
    endloop
  endfacet
  facet normal -0.822973 0.56808 0
    outer loop
      vertex 0.748505 -0.663116 0
      vertex 0.748505 -0.663116 1.6
      vertex 0.885452 -0.464722 0
    endloop
  endfacet
  facet normal -0.822973 0.56808 0
    outer loop
      vertex 0.885452 -0.464722 1.6
      vertex 0.885452 -0.464722 0
      vertex 0.748505 -0.663116 1.6
    endloop
  endfacet
  facet normal -0.663126 0.748508 0
    outer loop
      vertex 0.568054 -0.822983 0
      vertex 0.568054 -0.822983 1.6
      vertex 0.748505 -0.663116 0
    endloop
  endfacet
  facet normal -0.663126 0.748508 0
    outer loop
      vertex 0.748505 -0.663116 1.6
      vertex 0.748505 -0.663116 0
      vertex 0.568054 -0.822983 1.6
    endloop
  endfacet
  facet normal -0.464724 0.885456 0
    outer loop
      vertex 0.354599 -0.935013 0
      vertex 0.354599 -0.935013 1.6
      vertex 0.568054 -0.822983 0
    endloop
  endfacet
  facet normal -0.464724 0.885456 0
    outer loop
      vertex 0.568054 -0.822983 1.6
      vertex 0.568054 -0.822983 0
      vertex 0.354599 -0.935013 1.6
    endloop
  endfacet
  facet normal -0.239315 0.970942 0
    outer loop
      vertex 0.120529 -0.992706 0
      vertex 0.120529 -0.992706 1.6
      vertex 0.354599 -0.935013 0
    endloop
  endfacet
  facet normal -0.239315 0.970942 0
    outer loop
      vertex 0.354599 -0.935013 1.6
      vertex 0.354599 -0.935013 0
      vertex 0.120529 -0.992706 1.6
    endloop
  endfacet
  facet normal 0 1 0
    outer loop
      vertex -0.120529 -0.992706 0
      vertex -0.120529 -0.992706 1.6
      vertex 0.120529 -0.992706 0
    endloop
  endfacet
  facet normal 0 1 0
    outer loop
      vertex 0.120529 -0.992706 1.6
      vertex 0.120529 -0.992706 0
      vertex -0.120529 -0.992706 1.6
    endloop
  endfacet
endsolid OpenSCAD_Model
