solid OpenSCAD_Model
  facet normal -0.417167 0.172979 0.892216
    outer loop
      vertex -22.8417 13.3417 2.5
      vertex -23.9 14.4 1.8
      vertex -22.9 13.2011 2.5
    endloop
  endfacet
  facet normal 0 0.573462 0.819232
    outer loop
      vertex 23.9 14.4 1.8
      vertex -22.7011 13.4 2.5
      vertex 22.7011 13.4 2.5
    endloop
  endfacet
  facet normal 0 0.573462 0.819232
    outer loop
      vertex -22.7011 13.4 2.5
      vertex 23.9 14.4 1.8
      vertex -23.9 14.4 1.8
    endloop
  endfacet
  facet normal -0.417167 -0.172979 0.892216
    outer loop
      vertex -22.9 -13.2011 2.5
      vertex -23.9 -14.4 1.8
      vertex -22.8417 -13.3417 2.5
    endloop
  endfacet
  facet normal 0.172979 0.417167 0.892216
    outer loop
      vertex 23.9 14.4 1.8
      vertex 22.7011 13.4 2.5
      vertex 22.8417 13.3417 2.5
    endloop
  endfacet
  facet normal -0.573462 0 0.819232
    outer loop
      vertex -23.9 14.4 1.8
      vertex -22.9 -13.2011 2.5
      vertex -22.9 13.2011 2.5
    endloop
  endfacet
  facet normal -0.573462 0 0.819232
    outer loop
      vertex -22.9 -13.2011 2.5
      vertex -23.9 14.4 1.8
      vertex -23.9 -14.4 1.8
    endloop
  endfacet
  facet normal 0 0 -1
    outer loop
      vertex 20.65 -11 0
      vertex 18 -9 0
      vertex 20.65 11 0
    endloop
  endfacet
  facet normal 0 0 -1
    outer loop
      vertex 20.65 -11 0
      vertex -18 -9 0
      vertex 18 -9 0
    endloop
  endfacet
  facet normal -0 0 -1
    outer loop
      vertex -18 -9 0
      vertex -20.65 -11 0
      vertex -18 9 0
    endloop
  endfacet
  facet normal 0 0 -1
    outer loop
      vertex -20.65 -11 0
      vertex -18 -9 0
      vertex 20.65 -11 0
    endloop
  endfacet
  facet normal 0 0 -1
    outer loop
      vertex 18 9 0
      vertex 20.65 11 0
      vertex 18 -9 0
    endloop
  endfacet
  facet normal 0 0 -1
    outer loop
      vertex -18 9 0
      vertex 20.65 11 0
      vertex 18 9 0
    endloop
  endfacet
  facet normal 0 0 -1
    outer loop
      vertex -18 9 0
      vertex -20.65 11 0
      vertex 20.65 11 0
    endloop
  endfacet
  facet normal 0 0 -1
    outer loop
      vertex -20.65 11 0
      vertex -18 9 0
      vertex -20.65 -11 0
    endloop
  endfacet
  facet normal 0 0 -1
    outer loop
      vertex 23.9 -14.4 0
      vertex 22.65 -13 0
      vertex 23.9 14.4 0
    endloop
  endfacet
  facet normal 0 0 -1
    outer loop
      vertex 23.9 -14.4 0
      vertex -22.65 -13 0
      vertex 22.65 -13 0
    endloop
  endfacet
  facet normal -0 0 -1
    outer loop
      vertex -22.65 -13 0
      vertex -23.9 -14.4 0
      vertex -22.65 13 0
    endloop
  endfacet
  facet normal 0 0 -1
    outer loop
      vertex -23.9 -14.4 0
      vertex -22.65 -13 0
      vertex 23.9 -14.4 0
    endloop
  endfacet
  facet normal 0 0 -1
    outer loop
      vertex 22.65 13 0
      vertex 23.9 14.4 0
      vertex 22.65 -13 0
    endloop
  endfacet
  facet normal 0 0 -1
    outer loop
      vertex -22.65 13 0
      vertex 23.9 14.4 0
      vertex 22.65 13 0
    endloop
  endfacet
  facet normal 0 0 -1
    outer loop
      vertex -22.65 13 0
      vertex -23.9 14.4 0
      vertex 23.9 14.4 0
    endloop
  endfacet
  facet normal 0 0 -1
    outer loop
      vertex -23.9 14.4 0
      vertex -22.65 13 0
      vertex -23.9 -14.4 0
    endloop
  endfacet
  facet normal 0.172979 -0.417167 0.892216
    outer loop
      vertex 22.8417 -13.3417 2.5
      vertex 22.7011 -13.4 2.5
      vertex 23.9 -14.4 1.8
    endloop
  endfacet
  facet normal -0.172979 -0.417167 0.892216
    outer loop
      vertex -22.8417 -13.3417 2.5
      vertex -23.9 -14.4 1.8
      vertex -22.7011 -13.4 2.5
    endloop
  endfacet
  facet normal 1 -0 0
    outer loop
      vertex 23.9 -14.4 1.8
      vertex 23.9 14.4 0
      vertex 23.9 14.4 1.8
    endloop
  endfacet
  facet normal 1 0 0
    outer loop
      vertex 23.9 14.4 0
      vertex 23.9 -14.4 1.8
      vertex 23.9 -14.4 0
    endloop
  endfacet
  facet normal -1 0 0
    outer loop
      vertex -23.9 -14.4 0
      vertex -23.9 14.4 1.8
      vertex -23.9 14.4 0
    endloop
  endfacet
  facet normal -1 -0 0
    outer loop
      vertex -23.9 14.4 1.8
      vertex -23.9 -14.4 0
      vertex -23.9 -14.4 1.8
    endloop
  endfacet
  facet normal 0 -1 0
    outer loop
      vertex -23.9 -14.4 0
      vertex 23.9 -14.4 1.8
      vertex -23.9 -14.4 1.8
    endloop
  endfacet
  facet normal 0 -1 -0
    outer loop
      vertex 23.9 -14.4 1.8
      vertex -23.9 -14.4 0
      vertex 23.9 -14.4 0
    endloop
  endfacet
  facet normal 0.417167 -0.172979 0.892216
    outer loop
      vertex 22.9 -13.2011 2.5
      vertex 22.8417 -13.3417 2.5
      vertex 23.9 -14.4 1.8
    endloop
  endfacet
  facet normal 0 1 -0
    outer loop
      vertex 23.9 14.4 0
      vertex -23.9 14.4 1.8
      vertex 23.9 14.4 1.8
    endloop
  endfacet
  facet normal 0 1 0
    outer loop
      vertex -23.9 14.4 1.8
      vertex 23.9 14.4 0
      vertex -23.9 14.4 0
    endloop
  endfacet
  facet normal 0 -0.573462 0.819232
    outer loop
      vertex -22.7011 -13.4 2.5
      vertex 23.9 -14.4 1.8
      vertex 22.7011 -13.4 2.5
    endloop
  endfacet
  facet normal 0 -0.573462 0.819232
    outer loop
      vertex 23.9 -14.4 1.8
      vertex -22.7011 -13.4 2.5
      vertex -23.9 -14.4 1.8
    endloop
  endfacet
  facet normal 0.417167 0.172979 0.892216
    outer loop
      vertex 23.9 14.4 1.8
      vertex 22.8417 13.3417 2.5
      vertex 22.9 13.2011 2.5
    endloop
  endfacet
  facet normal 0 0 1
    outer loop
      vertex 22.7011 13.4 2.5
      vertex 22.9 13.2011 2.5
      vertex 22.8417 13.3417 2.5
    endloop
  endfacet
  facet normal 0 0 1
    outer loop
      vertex 22.9 13.2011 2.5
      vertex 19.248 10.248 2.5
      vertex 22.9 -13.2011 2.5
    endloop
  endfacet
  facet normal 0 0 1
    outer loop
      vertex 22.9 13.2011 2.5
      vertex 22.7011 13.4 2.5
      vertex 19.248 10.248 2.5
    endloop
  endfacet
  facet normal -0 0 1
    outer loop
      vertex 19.248 -10.248 2.5
      vertex 22.9 -13.2011 2.5
      vertex 19.248 10.248 2.5
    endloop
  endfacet
  facet normal 0 -0 1
    outer loop
      vertex 22.7011 -13.4 2.5
      vertex 22.9 -13.2011 2.5
      vertex 19.248 -10.248 2.5
    endloop
  endfacet
  facet normal 0 0 1
    outer loop
      vertex 22.7011 13.4 2.5
      vertex -19.248 10.248 2.5
      vertex 19.248 10.248 2.5
    endloop
  endfacet
  facet normal -0 0 1
    outer loop
      vertex -22.9 13.2011 2.5
      vertex -19.248 10.248 2.5
      vertex -22.7011 13.4 2.5
    endloop
  endfacet
  facet normal -0 0 1
    outer loop
      vertex -22.7011 13.4 2.5
      vertex -19.248 10.248 2.5
      vertex 22.7011 13.4 2.5
    endloop
  endfacet
  facet normal 0 0 1
    outer loop
      vertex 22.9 -13.2011 2.5
      vertex 22.7011 -13.4 2.5
      vertex 22.8417 -13.3417 2.5
    endloop
  endfacet
  facet normal -0 0 1
    outer loop
      vertex -19.248 -10.248 2.5
      vertex 22.7011 -13.4 2.5
      vertex 19.248 -10.248 2.5
    endloop
  endfacet
  facet normal 0 0 1
    outer loop
      vertex -19.248 -10.248 2.5
      vertex -22.7011 -13.4 2.5
      vertex 22.7011 -13.4 2.5
    endloop
  endfacet
  facet normal 0 0 1
    outer loop
      vertex -19.248 10.248 2.5
      vertex -22.9 13.2011 2.5
      vertex -19.248 -10.248 2.5
    endloop
  endfacet
  facet normal 0 0 1
    outer loop
      vertex -22.9 13.2011 2.5
      vertex -22.7011 13.4 2.5
      vertex -22.8417 13.3417 2.5
    endloop
  endfacet
  facet normal 0 0 1
    outer loop
      vertex -22.9 -13.2011 2.5
      vertex -19.248 -10.248 2.5
      vertex -22.9 13.2011 2.5
    endloop
  endfacet
  facet normal 0 0 1
    outer loop
      vertex -19.248 -10.248 2.5
      vertex -22.9 -13.2011 2.5
      vertex -22.7011 -13.4 2.5
    endloop
  endfacet
  facet normal 0 0 1
    outer loop
      vertex -22.7011 -13.4 2.5
      vertex -22.9 -13.2011 2.5
      vertex -22.8417 -13.3417 2.5
    endloop
  endfacet
  facet normal -0.172979 0.417167 0.892216
    outer loop
      vertex -22.7011 13.4 2.5
      vertex -23.9 14.4 1.8
      vertex -22.8417 13.3417 2.5
    endloop
  endfacet
  facet normal 0.573462 0 0.819232
    outer loop
      vertex 22.9 13.2011 2.5
      vertex 23.9 -14.4 1.8
      vertex 23.9 14.4 1.8
    endloop
  endfacet
  facet normal 0.573462 0 0.819232
    outer loop
      vertex 23.9 -14.4 1.8
      vertex 22.9 13.2011 2.5
      vertex 22.9 -13.2011 2.5
    endloop
  endfacet
  facet normal -0.894153 0 0.447761
    outer loop
      vertex 18 -9 0.0078125
      vertex 19.248 10.248 2.5
      vertex 18 9 0.0078125
    endloop
  endfacet
  facet normal -0.894153 0 0.447761
    outer loop
      vertex 19.248 10.248 2.5
      vertex 18 -9 0.0078125
      vertex 19.248 -10.248 2.5
    endloop
  endfacet
  facet normal 0 -0.894153 0.447761
    outer loop
      vertex -18 9 0.0078125
      vertex 19.248 10.248 2.5
      vertex -19.248 10.248 2.5
    endloop
  endfacet
  facet normal 0 -0.894153 0.447761
    outer loop
      vertex 19.248 10.248 2.5
      vertex -18 9 0.0078125
      vertex 18 9 0.0078125
    endloop
  endfacet
  facet normal 0.894153 0 0.447761
    outer loop
      vertex -19.248 10.248 2.5
      vertex -18 -9 0.0078125
      vertex -18 9 0.0078125
    endloop
  endfacet
  facet normal 0.894153 0 0.447761
    outer loop
      vertex -18 -9 0.0078125
      vertex -19.248 10.248 2.5
      vertex -19.248 -10.248 2.5
    endloop
  endfacet
  facet normal 0 0.894153 0.447761
    outer loop
      vertex 18 -9 0.0078125
      vertex -19.248 -10.248 2.5
      vertex 19.248 -10.248 2.5
    endloop
  endfacet
  facet normal 0 0.894153 0.447761
    outer loop
      vertex -19.248 -10.248 2.5
      vertex 18 -9 0.0078125
      vertex -18 -9 0.0078125
    endloop
  endfacet
  facet normal 0 0 -1
    outer loop
      vertex 22.65 -13 -14.9
      vertex 20.65 -11 -14.9
      vertex 22.65 13 -14.9
    endloop
  endfacet
  facet normal 0 0 -1
    outer loop
      vertex 22.65 -13 -14.9
      vertex -20.65 -11 -14.9
      vertex 20.65 -11 -14.9
    endloop
  endfacet
  facet normal -0 0 -1
    outer loop
      vertex -20.65 -11 -14.9
      vertex -22.65 -13 -14.9
      vertex -20.65 11 -14.9
    endloop
  endfacet
  facet normal 0 0 -1
    outer loop
      vertex -22.65 -13 -14.9
      vertex -20.65 -11 -14.9
      vertex 22.65 -13 -14.9
    endloop
  endfacet
  facet normal 0 0 -1
    outer loop
      vertex 20.65 11 -14.9
      vertex 22.65 13 -14.9
      vertex 20.65 -11 -14.9
    endloop
  endfacet
  facet normal 0 0 -1
    outer loop
      vertex -20.65 11 -14.9
      vertex 22.65 13 -14.9
      vertex 20.65 11 -14.9
    endloop
  endfacet
  facet normal 0 0 -1
    outer loop
      vertex -20.65 11 -14.9
      vertex -22.65 13 -14.9
      vertex 22.65 13 -14.9
    endloop
  endfacet
  facet normal 0 0 -1
    outer loop
      vertex -22.65 13 -14.9
      vertex -20.65 11 -14.9
      vertex -22.65 -13 -14.9
    endloop
  endfacet
  facet normal 0 1 -0
    outer loop
      vertex 22.65 13 -14.9
      vertex -22.65 13 0
      vertex 22.65 13 0
    endloop
  endfacet
  facet normal 0 1 0
    outer loop
      vertex -22.65 13 0
      vertex 22.65 13 -14.9
      vertex -22.65 13 -14.9
    endloop
  endfacet
  facet normal -1 0 0
    outer loop
      vertex -22.65 -13 -14.9
      vertex -22.65 13 0
      vertex -22.65 13 -14.9
    endloop
  endfacet
  facet normal -1 -0 0
    outer loop
      vertex -22.65 13 0
      vertex -22.65 -13 -14.9
      vertex -22.65 -13 0
    endloop
  endfacet
  facet normal 0 -1 0
    outer loop
      vertex -22.65 -13 -14.9
      vertex 22.65 -13 0
      vertex -22.65 -13 0
    endloop
  endfacet
  facet normal 0 -1 -0
    outer loop
      vertex 22.65 -13 0
      vertex -22.65 -13 -14.9
      vertex 22.65 -13 -14.9
    endloop
  endfacet
  facet normal 1 -0 0
    outer loop
      vertex 22.65 -13 0
      vertex 22.65 13 -14.9
      vertex 22.65 13 0
    endloop
  endfacet
  facet normal 1 0 0
    outer loop
      vertex 22.65 13 -14.9
      vertex 22.65 -13 0
      vertex 22.65 -13 -14.9
    endloop
  endfacet
  facet normal 1 -0 0
    outer loop
      vertex -20.65 -11 0
      vertex -20.65 11 -14.9
      vertex -20.65 11 0
    endloop
  endfacet
  facet normal 1 0 0
    outer loop
      vertex -20.65 11 -14.9
      vertex -20.65 -11 0
      vertex -20.65 -11 -14.9
    endloop
  endfacet
  facet normal 0 -1 0
    outer loop
      vertex -20.65 11 -14.9
      vertex 20.65 11 0
      vertex -20.65 11 0
    endloop
  endfacet
  facet normal 0 -1 -0
    outer loop
      vertex 20.65 11 0
      vertex -20.65 11 -14.9
      vertex 20.65 11 -14.9
    endloop
  endfacet
  facet normal -1 0 0
    outer loop
      vertex 20.65 -11 -14.9
      vertex 20.65 11 0
      vertex 20.65 11 -14.9
    endloop
  endfacet
  facet normal -1 -0 0
    outer loop
      vertex 20.65 11 0
      vertex 20.65 -11 -14.9
      vertex 20.65 -11 0
    endloop
  endfacet
  facet normal 0 1 -0
    outer loop
      vertex 20.65 -11 -14.9
      vertex -20.65 -11 0
      vertex 20.65 -11 0
    endloop
  endfacet
  facet normal 0 1 0
    outer loop
      vertex -20.65 -11 0
      vertex 20.65 -11 -14.9
      vertex -20.65 -11 -14.9
    endloop
  endfacet
  facet normal 0 0 -1
    outer loop
      vertex -10.55 -4.625 -9.9
      vertex 20.5 -10.5 -9.9
      vertex -10.55 -10.375 -9.9
    endloop
  endfacet
  facet normal 0 0 -1
    outer loop
      vertex -20.5 -10.5 -9.9
      vertex -10.55 -10.375 -9.9
      vertex 20.5 -10.5 -9.9
    endloop
  endfacet
  facet normal -0 0 -1
    outer loop
      vertex -20.45 -10.375 -9.9
      vertex -20.5 -10.5 -9.9
      vertex -20.45 -4.625 -9.9
    endloop
  endfacet
  facet normal -0 0 -1
    outer loop
      vertex -10.55 -10.375 -9.9
      vertex -20.5 -10.5 -9.9
      vertex -20.45 -10.375 -9.9
    endloop
  endfacet
  facet normal 0 0 -1
    outer loop
      vertex 20.5 -10.5 -9.9
      vertex -10.55 -4.625 -9.9
      vertex 20.5 10.5 -9.9
    endloop
  endfacet
  facet normal 0 0 -1
    outer loop
      vertex -20.5 10.5 -9.9
      vertex -10.55 -4.625 -9.9
      vertex -20.45 -4.625 -9.9
    endloop
  endfacet
  facet normal 0 0 -1
    outer loop
      vertex -10.55 -4.625 -9.9
      vertex -20.5 10.5 -9.9
      vertex 20.5 10.5 -9.9
    endloop
  endfacet
  facet normal 0 0 -1
    outer loop
      vertex -20.5 10.5 -9.9
      vertex -20.45 -4.625 -9.9
      vertex -20.5 -10.5 -9.9
    endloop
  endfacet
  facet normal -1 0 0
    outer loop
      vertex -20.45 -10.375 -10.7
      vertex -20.45 -4.625 -9.9
      vertex -20.45 -4.625 -10.7
    endloop
  endfacet
  facet normal -1 -0 0
    outer loop
      vertex -20.45 -4.625 -9.9
      vertex -20.45 -10.375 -10.7
      vertex -20.45 -10.375 -9.9
    endloop
  endfacet
  facet normal 0 0 -1
    outer loop
      vertex -11.35 -9.575 -10.7
      vertex -12.68 -7.295 -10.7
      vertex -11.35 -5.425 -10.7
    endloop
  endfacet
  facet normal 0 0 -1
    outer loop
      vertex -11.35 -9.575 -10.7
      vertex -13.32 -7.295 -10.7
      vertex -12.68 -7.295 -10.7
    endloop
  endfacet
  facet normal 0 0 -1
    outer loop
      vertex -13.32 -7.295 -10.7
      vertex -15.18 -7.295 -10.7
      vertex -13.32 -6.655 -10.7
    endloop
  endfacet
  facet normal 0 0 -1
    outer loop
      vertex -11.35 -9.575 -10.7
      vertex -15.18 -7.295 -10.7
      vertex -13.32 -7.295 -10.7
    endloop
  endfacet
  facet normal 0 0 -1
    outer loop
      vertex -11.35 -9.575 -10.7
      vertex -15.82 -7.295 -10.7
      vertex -15.18 -7.295 -10.7
    endloop
  endfacet
  facet normal 0 0 -1
    outer loop
      vertex -15.82 -7.295 -10.7
      vertex -17.68 -7.295 -10.7
      vertex -15.82 -6.655 -10.7
    endloop
  endfacet
  facet normal 0 0 -1
    outer loop
      vertex -19.65 -9.575 -10.7
      vertex -15.82 -7.295 -10.7
      vertex -11.35 -9.575 -10.7
    endloop
  endfacet
  facet normal -0 0 -1
    outer loop
      vertex -15.82 -7.295 -10.7
      vertex -19.65 -9.575 -10.7
      vertex -17.68 -7.295 -10.7
    endloop
  endfacet
  facet normal 0 0 -1
    outer loop
      vertex -19.65 -5.425 -10.7
      vertex -18.32 -7.295 -10.7
      vertex -19.65 -9.575 -10.7
    endloop
  endfacet
  facet normal -0 0 -1
    outer loop
      vertex -17.68 -7.295 -10.7
      vertex -19.65 -9.575 -10.7
      vertex -18.32 -7.295 -10.7
    endloop
  endfacet
  facet normal 0 0 -1
    outer loop
      vertex -12.68 -6.655 -10.7
      vertex -11.35 -5.425 -10.7
      vertex -12.68 -7.295 -10.7
    endloop
  endfacet
  facet normal 0 0 -1
    outer loop
      vertex -13.32 -6.655 -10.7
      vertex -11.35 -5.425 -10.7
      vertex -12.68 -6.655 -10.7
    endloop
  endfacet
  facet normal 0 0 -1
    outer loop
      vertex -15.18 -6.655 -10.7
      vertex -13.32 -6.655 -10.7
      vertex -15.18 -7.295 -10.7
    endloop
  endfacet
  facet normal 0 0 -1
    outer loop
      vertex -13.32 -6.655 -10.7
      vertex -15.18 -6.655 -10.7
      vertex -11.35 -5.425 -10.7
    endloop
  endfacet
  facet normal 0 0 -1
    outer loop
      vertex -15.82 -6.655 -10.7
      vertex -11.35 -5.425 -10.7
      vertex -15.18 -6.655 -10.7
    endloop
  endfacet
  facet normal 0 0 -1
    outer loop
      vertex -17.68 -6.655 -10.7
      vertex -15.82 -6.655 -10.7
      vertex -17.68 -7.295 -10.7
    endloop
  endfacet
  facet normal 0 0 -1
    outer loop
      vertex -19.65 -5.425 -10.7
      vertex -15.82 -6.655 -10.7
      vertex -17.68 -6.655 -10.7
    endloop
  endfacet
  facet normal 0 0 -1
    outer loop
      vertex -19.65 -5.425 -10.7
      vertex -17.68 -6.655 -10.7
      vertex -18.32 -6.655 -10.7
    endloop
  endfacet
  facet normal 0 0 -1
    outer loop
      vertex -15.82 -6.655 -10.7
      vertex -19.65 -5.425 -10.7
      vertex -11.35 -5.425 -10.7
    endloop
  endfacet
  facet normal 0 0 -1
    outer loop
      vertex -18.32 -7.295 -10.7
      vertex -19.65 -5.425 -10.7
      vertex -18.32 -6.655 -10.7
    endloop
  endfacet
  facet normal 0 -1 0
    outer loop
      vertex -20.45 -10.375 -16.9
      vertex -10.55 -10.375 -10.7
      vertex -20.45 -10.375 -10.7
    endloop
  endfacet
  facet normal 0 -1 -0
    outer loop
      vertex -10.55 -10.375 -10.7
      vertex -20.45 -10.375 -16.9
      vertex -10.55 -10.375 -16.9
    endloop
  endfacet
  facet normal 0 -1 0
    outer loop
      vertex -20.45 -10.375 -9.9
      vertex -20.45 -10.375 -10.7
      vertex -10.55 -10.375 -9.9
    endloop
  endfacet
  facet normal 0 -1 0
    outer loop
      vertex -10.55 -10.375 -10.7
      vertex -10.55 -10.375 -9.9
      vertex -20.45 -10.375 -10.7
    endloop
  endfacet
  facet normal 1 -0 0
    outer loop
      vertex -10.55 -10.375 -9.9
      vertex -10.55 -4.625 -10.7
      vertex -10.55 -4.625 -9.9
    endloop
  endfacet
  facet normal 1 0 0
    outer loop
      vertex -10.55 -4.625 -10.7
      vertex -10.55 -10.375 -9.9
      vertex -10.55 -10.375 -10.7
    endloop
  endfacet
  facet normal 0 1 -0
    outer loop
      vertex -13.98 -4.625 -16.9
      vertex -17.02 -4.625 -13.4
      vertex -13.98 -4.625 -13.4
    endloop
  endfacet
  facet normal 0 1 0
    outer loop
      vertex -17.02 -4.625 -13.4
      vertex -13.98 -4.625 -16.9
      vertex -17.02 -4.625 -16.9
    endloop
  endfacet
  facet normal 0 1 0
    outer loop
      vertex -10.55 -4.625 -9.9
      vertex -13.98 -4.625 -13.4
      vertex -20.45 -4.625 -9.9
    endloop
  endfacet
  facet normal 0 1 -0
    outer loop
      vertex -10.55 -4.625 -16.9
      vertex -12.68 -4.625 -13.4
      vertex -10.55 -4.625 -10.7
    endloop
  endfacet
  facet normal 0 1 0
    outer loop
      vertex -12.68 -4.625 -13.4
      vertex -10.55 -4.625 -16.9
      vertex -12.68 -4.625 -16.9
    endloop
  endfacet
  facet normal 0 1 0
    outer loop
      vertex -13.98 -4.625 -13.4
      vertex -10.55 -4.625 -10.7
      vertex -12.68 -4.625 -13.4
    endloop
  endfacet
  facet normal 0 1 -0
    outer loop
      vertex -10.55 -4.625 -10.7
      vertex -13.98 -4.625 -13.4
      vertex -10.55 -4.625 -9.9
    endloop
  endfacet
  facet normal 0 1 -0
    outer loop
      vertex -17.02 -4.625 -13.4
      vertex -20.45 -4.625 -9.9
      vertex -13.98 -4.625 -13.4
    endloop
  endfacet
  facet normal 0 1 0
    outer loop
      vertex -20.45 -4.625 -9.9
      vertex -17.02 -4.625 -13.4
      vertex -20.45 -4.625 -10.7
    endloop
  endfacet
  facet normal 0 1 -0
    outer loop
      vertex -18.32 -4.625 -13.4
      vertex -20.45 -4.625 -10.7
      vertex -17.02 -4.625 -13.4
    endloop
  endfacet
  facet normal 0 1 0
    outer loop
      vertex -20.45 -4.625 -16.9
      vertex -18.32 -4.625 -13.4
      vertex -18.32 -4.625 -16.9
    endloop
  endfacet
  facet normal 0 1 0
    outer loop
      vertex -18.32 -4.625 -13.4
      vertex -20.45 -4.625 -16.9
      vertex -20.45 -4.625 -10.7
    endloop
  endfacet
  facet normal 0 0 -1
    outer loop
      vertex -11.35 -6.22501 -13.4
      vertex -10.55 -5.425 -13.4
      vertex -10.55 -6.22501 -13.4
    endloop
  endfacet
  facet normal -0 0 -1
    outer loop
      vertex -10.55 -5.425 -13.4
      vertex -11.35 -6.22501 -13.4
      vertex -11.35 -5.425 -13.4
    endloop
  endfacet
  facet normal 0 0 -1
    outer loop
      vertex -20.45 -6.22501 -13.4
      vertex -19.65 -5.425 -13.4
      vertex -19.65 -6.22501 -13.4
    endloop
  endfacet
  facet normal -0 0 -1
    outer loop
      vertex -19.65 -5.425 -13.4
      vertex -20.45 -6.22501 -13.4
      vertex -20.45 -5.425 -13.4
    endloop
  endfacet
  facet normal 0 0 -1
    outer loop
      vertex -18.32 -5.425 -13.4
      vertex -17.02 -4.625 -13.4
      vertex -17.02 -5.425 -13.4
    endloop
  endfacet
  facet normal -0 0 -1
    outer loop
      vertex -17.02 -4.625 -13.4
      vertex -18.32 -5.425 -13.4
      vertex -18.32 -4.625 -13.4
    endloop
  endfacet
  facet normal 0 0 -1
    outer loop
      vertex -13.98 -5.425 -13.4
      vertex -12.68 -4.625 -13.4
      vertex -12.68 -5.425 -13.4
    endloop
  endfacet
  facet normal -0 0 -1
    outer loop
      vertex -12.68 -4.625 -13.4
      vertex -13.98 -5.425 -13.4
      vertex -13.98 -4.625 -13.4
    endloop
  endfacet
  facet normal -1 0 0
    outer loop
      vertex -20.45 -6.22501 -16.9
      vertex -20.45 -10.375 -16.9
      vertex -20.45 -6.22501 -13.4
    endloop
  endfacet
  facet normal -1 0 0
    outer loop
      vertex -20.45 -5.425 -13.4
      vertex -20.45 -4.625 -16.9
      vertex -20.45 -5.425 -16.9
    endloop
  endfacet
  facet normal -1 0 0
    outer loop
      vertex -20.45 -4.625 -16.9
      vertex -20.45 -5.425 -13.4
      vertex -20.45 -4.625 -10.7
    endloop
  endfacet
  facet normal -1 0 0
    outer loop
      vertex -20.45 -6.22501 -13.4
      vertex -20.45 -4.625 -10.7
      vertex -20.45 -5.425 -13.4
    endloop
  endfacet
  facet normal -1 0 0
    outer loop
      vertex -20.45 -10.375 -10.7
      vertex -20.45 -6.22501 -13.4
      vertex -20.45 -10.375 -16.9
    endloop
  endfacet
  facet normal -1 0 0
    outer loop
      vertex -20.45 -6.22501 -13.4
      vertex -20.45 -10.375 -10.7
      vertex -20.45 -4.625 -10.7
    endloop
  endfacet
  facet normal 1 0 0
    outer loop
      vertex -10.55 -4.625 -10.7
      vertex -10.55 -5.425 -13.4
      vertex -10.55 -4.625 -16.9
    endloop
  endfacet
  facet normal 1 0 0
    outer loop
      vertex -10.55 -4.625 -10.7
      vertex -10.55 -6.22501 -13.4
      vertex -10.55 -5.425 -13.4
    endloop
  endfacet
  facet normal 1 -0 0
    outer loop
      vertex -10.55 -10.375 -10.7
      vertex -10.55 -6.22501 -13.4
      vertex -10.55 -4.625 -10.7
    endloop
  endfacet
  facet normal 1 0 0
    outer loop
      vertex -10.55 -10.375 -16.9
      vertex -10.55 -6.22501 -13.4
      vertex -10.55 -10.375 -10.7
    endloop
  endfacet
  facet normal 1 0 0
    outer loop
      vertex -10.55 -6.22501 -13.4
      vertex -10.55 -10.375 -16.9
      vertex -10.55 -6.22501 -16.9
    endloop
  endfacet
  facet normal 1 0 0
    outer loop
      vertex -10.55 -4.625 -16.9
      vertex -10.55 -5.425 -13.4
      vertex -10.55 -5.425 -16.9
    endloop
  endfacet
  facet normal 1 0 0
    outer loop
      vertex -19.65 -5.425 -10.7
      vertex -19.65 -6.22501 -13.4
      vertex -19.65 -5.425 -13.4
    endloop
  endfacet
  facet normal 1 -0 0
    outer loop
      vertex -19.65 -9.575 -10.7
      vertex -19.65 -6.22501 -13.4
      vertex -19.65 -5.425 -10.7
    endloop
  endfacet
  facet normal 1 0 0
    outer loop
      vertex -19.65 -9.575 -16.9
      vertex -19.65 -6.22501 -13.4
      vertex -19.65 -9.575 -10.7
    endloop
  endfacet
  facet normal 1 0 0
    outer loop
      vertex -19.65 -6.22501 -13.4
      vertex -19.65 -9.575 -16.9
      vertex -19.65 -6.22501 -16.9
    endloop
  endfacet
  facet normal 0 1 -0
    outer loop
      vertex -11.35 -9.575 -16.9
      vertex -19.65 -9.575 -10.7
      vertex -11.35 -9.575 -10.7
    endloop
  endfacet
  facet normal 0 1 0
    outer loop
      vertex -19.65 -9.575 -10.7
      vertex -11.35 -9.575 -16.9
      vertex -19.65 -9.575 -16.9
    endloop
  endfacet
  facet normal -1 0 0
    outer loop
      vertex -11.35 -6.22501 -16.9
      vertex -11.35 -9.575 -16.9
      vertex -11.35 -6.22501 -13.4
    endloop
  endfacet
  facet normal -1 0 0
    outer loop
      vertex -11.35 -6.22501 -13.4
      vertex -11.35 -5.425 -10.7
      vertex -11.35 -5.425 -13.4
    endloop
  endfacet
  facet normal -1 0 0
    outer loop
      vertex -11.35 -9.575 -10.7
      vertex -11.35 -6.22501 -13.4
      vertex -11.35 -9.575 -16.9
    endloop
  endfacet
  facet normal -1 0 0
    outer loop
      vertex -11.35 -6.22501 -13.4
      vertex -11.35 -9.575 -10.7
      vertex -11.35 -5.425 -10.7
    endloop
  endfacet
  facet normal 0 -1 0
    outer loop
      vertex -17.02 -5.425 -16.9
      vertex -13.98 -5.425 -13.4
      vertex -17.02 -5.425 -13.4
    endloop
  endfacet
  facet normal 0 -1 -0
    outer loop
      vertex -13.98 -5.425 -13.4
      vertex -17.02 -5.425 -16.9
      vertex -13.98 -5.425 -16.9
    endloop
  endfacet
  facet normal 0 -1 0
    outer loop
      vertex -18.32 -5.425 -13.4
      vertex -19.65 -5.425 -10.7
      vertex -19.65 -5.425 -13.4
    endloop
  endfacet
  facet normal 0 -1 0
    outer loop
      vertex -17.02 -5.425 -13.4
      vertex -19.65 -5.425 -10.7
      vertex -18.32 -5.425 -13.4
    endloop
  endfacet
  facet normal 0 -1 0
    outer loop
      vertex -19.65 -5.425 -10.7
      vertex -17.02 -5.425 -13.4
      vertex -11.35 -5.425 -10.7
    endloop
  endfacet
  facet normal 0 -1 0
    outer loop
      vertex -13.98 -5.425 -13.4
      vertex -11.35 -5.425 -10.7
      vertex -17.02 -5.425 -13.4
    endloop
  endfacet
  facet normal 0 -1 0
    outer loop
      vertex -12.68 -5.425 -13.4
      vertex -11.35 -5.425 -10.7
      vertex -13.98 -5.425 -13.4
    endloop
  endfacet
  facet normal 0 -1 0
    outer loop
      vertex -12.68 -5.425 -13.4
      vertex -11.35 -5.425 -13.4
      vertex -11.35 -5.425 -10.7
    endloop
  endfacet
  facet normal 0 -1 0
    outer loop
      vertex -12.68 -5.425 -16.9
      vertex -11.35 -5.425 -13.4
      vertex -12.68 -5.425 -13.4
    endloop
  endfacet
  facet normal 0 -1 0
    outer loop
      vertex -10.55 -5.425 -16.9
      vertex -11.35 -5.425 -13.4
      vertex -12.68 -5.425 -16.9
    endloop
  endfacet
  facet normal 0 -1 0
    outer loop
      vertex -11.35 -5.425 -13.4
      vertex -10.55 -5.425 -16.9
      vertex -10.55 -5.425 -13.4
    endloop
  endfacet
  facet normal 0 -1 0
    outer loop
      vertex -20.45 -5.425 -16.9
      vertex -19.65 -5.425 -13.4
      vertex -20.45 -5.425 -13.4
    endloop
  endfacet
  facet normal 0 -1 0
    outer loop
      vertex -18.32 -5.425 -16.9
      vertex -19.65 -5.425 -13.4
      vertex -20.45 -5.425 -16.9
    endloop
  endfacet
  facet normal 0 -1 0
    outer loop
      vertex -19.65 -5.425 -13.4
      vertex -18.32 -5.425 -16.9
      vertex -18.32 -5.425 -13.4
    endloop
  endfacet
  facet normal 0 0 -1
    outer loop
      vertex -12.68 -5.425 -16.9
      vertex -10.55 -4.625 -16.9
      vertex -10.55 -5.425 -16.9
    endloop
  endfacet
  facet normal -0 0 -1
    outer loop
      vertex -10.55 -4.625 -16.9
      vertex -12.68 -5.425 -16.9
      vertex -12.68 -4.625 -16.9
    endloop
  endfacet
  facet normal 0 0 -1
    outer loop
      vertex -10.55 -10.375 -16.9
      vertex -11.35 -9.575 -16.9
      vertex -10.55 -6.22501 -16.9
    endloop
  endfacet
  facet normal 0 0 -1
    outer loop
      vertex -10.55 -10.375 -16.9
      vertex -19.65 -9.575 -16.9
      vertex -11.35 -9.575 -16.9
    endloop
  endfacet
  facet normal 0 0 -1
    outer loop
      vertex -20.45 -10.375 -16.9
      vertex -19.65 -9.575 -16.9
      vertex -10.55 -10.375 -16.9
    endloop
  endfacet
  facet normal 0 0 -1
    outer loop
      vertex -20.45 -6.22501 -16.9
      vertex -19.65 -9.575 -16.9
      vertex -20.45 -10.375 -16.9
    endloop
  endfacet
  facet normal 0 0 -1
    outer loop
      vertex -19.65 -9.575 -16.9
      vertex -20.45 -6.22501 -16.9
      vertex -19.65 -6.22501 -16.9
    endloop
  endfacet
  facet normal -0 0 -1
    outer loop
      vertex -10.55 -6.22501 -16.9
      vertex -11.35 -9.575 -16.9
      vertex -11.35 -6.22501 -16.9
    endloop
  endfacet
  facet normal 0 0 -1
    outer loop
      vertex -20.45 -5.425 -16.9
      vertex -18.32 -4.625 -16.9
      vertex -18.32 -5.425 -16.9
    endloop
  endfacet
  facet normal -0 0 -1
    outer loop
      vertex -18.32 -4.625 -16.9
      vertex -20.45 -5.425 -16.9
      vertex -20.45 -4.625 -16.9
    endloop
  endfacet
  facet normal 0 0 -1
    outer loop
      vertex -17.02 -5.425 -16.9
      vertex -13.98 -4.625 -16.9
      vertex -13.98 -5.425 -16.9
    endloop
  endfacet
  facet normal -0 0 -1
    outer loop
      vertex -13.98 -4.625 -16.9
      vertex -17.02 -5.425 -16.9
      vertex -17.02 -4.625 -16.9
    endloop
  endfacet
  facet normal 0 1 -0
    outer loop
      vertex -19.65 -6.22501 -16.9
      vertex -20.45 -6.22501 -13.4
      vertex -19.65 -6.22501 -13.4
    endloop
  endfacet
  facet normal 0 1 0
    outer loop
      vertex -20.45 -6.22501 -13.4
      vertex -19.65 -6.22501 -16.9
      vertex -20.45 -6.22501 -16.9
    endloop
  endfacet
  facet normal 0 1 -0
    outer loop
      vertex -10.55 -6.22501 -16.9
      vertex -11.35 -6.22501 -13.4
      vertex -10.55 -6.22501 -13.4
    endloop
  endfacet
  facet normal 0 1 0
    outer loop
      vertex -11.35 -6.22501 -13.4
      vertex -10.55 -6.22501 -16.9
      vertex -11.35 -6.22501 -16.9
    endloop
  endfacet
  facet normal -1 0 0
    outer loop
      vertex -12.68 -5.425 -16.9
      vertex -12.68 -4.625 -13.4
      vertex -12.68 -4.625 -16.9
    endloop
  endfacet
  facet normal -1 -0 0
    outer loop
      vertex -12.68 -4.625 -13.4
      vertex -12.68 -5.425 -16.9
      vertex -12.68 -5.425 -13.4
    endloop
  endfacet
  facet normal 1 -0 0
    outer loop
      vertex -18.32 -5.425 -13.4
      vertex -18.32 -4.625 -16.9
      vertex -18.32 -4.625 -13.4
    endloop
  endfacet
  facet normal 1 0 0
    outer loop
      vertex -18.32 -4.625 -16.9
      vertex -18.32 -5.425 -13.4
      vertex -18.32 -5.425 -16.9
    endloop
  endfacet
  facet normal -1 0 0
    outer loop
      vertex -17.02 -5.425 -16.9
      vertex -17.02 -4.625 -13.4
      vertex -17.02 -4.625 -16.9
    endloop
  endfacet
  facet normal -1 -0 0
    outer loop
      vertex -17.02 -4.625 -13.4
      vertex -17.02 -5.425 -16.9
      vertex -17.02 -5.425 -13.4
    endloop
  endfacet
  facet normal 1 -0 0
    outer loop
      vertex -13.98 -5.425 -13.4
      vertex -13.98 -4.625 -16.9
      vertex -13.98 -4.625 -13.4
    endloop
  endfacet
  facet normal 1 0 0
    outer loop
      vertex -13.98 -4.625 -16.9
      vertex -13.98 -5.425 -13.4
      vertex -13.98 -5.425 -16.9
    endloop
  endfacet
  facet normal 0.894427 0 -0.447214
    outer loop
      vertex -17.68 -6.655 -16.18
      vertex -17.84 -7.135 -16.5
      vertex -17.84 -6.815 -16.5
    endloop
  endfacet
  facet normal 0.894427 0 -0.447214
    outer loop
      vertex -17.84 -7.135 -16.5
      vertex -17.68 -6.655 -16.18
      vertex -17.68 -7.295 -16.18
    endloop
  endfacet
  facet normal 1 -0 0
    outer loop
      vertex -17.68 -7.295 -6.82
      vertex -17.68 -6.655 -8.9
      vertex -17.68 -6.655 -6.82
    endloop
  endfacet
  facet normal 1 0 0
    outer loop
      vertex -17.68 -6.655 -8.9
      vertex -17.68 -7.295 -6.82
      vertex -17.68 -7.295 -8.9
    endloop
  endfacet
  facet normal 1 -0 0
    outer loop
      vertex -17.68 -7.295 -10.7
      vertex -17.68 -6.655 -16.18
      vertex -17.68 -6.655 -10.7
    endloop
  endfacet
  facet normal 1 0 0
    outer loop
      vertex -17.68 -6.655 -16.18
      vertex -17.68 -7.295 -10.7
      vertex -17.68 -7.295 -16.18
    endloop
  endfacet
  facet normal -0.894427 0 0.447214
    outer loop
      vertex -18.32 -6.655 -6.82
      vertex -18.16 -7.135 -6.5
      vertex -18.16 -6.815 -6.5
    endloop
  endfacet
  facet normal -0.894427 0 0.447214
    outer loop
      vertex -18.16 -7.135 -6.5
      vertex -18.32 -6.655 -6.82
      vertex -18.32 -7.295 -6.82
    endloop
  endfacet
  facet normal 0 -1 0
    outer loop
      vertex -18.32 -7.295 -8.9
      vertex -17.68 -7.295 -6.82
      vertex -18.32 -7.295 -6.82
    endloop
  endfacet
  facet normal 0 -1 -0
    outer loop
      vertex -17.68 -7.295 -6.82
      vertex -18.32 -7.295 -8.9
      vertex -17.68 -7.295 -8.9
    endloop
  endfacet
  facet normal 0 -1 0
    outer loop
      vertex -18.32 -7.295 -16.18
      vertex -17.68 -7.295 -10.7
      vertex -18.32 -7.295 -10.7
    endloop
  endfacet
  facet normal 0 -1 -0
    outer loop
      vertex -17.68 -7.295 -10.7
      vertex -18.32 -7.295 -16.18
      vertex -17.68 -7.295 -16.18
    endloop
  endfacet
  facet normal 0 -0.894427 -0.447214
    outer loop
      vertex -18.16 -7.135 -16.5
      vertex -17.68 -7.295 -16.18
      vertex -18.32 -7.295 -16.18
    endloop
  endfacet
  facet normal 0 -0.894427 -0.447214
    outer loop
      vertex -17.68 -7.295 -16.18
      vertex -18.16 -7.135 -16.5
      vertex -17.84 -7.135 -16.5
    endloop
  endfacet
  facet normal -1 0 0
    outer loop
      vertex -18.32 -7.295 -16.18
      vertex -18.32 -6.655 -10.7
      vertex -18.32 -6.655 -16.18
    endloop
  endfacet
  facet normal -1 -0 0
    outer loop
      vertex -18.32 -6.655 -10.7
      vertex -18.32 -7.295 -16.18
      vertex -18.32 -7.295 -10.7
    endloop
  endfacet
  facet normal -1 0 0
    outer loop
      vertex -18.32 -7.295 -8.9
      vertex -18.32 -6.655 -6.82
      vertex -18.32 -6.655 -8.9
    endloop
  endfacet
  facet normal -1 -0 0
    outer loop
      vertex -18.32 -6.655 -6.82
      vertex -18.32 -7.295 -8.9
      vertex -18.32 -7.295 -6.82
    endloop
  endfacet
  facet normal 0 -0.894427 0.447214
    outer loop
      vertex -18.32 -7.295 -6.82
      vertex -17.84 -7.135 -6.5
      vertex -18.16 -7.135 -6.5
    endloop
  endfacet
  facet normal 0 -0.894427 0.447214
    outer loop
      vertex -17.84 -7.135 -6.5
      vertex -18.32 -7.295 -6.82
      vertex -17.68 -7.295 -6.82
    endloop
  endfacet
  facet normal 0.894427 -0 0.447214
    outer loop
      vertex -17.84 -7.135 -6.5
      vertex -17.68 -6.655 -6.82
      vertex -17.84 -6.815 -6.5
    endloop
  endfacet
  facet normal 0.894427 0 0.447214
    outer loop
      vertex -17.68 -6.655 -6.82
      vertex -17.84 -7.135 -6.5
      vertex -17.68 -7.295 -6.82
    endloop
  endfacet
  facet normal 0 1 -0
    outer loop
      vertex -17.68 -6.655 -8.9
      vertex -18.32 -6.655 -6.82
      vertex -17.68 -6.655 -6.82
    endloop
  endfacet
  facet normal 0 1 0
    outer loop
      vertex -18.32 -6.655 -6.82
      vertex -17.68 -6.655 -8.9
      vertex -18.32 -6.655 -8.9
    endloop
  endfacet
  facet normal 0 1 -0
    outer loop
      vertex -17.68 -6.655 -16.18
      vertex -18.32 -6.655 -10.7
      vertex -17.68 -6.655 -10.7
    endloop
  endfacet
  facet normal 0 1 0
    outer loop
      vertex -18.32 -6.655 -10.7
      vertex -17.68 -6.655 -16.18
      vertex -18.32 -6.655 -16.18
    endloop
  endfacet
  facet normal 0 0 -1
    outer loop
      vertex -18.16 -7.135 -16.5
      vertex -17.84 -6.815 -16.5
      vertex -17.84 -7.135 -16.5
    endloop
  endfacet
  facet normal -0 0 -1
    outer loop
      vertex -17.84 -6.815 -16.5
      vertex -18.16 -7.135 -16.5
      vertex -18.16 -6.815 -16.5
    endloop
  endfacet
  facet normal -0.894427 0 -0.447214
    outer loop
      vertex -18.16 -7.135 -16.5
      vertex -18.32 -6.655 -16.18
      vertex -18.16 -6.815 -16.5
    endloop
  endfacet
  facet normal -0.894427 -0 -0.447214
    outer loop
      vertex -18.32 -6.655 -16.18
      vertex -18.16 -7.135 -16.5
      vertex -18.32 -7.295 -16.18
    endloop
  endfacet
  facet normal -0 0 1
    outer loop
      vertex -18.16 -6.815 -6.5
      vertex -17.84 -7.135 -6.5
      vertex -17.84 -6.815 -6.5
    endloop
  endfacet
  facet normal 0 0 1
    outer loop
      vertex -17.84 -7.135 -6.5
      vertex -18.16 -6.815 -6.5
      vertex -18.16 -7.135 -6.5
    endloop
  endfacet
  facet normal 0 0.894427 -0.447214
    outer loop
      vertex -17.84 -6.815 -16.5
      vertex -18.32 -6.655 -16.18
      vertex -17.68 -6.655 -16.18
    endloop
  endfacet
  facet normal 0 0.894427 -0.447214
    outer loop
      vertex -18.32 -6.655 -16.18
      vertex -17.84 -6.815 -16.5
      vertex -18.16 -6.815 -16.5
    endloop
  endfacet
  facet normal 0 0.894427 0.447214
    outer loop
      vertex -17.68 -6.655 -6.82
      vertex -18.16 -6.815 -6.5
      vertex -17.84 -6.815 -6.5
    endloop
  endfacet
  facet normal 0 0.894427 0.447214
    outer loop
      vertex -18.16 -6.815 -6.5
      vertex -17.68 -6.655 -6.82
      vertex -18.32 -6.655 -6.82
    endloop
  endfacet
  facet normal 0.894427 0 -0.447214
    outer loop
      vertex -15.18 -6.655 -16.18
      vertex -15.34 -7.135 -16.5
      vertex -15.34 -6.815 -16.5
    endloop
  endfacet
  facet normal 0.894427 0 -0.447214
    outer loop
      vertex -15.34 -7.135 -16.5
      vertex -15.18 -6.655 -16.18
      vertex -15.18 -7.295 -16.18
    endloop
  endfacet
  facet normal 1 -0 0
    outer loop
      vertex -15.18 -7.295 -10.7
      vertex -15.18 -6.655 -16.18
      vertex -15.18 -6.655 -10.7
    endloop
  endfacet
  facet normal 1 0 0
    outer loop
      vertex -15.18 -6.655 -16.18
      vertex -15.18 -7.295 -10.7
      vertex -15.18 -7.295 -16.18
    endloop
  endfacet
  facet normal 1 -0 0
    outer loop
      vertex -15.18 -7.295 -6.82
      vertex -15.18 -6.655 -8.9
      vertex -15.18 -6.655 -6.82
    endloop
  endfacet
  facet normal 1 0 0
    outer loop
      vertex -15.18 -6.655 -8.9
      vertex -15.18 -7.295 -6.82
      vertex -15.18 -7.295 -8.9
    endloop
  endfacet
  facet normal -0.894427 0 0.447214
    outer loop
      vertex -15.82 -6.655 -6.82
      vertex -15.66 -7.135 -6.5
      vertex -15.66 -6.815 -6.5
    endloop
  endfacet
  facet normal -0.894427 0 0.447214
    outer loop
      vertex -15.66 -7.135 -6.5
      vertex -15.82 -6.655 -6.82
      vertex -15.82 -7.295 -6.82
    endloop
  endfacet
  facet normal -1 0 0
    outer loop
      vertex -15.82 -7.295 -8.9
      vertex -15.82 -6.655 -6.82
      vertex -15.82 -6.655 -8.9
    endloop
  endfacet
  facet normal -1 -0 0
    outer loop
      vertex -15.82 -6.655 -6.82
      vertex -15.82 -7.295 -8.9
      vertex -15.82 -7.295 -6.82
    endloop
  endfacet
  facet normal -1 0 0
    outer loop
      vertex -15.82 -7.295 -16.18
      vertex -15.82 -6.655 -10.7
      vertex -15.82 -6.655 -16.18
    endloop
  endfacet
  facet normal -1 -0 0
    outer loop
      vertex -15.82 -6.655 -10.7
      vertex -15.82 -7.295 -16.18
      vertex -15.82 -7.295 -10.7
    endloop
  endfacet
  facet normal -0.894427 0 -0.447214
    outer loop
      vertex -15.66 -7.135 -16.5
      vertex -15.82 -6.655 -16.18
      vertex -15.66 -6.815 -16.5
    endloop
  endfacet
  facet normal -0.894427 -0 -0.447214
    outer loop
      vertex -15.82 -6.655 -16.18
      vertex -15.66 -7.135 -16.5
      vertex -15.82 -7.295 -16.18
    endloop
  endfacet
  facet normal 0 -1 0
    outer loop
      vertex -15.82 -7.295 -16.18
      vertex -15.18 -7.295 -10.7
      vertex -15.82 -7.295 -10.7
    endloop
  endfacet
  facet normal 0 -1 -0
    outer loop
      vertex -15.18 -7.295 -10.7
      vertex -15.82 -7.295 -16.18
      vertex -15.18 -7.295 -16.18
    endloop
  endfacet
  facet normal 0 -1 0
    outer loop
      vertex -15.82 -7.295 -8.9
      vertex -15.18 -7.295 -6.82
      vertex -15.82 -7.295 -6.82
    endloop
  endfacet
  facet normal 0 -1 -0
    outer loop
      vertex -15.18 -7.295 -6.82
      vertex -15.82 -7.295 -8.9
      vertex -15.18 -7.295 -8.9
    endloop
  endfacet
  facet normal 0 1 -0
    outer loop
      vertex -15.18 -6.655 -8.9
      vertex -15.82 -6.655 -6.82
      vertex -15.18 -6.655 -6.82
    endloop
  endfacet
  facet normal 0 1 0
    outer loop
      vertex -15.82 -6.655 -6.82
      vertex -15.18 -6.655 -8.9
      vertex -15.82 -6.655 -8.9
    endloop
  endfacet
  facet normal 0 1 -0
    outer loop
      vertex -15.18 -6.655 -16.18
      vertex -15.82 -6.655 -10.7
      vertex -15.18 -6.655 -10.7
    endloop
  endfacet
  facet normal 0 1 0
    outer loop
      vertex -15.82 -6.655 -10.7
      vertex -15.18 -6.655 -16.18
      vertex -15.82 -6.655 -16.18
    endloop
  endfacet
  facet normal 0.894427 -0 0.447214
    outer loop
      vertex -15.34 -7.135 -6.5
      vertex -15.18 -6.655 -6.82
      vertex -15.34 -6.815 -6.5
    endloop
  endfacet
  facet normal 0.894427 0 0.447214
    outer loop
      vertex -15.18 -6.655 -6.82
      vertex -15.34 -7.135 -6.5
      vertex -15.18 -7.295 -6.82
    endloop
  endfacet
  facet normal 0 -0.894427 -0.447214
    outer loop
      vertex -15.66 -7.135 -16.5
      vertex -15.18 -7.295 -16.18
      vertex -15.82 -7.295 -16.18
    endloop
  endfacet
  facet normal 0 -0.894427 -0.447214
    outer loop
      vertex -15.18 -7.295 -16.18
      vertex -15.66 -7.135 -16.5
      vertex -15.34 -7.135 -16.5
    endloop
  endfacet
  facet normal 0 0.894427 0.447214
    outer loop
      vertex -15.18 -6.655 -6.82
      vertex -15.66 -6.815 -6.5
      vertex -15.34 -6.815 -6.5
    endloop
  endfacet
  facet normal 0 0.894427 0.447214
    outer loop
      vertex -15.66 -6.815 -6.5
      vertex -15.18 -6.655 -6.82
      vertex -15.82 -6.655 -6.82
    endloop
  endfacet
  facet normal 0 0 -1
    outer loop
      vertex -15.66 -7.135 -16.5
      vertex -15.34 -6.815 -16.5
      vertex -15.34 -7.135 -16.5
    endloop
  endfacet
  facet normal -0 0 -1
    outer loop
      vertex -15.34 -6.815 -16.5
      vertex -15.66 -7.135 -16.5
      vertex -15.66 -6.815 -16.5
    endloop
  endfacet
  facet normal 0 -0.894427 0.447214
    outer loop
      vertex -15.82 -7.295 -6.82
      vertex -15.34 -7.135 -6.5
      vertex -15.66 -7.135 -6.5
    endloop
  endfacet
  facet normal 0 -0.894427 0.447214
    outer loop
      vertex -15.34 -7.135 -6.5
      vertex -15.82 -7.295 -6.82
      vertex -15.18 -7.295 -6.82
    endloop
  endfacet
  facet normal 0 0.894427 -0.447214
    outer loop
      vertex -15.34 -6.815 -16.5
      vertex -15.82 -6.655 -16.18
      vertex -15.18 -6.655 -16.18
    endloop
  endfacet
  facet normal 0 0.894427 -0.447214
    outer loop
      vertex -15.82 -6.655 -16.18
      vertex -15.34 -6.815 -16.5
      vertex -15.66 -6.815 -16.5
    endloop
  endfacet
  facet normal -0 0 1
    outer loop
      vertex -15.66 -6.815 -6.5
      vertex -15.34 -7.135 -6.5
      vertex -15.34 -6.815 -6.5
    endloop
  endfacet
  facet normal 0 0 1
    outer loop
      vertex -15.34 -7.135 -6.5
      vertex -15.66 -6.815 -6.5
      vertex -15.66 -7.135 -6.5
    endloop
  endfacet
  facet normal 0.894427 0 -0.447214
    outer loop
      vertex -12.68 -6.655 -16.18
      vertex -12.84 -7.135 -16.5
      vertex -12.84 -6.815 -16.5
    endloop
  endfacet
  facet normal 0.894427 0 -0.447214
    outer loop
      vertex -12.84 -7.135 -16.5
      vertex -12.68 -6.655 -16.18
      vertex -12.68 -7.295 -16.18
    endloop
  endfacet
  facet normal 1 -0 0
    outer loop
      vertex -12.68 -7.295 -10.7
      vertex -12.68 -6.655 -16.18
      vertex -12.68 -6.655 -10.7
    endloop
  endfacet
  facet normal 1 0 0
    outer loop
      vertex -12.68 -6.655 -16.18
      vertex -12.68 -7.295 -10.7
      vertex -12.68 -7.295 -16.18
    endloop
  endfacet
  facet normal 1 -0 0
    outer loop
      vertex -12.68 -7.295 -6.82
      vertex -12.68 -6.655 -8.9
      vertex -12.68 -6.655 -6.82
    endloop
  endfacet
  facet normal 1 0 0
    outer loop
      vertex -12.68 -6.655 -8.9
      vertex -12.68 -7.295 -6.82
      vertex -12.68 -7.295 -8.9
    endloop
  endfacet
  facet normal -0.894427 0 0.447214
    outer loop
      vertex -13.32 -6.655 -6.82
      vertex -13.16 -7.135 -6.5
      vertex -13.16 -6.815 -6.5
    endloop
  endfacet
  facet normal -0.894427 0 0.447214
    outer loop
      vertex -13.16 -7.135 -6.5
      vertex -13.32 -6.655 -6.82
      vertex -13.32 -7.295 -6.82
    endloop
  endfacet
  facet normal 0 -1 0
    outer loop
      vertex -13.32 -7.295 -16.18
      vertex -12.68 -7.295 -10.7
      vertex -13.32 -7.295 -10.7
    endloop
  endfacet
  facet normal 0 -1 -0
    outer loop
      vertex -12.68 -7.295 -10.7
      vertex -13.32 -7.295 -16.18
      vertex -12.68 -7.295 -16.18
    endloop
  endfacet
  facet normal 0 -1 0
    outer loop
      vertex -13.32 -7.295 -8.9
      vertex -12.68 -7.295 -6.82
      vertex -13.32 -7.295 -6.82
    endloop
  endfacet
  facet normal 0 -1 -0
    outer loop
      vertex -12.68 -7.295 -6.82
      vertex -13.32 -7.295 -8.9
      vertex -12.68 -7.295 -8.9
    endloop
  endfacet
  facet normal 0 -0.894427 -0.447214
    outer loop
      vertex -13.16 -7.135 -16.5
      vertex -12.68 -7.295 -16.18
      vertex -13.32 -7.295 -16.18
    endloop
  endfacet
  facet normal 0 -0.894427 -0.447214
    outer loop
      vertex -12.68 -7.295 -16.18
      vertex -13.16 -7.135 -16.5
      vertex -12.84 -7.135 -16.5
    endloop
  endfacet
  facet normal -1 0 0
    outer loop
      vertex -13.32 -7.295 -16.18
      vertex -13.32 -6.655 -10.7
      vertex -13.32 -6.655 -16.18
    endloop
  endfacet
  facet normal -1 -0 0
    outer loop
      vertex -13.32 -6.655 -10.7
      vertex -13.32 -7.295 -16.18
      vertex -13.32 -7.295 -10.7
    endloop
  endfacet
  facet normal -1 0 0
    outer loop
      vertex -13.32 -7.295 -8.9
      vertex -13.32 -6.655 -6.82
      vertex -13.32 -6.655 -8.9
    endloop
  endfacet
  facet normal -1 -0 0
    outer loop
      vertex -13.32 -6.655 -6.82
      vertex -13.32 -7.295 -8.9
      vertex -13.32 -7.295 -6.82
    endloop
  endfacet
  facet normal 0 -0.894427 0.447214
    outer loop
      vertex -13.32 -7.295 -6.82
      vertex -12.84 -7.135 -6.5
      vertex -13.16 -7.135 -6.5
    endloop
  endfacet
  facet normal 0 -0.894427 0.447214
    outer loop
      vertex -12.84 -7.135 -6.5
      vertex -13.32 -7.295 -6.82
      vertex -12.68 -7.295 -6.82
    endloop
  endfacet
  facet normal 0.894427 -0 0.447214
    outer loop
      vertex -12.84 -7.135 -6.5
      vertex -12.68 -6.655 -6.82
      vertex -12.84 -6.815 -6.5
    endloop
  endfacet
  facet normal 0.894427 0 0.447214
    outer loop
      vertex -12.68 -6.655 -6.82
      vertex -12.84 -7.135 -6.5
      vertex -12.68 -7.295 -6.82
    endloop
  endfacet
  facet normal 0 1 -0
    outer loop
      vertex -12.68 -6.655 -8.9
      vertex -13.32 -6.655 -6.82
      vertex -12.68 -6.655 -6.82
    endloop
  endfacet
  facet normal 0 1 0
    outer loop
      vertex -13.32 -6.655 -6.82
      vertex -12.68 -6.655 -8.9
      vertex -13.32 -6.655 -8.9
    endloop
  endfacet
  facet normal 0 1 -0
    outer loop
      vertex -12.68 -6.655 -16.18
      vertex -13.32 -6.655 -10.7
      vertex -12.68 -6.655 -10.7
    endloop
  endfacet
  facet normal 0 1 0
    outer loop
      vertex -13.32 -6.655 -10.7
      vertex -12.68 -6.655 -16.18
      vertex -13.32 -6.655 -16.18
    endloop
  endfacet
  facet normal 0 0 -1
    outer loop
      vertex -13.16 -7.135 -16.5
      vertex -12.84 -6.815 -16.5
      vertex -12.84 -7.135 -16.5
    endloop
  endfacet
  facet normal -0 0 -1
    outer loop
      vertex -12.84 -6.815 -16.5
      vertex -13.16 -7.135 -16.5
      vertex -13.16 -6.815 -16.5
    endloop
  endfacet
  facet normal -0.894427 0 -0.447214
    outer loop
      vertex -13.16 -7.135 -16.5
      vertex -13.32 -6.655 -16.18
      vertex -13.16 -6.815 -16.5
    endloop
  endfacet
  facet normal -0.894427 -0 -0.447214
    outer loop
      vertex -13.32 -6.655 -16.18
      vertex -13.16 -7.135 -16.5
      vertex -13.32 -7.295 -16.18
    endloop
  endfacet
  facet normal -0 0 1
    outer loop
      vertex -13.16 -6.815 -6.5
      vertex -12.84 -7.135 -6.5
      vertex -12.84 -6.815 -6.5
    endloop
  endfacet
  facet normal 0 0 1
    outer loop
      vertex -12.84 -7.135 -6.5
      vertex -13.16 -6.815 -6.5
      vertex -13.16 -7.135 -6.5
    endloop
  endfacet
  facet normal 0 0.894427 -0.447214
    outer loop
      vertex -12.84 -6.815 -16.5
      vertex -13.32 -6.655 -16.18
      vertex -12.68 -6.655 -16.18
    endloop
  endfacet
  facet normal 0 0.894427 -0.447214
    outer loop
      vertex -13.32 -6.655 -16.18
      vertex -12.84 -6.815 -16.5
      vertex -13.16 -6.815 -16.5
    endloop
  endfacet
  facet normal 0 0.894427 0.447214
    outer loop
      vertex -12.68 -6.655 -6.82
      vertex -13.16 -6.815 -6.5
      vertex -12.84 -6.815 -6.5
    endloop
  endfacet
  facet normal 0 0.894427 0.447214
    outer loop
      vertex -13.16 -6.815 -6.5
      vertex -12.68 -6.655 -6.82
      vertex -13.32 -6.655 -6.82
    endloop
  endfacet
  facet normal 0 0 1
    outer loop
      vertex 20.5 10.5 -8.9
      vertex -12.68 -6.655 -8.9
      vertex 20.5 -10.5 -8.9
    endloop
  endfacet
  facet normal -0 0 1
    outer loop
      vertex -20.5 10.5 -8.9
      vertex -12.68 -6.655 -8.9
      vertex 20.5 10.5 -8.9
    endloop
  endfacet
  facet normal 0 0 1
    outer loop
      vertex -13.32 -6.655 -8.9
      vertex -15.18 -6.655 -8.9
      vertex -13.32 -7.295 -8.9
    endloop
  endfacet
  facet normal 0 0 1
    outer loop
      vertex -12.68 -6.655 -8.9
      vertex -20.5 10.5 -8.9
      vertex -13.32 -6.655 -8.9
    endloop
  endfacet
  facet normal 0 0 1
    outer loop
      vertex -13.32 -6.655 -8.9
      vertex -20.5 10.5 -8.9
      vertex -15.18 -6.655 -8.9
    endloop
  endfacet
  facet normal 0 0 1
    outer loop
      vertex -15.82 -6.655 -8.9
      vertex -17.68 -6.655 -8.9
      vertex -15.82 -7.295 -8.9
    endloop
  endfacet
  facet normal 0 0 1
    outer loop
      vertex -15.18 -6.655 -8.9
      vertex -20.5 10.5 -8.9
      vertex -15.82 -6.655 -8.9
    endloop
  endfacet
  facet normal 0 0 1
    outer loop
      vertex -15.82 -6.655 -8.9
      vertex -20.5 10.5 -8.9
      vertex -17.68 -6.655 -8.9
    endloop
  endfacet
  facet normal 0 0 1
    outer loop
      vertex -20.5 -10.5 -8.9
      vertex -18.32 -6.655 -8.9
      vertex -20.5 10.5 -8.9
    endloop
  endfacet
  facet normal 0 0 1
    outer loop
      vertex -17.68 -6.655 -8.9
      vertex -20.5 10.5 -8.9
      vertex -18.32 -6.655 -8.9
    endloop
  endfacet
  facet normal -0 0 1
    outer loop
      vertex -12.68 -7.295 -8.9
      vertex 20.5 -10.5 -8.9
      vertex -12.68 -6.655 -8.9
    endloop
  endfacet
  facet normal 0 0 1
    outer loop
      vertex -20.5 -10.5 -8.9
      vertex -12.68 -7.295 -8.9
      vertex -13.32 -7.295 -8.9
    endloop
  endfacet
  facet normal 0 0 1
    outer loop
      vertex -15.18 -7.295 -8.9
      vertex -13.32 -7.295 -8.9
      vertex -15.18 -6.655 -8.9
    endloop
  endfacet
  facet normal 0 0 1
    outer loop
      vertex -20.5 -10.5 -8.9
      vertex -13.32 -7.295 -8.9
      vertex -15.18 -7.295 -8.9
    endloop
  endfacet
  facet normal 0 0 1
    outer loop
      vertex -20.5 -10.5 -8.9
      vertex -15.18 -7.295 -8.9
      vertex -15.82 -7.295 -8.9
    endloop
  endfacet
  facet normal 0 0 1
    outer loop
      vertex -17.68 -7.295 -8.9
      vertex -15.82 -7.295 -8.9
      vertex -17.68 -6.655 -8.9
    endloop
  endfacet
  facet normal 0 0 1
    outer loop
      vertex -20.5 -10.5 -8.9
      vertex -15.82 -7.295 -8.9
      vertex -17.68 -7.295 -8.9
    endloop
  endfacet
  facet normal 0 0 1
    outer loop
      vertex -20.5 -10.5 -8.9
      vertex -17.68 -7.295 -8.9
      vertex -18.32 -7.295 -8.9
    endloop
  endfacet
  facet normal 0 0 1
    outer loop
      vertex -12.68 -7.295 -8.9
      vertex -20.5 -10.5 -8.9
      vertex 20.5 -10.5 -8.9
    endloop
  endfacet
  facet normal 0 0 1
    outer loop
      vertex -18.32 -6.655 -8.9
      vertex -20.5 -10.5 -8.9
      vertex -18.32 -7.295 -8.9
    endloop
  endfacet
  facet normal 1 -0 0
    outer loop
      vertex 20.5 -10.5 -8.9
      vertex 20.5 10.5 -9.9
      vertex 20.5 10.5 -8.9
    endloop
  endfacet
  facet normal 1 0 0
    outer loop
      vertex 20.5 10.5 -9.9
      vertex 20.5 -10.5 -8.9
      vertex 20.5 -10.5 -9.9
    endloop
  endfacet
  facet normal 0 1 -0
    outer loop
      vertex 20.5 10.5 -9.9
      vertex -20.5 10.5 -8.9
      vertex 20.5 10.5 -8.9
    endloop
  endfacet
  facet normal 0 1 0
    outer loop
      vertex -20.5 10.5 -8.9
      vertex 20.5 10.5 -9.9
      vertex -20.5 10.5 -9.9
    endloop
  endfacet
  facet normal -1 0 0
    outer loop
      vertex -20.5 -10.5 -9.9
      vertex -20.5 10.5 -8.9
      vertex -20.5 10.5 -9.9
    endloop
  endfacet
  facet normal -1 -0 0
    outer loop
      vertex -20.5 10.5 -8.9
      vertex -20.5 -10.5 -9.9
      vertex -20.5 -10.5 -8.9
    endloop
  endfacet
  facet normal 0 -1 0
    outer loop
      vertex -20.5 -10.5 -9.9
      vertex 20.5 -10.5 -8.9
      vertex -20.5 -10.5 -8.9
    endloop
  endfacet
  facet normal 0 -1 -0
    outer loop
      vertex 20.5 -10.5 -8.9
      vertex -20.5 -10.5 -9.9
      vertex 20.5 -10.5 -9.9
    endloop
  endfacet
  facet normal 1 -0 0
    outer loop
      vertex 18 -9 0.0117188
      vertex 18 9 0.0078125
      vertex 18 9 0.0117188
    endloop
  endfacet
  facet normal 1 0 0
    outer loop
      vertex 18 9 0.0078125
      vertex 18 -9 0.0117188
      vertex 18 -9 0.0078125
    endloop
  endfacet
  facet normal 1 -0 0
    outer loop
      vertex 18 -9 0
      vertex 18 9 -0.0117188
      vertex 18 9 0
    endloop
  endfacet
  facet normal 1 0 0
    outer loop
      vertex 18 9 -0.0117188
      vertex 18 -9 0
      vertex 18 -9 -0.0117188
    endloop
  endfacet
  facet normal -0 0 1
    outer loop
      vertex -18 9 0.0117188
      vertex 18 -9 0.0117188
      vertex 18 9 0.0117188
    endloop
  endfacet
  facet normal 0 0 1
    outer loop
      vertex 18 -9 0.0117188
      vertex -18 9 0.0117188
      vertex -18 -9 0.0117188
    endloop
  endfacet
  facet normal 0 0 -1
    outer loop
      vertex -18 -9 -0.0117188
      vertex 18 9 -0.0117188
      vertex 18 -9 -0.0117188
    endloop
  endfacet
  facet normal -0 0 -1
    outer loop
      vertex 18 9 -0.0117188
      vertex -18 -9 -0.0117188
      vertex -18 9 -0.0117188
    endloop
  endfacet
  facet normal -1 0 0
    outer loop
      vertex -18 -9 0.0078125
      vertex -18 9 0.0117188
      vertex -18 9 0.0078125
    endloop
  endfacet
  facet normal -1 -0 0
    outer loop
      vertex -18 9 0.0117188
      vertex -18 -9 0.0078125
      vertex -18 -9 0.0117188
    endloop
  endfacet
  facet normal -1 0 0
    outer loop
      vertex -18 -9 -0.0117188
      vertex -18 9 0
      vertex -18 9 -0.0117188
    endloop
  endfacet
  facet normal -1 -0 0
    outer loop
      vertex -18 9 0
      vertex -18 -9 -0.0117188
      vertex -18 -9 0
    endloop
  endfacet
  facet normal 0 1 -0
    outer loop
      vertex 18 9 0.0078125
      vertex -18 9 0.0117188
      vertex 18 9 0.0117188
    endloop
  endfacet
  facet normal 0 1 0
    outer loop
      vertex -18 9 0.0117188
      vertex 18 9 0.0078125
      vertex -18 9 0.0078125
    endloop
  endfacet
  facet normal 0 1 -0
    outer loop
      vertex 18 9 -0.0117188
      vertex -18 9 0
      vertex 18 9 0
    endloop
  endfacet
  facet normal 0 1 0
    outer loop
      vertex -18 9 0
      vertex 18 9 -0.0117188
      vertex -18 9 -0.0117188
    endloop
  endfacet
  facet normal 0 -1 0
    outer loop
      vertex -18 -9 0.0078125
      vertex 18 -9 0.0117188
      vertex -18 -9 0.0117188
    endloop
  endfacet
  facet normal 0 -1 -0
    outer loop
      vertex 18 -9 0.0117188
      vertex -18 -9 0.0078125
      vertex 18 -9 0.0078125
    endloop
  endfacet
  facet normal 0 -1 0
    outer loop
      vertex -18 -9 -0.0117188
      vertex 18 -9 0
      vertex -18 -9 0
    endloop
  endfacet
  facet normal 0 -1 -0
    outer loop
      vertex 18 -9 0
      vertex -18 -9 -0.0117188
      vertex 18 -9 -0.0117188
    endloop
  endfacet
endsolid OpenSCAD_Model
